<?xml version="1.0" standalone="no"?>
<!DOCTYPE svg PUBLIC "-//W3C//DTD SVG 20010904//EN"
 "http://www.w3.org/TR/2001/REC-SVG-20010904/DTD/svg10.dtd">
<svg version="1.0" xmlns="http://www.w3.org/2000/svg"
 width="735.000000pt" height="752.000000pt" viewBox="0 0 735.000000 752.000000"
 preserveAspectRatio="xMidYMid meet">

<g transform="translate(0.000000,752.000000) scale(0.100000,-0.100000)"
fill="#000000" stroke="none">
<path d="M1604 6821 c7 -11 -18 -21 -54 -21 -16 0 -32 -4 -35 -10 -3 -5 -20
-10 -36 -10 -18 0 -28 -4 -24 -10 4 -6 -5 -10 -19 -10 -16 0 -26 -6 -26 -15 0
-9 -9 -15 -25 -15 -14 0 -25 -4 -25 -10 0 -5 -7 -10 -16 -10 -9 0 -27 -11 -40
-25 -13 -14 -30 -25 -39 -25 -8 0 -15 -4 -15 -10 0 -5 -7 -10 -15 -10 -8 0
-15 -7 -15 -15 0 -8 -7 -15 -15 -15 -8 0 -15 -4 -15 -10 0 -5 -7 -10 -15 -10
-8 0 -15 -4 -15 -10 0 -5 -7 -10 -15 -10 -8 0 -15 -7 -15 -15 0 -8 -5 -15 -11
-15 -6 0 -26 -16 -45 -35 -18 -19 -40 -35 -49 -35 -8 0 -15 -7 -15 -15 0 -8
-7 -15 -16 -15 -8 0 -12 -4 -9 -10 3 -5 -1 -10 -9 -10 -9 0 -16 -4 -16 -10 0
-5 -7 -10 -15 -10 -9 0 -12 -6 -9 -15 4 -8 1 -15 -5 -15 -7 0 -24 -11 -39 -25
-15 -14 -32 -25 -39 -25 -7 0 -13 -4 -13 -10 0 -5 -7 -10 -16 -10 -8 0 -12 -4
-9 -10 4 -6 -5 -10 -19 -10 -16 0 -26 -6 -26 -15 0 -8 -7 -15 -15 -15 -8 0
-15 -4 -15 -10 0 -5 -7 -10 -15 -10 -8 0 -15 -4 -15 -10 0 -5 -7 -10 -15 -10
-8 0 -15 -7 -15 -15 0 -8 -6 -15 -13 -15 -7 0 -19 -9 -27 -20 -8 -11 -20 -20
-27 -20 -7 0 -13 -7 -13 -15 0 -8 -4 -15 -10 -15 -13 0 -116 -102 -113 -112 2
-4 -2 -8 -7 -8 -6 0 -22 -11 -36 -25 -14 -14 -29 -25 -35 -25 -6 0 -7 -4 -4
-10 3 -5 -3 -10 -14 -10 -12 0 -21 -5 -21 -11 0 -11 -25 -39 -35 -39 -10 0
-35 -28 -35 -39 0 -6 -7 -11 -15 -11 -8 0 -15 -4 -15 -10 0 -5 -7 -10 -15 -10
-9 0 -18 -7 -21 -15 -4 -8 -12 -15 -20 -15 -8 0 -14 -4 -14 -10 0 -5 -9 -10
-21 -10 -11 0 -17 -4 -14 -10 4 -6 -5 -10 -19 -10 -14 0 -26 6 -26 13 -1 6
-10 -10 -22 -38 -12 -27 -27 -54 -33 -58 -7 -6 -6 -10 3 -14 14 -6 16 -43 2
-43 -6 0 -10 -34 -10 -81 0 -51 -4 -78 -10 -74 -6 4 -10 -47 -10 -145 0 -98 4
-149 10 -145 6 4 10 -21 10 -69 0 -41 5 -78 10 -81 6 -3 10 -24 10 -45 0 -21
4 -41 9 -44 5 -4 12 -24 16 -46 4 -22 11 -40 16 -40 5 0 9 -18 9 -41 0 -22 4
-38 9 -35 5 4 12 -7 16 -24 4 -16 11 -32 16 -35 5 -4 9 -17 9 -31 0 -13 5 -24
10 -24 6 0 10 -11 10 -25 0 -16 6 -25 15 -25 9 0 15 -9 15 -25 0 -14 5 -25 10
-25 6 0 10 -9 10 -20 0 -11 5 -20 10 -20 6 0 10 -9 10 -20 0 -11 7 -23 15 -26
8 -4 15 -15 15 -26 0 -10 5 -16 10 -13 6 4 10 -5 10 -19 0 -16 6 -26 15 -26 8
0 15 -7 15 -15 0 -8 5 -15 10 -15 6 0 10 -9 10 -20 0 -11 5 -20 10 -20 6 0 10
-7 10 -15 0 -8 7 -15 15 -15 8 0 15 -9 15 -20 0 -11 5 -20 10 -20 6 0 10 -7
10 -15 0 -8 4 -15 9 -15 5 0 13 -9 16 -20 4 -11 11 -18 16 -15 5 4 9 -1 9 -11
0 -9 16 -31 35 -50 19 -18 35 -39 35 -47 0 -8 7 -18 16 -21 8 -3 12 -10 9 -16
-3 -5 1 -10 9 -10 9 0 16 -7 16 -16 0 -8 5 -12 10 -9 6 3 10 -1 10 -9 0 -9 7
-16 15 -16 8 0 15 -5 15 -10 0 -6 10 -22 23 -35 37 -40 47 -54 47 -65 0 -6 4
-8 10 -5 5 3 10 -1 10 -9 0 -9 7 -16 15 -16 8 0 15 -8 15 -17 0 -9 2 -14 5
-11 7 7 65 -50 65 -63 0 -5 7 -9 16 -9 8 0 12 -5 9 -10 -3 -5 0 -10 8 -10 7 0
20 -11 27 -25 7 -14 17 -25 22 -25 13 0 38 -26 38 -39 0 -6 5 -11 10 -11 6 0
22 -11 36 -25 14 -14 29 -25 35 -25 6 0 7 -4 4 -10 -3 -5 -1 -10 5 -10 6 0 21
-11 34 -25 13 -14 26 -25 30 -25 11 0 36 -27 36 -39 0 -6 7 -11 16 -11 8 0 12
-4 9 -10 -3 -5 -1 -10 6 -10 6 0 22 -11 35 -25 13 -14 30 -25 39 -25 9 0 13
-4 10 -10 -3 -6 -1 -10 5 -10 6 0 25 -15 43 -33 17 -18 40 -36 50 -40 10 -4
15 -11 12 -17 -3 -5 3 -10 14 -10 12 0 21 -4 21 -10 0 -5 7 -10 15 -10 8 0 15
-4 15 -9 0 -5 9 -11 21 -14 12 -3 18 -10 14 -16 -3 -6 1 -11 10 -11 9 0 26
-11 39 -25 13 -14 31 -25 40 -25 9 0 16 -4 16 -10 0 -5 7 -10 15 -10 8 0 15
-7 15 -15 0 -8 9 -15 21 -15 11 0 17 -4 14 -10 -3 -5 3 -10 14 -10 12 0 21 -4
21 -10 0 -5 6 -10 14 -10 8 0 16 -7 20 -15 3 -8 12 -15 21 -15 8 0 15 -4 15
-10 0 -5 7 -10 15 -10 9 0 26 -11 39 -25 13 -14 28 -25 35 -25 6 0 11 -4 11
-10 0 -5 9 -10 20 -10 11 0 20 -7 20 -15 0 -8 7 -15 15 -15 8 0 15 -4 15 -10
0 -5 7 -10 16 -10 8 0 12 -4 9 -10 -3 -5 1 -10 10 -10 8 0 18 -7 21 -15 4 -8
12 -15 20 -15 8 0 14 -4 14 -10 0 -5 5 -10 10 -10 10 0 22 -8 55 -37 7 -7 18
-13 24 -13 6 0 11 -4 11 -9 0 -5 11 -12 25 -15 14 -4 23 -11 20 -16 -3 -6 1
-10 9 -10 9 0 16 -4 16 -10 0 -5 5 -10 11 -10 6 0 17 -6 24 -12 35 -31 45 -38
59 -38 7 0 16 -7 20 -15 3 -8 12 -15 21 -15 8 0 15 -4 15 -10 0 -5 7 -10 15
-10 8 0 15 -4 15 -10 0 -5 9 -10 20 -10 11 0 20 -7 20 -15 0 -8 9 -15 20 -15
11 0 20 -4 20 -10 0 -5 7 -10 15 -10 8 0 15 -4 15 -9 0 -5 11 -12 25 -15 14
-4 25 -11 25 -16 0 -6 9 -10 21 -10 11 0 17 -4 14 -10 -3 -5 3 -10 14 -10 12
0 21 -7 21 -15 0 -8 6 -15 14 -15 17 0 75 -29 61 -31 -5 -1 4 -4 20 -8 17 -4
29 -12 28 -19 -2 -7 8 -12 22 -12 14 0 25 -3 25 -8 0 -7 30 -25 63 -38 9 -3
17 -10 17 -15 0 -5 7 -9 16 -9 8 0 22 -7 31 -15 8 -8 19 -13 24 -9 5 3 12 -2
15 -10 3 -9 15 -16 25 -16 10 0 19 -4 19 -10 0 -5 11 -10 25 -10 16 0 25 -6
25 -15 0 -9 9 -15 25 -15 14 0 25 -4 25 -10 0 -5 9 -10 19 -10 10 0 22 -7 25
-16 3 -8 10 -13 15 -10 5 4 16 -1 24 -9 9 -8 25 -15 36 -15 12 0 21 -4 21 -10
0 -5 11 -10 25 -10 16 0 25 -6 25 -15 0 -9 9 -15 25 -15 14 0 25 -4 25 -10 0
-5 11 -10 25 -10 14 0 25 -4 25 -10 0 -5 9 -10 20 -10 11 0 23 -7 26 -15 4 -9
19 -15 35 -15 16 0 29 -4 29 -10 0 -5 11 -10 25 -10 14 0 25 -4 25 -10 0 -5 9
-10 19 -10 28 0 52 -11 45 -21 -3 -5 11 -9 31 -9 20 0 34 -4 31 -9 -7 -10 17
-21 45 -21 10 0 19 -4 19 -10 0 -5 14 -10 30 -10 17 0 30 -4 30 -10 0 -5 15
-10 34 -10 21 0 36 -6 40 -15 3 -9 11 -15 18 -14 31 4 59 -2 53 -11 -4 -6 10
-10 35 -10 25 0 39 -4 35 -10 -4 -6 7 -10 27 -10 18 0 42 -7 52 -15 11 -8 28
-15 38 -15 14 0 18 -8 18 -35 0 -28 -4 -35 -19 -35 -11 0 -23 5 -26 10 -3 6
-17 10 -31 10 -14 0 -27 7 -30 15 -4 8 -17 15 -30 15 -19 0 -24 -5 -24 -25 0
-16 -6 -25 -15 -25 -22 0 -18 -17 6 -23 12 -3 18 -10 14 -16 -4 -7 7 -11 30
-11 22 0 34 -4 30 -10 -4 -6 7 -10 24 -10 21 0 31 -5 31 -15 0 -8 9 -15 20
-15 19 0 20 -7 20 -110 0 -67 -4 -110 -10 -110 -5 0 -10 -5 -10 -11 0 -5 5 -7
10 -4 6 3 10 -3 10 -14 0 -12 7 -21 15 -21 12 0 15 -13 15 -55 0 -30 4 -55 9
-55 6 0 11 -19 13 -42 3 -38 6 -43 30 -46 17 -2 36 4 50 17 23 22 48 28 48 11
0 -5 9 -10 20 -10 11 0 20 -4 20 -10 0 -5 9 -10 20 -10 11 0 20 -7 20 -15 0
-8 9 -15 20 -15 11 0 20 -4 20 -10 0 -5 9 -10 20 -10 11 0 20 -4 20 -10 0 -5
11 -12 25 -16 14 -3 22 -10 19 -15 -3 -5 6 -9 19 -9 14 0 27 -7 31 -15 3 -8
13 -15 21 -15 9 0 13 -4 10 -10 -4 -6 7 -10 24 -10 17 0 31 -4 31 -10 0 -5 6
-10 14 -10 8 0 16 -7 20 -15 3 -9 18 -15 36 -15 18 0 29 -4 25 -10 -4 -6 8
-10 29 -10 19 0 36 -4 38 -9 2 -5 10 -11 17 -13 8 -2 25 -13 37 -25 12 -13 29
-23 38 -23 9 0 16 -7 16 -15 0 -8 7 -15 16 -15 8 0 12 -4 9 -10 -3 -5 0 -10 9
-10 8 0 16 -4 18 -9 2 -5 12 -11 23 -13 14 -2 21 3 23 20 3 19 9 22 49 22 36
0 44 3 39 15 -4 12 4 15 42 15 34 0 43 3 32 10 -11 7 -7 10 18 10 20 0 35 6
38 15 4 10 13 13 25 10 12 -4 21 -1 25 9 3 9 15 16 25 16 10 0 19 5 19 10 0 6
9 10 20 10 11 0 23 7 26 15 4 8 15 15 25 15 10 0 19 5 19 10 0 6 6 10 14 10 8
0 16 7 20 15 3 8 15 15 26 15 12 0 18 5 15 10 -3 6 1 10 9 10 9 0 16 5 16 10
0 6 6 10 13 10 8 0 27 11 43 25 16 14 37 25 47 25 10 0 15 5 12 10 -3 6 2 13
12 17 10 4 25 15 34 25 9 10 21 18 28 18 6 0 11 7 11 15 0 8 7 15 16 15 9 0
27 11 40 26 13 14 24 21 24 17 0 -4 5 0 11 10 5 9 17 17 24 17 8 0 15 5 15 10
0 6 7 10 15 10 8 0 15 7 15 15 0 8 5 15 11 15 6 0 26 16 45 35 18 19 39 35 44
35 6 0 26 16 44 35 19 19 38 35 44 35 6 0 9 7 6 15 -4 9 0 15 10 15 9 0 16 5
16 10 0 6 5 10 11 10 6 0 17 7 26 15 8 8 19 13 24 10 5 -4 9 -1 9 5 0 14 25
40 39 40 6 0 11 5 11 11 0 14 26 39 40 39 6 0 8 5 5 10 -3 6 1 10 9 10 9 0 16
7 16 15 0 8 9 15 20 15 11 0 20 5 20 10 0 6 5 10 11 10 14 0 39 25 39 39 0 6
9 11 21 11 11 0 17 5 14 10 -3 5 1 10 10 10 8 0 18 7 21 15 4 8 12 15 20 15 8
0 14 5 14 10 0 6 7 10 15 10 8 0 14 6 13 12 -2 7 3 12 10 10 7 -1 15 5 18 13
4 8 13 15 21 15 9 0 23 8 32 18 9 10 24 21 34 25 10 4 15 11 12 17 -3 5 3 10
14 10 12 0 21 7 21 15 0 8 7 15 15 15 8 0 15 4 15 8 0 5 16 14 35 22 19 8 35
20 35 27 0 7 9 13 20 13 11 0 20 5 20 10 0 6 7 10 15 10 8 0 15 4 15 9 0 5 12
12 27 16 21 5 24 8 12 16 -11 7 -9 9 9 9 12 0 22 5 22 10 0 6 7 10 15 10 8 0
15 4 15 9 0 5 8 12 18 15 24 8 72 51 72 65 0 6 5 11 11 11 14 0 39 25 39 39 0
6 7 11 16 11 8 0 12 5 9 10 -4 6 5 10 19 10 16 0 26 6 26 15 0 8 4 14 8 13 10
-4 62 48 62 62 0 5 5 10 10 10 17 0 95 83 82 88 -14 4 -16 32 -2 32 6 0 10 12
10 26 0 14 4 23 10 19 6 -4 10 16 10 52 0 41 -3 54 -10 43 -8 -12 -10 -9 -10
11 0 30 -27 89 -41 89 -5 0 -9 9 -9 20 0 11 -4 20 -10 20 -5 0 -10 7 -10 15 0
8 -5 15 -11 15 -11 0 -39 25 -39 35 0 4 -6 13 -13 20 -29 33 -37 45 -37 55 0
5 -6 10 -13 10 -15 0 -57 45 -57 60 0 6 -7 10 -15 10 -8 0 -15 5 -15 10 0 6
-6 10 -13 10 -7 0 -19 8 -28 18 -8 9 -27 26 -42 37 -15 11 -27 25 -27 32 0 7
-5 13 -11 13 -6 0 -26 16 -45 35 -18 19 -40 35 -49 35 -8 0 -15 7 -15 15 0 8
-6 15 -13 15 -7 0 -19 9 -27 20 -8 11 -20 20 -27 20 -7 0 -13 7 -13 15 0 8 -9
15 -20 15 -11 0 -20 5 -20 10 0 6 -5 10 -11 10 -14 0 -39 25 -39 39 0 6 -9 11
-21 11 -11 0 -17 5 -14 10 3 6 -3 10 -14 10 -12 0 -21 7 -21 15 0 8 -5 15 -11
15 -7 0 -19 8 -28 19 -9 10 -25 21 -36 23 -11 2 -19 10 -18 16 2 7 -7 12 -19
12 -12 0 -18 3 -15 7 7 6 -23 27 -55 39 -10 3 -18 10 -18 15 0 5 -7 9 -16 9
-8 0 -13 4 -10 9 3 5 -6 12 -19 15 -14 4 -23 11 -20 16 3 6 -1 10 -9 10 -9 0
-16 5 -16 10 0 6 -11 10 -25 10 -16 0 -25 6 -25 15 0 8 -7 15 -16 15 -8 0 -12
5 -9 10 3 6 -4 10 -16 10 -12 0 -32 11 -45 25 -13 14 -30 25 -39 25 -8 0 -15
5 -15 10 0 6 -7 10 -15 10 -8 0 -15 5 -15 10 0 14 -46 60 -60 60 -5 0 -10 5
-10 11 0 14 -25 39 -39 39 -6 0 -11 5 -11 10 0 14 -46 60 -60 60 -5 0 -10 7
-10 15 0 8 -7 15 -16 15 -8 0 -12 5 -9 10 3 6 1 10 -4 10 -16 0 -51 32 -45 42
3 4 -6 8 -20 8 -14 0 -26 5 -26 10 0 14 -46 60 -60 60 -5 0 -10 7 -10 15 0 8
-6 15 -12 15 -7 0 -26 16 -43 35 -16 19 -36 35 -43 35 -16 0 -42 24 -42 39 0
6 -7 11 -15 11 -8 0 -15 5 -15 10 0 6 -16 10 -35 10 -25 0 -35 4 -35 16 0 8
-5 12 -10 9 -6 -3 -10 3 -10 15 0 11 -7 23 -15 26 -8 4 -15 12 -15 20 0 8 -5
14 -11 14 -6 0 -9 9 -6 20 5 18 -11 26 -45 22 -3 -1 -12 5 -18 13 -7 8 -25 15
-41 15 -16 0 -29 5 -29 10 0 6 -19 10 -42 11 -24 0 -37 3 -30 6 21 8 3 23 -29
23 -16 0 -29 5 -29 10 0 6 -11 10 -25 10 -14 0 -25 5 -25 10 0 6 -11 10 -24
10 -13 0 -26 7 -30 15 -3 8 -17 15 -31 15 -14 0 -25 5 -25 10 0 6 -13 10 -29
10 -16 0 -31 6 -35 15 -3 8 -15 15 -26 15 -11 0 -20 5 -20 10 0 6 -16 10 -36
10 -21 0 -33 4 -29 10 4 6 -7 10 -24 10 -21 0 -31 5 -31 15 0 8 -7 15 -15 15
-8 0 -15 5 -15 10 0 6 -28 10 -65 10 -36 0 -65 4 -65 9 0 5 -23 11 -51 13 -28
3 -55 11 -59 18 -15 24 -17 -23 -3 -70 7 -25 13 -64 13 -88 0 -26 4 -41 10
-37 6 4 10 -18 10 -60 0 -36 4 -64 9 -61 13 9 21 -20 21 -79 0 -33 5 -56 13
-59 10 -5 10 -7 0 -12 -7 -3 -13 -21 -13 -40 0 -24 -5 -34 -15 -34 -10 0 -15
-11 -15 -35 0 -19 -4 -35 -10 -35 -5 0 -10 -13 -10 -28 0 -16 -7 -37 -15 -48
-8 -10 -15 -31 -15 -46 0 -16 -4 -28 -10 -28 -5 0 -10 21 -10 46 0 27 -4 43
-10 39 -6 -4 -10 6 -10 24 0 17 -5 42 -12 56 -9 20 -18 25 -50 25 -37 0 -38
-1 -38 -35 0 -19 -4 -35 -10 -35 -6 0 -10 -38 -10 -94 0 -53 4 -98 10 -101 6
-3 10 -44 10 -91 0 -54 4 -83 10 -79 6 4 10 -15 10 -50 0 -40 4 -57 15 -61 9
-4 15 -19 15 -40 0 -30 -3 -34 -26 -34 -14 0 -23 4 -19 10 4 6 -7 13 -24 16
-17 4 -28 10 -25 15 3 5 -7 9 -21 9 -15 0 -24 4 -20 10 3 6 -5 10 -18 10 -14
0 -27 7 -31 15 -3 8 -12 15 -21 15 -8 0 -15 5 -15 10 0 6 -6 10 -14 10 -8 0
-16 7 -20 15 -3 8 -11 15 -18 15 -8 0 -20 9 -28 20 -8 11 -20 20 -27 20 -7 0
-13 7 -13 15 0 8 -8 15 -18 15 -10 0 -24 9 -32 20 -8 11 -20 20 -27 20 -7 0
-13 7 -13 15 0 8 -7 15 -16 15 -8 0 -12 5 -9 10 3 6 1 10 -6 10 -6 0 -37 27
-69 60 -32 33 -65 60 -74 60 -9 0 -16 7 -16 15 0 8 -7 15 -16 15 -8 0 -12 5
-9 10 3 6 -1 10 -9 10 -9 0 -16 6 -16 13 0 8 -11 20 -25 27 -13 7 -22 17 -19
22 3 4 -2 8 -10 8 -9 0 -16 7 -16 15 0 8 -5 15 -11 15 -12 0 -59 50 -59 63 0
4 -7 7 -15 7 -8 0 -15 7 -15 17 0 9 -3 13 -6 10 -6 -6 -44 34 -44 46 0 3 -20
26 -45 50 -25 25 -45 50 -45 56 0 6 -5 11 -11 11 -11 0 -39 25 -39 35 0 10
-28 35 -39 35 -6 0 -11 9 -11 20 0 11 -4 20 -10 20 -5 0 -10 7 -10 15 0 8 -7
15 -15 15 -8 0 -15 7 -15 16 0 8 -4 12 -10 9 -5 -3 -10 -1 -10 6 0 6 -11 22
-25 35 -14 13 -25 28 -25 34 0 6 -11 21 -25 34 -14 13 -25 28 -25 35 0 6 -4
11 -10 11 -5 0 -10 8 -10 18 0 10 -11 25 -25 32 -14 7 -25 22 -25 32 0 10 -4
18 -10 18 -5 0 -10 6 -10 14 0 8 -7 16 -15 20 -8 3 -15 12 -15 21 0 8 -4 15
-10 15 -5 0 -10 9 -10 20 0 11 -7 20 -15 20 -8 0 -15 9 -15 20 0 11 -4 20 -10
20 -5 0 -10 7 -10 15 0 8 -4 15 -10 15 -5 0 -10 11 -10 25 0 16 -6 25 -15 25
-9 0 -15 10 -15 26 0 14 -4 23 -10 19 -5 -3 -10 3 -10 14 0 22 -31 81 -42 81
-5 0 -8 14 -8 31 0 17 -4 28 -10 24 -5 -3 -10 -3 -11 2 -3 32 -11 59 -19 61
-6 2 -10 17 -10 33 0 16 -4 29 -10 29 -5 0 -10 16 -10 36 0 19 -4 33 -9 29 -6
-3 -11 14 -13 37 -2 28 -7 42 -15 40 -9 -1 -13 15 -13 55 0 41 -3 54 -10 43
-7 -11 -10 -1 -10 35 -1 28 -7 68 -15 90 -20 54 -22 565 -2 565 6 1 1 7 -12
14 -18 10 -20 15 -10 19 8 3 -3 6 -23 6 -32 1 -38 -2 -38 -20 0 -22 -22 -49
-39 -49 -6 0 -11 21 -11 50 0 27 -3 49 -7 49 -18 -3 -29 2 -55 25 -16 13 -28
28 -28 35 0 6 -5 11 -11 11 -14 0 -39 26 -39 40 0 6 -4 8 -10 5 -5 -3 -10 1
-10 9 0 9 -5 16 -11 16 -14 0 -39 25 -39 39 0 6 -5 11 -11 11 -14 0 -39 25
-39 39 0 6 -6 10 -12 9 -7 -2 -12 3 -10 10 1 6 -4 12 -11 12 -7 0 -21 11 -31
25 -10 14 -25 25 -33 25 -8 0 -11 5 -8 10 3 6 -1 10 -11 10 -9 0 -27 11 -40
25 -13 14 -28 25 -34 25 -6 0 -8 5 -5 10 4 6 -5 10 -19 10 -16 0 -26 6 -26 15
0 9 -9 15 -25 15 -14 0 -25 3 -25 8 0 12 -52 32 -84 32 -17 0 -42 3 -55 7 -23
6 -23 7 -5 14 10 4 -28 8 -89 8 -61 1 -106 -3 -103 -8z m216 -106 c0 -8 6 -15
13 -16 6 0 -3 -5 -20 -10 -18 -5 -33 -14 -33 -19 0 -6 -4 -10 -10 -10 -15 0
-50 -33 -44 -42 3 -4 -15 -8 -40 -8 -25 0 -46 -4 -46 -10 0 -5 -7 -10 -15 -10
-8 0 -15 -4 -15 -10 0 -5 -11 -10 -25 -10 -16 0 -25 -6 -25 -15 0 -9 -9 -15
-24 -15 -13 0 -26 -6 -29 -12 -2 -7 -8 -10 -12 -6 -5 4 4 19 18 32 14 13 23
27 20 30 -4 3 0 6 8 6 8 0 23 11 33 25 10 14 27 25 38 25 11 0 16 5 13 10 -3
6 3 10 15 10 11 0 31 11 44 25 13 14 33 25 45 25 12 0 19 4 16 10 -4 6 10 10
34 10 30 0 41 -4 41 -15z m70 -91 c0 -8 7 -14 15 -14 8 0 15 -6 15 -14 0 -8 6
-17 13 -19 6 -3 -16 -6 -51 -6 -46 -1 -64 -5 -68 -16 -7 -17 -44 -21 -44 -5 0
6 7 10 15 10 8 0 15 5 15 11 0 14 25 39 39 39 6 0 11 9 11 19 0 14 5 18 20 14
11 -3 20 -12 20 -19z m150 -138 c0 -8 10 -16 23 -18 39 -5 24 -23 -23 -26 -24
-2 -49 -7 -55 -11 -5 -5 -19 -5 -30 0 -17 6 -17 8 -2 8 9 1 17 6 17 12 0 18
35 45 63 48 4 1 7 -5 7 -13z m-160 -6 c0 -5 -5 -10 -10 -10 -6 0 -26 -16 -44
-35 -19 -19 -44 -35 -56 -35 -12 0 -18 -4 -15 -11 4 -6 -2 -13 -14 -16 -12 -3
-21 -9 -21 -14 0 -5 -9 -9 -20 -9 -11 0 -20 -4 -20 -9 0 -5 -11 -12 -25 -15
-14 -4 -25 -11 -25 -16 0 -6 -12 -10 -26 -10 -14 0 -23 -4 -19 -10 4 -6 -15
-10 -49 -10 -45 0 -54 -3 -50 -15 5 -11 -1 -15 -25 -15 -17 0 -31 -4 -31 -10
0 -5 -11 -10 -25 -10 -14 0 -25 -4 -25 -10 0 -5 -12 -10 -26 -10 -19 0 -25 -4
-20 -15 4 -11 -1 -15 -19 -15 -14 0 -25 -4 -25 -8 0 -14 -58 -43 -65 -32 -3 5
1 10 9 10 9 0 16 7 16 15 0 8 5 15 10 15 6 0 10 5 10 11 0 16 48 59 65 59 9 0
12 6 9 15 -5 11 1 15 20 15 19 0 26 5 26 19 0 12 9 21 25 25 14 4 25 11 25 16
0 6 12 10 26 10 14 0 23 4 19 10 -3 6 1 10 10 10 9 0 14 -4 11 -9 -8 -13 11
-18 45 -13 16 2 26 8 23 13 -3 5 4 9 15 9 12 0 21 7 21 15 0 9 9 15 25 15 14
0 25 5 25 10 0 6 9 10 20 10 11 0 20 5 20 10 0 6 11 10 25 10 16 0 25 6 25 15
0 11 12 15 48 15 34 0 43 3 32 10 -11 7 -7 10 18 10 17 0 32 -4 32 -10z m393
-172 c-6 -12 -43 -10 -43 2 0 6 7 10 15 10 8 0 15 8 16 18 0 14 2 14 8 -3 5
-11 7 -23 4 -27z m-1023 8 c0 -11 -19 -15 -25 -6 -3 5 1 10 9 10 9 0 16 -2 16
-4z m-30 -26 c0 -5 -6 -10 -14 -10 -8 0 -17 -6 -19 -12 -3 -7 -6 -3 -6 10 -1
16 5 22 19 22 11 0 20 -4 20 -10z m815 0 c3 -5 1 -10 -4 -10 -6 0 -11 5 -11
10 0 6 2 10 4 10 3 0 8 -4 11 -10z m-165 -25 c0 -8 7 -15 16 -15 8 0 12 -4 9
-10 -3 -5 1 -10 9 -10 9 0 16 5 16 10 0 6 11 10 25 10 14 0 25 -4 25 -10 0 -5
-7 -10 -15 -10 -8 0 -15 -4 -15 -10 0 -5 -18 -10 -39 -10 -51 0 -78 -10 -59
-21 8 -5 -7 -9 -39 -9 -31 0 -53 4 -53 11 0 11 25 39 35 39 10 0 35 28 35 39
0 6 11 11 25 11 16 0 25 -6 25 -15z m140 6 c0 -11 -26 -22 -34 -14 -12 12 -5
23 14 23 11 0 20 -4 20 -9z m-475 -11 c-3 -5 -10 -10 -16 -10 -5 0 -9 5 -9 10
0 6 7 10 16 10 8 0 12 -4 9 -10z m868 -30 c4 -17 0 -20 -34 -20 -37 0 -38 1
-27 20 7 11 22 20 34 20 13 0 24 -8 27 -20z m-173 -40 c0 -5 -4 -10 -9 -10 -6
0 -13 5 -16 10 -3 6 1 10 9 10 9 0 16 -4 16 -10z m222 -147 c-2 -52 1 -90 7
-96 7 -7 11 -86 11 -226 0 -143 4 -211 10 -201 7 10 10 -7 10 -57 0 -58 3 -73
15 -73 11 0 15 -11 15 -40 0 -22 5 -40 10 -40 6 0 10 -16 10 -35 0 -19 5 -35
10 -35 6 0 10 -11 10 -24 0 -14 7 -31 15 -40 8 -8 15 -29 15 -46 0 -18 4 -29
10 -25 6 3 10 -3 10 -14 0 -22 31 -81 43 -81 4 0 7 -14 7 -32 0 -17 3 -28 7
-24 8 7 43 -59 43 -81 0 -7 5 -13 10 -13 6 0 10 -7 10 -15 0 -9 11 -26 25 -39
14 -13 25 -31 25 -40 0 -9 11 -28 25 -42 14 -14 25 -31 25 -39 0 -8 5 -15 10
-15 6 0 10 -7 10 -15 0 -8 7 -15 15 -15 8 0 15 -8 15 -18 0 -10 9 -24 20 -32
11 -8 20 -20 20 -28 0 -7 7 -15 15 -18 8 -4 15 -13 15 -21 0 -17 24 -43 39
-43 6 0 11 -7 11 -16 0 -8 5 -12 10 -9 6 3 10 -1 10 -9 0 -9 4 -16 10 -16 5 0
12 -11 16 -25 3 -14 10 -22 15 -19 5 3 9 -2 9 -10 0 -9 5 -16 10 -16 6 0 10
-7 10 -15 0 -8 5 -15 10 -15 14 0 60 -46 60 -60 0 -5 5 -10 11 -10 11 0 39
-25 39 -35 0 -10 48 -55 60 -55 5 0 10 -5 10 -11 0 -6 16 -25 35 -41 19 -17
32 -35 29 -40 -3 -4 2 -8 11 -8 19 0 45 -23 45 -39 0 -6 5 -11 11 -11 6 0 30
-20 55 -45 24 -25 48 -45 54 -45 6 0 9 -4 5 -9 -3 -5 4 -13 16 -16 12 -4 41
-27 65 -51 23 -24 47 -44 53 -44 6 0 11 -7 11 -15 0 -8 9 -15 20 -15 11 0 20
-4 20 -10 0 -5 5 -10 11 -10 14 0 39 -25 39 -39 0 -6 9 -11 21 -11 11 0 17 -4
14 -10 -3 -5 3 -10 14 -10 12 0 21 -7 21 -15 0 -8 7 -15 15 -15 8 0 15 -4 15
-10 0 -5 7 -10 15 -10 8 0 15 -4 15 -10 0 -5 7 -10 15 -10 9 0 18 -7 21 -15 4
-8 12 -15 20 -15 8 0 14 -4 14 -10 0 -5 6 -10 14 -10 8 0 16 -7 20 -15 3 -8
13 -15 21 -15 9 0 13 -4 10 -10 -3 -5 3 -10 15 -10 12 0 19 -4 16 -9 -3 -5 5
-12 19 -15 14 -4 25 -11 25 -16 0 -6 7 -10 16 -10 8 0 12 -4 9 -10 -4 -6 5
-10 19 -10 16 0 26 -6 26 -15 0 -8 7 -15 15 -15 8 0 15 -4 15 -10 0 -5 9 -10
20 -10 11 0 20 -4 20 -10 0 -5 7 -10 15 -10 8 0 15 -7 15 -15 0 -8 9 -15 20
-15 11 0 20 -4 20 -10 0 -5 6 -10 14 -10 8 0 16 -5 18 -11 2 -5 11 -11 19 -12
20 -3 49 -31 49 -47 0 -6 5 -8 10 -5 6 4 10 -8 10 -29 0 -34 2 -36 35 -36 19
0 35 5 35 10 0 6 6 10 13 10 21 0 77 -30 77 -41 0 -5 9 -9 20 -9 11 0 20 -4
20 -10 0 -5 6 -10 14 -10 7 0 19 -7 26 -15 7 -8 21 -15 32 -15 10 0 16 -4 13
-10 -4 -6 5 -10 20 -10 14 0 23 -4 20 -10 -3 -5 6 -12 20 -16 14 -3 25 -10 25
-15 0 -5 9 -9 20 -9 11 0 20 -4 20 -10 0 -5 11 -10 25 -10 16 0 25 -6 25 -15
0 -9 10 -15 26 -15 14 0 23 -4 19 -10 -4 -6 7 -10 24 -10 21 0 31 -5 31 -15 0
-8 9 -15 20 -15 11 0 20 -4 20 -10 0 -5 11 -10 25 -10 14 0 25 -4 25 -10 0 -5
11 -10 25 -10 16 0 25 -6 25 -15 0 -9 9 -15 25 -15 14 0 25 -4 25 -10 0 -5 11
-10 25 -10 14 0 25 -4 25 -10 0 -5 9 -10 20 -10 11 0 23 -7 26 -15 4 -8 15
-15 25 -15 16 0 19 7 19 41 0 22 -4 38 -9 34 -5 -3 -12 -1 -16 4 -3 5 3 15 12
21 13 8 14 13 6 16 -7 3 -13 16 -13 29 0 12 -7 28 -15 35 -8 7 -15 26 -15 42
0 17 -4 27 -10 23 -6 -4 -10 -3 -9 2 5 29 -3 83 -11 78 -11 -7 -12 -5 -15 50
-1 21 -7 41 -14 43 -16 5 -15 209 2 215 8 2 12 26 13 68 1 111 4 130 14 124 7
-4 10 54 11 167 2 196 1 200 -14 211 -9 6 -9 10 1 14 8 3 12 29 12 79 0 41 4
74 9 74 5 0 11 20 13 45 3 41 1 45 -19 45 -14 0 -23 6 -23 15 0 9 -9 15 -25
15 -14 0 -25 5 -25 10 0 6 -7 10 -15 10 -9 0 -15 9 -15 25 0 23 4 25 41 25 23
0 38 -4 34 -10 -3 -5 7 -13 22 -16 35 -9 73 -47 73 -74 0 -11 7 -20 15 -20 8
0 15 -6 15 -13 0 -7 9 -19 20 -27 11 -8 20 -20 20 -27 0 -8 16 -29 35 -47 19
-19 35 -39 35 -45 0 -6 5 -11 10 -11 11 0 90 -76 90 -86 0 -4 11 -17 25 -30
14 -13 25 -30 25 -39 0 -9 5 -13 10 -10 6 3 10 1 10 -5 0 -6 11 -21 25 -34 14
-13 25 -31 25 -40 0 -9 7 -16 15 -16 8 0 14 -4 12 -8 -1 -5 12 -22 29 -38 17
-16 34 -40 38 -52 4 -12 11 -20 15 -18 4 3 13 -9 20 -25 7 -16 19 -29 27 -29
8 0 13 -6 11 -12 -1 -7 4 -12 11 -11 6 2 12 -4 12 -12 0 -9 11 -26 25 -39 14
-13 25 -28 25 -35 0 -6 5 -11 10 -11 6 0 10 -7 10 -15 0 -8 7 -15 15 -15 8 0
15 -9 15 -20 0 -11 7 -20 15 -20 8 0 15 -4 15 -9 0 -5 25 -35 55 -66 30 -31
55 -58 55 -61 0 -10 28 -34 39 -34 6 0 10 -3 10 -7 -4 -22 2 -43 11 -43 14 0
60 -46 60 -60 0 -5 7 -10 16 -10 8 0 12 -4 9 -10 -3 -5 1 -10 9 -10 9 0 16 -5
16 -11 0 -14 25 -39 39 -39 6 0 11 -5 11 -10 0 -14 46 -60 60 -60 5 0 10 -5
10 -11 0 -14 25 -39 39 -39 6 0 11 -5 11 -10 0 -14 46 -60 60 -60 5 0 10 -7
10 -15 0 -8 6 -15 13 -15 6 0 25 -16 42 -35 16 -19 35 -35 41 -35 7 0 15 -7
18 -16 3 -8 10 -12 16 -9 5 3 10 -1 10 -9 0 -9 7 -16 15 -16 8 0 15 -4 15 -10
0 -5 7 -10 16 -10 8 0 12 -4 9 -10 -3 -5 1 -10 10 -10 8 0 18 -7 21 -15 4 -8
11 -15 16 -15 6 0 21 -11 34 -25 13 -14 28 -25 34 -25 5 0 10 -4 10 -10 0 -5
9 -10 20 -10 11 0 20 -7 20 -16 0 -8 5 -12 10 -9 6 3 13 -1 16 -9 3 -9 15 -16
25 -16 10 0 19 -4 19 -10 0 -5 7 -10 15 -10 8 0 15 -7 15 -15 0 -8 9 -15 20
-15 11 0 20 -4 20 -10 0 -5 8 -10 18 -10 10 0 33 -13 50 -28 33 -30 39 -42 21
-42 -6 0 -17 -7 -25 -15 -9 -8 -26 -15 -39 -15 -13 0 -27 -4 -30 -10 -3 -5
-47 -10 -96 -10 -58 0 -88 -4 -84 -10 4 -6 -17 -10 -54 -10 -56 0 -79 -11 -48
-23 6 -3 -9 -6 -35 -6 -27 -1 -48 -5 -48 -11 0 -5 -13 -10 -30 -10 -16 0 -30
-4 -30 -10 0 -5 -14 -10 -30 -10 -18 0 -33 -6 -36 -15 -4 -9 -19 -15 -36 -15
-16 0 -27 -4 -23 -10 3 -5 -6 -12 -20 -16 -14 -3 -25 -9 -25 -13 0 -4 -10 -8
-22 -8 -13 -1 -24 -7 -26 -13 -2 -5 -15 -10 -28 -10 -15 0 -24 -6 -24 -15 0
-8 -9 -15 -20 -15 -11 0 -20 -4 -20 -10 0 -5 -11 -10 -25 -10 -14 0 -25 -4
-25 -10 0 -5 -6 -10 -14 -10 -8 0 -16 -7 -20 -15 -3 -8 -12 -15 -21 -15 -8 0
-15 -4 -15 -10 0 -5 -11 -10 -25 -10 -16 0 -25 -6 -25 -15 0 -8 -7 -15 -15
-15 -8 0 -15 -4 -15 -10 0 -5 -9 -10 -20 -10 -11 0 -20 -4 -20 -10 0 -5 -7
-10 -15 -10 -8 0 -15 -7 -15 -15 0 -8 -9 -15 -20 -15 -11 0 -20 -4 -20 -10 0
-5 -5 -10 -11 -10 -7 0 -22 -11 -35 -25 -13 -14 -30 -25 -39 -25 -8 0 -15 -7
-15 -16 0 -8 -4 -12 -10 -9 -5 3 -10 -1 -10 -9 0 -9 -7 -16 -15 -16 -8 0 -15
-4 -15 -10 0 -5 -9 -10 -20 -10 -11 0 -20 -7 -20 -15 0 -8 -7 -15 -16 -15 -8
0 -12 -4 -9 -10 3 -5 -1 -10 -9 -10 -9 0 -16 -4 -16 -10 0 -5 -7 -10 -15 -10
-8 0 -15 -7 -15 -16 0 -8 -4 -12 -10 -9 -5 3 -10 -1 -10 -9 0 -9 -6 -16 -13
-16 -7 0 -30 -16 -50 -35 -20 -19 -42 -35 -47 -35 -6 0 -10 -7 -10 -15 0 -8
-7 -15 -15 -15 -8 0 -15 -4 -15 -10 0 -5 -9 -10 -20 -10 -11 0 -20 -4 -20 -10
0 -5 -7 -10 -15 -10 -8 0 -15 -7 -15 -15 0 -8 -7 -15 -16 -15 -8 0 -28 -12
-43 -27 -15 -16 -40 -37 -54 -48 -15 -11 -27 -25 -27 -32 0 -7 -5 -13 -10 -13
-14 0 -60 -46 -60 -60 0 -5 -7 -10 -15 -10 -8 0 -15 -7 -15 -16 0 -8 -4 -12
-10 -9 -5 3 -10 0 -10 -7 0 -7 -11 -22 -25 -32 -14 -10 -25 -27 -25 -37 0 -11
-4 -19 -10 -19 -5 0 -10 -5 -10 -11 0 -12 -29 -38 -42 -39 -11 0 -10 28 2 64
5 17 12 58 16 90 4 40 9 55 15 45 5 -9 9 23 10 86 0 60 4 92 8 80 5 -12 10 33
13 112 3 73 9 138 15 145 6 8 11 89 12 201 l2 187 -25 0 c-23 0 -26 -4 -26
-35 0 -19 -4 -35 -10 -35 -5 0 -12 -17 -15 -37 -3 -21 -10 -46 -16 -55 -5 -10
-9 -27 -9 -38 0 -11 -4 -20 -10 -20 -5 0 -10 23 -10 50 0 38 -4 50 -15 50 -11
0 -15 11 -15 36 0 31 -3 35 -22 32 -22 -3 -23 -7 -20 -68 2 -36 8 -66 13 -68
21 -8 8 -32 -18 -32 -21 0 -24 -3 -14 -9 11 -7 5 -10 -20 -13 -32 -3 -34 -5
-37 -45 -2 -24 -7 -43 -13 -43 -5 0 -9 -13 -9 -30 0 -18 -5 -29 -12 -27 -7 1
-13 -4 -14 -10 -1 -7 -2 -18 -3 -24 -2 -19 -21 2 -21 23 0 18 -4 20 -31 14
-27 -5 -36 -1 -60 24 -31 32 -37 58 -17 78 9 9 9 12 0 12 -7 0 -12 7 -12 15 0
8 -9 15 -20 15 -11 0 -20 5 -20 10 0 6 16 10 35 10 24 0 35 5 35 15 0 8 5 15
10 15 6 0 10 5 10 10 0 6 -7 10 -15 10 -8 0 -15 5 -15 10 0 6 11 10 25 10 14
0 25 -4 25 -10 0 -14 27 -13 32 2 3 7 23 11 51 10 36 -2 47 1 47 13 0 8 5 15
10 15 6 0 10 5 10 10 0 6 -8 10 -18 10 -10 0 -27 7 -38 15 -10 8 -34 15 -51
15 -18 0 -33 5 -33 10 0 6 -11 10 -25 10 -14 0 -25 5 -25 10 0 6 -11 10 -25
10 -16 0 -25 6 -25 15 0 11 -11 15 -36 15 -21 0 -33 4 -29 10 4 6 -6 10 -22
10 -16 0 -34 5 -40 11 -6 6 -19 12 -29 14 -11 1 -18 8 -17 14 2 6 -12 11 -33
11 -21 0 -33 4 -29 10 6 9 -10 14 -42 13 -7 -1 -13 5 -13 13 0 9 -11 14 -30
14 -16 0 -30 5 -30 10 0 6 -16 10 -35 10 -23 0 -34 4 -32 13 1 7 -12 13 -36
15 -20 2 -35 7 -32 13 4 5 -10 9 -29 9 -19 0 -38 5 -41 10 -3 6 -22 10 -41 10
-22 0 -37 6 -40 15 -4 10 -20 15 -45 15 -28 0 -39 -4 -39 -15 0 -8 -7 -15 -15
-15 -9 0 -18 7 -21 15 -4 9 -19 15 -41 15 -20 0 -32 4 -28 10 4 6 -6 10 -23
10 -17 0 -32 6 -36 15 -3 8 -17 15 -31 15 -14 0 -25 5 -25 10 0 6 -14 10 -31
10 -17 0 -28 4 -24 10 4 6 -8 10 -29 10 -27 0 -34 3 -30 15 5 12 -2 15 -31 15
-21 0 -34 4 -30 10 3 6 -5 10 -19 10 -14 0 -28 5 -31 10 -3 5 -15 10 -26 10
-11 0 -22 7 -25 15 -4 8 -17 15 -30 15 -13 0 -24 5 -24 10 0 6 -11 10 -24 10
-13 0 -29 7 -36 15 -7 8 -19 15 -26 15 -8 0 -14 5 -14 10 0 6 -13 10 -30 10
-19 0 -29 5 -27 13 1 7 -10 13 -26 15 -15 2 -25 8 -22 13 4 5 -8 9 -24 9 -17
0 -31 4 -31 8 0 4 -23 16 -51 26 -36 13 -47 21 -37 27 8 6 0 9 -24 9 -25 0
-37 4 -35 12 1 7 -8 14 -20 16 -13 2 -23 8 -23 13 0 5 -11 9 -25 9 -14 0 -25
5 -25 10 0 6 -11 10 -25 10 -18 0 -23 4 -19 15 4 10 0 15 -15 15 -12 0 -21 5
-21 10 0 6 -9 10 -21 10 -11 0 -27 7 -36 15 -8 8 -19 13 -24 10 -5 -4 -9 1 -9
9 0 10 -9 16 -26 16 -14 0 -23 4 -19 10 3 5 -3 10 -14 10 -11 0 -26 7 -35 15
-8 8 -19 15 -25 15 -6 0 -11 5 -11 10 0 6 -9 10 -20 10 -11 0 -20 4 -20 9 0 5
-10 11 -22 13 -13 2 -22 9 -20 16 1 7 -9 12 -23 12 -14 0 -25 5 -25 10 0 6 -6
10 -14 10 -8 0 -17 7 -20 15 -3 9 -14 15 -23 13 -10 -2 -17 2 -15 10 1 7 -8
12 -23 12 -16 0 -25 6 -25 15 0 8 -9 15 -20 15 -11 0 -20 5 -20 10 0 6 -7 10
-15 10 -8 0 -15 5 -15 10 0 6 -9 10 -20 10 -11 0 -20 7 -20 15 0 8 -9 15 -20
15 -11 0 -20 5 -20 10 0 6 -7 10 -15 10 -8 0 -15 5 -15 10 0 6 -9 10 -20 10
-11 0 -20 7 -20 15 0 8 -9 15 -21 15 -11 0 -17 5 -14 10 3 6 -1 10 -10 10 -9
0 -26 11 -39 25 -13 14 -31 25 -40 25 -9 0 -16 5 -16 10 0 6 -7 10 -15 10 -8
0 -15 7 -15 15 0 9 -10 15 -26 15 -14 0 -23 4 -19 10 3 6 1 10 -5 10 -6 0 -21
11 -34 25 -13 14 -31 25 -40 25 -9 0 -16 5 -16 10 0 6 -7 10 -15 10 -8 0 -15
5 -15 11 0 16 -31 38 -52 39 -10 0 -18 5 -18 11 0 11 -25 39 -35 39 -3 0 -17
11 -31 25 -14 14 -29 25 -35 25 -6 0 -7 5 -4 10 3 6 -3 10 -14 10 -12 0 -21 7
-21 15 0 8 -6 15 -13 15 -7 0 -19 9 -27 20 -8 11 -20 20 -27 20 -7 0 -13 7
-13 15 0 8 -9 15 -21 15 -11 0 -18 4 -15 8 3 5 -4 15 -15 22 -10 8 -19 20 -19
27 0 7 -7 13 -15 13 -19 0 -175 156 -175 175 0 8 -9 15 -20 15 -11 0 -19 3
-18 8 3 14 -14 42 -23 36 -5 -3 -9 2 -9 10 0 9 -7 16 -15 16 -8 0 -15 6 -15
13 0 7 -9 19 -20 27 -11 8 -20 20 -20 26 0 7 -7 14 -15 18 -8 3 -15 12 -15 21
0 8 -4 15 -10 15 -5 0 -10 5 -10 10 0 6 -11 22 -25 36 -14 14 -25 29 -25 35 0
5 -11 22 -25 37 -14 15 -25 32 -25 39 0 7 -4 13 -10 13 -5 0 -10 7 -10 15 0 8
-4 15 -10 15 -5 0 -12 11 -16 25 -3 14 -10 22 -15 19 -5 -3 -9 6 -9 20 0 14
-4 26 -10 26 -5 0 -10 5 -10 11 0 6 -7 17 -15 25 -8 9 -15 26 -15 40 0 13 -4
24 -10 24 -5 0 -10 9 -10 21 0 11 -7 27 -15 35 -8 9 -15 24 -15 34 0 10 -5 22
-10 25 -6 3 -10 22 -10 41 0 21 -4 33 -10 29 -6 -4 -10 10 -10 33 0 26 -5 42
-15 46 -11 4 -15 21 -15 65 0 49 4 62 19 70 10 6 21 8 24 4 4 -3 9 2 13 11 3
9 15 16 25 16 10 0 19 5 19 10 0 6 11 10 25 10 16 0 25 6 25 15 0 9 10 15 26
15 14 0 23 4 19 10 -4 6 5 10 19 10 14 0 26 5 26 10 0 6 7 10 15 10 9 0 18 7
21 15 4 8 17 15 31 15 13 0 21 4 18 10 -3 6 3 10 13 10 11 0 22 7 26 15 3 8
15 15 26 15 12 0 18 5 15 10 -4 6 5 10 20 10 14 0 23 4 20 10 -3 5 6 12 20 16
13 3 22 10 19 15 -3 5 6 9 20 9 14 0 26 5 26 10 0 6 7 10 15 10 8 0 15 7 15
15 0 8 9 15 20 15 11 0 20 5 20 10 0 6 9 10 20 10 11 0 20 5 20 10 0 6 7 10
15 10 9 0 18 7 21 15 4 8 15 15 26 15 10 0 16 5 13 10 -3 6 3 10 14 10 12 0
21 7 21 15 0 8 9 15 21 15 11 0 17 5 14 10 -3 6 3 10 14 10 12 0 21 5 21 10 0
6 7 10 15 10 8 0 15 7 15 15 0 8 9 15 20 15 11 0 20 4 20 8 0 5 15 17 34 27
19 11 33 23 30 27 -3 4 4 8 15 8 12 0 21 5 21 11 0 16 26 39 44 39 9 0 16 5
16 10 0 6 5 10 11 10 7 0 22 11 35 25 13 14 26 25 29 25 3 0 16 11 29 25 13
14 28 25 35 25 6 0 11 5 11 10 0 6 7 10 15 10 8 0 15 5 15 11 0 14 26 39 40
39 6 0 8 5 5 10 -3 6 1 10 9 10 9 0 16 7 16 15 0 8 5 15 10 15 14 0 60 46 60
60 0 5 5 10 11 10 11 0 39 25 39 35 0 10 28 35 39 35 6 0 10 6 9 13 -2 6 3 11
10 10 6 -2 12 4 12 12 0 8 9 15 21 15 11 0 17 5 14 10 -4 6 8 10 27 11 43 1
111 9 116 14 2 2 14 -1 25 -6 20 -9 22 -16 19 -96z m-872 -19 c0 -2 -12 -4
-26 -4 -14 0 -23 4 -20 9 6 8 46 4 46 -5z m-600 -24 c0 -5 -4 -10 -10 -10 -5
0 -10 5 -10 10 0 6 5 10 10 10 6 0 10 -4 10 -10z m555 -70 c3 -5 -1 -10 -9
-10 -9 0 -16 5 -16 10 0 6 4 10 9 10 6 0 13 -4 16 -10z m455 0 c0 -5 -6 -10
-14 -10 -8 0 -16 -7 -20 -15 -3 -8 -12 -15 -21 -15 -8 0 -15 -4 -15 -10 0 -5
-7 -10 -16 -10 -8 0 -12 -4 -9 -10 3 -5 -1 -10 -9 -10 -9 0 -16 -7 -16 -15 0
-8 -7 -15 -16 -15 -8 0 -12 -4 -9 -10 3 -5 1 -10 -5 -10 -10 0 -21 -8 -55 -37
-7 -7 -18 -13 -24 -13 -6 0 -11 -7 -11 -15 0 -8 -7 -15 -15 -15 -8 0 -15 -4
-15 -10 0 -5 -7 -10 -16 -10 -9 0 -25 -10 -36 -22 -11 -13 -25 -23 -31 -23 -7
-1 -11 -6 -9 -13 1 -7 -8 -12 -21 -12 -12 0 -31 -11 -41 -25 -10 -14 -25 -25
-32 -25 -8 0 -14 -4 -14 -10 0 -5 -6 -10 -14 -10 -8 0 -16 -7 -20 -15 -3 -8
-12 -15 -21 -15 -8 0 -15 -4 -15 -10 0 -5 -7 -10 -16 -10 -8 0 -22 -7 -31 -15
-8 -8 -19 -12 -25 -9 -7 5 -8 2 -4 -5 5 -8 0 -14 -13 -18 -12 -3 -21 -9 -21
-14 0 -5 -9 -9 -19 -9 -10 0 -21 -7 -25 -15 -3 -8 -12 -15 -21 -15 -8 0 -15
-4 -15 -10 0 -5 -9 -10 -21 -10 -11 0 -17 -4 -14 -10 4 -6 -5 -10 -19 -10 -16
0 -26 -6 -26 -15 0 -8 -9 -15 -20 -15 -11 0 -20 -4 -20 -10 0 -5 -9 -10 -20
-10 -11 0 -20 -4 -20 -9 0 -5 -9 -11 -21 -14 -12 -3 -18 -10 -14 -16 3 -7 -2
-11 -14 -11 -11 0 -22 4 -25 8 -6 10 29 42 45 42 5 0 7 5 4 10 -3 6 1 10 9 10
9 0 16 7 16 15 0 8 5 15 10 15 6 0 42 32 80 70 38 39 72 70 75 70 7 0 51 38
96 83 20 20 42 37 48 37 6 0 11 5 11 10 0 14 46 60 60 60 6 0 21 11 34 25 13
14 27 25 32 25 5 0 18 11 28 25 10 14 28 25 40 25 17 0 18 2 6 10 -12 8 -11
10 6 10 12 0 24 7 28 15 3 8 13 15 21 15 9 0 13 5 10 10 -3 6 3 10 14 10 12 0
21 5 21 10 0 6 30 10 70 10 58 0 68 3 64 15 -5 12 4 15 46 15 31 0 49 4 45 10
-4 6 5 10 19 10 14 0 26 -4 26 -10z m-495 -21 c4 -6 -2 -13 -14 -16 -12 -3
-21 -9 -21 -14 0 -5 -9 -9 -20 -9 -11 0 -20 -4 -20 -10 0 -5 -7 -10 -15 -10
-9 0 -18 -7 -21 -15 -4 -8 -14 -15 -24 -15 -10 0 -20 -6 -23 -12 -2 -8 -8 -9
-13 -4 -5 5 -4 11 4 13 6 3 12 11 12 19 0 8 4 14 9 14 5 0 13 9 16 20 5 15 15
20 41 20 24 0 34 5 34 15 0 17 45 21 55 4z m-1135 -148 c0 -5 10 -11 23 -13
25 -3 25 -23 0 -23 -24 0 -28 -29 -7 -53 16 -19 54 -20 54 -1 0 5 6 9 13 9 22
0 67 24 67 37 0 6 9 9 20 6 23 -6 27 -23 5 -23 -8 0 -15 -4 -15 -10 0 -5 -9
-10 -20 -10 -11 0 -20 -7 -20 -16 0 -8 -5 -12 -10 -9 -6 3 -13 -1 -16 -9 -3
-9 -15 -16 -25 -16 -10 0 -19 -4 -19 -10 0 -5 -11 -12 -25 -16 -14 -3 -25 -10
-25 -15 0 -5 -16 -9 -35 -9 -31 0 -35 3 -35 25 0 14 -5 25 -11 25 -15 0 -35
22 -41 48 -4 15 -2 22 9 22 8 0 21 7 30 15 8 8 19 13 24 10 5 -4 9 1 9 9 0 9
7 16 15 16 8 0 15 5 15 10 0 6 5 10 10 10 6 0 10 -4 10 -9z m70 -1 c0 -5 -4
-10 -10 -10 -5 0 -10 5 -10 10 0 6 5 10 10 10 6 0 10 -4 10 -10z m410 0 c0 -5
-4 -10 -10 -10 -5 0 -10 5 -10 10 0 6 5 10 10 10 6 0 10 -4 10 -10z m-260 -20
c0 -5 -7 -10 -15 -10 -8 0 -15 5 -15 10 0 6 7 10 15 10 8 0 15 -4 15 -10z
m235 0 c3 -5 -1 -10 -9 -10 -9 0 -16 -5 -16 -11 0 -14 -25 -39 -39 -39 -6 0
-11 -5 -11 -11 0 -14 -26 -39 -40 -39 -6 0 -8 -4 -5 -10 3 -5 -1 -10 -9 -10
-9 0 -16 -7 -16 -15 0 -9 -10 -15 -26 -15 -14 0 -23 -4 -19 -10 4 -6 -5 -10
-19 -10 -19 0 -26 5 -26 20 0 11 5 20 10 20 6 0 10 7 10 15 0 9 9 15 25 15 16
0 25 6 25 15 0 8 3 14 8 14 22 -4 42 2 37 11 -3 6 1 10 9 10 9 0 16 5 16 10 0
6 5 10 10 10 11 0 29 13 53 37 15 15 24 16 32 3z m208 -181 c-7 -7 -16 -5 -26
5 -9 9 -20 16 -26 16 -18 0 -12 18 7 22 22 5 58 -30 45 -43z m114 35 c-3 -3
-12 -4 -19 -1 -8 3 -5 6 6 6 11 1 17 -2 13 -5z m-32 -24 c3 -5 -1 -10 -9 -10
-9 0 -16 -7 -16 -15 0 -8 -6 -15 -13 -15 -7 0 -19 -9 -27 -20 -15 -20 -60 -28
-60 -10 0 6 7 10 15 10 8 0 15 5 15 11 0 14 25 39 39 39 6 0 11 5 11 10 0 6 9
10 19 10 11 0 23 -4 26 -10z m-625 -15 c0 -3 -8 -14 -17 -25 -18 -21 -53 -27
-53 -10 0 6 7 10 15 10 9 0 12 6 9 15 -5 11 1 15 20 15 14 0 26 -2 26 -5z
m-95 -55 c3 -5 -1 -10 -9 -10 -9 0 -16 5 -16 10 0 6 4 10 9 10 6 0 13 -4 16
-10z m603 -28 c2 -7 -3 -12 -12 -12 -9 0 -16 -4 -16 -10 0 -5 -5 -10 -11 -10
-14 0 -39 -25 -39 -39 0 -6 -7 -11 -15 -11 -8 0 -15 -4 -15 -10 0 -5 -9 -10
-20 -10 -11 0 -20 -7 -20 -15 0 -16 -15 -20 -24 -7 -6 10 29 42 45 42 5 0 7 5
4 10 -3 6 1 10 9 10 9 0 16 7 16 15 0 8 9 15 20 15 11 0 20 5 20 10 0 6 7 10
15 10 8 0 15 7 15 16 0 17 22 14 28 -4z m-440 -26 c-10 -7 -18 -17 -18 -21 0
-4 -8 -14 -17 -21 -17 -13 -17 -13 0 -14 10 0 15 -4 12 -10 -3 -5 1 -10 9 -10
9 0 16 -7 16 -15 0 -8 7 -15 15 -15 8 0 15 7 15 15 0 9 10 15 26 15 14 0 23 4
19 10 -10 16 45 12 61 -4 8 -8 14 -24 14 -35 0 -12 6 -21 15 -21 14 0 55 -34
55 -45 0 -3 -7 -5 -15 -5 -8 0 -15 -3 -15 -7 0 -5 -13 -17 -29 -28 -16 -10
-27 -23 -25 -27 3 -4 -10 -8 -28 -8 -22 0 -39 7 -48 20 -8 11 -20 20 -27 20
-7 0 -13 7 -13 15 0 8 -7 15 -16 15 -8 0 -12 5 -9 10 3 6 1 10 -4 10 -6 0 -11
7 -11 15 0 8 -7 15 -16 15 -8 0 -12 5 -9 10 3 6 -1 10 -9 10 -12 0 -16 11 -16
50 0 47 2 50 25 50 14 0 25 5 25 10 0 6 8 10 18 10 16 -1 16 -1 0 -14z m-358
-41 c0 -16 6 -25 15 -25 13 0 15 -21 15 -127 0 -87 3 -123 10 -113 7 10 10
-14 10 -77 0 -50 4 -93 9 -95 15 -5 17 -101 3 -106 -7 -2 -12 3 -12 12 0 9 -4
16 -10 16 -5 0 -10 14 -10 30 0 20 -5 30 -15 30 -10 0 -15 11 -15 35 0 19 -4
35 -10 35 -5 0 -10 15 -10 34 0 19 -4 38 -10 41 -15 10 -13 302 3 320 18 21
27 18 27 -10z m630 -75 c0 -5 -6 -10 -14 -10 -8 0 -16 -6 -19 -12 -2 -7 -8
-10 -12 -6 -9 8 16 37 33 38 6 0 12 -4 12 -10z m140 0 c0 -5 -4 -10 -10 -10
-5 0 -10 5 -10 10 0 6 5 10 10 10 6 0 10 -4 10 -10z m-30 -20 c0 -5 -5 -10
-11 -10 -5 0 -7 5 -4 10 3 6 8 10 11 10 2 0 4 -4 4 -10z m-20 -30 c0 -5 -4
-10 -10 -10 -5 0 -10 5 -10 10 0 6 5 10 10 10 6 0 10 -4 10 -10z m120 -20 c0
-5 -11 -10 -25 -10 -14 0 -25 5 -25 10 0 6 11 10 25 10 14 0 25 -4 25 -10z
m-245 -70 c3 -5 1 -10 -4 -10 -6 0 -11 5 -11 10 0 6 2 10 4 10 3 0 8 -4 11
-10z m-96 -222 c1 -7 4 -34 7 -60 3 -27 10 -48 15 -48 5 0 9 -16 9 -35 0 -19
5 -35 10 -35 6 0 10 -16 10 -35 0 -24 5 -35 15 -35 11 0 15 -11 15 -37 0 -28
3 -34 10 -23 8 12 10 10 10 -8 0 -13 7 -30 15 -38 8 -9 15 -26 15 -40 0 -13 5
-24 10 -24 6 0 10 -9 10 -20 0 -11 5 -20 10 -20 6 0 10 -6 10 -14 0 -7 7 -19
15 -26 9 -7 14 -19 11 -27 -3 -7 1 -13 9 -13 9 0 15 -10 15 -25 0 -14 6 -25
13 -25 7 0 19 -16 27 -35 8 -19 17 -35 22 -35 4 0 8 -6 8 -13 0 -7 11 -24 25
-39 14 -15 25 -32 25 -38 0 -5 5 -10 10 -10 6 0 10 -9 10 -20 0 -11 -4 -20
-10 -20 -5 0 -10 7 -10 15 0 8 -4 15 -10 15 -5 0 -10 9 -10 20 0 11 -5 20 -11
20 -14 0 -39 25 -39 39 0 6 -4 11 -10 11 -5 0 -10 7 -10 15 0 9 -7 18 -15 21
-8 4 -15 12 -15 20 0 8 -4 14 -10 14 -5 0 -10 6 -10 13 0 7 -11 24 -25 39 -14
15 -25 34 -25 43 0 9 -11 28 -25 43 -14 15 -25 32 -25 39 0 7 -4 13 -10 13 -5
0 -10 11 -10 25 0 16 -6 25 -15 25 -9 0 -15 9 -15 25 0 14 -4 25 -10 25 -5 0
-10 9 -10 20 0 11 -4 20 -9 20 -5 0 -12 11 -15 25 -4 14 -11 25 -16 25 -6 0
-10 11 -10 25 0 14 -4 25 -10 25 -5 0 -10 16 -10 36 0 19 -4 33 -9 30 -10 -7
-21 17 -21 45 0 10 -4 19 -10 19 -5 0 -10 9 -10 20 0 15 7 20 26 20 14 0 23 4
19 10 -3 6 4 10 18 10 13 0 25 -6 26 -12z m3886 -427 c-3 -5 5 -11 17 -13 32
-4 49 -55 25 -73 -9 -7 -17 -22 -17 -34 0 -11 -4 -21 -10 -21 -5 0 -10 6 -10
14 0 8 -5 16 -12 18 -6 2 -13 30 -16 61 -4 49 -2 57 12 57 10 0 15 -4 11 -9z
m-4059 -56 c11 -10 12 -20 6 -31 -9 -15 -10 -15 -16 4 -4 12 -12 22 -17 22 -5
0 -9 5 -9 10 0 15 19 12 36 -5z m34 -51 c0 -8 4 -13 9 -10 5 3 11 -3 14 -14 7
-28 -6 -33 -26 -9 -19 21 -23 49 -7 49 6 0 10 -7 10 -16z m244 -49 c4 -14 11
-25 16 -25 6 0 10 -7 10 -15 0 -8 5 -15 10 -15 6 0 10 -9 10 -20 0 -11 5 -19
12 -17 7 1 12 -3 13 -10 0 -6 10 -20 23 -31 12 -11 22 -25 22 -31 0 -7 11 -22
25 -35 14 -13 25 -27 25 -30 0 -4 16 -23 35 -42 19 -18 35 -40 35 -49 0 -8 7
-15 15 -15 8 0 15 -5 15 -11 0 -14 26 -39 40 -39 6 0 8 -4 5 -10 -3 -5 1 -10
9 -10 9 0 16 -5 16 -11 0 -6 36 -46 80 -90 44 -43 80 -83 80 -89 0 -5 6 -10
13 -10 7 0 19 -9 27 -20 8 -11 20 -20 27 -20 7 0 13 -7 13 -15 0 -8 7 -15 16
-15 8 0 12 -4 9 -10 -3 -5 -1 -10 5 -10 10 0 21 -8 55 -37 7 -7 18 -13 24 -13
6 0 10 -6 8 -12 -1 -7 4 -12 11 -11 6 2 12 -4 12 -12 0 -8 5 -15 10 -15 6 0
22 -10 35 -22 37 -35 54 -48 61 -48 4 0 21 -16 40 -35 18 -19 40 -35 48 -35 9
0 16 -7 16 -15 0 -8 7 -15 15 -15 8 0 15 -4 15 -8 0 -5 16 -14 35 -22 19 -8
35 -20 35 -27 0 -7 9 -13 21 -13 11 0 17 -4 14 -10 -3 -5 1 -10 10 -10 9 0 26
-11 39 -25 13 -14 31 -25 40 -25 9 0 16 -4 16 -10 0 -5 7 -10 15 -10 8 0 15
-7 15 -15 0 -9 9 -15 21 -15 12 0 29 -8 38 -19 9 -10 25 -21 36 -23 11 -2 19
-10 17 -16 -1 -7 5 -12 13 -12 15 0 25 -6 60 -37 7 -7 23 -13 34 -13 12 0 21
-4 21 -10 0 -5 -4 -10 -10 -10 -5 0 -10 -7 -10 -16 0 -11 -8 -14 -27 -12 -16
2 -27 8 -25 16 1 7 -8 12 -23 12 -14 0 -25 4 -25 8 0 5 -15 17 -34 27 -19 11
-33 23 -30 27 3 4 -4 8 -15 8 -12 0 -21 7 -21 15 0 8 -9 15 -20 15 -11 0 -20
5 -20 10 0 6 -7 10 -15 10 -8 0 -15 5 -15 10 0 6 -9 10 -20 10 -11 0 -20 7
-20 15 0 8 -9 15 -21 15 -11 0 -17 5 -14 10 3 6 -3 10 -15 10 -19 0 -29 6 -65
38 -7 6 -18 12 -24 12 -6 0 -11 5 -11 10 0 6 -6 10 -14 10 -8 0 -16 7 -20 15
-3 8 -11 15 -18 15 -8 0 -20 9 -28 20 -8 11 -20 20 -27 20 -7 0 -13 5 -13 11
0 11 -25 39 -35 39 -4 0 -13 6 -20 13 -34 29 -45 37 -55 37 -6 0 -8 5 -5 10 3
6 1 10 -5 10 -6 0 -21 11 -34 25 -13 14 -28 25 -35 25 -6 0 -11 5 -11 10 0 6
-8 14 -17 17 -10 4 -33 22 -50 40 -18 18 -37 33 -43 33 -6 0 -8 5 -5 10 3 6
-1 10 -9 10 -8 0 -26 11 -40 25 -14 14 -28 25 -31 25 -10 0 -35 28 -35 39 0 6
-9 11 -21 11 -11 0 -17 5 -14 10 3 6 1 10 -6 10 -11 0 -31 16 -100 83 -21 20
-43 37 -47 37 -5 0 -15 11 -22 25 -7 14 -17 25 -22 25 -4 0 -8 9 -8 20 0 11
-4 20 -10 20 -5 0 -10 7 -10 15 0 8 -7 15 -15 15 -9 0 -15 9 -15 25 0 14 -4
25 -8 25 -5 0 -17 16 -28 35 -10 19 -22 35 -26 35 -5 0 -8 11 -8 25 0 15 -5
24 -12 23 -7 -2 -12 2 -11 9 1 6 -4 17 -12 23 -8 7 -15 19 -15 26 0 8 -4 14
-10 14 -5 0 -10 23 -10 50 0 53 14 67 24 25z m3926 11 c0 -3 -4 -8 -10 -11 -5
-3 -10 -1 -10 4 0 6 5 11 10 11 6 0 10 -2 10 -4z m353 -3 c-7 -2 -19 -2 -25 0
-7 3 -2 5 12 5 14 0 19 -2 13 -5z m-4466 -28 c8 -9 12 -19 8 -23 -4 -4 -10 -1
-12 6 -3 6 -11 12 -19 12 -9 0 -12 5 -9 10 8 14 14 13 32 -5z m4283 -64 c0
-15 -3 -31 -6 -34 -13 -13 -20 3 -16 37 5 41 22 39 22 -3z m-4250 19 c0 -5 -2
-10 -4 -10 -3 0 -8 5 -11 10 -3 6 -1 10 4 10 6 0 11 -4 11 -10z m4223 -72 c7
-20 -4 -78 -14 -72 -12 7 -12 84 0 84 5 0 11 -6 14 -12z m337 -70 c0 -23 -4
-37 -10 -33 -6 4 -10 -11 -10 -37 0 -24 -7 -52 -15 -62 -9 -12 -15 -44 -16
-80 0 -44 -3 -55 -9 -41 -7 15 -9 8 -11 -30 -1 -27 -2 -58 -1 -67 1 -10 -2
-18 -7 -18 -11 0 -25 196 -18 258 3 25 10 48 16 50 6 2 11 27 11 56 l0 52 35
-4 c33 -4 35 -6 35 -44z m-360 -39 c0 -16 -4 -29 -10 -29 -5 0 -10 16 -10 36
0 21 4 33 10 29 6 -3 10 -19 10 -36z m-3760 22 c0 -6 -4 -13 -10 -16 -5 -3
-10 1 -10 9 0 9 5 16 10 16 6 0 10 -4 10 -9z m3635 -1 c3 -5 1 -10 -4 -10 -6
0 -11 5 -11 10 0 6 2 10 4 10 3 0 8 -4 11 -10z m-3615 -30 c0 -5 -4 -10 -10
-10 -5 0 -10 5 -10 10 0 6 5 10 10 10 6 0 10 -4 10 -10z m3616 3 c-10 -11 -36
-12 -36 -2 0 5 10 9 22 9 12 0 18 -3 14 -7z m-3566 -73 c0 -5 -4 -10 -10 -10
-5 0 -10 5 -10 10 0 6 5 10 10 10 6 0 10 -4 10 -10z m3399 -72 c-1 -41 -1 -42
-11 -15 -5 15 -7 34 -4 42 10 27 16 16 15 -27z m-19 -68 c0 -32 -4 -61 -9 -64
-4 -3 -11 -37 -15 -76 -4 -39 -11 -68 -15 -66 -10 7 -14 142 -5 157 4 8 9 7
15 -2 5 -9 9 12 9 54 0 43 4 66 10 62 6 -3 10 -33 10 -65z m260 20 c0 -5 -4
-10 -10 -10 -5 0 -10 5 -10 10 0 6 5 10 10 10 6 0 10 -4 10 -10z m-410 -155
c0 -25 -4 -45 -9 -45 -4 0 -7 10 -6 23 1 12 3 32 4 45 2 41 11 23 11 -23z
m1470 -15 c0 -5 7 -10 15 -10 8 0 15 -4 15 -10 0 -5 9 -10 20 -10 11 0 20 -7
20 -15 0 -8 9 -15 21 -15 11 0 17 -4 14 -10 -3 -5 -1 -10 4 -10 6 0 13 0 16 0
11 0 162 -155 158 -162 -2 -5 1 -8 6 -8 14 0 91 -77 91 -90 0 -5 7 -10 16 -10
8 0 12 -4 9 -10 -3 -5 1 -10 9 -10 9 0 16 -7 16 -16 0 -8 5 -12 10 -9 6 3 10
-1 10 -9 0 -9 7 -16 15 -16 8 0 14 -3 13 -8 -2 -4 9 -21 24 -37 15 -16 25 -32
22 -37 -3 -4 2 -8 10 -8 9 0 16 -7 16 -16 0 -8 5 -12 10 -9 6 3 10 -1 10 -9 0
-9 5 -16 11 -16 6 0 17 -6 25 -14 8 -8 14 -19 14 -25 0 -6 7 -11 15 -11 8 0
14 -6 12 -12 -1 -7 4 -12 11 -11 6 2 12 -3 12 -10 0 -7 9 -19 20 -27 11 -8 20
-20 20 -27 0 -7 7 -13 15 -13 8 0 15 -9 15 -20 0 -11 7 -20 15 -20 8 0 15 -5
15 -10 0 -6 25 -35 55 -65 30 -29 55 -58 55 -64 0 -6 5 -11 11 -11 14 0 33
-20 42 -43 4 -11 16 -21 27 -24 11 -3 20 -10 20 -16 0 -5 11 -20 25 -33 14
-13 25 -26 25 -29 0 -3 11 -16 25 -29 29 -27 31 -36 10 -36 -8 0 -15 5 -15 10
0 6 -7 10 -16 10 -8 0 -12 5 -9 11 4 6 -2 13 -14 16 -12 3 -21 9 -21 14 0 5
-7 9 -15 9 -8 0 -15 5 -15 10 0 6 -7 10 -15 10 -8 0 -15 7 -15 15 0 8 -6 14
-12 12 -7 -1 -12 4 -11 11 2 7 -7 12 -22 12 -14 0 -25 5 -25 11 0 11 -25 39
-35 39 -10 0 -35 28 -35 39 0 6 -6 11 -13 11 -7 0 -19 9 -27 20 -8 11 -20 20
-27 20 -7 0 -13 7 -13 15 0 8 -7 15 -16 15 -8 0 -13 4 -9 9 3 5 -4 12 -15 16
-11 3 -20 11 -20 16 0 5 -5 9 -10 9 -14 0 -66 52 -63 62 2 4 -3 8 -10 8 -7 0
-21 14 -31 32 -11 17 -39 50 -63 73 -23 23 -43 47 -43 53 0 7 -5 12 -10 12
-14 0 -60 46 -60 60 0 5 -5 10 -11 10 -11 0 -39 25 -39 35 0 6 -10 19 -37 50
-7 7 -13 16 -13 20 0 10 -28 35 -39 35 -6 0 -11 4 -11 10 0 5 -16 27 -35 47
-19 20 -35 43 -35 51 0 7 -4 10 -10 7 -5 -3 -10 3 -10 15 0 12 -4 19 -8 16 -8
-5 -42 28 -42 40 0 5 -11 19 -37 49 -7 7 -13 17 -13 21 0 4 -12 17 -27 30 -22
19 -24 24 -10 24 9 0 17 -4 17 -10z m-4764 -24 c8 -8 14 -19 14 -25 0 -6 7
-11 15 -11 8 0 15 -4 15 -10 0 -5 9 -10 20 -10 11 0 20 -7 20 -15 0 -8 6 -15
13 -15 7 0 19 -9 27 -20 8 -11 20 -20 28 -20 7 0 15 -7 18 -15 4 -8 12 -15 20
-15 8 0 14 -4 14 -10 0 -5 7 -10 15 -10 8 0 15 -7 15 -15 0 -8 7 -15 15 -15 8
0 15 -4 15 -10 0 -5 5 -10 10 -10 6 0 21 -11 34 -25 13 -14 26 -25 29 -25 4 0
27 -20 53 -45 29 -28 40 -45 30 -45 -9 0 -16 5 -16 10 0 6 -5 10 -10 10 -10 0
-22 8 -55 38 -7 6 -17 12 -21 12 -4 0 -22 16 -41 35 -19 19 -40 35 -48 35 -8
0 -15 5 -15 10 0 6 -7 10 -15 10 -8 0 -15 5 -15 11 0 13 -25 39 -38 39 -6 0
-12 7 -16 15 -3 8 -12 15 -21 15 -8 0 -15 5 -15 10 0 6 -7 10 -15 10 -8 0 -15
5 -15 11 0 11 -25 39 -35 39 -10 0 -35 28 -35 39 0 6 -7 11 -16 11 -8 0 -12 5
-9 10 8 13 14 13 31 -4z m3681 -26 c-1 -11 -5 -20 -9 -20 -4 0 -8 9 -8 20 0
11 4 20 9 20 6 0 9 -9 8 -20z m-357 -25 c0 -14 -4 -25 -10 -25 -11 0 -14 33
-3 43 11 11 13 8 13 -18z m20 -125 c0 -11 -4 -20 -10 -20 -5 0 -10 9 -10 20 0
11 5 20 10 20 6 0 10 -9 10 -20z m190 0 c0 -11 -4 -20 -9 -20 -7 0 -8 17 -2
38 4 10 11 -2 11 -18z m41 -50 c4 -3 9 -14 11 -25 2 -11 10 -19 16 -17 8 1 12
-13 11 -40 0 -44 -17 -102 -18 -65 -1 10 -8 20 -16 23 -8 4 -15 17 -15 30 0
13 -4 24 -9 24 -11 0 -22 85 -14 107 6 14 8 13 17 -8 6 -13 13 -26 17 -29z
m179 13 c0 -7 -4 -13 -10 -13 -5 0 -10 7 -10 15 0 8 -4 15 -10 15 -5 0 -10 5
-10 10 0 6 8 5 20 -2 11 -7 20 -18 20 -25z m283 8 c2 -10 1 -25 -4 -32 -6 -10
-9 -4 -9 19 0 36 5 42 13 13z m-571 -113 c-2 -5 -7 -8 -13 -8 -11 0 -12 63 -1
74 7 8 21 -53 14 -66z m308 58 c0 -3 -4 -8 -10 -11 -5 -3 -10 -1 -10 4 0 6 5
11 10 11 6 0 10 -2 10 -4z m77 -12 c13 -4 20 -10 17 -15 -3 -5 4 -9 15 -9 12
0 21 -4 21 -9 0 -5 3 -16 6 -25 5 -13 -2 -16 -35 -16 -23 0 -41 5 -41 10 0 6
-7 10 -15 10 -8 0 -15 7 -15 15 0 8 -7 15 -15 15 -21 0 -19 18 3 23 26 7 35 7
59 1z m1438 -64 c-3 -5 -10 -10 -16 -10 -5 0 -9 5 -9 10 0 6 7 10 16 10 8 0
12 -4 9 -10z m-1247 -29 c3 -8 0 -11 -7 -7 -7 5 -11 -3 -11 -21 0 -38 -10 -73
-21 -73 -5 0 -9 7 -9 15 0 8 -4 15 -10 15 -5 0 -10 21 -10 46 0 45 0 45 32 42
17 -2 34 -9 36 -17z m1318 -16 c18 -19 42 -35 54 -35 12 0 19 -4 16 -8 -6 -9
29 -42 44 -42 6 0 10 -4 10 -9 0 -5 9 -11 21 -14 12 -3 18 -10 14 -16 -3 -6 2
-11 12 -11 10 0 25 -9 33 -20 8 -11 20 -20 27 -20 7 0 13 -7 13 -15 0 -8 7
-15 16 -15 9 0 31 -16 50 -35 18 -19 37 -35 43 -35 6 0 11 -7 11 -15 0 -8 7
-15 16 -15 8 0 12 -4 9 -10 -4 -6 5 -10 19 -10 17 0 26 -6 26 -16 0 -8 5 -12
10 -9 6 3 10 -1 10 -9 0 -9 7 -16 16 -16 8 0 12 -4 9 -10 -3 -5 1 -10 9 -10 9
0 16 -8 16 -17 0 -9 3 -14 6 -11 7 7 134 -118 134 -132 0 -5 7 -10 15 -10 8 0
15 -7 15 -16 0 -8 5 -12 10 -9 6 3 10 -3 10 -15 0 -12 4 -19 9 -15 5 3 12 -4
16 -15 3 -11 11 -20 16 -20 5 0 9 -7 9 -15 0 -8 5 -15 10 -15 6 0 10 -9 10
-20 0 -11 7 -20 15 -20 12 0 15 -14 15 -65 0 -61 -1 -65 -23 -65 -14 0 -40 18
-69 50 -26 28 -52 50 -59 50 -7 0 -10 3 -6 6 8 8 -16 33 -25 27 -5 -2 -8 5 -8
16 0 12 -7 21 -15 21 -8 0 -15 5 -15 11 0 12 -25 39 -36 39 -8 0 -54 52 -54
63 0 4 -7 7 -15 7 -8 0 -15 5 -15 11 0 14 -25 39 -39 39 -6 0 -11 7 -11 16 0
8 -4 12 -10 9 -5 -3 -10 -1 -10 6 0 6 -11 22 -25 35 -14 13 -25 30 -25 39 0 8
-5 15 -11 15 -14 0 -39 26 -39 40 0 6 -4 8 -10 5 -5 -3 -10 1 -10 9 0 9 -7 16
-16 16 -8 0 -12 5 -9 10 3 6 -1 10 -9 10 -9 0 -16 5 -16 11 0 6 -20 30 -45 55
-25 24 -45 45 -45 48 0 6 -36 48 -82 96 -21 22 -38 44 -38 50 0 5 -5 10 -11
10 -14 0 -39 25 -39 39 0 6 -7 11 -16 11 -8 0 -12 5 -9 10 12 19 38 10 71 -25z
m-4896 1 c0 -2 -7 -6 -15 -10 -8 -3 -15 -1 -15 4 0 6 7 10 15 10 8 0 15 -2 15
-4z m30 -26 c0 -5 -4 -10 -10 -10 -5 0 -10 5 -10 10 0 6 5 10 10 10 6 0 10 -4
10 -10z m3110 -120 c0 -5 -9 -10 -20 -10 -11 0 -20 5 -20 10 0 6 9 10 20 10
11 0 20 -4 20 -10z m46 -25 c4 -8 12 -15 20 -15 8 0 14 -4 14 -10 0 -5 11 -10
25 -10 14 0 25 -4 25 -10 0 -5 -11 -10 -25 -10 -14 0 -25 5 -25 10 0 6 -9 10
-20 10 -11 0 -20 7 -20 15 0 8 -9 15 -21 15 -11 0 -17 5 -14 10 9 15 35 12 41
-5z m154 -75 c0 -6 29 -10 66 -10 41 0 63 -4 59 -10 -4 -6 5 -10 19 -10 14 0
26 -5 26 -10 0 -22 50 -60 78 -60 30 0 51 25 29 34 -7 2 -4 5 6 5 10 1 21 -7
24 -16 4 -10 13 -24 20 -31 7 -7 13 -24 13 -37 0 -13 5 -27 10 -30 6 -3 10
-10 10 -16 0 -12 -47 -12 -55 1 -3 6 -15 10 -26 10 -10 0 -19 7 -19 15 0 10
-10 15 -31 15 -17 0 -28 4 -24 10 3 6 -3 10 -15 10 -11 0 -23 7 -26 15 -4 8
-17 15 -30 15 -13 0 -24 5 -24 10 0 6 -9 10 -20 10 -11 0 -20 5 -20 10 0 6
-11 10 -25 10 -16 0 -25 6 -25 15 0 9 -9 15 -21 15 -11 0 -27 7 -36 15 -8 8
-19 13 -24 10 -5 -4 -9 -1 -9 4 0 6 16 11 35 11 19 0 35 -4 35 -10z m-2330
-210 c0 -5 -5 -10 -11 -10 -5 0 -7 5 -4 10 3 6 8 10 11 10 2 0 4 -4 4 -10z
m43 -27 c-7 -2 -19 -2 -25 0 -7 3 -2 5 12 5 14 0 19 -2 13 -5z m57 -21 c0 -5
12 -13 28 -19 l27 -11 -27 -1 c-16 -1 -28 4 -28 9 0 6 -9 10 -20 10 -11 0 -20
5 -20 10 0 6 9 10 20 10 11 0 20 -4 20 -8z m90 -52 c0 -5 11 -10 24 -10 13 0
27 -7 30 -16 3 -8 10 -13 15 -10 5 4 16 -1 24 -9 9 -8 23 -15 31 -15 9 0 16
-4 16 -10 0 -5 9 -10 20 -10 11 0 20 -4 20 -10 0 -5 14 -10 30 -10 20 0 30 -5
30 -15 0 -9 9 -15 25 -15 14 0 25 -4 25 -10 0 -5 11 -10 24 -10 13 0 26 -7 30
-15 3 -8 17 -15 31 -15 15 0 24 -4 20 -10 -4 -6 7 -10 24 -10 17 0 31 -4 31
-8 0 -10 71 -42 93 -42 10 0 17 -4 17 -10 0 -5 11 -10 25 -10 14 0 28 -7 31
-15 4 -9 19 -15 35 -15 16 0 29 -4 29 -10 0 -5 14 -10 30 -10 21 0 30 -5 30
-16 0 -8 5 -12 10 -9 13 8 50 -4 50 -16 0 -5 -18 -9 -40 -9 -29 0 -40 4 -40
15 0 10 -11 15 -35 15 -19 0 -35 5 -35 10 0 6 -16 10 -36 10 -19 0 -33 4 -29
9 3 6 -12 11 -32 13 -24 2 -37 8 -35 16 1 7 -9 12 -29 12 -17 0 -28 4 -24 10
4 6 -5 10 -19 10 -14 0 -26 5 -26 10 0 6 -9 10 -20 10 -11 0 -23 7 -26 15 -4
9 -19 15 -36 15 -16 0 -27 4 -23 9 3 5 -7 11 -22 13 -16 2 -27 8 -25 16 1 7
-8 12 -23 12 -28 0 -66 18 -78 38 -4 6 -17 12 -28 12 -11 0 -17 5 -14 10 4 6
-5 10 -19 10 -14 0 -26 4 -26 9 0 5 -8 12 -17 15 -33 13 -63 31 -63 38 0 5
-11 8 -25 8 -14 0 -25 5 -25 10 0 6 11 10 25 10 14 0 25 -4 25 -10z m4220
-166 c0 -2 -9 -4 -21 -4 -11 0 -18 4 -14 10 5 8 35 3 35 -6z m-4478 -76 c-9
-9 -15 -9 -24 0 -9 9 -7 12 12 12 19 0 21 -3 12 -12z m58 -18 c0 -5 9 -10 20
-10 11 0 20 -7 20 -15 0 -10 10 -15 31 -15 17 0 28 -4 24 -10 -3 -5 2 -10 13
-10 24 0 82 -29 82 -41 0 -5 14 -9 31 -9 17 0 28 -4 24 -10 -4 -6 7 -10 24
-10 21 0 31 -5 31 -15 0 -9 9 -15 25 -15 14 0 25 -4 25 -10 0 -5 11 -10 25
-10 14 0 25 -4 25 -10 0 -5 11 -10 25 -10 16 0 25 -6 25 -15 0 -10 10 -15 30
-15 17 0 30 -4 30 -10 0 -5 9 -10 19 -10 11 0 21 -5 23 -11 3 -9 22 -15 51
-18 5 -1 5 -5 2 -11 -4 -6 7 -10 24 -10 21 0 31 -5 31 -15 0 -9 9 -15 25 -15
14 0 25 -4 25 -10 0 -5 12 -10 26 -10 14 0 23 -4 19 -10 -3 -5 0 -10 8 -10 8
0 17 -7 21 -15 3 -8 15 -15 26 -15 12 0 19 -3 16 -8 -2 -4 13 -16 35 -26 21
-11 39 -23 39 -28 0 -4 9 -8 21 -8 11 0 17 -4 14 -10 -3 -5 3 -10 14 -10 12 0
21 -7 21 -15 0 -9 10 -15 26 -15 14 0 23 -4 19 -10 -3 -5 3 -10 14 -10 12 0
21 -4 21 -10 0 -5 -14 -10 -31 -10 -17 0 -28 4 -24 10 4 6 -5 10 -19 10 -14 0
-26 5 -26 10 0 6 -13 10 -30 10 -20 0 -30 5 -30 15 0 10 -10 15 -31 15 -17 0
-28 4 -24 10 4 6 -7 10 -24 10 -21 0 -31 5 -31 15 0 9 -9 15 -25 15 -14 0 -25
5 -25 10 0 6 -12 10 -26 10 -14 0 -23 4 -19 10 4 6 -7 10 -24 10 -21 0 -31 5
-31 15 0 8 -9 15 -20 15 -11 0 -20 5 -20 10 0 6 -11 10 -24 10 -13 0 -26 6
-28 12 -3 7 -13 13 -24 13 -10 0 -18 6 -16 13 1 7 -9 12 -29 12 -17 0 -28 4
-24 10 5 9 -15 15 -37 11 -5 0 -8 6 -8 14 0 8 -9 15 -20 15 -11 0 -20 5 -20
10 0 6 -9 10 -19 10 -10 0 -21 7 -25 15 -3 8 -15 15 -26 15 -11 0 -20 5 -20
10 0 6 -9 10 -20 10 -11 0 -20 5 -20 10 0 6 -9 10 -19 10 -10 0 -21 7 -25 15
-3 8 -12 15 -21 15 -8 0 -15 5 -15 10 0 6 -9 10 -20 10 -11 0 -20 7 -20 15 0
8 -9 15 -20 15 -11 0 -20 5 -20 10 0 6 -7 10 -15 10 -8 0 -15 5 -15 10 0 6
-11 10 -25 10 -16 0 -25 6 -25 15 0 9 -10 15 -26 15 -14 0 -23 4 -19 10 3 6
17 10 31 10 13 0 24 -4 24 -10z m470 0 c0 -5 11 -10 25 -10 16 0 25 -6 25 -15
0 -9 10 -15 26 -15 14 0 23 -4 19 -10 -4 -6 5 -10 19 -10 14 0 26 -4 26 -10 0
-5 9 -10 20 -10 11 0 23 -7 26 -15 4 -8 17 -15 31 -15 13 0 21 -4 18 -10 -3
-6 5 -10 18 -10 14 0 27 -7 31 -15 3 -8 15 -15 26 -15 11 0 20 -4 20 -10 0 -5
11 -10 25 -10 14 0 25 -4 25 -9 0 -5 12 -11 28 -13 15 -2 26 -8 24 -15 -1 -8
8 -13 23 -13 14 0 25 -4 25 -10 0 -5 -13 -10 -30 -10 -16 0 -30 5 -30 10 0 6
-16 10 -35 10 -23 0 -34 4 -33 13 2 7 -10 13 -29 15 -18 2 -33 7 -33 13 0 5
-13 9 -30 9 -16 0 -30 5 -30 10 0 6 -11 10 -25 10 -14 0 -28 7 -31 15 -4 9
-19 15 -36 15 -17 0 -27 4 -23 10 4 6 -5 10 -21 10 -27 0 -74 36 -74 58 0 6
-9 12 -20 12 -11 0 -20 7 -20 15 0 8 -7 15 -15 15 -8 0 -15 5 -15 10 0 6 11
10 25 10 14 0 25 -4 25 -10z m595 -120 c-3 -5 -22 -10 -41 -10 -21 0 -33 4
-29 10 3 6 22 10 41 10 21 0 33 -4 29 -10z m60 -20 c4 -6 -7 -10 -25 -10 -18
0 -29 4 -25 10 3 6 15 10 25 10 10 0 22 -4 25 -10z m70 -30 c-3 -5 -15 -10
-26 -10 -10 0 -19 5 -19 10 0 6 12 10 26 10 14 0 23 -4 19 -10z m58 -27 c-7
-2 -19 -2 -25 0 -7 3 -2 5 12 5 14 0 19 -2 13 -5z m-233 -69 c0 -2 -17 -4 -37
-3 -29 0 -33 2 -18 8 18 7 55 4 55 -5z m3283 -1 c-7 -2 -21 -2 -30 0 -10 3 -4
5 12 5 17 0 24 -2 18 -5z m-40 -12 c20 -2 4 -21 -18 -21 -14 0 -25 -3 -25 -7
0 -5 -20 -17 -44 -27 -25 -11 -43 -24 -40 -28 3 -4 -6 -8 -20 -8 -16 0 -26 -6
-26 -15 0 -9 -10 -15 -26 -15 -14 0 -23 -4 -19 -10 3 -5 -3 -10 -14 -10 -12 0
-21 -4 -21 -10 0 -5 -9 -10 -20 -10 -11 0 -20 -7 -20 -15 0 -9 -10 -15 -26
-15 -14 0 -23 -4 -19 -10 4 -6 -5 -10 -19 -10 -16 0 -26 -6 -26 -15 0 -8 -7
-15 -15 -15 -8 0 -15 -4 -15 -10 0 -5 -9 -10 -20 -10 -19 0 -29 -6 -65 -37 -7
-7 -18 -13 -24 -13 -6 0 -11 -4 -11 -10 0 -5 -10 -10 -21 -10 -12 0 -32 -11
-45 -25 -13 -14 -34 -25 -49 -25 -14 0 -24 -4 -21 -9 7 -10 -17 -21 -45 -21
-11 0 -17 -4 -14 -10 4 -6 -8 -10 -29 -10 -20 0 -36 -4 -36 -10 0 -5 -11 -10
-24 -10 -13 0 -26 -6 -29 -14 -4 -9 -15 -12 -32 -8 -26 5 -26 5 -6 23 11 11
25 19 31 19 5 0 10 4 10 9 0 5 10 11 23 13 12 2 21 9 19 16 -1 6 5 12 13 12 8
0 15 7 15 15 0 9 9 15 23 15 12 0 29 9 37 20 8 11 26 20 40 20 19 0 22 3 11 9
-12 8 -9 11 12 16 15 4 27 11 27 16 0 5 7 9 16 9 9 0 27 11 40 25 13 14 30 25
39 25 8 0 15 5 15 10 0 6 9 10 19 10 11 0 22 4 26 9 7 13 64 41 82 41 8 0 11
5 8 10 -4 6 7 10 24 10 21 0 31 5 31 15 0 9 9 15 25 15 14 0 25 5 25 10 0 6
11 10 25 10 14 0 25 5 25 10 0 6 11 10 24 10 14 0 31 7 40 15 8 8 31 15 51 15
20 0 34 4 30 9 -6 11 21 19 50 15 11 -1 23 -3 28 -3z m-3203 -11 c0 -5 -4 -10
-9 -10 -6 0 -13 5 -16 10 -3 6 1 10 9 10 9 0 16 -4 16 -10z m300 -20 c0 -5
-11 -10 -25 -10 -14 0 -25 5 -25 10 0 6 11 10 25 10 14 0 25 -4 25 -10z m250
0 c0 -5 -11 -10 -25 -10 -14 0 -25 5 -25 10 0 6 11 10 25 10 14 0 25 -4 25
-10z m-185 -30 c-3 -5 -19 -10 -36 -10 -16 0 -29 5 -29 10 0 6 16 10 36 10 21
0 33 -4 29 -10z m255 0 c-20 -13 -47 -13 -55 0 -4 6 9 10 32 10 28 0 34 -3 23
-10z m-190 -19 c0 -5 12 -11 27 -13 42 -5 41 -28 -1 -28 -25 0 -36 4 -36 15 0
11 -11 15 -36 15 -21 0 -33 4 -29 10 8 13 75 13 75 1z m270 -1 c0 -5 16 -10
35 -10 24 0 35 -5 35 -15 0 -10 10 -15 28 -15 21 0 24 -2 12 -10 -10 -6 -11
-10 -2 -10 19 0 14 -17 -8 -23 -13 -3 -20 0 -20 9 0 8 -10 14 -25 14 -14 0
-25 5 -25 10 0 6 -13 10 -30 10 -30 0 -41 14 -17 23 6 3 -5 6 -25 6 -51 1 -49
21 2 21 22 0 40 -4 40 -10z m-360 -99 c0 -4 -12 -7 -26 -5 -38 4 -42 14 -6 14
18 0 32 -4 32 -9z m45 -21 c4 -6 -5 -10 -20 -10 -15 0 -24 4 -20 10 3 6 12 10
20 10 8 0 17 -4 20 -10z m-165 -20 c0 -5 -5 -10 -11 -10 -5 0 -7 5 -4 10 3 6
8 10 11 10 2 0 4 -4 4 -10z m60 -30 c0 -5 11 -10 25 -10 14 0 25 -4 25 -10 0
-5 14 -10 30 -10 20 0 30 -5 30 -15 0 -10 11 -15 35 -15 19 0 35 -4 35 -10 0
-5 11 -10 25 -10 14 0 25 -4 25 -10 0 -5 7 -10 15 -10 11 0 15 -11 15 -40 0
-22 -4 -40 -8 -40 -20 0 -72 32 -67 41 4 5 -5 9 -19 9 -14 0 -26 5 -26 10 0 6
-16 18 -35 27 -19 9 -35 20 -35 25 0 4 -11 8 -25 8 -14 0 -24 5 -22 12 1 7 -8
14 -21 16 -12 2 -20 8 -17 13 4 5 -3 9 -14 9 -11 0 -23 5 -26 10 -4 6 7 10 24
10 17 0 31 -4 31 -10z m-250 -50 c0 -5 -9 -10 -20 -10 -11 0 -20 5 -20 10 0 6
9 10 20 10 11 0 20 -4 20 -10z m2703 -117 c-7 -2 -19 -2 -25 0 -7 3 -2 5 12 5
14 0 19 -2 13 -5z m-43 -23 c0 -5 -9 -10 -19 -10 -10 0 -22 -7 -25 -16 -3 -8
-10 -13 -15 -10 -5 3 -11 -1 -15 -9 -3 -8 -15 -15 -26 -15 -11 0 -20 -4 -20
-10 0 -5 -7 -10 -15 -10 -9 0 -18 -7 -21 -15 -4 -8 -17 -15 -30 -15 -15 0 -24
6 -24 15 0 8 7 15 15 15 8 0 15 5 15 10 0 6 9 10 19 10 10 0 21 7 25 15 3 8
12 12 21 9 8 -4 17 1 21 10 3 9 17 16 30 16 13 0 24 5 24 10 0 6 9 10 20 10
11 0 20 -4 20 -10z m-1270 -76 c0 -21 -4 -33 -10 -29 -5 3 -10 19 -10 36 0 16
5 29 10 29 6 0 10 -16 10 -36z m890 26 c0 -13 -11 -13 -30 0 -12 8 -11 10 8
10 12 0 22 -4 22 -10z m-1176 -51 c-3 -6 0 -15 7 -20 10 -6 8 -9 -8 -9 -13 0
-22 5 -20 13 1 6 -4 11 -10 10 -7 -2 -13 2 -13 7 0 6 12 10 26 10 16 0 23 -4
18 -11z m1356 -19 c12 -8 9 -10 -12 -10 -16 0 -28 -4 -28 -9 0 -11 -56 -41
-77 -41 -7 0 -13 -4 -13 -10 0 -5 -7 -10 -15 -10 -8 0 -15 5 -15 10 0 6 7 10
15 10 8 0 15 5 15 10 0 6 9 10 20 10 11 0 20 7 20 15 0 8 7 15 15 15 8 0 15 5
15 10 0 13 40 13 60 0z m-1550 -25 c0 -9 9 -15 25 -15 14 0 25 -4 25 -10 0 -5
9 -10 20 -10 11 0 20 -4 20 -10 0 -5 14 -10 30 -10 20 0 30 -5 30 -15 0 -10
11 -15 35 -15 34 0 35 -1 35 -39 0 -22 5 -42 13 -44 6 -3 2 -6 -10 -6 -13 -1
-23 4 -23 9 0 6 -9 10 -19 10 -10 0 -22 7 -25 16 -3 8 -10 12 -16 9 -6 -3 -13
1 -16 9 -3 9 -12 16 -20 16 -8 0 -14 5 -14 10 0 6 -9 10 -20 10 -11 0 -20 7
-20 15 0 8 -7 15 -16 15 -8 0 -12 5 -9 10 3 6 1 10 -6 10 -12 0 -38 29 -39 43
0 4 5 7 10 7 6 0 10 -7 10 -15z m-240 -25 c0 -5 5 -10 11 -10 14 0 39 -25 39
-39 0 -6 5 -11 11 -11 14 0 39 -25 39 -39 0 -6 3 -10 8 -10 18 3 32 -2 32 -11
0 -5 -18 -10 -40 -10 -22 0 -40 5 -40 10 0 6 -7 10 -15 10 -8 0 -15 5 -15 11
0 6 -6 17 -12 24 -30 33 -38 45 -38 55 0 5 -4 10 -10 10 -5 0 -10 5 -10 10 0
6 9 10 20 10 11 0 20 -4 20 -10z m1485 -20 c3 -5 1 -10 -4 -10 -6 0 -11 5 -11
10 0 6 2 10 4 10 3 0 8 -4 11 -10z m-36 -19 c9 -6 10 -11 2 -15 -13 -8 -31 1
-31 15 0 11 11 11 29 0z m181 -7 c0 -2 -9 -4 -20 -4 -11 0 -20 4 -20 9 0 5 9
7 20 4 11 -3 20 -7 20 -9z m-210 -24 c0 -5 -7 -10 -15 -10 -8 0 -15 -4 -15
-10 0 -5 -7 -10 -15 -10 -9 0 -18 -7 -21 -15 -4 -8 -10 -15 -16 -15 -5 0 -16
-6 -23 -12 -37 -33 -46 -39 -55 -33 -6 3 -10 -1 -10 -9 0 -9 -7 -16 -15 -16
-8 0 -15 -4 -15 -10 0 -5 -10 -10 -22 -9 -14 0 -17 3 -9 6 7 3 30 23 51 44 21
22 43 39 49 39 6 0 11 7 11 15 0 8 7 15 15 15 8 0 15 5 15 10 0 6 12 10 26 10
14 0 23 4 19 10 -4 6 5 10 19 10 14 0 26 -4 26 -10z m-1250 -70 c0 -5 -9 -10
-21 -10 -11 0 -17 5 -14 10 3 6 13 10 21 10 8 0 14 -4 14 -10z m-170 -77 c0
-7 11 -23 25 -37 14 -14 25 -29 25 -34 0 -18 36 -82 43 -76 4 4 7 -2 7 -14 0
-12 0 -25 1 -29 0 -5 -7 -9 -15 -11 -9 -2 -16 3 -16 12 0 13 -11 16 -51 16
-41 0 -50 -3 -45 -15 3 -8 1 -15 -4 -15 -8 0 -19 190 -12 223 3 14 7 14 23 4
10 -6 19 -17 19 -24z m380 22 c0 -9 6 -12 15 -9 8 4 15 1 15 -5 0 -6 7 -11 15
-11 8 0 15 -7 15 -15 0 -8 9 -15 20 -15 16 0 20 -7 20 -35 0 -31 -3 -35 -26
-35 -14 0 -23 4 -19 10 3 6 1 10 -5 10 -20 0 -40 28 -40 54 0 14 -3 26 -8 26
-4 0 -13 9 -20 20 -10 17 -10 20 3 20 8 0 15 -7 15 -15z m1015 -65 c3 -5 2
-10 -4 -10 -5 0 -13 5 -16 10 -3 6 -2 10 4 10 5 0 13 -4 16 -10z m-675 -30 c0
-20 5 -30 15 -30 9 0 15 -9 15 -25 0 -20 -5 -25 -25 -25 -24 0 -25 3 -25 55 0
30 5 55 10 55 6 0 10 -13 10 -30z m650 0 c0 -13 -11 -13 -30 0 -12 8 -11 10 8
10 12 0 22 -4 22 -10z m-35 -20 c3 -5 -3 -10 -14 -10 -10 0 -21 -5 -23 -11 -2
-6 -13 -9 -23 -6 -19 5 -19 5 3 12 12 4 22 11 22 16 0 12 27 11 35 -1z m-1135
-50 c0 -5 9 -10 20 -10 11 0 20 -4 20 -10 0 -5 11 -10 25 -10 16 0 25 -6 25
-15 0 -9 9 -15 25 -15 14 0 25 -4 25 -10 0 -5 9 -10 20 -10 11 0 23 -7 26 -15
4 -8 15 -15 25 -15 10 0 19 -4 19 -10 0 -5 7 -10 15 -10 8 0 15 -4 15 -10 0
-5 -24 -10 -52 -9 -39 0 -48 3 -33 9 14 6 -2 9 -51 9 -56 1 -73 5 -78 17 -3 8
-10 12 -16 9 -6 -4 -10 5 -10 20 0 15 -4 24 -10 20 -5 -3 -10 3 -10 14 0 11
-7 26 -15 35 -8 8 -15 17 -15 20 0 3 7 6 15 6 8 0 15 -4 15 -10z m1070 1 c0
-5 -9 -7 -20 -4 -11 3 -20 7 -20 9 0 2 9 4 20 4 11 0 20 -4 20 -9z m-310 -161
c0 -5 -4 -10 -10 -10 -5 0 -10 5 -10 10 0 6 5 10 10 10 6 0 10 -4 10 -10z
m-20 -31 c0 -5 -7 -9 -15 -9 -8 0 -15 -4 -15 -10 0 -5 -12 -10 -27 -10 -25 1
-26 2 -10 14 9 7 17 18 17 23 0 6 11 8 25 5 14 -2 25 -8 25 -13z m-585 -19 c3
-5 39 -10 79 -10 40 0 93 -3 118 -6 l45 -6 7 -79 c3 -43 9 -84 11 -92 4 -8 -3
-13 -15 -14 -11 -1 -20 4 -20 13 0 8 -8 14 -18 14 -10 0 -27 8 -38 18 -10 10
-27 21 -36 25 -10 3 -18 11 -18 17 0 5 -7 10 -15 10 -8 0 -15 5 -15 10 0 6 -5
10 -10 10 -10 0 -22 8 -55 38 -7 6 -21 12 -29 12 -9 0 -16 7 -16 15 0 8 -9 15
-21 15 -11 0 -17 5 -14 10 3 6 17 10 30 10 13 0 27 -4 30 -10z m795 -50 c0 -5
-9 -10 -20 -10 -11 0 -20 5 -20 10 0 6 9 10 20 10 11 0 20 -4 20 -10z m-46
-19 c3 -5 -3 -11 -14 -14 -20 -5 -35 5 -23 17 9 9 31 7 37 -3z m-284 -31 c0
-5 -4 -10 -10 -10 -5 0 -12 -11 -16 -25 -3 -14 -10 -22 -15 -19 -5 3 -9 -2 -9
-10 0 -9 -7 -16 -16 -16 -8 0 -13 -4 -9 -9 3 -5 1 -12 -4 -15 -5 -4 -13 -1
-17 5 -4 6 1 16 10 21 9 5 16 18 16 29 0 11 5 17 10 14 6 -3 10 1 10 9 0 9 7
16 15 16 8 0 15 5 15 10 0 6 5 10 10 10 6 0 10 -4 10 -10z m245 0 c4 -6 -7
-10 -27 -10 -24 0 -29 -3 -19 -9 12 -8 9 -11 -12 -16 -15 -4 -27 -11 -27 -16
0 -5 -9 -9 -20 -9 -11 0 -20 -4 -20 -10 0 -5 -11 -10 -25 -10 -16 0 -25 -6
-25 -15 0 -15 -31 -21 -43 -8 -4 3 11 23 32 44 22 20 37 40 34 43 -4 3 15 6
41 6 29 0 45 4 41 10 -4 6 8 10 29 10 19 0 38 -4 41 -10z m-345 -120 c0 -5 -4
-10 -10 -10 -5 0 -10 5 -10 10 0 6 5 10 10 10 6 0 10 -4 10 -10z"/>
<path d="M4863 1053 c9 -2 23 -2 30 0 6 3 -1 5 -18 5 -16 0 -22 -2 -12 -5z"/>
</g>
</svg>
