<?xml version="1.0" standalone="no"?>
<!DOCTYPE svg PUBLIC "-//W3C//DTD SVG 20010904//EN"
 "http://www.w3.org/TR/2001/REC-SVG-20010904/DTD/svg10.dtd">
<svg version="1.0" xmlns="http://www.w3.org/2000/svg"
 width="201.000000pt" height="107.000000pt" viewBox="0 0 201.000000 107.000000"
 preserveAspectRatio="xMidYMid meet">

<g transform="translate(0.000000,107.000000) scale(0.100000,-0.100000)"
fill="#000000" stroke="none">
<path d="M42 1058 c-17 -17 -17 -1009 0 -1026 17 -17 1919 -17 1936 0 17 17
17 1009 0 1026 -17 17 -1919 17 -1936 0z m1469 -15 c1 -17 2 -17 6 0 4 14 16
17 69 17 36 0 64 -4 64 -10 0 -6 -27 -10 -60 -10 l-60 0 0 -405 0 -405 58 0
c31 -1 92 -2 135 -3 l77 -2 0 418 0 418 88 -3 87 -3 0 -510 0 -510 -22 -3
c-22 -3 -23 0 -25 85 l-2 88 -6 -90 -6 -90 -2 88 c-2 70 -5 87 -17 87 -12 0
-15 -17 -17 -87 l-2 -88 -5 85 -6 85 -47 2 -48 3 0 -85 c0 -50 -4 -85 -10 -85
-6 0 -10 35 -10 85 0 114 -19 112 -22 -2 l-2 -88 -5 85 c-6 79 -8 85 -28 88
-16 2 -23 -2 -23 -12 0 -9 -6 -16 -12 -17 -10 0 -10 -2 0 -6 8 -3 12 -27 12
-69 l0 -64 -30 0 -30 0 0 65 c0 37 4 65 10 65 16 0 12 27 -5 34 -13 4 -15 -8
-15 -79 0 -69 -3 -85 -15 -85 -12 0 -15 14 -15 65 0 37 4 65 10 65 16 0 11 27
-6 34 -31 12 -34 5 -34 -79 0 -50 -4 -85 -10 -85 -5 0 -11 8 -11 18 -1 16 -2
16 -6 -1 -4 -16 -45 -17 -736 -15 l-732 3 -3 500 c-1 275 0 506 3 513 3 9 160
12 735 12 688 0 730 -1 731 -17z m279 -183 l0 -200 -65 0 -65 0 0 200 0 200
65 0 65 0 0 -200z m0 -415 l0 -205 -65 0 -65 0 0 205 0 205 65 0 65 0 0 -205z
m-190 25 c0 -16 -4 -30 -10 -30 -5 0 -10 14 -10 30 0 17 5 30 10 30 6 0 10
-13 10 -30z m0 -75 c0 -19 -4 -35 -10 -35 -5 0 -10 16 -10 35 0 19 5 35 10 35
6 0 10 -16 10 -35z m0 -55 c0 -5 -4 -10 -10 -10 -5 0 -10 5 -10 10 0 6 5 10
10 10 6 0 10 -4 10 -10z m0 -70 c0 -11 -4 -20 -10 -20 -5 0 -10 9 -10 20 0 11
5 20 10 20 6 0 10 -9 10 -20z m217 -202 c-2 -24 -4 -7 -4 37 0 44 2 63 4 43 2
-21 2 -57 0 -80z m-110 -5 c-2 -21 -4 -6 -4 32 0 39 2 55 4 38 2 -18 2 -50 0
-70z m150 0 c-2 -21 -4 -6 -4 32 0 39 2 55 4 38 2 -18 2 -50 0 -70z"/>
<path d="M60 980 l0 -50 710 0 710 0 0 50 0 50 -710 0 -710 0 0 -50z m1408 -2
l-1 -43 -4 38 -4 37 -689 0 -689 0 -4 -37 -4 -38 -1 43 -2 42 700 0 700 0 -2
-42z m-1318 -8 c0 -5 -4 -10 -10 -10 -5 0 -10 5 -10 10 0 6 5 10 10 10 6 0 10
-4 10 -10z m40 0 c0 -5 -7 -10 -15 -10 -8 0 -15 5 -15 10 0 6 7 10 15 10 8 0
15 -4 15 -10z m40 0 c0 -5 -4 -10 -10 -10 -5 0 -10 5 -10 10 0 6 5 10 10 10 6
0 10 -4 10 -10z m40 6 c0 -3 -4 -8 -10 -11 -5 -3 -10 -1 -10 4 0 6 5 11 10 11
6 0 10 -2 10 -4z m40 -6 c0 -5 -7 -10 -15 -10 -8 0 -15 5 -15 10 0 6 7 10 15
10 8 0 15 -4 15 -10z m40 0 c0 -5 -4 -10 -10 -10 -5 0 -10 5 -10 10 0 6 5 10
10 10 6 0 10 -4 10 -10z m60 6 c0 -3 -4 -8 -10 -11 -5 -3 -10 -1 -10 4 0 6 5
11 10 11 6 0 10 -2 10 -4z m40 -6 c0 -5 -4 -10 -10 -10 -5 0 -10 5 -10 10 0 6
5 10 10 10 6 0 10 -4 10 -10z m40 0 c0 -5 -4 -10 -10 -10 -5 0 -10 5 -10 10 0
6 5 10 10 10 6 0 10 -4 10 -10z m60 0 c0 -5 -4 -10 -10 -10 -5 0 -10 5 -10 10
0 6 5 10 10 10 6 0 10 -4 10 -10z m40 0 c0 -5 -7 -10 -16 -10 -8 0 -12 5 -9
10 3 6 10 10 16 10 5 0 9 -4 9 -10z m60 0 c0 -5 -4 -10 -10 -10 -5 0 -10 5
-10 10 0 6 5 10 10 10 6 0 10 -4 10 -10z m40 0 c0 -5 -4 -10 -10 -10 -5 0 -10
5 -10 10 0 6 5 10 10 10 6 0 10 -4 10 -10z m40 0 c0 -5 -4 -10 -10 -10 -5 0
-10 5 -10 10 0 6 5 10 10 10 6 0 10 -4 10 -10z m35 0 c3 -5 1 -10 -4 -10 -6 0
-11 5 -11 10 0 6 2 10 4 10 3 0 8 -4 11 -10z m35 0 c0 -5 -4 -10 -10 -10 -5 0
-10 5 -10 10 0 6 5 10 10 10 6 0 10 -4 10 -10z"/>
<path d="M1511 994 c0 -11 3 -14 6 -6 3 7 2 16 -1 19 -3 4 -6 -2 -5 -13z"/>
<path d="M1511 944 c0 -11 3 -14 6 -6 3 7 2 16 -1 19 -3 4 -6 -2 -5 -13z"/>
<path d="M52 623 l-2 -293 520 0 520 0 0 215 0 215 200 0 200 0 -2 78 -2 77
-3 -72 -4 -73 -709 0 -709 0 -4 73 c-1 39 -4 -60 -5 -220z m538 -73 l0 -210
-265 0 -265 0 0 210 0 210 265 0 265 0 0 -210z m490 0 l0 -210 -240 0 -240 0
0 210 0 210 240 0 240 0 0 -210z"/>
<path d="M86 701 c-4 -5 -2 -12 3 -15 5 -4 12 -2 15 3 4 5 2 12 -3 15 -5 4
-12 2 -15 -3z"/>
<path d="M150 701 c0 -5 5 -13 10 -16 6 -3 10 -2 10 4 0 5 -4 13 -10 16 -5 3
-10 2 -10 -4z"/>
<path d="M210 695 c0 -8 4 -15 10 -15 5 0 7 7 4 15 -4 8 -8 15 -10 15 -2 0 -4
-7 -4 -15z"/>
<path d="M247 703 c-10 -9 -9 -23 1 -23 5 0 9 7 9 15 0 17 -1 18 -10 8z"/>
<path d="M271 694 c0 -11 3 -14 6 -6 3 7 2 16 -1 19 -3 4 -6 -2 -5 -13z"/>
<path d="M296 698 c3 -5 10 -6 15 -3 13 9 11 12 -6 12 -8 0 -12 -4 -9 -9z"/>
<path d="M347 703 c-10 -9 -9 -23 1 -23 5 0 9 7 9 15 0 17 -1 18 -10 8z"/>
<path d="M370 695 c0 -8 4 -15 10 -15 5 0 7 7 4 15 -4 8 -8 15 -10 15 -2 0 -4
-7 -4 -15z"/>
<path d="M400 695 c0 -8 5 -15 10 -15 6 0 10 7 10 15 0 8 -4 15 -10 15 -5 0
-10 -7 -10 -15z"/>
<path d="M511 694 c0 -11 3 -14 6 -6 3 7 2 16 -1 19 -3 4 -6 -2 -5 -13z"/>
<path d="M531 694 c0 -11 3 -14 6 -6 3 7 2 16 -1 19 -3 4 -6 -2 -5 -13z"/>
<path d="M550 694 c0 -8 5 -12 10 -9 6 3 10 10 10 16 0 5 -4 9 -10 9 -5 0 -10
-7 -10 -16z"/>
<path d="M620 702 c0 -5 38 -8 85 -8 47 1 85 4 85 9 0 4 -38 7 -85 7 -47 0
-85 -4 -85 -8z"/>
<path d="M935 700 c3 -5 8 -10 11 -10 2 0 4 5 4 10 0 6 -5 10 -11 10 -5 0 -7
-4 -4 -10z"/>
<path d="M980 700 c0 -5 5 -10 10 -10 6 0 10 5 10 10 0 6 -4 10 -10 10 -5 0
-10 -4 -10 -10z"/>
<path d="M1040 700 c0 -5 5 -10 10 -10 6 0 10 5 10 10 0 6 -4 10 -10 10 -5 0
-10 -4 -10 -10z"/>
<path d="M775 650 c3 -5 8 -10 11 -10 2 0 4 5 4 10 0 6 -5 10 -11 10 -5 0 -7
-4 -4 -10z"/>
<path d="M915 650 c3 -5 8 -10 11 -10 2 0 4 5 4 10 0 6 -5 10 -11 10 -5 0 -7
-4 -4 -10z"/>
<path d="M970 650 c0 -5 5 -10 10 -10 6 0 10 5 10 10 0 6 -4 10 -10 10 -5 0
-10 -4 -10 -10z"/>
<path d="M770 600 c0 -5 5 -10 10 -10 6 0 10 5 10 10 0 6 -4 10 -10 10 -5 0
-10 -4 -10 -10z"/>
<path d="M830 600 c0 -5 5 -10 10 -10 6 0 10 5 10 10 0 6 -4 10 -10 10 -5 0
-10 -4 -10 -10z"/>
<path d="M940 600 c0 -5 5 -10 10 -10 6 0 10 5 10 10 0 6 -4 10 -10 10 -5 0
-10 -4 -10 -10z"/>
<path d="M770 560 c0 -5 5 -10 10 -10 6 0 10 5 10 10 0 6 -4 10 -10 10 -5 0
-10 -4 -10 -10z"/>
<path d="M820 560 c0 -5 5 -10 10 -10 6 0 10 5 10 10 0 6 -4 10 -10 10 -5 0
-10 -4 -10 -10z"/>
<path d="M875 560 c3 -5 8 -10 11 -10 2 0 4 5 4 10 0 6 -5 10 -11 10 -5 0 -7
-4 -4 -10z"/>
<path d="M1511 894 c0 -11 3 -14 6 -6 3 7 2 16 -1 19 -3 4 -6 -2 -5 -13z"/>
<path d="M81 844 c0 -11 3 -14 6 -6 3 7 2 16 -1 19 -3 4 -6 -2 -5 -13z"/>
<path d="M110 844 c0 -8 5 -12 10 -9 6 3 10 10 10 16 0 5 -4 9 -10 9 -5 0 -10
-7 -10 -16z"/>
<path d="M181 844 c0 -11 3 -14 6 -6 3 7 2 16 -1 19 -3 4 -6 -2 -5 -13z"/>
<path d="M240 844 c0 -8 5 -12 10 -9 6 4 8 11 5 16 -9 14 -15 11 -15 -7z"/>
<path d="M276 851 c-4 -7 -5 -15 -2 -18 9 -9 19 4 14 18 -4 11 -6 11 -12 0z"/>
<path d="M300 845 c0 -8 5 -15 10 -15 6 0 10 7 10 15 0 8 -4 15 -10 15 -5 0
-10 -7 -10 -15z"/>
<path d="M334 848 c4 -20 26 -21 26 -1 0 14 -2 15 -9 4 -6 -9 -10 -10 -14 -2
-4 8 -5 8 -3 -1z"/>
<path d="M1511 844 c0 -11 3 -14 6 -6 3 7 2 16 -1 19 -3 4 -6 -2 -5 -13z"/>
<path d="M1511 794 c0 -11 3 -14 6 -6 3 7 2 16 -1 19 -3 4 -6 -2 -5 -13z"/>
<path d="M1511 744 c0 -11 3 -14 6 -6 3 7 2 16 -1 19 -3 4 -6 -2 -5 -13z"/>
<path d="M1130 670 c0 -39 1 -40 35 -40 19 0 35 4 35 8 0 5 -13 7 -30 4 -28
-4 -30 -2 -30 26 0 27 4 31 33 35 31 4 31 4 -5 5 -38 2 -38 2 -38 -38z"/>
<path d="M1228 703 c-2 -5 -5 -24 -7 -43 -2 -19 -4 -36 -6 -38 -2 -2 -21 -4
-43 -5 -32 -1 -38 -4 -30 -14 7 -9 7 -13 -1 -13 -6 0 -11 -7 -11 -15 0 -9 6
-12 16 -8 10 3 14 13 11 25 -4 12 -1 18 6 15 7 -3 11 -10 10 -16 -2 -6 -4 -17
-5 -23 -2 -8 6 -12 19 -10 12 2 24 -2 28 -8 3 -6 11 -7 17 -4 7 4 8 2 4 -4 -4
-7 -3 -12 3 -12 6 0 8 -8 5 -17 -5 -15 -4 -16 5 -3 7 10 11 11 11 3 0 -7 -1
-14 -2 -15 -1 -2 5 -14 12 -28 12 -22 12 -24 -2 -12 -10 8 -19 9 -22 4 -6 -10
22 -27 38 -23 4 1 13 -3 20 -8 7 -6 15 -5 21 3 18 22 15 34 -12 41 -19 4 -23
9 -14 18 6 6 11 19 11 28 0 12 -7 16 -30 13 -28 -3 -30 -1 -30 29 0 24 -3 28
-10 17 -7 -12 -9 -11 -8 6 2 15 7 20 21 16 14 -3 17 -11 13 -28 -6 -21 -3 -24
20 -24 21 0 24 3 15 13 -6 8 -9 22 -7 33 5 22 -29 51 -39 34 -3 -6 -1 -10 6
-10 7 0 9 -3 6 -6 -4 -4 -14 -1 -23 7 -14 12 -14 14 0 25 21 15 69 6 62 -12
-3 -8 -2 -14 3 -14 4 0 8 -6 9 -12 0 -7 2 -30 3 -50 1 -21 7 -38 12 -38 5 0 7
14 3 33 -4 17 -9 50 -11 72 -4 37 -3 36 9 -10 10 -41 16 -50 34 -50 20 0 50
-20 41 -29 -11 -11 -44 -10 -41 2 1 6 -2 12 -8 12 -5 0 -7 -13 -4 -29 3 -16 1
-32 -5 -35 -5 -4 -8 -13 -5 -21 3 -7 0 -23 -6 -35 -11 -20 -10 -21 9 -15 13 4
21 2 21 -5 0 -6 -4 -8 -10 -5 -5 3 -10 2 -10 -4 0 -14 18 -23 22 -11 3 8 32
17 65 19 7 1 12 12 11 25 -1 14 -6 22 -10 20 -4 -3 -4 -12 -1 -21 6 -15 5 -16
-9 -3 -19 17 -5 55 15 43 8 -5 8 -2 -1 9 -9 11 -9 17 -2 20 6 2 8 11 5 21 -4
9 -11 14 -16 11 -5 -3 -9 4 -9 14 0 11 -6 25 -14 32 -8 6 -12 18 -9 26 3 10
-2 14 -18 14 -17 0 -20 -3 -10 -9 9 -6 10 -11 2 -15 -11 -7 -15 4 -12 39 2 17
0 17 -8 5 -7 -9 -11 -10 -11 -3 0 6 5 15 10 18 20 12 10 35 -16 35 -14 0 -23
4 -19 10 3 6 1 10 -5 10 -7 0 -9 -8 -5 -20 5 -14 2 -20 -9 -20 -9 0 -16 9 -16
20 0 21 -15 27 -25 10 -3 -5 -12 -10 -18 -10 -7 0 -6 4 3 10 9 6 10 10 3 10
-6 0 -13 -3 -15 -7z m29 -29 c-3 -3 -12 -4 -19 -1 -8 3 -5 6 6 6 11 1 17 -2
13 -5z m150 -178 c-2 -6 -11 -12 -20 -14 -11 -2 -14 2 -10 17 3 12 11 17 19
14 8 -3 13 -11 11 -17z m-9 -38 c-7 -19 -38 -22 -38 -4 0 10 9 16 21 16 12 0
19 -5 17 -12z m-78 -8 c0 -5 -2 -10 -4 -10 -3 0 -8 5 -11 10 -3 6 -1 10 4 10
6 0 11 -4 11 -10z"/>
<path d="M1408 703 c28 -4 32 -8 32 -35 0 -28 -2 -30 -30 -26 -16 3 -30 1 -30
-4 0 -4 16 -8 35 -8 34 0 35 1 35 40 0 40 0 40 -37 38 -37 -1 -37 -1 -5 -5z"/>
<path d="M1511 694 c0 -11 3 -14 6 -6 3 7 2 16 -1 19 -3 4 -6 -2 -5 -13z"/>
<path d="M1150 670 c0 -11 7 -20 15 -20 8 0 15 9 15 20 0 11 -7 20 -15 20 -8
0 -15 -9 -15 -20z"/>
<path d="M1400 670 c0 -11 7 -20 15 -20 8 0 15 9 15 20 0 11 -7 20 -15 20 -8
0 -15 -9 -15 -20z"/>
<path d="M1511 644 c0 -11 3 -14 6 -6 3 7 2 16 -1 19 -3 4 -6 -2 -5 -13z"/>
<path d="M1418 594 c6 -30 35 -33 30 -2 -2 11 -10 22 -19 23 -12 2 -15 -3 -11
-21z"/>
<path d="M1511 594 c0 -11 3 -14 6 -6 3 7 2 16 -1 19 -3 4 -6 -2 -5 -13z"/>
<path d="M1151 552 c0 -7 -5 -11 -9 -8 -5 3 -9 -1 -9 -9 0 -8 4 -15 9 -15 4 0
8 -5 8 -11 0 -5 -4 -7 -10 -4 -5 3 -10 1 -10 -5 0 -7 6 -10 13 -7 6 2 11 11
11 20 -1 9 2 14 7 11 5 -3 9 -12 9 -20 0 -8 11 -19 25 -26 13 -6 25 -17 27
-24 2 -8 8 -4 14 10 9 20 9 23 -2 19 -10 -4 -14 4 -14 25 0 17 -5 34 -12 38
-7 4 -8 3 -4 -4 5 -8 -1 -12 -18 -12 -15 0 -26 7 -29 18 -3 9 -5 11 -6 4z"/>
<path d="M1511 544 c0 -11 3 -14 6 -6 3 7 2 16 -1 19 -3 4 -6 -2 -5 -13z"/>
<path d="M1341 513 c-1 -7 -6 -12 -12 -10 -6 1 -14 -4 -16 -10 -5 -15 6 -17
26 -4 7 5 11 15 8 22 -4 10 -6 10 -6 2z"/>
<path d="M1511 494 c0 -11 3 -14 6 -6 3 7 2 16 -1 19 -3 4 -6 -2 -5 -13z"/>
<path d="M1145 480 c-3 -5 1 -10 9 -10 9 0 16 5 16 10 0 6 -4 10 -9 10 -6 0
-13 -4 -16 -10z"/>
<path d="M1130 420 c0 -40 0 -40 38 -38 36 1 36 1 5 5 -29 4 -33 8 -33 35 0
28 2 30 30 26 17 -3 30 -1 30 4 0 4 -16 8 -35 8 -34 0 -35 -1 -35 -40z"/>
<path d="M1511 444 c0 -11 3 -14 6 -6 3 7 2 16 -1 19 -3 4 -6 -2 -5 -13z"/>
<path d="M1150 420 c0 -11 7 -20 15 -20 8 0 15 9 15 20 0 11 -7 20 -15 20 -8
0 -15 -9 -15 -20z"/>
<path d="M1220 414 c0 -8 5 -12 10 -9 6 4 8 11 5 16 -9 14 -15 11 -15 -7z"/>
<path d="M1236 394 c-11 -8 -16 -14 -10 -14 13 0 39 18 34 24 -3 2 -14 -2 -24
-10z"/>
<path d="M1511 394 c0 -11 3 -14 6 -6 3 7 2 16 -1 19 -3 4 -6 -2 -5 -13z"/>
<path d="M1275 390 c3 -5 19 -10 36 -10 16 0 29 5 29 10 0 6 -16 10 -36 10
-21 0 -33 -4 -29 -10z"/>
<path d="M1420 390 c-8 -5 -10 -10 -5 -10 6 0 17 5 25 10 8 5 11 10 5 10 -5 0
-17 -5 -25 -10z"/>
<path d="M1511 344 c0 -11 3 -14 6 -6 3 7 2 16 -1 19 -3 4 -6 -2 -5 -13z"/>
<path d="M1511 294 c0 -11 3 -14 6 -6 3 7 2 16 -1 19 -3 4 -6 -2 -5 -13z"/>
<path d="M1511 244 c0 -11 3 -14 6 -6 3 7 2 16 -1 19 -3 4 -6 -2 -5 -13z"/>
<path d="M76 209 c2 -4 -2 -9 -8 -12 -7 -3 3 -4 22 -2 47 3 50 4 50 13 0 4
-15 8 -34 8 -19 0 -33 -3 -30 -7z"/>
<path d="M150 203 c0 -7 4 -13 9 -13 5 0 11 6 14 13 3 8 -1 14 -9 14 -8 0 -14
-6 -14 -14z"/>
<path d="M191 204 c0 -11 3 -14 6 -6 3 7 2 16 -1 19 -3 4 -6 -2 -5 -13z"/>
<path d="M210 205 c0 -6 11 -12 23 -13 14 -1 24 4 24 11 0 7 -11 13 -24 13
-12 0 -23 -5 -23 -11z"/>
<path d="M290 203 c0 -7 4 -13 9 -13 5 0 11 6 14 13 3 8 -1 14 -9 14 -8 0 -14
-6 -14 -14z"/>
<path d="M330 206 c0 -7 11 -13 25 -14 18 -1 25 3 25 16 0 14 -2 15 -10 2 -5
-8 -10 -10 -10 -4 0 6 -7 11 -15 11 -8 0 -15 -5 -15 -11z"/>
<path d="M390 205 c0 -9 23 -12 75 -12 63 -1 75 2 75 16 0 14 -2 14 -10 1 -5
-8 -10 -10 -10 -4 0 13 -82 13 -92 -1 -5 -7 -8 -6 -8 1 0 6 -7 11 -15 11 -8 0
-15 -6 -15 -12z"/>
<path d="M1511 194 c0 -11 3 -14 6 -6 3 7 2 16 -1 19 -3 4 -6 -2 -5 -13z"/>
<path d="M1511 144 c0 -11 3 -14 6 -6 3 7 2 16 -1 19 -3 4 -6 -2 -5 -13z"/>
<path d="M1511 94 c0 -11 3 -14 6 -6 3 7 2 16 -1 19 -3 4 -6 -2 -5 -13z"/>
<path d="M1710 825 c0 -19 4 -35 8 -35 5 0 9 16 10 35 1 19 -3 35 -8 35 -6 0
-10 -16 -10 -35z"/>
<path d="M1710 770 c0 -5 5 -10 10 -10 6 0 10 5 10 10 0 6 -4 10 -10 10 -5 0
-10 -4 -10 -10z"/>
<path d="M1710 740 c0 -5 5 -10 10 -10 6 0 10 5 10 10 0 6 -4 10 -10 10 -5 0
-10 -4 -10 -10z"/>
<path d="M1710 700 c0 -11 5 -20 10 -20 6 0 10 9 10 20 0 11 -4 20 -10 20 -5
0 -10 -9 -10 -20z"/>
<path d="M1710 411 c0 -17 5 -31 10 -31 6 0 10 11 10 24 0 14 -4 28 -10 31 -6
4 -10 -7 -10 -24z"/>
<path d="M1710 356 c0 -9 5 -16 10 -16 6 0 10 4 10 9 0 6 -4 13 -10 16 -5 3
-10 -1 -10 -9z"/>
<path d="M1710 310 c0 -11 5 -20 10 -20 6 0 10 9 10 20 0 11 -4 20 -10 20 -5
0 -10 -9 -10 -20z"/>
<path d="M1710 270 c0 -5 5 -10 10 -10 6 0 10 5 10 10 0 6 -4 10 -10 10 -5 0
-10 -4 -10 -10z"/>
</g>
</svg>
