<?xml version="1.0" standalone="no"?>
<!DOCTYPE svg PUBLIC "-//W3C//DTD SVG 20010904//EN"
 "http://www.w3.org/TR/2001/REC-SVG-20010904/DTD/svg10.dtd">
<svg version="1.0" xmlns="http://www.w3.org/2000/svg"
 width="266.000000pt" height="552.000000pt" viewBox="0 0 266.000000 552.000000"
 preserveAspectRatio="xMidYMid meet">

<g transform="translate(0.000000,552.000000) scale(0.100000,-0.100000)"
fill="#000000" stroke="none">
<path d="M1785 5376 c-72 -25 -99 -48 -136 -118 -10 -21 -19 -45 -19 -55 0
-16 -12 -18 -122 -21 -211 -4 -411 -60 -557 -156 -75 -49 -224 -189 -278 -261
-66 -88 -71 -106 -93 -396 -12 -167 -44 -339 -71 -389 -11 -19 -35 -57 -54
-84 -44 -61 -69 -142 -70 -226 0 -87 36 -162 109 -225 62 -52 231 -136 331
-163 61 -16 70 -22 73 -43 2 -20 -4 -28 -33 -42 -20 -10 -33 -22 -30 -28 4 -6
0 -9 -11 -7 -49 9 -42 -228 9 -305 13 -21 9 -31 -55 -142 -37 -66 -76 -131
-86 -145 -10 -14 -76 -142 -146 -285 -70 -143 -131 -262 -136 -265 -14 -9
-152 -291 -193 -395 -48 -120 -103 -312 -117 -410 -6 -44 -9 -129 -7 -190 4
-95 9 -124 42 -216 l37 -105 -30 -69 -30 -68 38 -61 c21 -34 48 -76 59 -94
l21 -33 -20 -37 c-67 -123 -104 -220 -108 -279 l-4 -63 1091 0 1090 0 -5 33
c-10 54 -82 231 -109 267 -25 33 -25 34 -6 54 25 27 67 121 76 169 7 36 4 42
-33 80 -56 59 -81 117 -50 117 15 0 111 72 166 124 51 48 67 76 83 142 30 134
-3 286 -140 639 -21 55 -53 138 -70 185 -62 167 -114 296 -141 350 -38 76
-183 421 -209 498 -25 75 -26 95 -4 113 45 38 66 154 50 278 -8 65 -31 93 -94
117 -34 13 -43 22 -41 37 2 17 22 26 103 49 55 16 134 44 175 63 74 34 75 34
93 14 37 -39 99 -49 181 -28 38 9 43 14 53 52 7 23 14 58 18 78 3 20 21 57 41
81 41 50 93 162 94 198 0 14 -10 45 -22 70 -26 55 -25 116 3 280 13 79 19 156
18 245 -1 115 -5 141 -31 225 -47 147 -108 259 -183 337 -36 37 -65 71 -65 77
0 5 8 18 18 29 24 27 23 168 -2 217 -53 101 -146 170 -262 195 -93 20 -117 19
-199 -9z m200 -26 c20 -5 3 -7 -55 -7 -90 0 -146 -13 -195 -46 l-30 -21 20 23
c43 50 169 74 260 51z m160 -81 c57 -52 59 -73 3 -25 -23 20 -45 36 -49 36 -4
0 -9 7 -13 15 -10 26 13 16 59 -26z m-805 -133 c0 -2 -46 -16 -102 -31 -57
-15 -148 -50 -203 -76 -109 -53 -93 -31 20 26 90 46 285 101 285 81z m517 -37
c15 -6 63 -24 106 -40 43 -16 109 -49 148 -74 82 -55 104 -81 27 -32 -56 36
-187 100 -227 112 -37 11 -107 45 -94 45 6 0 24 -5 40 -11z m-757 -95 c0 -13
-83 -126 -96 -131 -42 -16 -26 31 31 90 40 42 65 58 65 41z m130 0 c0 -8 -84
-113 -91 -113 -4 -1 -10 6 -13 15 -4 11 8 31 38 60 38 39 66 55 66 38z m570
-175 c0 -21 -3 -39 -7 -39 -11 0 -42 103 -35 114 11 18 42 -37 42 -75z m119
55 c12 -15 21 -33 21 -40 0 -27 -20 -14 -40 26 -23 45 -12 53 19 14z m189
-169 c-3 -3 -9 2 -12 12 -6 14 -5 15 5 6 7 -7 10 -15 7 -18z m-809 -20 c43
-14 86 -31 96 -39 15 -11 32 -9 108 16 50 15 92 28 93 28 1 0 0 -10 -3 -21 -6
-21 -4 -22 65 -15 73 7 85 3 56 -19 -14 -10 -1 -12 66 -13 122 -1 120 1 120
-194 0 -87 -2 -158 -5 -158 -3 0 -29 11 -58 25 -32 16 -70 26 -99 26 -81 1
-211 -52 -186 -76 2 -2 31 7 64 20 82 34 143 33 222 -5 l62 -29 0 -123 c0 -68
-3 -146 -6 -175 l-7 -51 -30 10 c-71 25 -353 -16 -386 -56 -21 -25 5 -26 65
-4 48 17 86 22 208 25 l149 3 -8 -147 c-9 -174 -9 -192 -1 -201 13 -12 104 91
135 153 17 36 48 115 68 177 52 165 53 168 74 168 25 0 39 -53 46 -172 7 -118
11 -120 112 -53 37 25 74 45 83 45 23 0 56 -45 69 -94 9 -33 8 -49 -5 -86 -23
-63 -97 -170 -118 -170 -23 0 -32 -17 -12 -24 13 -5 14 -15 9 -49 -4 -23 -13
-52 -21 -64 -28 -44 -170 -38 -195 8 -8 15 -17 19 -32 15 -12 -4 -30 -9 -39
-11 -9 -2 -26 -8 -37 -14 -71 -39 -217 -77 -405 -106 -41 -7 -392 -7 -436 -1
-98 15 -382 83 -445 107 -80 32 -186 103 -247 166 -45 47 -58 69 -67 111 -18
86 6 172 73 257 35 44 50 73 65 125 15 52 49 246 56 319 6 72 17 88 141 217
64 66 137 122 176 137 9 3 61 9 115 13 53 4 109 10 123 15 39 12 46 11 129
-16z m815 -106 c15 -81 22 -178 11 -168 -2 3 -7 32 -10 65 -3 32 -10 83 -15
113 -6 30 -10 61 -10 70 0 31 9 2 24 -80z m-47 49 c-3 -7 -5 -2 -5 12 0 14 2
19 5 13 2 -7 2 -19 0 -25z m60 -10 c-3 -8 -6 -5 -6 6 -1 11 2 17 5 13 3 -3 4
-12 1 -19z m-100 -30 c-3 -7 -5 -2 -5 12 0 14 2 19 5 13 2 -7 2 -19 0 -25z
m25 -136 c-9 -42 -10 -37 -10 53 0 95 1 97 10 47 6 -35 6 -70 0 -100z m92 95
c5 -27 4 -37 -3 -32 -6 3 -11 22 -11 42 0 44 5 41 14 -10z m-44 -180 c-1 -23
-7 -71 -15 -107 l-14 -65 7 65 c3 36 7 86 7 112 0 25 3 44 7 41 5 -2 8 -23 8
-46z m-63 11 c-3 -8 -6 -5 -6 6 -1 11 2 17 5 13 3 -3 4 -12 1 -19z m103 -124
c-10 -102 -48 -299 -56 -291 -2 2 4 46 15 98 11 52 22 128 26 169 8 94 15 143
21 138 2 -3 -1 -54 -6 -114z m-23 34 c-3 -7 -5 -2 -5 12 0 14 2 19 5 13 2 -7
2 -19 0 -25z m-57 -165 c-11 -17 -11 -17 -6 0 3 10 7 28 7 40 2 22 2 22 6 0 2
-12 -1 -30 -7 -40z m33 5 c-10 -56 -24 -77 -17 -28 4 25 8 48 11 53 9 16 12 5
6 -25z m-48 -198 c-9 -27 -21 -52 -26 -56 -5 -3 -5 4 1 18 5 13 15 43 21 68 6
25 14 39 16 33 3 -7 -3 -35 -12 -63z"/>
<path d="M878 4426 c-82 -16 -55 -29 46 -21 l93 7 60 -56 c58 -54 83 -67 83
-46 0 18 -80 98 -115 114 -35 17 -89 18 -167 2z"/>
<path d="M702 3972 c-70 -15 -35 -27 88 -32 114 -5 129 -8 172 -33 28 -16 49
-23 53 -17 9 15 -2 27 -53 57 -40 24 -58 28 -137 29 -49 2 -105 -1 -123 -4z"/>
<path d="M2183 3538 c-11 -5 -29 -25 -39 -43 -15 -28 -16 -37 -4 -64 40 -96
160 -75 160 28 0 71 -56 109 -117 79z"/>
</g>
</svg>
