<?xml version="1.0" standalone="no"?>
<!DOCTYPE svg PUBLIC "-//W3C//DTD SVG 20010904//EN"
 "http://www.w3.org/TR/2001/REC-SVG-20010904/DTD/svg10.dtd">
<svg version="1.0" xmlns="http://www.w3.org/2000/svg"
 width="728.000000pt" height="1049.000000pt" viewBox="0 0 728.000000 1049.000000"
 preserveAspectRatio="xMidYMid meet">

<g transform="translate(0.000000,1049.000000) scale(0.100000,-0.100000)"
fill="#000000" stroke="none">
<path d="M2760 9584 c-180 -22 -269 -76 -462 -284 -142 -152 -211 -248 -249
-345 -48 -122 -97 -329 -111 -470 l-12 -127 29 -86 c72 -215 200 -478 262
-540 21 -21 30 -23 69 -17 44 6 45 6 120 -64 72 -65 82 -71 162 -92 46 -13 92
-31 102 -41 9 -10 56 -96 105 -191 48 -95 91 -176 95 -181 16 -17 66 6 119 55
l55 49 26 -25 c20 -19 26 -33 22 -52 l-5 -26 82 5 c72 4 81 3 81 -13 0 -22 47
-79 66 -79 18 0 18 0 -6 -90 -11 -41 -22 -115 -26 -165 -3 -56 -19 -136 -40
-210 -73 -259 -168 -714 -204 -975 -15 -108 -32 -182 -54 -245 -53 -145 -86
-268 -161 -600 -31 -138 -77 -282 -164 -513 -34 -90 -86 -245 -117 -345 -30
-100 -60 -185 -67 -189 -7 -4 -27 -8 -44 -8 -37 0 -35 4 -37 -100 -1 -73 -3
-77 -51 -149 -120 -177 -110 -145 -82 -281 6 -30 25 -91 44 -134 l32 -79 -48
-81 c-71 -118 -122 -224 -111 -231 5 -3 14 3 20 12 10 16 10 16 5 -3 -5 -18 3
-25 47 -44 29 -13 73 -29 97 -36 43 -14 43 -14 102 28 75 52 85 46 79 -55 -3
-39 -4 -205 -4 -367 2 -267 5 -311 29 -465 15 -93 33 -226 40 -295 29 -267 50
-439 80 -660 16 -117 24 -193 45 -400 12 -111 45 -326 56 -362 5 -16 19 -18
110 -18 l104 0 0 170 c0 112 4 170 10 170 7 0 11 -45 10 -127 -2 -193 -1 -213
9 -213 4 0 9 50 10 112 1 61 4 114 6 117 3 2 5 -48 5 -112 0 -126 17 -163 23
-49 l3 67 2 -67 2 -68 390 0 389 0 4 58 3 57 2 -57 2 -58 79 0 80 0 4 33 4 32
1 -32 c2 -32 3 -33 45 -33 l44 0 6 443 c4 243 7 548 7 676 0 129 3 231 8 225
4 -5 5 -308 2 -674 -3 -366 -4 -667 -3 -669 15 -21 18 97 21 657 2 356 7 681
12 722 5 43 6 -234 3 -653 -3 -462 -2 -727 4 -727 9 0 23 788 23 1309 0 118 3
212 6 208 8 -8 6 -1023 -2 -1304 -5 -137 -3 -213 3 -213 13 0 23 382 24 970 1
261 5 513 9 560 4 47 5 -279 2 -724 -4 -608 -2 -807 7 -802 8 5 11 92 11 309
0 507 13 1368 20 1360 4 -4 3 -381 -2 -837 -5 -456 -6 -831 -3 -834 3 -3 7 -3
10 0 3 3 8 338 11 744 4 406 10 784 14 839 4 55 5 -279 2 -742 -4 -637 -2
-843 6 -843 9 0 12 114 12 448 0 510 10 1205 18 1212 3 3 2 -370 -2 -828 -4
-550 -3 -832 4 -832 6 0 10 104 11 288 1 158 2 296 3 307 1 11 3 251 4 533 1
281 6 512 10 512 5 0 7 -370 6 -822 -2 -477 0 -812 5 -798 5 14 10 300 11 635
1 336 6 691 10 790 5 101 6 -176 3 -632 -3 -565 -1 -813 6 -813 8 0 12 108 13
333 1 182 3 346 4 362 1 17 2 232 3 478 0 260 5 446 10 443 8 -5 7 -447 -3
-1313 -2 -217 0 -303 8 -303 13 0 14 36 16 865 1 330 6 620 10 645 5 25 6
-305 3 -733 -4 -578 -3 -777 6 -777 8 0 11 105 11 393 0 418 9 869 18 877 2 3
2 -282 -1 -632 -3 -385 -2 -638 4 -638 5 0 10 71 10 163 1 89 5 272 9 407 6
240 6 236 8 -162 1 -248 6 -408 11 -408 6 0 12 21 14 48 l3 47 2 -48 c2 -46 3
-48 30 -45 l27 3 5 180 6 180 2 -182 c1 -114 6 -183 12 -183 6 0 10 56 10 147
0 103 3 144 11 136 6 -6 9 -60 7 -147 -2 -86 1 -136 7 -136 6 0 10 31 10 73 0
39 3 92 6 117 4 29 7 3 7 -72 2 -141 20 -159 25 -25 l3 92 2 -92 c2 -102 22
-132 22 -34 0 33 4 63 10 66 6 4 10 -18 10 -59 0 -71 16 -91 23 -28 l4 37 1
-37 c2 -37 22 -55 22 -20 1 16 1 16 14 0 10 -14 28 -18 70 -18 l56 0 0 236 c0
173 3 233 11 228 9 -5 10 -70 7 -235 -3 -130 -2 -229 3 -229 5 0 10 37 10 83
1 45 5 150 9 232 l6 150 2 -232 c1 -148 6 -233 12 -233 6 0 10 80 10 221 0
159 3 218 11 213 8 -5 9 -67 4 -220 -4 -149 -3 -214 4 -214 7 0 12 57 13 168
2 243 2 250 11 258 4 4 7 -90 7 -209 0 -138 4 -217 10 -217 6 0 10 77 10 212
0 116 3 208 7 205 4 -4 6 -99 4 -212 l-2 -205 30 0 c28 0 30 3 36 48 4 26 11
63 16 82 5 19 9 78 9 131 0 71 5 111 21 155 16 47 19 71 13 119 -3 33 -7 121
-8 195 -1 133 -1 135 22 138 21 3 22 8 22 77 0 41 -5 108 -11 150 -10 68 -10
77 6 89 24 18 30 118 16 273 -6 71 -14 145 -17 165 l-6 37 75 -4 c51 -3 95
-12 137 -30 34 -14 65 -23 69 -20 10 11 6 348 -6 530 -12 161 -40 354 -65 438
-10 32 -9 39 7 51 15 11 17 21 11 62 -7 55 -8 53 84 101 25 13 52 32 60 42 8
9 23 20 32 23 33 13 49 64 52 168 l2 100 58 35 c32 19 62 35 66 35 12 0 170
157 212 210 19 25 53 81 75 125 105 210 144 457 147 920 2 226 5 277 19 314
35 90 18 408 -32 595 -12 44 -21 88 -21 98 0 11 -4 16 -10 13 -6 -3 -10 4 -10
16 0 12 3 19 7 15 8 -8 47 167 69 319 13 80 17 179 17 365 l0 255 -36 136
c-46 171 -101 327 -161 449 -59 122 -100 198 -114 212 -7 7 -12 19 -12 28 0
18 -82 158 -115 199 -114 137 -171 192 -277 263 -89 60 -389 247 -552 344 -90
54 -105 67 -166 149 -109 147 -100 162 -101 -171 -1 -159 -5 -372 -8 -474 -7
-164 -7 -145 -8 165 -1 193 2 409 6 480 l8 130 -29 28 c-16 15 -39 27 -53 27
-14 0 -25 3 -25 8 0 4 -12 21 -26 37 -22 27 -24 27 -13 5 6 -14 27 -51 46 -83
29 -48 34 -64 29 -93 -16 -82 -115 -275 -217 -423 -33 -47 -86 -127 -118 -176
-57 -88 -60 -91 -95 -90 -34 2 -38 -2 -74 -64 -44 -77 -67 -126 -76 -161 -6
-25 -6 -25 5 -2 12 21 29 30 29 14 0 -4 -14 -34 -30 -66 -19 -36 -28 -66 -24
-78 7 -23 -14 -78 -30 -78 -26 1 -51 36 -53 75 -7 137 -13 116 114 371 114
227 228 434 305 554 49 77 92 165 114 232 17 56 17 58 -1 78 -11 12 -27 19
-37 17 -10 -3 -21 -1 -24 5 -12 20 12 26 59 13 26 -6 47 -9 47 -4 0 4 -23 13
-50 20 -39 10 -49 16 -44 28 4 9 9 26 11 38 4 18 2 21 -16 16 -13 -3 -21 -1
-21 7 0 8 -12 10 -41 5 -24 -4 -65 -2 -100 6 l-59 13 0 69 c0 64 -3 73 -36
118 -46 63 -171 178 -211 195 -18 8 -46 14 -62 14 -37 0 -74 45 -95 114 -17
56 -132 239 -178 282 -49 46 -119 91 -206 132 l-77 37 -320 1 c-176 1 -336 0
-355 -2z m1695 -1033 c-14 -14 -93 -26 -80 -13 6 6 24 12 40 15 17 2 34 5 40
6 6 0 6 -2 0 -8z m309 -678 c-4 -303 -10 -492 -17 -498 -6 -7 -7 51 -3 174 3
101 6 325 6 498 0 207 3 313 10 313 7 0 8 -157 4 -487z m-414 427 c0 -5 -4
-10 -9 -10 -6 0 -13 5 -16 10 -3 6 1 10 9 10 9 0 16 -4 16 -10z m481 -458 c-2
-277 -6 -431 -13 -437 -7 -7 -8 69 -4 245 3 140 6 340 6 444 0 104 3 186 7
182 4 -4 6 -199 4 -434z m-366 404 c9 -13 12 -31 9 -41 -5 -13 -10 -8 -20 22
-16 44 -16 43 -9 43 2 0 11 -11 20 -24z m404 -208 c-1 -106 -5 -256 -9 -333
-6 -111 -7 -71 -7 193 0 184 3 332 8 332 5 0 8 -87 8 -192z m-849 152 c0 -5
-7 -28 -16 -50 -17 -42 -55 -70 -95 -70 -21 0 -22 -1 -4 -20 34 -37 100 -20
110 29 8 44 26 40 44 -9 9 -28 9 -29 -9 -20 -18 9 -17 7 3 -23 12 -19 25 -30
28 -25 8 12 19 -27 19 -66 0 -32 14 -26 24 9 3 11 4 0 3 -24 l-3 -43 23 28
c13 17 23 23 23 15 0 -11 4 -9 15 5 13 18 14 18 15 1 0 -10 -7 -31 -15 -47
-21 -40 -6 -38 35 5 30 31 33 39 33 95 -1 50 2 60 16 60 16 0 71 54 71 70 0 4
-19 6 -42 4 -24 -2 -36 -1 -28 2 8 4 25 16 37 27 l22 20 36 -27 c19 -15 40
-24 45 -21 24 15 -2 -37 -75 -150 -29 -44 -73 -120 -99 -170 -26 -49 -55 -97
-65 -105 -18 -16 -81 -120 -126 -209 -16 -32 -30 -50 -36 -44 -24 24 -49 169
-49 289 0 68 -4 125 -9 128 -10 7 -17 -25 -31 -154 -12 -110 -21 -141 -65
-230 -18 -36 -45 -96 -59 -135 -48 -123 -58 -143 -87 -171 -28 -27 -29 -27
-49 -9 -11 10 -20 13 -20 8 0 -6 7 -16 15 -23 9 -7 13 -15 10 -18 -2 -3 -27
16 -54 41 -28 26 -55 47 -61 47 -5 0 -10 6 -10 13 -1 12 -63 57 -80 57 -4 0
-10 6 -13 14 -5 13 -124 74 -177 91 -44 14 -96 52 -111 82 -40 79 -142 253
-148 253 -6 0 -31 43 -31 54 0 2 21 9 48 16 62 16 221 68 247 80 11 6 61 23
110 38 l90 28 60 -18 c33 -9 79 -20 103 -24 32 -5 42 -11 42 -25 0 -14 7 -19
28 -19 19 0 23 -3 13 -9 -20 -13 5 -24 26 -12 10 6 12 11 6 11 -7 0 -13 8 -13
18 0 10 6 24 13 31 10 10 9 11 -5 6 -22 -9 -24 8 -3 25 8 7 15 23 15 36 0 12
5 26 10 29 6 3 10 23 10 43 0 20 4 42 8 47 11 16 82 46 92 40 14 -9 48 12 54
33 4 10 21 26 39 35 38 19 47 20 47 7z m870 -428 c-7 -12 -9 -1 -5 43 2 33 5
134 7 225 l3 165 2 -208 c2 -129 0 -215 -7 -225z m-761 387 c-19 -12 -29 -11
-29 2 0 5 5 7 10 4 6 -3 10 -1 10 5 0 6 5 8 11 4 8 -4 7 -9 -2 -15z m600 -266
c-1 -153 -5 -334 -9 -403 -5 -94 -7 -46 -7 195 0 304 5 485 14 485 2 0 3 -125
2 -277z m210 154 c-2 -162 -16 -182 -18 -24 -1 90 2 136 9 132 6 -4 9 -50 9
-108z m-855 87 c9 -8 16 -22 16 -30 0 -12 -4 -12 -25 3 -24 18 -34 43 -16 43
5 0 17 -7 25 -16z m607 -157 c-8 -8 -11 5 -11 44 0 72 14 86 18 18 2 -28 -2
-57 -7 -62z m319 39 c0 -41 -4 -78 -10 -81 -6 -4 -10 23 -10 74 0 47 4 81 10
81 6 0 10 -31 10 -74z m30 -31 c0 -54 -4 -85 -11 -85 -6 0 -10 25 -8 68 4 127
19 140 19 17z m31 -27 c-3 -114 -11 -112 -11 2 0 51 3 90 6 87 4 -4 6 -44 5
-89z m-414 -15 c-2 -21 -4 -6 -4 32 0 39 2 55 4 38 2 -18 2 -50 0 -70z m453
-3 c0 -53 -4 -90 -10 -90 -6 0 -10 37 -10 90 0 53 4 90 10 90 6 0 10 -37 10
-90z m27 -72 c-2 -29 -3 -8 -3 47 0 55 1 79 3 53 2 -26 2 -71 0 -100z m-508
70 c-1 -74 -17 -92 -18 -20 -1 35 3 62 9 62 6 0 10 -19 9 -42z m550 -48 c-1
-49 -6 -90 -10 -90 -5 0 -9 41 -9 90 0 56 4 90 11 90 6 0 9 -33 8 -90z m31
-26 c0 -63 -3 -93 -10 -89 -7 4 -9 31 -6 68 3 34 5 74 5 90 1 15 3 27 6 27 3
0 5 -43 5 -96z m-520 26 l-7 -45 -2 55 c0 32 3 50 8 45 5 -6 5 -30 1 -55z
m554 -42 c-4 -51 -8 -95 -10 -97 -2 -2 -4 39 -4 92 0 60 4 97 10 97 7 0 8 -31
4 -92z m-280 -540 c-4 -343 -10 -630 -15 -638 -8 -14 -1 1222 7 1248 2 6 6 12
9 12 3 0 2 -280 -1 -622z m-377 535 c-2 -16 -4 -3 -4 27 0 30 2 43 4 28 2 -16
2 -40 0 -55z m693 -18 c0 -57 -4 -95 -10 -95 -6 0 -10 38 -10 95 0 57 4 95 10
95 6 0 10 -38 10 -95z m-289 -805 l-8 -285 -1 395 c-1 217 1 481 6 585 l7 190
2 -300 c2 -165 -1 -428 -6 -585z m320 778 c-3 -127 -11 -125 -11 2 0 57 3 100
6 97 4 -4 6 -48 5 -99z m39 -18 c0 -60 -4 -100 -10 -100 -6 0 -10 40 -10 100
0 60 4 100 10 100 6 0 10 -40 10 -100z m-791 63 c0 -16 -4 -37 -9 -48 -6 -15
-9 -8 -9 28 -1 26 4 47 9 47 6 0 10 -12 9 -27z m473 -480 c-3 -327 -8 -512
-14 -518 -7 -7 -9 63 -4 219 3 126 6 359 6 518 0 158 4 288 8 288 5 0 7 -228
4 -507z m348 392 c0 -58 -4 -105 -9 -105 -5 0 -8 12 -6 28 2 15 4 62 4 105 1
42 3 77 6 77 3 0 5 -47 5 -105z m-318 -590 l-9 -260 -1 390 c-1 215 1 428 6
475 11 131 14 -287 4 -605z m354 562 c-4 -56 -9 -103 -11 -106 -3 -2 -5 46 -5
108 0 80 3 110 11 105 8 -4 9 -38 5 -107z m-899 36 c-2 -16 -4 -5 -4 22 0 28
2 40 4 28 2 -13 2 -35 0 -50z m139 40 c-10 -10 -19 5 -10 18 6 11 8 11 12 0 2
-7 1 -15 -2 -18z m31 -155 c-2 -35 -3 -7 -3 62 0 69 1 97 3 63 2 -35 2 -91 0
-125z m415 -260 c-3 -291 -7 -418 -14 -418 -8 0 -9 58 -5 197 4 108 7 300 7
427 0 126 3 226 8 221 4 -6 6 -198 4 -427z m348 327 c0 -63 -4 -105 -10 -105
-6 0 -10 36 -10 89 0 81 5 121 16 121 2 0 4 -47 4 -105z m-524 -527 c-3 -342
-9 -624 -12 -627 -5 -6 -3 734 4 1047 2 111 7 202 10 202 3 0 2 -280 -2 -622z
m555 500 c-3 -140 -11 -138 -11 2 0 62 3 111 6 107 4 -3 6 -52 5 -109z m-342
-100 c-1 -112 -5 -286 -9 -388 -6 -157 -7 -127 -8 203 0 229 3 387 9 387 5 0
8 -85 8 -202z m381 77 c0 -70 -4 -115 -10 -115 -6 0 -10 45 -10 115 0 70 4
115 10 115 6 0 10 -45 10 -115z m-1039 69 c-9 -28 -9 -29 -10 -3 -1 14 2 29 6
32 11 12 13 2 4 -29z m689 -325 c0 -194 -3 -355 -5 -358 -3 -2 -7 -2 -10 1 -3
3 -3 166 1 362 4 196 9 354 11 352 2 -2 4 -163 3 -357z m-519 298 c-8 -8 -11
-5 -11 9 0 27 14 41 18 19 2 -9 -1 -22 -7 -28z m896 -129 c-2 -35 -3 -9 -3 57
0 66 1 94 3 63 2 -32 2 -86 0 -120z m-338 0 c-1 -90 -5 -237 -9 -328 -6 -145
-7 -126 -8 163 -1 212 1 327 8 327 6 0 9 -60 9 -162z m380 49 c0 -56 -4 -111
-9 -122 -5 -13 -9 27 -9 108 -1 83 3 126 9 122 6 -4 10 -50 9 -108z m-360
-491 c-9 -8 -10 39 -5 188 3 110 7 245 8 300 2 56 4 -29 5 -188 3 -208 0 -293
-8 -300z m-779 542 c0 -21 -3 -29 -10 -22 -5 5 -7 19 -4 32 9 31 14 27 14 -10z
m1170 -99 c0 -80 -4 -128 -10 -124 -7 4 -7 129 0 248 0 4 2 7 5 7 3 0 5 -59 5
-131z m-341 -1 c-1 -62 -5 -180 -9 -263 -6 -142 -7 -136 -8 113 -1 169 2 262
8 262 6 0 10 -43 9 -112z m371 -38 l-7 -135 -1 145 c-1 79 2 140 6 135 5 -6 6
-71 2 -145z m-1033 98 c-3 -7 -5 -2 -5 12 0 14 2 19 5 13 2 -7 2 -19 0 -25z
m693 -198 c0 -151 -4 -230 -10 -230 -7 0 -10 72 -9 208 1 189 4 252 15 252 2
0 4 -103 4 -230z m380 85 c0 -90 -4 -145 -10 -145 -6 0 -10 55 -10 145 0 90 4
145 10 145 6 0 10 -55 10 -145z m-1271 118 c0 -5 -4 -17 -9 -28 -8 -18 -9 -17
-9 8 -1 15 4 27 9 27 6 0 10 -3 9 -7z m233 -25 c-7 -7 -10 -5 -7 8 5 29 6 30
12 16 3 -8 1 -18 -5 -24z m685 -285 c-1 -60 -3 -11 -3 107 0 118 2 167 3 108
2 -60 2 -156 0 -215z m-444 -250 c-3 -307 -8 -580 -12 -608 -5 -27 -6 213 -4
535 4 535 6 630 17 630 2 0 1 -251 -1 -557z m824 360 c-2 -38 -3 -7 -3 67 0
74 1 105 3 68 2 -38 2 -98 0 -135z m-337 7 c-1 -99 -6 -182 -11 -185 -5 -4 -9
69 -9 179 0 121 4 186 10 186 7 0 10 -62 10 -180z m30 -6 c0 -91 -3 -163 -7
-161 -8 5 -5 327 2 327 3 0 5 -75 5 -166z m350 58 c0 -53 -5 -104 -10 -112 -7
-10 -10 23 -10 103 0 76 4 116 10 112 6 -3 10 -49 10 -103z m-1174 72 c-4 -9
-9 -15 -11 -12 -3 3 -3 13 1 22 4 9 9 15 11 12 3 -3 3 -13 -1 -22z m-209 -21
c-3 -10 -5 -4 -5 12 0 17 2 24 5 18 2 -7 2 -21 0 -30z m283 23 c0 -3 -4 -8
-10 -11 -5 -3 -10 -1 -10 4 0 6 5 11 10 11 6 0 10 -2 10 -4z m790 -130 c0 -79
-4 -137 -10 -141 -6 -4 -10 43 -10 134 0 87 4 141 10 141 6 0 10 -51 10 -134z
m-760 13 c0 -70 -4 -108 -10 -104 -6 4 -8 44 -6 98 5 118 5 117 11 117 3 0 5
-50 5 -111z m1100 14 c-1 -69 -4 -93 -10 -81 -6 9 -8 27 -6 40 3 13 5 49 5 81
1 31 3 57 6 57 3 0 5 -44 5 -97z m-310 -40 c0 -64 -3 -113 -7 -107 -8 9 -5
224 3 224 2 0 4 -53 4 -117z m-1139 54 c-8 -8 -11 -5 -11 9 0 27 14 41 18 19
2 -9 -1 -22 -7 -28z m1481 -43 l-9 -69 -2 80 c-1 56 2 76 10 68 7 -7 8 -32 1
-79z m-303 3 c-2 -112 -17 -131 -18 -24 -1 63 3 96 9 92 6 -3 9 -34 9 -68z
m-902 41 c-3 -8 -6 -5 -6 6 -1 11 2 17 5 13 3 -3 4 -12 1 -19z m933 -68 c0
-38 -4 -70 -9 -70 -6 0 -9 126 -2 138 7 13 11 -10 11 -68z m310 10 c0 -27 -4
-50 -10 -50 -5 0 -10 23 -10 50 0 28 5 50 10 50 6 0 10 -22 10 -50z m-1553 3
c-3 -10 -5 -4 -5 12 0 17 2 24 5 18 2 -7 2 -21 0 -30z m343 -43 l-7 -65 -2 75
c0 44 3 70 8 65 5 -6 6 -38 1 -75z m-33 48 c-3 -8 -6 -5 -6 6 -1 11 2 17 5 13
3 -3 4 -12 1 -19z m960 -60 c-2 -18 -4 -6 -4 27 0 33 2 48 4 33 2 -15 2 -42 0
-60z m310 10 c-2 -13 -4 -5 -4 17 -1 22 1 32 4 23 2 -10 2 -28 0 -40z m-1035
-768 l-9 -295 -1 455 c-1 250 1 500 6 555 11 154 14 -352 4 -715z m768 775 c0
-14 -4 -25 -10 -25 -5 0 -10 11 -10 25 0 14 5 25 10 25 6 0 10 -11 10 -25z
m-1349 -28 c-8 -8 -11 -5 -11 9 0 27 14 41 18 19 2 -9 -1 -22 -7 -28z m1659 7
c0 -8 -4 -14 -10 -14 -5 0 -10 9 -10 21 0 11 5 17 10 14 6 -3 10 -13 10 -21z
m-1313 -46 c-2 -13 -4 -5 -4 17 -1 22 1 32 4 23 2 -10 2 -28 0 -40z m205 -504
c-2 -329 -7 -564 -13 -577 -6 -14 -8 96 -4 323 3 190 5 450 5 578 0 127 3 232
8 232 4 0 6 -250 4 -556z m-585 489 c-3 -10 -5 -4 -5 12 0 17 2 24 5 18 2 -7
2 -21 0 -30z m553 -120 c0 -106 -3 -154 -10 -147 -9 9 -3 304 7 304 1 0 3 -71
3 -157z m845 -1490 c-9 -909 -21 -1649 -26 -1663 -8 -24 -6 504 6 1235 3 165
7 631 10 1035 5 709 12 1046 22 1037 2 -3 -3 -742 -12 -1644z m48 1490 c-2
-87 -8 -651 -13 -1253 -13 -1379 -21 -1953 -30 -1943 -3 4 -3 244 1 533 4 289
9 827 13 1195 10 1091 18 1625 26 1625 3 0 5 -71 3 -157z m33 -360 c-8 -619
-25 -2233 -27 -2528 -1 -115 -5 -239 -9 -275 -11 -103 -11 122 0 980 14 1203
20 1743 21 2046 0 254 2 294 17 294 2 0 1 -233 -2 -517z m31 -205 c-16 -1664
-19 -1975 -22 -2023 -2 -27 -4 -195 -4 -373 -1 -233 -4 -321 -12 -316 -8 5 -9
73 -5 238 3 127 11 719 16 1316 5 597 12 1211 15 1365 3 154 5 333 5 398 0 64
3 117 7 117 3 0 3 -325 0 -722z m43 691 c0 -17 -4 -28 -10 -24 -5 3 -10 17
-10 31 0 13 5 24 10 24 6 0 10 -14 10 -31z m26 -611 c-4 -354 -9 -645 -12
-647 -2 -2 -4 189 -4 425 0 434 9 864 18 864 3 0 2 -289 -2 -642z m-1305 605
c-12 -20 -14 -14 -5 12 4 9 9 14 11 11 3 -2 0 -13 -6 -23z m1104 -165 c-2
-106 -7 -488 -10 -848 -8 -1060 -17 -1748 -25 -2010 -8 -252 -5 671 5 1370 3
190 8 645 11 1013 4 395 10 667 16 667 5 0 7 -78 3 -192z m245 157 c0 -19 -4
-35 -10 -35 -5 0 -10 16 -10 35 0 19 5 35 10 35 6 0 10 -16 10 -35z m-1103
-85 c-2 -61 -7 -114 -11 -117 -3 -3 -6 43 -6 104 0 98 4 123 18 123 2 0 2 -50
-1 -110z m820 -497 c-4 -335 -10 -916 -13 -1293 -3 -377 -7 -701 -9 -720 -2
-19 -4 -169 -4 -332 -1 -205 -4 -298 -12 -298 -7 0 -9 92 -5 308 10 532 16
1003 22 1792 3 421 7 810 9 865 2 55 4 142 4 193 1 50 4 92 8 92 3 0 3 -273 0
-607z m303 -71 c-12 -21 -14 360 -2 553 6 108 7 74 10 -203 1 -205 -2 -340 -8
-350z m-1163 525 c-2 -23 -3 -1 -3 48 0 50 1 68 3 42 2 -26 2 -67 0 -90z m833
109 c0 -14 -4 -28 -10 -31 -6 -4 -10 7 -10 24 0 17 5 31 10 31 6 0 10 -11 10
-24z m373 -253 c-3 -153 -7 -280 -9 -282 -2 -2 -4 122 -4 277 0 172 4 282 10
282 5 0 7 -104 3 -277z m-416 190 c-2 -16 -4 -3 -4 27 0 30 2 43 4 28 2 -16 2
-40 0 -55z m-995 45 c-7 -7 -12 -8 -12 -2 0 14 12 26 19 19 2 -3 -1 -11 -7
-17z m1447 -252 c-1 -151 -6 -280 -10 -288 -5 -7 -9 96 -9 237 0 227 5 325 17
325 2 0 3 -123 2 -274z m-1758 227 c-10 -17 -10 -16 -11 3 0 23 13 41 18 25 2
-6 -1 -18 -7 -28z m489 -2 c0 -22 -4 -43 -10 -46 -6 -4 -10 12 -10 39 0 25 5
46 10 46 6 0 10 -18 10 -39z m-43 -3 c-3 -7 -5 -2 -5 12 0 14 2 19 5 13 2 -7
2 -19 0 -25z m830 -15 c-4 -17 -4 -17 -12 0 -4 9 -4 25 0 35 8 16 8 16 12 0 3
-10 3 -26 0 -35z m309 -235 c-3 -156 -8 -584 -11 -953 -8 -1023 -25 -2168 -32
-2175 -6 -5 2 1090 12 1625 3 149 8 611 11 1028 4 473 10 757 16 757 6 0 7
-105 4 -282z m66 -320 c-2 -326 -7 -615 -12 -643 -6 -31 -8 126 -5 425 3 261
5 550 5 643 0 92 3 167 8 167 4 0 6 -267 4 -592z m-1275 175 c-1 -76 -3 -14
-3 137 0 151 2 213 3 138 2 -76 2 -200 0 -275z m1413 117 c0 -203 -3 -290 -11
-290 -7 0 -9 26 -5 83 3 45 5 175 6 290 0 114 2 207 5 207 3 0 5 -130 5 -290z
m-584 244 c-4 -9 -9 -15 -11 -12 -3 3 -3 13 1 22 4 9 9 15 11 12 3 -3 3 -13
-1 -22z m-1239 -21 c-3 -10 -5 -4 -5 12 0 17 2 24 5 18 2 -7 2 -21 0 -30z
m1376 12 c-3 -9 -8 -14 -10 -11 -3 3 -2 9 2 15 9 16 15 13 8 -4z m480 -322
l-10 -308 -1 320 c-2 233 1 316 9 308 8 -8 9 -96 2 -320z m-656 295 c-3 -8 -6
-5 -6 6 -1 11 2 17 5 13 3 -3 4 -12 1 -19z m-749 -198 c-3 -115 -8 -213 -11
-217 -4 -3 -7 91 -7 210 0 150 3 217 11 217 7 0 10 -63 7 -210z m718 183 c-10
-10 -19 5 -10 18 6 11 8 11 12 0 2 -7 1 -15 -2 -18z m101 -5 c-3 -7 -5 -2 -5
12 0 14 2 19 5 13 2 -7 2 -19 0 -25z m-887 -24 c0 -29 -4 -43 -11 -39 -14 9
-8 85 7 85 2 0 4 -21 4 -46z m-410 12 c0 -8 -4 -18 -10 -21 -5 -3 -10 3 -10
14 0 12 5 21 10 21 6 0 10 -6 10 -14z m297 -8 c-3 -8 -6 -5 -6 6 -1 11 2 17 5
13 3 -3 4 -12 1 -19z m213 -155 c0 -97 -3 -173 -6 -170 -4 4 -6 48 -6 99 1 51
1 128 2 171 0 42 2 77 5 77 3 0 5 -79 5 -177z m894 141 c-3 -48 -14 -57 -14
-12 0 29 6 48 15 48 1 0 1 -16 -1 -36z m516 -319 c-1 -224 -5 -357 -11 -361
-7 -4 -10 88 -9 268 2 264 9 448 17 448 2 0 3 -160 3 -355z m-2645 258 c-9
-91 -15 -92 -15 -5 0 45 4 72 11 72 7 0 8 -22 4 -67z m2092 45 c-3 -8 -6 -5
-6 6 -1 11 2 17 5 13 3 -3 4 -12 1 -19z m-2130 -145 c-2 -32 -3 -8 -3 52 0 61
1 87 3 58 2 -29 2 -78 0 -110z m1305 15 c-1 -66 -4 -123 -7 -126 -3 -3 -5 55
-5 128 0 73 3 130 7 126 4 -3 6 -61 5 -128z m-585 90 c-3 -8 -6 -5 -6 6 -1 11
2 17 5 13 3 -3 4 -12 1 -19z m1234 -1 c-10 -9 -11 -8 -5 6 3 10 9 15 12 12 3
-3 0 -11 -7 -18z m765 -46 c-3 -31 -5 -202 -6 -381 0 -210 -4 -320 -10 -310
-5 8 -8 71 -6 140 2 69 4 237 5 373 1 176 4 246 12 241 7 -4 9 -27 5 -63z
m-1589 27 c-3 -7 -5 -2 -5 12 0 14 2 19 5 13 2 -7 2 -19 0 -25z m213 -63 c0
-50 -4 -85 -10 -85 -6 0 -10 35 -10 85 0 50 4 85 10 85 6 0 10 -35 10 -85z
m647 53 c-3 -8 -6 -5 -6 6 -1 11 2 17 5 13 3 -3 4 -12 1 -19z m140 -10 c-3 -7
-5 -2 -5 12 0 14 2 19 5 13 2 -7 2 -19 0 -25z m-2160 -124 c-3 -74 -8 -138
-11 -141 -8 -8 -8 241 0 261 13 34 15 11 11 -120z m1199 109 c-10 -10 -19 5
-10 18 6 11 8 11 12 0 2 -7 1 -15 -2 -18z m201 -40 c-2 -16 -4 -5 -4 22 0 28
2 40 4 28 2 -13 2 -35 0 -50z m727 42 c-4 -8 -8 -15 -10 -15 -2 0 -4 7 -4 15
0 8 4 15 10 15 5 0 7 -7 4 -15z m63 -17 c-3 -7 -5 -2 -5 12 0 14 2 19 5 13 2
-7 2 -19 0 -25z m-2027 -62 c-9 -8 -11 -1 -9 29 4 56 13 68 17 21 2 -21 -2
-44 -8 -50z m556 57 c-10 -10 -19 5 -10 18 6 11 8 11 12 0 2 -7 1 -15 -2 -18z
m2063 -180 c-1 -109 -5 -286 -9 -393 -6 -172 -7 -149 -8 198 -1 256 1 392 8
392 6 0 10 -72 9 -197z m-1580 45 c-1 -73 -5 -146 -9 -163 -5 -18 -8 36 -8
133 0 89 4 162 9 162 5 0 8 -60 8 -132z m578 30 c-2 -18 -4 -6 -4 27 0 33 2
48 4 33 2 -15 2 -42 0 -60z m-343 -365 c-4 -241 -8 -440 -10 -442 -2 -2 -4
191 -4 431 0 387 2 448 17 448 2 0 1 -197 -3 -437z m513 415 c-3 -8 -6 -5 -6
6 -1 11 2 17 5 13 3 -3 4 -12 1 -19z m244 -170 c-3 -701 -15 -1565 -22 -1578
-4 -8 -6 219 -3 505 6 720 15 1267 21 1261 3 -2 4 -87 4 -188z m-68 167 c-3
-9 -8 -14 -10 -11 -3 3 -2 9 2 15 9 16 15 13 8 -4z m687 -377 c-1 -211 -5
-399 -10 -418 -5 -23 -8 41 -9 180 -1 219 9 620 16 620 2 0 3 -172 3 -382z
m-650 357 c0 -8 -4 -15 -10 -15 -5 0 -7 7 -4 15 4 8 8 15 10 15 2 0 4 -7 4
-15z m-418 -517 c-3 -288 -8 -532 -13 -543 -7 -19 -1 1027 7 1053 2 6 5 12 7
12 1 0 1 -235 -1 -522z m-351 -423 c-7 -130 -8 -119 -10 156 0 163 2 406 7
540 l7 244 2 -400 c2 -220 -1 -463 -6 -540z m-232 778 c0 -71 -4 -117 -7 -103
-7 26 -4 230 4 230 2 0 4 -57 3 -127z m204 -495 c-3 -332 -9 -628 -13 -658 -4
-30 -5 231 -3 580 4 592 6 680 18 680 2 0 2 -271 -2 -602z m1479 159 c-2 -230
-8 -415 -12 -410 -4 4 -5 199 -2 432 2 233 8 418 12 410 4 -8 5 -202 2 -432z
m-2892 199 c-7 -7 -8 14 -5 65 2 41 6 92 7 114 1 22 4 -7 5 -64 2 -62 0 -108
-7 -115z m177 102 c-2 -24 -4 -7 -4 37 0 44 2 63 4 43 2 -21 2 -57 0 -80z
m1578 -585 c-4 -282 -10 -513 -14 -513 -6 0 3 1142 10 1190 8 63 10 -209 4
-677z m-575 572 c0 -70 -4 -115 -10 -115 -6 0 -10 43 -10 108 0 95 4 122 17
122 2 0 3 -52 3 -115z m198 -337 c-1 -238 -5 -554 -8 -703 -6 -267 -6 -265 -8
146 -2 392 7 989 15 989 2 0 2 -195 1 -432z m549 400 c-3 -7 -5 -2 -5 12 0 14
2 19 5 13 2 -7 2 -19 0 -25z m275 -428 l-9 -405 -1 417 c-1 229 1 425 6 435
12 30 13 -18 4 -447z m727 143 c-1 -153 -5 -363 -9 -468 -5 -150 -7 -91 -8
278 0 287 3 467 9 467 5 0 8 -109 8 -277z m-1789 162 c0 -52 -3 -95 -7 -95 -5
0 -7 43 -5 95 2 52 5 95 8 95 2 0 4 -43 4 -95z m584 -17 c-3 -62 -8 -115 -10
-117 -2 -2 -4 48 -4 112 0 75 4 117 10 117 7 0 9 -37 4 -112z m102 -265 c-4
-202 -9 -369 -12 -372 -2 -2 -4 160 -4 361 0 330 2 378 18 378 3 0 2 -165 -2
-367z m23 -257 c-11 -11 -11 41 3 528 2 45 4 -54 5 -218 3 -215 0 -303 -8
-310z m108 572 c-3 -8 -6 -5 -6 6 -1 11 2 17 5 13 3 -3 4 -12 1 -19z m-856
-166 c-8 -12 -10 6 -11 69 0 47 3 89 8 93 11 12 14 -142 3 -162z m790 -84 l-8
-223 -1 240 c-1 159 2 234 8 223 6 -10 7 -98 1 -240z m727 211 c-3 -20 -5 -19
-9 9 -3 20 -2 29 4 23 5 -5 7 -19 5 -32z m333 -869 c-8 -213 -9 -191 -7 235 0
259 3 515 6 570 3 55 6 -51 7 -235 2 -184 -1 -441 -6 -570z m-1884 738 c-2
-29 -3 -6 -3 52 0 58 1 81 3 53 2 -29 2 -77 0 -105z m854 -171 c-7 -7 -9 29
-7 104 7 208 10 226 13 65 2 -96 0 -163 -6 -169z m239 -431 c-11 -11 -11 476
0 669 3 50 6 -78 8 -284 1 -257 -1 -378 -8 -385z m-2188 647 c-5 -140 -9 -146
-11 -15 0 61 3 112 7 112 4 0 6 -44 4 -97z m1715 20 c-3 -10 -5 -2 -5 17 0 19
2 27 5 18 2 -10 2 -26 0 -35z m-1550 15 c-3 -8 -6 -5 -6 6 -1 11 2 17 5 13 3
-3 4 -12 1 -19z m1070 -35 c-3 -10 -5 -4 -5 12 0 17 2 24 5 18 2 -7 2 -21 0
-30z m-177 -127 c-7 -7 -10 13 -10 65 0 98 14 112 18 18 2 -41 -2 -77 -8 -83z
m1589 94 c1 -13 0 -13 -9 0 -5 8 -9 26 -9 40 l1 25 8 -25 c4 -14 8 -32 9 -40z
m372 -358 c-1 -217 -7 -405 -12 -416 -6 -13 -8 49 -4 169 3 105 5 295 5 424 0
129 3 231 7 227 4 -4 6 -186 4 -404z m-1994 255 c-2 -23 -3 -1 -3 48 0 50 1
68 3 42 2 -26 2 -67 0 -90z m1583 -182 c0 -200 -4 -315 -10 -315 -6 0 -8 39
-6 103 2 56 4 198 5 315 1 116 3 212 6 212 3 0 5 -142 5 -315z m-1413 -552
c-8 -897 -16 -1405 -25 -1413 -4 -5 1 608 15 1743 3 290 8 527 11 527 3 0 2
-386 -1 -857z m969 738 c-3 -53 -6 -203 -6 -334 0 -131 -3 -236 -7 -234 -5 3
-7 156 -5 341 2 239 6 335 13 330 8 -4 9 -38 5 -103z m-2197 -93 c-1 -101 -5
-192 -10 -203 -4 -11 -8 55 -8 151 -1 155 4 234 15 234 3 0 4 -82 3 -182z
m1198 -300 c-4 -266 -10 -773 -13 -1128 -4 -355 -10 -654 -15 -665 -10 -26
-10 -2 1 770 5 358 10 837 11 1065 1 390 3 440 17 440 3 0 2 -217 -1 -482z
m552 400 c-1 -93 -6 -87 -11 15 -2 37 0 67 4 67 4 0 7 -37 7 -82z m-728 -81
c-8 -8 -11 9 -11 54 0 85 14 99 18 18 2 -34 -2 -67 -7 -72z m137 -747 c-5
-465 -12 -973 -17 -1130 -8 -238 -9 -188 -5 305 7 1006 16 1687 23 1678 4 -4
3 -388 -1 -853z m102 803 c-11 -17 -11 -17 -6 0 3 10 7 28 7 40 2 22 2 22 6 0
2 -12 -1 -30 -7 -40z m140 -465 c-1 -282 -6 -565 -10 -628 -5 -70 -7 70 -4
354 2 258 4 544 4 634 0 91 3 163 6 159 3 -3 5 -236 4 -519z m-413 395 c-2
-21 -4 -6 -4 32 0 39 2 55 4 38 2 -18 2 -50 0 -70z m140 -425 c-4 -282 -10
-787 -13 -1123 -4 -387 -10 -614 -16 -620 -7 -7 -8 78 -4 255 3 146 8 576 11
955 3 380 8 740 10 800 2 61 4 140 5 178 0 37 3 67 6 67 4 0 4 -231 1 -512z
m644 -94 c-9 -61 -10 -55 -6 55 3 68 6 219 7 335 l3 211 2 -266 c2 -146 -1
-296 -6 -335z m-71 32 c-7 -7 -9 11 -6 59 2 39 6 167 8 285 l3 215 2 -274 c2
-181 0 -278 -7 -285z m-740 484 c0 -33 -4 -60 -10 -60 -11 0 -14 78 -4 104 11
28 14 18 14 -44z m130 -500 c0 -299 -3 -546 -5 -550 -2 -4 -6 -187 -7 -406 -2
-219 -6 -475 -9 -569 -3 -93 -4 138 -1 515 2 377 5 732 7 790 1 58 3 255 4
439 0 184 4 332 7 329 3 -3 5 -250 4 -548z m-1140 -178 c-8 -12 -9 20 -6 113
3 72 6 231 8 355 2 186 3 167 5 -113 2 -225 0 -344 -7 -355z m967 601 c-2 -16
-4 -3 -4 27 0 30 2 43 4 28 2 -16 2 -40 0 -55z m133 -1040 c-6 -610 -14 -1110
-16 -1112 -2 -2 -6 -2 -8 0 -10 11 21 2235 32 2225 2 -3 -1 -504 -8 -1113z
m1101 642 c-8 -85 -8 -81 -10 86 0 97 2 225 7 285 7 105 7 102 10 -86 1 -107
-2 -235 -7 -285z m-1261 398 c0 -48 -3 -64 -11 -56 -10 10 -3 123 7 123 2 0 4
-30 4 -67z m1780 -159 c0 -119 -2 -220 -5 -222 -3 -3 -5 97 -5 223 0 126 2
226 5 223 4 -3 6 -104 5 -224z m-1644 24 c-3 -90 -9 -503 -12 -918 -4 -415
-10 -840 -15 -945 -5 -127 -6 -24 -3 310 10 1215 18 1715 27 1715 5 0 7 -64 3
-162z m-999 115 c-3 -10 -5 -4 -5 12 0 17 2 24 5 18 2 -7 2 -21 0 -30z m820
-55 c-2 -18 -4 -4 -4 32 0 36 2 50 4 33 2 -18 2 -48 0 -65z m2230 30 c-2 -13
-4 -3 -4 22 0 25 2 35 4 23 2 -13 2 -33 0 -45z m-2096 -1068 c-6 -443 -11
-867 -11 -943 0 -92 -3 -136 -10 -132 -7 4 -9 44 -6 108 3 56 8 471 12 922 4
451 8 838 9 860 1 22 3 96 6 165 l3 125 4 -150 c2 -82 -2 -512 -7 -955z m-161
1033 c0 -31 -4 -53 -8 -47 -8 9 -4 104 4 104 2 0 4 -26 4 -57z m441 -43 l-9
-55 -1 52 c0 28 2 60 6 70 12 30 15 -6 4 -67z m102 -496 c-5 -384 -10 -549
-16 -509 -4 33 -6 103 -3 155 3 52 6 267 7 478 0 346 4 460 16 449 2 -2 0
-260 -4 -573z m1444 454 c-2 -24 -4 -7 -4 37 0 44 2 63 4 43 2 -21 2 -57 0
-80z m-2018 64 c-1 -15 -5 -38 -9 -52 -6 -19 -8 -11 -9 33 -1 36 3 56 9 52 6
-3 10 -18 9 -33z m167 -159 c-3 -109 -9 -551 -12 -983 -4 -431 -10 -827 -15
-880 -4 -56 -6 83 -3 345 14 1466 18 1715 27 1715 6 0 7 -74 3 -197z m1159
-331 c-3 -3 -6 -3 -7 -1 -2 2 -1 121 2 264 l5 260 3 -259 c1 -142 0 -261 -3
-264z m-1368 416 c-2 -18 -4 -4 -4 32 0 36 2 50 4 33 2 -18 2 -48 0 -65z m168
-690 c-4 -425 -9 -784 -10 -798 -1 -14 -3 -151 -4 -304 0 -154 -4 -277 -7
-273 -7 6 -5 857 1 867 3 4 5 214 6 466 1 481 8 814 16 814 3 0 2 -348 -2
-772z m1794 570 c-1 -112 -6 -212 -10 -223 -4 -11 -8 80 -8 203 -1 149 2 222
10 222 7 0 9 -66 8 -202z m368 170 c-3 -8 -6 -5 -6 6 -1 11 2 17 5 13 3 -3 4
-12 1 -19z m-2360 -59 c-7 -70 -17 -74 -17 -6 0 34 4 57 11 57 7 0 9 -18 6
-51z m-795 -374 l-9 -230 -1 291 c-1 160 1 307 6 325 11 54 13 -123 4 -386z
m755 308 c-2 -16 -4 -3 -4 27 0 30 2 43 4 28 2 -16 2 -40 0 -55z m578 -715
c-4 -425 -11 -811 -15 -858 -5 -54 -7 37 -4 245 2 182 7 567 10 858 4 290 9
527 12 527 3 0 2 -348 -3 -772z m-605 712 c0 -27 -4 -50 -10 -50 -5 0 -10 23
-10 50 0 28 5 50 10 50 6 0 10 -22 10 -50z m1432 -360 c-8 -94 -9 -81 -11 137
0 133 2 250 7 260 11 27 14 -275 4 -397z m-2092 343 c-4 -56 -5 -57 -8 -14 -3
38 2 71 10 71 2 0 1 -26 -2 -57z m2570 -955 c-6 -552 -15 -1086 -20 -1188 -6
-131 -7 -33 -4 335 14 1809 16 1877 31 1862 2 -3 -1 -457 -7 -1009z m170 628
c-12 -12 -13 78 -2 255 l7 124 3 -184 c1 -116 -1 -188 -8 -195z m-2123 277
c-2 -16 -4 -3 -4 27 0 30 2 43 4 28 2 -16 2 -40 0 -55z m279 -100 c-3 -98 -8
-536 -12 -973 -4 -437 -10 -824 -15 -860 -4 -38 -6 107 -4 345 3 226 8 692 12
1038 4 379 10 627 16 627 5 0 7 -69 3 -177z m435 -658 c-8 -187 -9 -131 -5
300 2 292 5 532 6 535 8 15 6 -640 -1 -835z m1516 723 c-2 -24 -4 -7 -4 37 0
44 2 63 4 43 2 -21 2 -57 0 -80z m-2266 -21 c-8 -8 -11 4 -11 39 0 66 14 80
18 19 2 -26 -2 -53 -7 -58z m2308 -25 c1 -40 -3 -61 -9 -57 -6 3 -9 45 -9 93
2 100 16 70 18 -36z m-2342 11 c-2 -16 -4 -3 -4 27 0 30 2 43 4 28 2 -16 2
-40 0 -55z m1508 -401 c-3 -3 -6 -3 -8 -1 -1 2 0 110 3 239 l5 235 3 -234 c1
-129 0 -236 -3 -239z m-2158 421 c-3 -10 -5 -4 -5 12 0 17 2 24 5 18 2 -7 2
-21 0 -30z m623 -23 c0 -27 -4 -50 -10 -50 -11 0 -14 83 -3 93 12 12 13 8 13
-43z m2257 -162 c-1 -40 -3 -8 -3 72 0 80 2 112 3 73 2 -40 2 -106 0 -145z
m-1920 -350 c-12 -957 -19 -1403 -24 -1408 -5 -4 7 1495 13 1735 1 50 2 120 3
158 1 37 4 67 8 67 3 0 3 -249 0 -552z m890 399 c-2 -23 -3 -1 -3 48 0 50 1
68 3 42 2 -26 2 -67 0 -90z m854 -877 c-6 -432 -11 -878 -11 -992 0 -144 -3
-208 -11 -208 -8 0 -9 77 -5 268 3 147 8 506 11 797 6 639 19 1197 23 1035 2
-63 -1 -468 -7 -900z m-2124 923 c-2 -16 -4 -3 -4 27 0 30 2 43 4 28 2 -16 2
-40 0 -55z m349 -85 c-3 -79 -9 -508 -12 -953 -4 -446 -10 -829 -15 -850 -4
-23 -6 129 -4 345 3 212 8 655 11 985 4 330 8 603 11 608 13 22 15 -6 9 -135z
m477 -340 c-3 -255 -9 -501 -13 -548 -6 -55 -7 34 -5 255 3 187 5 433 5 548 0
114 4 207 9 207 4 0 6 -205 4 -462z m718 62 c-7 -83 -8 -66 -10 137 0 127 2
240 7 250 10 26 14 -276 3 -387z m620 8 c-2 -597 -21 -1761 -27 -1767 -4 -3
-4 271 0 609 10 970 19 1541 24 1535 3 -2 4 -172 3 -377z m169 118 c-7 -7 -10
31 -10 120 0 72 3 134 8 138 4 4 8 -50 10 -120 2 -78 -1 -131 -8 -138z m-2025
-463 c-4 -384 -9 -725 -10 -758 -2 -33 -3 -151 -4 -263 -1 -112 -4 -201 -8
-199 -5 3 -5 220 -2 484 4 263 8 642 10 843 4 426 8 590 15 590 3 0 2 -314 -1
-697z m-894 279 c-13 -21 -15 206 -3 324 6 66 7 47 10 -114 1 -115 -2 -200 -7
-210z m149 376 c0 -13 -5 -30 -10 -38 -7 -11 -10 -5 -10 23 0 20 5 37 10 37 6
0 10 -10 10 -22z m407 0 c-3 -8 -6 -5 -6 6 -1 11 2 17 5 13 3 -3 4 -12 1 -19z
m2402 -155 c0 -87 -4 -149 -8 -138 -7 20 -3 295 5 295 2 0 4 -71 3 -157z
m-869 -371 c-8 -12 -10 19 -6 118 3 74 7 189 8 255 2 66 4 13 5 -118 2 -158 0
-244 -7 -255z m700 378 c0 -67 -4 -110 -10 -110 -11 0 -14 202 -3 213 12 13
13 7 13 -103z m-1925 -157 c-7 -384 -15 -1063 -16 -1355 0 -153 -4 -260 -10
-263 -9 -6 -4 836 6 1110 2 61 4 257 5 438 0 212 4 327 10 327 7 0 8 -88 5
-257z m-39 -340 c-9 -827 -18 -1307 -24 -1313 -6 -6 6 1340 14 1653 4 125 9
227 12 227 3 0 2 -255 -2 -567z m2167 404 c-3 -78 -7 -144 -9 -146 -2 -2 -4
64 -4 148 0 90 4 150 9 146 6 -3 7 -65 4 -148z m-2203 -507 c-5 -355 -9 -775
-10 -934 0 -180 -4 -286 -9 -280 -10 9 5 1794 15 1843 3 13 7 22 9 20 2 -3 0
-294 -5 -649z m1101 510 l-8 -105 -1 90 c-1 50 1 101 5 115 12 44 13 8 4 -100z
m173 -162 c-3 -156 -8 -285 -10 -287 -2 -2 -4 122 -4 276 0 249 3 293 17 293
2 0 1 -127 -3 -282z m753 130 c-2 -29 -3 -6 -3 52 0 58 1 81 3 53 2 -29 2 -77
0 -105z m-2062 -620 c-4 -420 -11 -835 -15 -923 -5 -88 -6 164 -3 560 3 396 7
731 9 745 1 14 3 105 3 203 1 97 4 177 7 177 3 0 3 -343 -1 -762z m2132 730
c-3 -7 -5 -2 -5 12 0 14 2 19 5 13 2 -7 2 -19 0 -25z m143 -144 c0 -101 -3
-153 -10 -149 -6 4 -10 67 -10 156 0 93 4 149 10 149 6 0 10 -59 10 -156z
m-2312 -764 c-7 -556 -14 -899 -20 -905 -7 -7 -8 42 -4 140 3 83 8 481 11 885
6 673 9 790 20 778 2 -2 -1 -406 -7 -898z m1653 847 c-8 -8 -11 -7 -11 4 0 9
3 19 7 23 4 4 9 2 11 -4 3 -7 -1 -17 -7 -23z m-2404 -204 c-1 -43 -3 -8 -3 77
0 85 2 120 3 78 2 -43 2 -113 0 -155z m2888 129 c3 -56 1 -93 -5 -97 -6 -4
-10 30 -10 96 0 56 2 100 5 97 3 -2 7 -46 10 -96z m200 -634 c-4 -398 -11
-833 -15 -968 -5 -136 -6 112 -2 560 3 443 6 830 6 860 1 30 3 103 4 163 1 59
5 107 8 107 4 0 3 -325 -1 -722z m-1026 400 c-2 -172 -6 -326 -10 -343 -4 -16
-7 53 -8 155 -1 192 9 500 16 500 3 0 3 -141 2 -312z m-1372 280 c-3 -8 -6 -5
-6 6 -1 11 2 17 5 13 3 -3 4 -12 1 -19z m-587 -160 c-6 -67 -7 -63 -7 42 0 76
2 101 6 73 4 -24 4 -75 1 -115z m2310 125 c0 -10 -5 -25 -10 -33 -7 -11 -10
-7 -10 18 0 17 5 32 10 32 6 0 10 -8 10 -17z m-1833 -30 c-3 -10 -5 -4 -5 12
0 17 2 24 5 18 2 -7 2 -21 0 -30z m2539 -855 c-6 -476 -14 -870 -19 -874 -7
-7 1 1086 8 1131 2 11 4 160 5 330 0 171 4 303 9 295 4 -8 3 -405 -3 -882z
m-196 786 c0 -64 -3 -93 -11 -89 -6 4 -8 34 -5 78 3 40 5 80 5 90 1 9 3 17 6
17 3 0 5 -43 5 -96z m-2479 -37 c-8 -8 -11 5 -11 44 0 72 14 86 18 18 2 -28
-2 -57 -7 -62z m36 61 c-2 -13 -4 -5 -4 17 -1 22 1 32 4 23 2 -10 2 -28 0 -40z
m170 20 c-3 -8 -6 -5 -6 6 -1 11 2 17 5 13 3 -3 4 -12 1 -19z m68 -710 c-4
-403 -11 -773 -15 -823 -4 -49 -6 171 -4 490 5 627 13 1065 21 1065 3 0 2
-330 -2 -732z m1308 380 c-3 -194 -9 -366 -14 -383 -6 -20 -7 6 -4 79 3 60 5
232 5 383 0 150 4 273 9 273 4 0 6 -158 4 -352z m1131 -270 c-3 -337 -10 -701
-15 -808 -4 -120 -6 57 -3 465 2 363 5 723 5 800 1 133 3 155 15 155 3 0 2
-276 -2 -612z m-338 478 c-3 -61 -8 -448 -12 -859 -4 -478 -11 -750 -17 -754
-6 -4 -8 99 -3 303 3 170 9 562 12 871 4 346 10 560 16 557 6 -4 7 -53 4 -118z
m-2412 -693 c-5 -445 -8 -838 -8 -875 0 -38 -4 -68 -8 -68 -8 0 -1 1200 7
1340 2 30 4 135 4 233 1 97 4 177 7 177 3 0 2 -363 -2 -807z m2543 640 c-2
-32 -3 -6 -3 57 0 63 1 89 3 58 2 -32 2 -84 0 -115z m-550 135 c-3 -8 -6 -5
-6 6 -1 11 2 17 5 13 3 -3 4 -12 1 -19z m-2337 -202 c-7 -7 -9 16 -5 74 8 136
9 140 12 36 2 -60 0 -103 -7 -110z m1787 127 c-2 -16 -4 -5 -4 22 0 28 2 40 4
28 2 -13 2 -35 0 -50z m32 -7 c-9 -8 -10 -5 -5 14 3 14 7 34 7 45 1 11 4 5 6
-14 3 -19 -1 -39 -8 -45z m102 -561 l-8 -200 -1 305 c-1 168 1 357 6 420 7
107 7 100 9 -105 2 -121 -1 -310 -6 -420z m-1606 308 c-4 -175 -9 -320 -11
-322 -2 -2 -4 140 -4 317 0 228 3 322 11 322 8 0 9 -89 4 -317z m-406 208 c-2
-131 -19 -157 -19 -29 0 88 5 128 17 128 2 0 3 -44 2 -99z m3020 -8 c-2 -166
-16 -191 -18 -30 -1 85 3 137 9 137 6 0 10 -42 9 -107z m-2512 25 c-2 -13 -4
-3 -4 22 0 25 2 35 4 23 2 -13 2 -33 0 -45z m-140 -300 c-1 -68 -3 -15 -3 117
0 132 2 187 3 123 2 -64 2 -172 0 -240z m2845 -383 l-9 -400 -1 281 c-1 154 1
411 6 570 6 260 7 272 9 119 2 -93 -1 -350 -5 -570z m-336 273 c-12 -837 -18
-1173 -23 -1178 -7 -6 7 1612 14 1623 2 4 7 7 10 7 3 0 3 -204 -1 -452z m174
270 c0 -116 -4 -168 -10 -158 -15 24 -9 330 6 330 2 0 4 -78 4 -172z m-623
140 c-3 -8 -6 -5 -6 6 -1 11 2 17 5 13 3 -3 4 -12 1 -19z m-2087 -112 c0 -73
-4 -127 -10 -131 -6 -4 -10 40 -10 124 0 81 4 131 10 131 6 0 10 -48 10 -124z
m1646 42 c-3 -35 -7 -218 -8 -408 -1 -190 -5 -399 -9 -465 -4 -66 -5 71 -3
305 2 234 4 471 4 528 0 69 4 102 11 102 8 0 10 -19 5 -62z m1091 -290 c-1
-68 -3 -15 -3 117 0 132 2 187 3 123 2 -64 2 -172 0 -240z m-3020 170 c-2 -35
-3 -9 -3 57 0 66 1 94 3 63 2 -32 2 -86 0 -120z m240 5 c-2 -32 -3 -6 -3 57 0
63 1 89 3 58 2 -32 2 -84 0 -115z m2130 135 c-3 -8 -6 -5 -6 6 -1 11 2 17 5
13 3 -3 4 -12 1 -19z m-1956 -270 c-1 -465 -14 -1279 -19 -1273 -6 5 -3 966 3
1015 1 14 3 142 4 284 0 143 4 257 7 253 3 -3 5 -128 5 -279z m239 227 l-8
-40 -1 50 c-1 29 3 45 8 40 5 -6 6 -28 1 -50z m-750 -67 c0 -66 -4 -108 -9
-102 -8 8 -3 214 5 214 2 0 4 -50 4 -112z m310 27 c0 -50 -4 -85 -10 -85 -5 0
-10 24 -10 54 0 53 9 116 16 116 2 0 4 -38 4 -85z m-40 -160 l-6 -210 -2 225
c-1 124 2 218 7 210 4 -8 5 -109 1 -225z m377 203 c-3 -7 -5 -2 -5 12 0 14 2
19 5 13 2 -7 2 -19 0 -25z m1338 -478 c-4 -264 -10 -478 -14 -475 -7 8 -2 863
6 923 3 24 8 41 10 38 3 -3 2 -221 -2 -486z m960 -192 c-4 -376 -11 -714 -15
-753 -8 -73 -3 948 5 1115 3 52 5 146 5 208 0 61 3 112 6 112 3 0 3 -307 -1
-682z m-2398 640 c-3 -8 -6 -5 -6 6 -1 11 2 17 5 13 3 -3 4 -12 1 -19z m1400
-55 c-3 -10 -5 -2 -5 17 0 19 2 27 5 18 2 -10 2 -26 0 -35z m-1716 -438 c-7
-47 -9 -16 -10 145 0 113 3 230 7 260 5 38 8 -6 10 -145 1 -110 -2 -227 -7
-260z m-267 307 c-3 -70 -8 -129 -10 -131 -2 -2 -4 57 -4 133 0 93 3 135 11
131 7 -5 8 -49 3 -133z m97 -94 c-7 -26 -9 -9 -10 79 -1 61 2 120 7 130 11 27
14 -171 3 -209z m3226 90 c-2 -24 -4 -5 -4 42 0 47 2 66 4 43 2 -24 2 -62 0
-85z m-2540 -470 c-4 -315 -7 -604 -7 -642 0 -38 -3 -66 -7 -62 -12 12 3 1276
15 1276 3 0 2 -258 -1 -572z m2234 280 c-1 -391 -13 -1069 -20 -1063 -3 3 -4
142 -3 308 3 433 14 1028 19 1023 2 -2 4 -123 4 -268z m-3060 -96 c-13 -21
-15 138 -3 243 6 62 7 52 10 -78 1 -86 -2 -155 -7 -165z m106 91 c-2 -37 -3
-9 -3 62 0 72 1 102 3 68 2 -34 2 -93 0 -130z m2470 155 c-3 -7 -5 -2 -5 12 0
14 2 19 5 13 2 -7 2 -19 0 -25z m-556 -649 c-13 -31 -14 99 -3 407 l7 229 3
-306 c1 -177 -2 -317 -7 -330z m556 240 c-3 -210 -8 -384 -11 -387 -3 -3 -6
98 -6 224 0 245 10 544 18 544 3 0 2 -171 -1 -381z m513 -217 c-4 -309 -11
-566 -15 -570 -4 -4 -5 157 -1 357 3 200 6 464 6 585 0 129 4 215 9 206 5 -8
6 -264 1 -578z m-3118 401 c-4 -267 -8 -284 -10 -40 -1 119 1 217 6 217 4 0 6
-80 4 -177z m235 -85 c-1 -51 -3 -12 -3 87 0 99 2 141 3 93 2 -48 2 -129 0
-180z m280 165 c-2 -16 -4 -5 -4 22 0 28 2 40 4 28 2 -13 2 -35 0 -50z m-216
-389 c-8 -35 -9 -32 -10 37 -1 42 2 152 7 245 l7 169 3 -206 c1 -113 -2 -223
-7 -245z m-24 414 c-3 -8 -6 -5 -6 6 -1 11 2 17 5 13 3 -3 4 -12 1 -19z m-176
-150 c-8 -27 -9 -17 -10 58 -1 50 2 94 7 98 11 12 14 -118 3 -156z m-140 -231
c-7 -23 -10 19 -9 153 1 102 4 192 7 200 10 26 12 -319 2 -353z m241 -7 l-9
-125 -1 205 c-1 113 2 216 6 230 11 38 13 -166 4 -310z m617 -122 c-3 -494 -3
-516 -14 -526 -4 -4 -5 143 -1 327 3 184 6 404 6 489 0 86 3 153 6 149 3 -3 5
-201 3 -439z m2335 -82 c-4 -272 -10 -493 -14 -491 -7 5 -2 961 6 984 2 8 7
11 10 8 3 -3 2 -228 -2 -501z m-3222 362 c-4 -224 -8 -245 -10 -60 -1 100 1
182 6 182 4 0 6 -55 4 -122z m138 56 c0 -36 -3 -63 -7 -61 -8 5 -5 127 3 127
2 0 4 -30 4 -66z m444 -21 c-9 -78 -14 -79 -14 -5 0 35 4 62 10 62 6 0 8 -21
4 -57z m36 -104 c0 -88 -3 -158 -7 -156 -5 3 -8 40 -7 84 3 195 4 233 9 233 3
0 5 -72 5 -161z m98 -201 c-2 -200 -5 -421 -8 -493 -6 -122 -6 -118 -8 76 -2
217 9 779 15 779 2 0 2 -163 1 -362z m1922 81 c0 -137 -4 -248 -8 -245 -4 2
-7 17 -6 33 1 15 2 126 3 246 0 119 3 217 6 217 3 0 5 -113 5 -251z m-2679
-90 c-7 -17 -10 25 -10 142 -1 91 2 169 7 173 11 11 14 -287 3 -315z m149 274
c0 -21 -5 -45 -10 -53 -7 -11 -10 0 -10 38 0 28 5 52 10 52 6 0 10 -17 10 -37z
m230 -174 c0 -95 -3 -175 -5 -178 -3 -2 -5 78 -5 179 0 101 3 181 6 177 3 -3
5 -83 4 -178z m2911 -564 c-7 -119 -8 -88 -8 200 1 187 4 385 7 440 3 60 6
-21 8 -200 1 -165 -2 -363 -7 -440z m-642 543 c-1 -95 -5 -184 -9 -198 -5 -14
-8 61 -9 166 -1 169 2 204 16 204 2 0 3 -78 2 -172z m-2682 -80 c-1 -46 -3
-11 -3 77 0 88 2 125 3 83 2 -42 2 -114 0 -160z m925 -268 l-9 -285 -1 361
c-1 199 1 377 6 395 11 53 13 -148 4 -471z m-612 299 c0 -111 -4 -178 -9 -174
-6 3 -9 40 -7 83 2 42 4 121 5 175 0 53 3 97 6 97 3 0 5 -81 5 -181z m2330 -5
c0 -85 -3 -153 -7 -151 -8 5 -5 307 3 307 2 0 4 -70 4 -156z m-2365 -66 c-4
-101 -8 -185 -11 -187 -2 -2 -4 77 -4 176 0 159 3 193 17 193 2 0 1 -82 -2
-182z m-315 -102 c-7 -7 -10 32 -10 125 0 75 3 139 8 143 4 4 8 -52 10 -125 2
-81 -1 -136 -8 -143z m2640 30 c-7 -7 -10 28 -10 110 0 67 3 124 8 128 4 4 8
-45 10 -110 2 -71 -1 -121 -8 -128z m-1780 -133 c0 -223 -3 -344 -10 -337 -8
8 -2 684 7 684 1 0 3 -156 3 -347z m1747 180 c-2 -32 -3 -6 -3 57 0 63 1 89 3
58 2 -32 2 -84 0 -115z m-27 42 c0 -63 -4 -105 -10 -105 -11 0 -14 192 -3 203
12 13 13 7 13 -98z m-2164 -252 c-3 -181 -7 -437 -7 -570 -1 -134 -4 -245 -9
-248 -8 -5 -3 1032 6 1103 13 107 17 16 10 -285z m-136 180 c0 -75 -3 -133 -7
-128 -8 10 -5 265 3 265 2 0 4 -62 4 -137z m-313 -55 c-2 -35 -3 -7 -3 62 0
69 1 97 3 63 2 -35 2 -91 0 -125z m2574 100 c-3 -101 -11 -99 -11 2 0 46 3 80
7 77 3 -4 5 -39 4 -79z m859 -303 c-1 -234 -5 -387 -10 -390 -6 -4 -10 50 -10
143 0 184 12 632 17 632 2 0 3 -173 3 -385z m-2713 338 c-3 -10 -5 -4 -5 12 0
17 2 24 5 18 2 -7 2 -21 0 -30z m35 -290 c-2 -181 -6 -330 -8 -332 -7 -7 -4
612 2 637 4 12 7 22 8 22 1 0 0 -147 -2 -327z m1788 252 c0 -43 -4 -75 -10
-75 -11 0 -13 91 -4 128 11 38 14 25 14 -53z m-2261 -37 c-2 -156 -17 -177
-18 -25 -1 78 3 127 9 127 6 0 10 -40 9 -102z m2091 41 c0 -31 -4 -48 -10 -44
-5 3 -10 26 -10 51 0 24 5 44 10 44 6 0 10 -23 10 -51z m-2130 -264 c0 -197
-4 -305 -10 -305 -6 0 -10 36 -10 88 0 127 13 522 17 522 1 0 3 -137 3 -305z
m2265 243 c-6 -72 -15 -72 -15 1 0 38 4 60 10 56 5 -3 8 -29 5 -57z m-108 -15
c-2 -16 -4 -5 -4 22 0 28 2 40 4 28 2 -13 2 -35 0 -50z m70 -15 c-2 -18 -4 -6
-4 27 0 33 2 48 4 33 2 -15 2 -42 0 -60z m-2297 -169 c0 -161 -3 -228 -11
-224 -6 5 -8 27 -5 59 3 28 5 129 6 224 0 94 2 172 5 172 3 0 5 -104 5 -231z
m39 119 c-1 -62 -5 -185 -9 -273 -6 -153 -6 -149 -8 113 -1 176 2 272 8 272 6
0 9 -43 9 -112z m2231 78 c0 -19 -4 -38 -10 -41 -6 -4 -10 10 -10 34 0 23 5
41 10 41 6 0 10 -15 10 -34z m-1480 -226 c0 -160 -4 -250 -10 -250 -6 0 -10
39 -10 98 0 118 12 402 17 402 1 0 3 -112 3 -250z m-1000 16 c-7 -7 -10 24
-10 100 0 144 14 158 18 18 2 -65 -1 -111 -8 -118z m517 72 c-2 -24 -4 -5 -4
42 0 47 2 66 4 43 2 -24 2 -62 0 -85z m-346 -224 c-7 -29 -9 8 -10 142 -1 99
2 184 7 188 11 11 14 -284 3 -330z m792 68 c-3 -114 -7 -209 -9 -211 -2 -2 -4
93 -4 213 0 127 4 215 9 212 5 -4 7 -94 4 -214z m-996 46 c-2 -29 -3 -6 -3 52
0 58 1 81 3 53 2 -29 2 -77 0 -105z m170 -150 c-1 -57 -3 -11 -3 102 0 113 2
159 3 103 2 -57 2 -149 0 -205z m622 74 c0 -126 -5 -235 -10 -243 -9 -14 -10
316 -1 424 9 102 13 37 11 -181z m1411 188 c0 -22 -4 -40 -10 -40 -5 0 -10 18
-10 40 0 22 5 40 10 40 6 0 10 -18 10 -40z m-43 -37 c-2 -16 -4 -5 -4 22 0 28
2 40 4 28 2 -13 2 -35 0 -50z m283 52 c0 -8 -4 -15 -10 -15 -5 0 -10 7 -10 15
0 8 5 15 10 15 6 0 10 -7 10 -15z m-1968 -755 l-9 -225 -1 326 c-1 179 1 402
6 495 l7 169 2 -270 c2 -148 -1 -371 -5 -495z m1658 713 c0 -21 -5 -45 -10
-53 -7 -11 -10 0 -10 38 0 28 5 52 10 52 6 0 10 -17 10 -37z m340 11 c0 -8 -5
-12 -10 -9 -6 4 -8 11 -5 16 9 14 15 11 15 -7z m-383 -76 c-2 -18 -4 -6 -4 27
0 33 2 48 4 33 2 -15 2 -42 0 -60z m-1947 -58 c0 -80 -4 -130 -10 -130 -6 0
-10 45 -10 114 0 103 5 146 16 146 2 0 4 -58 4 -130z m1920 51 c0 -33 -4 -63
-10 -66 -6 -4 -10 18 -10 59 0 37 4 66 10 66 6 0 10 -26 10 -59z m-2099 -129
c-8 -12 -10 6 -11 69 0 47 3 89 8 93 11 12 14 -142 3 -162z m2056 35 c-2 -23
-3 -1 -3 48 0 50 1 68 3 42 2 -26 2 -67 0 -90z m523 123 c0 -5 -4 -10 -10 -10
-5 0 -10 5 -10 10 0 6 5 10 10 10 6 0 10 -4 10 -10z m-551 -168 c-3 -230 -17
-250 -18 -26 -1 161 2 194 16 194 2 0 3 -76 2 -168z m578 126 c-3 -7 -5 -2 -5
12 0 14 2 19 5 13 2 -7 2 -19 0 -25z m-620 -310 c-1 -62 -3 -12 -3 112 0 124
2 174 3 113 2 -62 2 -164 0 -225z m663 287 c0 -19 -4 -35 -10 -35 -5 0 -10 16
-10 35 0 19 5 35 10 35 6 0 10 -16 10 -35z m30 -120 c0 -106 -3 -155 -11 -155
-8 0 -10 45 -6 153 6 169 5 157 12 157 3 0 5 -70 5 -155z m27 -72 c-1 -43 -3
-10 -3 72 0 83 2 118 3 78 2 -40 2 -107 0 -150z m70 -10 c-1 -43 -3 -8 -3 77
0 85 2 120 3 78 2 -43 2 -113 0 -155z m42 87 c-1 -77 -6 -143 -10 -146 -5 -3
-9 60 -9 140 0 96 4 146 11 146 7 0 10 -47 8 -140z m-859 70 c0 -36 -4 -60
-11 -60 -6 0 -9 23 -7 60 4 78 18 78 18 0z m790 -74 c0 -79 -4 -137 -10 -141
-6 -4 -10 43 -10 134 0 87 4 141 10 141 6 0 10 -51 10 -134z m-2169 14 c-8
-21 -10 -14 -10 36 -1 33 2 64 7 68 11 12 14 -77 3 -104z m-204 -127 c-1 -43
-3 -8 -3 77 0 85 2 120 3 78 2 -43 2 -113 0 -155z m1544 159 c-4 -80 -11 -79
-11 3 0 38 3 65 7 62 4 -4 5 -33 4 -65z m929 -68 c0 -69 -4 -123 -8 -120 -5 3
-7 33 -6 68 2 35 3 89 4 121 0 31 2 57 5 57 3 0 5 -57 5 -126z m-2883 -6 c-2
-24 -4 -5 -4 42 0 47 2 66 4 43 2 -24 2 -62 0 -85z m1923 55 c0 -50 -3 -64
-11 -56 -11 11 -4 123 7 123 2 0 4 -30 4 -67z m-40 -43 l-7 -45 -1 60 c-1 37
2 54 7 45 5 -8 5 -35 1 -60z m1032 -2 c-5 -132 -9 -145 -10 -35 -1 59 1 107 6
107 4 0 6 -33 4 -72z m-2463 -41 c0 -51 -4 -101 -9 -112 -5 -13 -9 23 -9 98
-1 76 3 116 9 112 6 -3 10 -47 9 -98z m51 -695 c-8 -12 -9 29 -6 143 3 88 7
270 8 405 2 185 3 149 5 -143 2 -258 0 -394 -7 -405z m1347 706 c-2 -18 -4 -6
-4 27 0 33 2 48 4 33 2 -15 2 -42 0 -60z m1103 -14 c0 -61 -4 -93 -10 -89 -11
7 -14 168 -3 178 12 13 13 7 13 -89z m-2133 -71 c-2 -32 -3 -8 -3 52 0 61 1
87 3 58 2 -29 2 -78 0 -110z m2160 120 c-3 -10 -5 -4 -5 12 0 17 2 24 5 18 2
-7 2 -21 0 -30z m34 -6 c-8 -8 -11 -5 -11 9 0 27 14 41 18 19 2 -9 -1 -22 -7
-28z m179 -53 c0 -54 -4 -83 -10 -79 -17 11 -11 165 6 165 2 0 4 -39 4 -86z
m-523 -36 c-2 -24 -4 -7 -4 37 0 44 2 63 4 43 2 -21 2 -57 0 -80z m-848 70 c0
-18 -4 -42 -9 -53 -6 -15 -9 -6 -9 33 -1 28 4 52 9 52 6 0 10 -15 9 -32z
m-1858 -91 c-8 -8 -11 3 -11 35 0 71 14 94 18 29 2 -30 -2 -59 -7 -64z m2027
-44 c-4 -225 -15 -252 -17 -40 -1 125 2 187 10 187 7 0 9 -49 7 -147z m439 55
c-2 -18 -4 -4 -4 32 0 36 2 50 4 33 2 -18 2 -48 0 -65z m-650 5 c-2 -16 -4 -3
-4 27 0 30 2 43 4 28 2 -16 2 -40 0 -55z m863 30 c-1 -38 -3 -44 -11 -30 -9
16 -4 77 7 77 2 0 4 -21 4 -47z m511 -16 c-4 -74 -11 -72 -11 3 0 35 3 60 7
56 4 -3 6 -30 4 -59z m-1401 -2 c0 -30 -4 -55 -10 -55 -5 0 -10 25 -10 55 0
30 5 55 10 55 6 0 10 -25 10 -55z m1227 -27 c-2 -18 -4 -6 -4 27 0 33 2 48 4
33 2 -15 2 -42 0 -60z m-374 -90 c-3 -90 -7 -165 -9 -167 -2 -2 -4 71 -4 162
0 92 4 167 9 167 5 0 6 -72 4 -162z m-896 60 c-2 -18 -4 -4 -4 32 0 36 2 50 4
33 2 -18 2 -48 0 -65z m1313 47 c0 -25 -4 -45 -10 -45 -5 0 -10 20 -10 45 0
25 5 45 10 45 6 0 10 -20 10 -45z m27 -22 c-2 -16 -4 -5 -4 22 0 28 2 40 4 28
2 -13 2 -35 0 -50z m72 20 c0 -32 -3 -42 -8 -29 -7 18 -3 76 5 76 2 0 4 -21 3
-47z m-1032 -10 c-3 -10 -5 -2 -5 17 0 19 2 27 5 18 2 -10 2 -26 0 -35z m483
-95 c0 -101 -3 -139 -11 -131 -7 7 -8 53 -3 142 4 72 8 131 10 131 2 0 4 -64
4 -142z m518 102 c1 -22 -3 -40 -8 -40 -6 0 -10 18 -10 40 0 22 4 40 8 40 5 0
9 -18 10 -40z m-2821 8 c-3 -8 -6 -5 -6 6 -1 11 2 17 5 13 3 -3 4 -12 1 -19z
m2272 -76 c-2 -143 -16 -163 -18 -24 -1 80 3 121 9 117 6 -3 9 -45 9 -93z
m-2682 11 c-2 -16 -4 -3 -4 27 0 30 2 43 4 28 2 -16 2 -40 0 -55z m43 58 c0
-11 -4 -23 -10 -26 -6 -4 -10 5 -10 19 0 14 5 26 10 26 6 0 10 -9 10 -19z
m707 -13 c-3 -7 -5 -2 -5 12 0 14 2 19 5 13 2 -7 2 -19 0 -25z m1064 -81 c-8
-8 -11 5 -11 44 0 72 14 86 18 18 2 -28 -2 -57 -7 -62z m-34 -4 c-2 -21 -4 -4
-4 37 0 41 2 58 4 38 2 -21 2 -55 0 -75z m860 -30 c-2 -27 -3 -5 -3 47 0 52 1
74 3 48 2 -27 2 -69 0 -95z m-27 72 c0 -30 -4 -55 -10 -55 -5 0 -10 25 -10 55
0 30 5 55 10 55 6 0 10 -25 10 -55z m-860 -25 c0 -38 -4 -70 -9 -70 -4 0 -7
30 -5 68 3 77 3 72 9 72 3 0 5 -31 5 -70z m-1683 23 c-3 -10 -5 -4 -5 12 0 17
2 24 5 18 2 -7 2 -21 0 -30z m2023 -100 c0 -75 -3 -133 -8 -128 -8 10 -4 265
4 265 2 0 4 -62 4 -137z m-1478 -333 l-9 -235 -1 310 c-1 171 2 328 6 350 11
63 13 -154 4 -425z m1102 383 c-6 -92 -14 -92 -14 1 0 43 4 75 9 72 5 -3 7
-36 5 -73z m-34 -18 c0 -41 -3 -75 -7 -75 -5 0 -7 34 -5 75 2 41 5 75 8 75 2
0 4 -34 4 -75z m379 -50 c-1 -63 -6 -115 -11 -115 -9 0 -11 214 -1 223 13 14
14 5 12 -108z m721 11 c0 -53 -4 -98 -10 -101 -6 -4 -10 30 -10 94 0 61 4 101
10 101 6 0 10 -38 10 -94z m-2749 51 c-8 -8 -11 -7 -11 4 0 20 13 34 18 19 3
-7 -1 -17 -7 -23z m1549 -57 c0 -53 -4 -90 -10 -90 -11 0 -14 162 -3 173 12
13 13 7 13 -83z m27 -47 c-2 -27 -3 -5 -3 47 0 52 1 74 3 48 2 -27 2 -69 0
-95z m43 64 c0 -34 -5 -69 -10 -77 -7 -10 -10 11 -10 68 0 53 4 81 10 77 6 -3
10 -34 10 -68z m1157 -104 c-2 -32 -3 -6 -3 57 0 63 1 89 3 58 2 -32 2 -84 0
-115z m-1340 35 c-2 -24 -4 -5 -4 42 0 47 2 66 4 43 2 -24 2 -62 0 -85z m70 0
c-2 -24 -4 -5 -4 42 0 47 2 66 4 43 2 -24 2 -62 0 -85z m480 -35 c-2 -32 -3
-8 -3 52 0 61 1 87 3 58 2 -29 2 -78 0 -110z m1653 92 c0 -36 -4 -65 -8 -65
-5 0 -8 10 -6 23 1 12 3 41 3 65 2 68 11 48 11 -23z m-2160 -15 c0 -40 -4 -70
-10 -70 -11 0 -14 123 -3 133 12 13 13 7 13 -63z m-70 -6 c0 -36 -3 -63 -7
-61 -8 5 -5 127 3 127 2 0 4 -30 4 -66z m-1443 19 c-3 -10 -5 -4 -5 12 0 17 2
24 5 18 2 -7 2 -21 0 -30z m1993 -53 c0 -53 -4 -90 -10 -90 -11 0 -14 138 -4
164 11 30 14 16 14 -74z m1649 30 c-2 -83 -19 -87 -19 -6 0 38 4 66 10 66 6 0
10 -26 9 -60z m-3059 -260 c0 -194 -4 -300 -10 -300 -6 0 -9 38 -6 103 2 56 5
191 5 300 1 108 3 197 6 197 3 0 5 -135 5 -300z m3020 223 c0 -42 -4 -73 -8
-67 -8 9 -4 144 4 144 2 0 4 -35 4 -77z m-2191 45 c-1 -13 -5 -34 -9 -48 -7
-20 -8 -16 -9 23 -1 26 4 47 9 47 6 0 10 -10 9 -22z m751 -44 c0 -27 -4 -43
-10 -39 -17 11 -11 85 7 85 2 0 3 -21 3 -46z m689 -46 c0 -20 -3 -40 -9 -43
-6 -4 -10 20 -9 67 1 55 3 66 9 43 4 -16 8 -47 9 -67z m-1480 40 c0 -31 -3
-37 -8 -24 -7 18 -3 66 5 66 2 0 4 -19 3 -42z m-1399 18 c0 -8 -4 -18 -10 -21
-5 -3 -10 3 -10 14 0 12 5 21 10 21 6 0 10 -6 10 -14z m1950 -42 c0 -34 -4
-53 -10 -49 -5 3 -10 28 -10 56 0 27 5 49 10 49 6 0 10 -25 10 -56z m27 -26
c-2 -18 -4 -6 -4 27 0 33 2 48 4 33 2 -15 2 -42 0 -60z m1623 18 c0 -36 -4
-68 -10 -71 -6 -4 -10 20 -10 64 0 41 4 71 10 71 6 0 10 -28 10 -64z m-2231 2
c-2 -97 -17 -121 -18 -30 -1 49 3 82 9 82 6 0 9 -23 9 -52z m1022 -95 c-1 -75
-4 -139 -7 -142 -2 -2 -4 62 -4 144 0 82 3 146 6 142 3 -3 5 -68 5 -144z
m1166 14 c-2 -23 -3 -1 -3 48 0 50 1 68 3 42 2 -26 2 -67 0 -90z m-1647 73
l-8 -35 -1 45 c-1 27 3 40 8 35 6 -6 6 -25 1 -45z m1550 -55 c0 -63 -4 -105
-10 -105 -6 0 -10 36 -10 89 0 81 5 121 16 121 2 0 4 -47 4 -105z m27 -47 c-2
-29 -3 -6 -3 52 0 58 1 81 3 53 2 -29 2 -77 0 -105z m43 68 c0 -47 -4 -88 -10
-91 -6 -4 -10 27 -10 84 0 54 4 91 10 91 6 0 10 -35 10 -84z m-1170 -26 c0
-55 -4 -100 -8 -100 -5 0 -9 45 -10 100 -1 61 2 100 8 100 6 0 10 -40 10 -100z
m-1033 -82 c-2 -35 -3 -9 -3 57 0 66 1 94 3 63 2 -32 2 -86 0 -120z m1893 162
c0 -5 -5 -10 -11 -10 -5 0 -7 5 -4 10 3 6 8 10 11 10 2 0 4 -4 4 -10z m-2648
-360 l-9 -235 -1 275 c-1 151 2 286 6 300 12 40 13 -80 4 -340z m1305 328 c-3
-7 -5 -2 -5 12 0 14 2 19 5 13 2 -7 2 -19 0 -25z m552 -95 c-1 -71 -5 -213 -8
-318 -7 -185 -7 -182 -9 128 -1 206 2 317 8 317 6 0 10 -48 9 -127z m481 87
c0 -22 -4 -40 -10 -40 -11 0 -14 63 -3 73 11 12 13 8 13 -33z m372 18 c-7 -7
-12 -8 -12 -2 0 14 12 26 19 19 2 -3 -1 -11 -7 -17z m-3325 -20 c-3 -7 -5 -2
-5 12 0 14 2 19 5 13 2 -7 2 -19 0 -25z m2980 -70 c-2 -18 -4 -4 -4 32 0 36 2
50 4 33 2 -18 2 -48 0 -65z m183 85 c0 -5 -5 -15 -10 -23 -8 -12 -10 -11 -10
8 0 12 5 22 10 22 6 0 10 -3 10 -7z m297 -130 c-2 -27 -3 -5 -3 47 0 52 1 74
3 48 2 -27 2 -69 0 -95z m-2120 -10 c-4 -75 -9 -138 -12 -141 -3 -3 -5 58 -5
136 0 100 3 142 11 142 9 0 10 -37 6 -137z m168 -120 c-4 -142 -9 -260 -11
-262 -2 -2 -4 110 -4 251 0 228 3 268 18 268 2 0 1 -116 -3 -257z m35 2 c0
-185 -3 -255 -11 -255 -9 0 -10 55 -6 208 4 114 7 228 7 255 0 26 2 47 5 47 3
0 5 -115 5 -255z m34 83 c-4 -95 -8 -175 -10 -177 -2 -2 -4 75 -4 172 0 118 4
177 11 177 7 0 8 -53 3 -172z m31 -146 c-15 -15 -16 21 -9 165 l9 158 3 -159
c1 -87 0 -161 -3 -164z m34 163 l-5 -140 -2 150 c-1 82 1 145 6 140 4 -6 5
-73 1 -150z m858 58 c-2 -21 -4 -6 -4 32 0 39 2 55 4 38 2 -18 2 -50 0 -70z
m690 75 c-3 -8 -6 -5 -6 6 -1 11 2 17 5 13 3 -3 4 -12 1 -19z m-1516 -236 c-7
-12 -10 17 -11 100 0 155 14 185 18 35 1 -66 -2 -125 -7 -135z m36 66 c-2 -35
-3 -7 -3 62 0 69 1 97 3 63 2 -35 2 -91 0 -125z m42 95 c0 -49 -4 -97 -9 -108
-6 -13 -9 18 -9 88 -1 65 3 107 9 107 6 0 10 -35 9 -87z m1265 -220 c-4 -170
-8 -310 -10 -312 -2 -2 -4 136 -4 307 0 206 3 312 10 312 7 0 8 -100 4 -307z
m76 297 c0 -5 -4 -10 -10 -10 -5 0 -10 5 -10 10 0 6 5 10 10 10 6 0 10 -4 10
-10z m-1313 -133 c-2 -23 -3 -1 -3 48 0 50 1 68 3 42 2 -26 2 -67 0 -90z m42
71 c-1 -100 -17 -118 -18 -20 -1 48 3 82 9 82 6 0 10 -27 9 -62z m-352 -321
c-1 -67 -3 -9 -3 128 0 138 2 192 3 122 2 -71 2 -183 0 -250z m383 306 c0 -39
-4 -63 -9 -57 -8 8 -3 124 5 124 2 0 4 -30 4 -67z m27 -25 c-2 -18 -4 -4 -4
32 0 36 2 50 4 33 2 -18 2 -48 0 -65z m43 36 c0 -34 -4 -53 -10 -49 -18 11
-12 105 7 105 2 0 3 -25 3 -56z m27 -21 c-2 -16 -4 -3 -4 27 0 30 2 43 4 28 2
-16 2 -40 0 -55z m410 55 c-3 -8 -6 -5 -6 6 -1 11 2 17 5 13 3 -3 4 -12 1 -19z
m693 -268 c0 -187 -4 -290 -10 -290 -6 0 -10 56 -10 148 0 154 11 432 17 432
1 0 3 -130 3 -290z m380 210 c0 -47 -4 -80 -10 -80 -11 0 -14 142 -3 153 12
13 13 7 13 -73z m-3464 -10 c-5 -110 -16 -114 -16 -7 0 48 4 87 9 87 6 0 8
-35 7 -80z m1301 -70 c-2 -83 -7 -154 -11 -157 -3 -4 -6 61 -6 144 0 134 3
163 18 163 2 0 2 -68 -1 -150z m723 116 c0 -19 -4 -38 -10 -41 -6 -4 -10 10
-10 34 0 23 5 41 10 41 6 0 10 -15 10 -34z m27 -28 c-2 -13 -4 -3 -4 22 0 25
2 35 4 23 2 -13 2 -33 0 -45z m213 47 c0 -8 -4 -15 -10 -15 -5 0 -10 7 -10 15
0 8 5 15 10 15 6 0 10 -7 10 -15z m-935 -273 c-10 -10 -10 3 -5 143 l5 140 3
-139 c1 -76 0 -141 -3 -144z m765 250 c0 -9 -5 -24 -10 -32 -7 -11 -10 -5 -10
23 0 23 4 36 10 32 6 -3 10 -14 10 -23z m29 -14 c-1 -41 -1 -42 -11 -15 -5 15
-7 34 -4 42 10 27 16 16 15 -27z m28 -25 c-2 -16 -4 -5 -4 22 0 28 2 40 4 28
2 -13 2 -35 0 -50z m43 21 c0 -27 -4 -43 -10 -39 -11 7 -13 45 -4 69 10 26 14
18 14 -30z m27 -6 c-2 -13 -4 -5 -4 17 -1 22 1 32 4 23 2 -10 2 -28 0 -40z
m1204 -35 c-4 -94 -11 -93 -11 2 0 43 3 75 7 72 3 -4 5 -37 4 -74z m-2164
-155 c-1 -40 -3 -8 -3 72 0 80 2 112 3 73 2 -40 2 -106 0 -145z m2133 137 c0
-37 -4 -65 -10 -65 -11 0 -14 113 -3 123 12 13 13 7 13 -58z m-2780 -212 c0
-154 -4 -263 -9 -257 -8 8 -3 524 5 524 2 0 4 -120 4 -267z m2505 225 c-1 -24
-3 -139 -4 -256 0 -117 -4 -211 -8 -209 -11 7 -4 507 6 507 5 0 8 -19 6 -42z
m-1885 16 c0 -8 -4 -12 -10 -9 -5 3 -10 10 -10 16 0 5 5 9 10 9 6 0 10 -7 10
-16z m238 -189 c-2 -113 -6 -205 -10 -205 -5 0 -8 82 -8 183 0 165 5 227 17
227 2 0 3 -92 1 -205z m1883 137 c-4 -80 -11 -79 -11 3 0 38 3 65 7 62 4 -4 5
-33 4 -65z m-211 -410 c-6 -12 -9 59 -10 219 0 130 3 239 8 243 11 12 14 -442
2 -462z m150 388 c0 -32 -4 -62 -10 -65 -6 -4 -10 20 -10 65 0 45 4 69 10 65
6 -3 10 -33 10 -65z m30 10 c0 -33 -4 -60 -9 -60 -5 0 -8 19 -6 43 2 23 4 50
4 60 1 9 3 17 6 17 3 0 5 -27 5 -60z m-2133 -167 c-1 -43 -3 -10 -3 72 0 83 2
118 3 78 2 -40 2 -107 0 -150z m1993 -10 c0 -130 -4 -222 -9 -213 -5 8 -8 29
-6 45 1 17 3 112 3 213 1 100 4 182 7 182 3 0 5 -102 5 -227z m65 -201 c-15
-15 -16 25 -8 220 l8 213 3 -214 c1 -118 0 -216 -3 -219z m-924 301 c-1 -59
-4 -109 -6 -112 -3 -2 -5 49 -5 114 0 65 3 116 6 112 4 -3 6 -54 5 -114z m895
-95 c-3 -116 -8 -214 -11 -216 -3 -3 -5 92 -5 211 0 154 3 217 11 217 8 0 10
-58 5 -212z m-1986 95 c0 -60 -5 -115 -10 -123 -7 -10 -10 25 -10 108 0 75 4
122 10 122 6 0 10 -42 10 -107z m-70 -43 c0 -80 -4 -130 -10 -130 -6 0 -10 35
-10 84 0 80 9 176 16 176 2 0 4 -58 4 -130z m1130 -122 c-1 -139 -5 -269 -10
-288 -5 -22 -8 68 -8 245 0 262 2 295 14 295 2 0 4 -114 4 -252z m-240 176 c0
-41 -4 -63 -10 -59 -11 7 -13 48 -4 94 10 48 14 37 14 -35z m27 -16 c-2 -18
-4 -6 -4 27 0 33 2 48 4 33 2 -15 2 -42 0 -60z m453 -149 c0 -156 -3 -228 -10
-224 -18 11 -11 455 6 455 2 0 4 -104 4 -231z m-519 148 c-4 -87 -11 -85 -11
3 0 40 3 70 7 67 3 -4 5 -35 4 -70z m-894 -139 c-1 -40 -3 -10 -3 67 0 77 1
110 3 73 2 -37 2 -100 0 -140z m860 90 c-2 -24 -4 -7 -4 37 0 44 2 63 4 43 2
-21 2 -57 0 -80z m276 -135 c-3 -131 -7 -240 -9 -242 -2 -2 -4 107 -4 243 0
138 4 245 9 242 5 -3 6 -112 4 -243z m757 37 c0 -133 -4 -210 -10 -210 -6 0
-10 41 -10 103 0 111 11 317 17 317 1 0 3 -94 3 -210z m-1060 120 c0 -38 -4
-72 -10 -75 -6 -4 -10 23 -10 75 0 52 4 79 10 75 6 -3 10 -37 10 -75z m610
-157 c0 -131 -4 -231 -8 -223 -7 16 -4 460 3 460 3 0 5 -107 5 -237z m310 40
c0 -108 -3 -193 -7 -188 -8 10 -6 385 2 385 3 0 5 -89 5 -197z m-1443 -40 c-1
-43 -3 -8 -3 77 0 85 2 120 3 78 2 -43 2 -113 0 -155z m1403 -117 c-7 -7 -10
44 -10 160 0 94 3 174 8 178 4 4 8 -68 10 -160 1 -105 -1 -171 -8 -178z m76
142 c-4 -111 -9 -204 -11 -207 -3 -2 -5 89 -5 202 0 148 3 207 11 207 9 0 10
-53 5 -202z m29 -206 c-15 -15 -16 24 -8 210 l8 203 3 -204 c1 -112 0 -206 -3
-209z m-2359 131 c-4 -147 -9 -270 -12 -272 -2 -2 -4 118 -4 267 0 198 3 272
11 272 9 0 10 -69 5 -267z m514 132 c0 -90 -4 -135 -11 -135 -10 0 -12 213 -2
253 10 39 13 10 13 -118z m817 23 c-2 -24 -4 -7 -4 37 0 44 2 63 4 43 2 -21 2
-57 0 -80z m692 -80 c-4 -298 -16 -337 -18 -55 -1 169 2 247 10 247 7 0 10
-62 8 -192z m28 55 c-2 -27 -3 -5 -3 47 0 52 1 74 3 48 2 -27 2 -69 0 -95z
m170 -95 c-1 -46 -3 -11 -3 77 0 88 2 125 3 83 2 -42 2 -114 0 -160z m182 150
c-1 -46 -5 -137 -9 -203 -6 -115 -7 -111 -8 83 -1 129 2 202 8 202 6 0 9 -33
9 -82z m-1099 1 c0 -44 -4 -68 -10 -64 -18 11 -12 135 7 135 2 0 3 -32 3 -71z
m788 -30 c-1 -49 -6 -89 -10 -89 -5 0 -8 43 -8 96 0 65 3 93 11 89 7 -5 9 -40
7 -96z m32 -11 c0 -62 -4 -108 -8 -103 -8 10 -4 215 4 215 2 0 4 -50 4 -112z
m31 -16 c-1 -64 -5 -119 -7 -121 -2 -2 -4 53 -4 124 0 71 3 125 7 121 4 -4 6
-60 4 -124z m39 -8 c0 -87 -4 -133 -10 -129 -18 11 -12 265 6 265 2 0 4 -61 4
-136z m-551 19 c-1 -88 -3 -98 -9 -58 -6 46 -2 165 6 165 2 0 3 -48 3 -107z
m-1167 -46 c-2 -73 -6 -134 -8 -136 -2 -2 -4 60 -4 139 0 79 3 140 7 136 4 -4
6 -67 5 -139z m785 21 c-2 -24 -4 -5 -4 42 0 47 2 66 4 43 2 -24 2 -62 0 -85z
m-1808 70 c0 -28 -2 -30 -9 -13 -12 28 -12 45 0 45 6 0 10 -15 9 -32z m2431
-104 c0 -87 -4 -133 -10 -129 -16 10 -10 265 6 265 2 0 4 -61 4 -136z m887 94
c-3 -7 -5 -2 -5 12 0 14 2 19 5 13 2 -7 2 -19 0 -25z m36 12 c-3 -11 -7 -20
-9 -20 -2 0 -4 9 -4 20 0 11 4 20 9 20 5 0 7 -9 4 -20z m-2363 -126 c0 -74 -3
-133 -7 -131 -8 5 -5 267 3 267 2 0 4 -61 4 -136z m747 19 c-2 -21 -4 -4 -4
37 0 41 2 58 4 38 2 -21 2 -55 0 -75z m43 57 c0 -27 -4 -50 -10 -50 -11 0 -14
83 -3 93 12 12 13 8 13 -43z m-70 -32 c0 -42 -4 -68 -9 -62 -8 8 -3 134 5 134
2 0 4 -32 4 -72z m-40 -39 c-7 -38 -8 -34 -8 31 0 53 2 66 7 44 4 -17 5 -51 1
-75z m-718 -52 c-1 -72 -5 -133 -7 -136 -3 -2 -5 60 -5 139 0 79 3 140 7 136
4 -4 7 -66 5 -139z m418 48 c0 -50 -4 -85 -10 -85 -11 0 -14 152 -3 163 12 13
13 7 13 -78z m197 -27 c-2 -24 -4 -7 -4 37 0 44 2 63 4 43 2 -21 2 -57 0 -80z
m70 10 c-2 -18 -4 -4 -4 32 0 36 2 50 4 33 2 -18 2 -48 0 -65z m1610 -50 c-2
-29 -3 -8 -3 47 0 55 1 79 3 53 2 -26 2 -71 0 -100z m-1639 71 c-1 -72 -18
-71 -18 1 0 37 4 59 10 55 5 -3 9 -28 8 -56z m1739 -1 c-2 -13 -4 -3 -4 22 0
25 2 35 4 23 2 -13 2 -33 0 -45z m-2837 -273 c0 -210 -4 -325 -10 -325 -6 0
-10 44 -10 113 0 145 12 537 17 537 1 0 3 -146 3 -325z m407 113 c-1 -40 -3
-8 -3 72 0 80 2 112 3 73 2 -40 2 -106 0 -145z m2400 100 c-2 -24 -4 -7 -4 37
0 44 2 63 4 43 2 -21 2 -57 0 -80z m-3290 80 c-3 -8 -6 -5 -6 6 -1 11 2 17 5
13 3 -3 4 -12 1 -19z m3263 -54 c0 -47 -4 -73 -10 -69 -5 3 -10 37 -10 76 0
39 4 69 10 69 6 0 10 -32 10 -76z m-1210 -227 l-7 -182 0 235 c0 129 3 211 6
182 4 -29 4 -134 1 -235z m312 241 c-5 -71 -10 -77 -11 -15 0 31 2 57 7 57 4
0 6 -19 4 -42z m-2322 1 c0 -5 -4 -9 -10 -9 -5 0 -10 7 -10 16 0 8 5 12 10 9
6 -3 10 -10 10 -16z m819 -91 c-2 -173 -16 -197 -18 -30 -1 89 3 142 9 142 6
0 10 -43 9 -112z m-899 -172 c-7 -7 -10 28 -10 111 0 166 14 189 18 29 2 -79
-1 -133 -8 -140z m39 107 c0 -71 -4 -117 -7 -103 -7 26 -4 230 4 230 2 0 4
-57 3 -127z m818 -100 c-1 -43 -3 -8 -3 77 0 85 2 120 3 78 2 -43 2 -113 0
-155z m480 190 c-3 -10 -5 -4 -5 12 0 17 2 24 5 18 2 -7 2 -21 0 -30z m523 28
c0 -6 -4 -13 -10 -16 -5 -3 -10 1 -10 9 0 9 5 16 10 16 6 0 10 -4 10 -9z m750
-132 c0 -100 -3 -138 -11 -133 -8 4 -9 47 -6 138 7 149 5 136 12 136 3 0 5
-63 5 -141z m-863 -46 c-2 -32 -3 -6 -3 57 0 63 1 89 3 58 2 -32 2 -84 0 -115z
m-1610 125 c-3 -8 -6 -5 -6 6 -1 11 2 17 5 13 3 -3 4 -12 1 -19z m692 -121
c-3 -223 -16 -260 -18 -51 -1 160 2 194 16 194 2 0 3 -64 2 -143z m438 -24
c-2 -32 -3 -6 -3 57 0 63 1 89 3 58 2 -32 2 -84 0 -115z m720 105 c-2 -13 -4
-3 -4 22 0 25 2 35 4 23 2 -13 2 -33 0 -45z m-1507 -98 l-7 -145 -1 141 c-2
118 2 165 13 152 1 -2 -1 -68 -5 -148z m1170 134 c0 -8 -5 -12 -10 -9 -6 4 -8
11 -5 16 9 14 15 11 15 -7z m27 -117 c-2 -23 -3 -1 -3 48 0 50 1 68 3 42 2
-26 2 -67 0 -90z m960 -64 c-2 -38 -3 -7 -3 67 0 74 1 105 3 68 2 -38 2 -98 0
-135z m-2670 54 c-2 -23 -3 -1 -3 48 0 50 1 68 3 42 2 -26 2 -67 0 -90z m103
13 l-7 -95 -1 110 c-1 61 2 103 7 95 4 -8 5 -58 1 -110z m1027 83 c-3 -10 -5
-4 -5 12 0 17 2 24 5 18 2 -7 2 -21 0 -30z m143 -83 c0 -71 -4 -110 -11 -110
-10 0 -12 195 -2 213 11 18 13 0 13 -103z m203 95 c4 -8 2 -17 -3 -20 -6 -4
-10 3 -10 14 0 25 6 27 13 6z m37 5 c0 -5 -2 -10 -4 -10 -3 0 -8 5 -11 10 -3
6 -1 10 4 10 6 0 11 -4 11 -10z m-143 -82 c-2 -18 -4 -6 -4 27 0 33 2 48 4 33
2 -15 2 -42 0 -60z m38 37 c1 -19 -2 -35 -7 -35 -4 0 -8 19 -8 42 0 49 12 44
15 -7z m34 13 c0 -27 -2 -29 -8 -13 -5 11 -6 26 -4 33 8 21 13 13 12 -20z
m886 -546 c-4 -277 -9 -501 -12 -498 -4 4 -3 874 2 941 1 17 3 55 5 85 9 152
11 -65 5 -528z m384 448 c-1 -72 -6 -133 -11 -136 -4 -3 -8 56 -8 130 0 86 4
136 10 136 7 0 10 -47 9 -130z m-1898 -840 c-8 -220 -8 -208 -7 200 0 239 3
509 6 600 4 122 6 70 7 -200 2 -201 -1 -471 -6 -600z m528 908 c-1 -87 -17
-105 -18 -20 -1 42 3 72 9 72 6 0 10 -24 9 -52z m298 0 c-2 -13 -4 -5 -4 17
-1 22 1 32 4 23 2 -10 2 -28 0 -40z m-1497 -39 c0 -51 -4 -78 -10 -74 -17 10
-11 155 6 155 2 0 4 -36 4 -81z m1087 -76 c-2 -32 -3 -8 -3 52 0 61 1 87 3 58
2 -29 2 -78 0 -110z m853 -207 c-12 -12 -14 207 -2 305 5 50 8 25 10 -115 1
-113 -1 -183 -8 -190z m660 223 c0 -88 -4 -138 -10 -134 -5 3 -8 29 -6 58 2
29 4 89 5 135 0 45 3 82 6 82 3 0 5 -63 5 -141z m-2770 71 c0 -27 -4 -50 -10
-50 -11 0 -14 59 -4 84 10 27 14 18 14 -34z m1230 -55 c0 -67 -4 -105 -11
-105 -10 0 -12 128 -2 183 10 49 13 28 13 -78z m677 48 c-3 -10 -5 -2 -5 17 0
19 2 27 5 18 2 -10 2 -26 0 -35z m894 -108 l-8 -140 -2 150 c0 94 3 145 8 140
6 -6 7 -64 2 -150z m-2604 78 c-2 -16 -4 -5 -4 22 0 28 2 40 4 28 2 -13 2 -35
0 -50z m615 -471 c-3 -293 -8 -530 -11 -526 -7 7 -1 1045 6 1057 3 5 6 7 8 5
2 -2 0 -243 -3 -536z m1368 384 c-7 -7 -10 13 -10 65 0 98 14 112 18 18 2 -41
-2 -77 -8 -83z m201 -746 c-7 -119 -9 -47 -5 305 2 253 5 492 6 530 2 39 4
-99 5 -305 2 -206 -1 -445 -6 -530z m-1189 793 c-5 -145 -9 -153 -11 -20 0 64
3 117 7 117 4 0 6 -44 4 -97z m-550 -230 c-1 -175 -4 -327 -6 -338 -2 -11 -4
125 -5 302 -1 270 2 353 13 353 0 0 0 -143 -2 -317z m1055 270 c-3 -10 -5 -4
-5 12 0 17 2 24 5 18 2 -7 2 -21 0 -30z m-1740 -5 c-3 -7 -5 -2 -5 12 0 14 2
19 5 13 2 -7 2 -19 0 -25z m283 22 c0 -5 -4 -10 -10 -10 -5 0 -10 5 -10 10 0
6 5 10 10 10 6 0 10 -4 10 -10z m531 -886 c-7 -49 -9 37 -6 295 8 599 10 626
12 190 2 -231 -1 -447 -6 -485z m389 770 c0 -81 -4 -123 -10 -119 -5 3 -10 25
-10 49 0 55 12 196 16 196 2 0 4 -57 4 -126z m710 -4 c-9 -21 -10 -17 -5 24 3
27 6 63 7 80 1 17 3 6 5 -24 2 -31 -1 -67 -7 -80z m149 53 c-3 -115 -18 -136
-18 -27 -1 80 3 104 16 104 2 0 3 -35 2 -77z m408 -105 c-4 -99 -7 -335 -7
-522 0 -192 -4 -334 -9 -326 -13 22 -1 1030 12 1030 7 0 8 -61 4 -182z m413
-56 c-1 -131 -5 -244 -10 -252 -6 -10 -10 69 -10 222 0 212 3 268 16 268 2 0
4 -107 4 -238z m27 156 c-2 -13 -4 -3 -4 22 0 25 2 35 4 23 2 -13 2 -33 0 -45z
m310 25 c-3 -10 -5 -4 -5 12 0 17 2 24 5 18 2 -7 2 -21 0 -30z m-267 -3 c0
-16 -4 -30 -10 -30 -5 0 -10 14 -10 30 0 17 5 30 10 30 6 0 10 -13 10 -30z
m27 -7 c-3 -10 -5 -4 -5 12 0 17 2 24 5 18 2 -7 2 -21 0 -30z m43 6 c0 -10 -4
-19 -10 -19 -5 0 -10 12 -10 26 0 14 4 23 10 19 6 -3 10 -15 10 -26z m170 11
c0 -11 -4 -20 -10 -20 -5 0 -10 9 -10 20 0 11 5 20 10 20 6 0 10 -9 10 -20z
m-2028 -116 l-9 -109 -2 120 c-1 84 2 116 10 108 7 -7 7 -44 1 -119z m1329
-679 l-8 -230 -1 360 c-1 198 1 432 6 520 7 155 7 151 9 -130 2 -159 -1 -393
-6 -520z m556 773 c-3 -7 -5 -2 -5 12 0 14 2 19 5 13 2 -7 2 -19 0 -25z m35 0
c-9 -9 -12 -7 -12 12 0 19 3 21 12 12 9 -9 9 -15 0 -24z m35 0 c-3 -7 -5 -2
-5 12 0 14 2 19 5 13 2 -7 2 -19 0 -25z m36 17 c4 -8 2 -17 -3 -20 -6 -4 -10
3 -10 14 0 25 6 27 13 6z m-1586 -47 c-2 -13 -4 -5 -4 17 -1 22 1 32 4 23 2
-10 2 -28 0 -40z m-786 -503 l-8 -280 -1 407 c0 224 3 410 6 413 11 11 13
-241 3 -540z m276 513 c-3 -8 -6 -5 -6 6 -1 11 2 17 5 13 3 -3 4 -12 1 -19z
m72 -118 c-1 -77 -6 -143 -10 -146 -5 -3 -9 26 -9 64 0 78 11 222 17 222 2 0
3 -63 2 -140z m-384 -588 c-3 -3 -6 -3 -8 -1 -2 2 -1 166 2 364 l6 360 3 -359
c1 -198 0 -361 -3 -364z m1785 228 c0 -315 -4 -488 -11 -499 -7 -11 -9 87 -5
324 3 187 6 414 6 504 0 90 3 162 6 159 3 -3 5 -223 4 -488z m-893 273 c-2
-38 -3 -7 -3 67 0 74 1 105 3 68 2 -38 2 -98 0 -135z m-544 30 c-6 -199 -11
-203 -12 -10 -1 86 3 157 8 157 4 0 6 -66 4 -147z m444 -5 c-2 -29 -3 -6 -3
52 0 58 1 81 3 53 2 -29 2 -77 0 -105z m1674 -683 c-7 -91 -8 -57 -10 205 0
173 2 387 7 475 6 140 7 114 9 -205 2 -201 -1 -414 -6 -475z m-2501 241 c-12
-12 -13 489 -1 555 3 19 7 -96 9 -255 1 -197 -1 -293 -8 -300z m1856 142 c-4
-244 -9 -445 -12 -447 -2 -3 -4 194 -4 436 1 401 3 453 18 453 3 0 2 -199 -2
-442z m344 265 c0 -98 -4 -173 -8 -166 -4 7 -7 25 -6 40 0 15 2 90 2 166 1 75
4 137 7 137 3 0 5 -80 5 -177z m274 -280 c-4 -252 -8 -460 -10 -462 -2 -2 -6
-2 -8 0 -8 9 7 919 15 919 5 0 6 -196 3 -457z m-2740 395 c5 -32 4 -48 -3 -48
-7 0 -11 22 -11 52 0 62 5 60 14 -4z m1576 -18 c0 -38 -4 -70 -9 -70 -6 0 -8
17 -6 38 1 20 3 52 4 70 2 62 11 31 11 -38z m929 -12 c-1 -46 -5 -117 -9 -158
-6 -63 -7 -50 -8 83 -1 99 2 157 8 157 6 0 9 -33 9 -82z m31 -53 c0 -74 -4
-135 -9 -135 -5 0 -8 46 -7 103 4 141 5 167 11 167 3 0 5 -61 5 -135z m169
-242 c-1 -208 -5 -416 -9 -463 -5 -65 -7 -37 -8 121 -2 214 9 719 15 719 2 0
3 -170 2 -377z m-2098 -29 c-7 -28 -9 0 -6 106 6 267 9 296 12 114 2 -99 -1
-198 -6 -220z m2068 194 c-1 -112 -5 -315 -9 -453 -6 -233 -6 -220 -8 203 -1
296 1 452 8 452 6 0 9 -73 9 -202z m-1862 170 c-3 -8 -6 -5 -6 6 -1 11 2 17 5
13 3 -3 4 -12 1 -19z m860 -145 c-2 -32 -3 -6 -3 57 0 63 1 89 3 58 2 -32 2
-84 0 -115z m960 90 c-2 -16 -4 -3 -4 27 0 30 2 43 4 28 2 -16 2 -40 0 -55z
m-1270 -50 c-2 -21 -4 -4 -4 37 0 41 2 58 4 38 2 -21 2 -55 0 -75z m783 -677
c-12 -12 -13 119 -2 509 l7 280 3 -389 c1 -253 -1 -393 -8 -400z m-1564 621
c-2 -78 -5 -337 -5 -574 -1 -319 -4 -433 -12 -433 -9 0 -10 68 -6 263 4 144 7
405 7 580 0 217 3 316 10 312 7 -4 9 -57 6 -148z m646 -64 l-10 -48 -1 51 c0
28 2 87 7 130 l7 79 3 -82 c1 -44 -1 -103 -6 -130z m105 145 c-2 -13 -4 -3 -4
22 0 25 2 35 4 23 2 -13 2 -33 0 -45z m483 16 c0 -27 -4 -43 -10 -39 -8 5 -8
29 -1 78 0 4 3 7 6 7 3 0 5 -21 5 -46z m27 -96 c-2 -29 -3 -8 -3 47 0 55 1 79
3 53 2 -26 2 -71 0 -100z m73 -233 c-1 -219 -5 -367 -10 -370 -6 -4 -10 36
-10 102 0 159 13 633 17 633 2 0 3 -164 3 -365z m272 5 c-4 -293 -6 -343 -14
-329 -2 2 -1 159 0 349 2 190 7 336 11 325 4 -10 6 -166 3 -345z m375 238 c-2
-24 -4 -5 -4 42 0 47 2 66 4 43 2 -24 2 -62 0 -85z m-2528 35 c-1 -75 -2 -76
-11 -36 -9 37 -4 113 7 113 3 0 4 -35 4 -77z m171 -105 c-1 -138 -3 -178 -12
-164 -7 13 -9 68 -5 170 4 83 7 157 7 164 0 6 2 12 5 12 3 0 5 -82 5 -182z
m1672 -338 c-9 -194 -9 -193 -10 156 -1 193 1 354 6 358 11 11 13 -293 4 -514z
m-1915 398 c-2 -24 -4 -7 -4 37 0 44 2 63 4 43 2 -21 2 -57 0 -80z m574 -773
l-8 -190 -1 230 c-1 127 1 370 6 540 l7 310 2 -350 c2 -192 -1 -435 -6 -540z
m-474 798 c-2 -16 -4 -3 -4 27 0 30 2 43 4 28 2 -16 2 -40 0 -55z m1335 -59
l-10 -49 -1 55 c0 30 3 73 7 95 l7 40 3 -46 c2 -25 -1 -68 -6 -95z m995 104
c-3 -8 -6 -5 -6 6 -1 11 2 17 5 13 3 -3 4 -12 1 -19z m-1370 -40 c-3 -7 -5 -2
-5 12 0 14 2 19 5 13 2 -7 2 -19 0 -25z m270 -5 c-3 -10 -5 -4 -5 12 0 17 2
24 5 18 2 -7 2 -21 0 -30z m240 0 c-3 -10 -5 -4 -5 12 0 17 2 24 5 18 2 -7 2
-21 0 -30z m-1023 -452 c-4 -259 -9 -469 -12 -467 -6 7 -2 928 5 938 3 5 7 7
9 5 3 -3 2 -217 -2 -476z m443 382 c-2 -21 -4 -6 -4 32 0 39 2 55 4 38 2 -18
2 -50 0 -70z m204 -55 l-9 -33 -1 35 c0 19 3 60 7 90 l7 55 3 -57 c2 -31 -1
-71 -7 -90z m489 65 c0 -43 -5 -85 -10 -93 -7 -10 -10 14 -10 78 0 55 4 92 10
92 6 0 10 -32 10 -77z m980 -657 c-12 -12 -13 182 -2 510 l7 229 3 -364 c1
-237 -1 -368 -8 -375z m-2526 684 c4 -25 3 -31 -4 -20 -5 8 -10 26 -10 39 0
32 6 24 14 -19z m2126 -75 c0 -63 -4 -105 -10 -105 -6 0 -8 33 -5 88 2 48 4
95 5 105 0 9 2 17 5 17 3 0 5 -47 5 -105z m575 -633 c-3 -3 -7 -3 -10 0 -3 3
-2 171 2 374 l8 369 3 -369 c1 -203 0 -371 -3 -374z m-2808 656 c-2 -13 -4 -3
-4 22 0 25 2 35 4 23 2 -13 2 -33 0 -45z m2400 -60 c-2 -24 -4 -5 -4 42 0 47
2 66 4 43 2 -24 2 -62 0 -85z m-2500 25 c-2 -16 -4 -3 -4 27 0 30 2 43 4 28 2
-16 2 -40 0 -55z m1230 -45 c-2 -24 -4 -5 -4 42 0 47 2 66 4 43 2 -24 2 -62 0
-85z m1243 58 c0 -36 -4 -68 -10 -71 -6 -4 -10 20 -10 64 0 41 4 71 10 71 6 0
10 -28 10 -64z m-113 -68 c-2 -24 -4 -5 -4 42 0 47 2 66 4 43 2 -24 2 -62 0
-85z m70 10 c-2 -24 -4 -7 -4 37 0 44 2 63 4 43 2 -21 2 -57 0 -80z m278 -215
c-4 -181 -9 -330 -11 -332 -2 -2 -4 145 -4 327 0 233 3 332 11 332 8 0 9 -94
4 -327z m-998 165 c-2 -29 -3 -6 -3 52 0 58 1 81 3 53 2 -29 2 -77 0 -105z
m693 82 c0 -40 -4 -70 -10 -70 -6 0 -10 30 -10 70 0 40 4 70 10 70 6 0 10 -30
10 -70z m-1820 -325 c-1 -277 -4 -385 -12 -385 -8 0 -9 74 -5 272 4 149 7 322
7 385 0 62 2 113 5 113 3 0 5 -173 5 -385z m857 363 c-3 -8 -6 -5 -6 6 -1 11
2 17 5 13 3 -3 4 -12 1 -19z m170 -15 c-3 -10 -5 -4 -5 12 0 17 2 24 5 18 2
-7 2 -21 0 -30z m-241 -71 c-11 -10 -12 3 -7 53 l6 50 3 -49 c2 -26 1 -51 -2
-54z m101 36 c-2 -13 -4 -3 -4 22 0 25 2 35 4 23 2 -13 2 -33 0 -45z m1198
-556 c-15 -15 -16 32 -8 310 l8 303 3 -304 c1 -167 0 -306 -3 -309z m-1748
576 c-3 -8 -6 -5 -6 6 -1 11 2 17 5 13 3 -3 4 -12 1 -19z m33 -118 c-10 -23
-10 -22 -5 9 3 18 6 57 7 85 l2 51 3 -60 c2 -34 -1 -72 -7 -85z m-923 58 c-2
-13 -4 -5 -4 17 -1 22 1 32 4 23 2 -10 2 -28 0 -40z m2609 -230 c-4 -156 -9
-285 -12 -287 -2 -2 -4 122 -4 276 0 253 2 293 18 293 3 0 2 -127 -2 -282z
m-965 64 c-8 -12 -10 10 -11 80 0 130 14 159 18 35 1 -53 -2 -105 -7 -115z
m274 -230 c-14 -14 -15 23 -8 224 l8 219 3 -219 c1 -120 0 -221 -3 -224z
m-1945 242 c0 -120 -3 -173 -10 -169 -15 9 -9 345 6 345 2 0 4 -79 4 -176z
m1191 44 l-9 -33 -1 36 c-1 20 2 58 7 85 l7 49 3 -52 c2 -28 -1 -66 -7 -85z
m106 70 c-2 -13 -4 -3 -4 22 0 25 2 35 4 23 2 -13 2 -33 0 -45z m270 40 c-3
-8 -6 -5 -6 6 -1 11 2 17 5 13 3 -3 4 -12 1 -19z m70 -205 c-1 -43 -3 -8 -3
77 0 85 2 120 3 78 2 -43 2 -113 0 -155z m170 -26 c-1 -45 -3 -5 -3 88 0 94 2
130 3 82 2 -48 2 -125 0 -170z m42 96 c0 -87 -4 -167 -9 -178 -5 -12 -9 49 -9
158 -1 112 3 177 9 177 6 0 10 -59 9 -157z m-1648 105 c2 -20 0 -40 -4 -44 -4
-4 -7 14 -7 41 0 56 7 57 11 3z m2394 -476 c-15 -15 -16 28 -8 265 l8 258 3
-259 c1 -142 0 -261 -3 -264z m347 187 l-9 -264 0 300 c-1 208 2 289 9 264 6
-22 6 -133 0 -300z m-1023 193 c-1 -64 -5 -148 -9 -187 -5 -53 -8 -22 -9 123
-1 131 2 191 9 187 7 -4 10 -52 9 -123z m-40 -64 c0 -95 -3 -164 -7 -153 -8
21 -4 325 4 325 2 0 4 -78 3 -172z m687 -70 c-4 -133 -9 -244 -11 -247 -3 -2
-5 104 -5 236 0 217 3 253 18 253 3 0 2 -109 -2 -242z m-2399 170 c-2 -13 -4
-3 -4 22 0 25 2 35 4 23 2 -13 2 -33 0 -45z m1266 -340 c-3 -222 -7 -405 -9
-407 -2 -2 -4 169 -4 380 0 338 4 429 15 429 2 0 1 -181 -2 -402z m28 -309
c-11 -26 -12 450 -2 621 3 53 7 -58 9 -251 1 -208 -2 -356 -7 -370z m-334 639
c-2 -13 -4 -3 -4 22 0 25 2 35 4 23 2 -13 2 -33 0 -45z m410 25 c-3 -10 -5 -4
-5 12 0 17 2 24 5 18 2 -7 2 -21 0 -30z m994 -190 c-2 -120 -7 -200 -10 -178
-8 54 -2 407 7 401 4 -2 5 -102 3 -223z m-921 44 c-1 -90 -6 -170 -11 -178 -5
-9 -9 52 -9 157 0 151 3 184 17 184 2 0 3 -73 3 -163z m170 47 c0 -74 -4 -113
-10 -109 -16 10 -10 225 6 225 2 0 4 -52 4 -116z m720 -74 c-1 -109 -5 -190
-11 -190 -5 0 -9 62 -9 144 0 133 7 236 17 236 2 0 3 -85 3 -190z m-2373 148
c-3 -7 -5 -2 -5 12 0 14 2 19 5 13 2 -7 2 -19 0 -25z m112 -21 c-1 -40 -2 -40
-9 -12 -11 44 -11 67 0 60 6 -3 9 -25 9 -48z m578 -54 c-2 -21 -4 -4 -4 37 0
41 2 58 4 38 2 -21 2 -55 0 -75z m542 33 c-9 -8 -10 -7 -5 7 3 10 7 31 8 45 1
22 2 21 5 -7 3 -19 -1 -38 -8 -45z m38 27 c-3 -10 -5 -2 -5 17 0 19 2 27 5 18
2 -10 2 -26 0 -35z m924 -211 c-7 -12 -10 22 -11 114 0 72 3 134 8 138 11 12
14 -232 3 -252z m-1060 158 l-9 -45 -1 52 c-1 58 12 107 17 63 1 -14 -2 -45
-7 -70z m1099 -12 c0 -56 -3 -98 -8 -92 -7 9 -4 194 4 194 2 0 4 -46 4 -102z
m-857 40 c-7 -78 -11 -82 -12 -10 -1 34 3 62 8 62 4 0 6 -24 4 -52z m896 5
c-1 -80 -17 -98 -18 -20 -1 38 3 67 9 67 6 0 10 -21 9 -47z m28 10 c-3 -10 -5
-4 -5 12 0 17 2 24 5 18 2 -7 2 -21 0 -30z m-1378 -117 c-9 -8 -10 -2 -5 29 3
22 7 56 8 75 1 19 3 6 5 -29 3 -41 0 -68 -8 -75z m-852 77 c-3 -10 -5 -2 -5
17 0 19 2 27 5 18 2 -10 2 -26 0 -35z m70 -5 c-2 -13 -4 -5 -4 17 -1 22 1 32
4 23 2 -10 2 -28 0 -40z m720 -55 c-2 -21 -4 -4 -4 37 0 41 2 58 4 38 2 -21 2
-55 0 -75z m1475 -5 c-4 -180 -9 -195 -10 -35 -1 81 1 147 6 147 4 0 6 -51 4
-112z m-2435 65 c-3 -10 -5 -4 -5 12 0 17 2 24 5 18 2 -7 2 -21 0 -30z m1540
-225 c-1 -51 -3 -12 -3 87 0 99 2 141 3 93 2 -48 2 -129 0 -180z m-348 88 c-9
-8 -10 -1 -5 29 3 22 7 63 8 90 1 33 3 23 5 -29 3 -52 0 -83 -8 -90z m76 97
c-10 -53 -18 -32 -9 24 4 26 10 40 12 30 2 -11 1 -35 -3 -54z m-511 -35 c-3
-51 -8 -95 -10 -97 -6 -7 -4 142 2 167 12 44 15 20 8 -70z m953 0 c-2 -18 -4
-4 -4 32 0 36 2 50 4 33 2 -18 2 -48 0 -65z m-820 10 c-2 -13 -4 -3 -4 22 0
25 2 35 4 23 2 -13 2 -33 0 -45z m240 0 c-2 -13 -4 -3 -4 22 0 25 2 35 4 23 2
-13 2 -33 0 -45z m-987 15 c0 -43 -5 -41 -13 5 -4 18 -2 32 3 32 6 0 10 -16
10 -37z m677 -25 c-2 -13 -4 -3 -4 22 0 25 2 35 4 23 2 -13 2 -33 0 -45z m240
40 c-3 -8 -6 -5 -6 6 -1 11 2 17 5 13 3 -3 4 -12 1 -19z m233 -801 c-7 -22 -8
63 -5 278 8 525 10 543 12 142 2 -239 -1 -401 -7 -420z m80 463 c-1 -197 -5
-342 -11 -345 -5 -4 -9 77 -9 203 0 207 10 482 17 482 2 0 3 -153 3 -340z
m139 171 c-1 -94 -6 -176 -10 -183 -5 -7 -9 62 -9 154 0 151 4 198 17 198 2 0
3 -76 2 -169z m168 132 c-3 -10 -5 -4 -5 12 0 17 2 24 5 18 2 -7 2 -21 0 -30z
m723 -48 c0 -50 -4 -85 -10 -85 -11 0 -14 128 -4 154 11 30 14 16 14 -69z
m-2191 5 c0 -23 -1 -23 -9 -5 -5 11 -9 31 -9 45 0 23 1 23 9 5 5 -11 9 -31 9
-45z m63 35 c3 -14 1 -25 -3 -25 -5 0 -9 11 -9 25 0 14 2 25 4 25 2 0 6 -11 8
-25z m579 -130 c-9 -40 -9 -40 -10 20 0 33 3 78 7 100 7 39 7 38 10 -20 1 -33
-1 -78 -7 -100z m142 98 c-6 -84 -11 -88 -12 -10 -1 37 3 67 7 67 5 0 7 -26 5
-57z m167 17 c-5 -22 -8 -27 -9 -13 -1 21 9 56 14 51 2 -2 0 -19 -5 -38z
m-1161 -142 c0 -126 -3 -165 -10 -143 -6 17 -8 71 -5 120 3 50 6 114 6 143 0
28 2 52 5 52 3 0 5 -78 4 -172z m68 150 c-3 -8 -6 -5 -6 6 -1 11 2 17 5 13 3
-3 4 -12 1 -19z m100 -35 c-3 -10 -5 -4 -5 12 0 17 2 24 5 18 2 -7 2 -21 0
-30z m550 -55 c-2 -18 -4 -4 -4 32 0 36 2 50 4 33 2 -18 2 -48 0 -65z m750
-210 c-1 -57 -3 -11 -3 102 0 113 2 159 3 103 2 -57 2 -149 0 -205z m-544 230
c-8 -84 -13 -86 -13 -5 0 37 4 67 10 67 6 0 7 -24 3 -62z m717 -33 l-7 -70 -1
80 c-1 43 2 75 6 70 5 -6 5 -41 2 -80z m721 40 c-9 -30 -9 -30 -10 10 -1 25 2
36 9 29 6 -6 6 -21 1 -39z m-2124 -42 c-2 -16 -4 -3 -4 27 0 30 2 43 4 28 2
-16 2 -40 0 -55z m70 45 c-3 -7 -5 -2 -5 12 0 14 2 19 5 13 2 -7 2 -19 0 -25z
m914 -859 c-12 -31 -13 152 -3 577 l7 319 3 -436 c1 -258 -2 -446 -7 -460z
m109 546 l-6 -340 -2 327 c-2 277 2 371 13 356 1 -2 -1 -156 -5 -343z m350
255 c0 -40 -4 -70 -10 -70 -6 0 -10 30 -10 70 0 40 4 70 10 70 6 0 10 -30 10
-70z m-553 8 c-2 -13 -4 -5 -4 17 -1 22 1 32 4 23 2 -10 2 -28 0 -40z m-1030
20 c-3 -8 -6 -5 -6 6 -1 11 2 17 5 13 3 -3 4 -12 1 -19z m113 -19 c0 -10 -4
-19 -10 -19 -5 0 -10 12 -10 26 0 14 4 23 10 19 6 -3 10 -15 10 -26z m57 -6
c-3 -10 -5 -4 -5 12 0 17 2 24 5 18 2 -7 2 -21 0 -30z m520 15 c-3 -8 -6 -5
-6 6 -1 11 2 17 5 13 3 -3 4 -12 1 -19z m920 -95 c-2 -21 -4 -4 -4 37 0 41 2
58 4 38 2 -21 2 -55 0 -75z m-890 30 c-2 -16 -4 -5 -4 22 0 28 2 40 4 28 2
-13 2 -35 0 -50z m70 5 c-2 -13 -4 -3 -4 22 0 25 2 35 4 23 2 -13 2 -33 0 -45z
m375 -315 c-2 -205 -7 -373 -11 -373 -7 0 -3 672 5 719 3 18 7 31 8 30 2 -2 1
-172 -2 -376z m487 292 c-1 -36 -5 -65 -10 -65 -5 0 -9 29 -9 65 0 36 4 65 10
65 5 0 9 -28 9 -65z m-692 18 c-3 -10 -5 -4 -5 12 0 17 2 24 5 18 2 -7 2 -21
0 -30z m100 -25 c-2 -13 -4 -3 -4 22 0 25 2 35 4 23 2 -13 2 -33 0 -45z m38
-390 c-4 -244 -9 -445 -11 -447 -7 -7 -4 856 2 873 3 9 8 16 11 16 3 0 2 -199
-2 -442z m585 371 c0 -38 -4 -68 -8 -65 -7 4 -8 25 -4 104 4 60 12 32 12 -39z
m-1103 39 c-3 -8 -6 -5 -6 6 -1 11 2 17 5 13 3 -3 4 -12 1 -19z m70 -60 c-2
-18 -4 -6 -4 27 0 33 2 48 4 33 2 -15 2 -42 0 -60z m1540 60 c-3 -8 -6 -5 -6
6 -1 11 2 17 5 13 3 -3 4 -12 1 -19z m-2120 -25 c-3 -10 -5 -4 -5 12 0 17 2
24 5 18 2 -7 2 -21 0 -30z m1644 -40 c-3 -94 -11 -93 -11 2 0 43 3 75 7 72 3
-4 5 -37 4 -74z m519 41 c0 -8 -4 -12 -10 -9 -5 3 -10 10 -10 16 0 5 5 9 10 9
6 0 10 -7 10 -16z m-480 -59 c0 -37 -4 -65 -10 -65 -6 0 -10 28 -10 65 0 37 4
65 10 65 6 0 10 -28 10 -65z m-1132 -20 c-2 -79 -18 -106 -18 -31 0 46 10 106
17 106 2 0 3 -34 1 -75z m409 43 c-3 -7 -5 -2 -5 12 0 14 2 19 5 13 2 -7 2
-19 0 -25z m-1100 -220 c-1 -46 -3 -9 -3 82 0 91 2 128 3 83 2 -46 2 -120 0
-165z m240 205 c-3 -10 -5 -4 -5 12 0 17 2 24 5 18 2 -7 2 -21 0 -30z m514
-25 c-8 -28 -9 -30 -10 -8 -1 34 12 80 17 58 2 -9 -1 -31 -7 -50z m206 0 c-2
-13 -4 -3 -4 22 0 25 2 35 4 23 2 -13 2 -33 0 -45z m113 48 c0 -8 -4 -18 -10
-21 -5 -3 -10 3 -10 14 0 12 5 21 10 21 6 0 10 -6 10 -14z m777 -53 c-2 -16
-4 -5 -4 22 0 28 2 40 4 28 2 -13 2 -35 0 -50z m480 35 c-3 -7 -5 -2 -5 12 0
14 2 19 5 13 2 -7 2 -19 0 -25z m-1401 -56 c-12 -11 -16 6 -9 39 l8 34 3 -33
c2 -19 1 -36 -2 -40z m-39 11 c-3 -10 -5 -2 -5 17 0 19 2 27 5 18 2 -10 2 -26
0 -35z m233 -777 c-12 -12 -13 106 -2 525 l7 304 3 -409 c1 -267 -1 -413 -8
-420z m417 727 c-2 -21 -4 -6 -4 32 0 39 2 55 4 38 2 -18 2 -50 0 -70z m353
87 c0 -5 -4 -10 -10 -10 -5 0 -10 5 -10 10 0 6 5 10 10 10 6 0 10 -4 10 -10z
m475 1 c3 -5 1 -12 -5 -16 -5 -3 -10 1 -10 9 0 18 6 21 15 7z m-1509 -69 c-11
-10 -14 3 -7 38 l6 35 3 -33 c2 -19 1 -36 -2 -40z m-577 13 c0 -5 -4 -3 -9 5
-5 8 -9 22 -9 30 0 16 17 -16 18 -35z m373 -157 c-2 -100 -7 -174 -10 -163 -9
27 -3 373 6 358 4 -6 5 -94 4 -195z m1745 165 c-3 -10 -5 -4 -5 12 0 17 2 24
5 18 2 -7 2 -21 0 -30z m-1607 -9 c0 -19 -4 -33 -8 -30 -8 5 -4 66 4 66 2 0 4
-16 4 -36z m306 -351 c-4 -214 -10 -390 -12 -392 -7 -7 -5 746 2 763 3 9 9 16
12 16 3 0 2 -174 -2 -387z m1100 371 c-3 -9 -6 -178 -6 -375 0 -266 -3 -358
-11 -353 -8 5 -10 64 -6 213 4 113 7 279 7 369 0 112 3 162 11 162 6 0 8 -7 5
-16z m-1136 -385 c0 -281 -3 -378 -11 -373 -9 5 -10 56 -6 183 4 97 7 265 7
374 0 108 2 197 5 197 3 0 5 -171 5 -381z m1162 -94 l-9 -270 -1 366 c-1 201
1 369 6 373 11 12 13 -173 4 -469z m212 439 c-4 -41 -14 -41 -14 0 0 20 4 35
9 32 4 -3 7 -17 5 -32z m-414 -390 c0 -274 -3 -413 -10 -409 -6 4 -10 73 -10
174 0 195 12 651 17 651 1 0 3 -187 3 -416z m139 134 c-2 -150 -6 -309 -10
-353 -3 -44 -6 72 -7 258 -1 309 1 367 15 367 2 0 3 -123 2 -272z m311 200 c0
-51 -3 -68 -10 -58 -13 20 -13 130 0 130 6 0 10 -31 10 -72z m-1449 -493 c-8
-122 -9 -98 -8 185 1 179 4 336 7 350 9 45 10 -391 1 -535z m1479 195 c0 -233
-4 -360 -10 -360 -6 0 -10 51 -10 133 0 165 12 587 17 587 1 0 3 -162 3 -360z
m60 -334 c-12 -12 -14 300 -2 539 6 144 7 126 10 -184 1 -223 -1 -348 -8 -355z
m-575 307 c-4 -208 -9 -380 -11 -382 -2 -2 -4 167 -4 377 0 277 3 382 11 382
9 0 10 -100 4 -377z m68 -40 c-3 -230 -7 -420 -9 -422 -2 -2 -4 185 -4 417 0
256 4 422 9 422 6 0 8 -160 4 -417z m207 62 c0 -230 -4 -355 -10 -355 -6 0
-10 59 -10 158 0 177 11 552 17 552 1 0 3 -160 3 -355z m274 8 c-4 -192 -8
-350 -10 -352 -2 -2 -4 154 -4 347 0 241 3 352 11 352 7 0 8 -105 3 -347z m71
237 c0 -30 -2 -122 -3 -203 -1 -82 -5 -146 -9 -144 -5 3 -6 108 -4 234 2 125
7 215 10 198 4 -16 7 -55 6 -85z m-2574 -118 c-1 -114 -5 -209 -7 -211 -2 -2
-4 94 -4 214 0 120 3 215 7 211 4 -4 6 -100 4 -214z m1919 -128 c0 -190 -3
-343 -8 -340 -4 2 -7 55 -6 118 0 62 1 215 2 341 1 125 4 227 7 227 3 0 5
-156 5 -346z m140 26 c0 -207 -4 -320 -10 -320 -6 0 -10 76 -10 208 0 197 9
432 17 432 1 0 3 -144 3 -320z m-1098 78 c-4 -388 -8 -420 -10 -85 -1 174 1
317 6 317 4 0 6 -105 4 -232z m927 100 c-1 -82 -4 -123 -9 -108 -14 43 -9 240
6 240 2 0 4 -60 3 -132z m-969 -462 c-12 -12 -13 273 -1 476 4 85 7 41 9 -176
1 -196 -1 -293 -8 -300z m1172 287 c-1 -164 -4 -309 -6 -323 -2 -14 -4 120 -5
298 0 177 2 322 7 322 4 0 6 -134 4 -297z m-1198 14 c-3 -144 -8 -264 -10
-266 -2 -2 -4 118 -4 268 0 188 3 270 11 266 7 -5 8 -89 3 -268z m1369 -59
c-2 -183 -6 -337 -8 -343 -2 -5 -4 144 -4 333 -1 196 3 342 8 342 5 0 7 -139
4 -332z m134 310 c-3 -8 -6 -5 -6 6 -1 11 2 17 5 13 3 -3 4 -12 1 -19z m-1740
-128 c-2 -78 -7 -144 -11 -147 -3 -4 -6 60 -6 140 0 103 3 147 11 147 8 0 10
-40 6 -140z m203 -112 c0 -179 -3 -249 -11 -241 -7 7 -8 85 -3 252 4 132 9
241 10 241 2 0 4 -113 4 -252z m1430 -422 c-12 -12 -14 537 -2 624 4 33 8 -79
10 -279 1 -216 -1 -338 -8 -345z m-1503 347 c-1 -60 -3 -11 -3 107 0 118 2
167 3 108 2 -60 2 -156 0 -215z m-102 9 c-14 -15 -16 19 -8 155 l8 148 3 -149
c1 -82 0 -151 -3 -154z m35 118 l-6 -165 -2 175 c-1 95 2 170 6 165 4 -6 5
-84 2 -175z m1612 -170 c-1 -171 -6 -309 -10 -306 -4 2 -5 150 -4 328 2 177 7
315 10 306 4 -9 6 -157 4 -328z m-1504 183 c-5 -249 -14 -290 -16 -70 -1 138
1 207 8 207 7 0 10 -47 8 -137z m1541 -155 c-2 -161 -6 -306 -10 -323 -4 -16
-7 108 -8 277 -1 278 2 338 16 338 2 0 3 -132 2 -292z m-2329 60 c0 -141 -4
-208 -10 -198 -5 8 -10 100 -10 206 0 168 3 204 17 204 2 0 3 -96 3 -212z
m197 175 c-3 -10 -5 -4 -5 12 0 17 2 24 5 18 2 -7 2 -21 0 -30z m523 -123 c0
-100 -4 -160 -10 -160 -6 0 -10 55 -10 144 0 130 4 176 16 176 2 0 4 -72 4
-160z m1640 -152 c0 -227 -3 -309 -11 -301 -8 8 -9 97 -4 312 4 166 9 301 11
301 2 0 4 -140 4 -312z m33 -15 l-10 -298 -1 310 c-2 229 1 306 9 298 9 -9 9
-90 2 -310z m177 147 c0 -87 -4 -140 -10 -140 -6 0 -10 53 -10 140 0 87 4 140
10 140 6 0 10 -53 10 -140z m-2541 -147 c-1 -126 -4 -214 -8 -197 -4 17 -7 57
-6 90 1 32 3 121 3 197 1 75 4 137 7 137 3 0 5 -102 4 -227z m208 205 c-3 -8
-6 -5 -6 6 -1 11 2 17 5 13 3 -3 4 -12 1 -19z m-176 -331 c-1 -150 -5 -274 -7
-276 -2 -2 -4 123 -4 279 0 156 3 280 7 276 4 -4 6 -129 4 -279z m179 247 c0
-8 -4 -12 -10 -9 -5 3 -10 13 -10 21 0 8 5 12 10 9 6 -3 10 -13 10 -21z m27
-6 c-3 -7 -5 -2 -5 12 0 14 2 19 5 13 2 -7 2 -19 0 -25z m1030 -20 c-3 -7 -5
-2 -5 12 0 14 2 19 5 13 2 -7 2 -19 0 -25z m-720 -55 c-3 -10 -5 -2 -5 17 0
19 2 27 5 18 2 -10 2 -26 0 -35z m680 15 c-3 -7 -5 -2 -5 12 0 14 2 19 5 13 2
-7 2 -19 0 -25z m-990 -10 c-3 -8 -6 -5 -6 6 -1 11 2 17 5 13 3 -3 4 -12 1
-19z m340 -30 c-3 -7 -5 -2 -5 12 0 14 2 19 5 13 2 -7 2 -19 0 -25z m-508
-215 c0 -131 -4 -260 -9 -288 -4 -31 -8 59 -9 238 -1 185 3 287 9 287 6 0 10
-85 9 -237z m268 205 c-3 -8 -6 -5 -6 6 -1 11 2 17 5 13 3 -3 4 -12 1 -19z
m-70 -25 c-3 -10 -5 -4 -5 12 0 17 2 24 5 18 2 -7 2 -21 0 -30z m924 -96 c-8
-8 -11 6 -11 45 0 83 14 106 18 29 2 -36 -2 -69 -7 -74z m-572 85 c0 -24 -1
-25 -9 -7 -12 28 -12 47 0 40 6 -3 10 -18 9 -33z m-239 -20 c0 -15 -2 -15 -10
-2 -13 20 -13 33 0 25 6 -3 10 -14 10 -23z m267 -64 c-2 -13 -4 -3 -4 22 0 25
2 35 4 23 2 -13 2 -33 0 -45z m720 -95 c-2 -32 -3 -8 -3 52 0 61 1 87 3 58 2
-29 2 -78 0 -110z m1131 50 c-1 -68 -2 -78 -7 -43 -6 45 -3 130 5 130 2 0 3
-39 2 -87z m-2536 -15 c-3 -61 -12 -60 -12 2 0 29 3 50 7 47 3 -4 6 -26 5 -49z
m656 26 c0 -18 -3 -22 -9 -13 -11 18 -11 39 0 39 5 0 9 -12 9 -26z m511 -31
c0 -41 -2 -45 -11 -26 -10 20 -4 73 7 73 3 0 5 -21 4 -47z m70 -65 c-1 -65 -4
-84 -9 -63 -12 45 -12 155 0 155 6 0 10 -37 9 -92z m-452 50 c-3 -8 -6 -5 -6
6 -1 11 2 17 5 13 3 -3 4 -12 1 -19z m-648 -215 c0 -162 -4 -219 -10 -198 -6
17 -8 75 -5 130 3 55 6 144 6 198 0 53 2 97 5 97 3 0 5 -102 4 -227z m718 120
c-2 -21 -4 -6 -4 32 0 39 2 55 4 38 2 -18 2 -50 0 -70z m36 37 c-7 -28 -13
-25 -13 6 0 14 4 23 9 20 5 -3 7 -15 4 -26z m234 -232 c-1 -51 -3 -12 -3 87 0
99 2 141 3 93 2 -48 2 -129 0 -180z m903 156 c0 -56 -4 -94 -10 -94 -6 0 -10
40 -10 101 0 64 4 98 10 94 6 -3 10 -48 10 -101z m-2033 74 c-3 -8 -6 -5 -6 6
-1 11 2 17 5 13 3 -3 4 -12 1 -19z m2063 -93 c0 -67 -4 -105 -11 -105 -9 0
-11 184 -2 203 10 19 13 -1 13 -98z m-1343 63 c-3 -8 -6 -5 -6 6 -1 11 2 17 5
13 3 -3 4 -12 1 -19z m210 -40 c-3 -20 -4 -21 -11 -5 -5 9 -5 29 0 45 7 25 8
26 11 5 3 -13 3 -33 0 -45z m1160 -110 c-2 -35 -3 -9 -3 57 0 66 1 94 3 63 2
-32 2 -86 0 -120z m-680 140 c-3 -8 -6 -5 -6 6 -1 11 2 17 5 13 3 -3 4 -12 1
-19z m1160 0 c-3 -8 -6 -5 -6 6 -1 11 2 17 5 13 3 -3 4 -12 1 -19z m-1610
-105 c-2 -21 -4 -4 -4 37 0 41 2 58 4 38 2 -21 2 -55 0 -75z m1173 -8 c0 -70
-4 -115 -10 -115 -6 0 -10 45 -10 115 0 70 4 115 10 115 6 0 10 -45 10 -115z
m-1031 18 c-1 -82 -2 -84 -9 -36 -4 29 -6 67 -5 85 4 40 4 38 10 38 3 0 4 -39
4 -87z m58 55 c-3 -8 -6 -5 -6 6 -1 11 2 17 5 13 3 -3 4 -12 1 -19z m690 -25
c-3 -10 -5 -2 -5 17 0 19 2 27 5 18 2 -10 2 -26 0 -35z m310 -135 c-2 -35 -3
-7 -3 62 0 69 1 97 3 63 2 -35 2 -91 0 -125z m-2118 124 c-1 -33 -2 -34 -9
-12 -12 36 -12 62 0 55 6 -3 10 -23 9 -43z m960 -56 c1 -63 -1 -96 -8 -96 -7
0 -11 36 -11 101 0 127 15 123 19 -5z m403 -196 l-9 -175 -2 206 c0 114 2 222
7 240 12 55 14 -69 4 -271z m1102 43 c-3 -142 -8 -260 -10 -262 -2 -2 -4 113
-4 257 0 175 3 262 10 262 8 0 9 -81 4 -257z m-2027 215 c-3 -7 -5 -2 -5 12 0
14 2 19 5 13 2 -7 2 -19 0 -25z m1723 -87 c0 -69 -4 -122 -10 -126 -6 -4 -10
38 -10 119 0 77 4 126 10 126 6 0 10 -46 10 -119z m-313 87 c-3 -8 -6 -5 -6 6
-1 11 2 17 5 13 3 -3 4 -12 1 -19z m343 -108 c0 -84 -4 -130 -10 -130 -7 0 -9
27 -6 78 2 42 5 101 5 130 1 28 3 52 6 52 3 0 5 -58 5 -130z m31 -25 l-8 -140
-2 150 c-1 98 2 146 9 139 6 -6 7 -59 1 -149z m178 -33 c-1 -97 -5 -190 -9
-207 -4 -17 -8 63 -9 183 -1 140 2 211 9 207 6 -4 10 -75 9 -183z m31 -32 c0
-148 -3 -220 -11 -220 -7 0 -9 65 -8 203 2 188 6 237 15 237 2 0 4 -99 4 -220z
m-170 55 c0 -97 -4 -155 -10 -155 -6 0 -10 56 -10 148 0 131 3 162 17 162 2 0
3 -70 3 -155z m27 -102 c-1 -49 -3 -9 -3 87 0 96 2 136 3 88 2 -49 2 -127 0
-175z m43 90 c0 -93 -5 -175 -10 -183 -6 -10 -10 46 -10 168 0 115 4 182 10
182 6 0 10 -62 10 -167z m30 -23 c0 -104 -4 -190 -8 -190 -4 0 -7 12 -6 28 1
15 2 100 3 190 0 89 3 162 6 162 3 0 5 -85 5 -190z m-1473 133 c-3 -10 -5 -2
-5 17 0 19 2 27 5 18 2 -10 2 -26 0 -35z m102 -65 c-1 -84 -3 -103 -9 -73 -7
36 -2 185 6 185 2 0 3 -51 3 -112z m-862 -200 c-1 -57 -3 -11 -3 102 0 113 2
159 3 103 2 -57 2 -149 0 -205z m1000 260 c-3 -7 -5 -2 -5 12 0 14 2 19 5 13
2 -7 2 -19 0 -25z m-280 -70 c-2 -18 -4 -4 -4 32 0 36 2 50 4 33 2 -18 2 -48
0 -65z m310 -65 c-2 -32 -3 -8 -3 52 0 61 1 87 3 58 2 -29 2 -78 0 -110z m723
15 c0 -87 -4 -137 -9 -128 -8 14 -3 270 5 270 2 0 4 -64 4 -142z m-553 0 c-2
-18 -4 -4 -4 32 0 36 2 50 4 33 2 -18 2 -48 0 -65z m584 -71 l-8 -122 -1 145
c0 96 2 137 8 122 6 -13 6 -73 1 -145z m-894 41 c-2 -24 -4 -7 -4 37 0 44 2
63 4 43 2 -21 2 -57 0 -80z m-1024 11 c-6 -6 -10 9 -10 38 l-2 48 11 -38 c6
-24 7 -42 1 -48z m175 -120 c-3 -88 -8 -162 -11 -166 -4 -3 -7 77 -7 178 1
138 3 179 12 165 7 -12 9 -73 6 -177z m1019 139 c-2 -13 -4 -5 -4 17 -1 22 1
32 4 23 2 -10 2 -28 0 -40z m763 -93 c0 -90 -4 -145 -10 -145 -6 0 -10 55 -10
145 0 90 4 145 10 145 6 0 10 -55 10 -145z m-833 58 c-2 -16 -4 -5 -4 22 0 28
2 40 4 28 2 -13 2 -35 0 -50z m-1090 -5 c-2 -13 -4 -3 -4 22 0 25 2 35 4 23 2
-13 2 -33 0 -45z m1950 -170 c-1 -46 -3 -11 -3 77 0 88 2 125 3 83 2 -42 2
-114 0 -160z m-921 137 c2 -35 0 -54 -6 -50 -6 3 -10 31 -10 62 0 71 11 63 16
-12z m964 -92 c0 -82 -5 -155 -10 -163 -6 -10 -10 39 -10 148 0 101 4 162 10
162 6 0 10 -56 10 -147z m27 -140 c-1 -49 -3 -9 -3 87 0 96 2 136 3 88 2 -49
2 -127 0 -175z m-1130 215 c-3 -7 -5 -2 -5 12 0 14 2 19 5 13 2 -7 2 -19 0
-25z m-718 -155 c0 -122 -3 -171 -10 -154 -5 13 -7 82 -5 155 3 72 5 141 5
154 1 12 3 22 6 22 3 0 5 -80 4 -177z m678 155 c-3 -8 -6 -5 -6 6 -1 11 2 17
5 13 3 -3 4 -12 1 -19z m1623 -58 c0 -30 -5 -62 -10 -70 -7 -10 -10 11 -10 70
0 59 3 80 10 70 5 -8 10 -40 10 -70z m-418 -112 c-1 -94 -4 -173 -7 -176 -3
-3 -5 77 -5 178 0 101 3 180 7 176 4 -4 6 -84 5 -178z m-1092 79 c0 -37 -3
-48 -10 -37 -13 20 -13 103 0 95 6 -3 10 -30 10 -58z m97 -4 c-2 -16 -4 -5 -4
22 0 28 2 40 4 28 2 -13 2 -35 0 -50z m30 -45 c-2 -24 -4 -7 -4 37 0 44 2 63
4 43 2 -21 2 -57 0 -80z m1003 -74 c0 -121 -3 -183 -10 -179 -6 4 -10 77 -10
186 0 113 4 179 10 179 6 0 10 -69 10 -186z m-2020 136 c0 -13 -1 -13 -10 0
-5 8 -10 22 -10 30 0 13 1 13 10 0 5 -8 10 -22 10 -30z m2047 -272 c-1 -57 -3
-11 -3 102 0 113 2 159 3 103 2 -57 2 -149 0 -205z m-2120 260 c-3 -8 -6 -5
-6 6 -1 11 2 17 5 13 3 -3 4 -12 1 -19z m30 -40 c-2 -13 -4 -3 -4 22 0 25 2
35 4 23 2 -13 2 -33 0 -45z m960 -30 c-2 -18 -4 -4 -4 32 0 36 2 50 4 33 2
-18 2 -48 0 -65z m140 60 c-3 -7 -5 -2 -5 12 0 14 2 19 5 13 2 -7 2 -19 0 -25z
m1033 -184 c0 -141 -3 -213 -10 -209 -6 4 -10 85 -10 209 0 178 3 216 17 216
2 0 3 -97 3 -216z m-1003 109 c-2 -21 -4 -6 -4 32 0 39 2 55 4 38 2 -18 2 -50
0 -70z m1033 -140 c0 -131 -4 -231 -8 -223 -8 15 -4 460 4 460 2 0 4 -107 4
-237z m-1173 130 c-2 -21 -4 -6 -4 32 0 39 2 55 4 38 2 -18 2 -50 0 -70z
m-816 -109 c-1 -92 -4 -170 -6 -173 -3 -2 -5 76 -5 174 0 98 3 176 6 173 3 -4
5 -82 5 -174z m998 113 c1 -10 -3 -15 -9 -12 -5 3 -10 21 -9 38 0 27 2 29 9
12 5 -11 9 -28 9 -38z m-282 11 c-3 -8 -6 -5 -6 6 -1 11 2 17 5 13 3 -3 4 -12
1 -19z m930 -45 c-3 -10 -5 -2 -5 17 0 19 2 27 5 18 2 -10 2 -26 0 -35z m544
-284 c-7 -17 -10 27 -10 147 -1 94 2 174 7 178 11 11 14 -297 3 -325z m-1332
279 c0 -28 -2 -30 -9 -13 -12 28 -12 45 0 45 6 0 10 -15 9 -32z m168 -5 c-3
-10 -5 -4 -5 12 0 17 2 24 5 18 2 -7 2 -21 0 -30z m-1227 -38 c0 -5 -5 -3 -10
5 -5 8 -10 20 -10 25 0 6 5 3 10 -5 5 -8 10 -19 10 -25z m27 3 c-3 -7 -5 -2
-5 12 0 14 2 19 5 13 2 -7 2 -19 0 -25z m961 -44 l-3 -49 -5 57 c-3 31 -1 53
3 49 5 -5 7 -30 5 -57z m99 -1 c-2 -16 -4 -5 -4 22 0 28 2 40 4 28 2 -13 2
-35 0 -50z m-960 25 c-3 -7 -5 -2 -5 12 0 14 2 19 5 13 2 -7 2 -19 0 -25z
m-57 -16 c0 -7 -4 -10 -10 -7 -5 3 -10 16 -10 28 0 18 2 19 10 7 5 -8 10 -21
10 -28z m1060 -40 c0 -26 -4 -41 -10 -37 -5 3 -10 30 -10 58 0 37 3 48 10 37
5 -8 10 -34 10 -58z m27 31 c-3 -10 -5 -4 -5 12 0 17 2 24 5 18 2 -7 2 -21 0
-30z m-140 -40 c-2 -16 -4 -5 -4 22 0 28 2 40 4 28 2 -13 2 -35 0 -50z m173
-27 c-6 -15 -9 -5 -8 34 0 50 1 52 8 21 5 -19 4 -44 0 -55z m-130 12 c0 -38
-3 -49 -10 -38 -16 25 -11 90 7 90 2 0 3 -24 3 -52z m170 -30 c0 -38 -5 -34
-13 10 -4 21 -3 31 3 27 6 -3 10 -20 10 -37z m-143 -30 c-2 -13 -4 -5 -4 17
-1 22 1 32 4 23 2 -10 2 -28 0 -40z m1340 5 c-3 -10 -5 -2 -5 17 0 19 2 27 5
18 2 -10 2 -26 0 -35z m-1270 5 c-3 -7 -5 -2 -5 12 0 14 2 19 5 13 2 -7 2 -19
0 -25z m-1130 -10 c-3 -8 -6 -5 -6 6 -1 11 2 17 5 13 3 -3 4 -12 1 -19z m72
-11 c0 -21 -1 -21 -9 -2 -12 28 -12 37 0 30 6 -3 10 -16 9 -28z m918 -44 c-2
-16 -4 -5 -4 22 0 28 2 40 4 28 2 -13 2 -35 0 -50z m112 -13 c1 -13 0 -13 -9
0 -5 8 -9 26 -9 40 l1 25 8 -25 c4 -14 8 -32 9 -40z m58 13 c-3 -10 -5 -2 -5
17 0 19 2 27 5 18 2 -10 2 -26 0 -35z m-1160 5 c-3 -8 -6 -5 -6 6 -1 11 2 17
5 13 3 -3 4 -12 1 -19z m30 -10 c-3 -7 -5 -2 -5 12 0 14 2 19 5 13 2 -7 2 -19
0 -25z m1102 -30 c-1 -44 -2 -48 -9 -26 -5 16 -7 36 -5 45 2 10 4 21 4 26 1 4
3 7 6 7 3 0 5 -24 4 -52z m-1032 20 c-3 -8 -6 -5 -6 6 -1 11 2 17 5 13 3 -3 4
-12 1 -19z m933 -20 c0 -10 -4 -18 -10 -18 -5 0 -10 15 -10 33 0 24 3 28 10
17 5 -8 10 -23 10 -32z m170 -11 c0 -24 -3 -28 -10 -17 -13 20 -13 63 0 55 6
-3 10 -21 10 -38z m-113 -39 c-3 -7 -5 -2 -5 12 0 14 2 19 5 13 2 -7 2 -19 0
-25z m70 0 c-3 -7 -5 -2 -5 12 0 14 2 19 5 13 2 -7 2 -19 0 -25z m-1060 0 c-3
-8 -6 -5 -6 6 -1 11 2 17 5 13 3 -3 4 -12 1 -19z"/>
<path d="M4330 7618 c-12 -22 -12 -22 6 -6 10 10 15 20 12 24 -4 3 -12 -5 -18
-18z"/>
<path d="M1689 6922 c-285 -80 -486 -344 -574 -753 -39 -179 -43 -324 -15
-519 25 -179 61 -299 126 -418 149 -273 309 -384 549 -380 l90 1 -90 7 c-254
19 -414 146 -559 443 -103 213 -145 566 -96 812 50 255 85 347 184 489 219
314 526 399 816 227 36 -22 82 -55 102 -75 48 -47 62 -47 17 0 -47 49 -150
115 -232 147 -93 37 -224 45 -318 19z"/>
<path d="M2279 6697 c8 -11 28 -17 53 -17 39 0 40 -1 26 -22 -28 -44 -28 -69
3 -152 70 -191 99 -379 99 -649 0 -349 -120 -657 -333 -853 -61 -55 -61 -56
-13 -23 158 109 288 339 343 606 15 72 18 132 17 333 -1 282 -10 347 -80 558
-23 73 -40 140 -37 150 3 9 15 30 26 45 l19 28 -49 -2 c-26 -2 -57 1 -68 6
-18 8 -19 7 -6 -8z"/>
<path d="M1450 5968 c0 -50 -1 -51 -19 -34 -11 10 -25 31 -31 47 -7 16 -19 29
-26 29 -11 0 -14 -17 -14 -70 0 -40 4 -70 10 -70 6 0 10 17 10 38 l1 37 33
-37 c48 -55 56 -50 56 37 0 43 -4 75 -10 75 -5 0 -10 -23 -10 -52z"/>
<path d="M1533 6008 c-11 -5 -29 -25 -39 -44 -42 -77 33 -129 96 -65 17 17 30
40 30 54 0 18 6 26 25 29 24 5 25 4 25 -54 0 -37 4 -57 10 -53 6 3 10 30 10
59 0 49 2 54 25 58 13 3 27 3 29 0 3 -2 2 -33 -1 -68 -4 -45 -2 -64 6 -64 6 0
11 7 11 15 0 17 56 49 70 40 6 -3 10 -18 10 -33 0 -16 3 -23 10 -16 12 12 1
154 -13 154 -5 0 -7 -14 -5 -30 5 -34 -4 -45 -46 -56 l-28 -7 7 41 c6 40 6 41
-28 47 -18 4 -53 1 -77 -5 -30 -8 -46 -8 -53 -1 -14 14 -45 13 -74 -1z m58
-18 c5 0 9 -11 9 -25 0 -27 -40 -75 -63 -75 -19 0 -37 21 -37 42 0 26 47 71
66 64 9 -3 20 -6 25 -6z"/>
<path d="M1880 5945 c0 -43 4 -75 10 -75 6 0 10 32 10 75 0 43 -4 75 -10 75
-6 0 -10 -32 -10 -75z"/>
<path d="M2014 5970 c4 -27 3 -50 -2 -50 -10 0 -45 47 -55 73 -4 10 -13 17
-19 15 -15 -5 -22 -124 -8 -133 6 -4 10 9 10 29 0 45 11 45 41 1 30 -43 45
-44 51 -3 7 44 -2 118 -15 118 -6 0 -7 -19 -3 -50z"/>
<path d="M2090 5990 c-38 -41 -50 -98 -24 -117 25 -18 54 -8 91 35 35 40 28
50 -25 37 -25 -6 -26 -7 -9 -20 18 -13 18 -14 -2 -24 -33 -18 -51 -13 -51 13
0 31 46 86 68 83 9 -1 19 3 22 8 3 6 -5 11 -18 13 -15 2 -32 -7 -52 -28z"/>
<path d="M1164 5896 c-8 -22 3 -33 18 -18 9 9 9 15 0 24 -9 9 -13 7 -18 -6z"/>
<path d="M1234 5896 c-8 -22 3 -33 18 -18 9 9 9 15 0 24 -9 9 -13 7 -18 -6z"/>
<path d="M1304 5896 c-8 -22 3 -33 18 -18 9 9 9 15 0 24 -9 9 -13 7 -18 -6z"/>
<path d="M2213 5895 c-3 -9 -3 -18 0 -21 9 -9 27 6 27 22 0 19 -19 18 -27 -1z"/>
<path d="M2283 5895 c-3 -9 -3 -18 0 -21 9 -9 27 6 27 22 0 19 -19 18 -27 -1z"/>
<path d="M2350 5884 c0 -9 5 -14 12 -12 18 6 21 28 4 28 -9 0 -16 -7 -16 -16z"/>
<path d="M2035 4940 c-3 -6 1 -7 9 -4 18 7 21 14 7 14 -6 0 -13 -4 -16 -10z"/>
<path d="M1878 4863 c6 -2 18 -2 25 0 6 3 1 5 -13 5 -14 0 -19 -2 -12 -5z"/>
</g>
</svg>
