<?xml version="1.0" standalone="no"?>
<!DOCTYPE svg PUBLIC "-//W3C//DTD SVG 20010904//EN"
 "http://www.w3.org/TR/2001/REC-SVG-20010904/DTD/svg10.dtd">
<svg version="1.0" xmlns="http://www.w3.org/2000/svg"
 width="550.000000pt" height="783.000000pt" viewBox="0 0 550.000000 783.000000"
 preserveAspectRatio="xMidYMid meet">

<g transform="translate(0.000000,783.000000) scale(0.100000,-0.100000)"
fill="#000000" stroke="none">
<path d="M5394 7691 c-67 -41 -85 -116 -41 -165 34 -40 77 -43 115 -11 27 22
32 34 32 69 0 55 -17 104 -40 116 -25 14 -30 13 -66 -9z"/>
<path d="M300 7650 c0 -5 5 -10 10 -10 6 0 10 5 10 10 0 6 -4 10 -10 10 -5 0
-10 -4 -10 -10z"/>
<path d="M5221 7637 c-13 -13 -14 -34 -2 -41 16 -10 41 5 41 24 0 22 -24 32
-39 17z"/>
<path d="M1185 7470 c-9 -15 18 -65 35 -65 19 0 25 41 10 61 -14 16 -36 18
-45 4z"/>
<path d="M3770 7390 c0 -5 5 -10 10 -10 6 0 10 5 10 10 0 6 -4 10 -10 10 -5 0
-10 -4 -10 -10z"/>
<path d="M5022 7388 c-30 -30 0 -78 37 -58 32 17 21 70 -14 70 -6 0 -16 -5
-23 -12z"/>
<path d="M3990 7355 c0 -9 5 -15 11 -13 6 2 11 8 11 13 0 5 -5 11 -11 13 -6 2
-11 -4 -11 -13z"/>
<path d="M4677 7343 c-12 -11 -7 -33 8 -39 20 -8 45 13 38 32 -5 14 -34 19
-46 7z"/>
<path d="M1195 7284 c-9 -9 -14 -23 -11 -31 3 -8 6 -16 6 -18 0 -3 9 -9 20
-15 27 -15 60 4 60 33 0 44 -44 62 -75 31z"/>
<path d="M5210 7284 c-11 -12 -10 -18 3 -31 13 -13 19 -14 31 -3 20 16 20 36
0 44 -21 8 -20 8 -34 -10z"/>
<path d="M4900 7230 c0 -5 5 -10 10 -10 6 0 10 5 10 10 0 6 -4 10 -10 10 -5 0
-10 -4 -10 -10z"/>
<path d="M4780 7210 c0 -15 5 -20 18 -18 9 2 17 10 17 18 0 8 -8 16 -17 18
-13 2 -18 -3 -18 -18z"/>
<path d="M4465 7180 c-15 -17 -16 -24 -7 -45 20 -43 82 -28 82 20 0 45 -44 59
-75 25z"/>
<path d="M1252 7114 c1 -9 9 -19 16 -22 9 -3 13 2 10 14 -1 9 -9 19 -16 22 -9
3 -13 -2 -10 -14z"/>
<path d="M3342 7078 c6 -18 28 -21 28 -4 0 9 -7 16 -16 16 -9 0 -14 -5 -12
-12z"/>
<path d="M700 7070 c0 -5 5 -10 10 -10 6 0 10 5 10 10 0 6 -4 10 -10 10 -5 0
-10 -4 -10 -10z"/>
<path d="M2800 6936 c0 -10 9 -16 21 -16 24 0 21 23 -4 28 -10 2 -17 -3 -17
-12z"/>
<path d="M2972 6928 c2 -6 10 -13 16 -14 7 -1 8 0 2 3 -5 2 -8 9 -4 14 3 5 0
9 -6 9 -7 0 -10 -5 -8 -12z"/>
<path d="M3420 6920 c0 -5 5 -10 10 -10 6 0 10 5 10 10 0 6 -4 10 -10 10 -5 0
-10 -4 -10 -10z"/>
<path d="M3470 6906 c0 -9 7 -16 16 -16 17 0 14 22 -4 28 -7 2 -12 -3 -12 -12z"/>
<path d="M4615 6898 c-52 -31 -85 -68 -85 -97 0 -30 7 -42 36 -57 49 -28 112
25 100 84 -3 15 -3 21 0 15 8 -19 54 -16 61 3 7 18 -6 45 -24 51 -6 2 -18 -3
-26 -12 -17 -16 -28 -20 -26 -7 5 32 -5 38 -36 20z"/>
<path d="M820 6855 c0 -8 7 -15 15 -15 8 0 15 7 15 15 0 8 -7 15 -15 15 -8 0
-15 -7 -15 -15z"/>
<path d="M5012 6847 c-30 -31 -28 -61 6 -86 l27 -20 -46 -1 c-38 0 -50 -4 -63
-25 -49 -74 35 -145 100 -85 13 13 24 32 24 42 0 13 7 18 25 18 14 0 25 5 25
11 0 5 4 8 9 5 14 -9 0 36 -16 56 -12 13 -12 21 -3 38 9 16 8 25 -2 38 -30 39
-55 42 -86 9z"/>
<path d="M623 6824 c-8 -21 13 -42 28 -27 13 13 5 43 -11 43 -6 0 -13 -7 -17
-16z"/>
<path d="M1195 6808 c-9 -29 -14 -33 -38 -30 -56 7 -78 -70 -32 -106 31 -25
31 -39 3 -62 l-23 -18 19 -37 c14 -26 25 -35 40 -33 19 3 21 10 21 66 0 61 1
64 30 76 45 19 59 40 44 65 -7 11 -23 24 -36 30 -26 12 -27 18 -13 55 5 14 6
26 2 26 -4 0 -12 -15 -17 -32z"/>
<path d="M4404 6819 c-3 -6 0 -17 7 -25 18 -17 44 -2 36 20 -7 18 -33 21 -43
5z"/>
<path d="M1475 6810 c-4 -7 -3 -16 3 -22 14 -14 45 -2 40 15 -6 16 -34 21 -43
7z"/>
<path d="M1230 6800 c0 -5 5 -10 10 -10 6 0 10 5 10 10 0 6 -4 10 -10 10 -5 0
-10 -4 -10 -10z"/>
<path d="M3055 6781 c-7 -12 12 -24 25 -16 11 7 4 25 -10 25 -5 0 -11 -4 -15
-9z"/>
<path d="M4160 6735 c-11 -13 -11 -19 3 -33 20 -19 41 -5 35 24 -4 24 -22 28
-38 9z"/>
<path d="M4694 6739 c-10 -17 13 -36 27 -22 12 12 4 33 -11 33 -5 0 -12 -5
-16 -11z"/>
<path d="M4040 6720 c0 -5 5 -10 10 -10 6 0 10 5 10 10 0 6 -4 10 -10 10 -5 0
-10 -4 -10 -10z"/>
<path d="M948 6682 c-45 -45 -54 -83 -27 -108 26 -24 24 -31 -9 -26 -61 9 -81
-68 -27 -104 23 -15 27 -15 51 1 23 14 26 22 21 54 -4 34 -3 36 26 38 84 6
103 72 39 141 l-38 40 -36 -36z"/>
<path d="M615 6700 c-8 -14 3 -30 21 -30 8 0 14 9 14 20 0 21 -24 28 -35 10z"/>
<path d="M1511 6657 c-14 -17 3 -41 23 -34 9 4 16 13 16 21 0 19 -26 28 -39
13z"/>
<path d="M4720 6650 c0 -5 5 -10 10 -10 6 0 10 5 10 10 0 6 -4 10 -10 10 -5 0
-10 -4 -10 -10z"/>
<path d="M4815 6650 c-4 -6 -3 -16 3 -22 6 -6 12 -6 17 2 4 6 3 16 -3 22 -6 6
-12 6 -17 -2z"/>
<path d="M2983 6624 c-10 -28 22 -69 54 -69 34 0 42 25 19 60 -19 29 -63 34
-73 9z"/>
<path d="M0 6615 c0 -9 5 -15 11 -13 14 5 14 21 0 26 -6 2 -11 -4 -11 -13z"/>
<path d="M787 6592 c-15 -16 -15 -20 -1 -40 30 -44 88 -15 66 33 -14 29 -42
32 -65 7z"/>
<path d="M1274 6585 c-9 -23 3 -45 26 -45 25 0 37 25 20 45 -16 19 -39 19 -46
0z"/>
<path d="M1773 6554 c-3 -8 -1 -20 6 -27 14 -14 47 15 37 32 -10 16 -36 13
-43 -5z"/>
<path d="M1452 6543 c2 -10 10 -18 18 -18 8 0 16 8 18 18 2 12 -3 17 -18 17
-15 0 -20 -5 -18 -17z"/>
<path d="M1595 6550 c-8 -14 3 -30 21 -30 8 0 14 9 14 20 0 21 -24 28 -35 10z"/>
<path d="M1060 6539 c0 -5 5 -7 10 -4 6 3 10 8 10 11 0 2 -4 4 -10 4 -5 0 -10
-5 -10 -11z"/>
<path d="M3287 6504 c-8 -8 1 -24 14 -24 5 0 9 7 9 15 0 15 -12 20 -23 9z"/>
<path d="M4190 6475 c0 -8 5 -15 10 -15 6 0 10 7 10 15 0 8 -4 15 -10 15 -5 0
-10 -7 -10 -15z"/>
<path d="M1322 6458 c5 -15 28 -18 29 -3 0 6 -7 12 -17 13 -10 3 -15 -1 -12
-10z"/>
<path d="M1655 6450 c-3 -5 -1 -10 4 -10 6 0 11 5 11 10 0 6 -2 10 -4 10 -3 0
-8 -4 -11 -10z"/>
<path d="M3055 6450 c-8 -14 3 -30 21 -30 8 0 14 9 14 20 0 21 -24 28 -35 10z"/>
<path d="M1056 6425 c-2 -6 1 -35 8 -63 13 -60 41 -81 91 -72 28 5 30 8 33 58
2 37 -1 57 -12 67 -19 19 -113 27 -120 10z"/>
<path d="M5310 6420 c-29 -29 -25 -66 9 -101 66 -66 170 -8 135 76 -19 46
-107 62 -144 25z"/>
<path d="M1563 6394 c-3 -9 -2 -24 4 -33 13 -21 89 -25 97 -5 6 16 -17 30 -32
20 -6 -3 -12 3 -15 14 -6 24 -45 27 -54 4z"/>
<path d="M1790 6391 c0 -5 7 -12 16 -15 24 -9 28 -7 14 9 -14 17 -30 20 -30 6z"/>
<path d="M4628 6352 c-27 -31 -29 -41 -13 -72 12 -23 22 -30 44 -30 49 0 78
55 49 92 -20 25 -63 30 -80 10z"/>
<path d="M1800 6349 c0 -5 5 -7 10 -4 6 3 10 8 10 11 0 2 -4 4 -10 4 -5 0 -10
-5 -10 -11z"/>
<path d="M2836 6341 c-4 -5 -2 -12 3 -15 5 -4 12 -2 15 3 4 5 2 12 -3 15 -5 4
-12 2 -15 -3z"/>
<path d="M2700 6305 c0 -8 5 -15 10 -15 6 0 10 7 10 15 0 8 -4 15 -10 15 -5 0
-10 -7 -10 -15z"/>
<path d="M2660 6225 c0 -8 5 -15 10 -15 6 0 10 7 10 15 0 8 -4 15 -10 15 -5 0
-10 -7 -10 -15z"/>
<path d="M3114 6229 c-10 -17 13 -36 27 -22 12 12 4 33 -11 33 -5 0 -12 -5
-16 -11z"/>
<path d="M3945 6220 c-4 -7 -3 -16 3 -22 14 -14 45 -2 40 15 -6 16 -34 21 -43
7z"/>
<path d="M4412 6221 c4 -13 18 -16 19 -4 0 4 -5 9 -11 12 -7 2 -11 -2 -8 -8z"/>
<path d="M1616 6193 c-12 -12 -6 -33 9 -33 8 0 15 6 15 14 0 17 -14 28 -24 19z"/>
<path d="M3117 6174 c-9 -10 4 -34 19 -34 8 0 14 9 14 20 0 19 -19 27 -33 14z"/>
<path d="M3160 6170 c0 -5 5 -10 10 -10 6 0 10 5 10 10 0 6 -4 10 -10 10 -5 0
-10 -4 -10 -10z"/>
<path d="M1865 6140 c-9 -15 14 -40 31 -33 22 8 18 43 -5 43 -11 0 -23 -5 -26
-10z"/>
<path d="M1645 6093 c3 -25 13 -55 20 -67 8 -11 15 -18 15 -15 0 4 17 3 39 -1
l39 -7 -5 41 c-7 52 -24 71 -74 84 l-40 10 6 -45z"/>
<path d="M2435 6111 c-7 -12 12 -24 25 -16 11 7 4 25 -10 25 -5 0 -11 -4 -15
-9z"/>
<path d="M2760 6050 c0 -5 5 -10 10 -10 6 0 10 5 10 10 0 6 -4 10 -10 10 -5 0
-10 -4 -10 -10z"/>
<path d="M3070 6050 c0 -5 5 -10 11 -10 5 0 7 5 4 10 -3 6 -8 10 -11 10 -2 0
-4 -4 -4 -10z"/>
<path d="M2990 6035 c0 -8 5 -15 10 -15 6 0 10 7 10 15 0 8 -4 15 -10 15 -5 0
-10 -7 -10 -15z"/>
<path d="M4005 6039 c-4 -6 -4 -13 -1 -16 8 -8 36 5 36 17 0 13 -27 13 -35 -1z"/>
<path d="M2260 6010 c0 -5 5 -10 11 -10 5 0 7 5 4 10 -3 6 -8 10 -11 10 -2 0
-4 -4 -4 -10z"/>
<path d="M3206 6011 c-3 -5 1 -15 10 -22 13 -10 17 -10 24 1 5 8 6 18 4 22 -7
11 -31 10 -38 -1z"/>
<path d="M1820 5995 c0 -9 -9 -15 -25 -15 -18 0 -25 -5 -25 -20 0 -11 7 -23
16 -27 21 -8 66 40 58 61 -8 20 -24 21 -24 1z"/>
<path d="M3044 5985 c-4 -10 -1 -21 7 -26 20 -12 34 -5 34 17 0 24 -33 31 -41
9z"/>
<path d="M3802 5991 c-23 -14 -10 -46 18 -46 20 0 25 5 25 25 0 26 -20 36 -43
21z"/>
<path d="M4110 5970 c0 -5 5 -10 10 -10 6 0 10 5 10 10 0 6 -4 10 -10 10 -5 0
-10 -4 -10 -10z"/>
<path d="M4180 5960 c0 -5 5 -10 10 -10 6 0 10 5 10 10 0 6 -4 10 -10 10 -5 0
-10 -4 -10 -10z"/>
<path d="M3296 5935 c-8 -8 -19 -15 -24 -15 -18 0 -23 -33 -7 -49 12 -12 18
-12 27 -3 7 7 22 12 34 12 27 0 41 34 24 55 -16 19 -35 19 -54 0z"/>
<path d="M3504 5886 c-20 -15 -13 -43 12 -53 10 -4 22 1 30 11 24 33 -9 66
-42 42z"/>
<path d="M4067 5893 c-16 -16 -6 -43 18 -49 33 -8 38 -3 26 30 -10 25 -30 34
-44 19z"/>
<path d="M3635 5870 c-8 -14 13 -40 32 -40 20 0 12 44 -9 48 -9 2 -19 -2 -23
-8z"/>
<path d="M920 5835 c0 -9 5 -15 11 -13 6 2 11 8 11 13 0 5 -5 11 -11 13 -6 2
-11 -4 -11 -13z"/>
<path d="M4130 5830 c0 -5 5 -10 11 -10 5 0 7 5 4 10 -3 6 -8 10 -11 10 -2 0
-4 -4 -4 -10z"/>
<path d="M3885 5820 c3 -5 8 -10 11 -10 2 0 4 5 4 10 0 6 -5 10 -11 10 -5 0
-7 -4 -4 -10z"/>
<path d="M3360 5800 c0 -5 5 -10 10 -10 6 0 10 5 10 10 0 6 -4 10 -10 10 -5 0
-10 -4 -10 -10z"/>
<path d="M4006 5801 c-4 -5 -2 -12 3 -15 5 -4 12 -2 15 3 4 5 2 12 -3 15 -5 4
-12 2 -15 -3z"/>
<path d="M1680 5785 c0 -8 5 -15 10 -15 6 0 10 7 10 15 0 8 -4 15 -10 15 -5 0
-10 -7 -10 -15z"/>
<path d="M2555 5780 c-10 -16 5 -50 21 -50 20 0 29 27 14 45 -14 17 -26 19
-35 5z"/>
<path d="M4220 5768 c0 -34 14 -50 41 -46 25 3 38 33 22 49 -6 6 -22 12 -36
15 -23 4 -27 1 -27 -18z"/>
<path d="M4082 5748 c5 -15 28 -18 29 -3 0 6 -7 12 -17 13 -10 3 -15 -1 -12
-10z"/>
<path d="M3354 5739 c-10 -17 23 -46 37 -32 7 7 9 19 6 27 -7 18 -33 21 -43 5z"/>
<path d="M3075 5730 c-7 -12 2 -30 16 -30 5 0 9 9 9 20 0 21 -15 27 -25 10z"/>
<path d="M5145 5730 c3 -5 8 -10 11 -10 2 0 4 5 4 10 0 6 -5 10 -11 10 -5 0
-7 -4 -4 -10z"/>
<path d="M4305 5710 c3 -5 8 -10 11 -10 2 0 4 5 4 10 0 6 -5 10 -11 10 -5 0
-7 -4 -4 -10z"/>
<path d="M4667 5686 c-9 -22 18 -40 33 -22 6 9 9 20 5 26 -9 15 -32 12 -38 -4z"/>
<path d="M1756 5674 c-4 -10 -2 -22 3 -27 14 -14 43 0 39 20 -4 24 -34 28 -42
7z"/>
<path d="M4320 5666 c0 -21 21 -31 30 -15 5 7 6 17 4 21 -9 14 -34 9 -34 -6z"/>
<path d="M4597 5473 c-14 -13 -6 -52 13 -66 44 -31 95 10 67 54 -12 19 -66 27
-80 12z"/>
<path d="M1645 5451 c-6 -11 9 -23 19 -14 9 9 7 23 -3 23 -6 0 -12 -4 -16 -9z"/>
<path d="M2075 5441 c-7 -12 12 -24 25 -16 11 7 4 25 -10 25 -5 0 -11 -4 -15
-9z"/>
<path d="M3530 5435 c0 -8 5 -15 10 -15 6 0 10 7 10 15 0 8 -4 15 -10 15 -5 0
-10 -7 -10 -15z"/>
<path d="M4286 5362 c-3 -6 -1 -14 5 -17 15 -10 25 3 12 16 -7 7 -13 7 -17 1z"/>
<path d="M615 5330 c4 -6 11 -8 16 -5 14 9 11 15 -7 15 -8 0 -12 -5 -9 -10z"/>
<path d="M3595 5330 c-8 -14 13 -40 32 -40 20 0 12 44 -9 48 -9 2 -19 -2 -23
-8z"/>
<path d="M4785 5320 c-8 -12 20 -24 35 -15 6 3 8 11 5 16 -8 12 -32 12 -40 -1z"/>
<path d="M4937 5316 c-7 -18 1 -26 25 -26 13 0 18 6 16 17 -4 22 -34 29 -41 9z"/>
<path d="M4127 5293 c-14 -13 -6 -33 13 -33 11 0 20 4 20 9 0 13 -26 32 -33
24z"/>
<path d="M3967 5263 c-3 -5 -2 -15 3 -22 10 -17 43 -6 38 12 -6 15 -34 22 -41
10z"/>
<path d="M4982 5258 c5 -15 28 -18 29 -3 0 6 -7 12 -17 13 -10 3 -15 -1 -12
-10z"/>
<path d="M3702 5209 c2 -6 8 -10 13 -10 5 0 11 4 13 10 2 6 -4 11 -13 11 -9 0
-15 -5 -13 -11z"/>
<path d="M4890 5210 c0 -5 7 -10 15 -10 8 0 15 5 15 10 0 6 -7 10 -15 10 -8 0
-15 -4 -15 -10z"/>
<path d="M5402 5204 c2 -11 11 -20 22 -22 13 -3 17 1 14 14 -2 11 -11 20 -22
22 -13 3 -17 -1 -14 -14z"/>
<path d="M1783 5174 c-8 -21 13 -42 28 -27 13 13 5 43 -11 43 -6 0 -13 -7 -17
-16z"/>
<path d="M102 5164 c2 -11 11 -20 22 -22 13 -3 17 1 14 14 -2 11 -11 20 -22
22 -13 3 -17 -1 -14 -14z"/>
<path d="M5451 5146 c-14 -17 11 -41 34 -32 21 7 19 23 -4 35 -14 8 -22 7 -30
-3z"/>
<path d="M3802 5134 c2 -11 11 -20 22 -22 13 -3 17 1 14 14 -2 11 -11 20 -22
22 -13 3 -17 -1 -14 -14z"/>
<path d="M271 5086 c-12 -14 -5 -26 16 -26 15 0 18 26 4 34 -5 3 -14 0 -20 -8z"/>
<path d="M4065 5080 c-8 -13 3 -30 21 -30 18 0 18 14 0 29 -10 8 -16 9 -21 1z"/>
<path d="M3450 5064 c-11 -12 -10 -18 3 -32 15 -15 19 -15 32 -1 17 17 11 49
-10 49 -7 0 -18 -7 -25 -16z"/>
<path d="M3910 5051 c0 -5 6 -14 14 -20 16 -13 32 2 21 19 -8 12 -35 13 -35 1z"/>
<path d="M1411 4978 c-6 -10 -11 -29 -11 -42 0 -14 -4 -28 -10 -31 -15 -9 -12
-32 5 -39 8 -3 27 6 41 19 15 14 31 25 35 25 17 0 41 49 34 70 -5 17 -14 20
-45 18 -23 -1 -42 -8 -49 -20z"/>
<path d="M3660 4975 c0 -8 5 -15 10 -15 6 0 10 7 10 15 0 8 -4 15 -10 15 -5 0
-10 -7 -10 -15z"/>
<path d="M4593 4894 c-8 -21 19 -46 40 -38 20 7 22 25 5 42 -17 17 -37 15 -45
-4z"/>
<path d="M860 4870 c0 -5 5 -10 10 -10 6 0 10 5 10 10 0 6 -4 10 -10 10 -5 0
-10 -4 -10 -10z"/>
<path d="M2525 4850 c-3 -5 1 -10 10 -10 9 0 13 5 10 10 -3 6 -8 10 -10 10 -2
0 -7 -4 -10 -10z"/>
<path d="M1297 4844 c-14 -14 -7 -35 11 -32 9 2 17 10 17 17 0 16 -18 25 -28
15z"/>
<path d="M1460 4805 c0 -9 5 -15 11 -13 6 2 11 8 11 13 0 5 -5 11 -11 13 -6 2
-11 -4 -11 -13z"/>
<path d="M227 4788 c-10 -5 -17 -16 -17 -24 0 -8 -9 -31 -20 -51 -17 -32 -18
-40 -6 -58 31 -46 113 -19 103 35 -3 13 -1 33 5 43 16 30 2 65 -25 65 -13 0
-31 -5 -40 -10z"/>
<path d="M2700 4785 c0 -8 7 -15 15 -15 8 0 15 7 15 15 0 8 -7 15 -15 15 -8 0
-15 -7 -15 -15z"/>
<path d="M910 4776 c-57 -14 -70 -22 -70 -46 0 -12 -5 -17 -18 -13 -24 6 -75
-14 -70 -29 2 -6 17 -16 33 -21 23 -8 31 -7 38 5 8 12 14 11 34 -10 18 -18 30
-22 46 -17 28 9 133 9 171 -1 22 -5 28 -4 24 7 -3 8 -15 15 -29 17 -46 6 -53
10 -38 28 11 14 9 20 -16 40 -17 14 -37 30 -45 37 -12 10 -25 11 -60 3z"/>
<path d="M1075 4779 c-10 -15 3 -25 16 -12 7 7 7 13 1 17 -6 3 -14 1 -17 -5z"/>
<path d="M1137 4773 c-13 -12 -7 -23 13 -23 11 0 20 7 20 15 0 15 -21 21 -33
8z"/>
<path d="M2070 4740 c0 -5 5 -10 10 -10 6 0 10 5 10 10 0 6 -4 10 -10 10 -5 0
-10 -4 -10 -10z"/>
<path d="M412 4698 c-19 -19 -14 -62 8 -75 23 -15 70 -1 70 21 0 7 7 17 16 20
8 3 12 10 9 16 -4 6 -10 8 -15 5 -4 -3 -10 2 -14 10 -7 18 -57 20 -74 3z"/>
<path d="M1430 4695 c-17 -21 -2 -50 26 -50 14 0 19 7 19 30 0 34 -24 45 -45
20z"/>
<path d="M625 4661 c-6 -11 9 -23 19 -14 9 9 7 23 -3 23 -6 0 -12 -4 -16 -9z"/>
<path d="M715 4660 c-3 -5 -1 -10 4 -10 6 0 11 5 11 10 0 6 -2 10 -4 10 -3 0
-8 -4 -11 -10z"/>
<path d="M2735 4660 c3 -5 8 -10 11 -10 2 0 4 5 4 10 0 6 -5 10 -11 10 -5 0
-7 -4 -4 -10z"/>
<path d="M580 4645 c0 -8 7 -15 15 -15 8 0 15 7 15 15 0 8 -7 15 -15 15 -8 0
-15 -7 -15 -15z"/>
<path d="M2751 4626 c-14 -16 -4 -46 15 -46 20 0 36 34 22 48 -15 15 -23 15
-37 -2z"/>
<path d="M100 4616 c-15 -19 -9 -56 11 -69 41 -26 91 22 68 65 -12 22 -61 24
-79 4z"/>
<path d="M910 4579 c0 -5 5 -7 10 -4 6 3 10 8 10 11 0 2 -4 4 -10 4 -5 0 -10
-5 -10 -11z"/>
<path d="M254 4525 c-4 -9 -2 -21 4 -27 16 -16 47 -5 47 17 0 26 -42 34 -51
10z"/>
<path d="M2422 4423 c2 -10 10 -18 18 -18 8 0 16 8 18 18 2 12 -3 17 -18 17
-15 0 -20 -5 -18 -17z"/>
<path d="M290 4396 c0 -9 7 -16 16 -16 17 0 14 22 -4 28 -7 2 -12 -3 -12 -12z"/>
<path d="M1105 4400 c3 -5 8 -10 11 -10 2 0 4 5 4 10 0 6 -5 10 -11 10 -5 0
-7 -4 -4 -10z"/>
<path d="M130 4385 c0 -8 7 -15 15 -15 8 0 15 7 15 15 0 8 -7 15 -15 15 -8 0
-15 -7 -15 -15z"/>
<path d="M5456 4381 c-18 -20 -21 -115 -4 -104 5 3 18 -3 29 -13 19 -17 19
-16 19 59 0 82 -10 96 -44 58z"/>
<path d="M4553 4352 c-11 -7 -16 -26 -14 -49 2 -19 51 -16 58 3 11 29 -20 62
-44 46z"/>
<path d="M4294 4299 c-10 -17 23 -46 37 -32 7 7 9 19 6 27 -7 18 -33 21 -43 5z"/>
<path d="M3710 4226 c0 -9 7 -16 16 -16 9 0 14 5 12 12 -6 18 -28 21 -28 4z"/>
<path d="M4286 4205 c-3 -9 1 -18 10 -22 19 -7 39 11 30 26 -10 16 -33 13 -40
-4z"/>
<path d="M283 4194 c-8 -21 13 -42 28 -27 13 13 5 43 -11 43 -6 0 -13 -7 -17
-16z"/>
<path d="M3627 4203 c-12 -11 -8 -23 8 -23 8 0 15 7 15 15 0 16 -12 20 -23 8z"/>
<path d="M2555 4180 c3 -5 8 -10 11 -10 2 0 4 5 4 10 0 6 -5 10 -11 10 -5 0
-7 -4 -4 -10z"/>
<path d="M1425 4130 c3 -5 8 -10 11 -10 2 0 4 5 4 10 0 6 -5 10 -11 10 -5 0
-7 -4 -4 -10z"/>
<path d="M692 4113 c2 -10 10 -18 18 -18 22 0 18 29 -3 33 -14 3 -18 -1 -15
-15z"/>
<path d="M390 4101 c0 -6 -7 -11 -15 -11 -8 0 -15 -4 -15 -9 0 -5 15 -9 33 -8
35 2 46 29 15 35 -10 2 -18 -1 -18 -7z"/>
<path d="M470 4100 c0 -5 5 -10 10 -10 6 0 10 5 10 10 0 6 -4 10 -10 10 -5 0
-10 -4 -10 -10z"/>
<path d="M780 4085 c0 -8 7 -15 15 -15 8 0 15 7 15 15 0 8 -7 15 -15 15 -8 0
-15 -7 -15 -15z"/>
<path d="M1893 4063 c-9 -22 5 -27 32 -13 28 15 26 23 -6 25 -12 1 -23 -4 -26
-12z"/>
<path d="M3022 4059 c2 -6 8 -10 13 -10 5 0 11 4 13 10 2 6 -4 11 -13 11 -9 0
-15 -5 -13 -11z"/>
<path d="M1840 4050 c0 -5 5 -10 11 -10 5 0 7 5 4 10 -3 6 -8 10 -11 10 -2 0
-4 -4 -4 -10z"/>
<path d="M3262 3989 c2 -6 8 -10 13 -10 5 0 11 4 13 10 2 6 -4 11 -13 11 -9 0
-15 -5 -13 -11z"/>
<path d="M3726 3981 c-10 -16 5 -41 24 -41 19 0 34 25 24 41 -3 5 -14 9 -24 9
-10 0 -21 -4 -24 -9z"/>
<path d="M2796 3934 c-9 -8 -16 -26 -16 -39 0 -22 23 -55 38 -55 20 0 52 34
52 55 0 26 -24 55 -45 55 -7 0 -21 -7 -29 -16z"/>
<path d="M3380 3905 c0 -8 7 -15 15 -15 8 0 15 7 15 15 0 8 -7 15 -15 15 -8 0
-15 -7 -15 -15z"/>
<path d="M3105 3901 c-7 -12 12 -24 25 -16 11 7 4 25 -10 25 -5 0 -11 -4 -15
-9z"/>
<path d="M3622 3828 c6 -18 28 -21 28 -4 0 9 -7 16 -16 16 -9 0 -14 -5 -12
-12z"/>
<path d="M3795 3831 c-7 -12 12 -24 25 -16 11 7 4 25 -10 25 -5 0 -11 -4 -15
-9z"/>
<path d="M5250 3829 c0 -5 5 -7 10 -4 6 3 10 8 10 11 0 2 -4 4 -10 4 -5 0 -10
-5 -10 -11z"/>
<path d="M3060 3807 c0 -19 10 -27 26 -20 21 8 17 33 -6 33 -11 0 -20 -6 -20
-13z"/>
<path d="M3290 3790 c0 -5 5 -10 10 -10 6 0 10 5 10 10 0 6 -4 10 -10 10 -5 0
-10 -4 -10 -10z"/>
<path d="M2844 3746 c-11 -29 0 -51 26 -51 21 0 25 5 25 30 0 24 -5 31 -23 33
-13 2 -24 -3 -28 -12z"/>
<path d="M88 3710 c-25 -15 -33 -66 -14 -95 22 -33 78 -35 100 -3 43 61 -22
135 -86 98z"/>
<path d="M2914 3683 c-23 -24 -25 -34 -20 -73 3 -25 13 -50 21 -56 8 -6 15
-17 15 -24 0 -10 5 -9 18 2 9 9 26 18 37 20 12 2 27 20 39 51 20 47 20 47 -1
75 -29 39 -75 42 -109 5z"/>
<path d="M3530 3685 c0 -9 5 -15 11 -13 6 2 11 8 11 13 0 5 -5 11 -11 13 -6 2
-11 -4 -11 -13z"/>
<path d="M4070 3675 c-11 -13 -11 -19 3 -32 21 -21 49 -9 45 19 -4 28 -30 35
-48 13z"/>
<path d="M3636 3604 c-21 -21 -20 -30 6 -48 24 -17 58 -6 58 19 0 15 -26 45
-40 45 -5 0 -16 -7 -24 -16z"/>
<path d="M2790 3595 c0 -9 5 -15 11 -13 6 2 11 8 11 13 0 5 -5 11 -11 13 -6 2
-11 -4 -11 -13z"/>
<path d="M3970 3556 c-13 -17 -6 -36 15 -36 19 0 26 27 11 39 -10 8 -17 7 -26
-3z"/>
<path d="M140 3540 c0 -5 5 -10 10 -10 6 0 10 5 10 10 0 6 -4 10 -10 10 -5 0
-10 -4 -10 -10z"/>
<path d="M3745 3521 c-3 -5 -1 -12 5 -16 12 -7 30 2 30 16 0 12 -27 12 -35 0z"/>
<path d="M4277 3514 c-8 -8 1 -24 14 -24 5 0 9 7 9 15 0 15 -12 20 -23 9z"/>
<path d="M4230 3485 c0 -8 7 -15 15 -15 8 0 15 7 15 15 0 8 -7 15 -15 15 -8 0
-15 -7 -15 -15z"/>
<path d="M1535 3480 c-8 -13 3 -30 20 -30 14 0 27 24 18 34 -10 9 -31 7 -38
-4z"/>
<path d="M1634 3482 c-6 -4 -16 -16 -22 -28 -22 -42 42 -86 76 -52 19 19 14
55 -10 72 -25 18 -29 19 -44 8z"/>
<path d="M4822 3458 c2 -13 10 -23 18 -23 8 0 16 10 18 23 3 17 -2 22 -18 22
-16 0 -21 -5 -18 -22z"/>
<path d="M4057 3434 c-9 -10 2 -24 19 -24 8 0 14 7 14 15 0 15 -21 21 -33 9z"/>
<path d="M4305 3410 c-10 -17 12 -37 25 -24 8 8 6 15 -4 23 -10 9 -16 9 -21 1z"/>
<path d="M1760 3371 c0 -15 6 -21 21 -21 25 0 22 33 -4 38 -12 2 -17 -3 -17
-17z"/>
<path d="M3926 3352 c-3 -6 -1 -14 5 -17 15 -10 25 3 12 16 -7 7 -13 7 -17 1z"/>
<path d="M2895 3320 c3 -5 8 -10 11 -10 2 0 4 5 4 10 0 6 -5 10 -11 10 -5 0
-7 -4 -4 -10z"/>
<path d="M3692 3314 c-26 -18 -31 -71 -7 -80 24 -10 59 3 73 26 11 18 11 25
-3 46 -18 28 -32 30 -63 8z"/>
<path d="M3965 3321 c-3 -5 -1 -12 5 -16 5 -3 10 1 10 9 0 18 -6 21 -15 7z"/>
<path d="M1771 3302 c-13 -25 1 -44 30 -40 41 5 34 57 -8 58 -7 0 -17 -8 -22
-18z"/>
<path d="M4170 3310 c0 -5 5 -10 10 -10 6 0 10 5 10 10 0 6 -4 10 -10 10 -5 0
-10 -4 -10 -10z"/>
<path d="M2370 3300 c0 -5 5 -10 10 -10 6 0 10 5 10 10 0 6 -4 10 -10 10 -5 0
-10 -4 -10 -10z"/>
<path d="M4293 3253 c-15 -5 -17 -49 -4 -57 26 -17 60 26 40 50 -12 15 -16 16
-36 7z"/>
<path d="M1520 3242 c-19 -2 -46 -13 -58 -25 -20 -18 -23 -29 -19 -65 6 -55
29 -74 81 -68 64 7 93 56 69 116 -15 36 -32 46 -73 42z"/>
<path d="M1800 3235 c-18 -22 -3 -55 26 -55 14 0 27 6 30 14 3 8 13 12 26 8
15 -3 19 -1 16 9 -3 8 -10 14 -16 14 -6 0 -17 6 -23 13 -17 16 -44 15 -59 -3z"/>
<path d="M2270 3240 c0 -5 5 -10 10 -10 6 0 10 5 10 10 0 6 -4 10 -10 10 -5 0
-10 -4 -10 -10z"/>
<path d="M4992 3208 c7 -19 38 -22 38 -4 0 10 -9 16 -21 16 -12 0 -19 -5 -17
-12z"/>
<path d="M1166 3203 c-11 -11 -6 -23 9 -23 8 0 15 4 15 9 0 13 -16 22 -24 14z"/>
<path d="M480 3170 c0 -5 5 -10 10 -10 6 0 10 5 10 10 0 6 -4 10 -10 10 -5 0
-10 -4 -10 -10z"/>
<path d="M2630 3134 c-10 -11 -10 -17 0 -28 15 -19 40 -10 40 14 0 24 -25 33
-40 14z"/>
<path d="M665 3120 c3 -5 8 -10 11 -10 2 0 4 5 4 10 0 6 -5 10 -11 10 -5 0 -7
-4 -4 -10z"/>
<path d="M1850 3120 c0 -5 5 -10 11 -10 5 0 7 5 4 10 -3 6 -8 10 -11 10 -2 0
-4 -4 -4 -10z"/>
<path d="M1650 3110 c0 -5 5 -10 10 -10 6 0 10 5 10 10 0 6 -4 10 -10 10 -5 0
-10 -4 -10 -10z"/>
<path d="M480 3100 c0 -5 5 -10 10 -10 6 0 10 5 10 10 0 6 -4 10 -10 10 -5 0
-10 -4 -10 -10z"/>
<path d="M2435 3091 c-8 -15 3 -31 21 -31 9 0 14 7 12 17 -4 20 -24 28 -33 14z"/>
<path d="M4880 3080 c0 -5 5 -10 10 -10 6 0 10 5 10 10 0 6 -4 10 -10 10 -5 0
-10 -4 -10 -10z"/>
<path d="M1502 3043 c2 -10 10 -18 18 -18 8 0 16 8 18 18 2 12 -3 17 -18 17
-15 0 -20 -5 -18 -17z"/>
<path d="M1860 3025 c-18 -21 -5 -47 22 -43 26 3 37 36 16 49 -18 12 -24 11
-38 -6z"/>
<path d="M4710 3030 c0 -5 5 -10 11 -10 5 0 7 5 4 10 -3 6 -8 10 -11 10 -2 0
-4 -4 -4 -10z"/>
<path d="M4880 2980 c0 -5 5 -10 10 -10 6 0 10 5 10 10 0 6 -4 10 -10 10 -5 0
-10 -4 -10 -10z"/>
<path d="M1916 2961 c-4 -7 -5 -15 -2 -18 9 -9 19 4 14 18 -4 11 -6 11 -12 0z"/>
<path d="M4265 2960 c-4 -7 -3 -16 3 -22 14 -14 45 -2 40 15 -6 16 -34 21 -43
7z"/>
<path d="M2807 2934 c-8 -8 1 -24 14 -24 5 0 9 7 9 15 0 15 -12 20 -23 9z"/>
<path d="M1790 2897 c-46 -22 -66 -52 -71 -108 -3 -28 4 -44 29 -75 18 -21 32
-43 32 -47 0 -5 7 -7 15 -3 8 3 15 0 15 -7 0 -7 7 -4 15 6 9 13 20 17 34 12
17 -5 21 -2 21 15 0 16 5 20 15 16 10 -3 15 1 15 14 0 10 5 22 11 25 6 4 7 19
4 37 -6 24 -3 30 14 35 12 3 21 8 22 12 0 3 2 16 5 28 6 33 -38 61 -69 44 -17
-9 -30 -9 -51 -2 -15 6 -28 11 -29 10 -1 0 -13 -6 -27 -12z"/>
<path d="M5052 2893 c5 -25 28 -28 28 -4 0 12 -6 21 -16 21 -9 0 -14 -7 -12
-17z"/>
<path d="M4790 2756 c0 -9 5 -16 10 -16 6 0 10 4 10 9 0 6 -4 13 -10 16 -5 3
-10 -1 -10 -9z"/>
<path d="M2708 2730 c-25 -26 -29 -36 -24 -62 3 -17 6 -39 6 -49 0 -27 74 -18
100 13 26 30 25 83 0 108 -28 28 -46 25 -82 -10z"/>
<path d="M2031 2671 c-19 -12 -6 -43 16 -39 10 2 18 12 18 22 0 22 -14 29 -34
17z"/>
<path d="M3160 2620 c0 -5 5 -10 10 -10 6 0 10 5 10 10 0 6 -4 10 -10 10 -5 0
-10 -4 -10 -10z"/>
<path d="M2964 2599 c-9 -16 31 -53 50 -46 21 8 21 43 0 51 -24 9 -42 7 -50
-5z"/>
<path d="M1320 2571 c0 -26 17 -36 35 -21 18 15 8 40 -16 40 -12 0 -19 -7 -19
-19z"/>
<path d="M2046 2577 c-26 -19 -17 -51 16 -55 31 -4 48 29 28 53 -15 18 -21 19
-44 2z"/>
<path d="M2176 2483 c-11 -11 -6 -23 9 -23 8 0 15 4 15 9 0 13 -16 22 -24 14z"/>
<path d="M2836 2481 c-4 -5 -2 -12 3 -15 5 -4 12 -2 15 3 4 5 2 12 -3 15 -5 4
-12 2 -15 -3z"/>
<path d="M4340 2450 c0 -5 5 -10 10 -10 6 0 10 5 10 10 0 6 -4 10 -10 10 -5 0
-10 -4 -10 -10z"/>
<path d="M2760 2430 c0 -5 5 -10 10 -10 6 0 10 5 10 10 0 6 -4 10 -10 10 -5 0
-10 -4 -10 -10z"/>
<path d="M4390 2430 c0 -5 5 -10 10 -10 6 0 10 5 10 10 0 6 -4 10 -10 10 -5 0
-10 -4 -10 -10z"/>
<path d="M1664 2379 c-10 -17 13 -36 27 -22 12 12 4 33 -11 33 -5 0 -12 -5
-16 -11z"/>
<path d="M2060 2375 c0 -8 7 -15 15 -15 8 0 15 7 15 15 0 8 -7 15 -15 15 -8 0
-15 -7 -15 -15z"/>
<path d="M2981 2362 c-12 -22 -6 -32 21 -32 14 0 19 6 16 22 -4 29 -24 34 -37
10z"/>
<path d="M1934 2325 c-4 -9 -4 -27 -1 -41 2 -15 -3 -39 -12 -55 -12 -22 -13
-33 -5 -46 17 -27 59 -39 89 -25 21 10 25 18 25 51 0 29 -5 43 -19 51 -13 6
-17 17 -14 30 10 39 -49 72 -63 35z"/>
<path d="M1702 2313 c4 -21 33 -25 33 -3 0 8 -8 16 -18 18 -14 3 -18 -1 -15
-15z"/>
<path d="M945 2280 c-4 -7 -3 -16 3 -22 14 -14 45 -2 40 15 -6 16 -34 21 -43
7z"/>
<path d="M1274 2265 c-3 -8 -3 -19 1 -24 8 -14 75 -9 75 5 0 31 -65 48 -76 19z"/>
<path d="M2225 2252 c-3 -4 -14 -7 -23 -7 -9 0 -18 -8 -20 -18 -3 -16 2 -18
35 -15 25 2 39 8 41 19 3 17 -21 33 -33 21z"/>
<path d="M2852 2249 c2 -6 8 -10 13 -10 5 0 11 4 13 10 2 6 -4 11 -13 11 -9 0
-15 -5 -13 -11z"/>
<path d="M3147 2254 c-16 -16 -6 -35 16 -32 12 2 22 10 22 18 0 16 -26 25 -38
14z"/>
<path d="M3182 2196 c1 -10 8 -17 13 -17 15 1 12 24 -3 29 -9 3 -13 -2 -10
-12z"/>
<path d="M1802 2168 c3 -7 13 -15 22 -16 12 -3 17 1 14 10 -3 7 -13 15 -22 16
-12 3 -17 -1 -14 -10z"/>
<path d="M3248 2175 c-3 -3 -4 -14 -1 -24 6 -24 45 -16 41 8 -3 16 -29 27 -40
16z"/>
<path d="M3384 2136 c-11 -28 4 -48 33 -44 22 2 28 8 28 28 0 20 -6 26 -28 28
-18 2 -29 -2 -33 -12z"/>
<path d="M3770 2100 c0 -5 5 -10 10 -10 6 0 10 5 10 10 0 6 -4 10 -10 10 -5 0
-10 -4 -10 -10z"/>
<path d="M1355 2090 c-3 -5 -1 -10 4 -10 6 0 11 5 11 10 0 6 -2 10 -4 10 -3 0
-8 -4 -11 -10z"/>
<path d="M3025 2091 c-3 -5 -1 -12 5 -16 12 -7 30 2 30 16 0 12 -27 12 -35 0z"/>
<path d="M1522 2061 c4 -13 18 -16 19 -4 0 4 -5 9 -11 12 -7 2 -11 -2 -8 -8z"/>
<path d="M3800 2049 c0 -14 5 -19 17 -17 26 5 29 38 4 38 -15 0 -21 -6 -21
-21z"/>
<path d="M2324 2039 c-3 -6 1 -18 10 -27 15 -15 17 -15 32 0 19 19 11 38 -16
38 -10 0 -22 -5 -26 -11z"/>
<path d="M3201 2036 c-9 -10 -8 -16 3 -25 10 -9 16 -8 25 3 9 10 8 16 -3 25
-10 9 -16 8 -25 -3z"/>
<path d="M3463 2015 c-7 -20 2 -29 21 -22 9 4 13 13 10 22 -8 19 -23 19 -31 0z"/>
<path d="M666 1984 c-23 -23 -21 -81 4 -94 15 -8 24 -6 40 10 22 22 26 51 10
81 -13 23 -33 24 -54 3z"/>
<path d="M1576 1985 c-6 -17 16 -31 33 -21 13 9 2 36 -14 36 -7 0 -16 -7 -19
-15z"/>
<path d="M2807 1993 c-4 -3 -7 -15 -7 -25 0 -26 24 -17 28 10 3 21 -8 29 -21
15z"/>
<path d="M1406 1983 c-12 -12 -6 -33 9 -33 8 0 15 6 15 14 0 17 -14 28 -24 19z"/>
<path d="M3237 1984 c-8 -8 1 -24 14 -24 5 0 9 7 9 15 0 15 -12 20 -23 9z"/>
<path d="M2196 1935 c-12 -12 -13 -22 -5 -43 6 -14 16 -30 22 -34 17 -11 55
-10 62 2 13 21 15 63 4 76 -15 19 -64 18 -83 -1z"/>
<path d="M3600 1930 c0 -32 30 -72 44 -60 9 7 11 2 8 -20 -3 -25 -1 -30 16
-30 11 0 25 7 32 15 10 12 8 19 -11 39 -13 14 -29 21 -38 18 -14 -5 -14 -3 -2
11 11 14 11 20 1 32 -19 22 -50 19 -50 -5z"/>
<path d="M1691 1921 c-8 -15 -7 -23 5 -35 26 -27 58 -12 52 25 -4 31 -42 38
-57 10z"/>
<path d="M3124 1929 c-3 -6 -2 -15 2 -19 12 -12 38 5 30 19 -9 14 -23 14 -32
0z"/>
<path d="M3260 1930 c0 -5 7 -10 16 -10 8 0 12 5 9 10 -3 6 -10 10 -16 10 -5
0 -9 -4 -9 -10z"/>
<path d="M785 1920 c-8 -14 3 -30 21 -30 8 0 14 9 14 20 0 21 -24 28 -35 10z"/>
<path d="M1475 1909 c-8 -24 -1 -34 19 -26 9 4 12 14 9 26 -7 27 -20 27 -28 0z"/>
<path d="M224 1899 c-19 -21 -19 -21 11 -45 30 -24 46 -30 43 -16 0 4 3 15 7
26 9 21 -5 50 -27 54 -8 1 -23 -7 -34 -19z"/>
<path d="M1210 1910 c0 -5 5 -10 10 -10 6 0 10 5 10 10 0 6 -4 10 -10 10 -5 0
-10 -4 -10 -10z"/>
<path d="M1342 1905 c4 -4 2 -13 -6 -19 -18 -14 -29 -63 -16 -71 5 -3 7 -12 4
-20 -7 -18 23 -32 38 -17 6 6 5 14 -5 23 -12 12 -11 15 7 24 32 16 32 49 -1
70 -15 10 -25 14 -21 10z"/>
<path d="M3910 1886 c0 -8 4 -17 9 -20 11 -7 33 18 24 27 -12 12 -33 7 -33 -7z"/>
<path d="M4480 1874 c0 -8 5 -12 10 -9 6 4 8 11 5 16 -9 14 -15 11 -15 -7z"/>
<path d="M740 1855 c0 -8 5 -15 10 -15 6 0 10 7 10 15 0 8 -4 15 -10 15 -5 0
-10 -7 -10 -15z"/>
<path d="M2330 1860 c0 -5 5 -10 10 -10 6 0 10 5 10 10 0 6 -4 10 -10 10 -5 0
-10 -4 -10 -10z"/>
<path d="M3122 1854 c9 -9 21 -13 27 -9 16 10 3 25 -22 25 -20 0 -20 -1 -5
-16z"/>
<path d="M3240 1830 c0 -5 5 -10 10 -10 6 0 10 5 10 10 0 6 -4 10 -10 10 -5 0
-10 -4 -10 -10z"/>
<path d="M3140 1810 c0 -5 7 -10 15 -10 8 0 15 5 15 10 0 6 -7 10 -15 10 -8 0
-15 -4 -15 -10z"/>
<path d="M880 1785 c-10 -18 -11 -28 -3 -36 17 -17 30 -3 31 31 1 37 -10 39
-28 5z"/>
<path d="M816 1760 c18 -35 39 -35 39 1 0 19 -6 25 -27 27 l-27 3 15 -31z"/>
<path d="M2762 1778 c7 -19 38 -22 38 -4 0 10 -9 16 -21 16 -12 0 -19 -5 -17
-12z"/>
<path d="M3730 1755 c0 -9 5 -15 11 -13 6 2 11 8 11 13 0 5 -5 11 -11 13 -6 2
-11 -4 -11 -13z"/>
<path d="M1830 1745 c0 -8 5 -15 10 -15 6 0 10 7 10 15 0 8 -4 15 -10 15 -5 0
-10 -7 -10 -15z"/>
<path d="M276 1724 c-21 -21 -20 -64 2 -80 11 -9 13 -13 4 -14 -7 0 -10 -5 -6
-11 4 -7 9 -7 13 -2 3 6 20 16 36 24 22 10 31 22 33 44 6 47 -48 73 -82 39z"/>
<path d="M3740 1720 c0 -5 5 -10 10 -10 6 0 10 5 10 10 0 6 -4 10 -10 10 -5 0
-10 -4 -10 -10z"/>
<path d="M4550 1700 c0 -5 5 -10 10 -10 6 0 10 5 10 10 0 6 -4 10 -10 10 -5 0
-10 -4 -10 -10z"/>
<path d="M3794 1668 c-10 -15 6 -25 31 -20 34 6 33 32 -1 30 -14 -2 -28 -6
-30 -10z"/>
<path d="M770 1626 c0 -8 4 -17 9 -20 11 -7 33 18 24 27 -12 12 -33 7 -33 -7z"/>
<path d="M3155 1630 c-3 -5 -1 -10 4 -10 6 0 11 5 11 10 0 6 -2 10 -4 10 -3 0
-8 -4 -11 -10z"/>
<path d="M710 1590 c0 -5 5 -10 11 -10 5 0 7 5 4 10 -3 6 -8 10 -11 10 -2 0
-4 -4 -4 -10z"/>
<path d="M1090 1580 c0 -5 5 -10 10 -10 6 0 10 5 10 10 0 6 -4 10 -10 10 -5 0
-10 -4 -10 -10z"/>
<path d="M1660 1560 c0 -5 5 -10 11 -10 5 0 7 5 4 10 -3 6 -8 10 -11 10 -2 0
-4 -4 -4 -10z"/>
<path d="M1420 1550 c0 -5 5 -10 10 -10 6 0 10 5 10 10 0 6 -4 10 -10 10 -5 0
-10 -4 -10 -10z"/>
<path d="M590 1530 c0 -5 5 -10 10 -10 6 0 10 5 10 10 0 6 -4 10 -10 10 -5 0
-10 -4 -10 -10z"/>
<path d="M2360 1510 c0 -13 7 -20 20 -20 23 0 26 10 8 28 -18 18 -28 15 -28
-8z"/>
<path d="M3120 1520 c0 -5 5 -10 10 -10 6 0 10 5 10 10 0 6 -4 10 -10 10 -5 0
-10 -4 -10 -10z"/>
<path d="M1982 1499 c2 -7 10 -15 17 -17 8 -3 12 1 9 9 -2 7 -10 15 -17 17 -8
3 -12 -1 -9 -9z"/>
<path d="M460 1490 c0 -5 5 -10 10 -10 6 0 10 5 10 10 0 6 -4 10 -10 10 -5 0
-10 -4 -10 -10z"/>
<path d="M1280 1479 c0 -5 5 -7 10 -4 6 3 10 8 10 11 0 2 -4 4 -10 4 -5 0 -10
-5 -10 -11z"/>
<path d="M5342 1479 c2 -6 8 -10 13 -10 5 0 11 4 13 10 2 6 -4 11 -13 11 -9 0
-15 -5 -13 -11z"/>
<path d="M3162 1453 c-13 -26 -4 -43 23 -43 29 0 39 24 19 45 -20 20 -31 19
-42 -2z"/>
<path d="M2034 1445 c-8 -20 13 -45 37 -45 23 0 25 23 3 44 -19 20 -33 20 -40
1z"/>
<path d="M3590 1426 c0 -24 26 -38 40 -22 6 9 9 20 5 26 -9 15 -45 12 -45 -4z"/>
<path d="M3832 1414 c2 -11 11 -20 22 -22 13 -3 17 1 14 14 -2 11 -11 20 -22
22 -13 3 -17 -1 -14 -14z"/>
<path d="M4030 1340 c0 -11 7 -20 15 -20 8 0 15 9 15 20 0 11 -7 20 -15 20 -8
0 -15 -9 -15 -20z"/>
<path d="M2785 1309 c-10 -15 3 -25 16 -12 7 7 7 13 1 17 -6 3 -14 1 -17 -5z"/>
<path d="M4160 1310 c0 -5 5 -10 10 -10 6 0 10 5 10 10 0 6 -4 10 -10 10 -5 0
-10 -4 -10 -10z"/>
<path d="M1334 1299 c-10 -17 13 -36 27 -22 12 12 4 33 -11 33 -5 0 -12 -5
-16 -11z"/>
<path d="M1863 1299 c-16 -16 -5 -39 19 -39 14 0 19 6 16 22 -4 25 -19 33 -35
17z"/>
<path d="M4495 1270 c-3 -5 1 -10 10 -10 9 0 13 5 10 10 -3 6 -8 10 -10 10 -2
0 -7 -4 -10 -10z"/>
<path d="M1873 1234 c-8 -21 13 -42 28 -27 13 13 5 43 -11 43 -6 0 -13 -7 -17
-16z"/>
<path d="M615 1230 c-4 -6 -3 -16 3 -22 6 -6 12 -6 17 2 4 6 3 16 -3 22 -6 6
-12 6 -17 -2z"/>
<path d="M310 1220 c0 -5 5 -10 10 -10 6 0 10 5 10 10 0 6 -4 10 -10 10 -5 0
-10 -4 -10 -10z"/>
<path d="M2235 1219 c-4 -5 0 -18 9 -28 9 -10 16 -23 16 -29 0 -17 50 -51 66
-45 23 9 16 41 -18 78 -31 35 -61 45 -73 24z"/>
<path d="M2662 1218 c3 -7 13 -15 22 -16 12 -3 17 1 14 10 -3 7 -13 15 -22 16
-12 3 -17 -1 -14 -10z"/>
<path d="M3581 1188 c-24 -22 -28 -70 -7 -87 19 -16 63 2 77 33 23 49 -31 91
-70 54z"/>
<path d="M2575 1190 c3 -5 8 -10 11 -10 2 0 4 5 4 10 0 6 -5 10 -11 10 -5 0
-7 -4 -4 -10z"/>
<path d="M4230 1172 c0 -16 32 -52 41 -47 15 10 10 35 -6 35 -8 0 -15 5 -15
10 0 6 -4 10 -10 10 -5 0 -10 -3 -10 -8z"/>
<path d="M4420 1160 c0 -5 5 -10 10 -10 6 0 10 5 10 10 0 6 -4 10 -10 10 -5 0
-10 -4 -10 -10z"/>
<path d="M1164 1149 c-3 -6 -1 -16 5 -22 9 -9 14 -8 21 3 9 15 4 30 -10 30 -5
0 -12 -5 -16 -11z"/>
<path d="M4305 1140 c-4 -6 -3 -16 3 -22 6 -6 12 -6 17 2 4 6 3 16 -3 22 -6 6
-12 6 -17 -2z"/>
<path d="M2130 1090 c0 -5 5 -10 10 -10 6 0 10 5 10 10 0 6 -4 10 -10 10 -5 0
-10 -4 -10 -10z"/>
<path d="M2210 1035 c0 -8 5 -15 10 -15 6 0 10 7 10 15 0 8 -4 15 -10 15 -5 0
-10 -7 -10 -15z"/>
<path d="M1405 1010 c3 -5 8 -10 11 -10 2 0 4 5 4 10 0 6 -5 10 -11 10 -5 0
-7 -4 -4 -10z"/>
<path d="M4177 1013 c-12 -11 -8 -23 8 -23 8 0 15 7 15 15 0 16 -12 20 -23 8z"/>
<path d="M4616 994 c-10 -25 -7 -34 9 -34 9 0 15 9 15 25 0 28 -15 34 -24 9z"/>
<path d="M1177 993 c-4 -3 -7 -14 -7 -24 0 -9 -7 -19 -15 -23 -8 -3 -15 -12
-15 -20 0 -10 -6 -13 -15 -10 -18 7 -32 -23 -17 -38 8 -8 16 -7 28 3 9 8 25
13 35 11 22 -4 41 28 29 48 -6 9 -5 17 2 21 6 4 8 14 5 23 -7 17 -19 21 -30 9z"/>
<path d="M3805 990 c3 -5 8 -10 11 -10 2 0 4 5 4 10 0 6 -5 10 -11 10 -5 0 -7
-4 -4 -10z"/>
<path d="M3936 981 c-4 -5 -2 -12 3 -15 5 -4 12 -2 15 3 4 5 2 12 -3 15 -5 4
-12 2 -15 -3z"/>
<path d="M1922 929 c2 -7 10 -15 17 -17 8 -3 12 1 9 9 -2 7 -10 15 -17 17 -8
3 -12 -1 -9 -9z"/>
<path d="M4307 933 c-13 -12 -7 -40 11 -56 24 -22 29 -21 42 3 19 36 -26 81
-53 53z"/>
<path d="M772 889 c-10 -16 -10 -24 -1 -35 17 -20 37 0 31 31 -5 30 -13 31
-30 4z"/>
<path d="M166 878 c-9 -12 -16 -28 -16 -35 0 -7 -4 -13 -10 -13 -21 0 -9 -18
17 -25 20 -5 32 -1 51 19 22 22 24 28 14 51 -14 31 -36 32 -56 3z"/>
<path d="M2474 889 c-3 -6 -2 -15 2 -19 12 -12 38 5 30 19 -9 14 -23 14 -32 0z"/>
<path d="M710 860 c0 -5 7 -10 15 -10 8 0 15 5 15 10 0 6 -7 10 -15 10 -8 0
-15 -4 -15 -10z"/>
<path d="M1790 860 c0 -5 5 -10 11 -10 5 0 7 5 4 10 -3 6 -8 10 -11 10 -2 0
-4 -4 -4 -10z"/>
<path d="M1112 848 c6 -18 28 -21 28 -4 0 9 -7 16 -16 16 -9 0 -14 -5 -12 -12z"/>
<path d="M1162 814 c4 -21 22 -23 26 -1 2 10 -3 17 -13 17 -10 0 -15 -6 -13
-16z"/>
<path d="M4040 810 c0 -5 5 -10 10 -10 6 0 10 5 10 10 0 6 -4 10 -10 10 -5 0
-10 -4 -10 -10z"/>
<path d="M4004 785 c-17 -14 -17 -16 -3 -27 9 -7 14 -19 12 -25 -3 -7 2 -13
11 -13 18 0 30 16 17 24 -5 3 -7 15 -4 25 7 26 -10 34 -33 16z"/>
<path d="M535 780 c-3 -5 -1 -10 4 -10 6 0 11 5 11 10 0 6 -2 10 -4 10 -3 0
-8 -4 -11 -10z"/>
<path d="M186 771 c-4 -5 -2 -12 3 -15 5 -4 12 -2 15 3 4 5 2 12 -3 15 -5 4
-12 2 -15 -3z"/>
<path d="M1544 735 c-4 -9 -2 -21 4 -27 15 -15 44 -1 40 19 -4 23 -36 29 -44
8z"/>
<path d="M4703 734 c-8 -22 18 -37 36 -20 7 8 10 19 7 25 -10 16 -36 13 -43
-5z"/>
<path d="M2646 726 c6 -16 34 -30 42 -21 8 7 -19 35 -34 35 -7 0 -11 -6 -8
-14z"/>
<path d="M544 709 c-10 -17 13 -36 27 -22 12 12 4 33 -11 33 -5 0 -12 -5 -16
-11z"/>
<path d="M803 664 c-8 -21 13 -42 28 -27 13 13 5 43 -11 43 -6 0 -13 -7 -17
-16z"/>
<path d="M2480 621 c0 -6 5 -13 10 -16 6 -3 10 1 10 9 0 9 -4 16 -10 16 -5 0
-10 -4 -10 -9z"/>
<path d="M1490 550 c0 -15 5 -20 18 -18 9 2 17 10 17 18 0 8 -8 16 -17 18 -13
2 -18 -3 -18 -18z"/>
<path d="M3152 558 c-17 -17 -15 -45 4 -52 22 -9 46 13 42 38 -4 24 -28 32
-46 14z"/>
<path d="M1086 521 c-4 -5 -2 -12 3 -15 5 -4 12 -2 15 3 4 5 2 12 -3 15 -5 4
-12 2 -15 -3z"/>
<path d="M1030 485 c0 -8 5 -15 10 -15 6 0 10 7 10 15 0 8 -4 15 -10 15 -5 0
-10 -7 -10 -15z"/>
<path d="M2102 478 c5 -15 28 -18 29 -3 0 6 -7 12 -17 13 -10 3 -15 -1 -12
-10z"/>
<path d="M1721 466 c-9 -10 -9 -16 -1 -21 17 -10 37 12 24 25 -8 8 -15 6 -23
-4z"/>
<path d="M2862 459 c2 -7 10 -15 17 -17 8 -3 12 1 9 9 -2 7 -10 15 -17 17 -8
3 -12 -1 -9 -9z"/>
<path d="M875 440 c-4 -6 -3 -16 3 -22 6 -6 12 -6 17 2 4 6 3 16 -3 22 -6 6
-12 6 -17 -2z"/>
<path d="M930 430 c0 -5 5 -10 11 -10 5 0 7 5 4 10 -3 6 -8 10 -11 10 -2 0 -4
-4 -4 -10z"/>
<path d="M1750 391 c0 -6 5 -13 10 -16 6 -3 10 1 10 9 0 9 -4 16 -10 16 -5 0
-10 -4 -10 -9z"/>
<path d="M420 350 c0 -5 5 -10 11 -10 5 0 7 5 4 10 -3 6 -8 10 -11 10 -2 0 -4
-4 -4 -10z"/>
<path d="M1857 327 c-13 -20 -13 -25 0 -42 8 -11 18 -27 23 -35 7 -12 11 -12
24 -1 18 15 21 53 6 82 -14 25 -34 24 -53 -4z"/>
<path d="M1132 328 c-18 -18 -14 -46 7 -58 15 -7 23 -6 35 6 20 19 20 29 0 48
-19 19 -26 20 -42 4z"/>
<path d="M1000 310 c0 -5 5 -10 11 -10 5 0 7 5 4 10 -3 6 -8 10 -11 10 -2 0
-4 -4 -4 -10z"/>
<path d="M602 299 c2 -6 8 -10 13 -10 5 0 11 4 13 10 2 6 -4 11 -13 11 -9 0
-15 -5 -13 -11z"/>
<path d="M470 255 c0 -8 5 -15 10 -15 6 0 10 7 10 15 0 8 -4 15 -10 15 -5 0
-10 -7 -10 -15z"/>
<path d="M950 235 c0 -9 5 -15 11 -13 6 2 11 8 11 13 0 5 -5 11 -11 13 -6 2
-11 -4 -11 -13z"/>
<path d="M4653 233 c-18 -7 -16 -28 3 -43 12 -11 18 -10 31 3 13 13 14 19 3
31 -13 17 -17 18 -37 9z"/>
<path d="M2040 190 c0 -5 5 -10 10 -10 6 0 10 5 10 10 0 6 -4 10 -10 10 -5 0
-10 -4 -10 -10z"/>
<path d="M825 160 c-8 -13 4 -32 16 -25 12 8 12 35 0 35 -6 0 -13 -4 -16 -10z"/>
<path d="M700 104 c0 -8 5 -12 10 -9 6 4 8 11 5 16 -9 14 -15 11 -15 -7z"/>
<path d="M454 76 c-9 -22 2 -46 21 -46 12 0 15 8 13 27 -3 30 -25 42 -34 19z"/>
<path d="M550 10 c0 -5 5 -10 10 -10 6 0 10 5 10 10 0 6 -4 10 -10 10 -5 0
-10 -4 -10 -10z"/>
</g>
</svg>
