<?xml version="1.0" standalone="no"?>
<!DOCTYPE svg PUBLIC "-//W3C//DTD SVG 20010904//EN"
 "http://www.w3.org/TR/2001/REC-SVG-20010904/DTD/svg10.dtd">
<svg version="1.0" xmlns="http://www.w3.org/2000/svg"
 width="736.000000pt" height="1041.000000pt" viewBox="0 0 736.000000 1041.000000"
 preserveAspectRatio="xMidYMid meet">

<g transform="translate(0.000000,1041.000000) scale(0.100000,-0.100000)"
fill="#000000" stroke="none">
<path d="M3032 10394 c10 -10 23 -14 37 -9 34 10 24 25 -16 25 -34 0 -36 -1
-21 -16z"/>
<path d="M1170 10279 c0 -5 5 -7 10 -4 6 3 10 8 10 11 0 2 -4 4 -10 4 -5 0
-10 -5 -10 -11z"/>
<path d="M271 10241 c-22 -22 -19 -46 9 -61 34 -18 57 43 26 69 -12 10 -19 8
-35 -8z"/>
<path d="M2953 10230 c-16 -19 -18 -19 -25 -3 -5 14 -7 11 -7 -9 -1 -16 -6
-28 -12 -28 -12 0 -3 -54 15 -82 11 -18 42 -24 62 -10 32 21 38 107 8 119 -8
3 -12 9 -9 13 12 19 -16 19 -32 0z"/>
<path d="M126 10232 c-3 -6 -1 -14 5 -17 15 -10 25 3 12 16 -7 7 -13 7 -17 1z"/>
<path d="M3367 10223 c-12 -12 -7 -31 10 -37 24 -9 39 9 23 29 -14 16 -23 19
-33 8z"/>
<path d="M2260 10186 c0 -8 4 -17 9 -20 11 -7 33 18 24 27 -12 12 -33 7 -33
-7z"/>
<path d="M2373 10164 c-6 -16 15 -37 29 -28 4 3 8 14 8 25 0 23 -28 26 -37 3z"/>
<path d="M2270 10114 c0 -9 7 -14 17 -12 25 5 28 28 4 28 -12 0 -21 -6 -21
-16z"/>
<path d="M4482 10091 c-23 -12 -29 -20 -22 -31 5 -8 7 -17 4 -22 -7 -12 42
-39 59 -33 22 9 26 66 6 86 -15 15 -19 15 -47 0z"/>
<path d="M1800 10010 c0 -5 5 -10 10 -10 6 0 10 5 10 10 0 6 -4 10 -10 10 -5
0 -10 -4 -10 -10z"/>
<path d="M1941 9978 c-5 -12 -7 -24 -6 -26 7 -8 46 20 42 31 -7 21 -27 19 -36
-5z"/>
<path d="M2810 9920 c0 -19 11 -26 23 -14 8 8 -3 34 -14 34 -5 0 -9 -9 -9 -20z"/>
<path d="M6852 9895 c-26 -27 -28 -57 -6 -79 26 -26 52 -19 73 21 10 20 8 27
-17 52 l-28 29 -22 -23z"/>
<path d="M5853 9666 c7 -17 -22 -30 -46 -20 -12 4 -14 1 -10 -15 4 -17 2 -20
-11 -15 -17 7 -19 0 -7 -31 5 -11 4 -28 0 -37 -17 -32 10 -58 58 -58 24 0 43
5 43 10 0 6 11 15 25 20 25 9 29 18 25 54 -2 22 16 36 48 36 22 0 28 10 15 23
-3 4 -12 2 -19 -4 -10 -8 -21 -5 -44 15 -17 14 -37 23 -45 20 -8 -4 -15 -1
-15 5 0 6 -5 11 -11 11 -6 0 -9 -7 -6 -14z"/>
<path d="M3236 9579 c3 -5 1 -9 -4 -9 -16 0 0 -50 19 -60 13 -7 22 -6 33 6 19
19 20 26 4 46 -14 16 -62 32 -52 17z"/>
<path d="M4745 9530 c3 -5 8 -10 11 -10 2 0 4 5 4 10 0 6 -5 10 -11 10 -5 0
-7 -4 -4 -10z"/>
<path d="M6751 9424 c0 -11 3 -14 6 -6 3 7 2 16 -1 19 -3 4 -6 -2 -5 -13z"/>
<path d="M3060 9390 c-14 -26 -6 -51 20 -68 11 -7 19 -9 18 -5 -1 5 3 17 9 29
16 28 5 64 -18 64 -10 0 -23 -9 -29 -20z"/>
<path d="M576 9362 c-3 -6 -1 -14 5 -17 15 -10 25 3 12 16 -7 7 -13 7 -17 1z"/>
<path d="M2940 9338 c0 -16 4 -28 9 -28 5 0 12 -11 15 -24 17 -66 92 -23 77
44 -6 26 -28 31 -65 15 -12 -5 -21 -3 -27 6 -6 10 -9 6 -9 -13z"/>
<path d="M6882 9283 c2 -10 10 -18 18 -18 8 0 16 8 18 18 2 12 -3 17 -18 17
-15 0 -20 -5 -18 -17z"/>
<path d="M5746 9251 c-4 -5 -2 -12 3 -15 5 -4 12 -2 15 3 4 5 2 12 -3 15 -5 4
-12 2 -15 -3z"/>
<path d="M460 9229 c0 -5 5 -7 10 -4 6 3 10 8 10 11 0 2 -4 4 -10 4 -5 0 -10
-5 -10 -11z"/>
<path d="M6530 9220 c0 -5 5 -10 10 -10 6 0 10 5 10 10 0 6 -4 10 -10 10 -5 0
-10 -4 -10 -10z"/>
<path d="M6090 9100 c0 -5 5 -10 10 -10 6 0 10 5 10 10 0 6 -4 10 -10 10 -5 0
-10 -4 -10 -10z"/>
<path d="M6702 9048 c2 -15 10 -23 23 -23 13 0 21 8 23 23 3 18 -1 22 -23 22
-22 0 -26 -4 -23 -22z"/>
<path d="M915 9020 c-3 -5 -1 -10 4 -10 6 0 11 5 11 10 0 6 -2 10 -4 10 -3 0
-8 -4 -11 -10z"/>
<path d="M6180 9000 c0 -5 4 -10 9 -10 6 0 13 5 16 10 3 6 -1 10 -9 10 -9 0
-16 -4 -16 -10z"/>
<path d="M3645 8990 c-3 -5 1 -10 9 -10 9 0 16 5 16 10 0 6 -4 10 -9 10 -6 0
-13 -4 -16 -10z"/>
<path d="M6397 8976 c-8 -21 22 -44 33 -26 10 17 2 40 -15 40 -7 0 -15 -6 -18
-14z"/>
<path d="M4072 8958 c5 -15 28 -18 29 -3 0 6 -7 12 -17 13 -10 3 -15 -1 -12
-10z"/>
<path d="M6520 8950 c0 -5 5 -10 10 -10 6 0 10 5 10 10 0 6 -4 10 -10 10 -5 0
-10 -4 -10 -10z"/>
<path d="M5136 8921 c-4 -7 -5 -15 -2 -18 9 -9 19 4 14 18 -4 11 -6 11 -12 0z"/>
<path d="M2917 8904 c-10 -10 -9 -42 2 -48 5 -3 14 0 20 7 12 15 -9 54 -22 41z"/>
<path d="M6426 8891 c-4 -5 -2 -12 3 -15 5 -4 12 -2 15 3 4 5 2 12 -3 15 -5 4
-12 2 -15 -3z"/>
<path d="M5792 8879 c-31 -12 -49 -53 -32 -74 18 -21 57 -19 70 4 24 46 3 86
-38 70z"/>
<path d="M4972 8864 c4 -21 22 -23 26 -1 2 10 -3 17 -13 17 -10 0 -15 -6 -13
-16z"/>
<path d="M2375 8860 c-4 -7 -3 -16 3 -22 14 -14 45 -2 40 15 -6 16 -34 21 -43
7z"/>
<path d="M4306 8841 c-26 -28 -14 -78 19 -78 25 0 35 19 35 70 0 33 -28 37
-54 8z"/>
<path d="M1180 8770 c0 -5 5 -10 11 -10 5 0 7 5 4 10 -3 6 -8 10 -11 10 -2 0
-4 -4 -4 -10z"/>
<path d="M768 8668 c-21 -25 -23 -49 -7 -65 29 -29 50 20 31 69 -6 15 -9 15
-24 -4z"/>
<path d="M5611 8596 c-18 -33 11 -96 43 -96 34 0 69 46 61 80 -8 30 -2 26 -51
33 -36 4 -44 2 -53 -17z"/>
<path d="M4260 8600 c0 -5 5 -10 10 -10 6 0 10 5 10 10 0 6 -4 10 -10 10 -5 0
-10 -4 -10 -10z"/>
<path d="M962 8579 c2 -6 8 -10 13 -10 5 0 11 4 13 10 2 6 -4 11 -13 11 -9 0
-15 -5 -13 -11z"/>
<path d="M4327 8573 c-13 -12 -7 -33 8 -33 8 0 15 9 15 20 0 20 -11 26 -23 13z"/>
<path d="M4803 8573 c-15 -6 -17 -43 -3 -43 12 0 24 25 18 38 -1 5 -9 7 -15 5z"/>
<path d="M4872 8568 c-16 -16 -15 -38 1 -38 19 0 36 20 30 36 -6 17 -15 18
-31 2z"/>
<path d="M3240 8550 c0 -5 5 -10 10 -10 6 0 10 5 10 10 0 6 -4 10 -10 10 -5 0
-10 -4 -10 -10z"/>
<path d="M5214 8549 c-10 -17 13 -36 27 -22 12 12 4 33 -11 33 -5 0 -12 -5
-16 -11z"/>
<path d="M875 8540 c3 -5 8 -10 11 -10 2 0 4 5 4 10 0 6 -5 10 -11 10 -5 0 -7
-4 -4 -10z"/>
<path d="M4540 8494 c-12 -22 -12 -27 0 -34 21 -13 23 -13 49 11 17 16 20 24
10 35 -18 22 -44 17 -59 -12z"/>
<path d="M124 8496 c-4 -10 -2 -22 4 -28 8 -8 13 -7 18 6 4 10 2 22 -4 28 -8
8 -13 7 -18 -6z"/>
<path d="M1230 8470 c0 -5 5 -10 10 -10 6 0 10 5 10 10 0 6 -4 10 -10 10 -5 0
-10 -4 -10 -10z"/>
<path d="M4663 8454 c-8 -21 13 -42 28 -27 13 13 5 43 -11 43 -6 0 -13 -7 -17
-16z"/>
<path d="M6646 8451 c-4 -5 -2 -12 3 -15 5 -4 12 -2 15 3 4 5 2 12 -3 15 -5 4
-12 2 -15 -3z"/>
<path d="M4843 8387 c-23 -10 -32 -50 -14 -61 26 -17 61 29 44 57 -6 11 -14
12 -30 4z"/>
<path d="M5706 8393 c-12 -12 -6 -33 9 -33 8 0 15 6 15 14 0 17 -14 28 -24 19z"/>
<path d="M5253 8369 c-24 -9 -32 -52 -13 -64 17 -11 50 15 50 40 0 30 -9 35
-37 24z"/>
<path d="M5417 8342 c-32 -35 -12 -77 31 -65 38 9 27 83 -12 83 -2 0 -10 -8
-19 -18z"/>
<path d="M4612 8269 c2 -6 8 -10 13 -10 5 0 11 4 13 10 2 6 -4 11 -13 11 -9 0
-15 -5 -13 -11z"/>
<path d="M5006 8264 c-4 -10 0 -24 9 -33 15 -15 18 -14 31 4 18 24 13 39 -13
43 -12 2 -23 -4 -27 -14z"/>
<path d="M1895 8209 c-10 -15 3 -25 16 -12 7 7 7 13 1 17 -6 3 -14 1 -17 -5z"/>
<path d="M3126 8189 c-28 -34 -17 -79 20 -79 28 0 48 32 40 65 -8 30 -39 38
-60 14z"/>
<path d="M5065 8060 c-3 -5 -1 -10 4 -10 6 0 11 5 11 10 0 6 -2 10 -4 10 -3 0
-8 -4 -11 -10z"/>
<path d="M5270 8040 c0 -5 5 -10 10 -10 6 0 10 5 10 10 0 6 -4 10 -10 10 -5 0
-10 -4 -10 -10z"/>
<path d="M6800 8000 c0 -5 7 -10 15 -10 8 0 15 5 15 10 0 6 -7 10 -15 10 -8 0
-15 -4 -15 -10z"/>
<path d="M6720 7925 c0 -8 7 -15 15 -15 8 0 15 7 15 15 0 8 -7 15 -15 15 -8 0
-15 -7 -15 -15z"/>
<path d="M5690 7905 c0 -9 5 -15 11 -13 6 2 11 8 11 13 0 5 -5 11 -11 13 -6 2
-11 -4 -11 -13z"/>
<path d="M7255 7899 c-10 -14 -1 -21 19 -13 9 3 13 10 10 15 -7 12 -21 11 -29
-2z"/>
<path d="M1890 7810 c0 -5 5 -10 11 -10 5 0 7 5 4 10 -3 6 -8 10 -11 10 -2 0
-4 -4 -4 -10z"/>
<path d="M1406 7765 c4 -8 10 -12 15 -9 11 6 2 24 -11 24 -5 0 -7 -7 -4 -15z"/>
<path d="M4373 7595 c-33 -32 -35 -102 -3 -122 16 -11 23 -9 44 10 37 33 35
101 -2 123 -13 7 -22 5 -39 -11z"/>
<path d="M5050 7605 c0 -8 5 -15 10 -15 6 0 10 7 10 15 0 8 -4 15 -10 15 -5 0
-10 -7 -10 -15z"/>
<path d="M2040 7520 c0 -5 5 -10 10 -10 6 0 10 5 10 10 0 6 -4 10 -10 10 -5 0
-10 -4 -10 -10z"/>
<path d="M6310 7490 c0 -5 5 -10 11 -10 5 0 7 5 4 10 -3 6 -8 10 -11 10 -2 0
-4 -4 -4 -10z"/>
<path d="M1387 7465 c-4 -8 -2 -17 3 -20 6 -4 10 3 10 14 0 25 -6 27 -13 6z"/>
<path d="M2590 7460 c0 -5 5 -10 10 -10 6 0 10 5 10 10 0 6 -4 10 -10 10 -5 0
-10 -4 -10 -10z"/>
<path d="M3190 7451 c-8 -16 -6 -21 11 -26 24 -8 41 9 32 32 -8 19 -31 16 -43
-6z"/>
<path d="M1156 7431 c-4 -5 -2 -12 3 -15 5 -4 12 -2 15 3 4 5 2 12 -3 15 -5 4
-12 2 -15 -3z"/>
<path d="M3184 7384 c-7 -3 -10 -14 -7 -25 7 -25 38 -21 38 5 0 20 -12 28 -31
20z"/>
<path d="M6800 7350 c0 -5 4 -10 9 -10 6 0 13 5 16 10 3 6 -1 10 -9 10 -9 0
-16 -4 -16 -10z"/>
<path d="M821 7324 c0 -11 3 -14 6 -6 3 7 2 16 -1 19 -3 4 -6 -2 -5 -13z"/>
<path d="M1730 7315 c0 -8 5 -15 10 -15 6 0 10 7 10 15 0 8 -4 15 -10 15 -5 0
-10 -7 -10 -15z"/>
<path d="M1320 7310 c0 -5 5 -10 11 -10 5 0 7 5 4 10 -3 6 -8 10 -11 10 -2 0
-4 -4 -4 -10z"/>
<path d="M1880 7309 c0 -5 5 -7 10 -4 6 3 10 8 10 11 0 2 -4 4 -10 4 -5 0 -10
-5 -10 -11z"/>
<path d="M1012 7274 c4 -21 22 -23 26 -1 2 10 -3 17 -13 17 -10 0 -15 -6 -13
-16z"/>
<path d="M212 7247 c-24 -26 -28 -57 -10 -75 18 -18 36 -14 54 12 20 32 24 58
11 74 -14 18 -31 15 -55 -11z"/>
<path d="M5657 7077 c-7 -20 4 -37 23 -37 24 0 36 18 21 33 -15 15 -39 17 -44
4z"/>
<path d="M1525 7067 c-4 -10 -5 -21 -1 -24 10 -10 18 4 13 24 -4 17 -4 17 -12
0z"/>
<path d="M2313 7065 c-7 -20 2 -29 21 -22 9 4 13 13 10 22 -8 19 -23 19 -31 0z"/>
<path d="M2530 7040 c0 -5 7 -10 15 -10 8 0 15 5 15 10 0 6 -7 10 -15 10 -8 0
-15 -4 -15 -10z"/>
<path d="M2365 7009 c-4 -12 -2 -26 3 -31 17 -17 42 -1 42 27 0 32 -35 35 -45
4z"/>
<path d="M340 6960 c0 -5 5 -10 11 -10 5 0 7 5 4 10 -3 6 -8 10 -11 10 -2 0
-4 -4 -4 -10z"/>
<path d="M2276 6923 c-9 -22 10 -41 25 -26 13 13 5 43 -10 43 -5 0 -12 -8 -15
-17z"/>
<path d="M3246 6859 c-15 -22 -7 -59 13 -59 16 0 33 29 29 51 -4 31 -23 34
-42 8z"/>
<path d="M7080 6840 c0 -5 5 -10 10 -10 6 0 10 5 10 10 0 6 -4 10 -10 10 -5 0
-10 -4 -10 -10z"/>
<path d="M2413 6812 c-32 -5 -43 -24 -34 -58 9 -35 48 -46 68 -18 26 36 6 83
-34 76z"/>
<path d="M2925 6780 c-3 -5 -20 -13 -38 -18 -53 -14 -71 -83 -25 -98 27 -8 58
22 58 58 0 16 5 38 10 49 11 19 6 27 -5 9z"/>
<path d="M2326 6758 c4 -7 3 -8 -5 -4 -7 4 -19 -2 -30 -15 -15 -18 -17 -29 -9
-49 19 -49 60 -54 83 -9 17 31 15 37 -22 76 -15 16 -27 17 -17 1z"/>
<path d="M3255 6761 c-6 -11 9 -23 19 -14 9 9 7 23 -3 23 -6 0 -12 -4 -16 -9z"/>
<path d="M6755 6635 c-16 -19 -36 -34 -43 -34 -9 -1 -13 -12 -11 -33 2 -22 -1
-32 -9 -30 -21 4 -13 -39 8 -45 11 -3 20 -9 20 -14 0 -5 6 -9 14 -9 8 0 16 -5
18 -10 2 -6 16 -12 31 -14 15 -1 30 -5 33 -9 11 -10 53 16 60 37 4 12 12 24
18 28 8 6 7 8 -1 8 -7 0 -13 7 -13 15 0 8 5 15 10 15 16 0 11 29 -8 48 -10 10
-17 23 -15 29 5 14 -45 53 -66 52 -9 0 -29 -16 -46 -34z"/>
<path d="M5274 6625 c-3 -8 -3 -19 0 -24 9 -13 36 -2 36 14 0 19 -30 27 -36
10z"/>
<path d="M4646 6591 c-37 -41 -6 -96 42 -75 9 4 25 6 35 5 18 -2 24 24 7 34
-6 4 -8 15 -5 25 7 22 -14 38 -25 20 -5 -9 -9 -9 -14 -1 -10 16 -20 14 -40 -8z"/>
<path d="M906 6585 c-19 -19 -10 -45 15 -45 13 0 19 7 19 24 0 32 -14 40 -34
21z"/>
<path d="M700 6520 c0 -5 5 -10 10 -10 6 0 10 5 10 10 0 6 -4 10 -10 10 -5 0
-10 -4 -10 -10z"/>
<path d="M7100 6520 c0 -5 5 -10 10 -10 6 0 10 5 10 10 0 6 -4 10 -10 10 -5 0
-10 -4 -10 -10z"/>
<path d="M3730 6470 c-16 -16 -17 -23 -7 -50 6 -17 13 -26 15 -20 2 5 10 10
18 10 16 0 34 38 27 57 -8 21 -33 23 -53 3z"/>
<path d="M2920 6340 c0 -5 5 -10 10 -10 6 0 10 5 10 10 0 6 -4 10 -10 10 -5 0
-10 -4 -10 -10z"/>
<path d="M4477 6337 c-3 -8 -2 -20 3 -27 11 -18 42 -4 38 17 -4 22 -34 29 -41
10z"/>
<path d="M3410 6290 c0 -5 5 -10 10 -10 6 0 10 5 10 10 0 6 -4 10 -10 10 -5 0
-10 -4 -10 -10z"/>
<path d="M3450 6280 c0 -5 7 -10 15 -10 8 0 15 5 15 10 0 6 -7 10 -15 10 -8 0
-15 -4 -15 -10z"/>
<path d="M2701 6237 c-15 -19 -3 -47 21 -47 15 0 19 6 16 27 -4 31 -20 40 -37
20z"/>
<path d="M3460 6240 c0 -5 5 -10 10 -10 6 0 10 5 10 10 0 6 -4 10 -10 10 -5 0
-10 -4 -10 -10z"/>
<path d="M6565 6193 c-14 -16 -23 -34 -20 -41 2 -7 -6 -17 -21 -22 -21 -8 -23
-13 -14 -30 6 -11 21 -20 33 -20 13 0 28 -5 34 -11 18 -18 61 -2 77 29 21 41
9 90 -25 107 -36 19 -34 20 -64 -12z"/>
<path d="M4885 6153 c-25 -5 -47 -37 -39 -58 13 -33 74 -5 74 35 0 22 -8 27
-35 23z"/>
<path d="M2975 6119 c-8 -26 16 -54 39 -46 10 4 16 18 16 37 0 25 -4 30 -24
30 -16 0 -27 -7 -31 -21z"/>
<path d="M1642 6088 c7 -19 38 -22 38 -4 0 10 -9 16 -21 16 -12 0 -19 -5 -17
-12z"/>
<path d="M3885 6080 c-8 -13 4 -32 16 -25 12 8 12 35 0 35 -6 0 -13 -4 -16
-10z"/>
<path d="M3193 6073 c-13 -5 -18 -35 -7 -46 11 -11 34 5 34 23 0 22 -10 29
-27 23z"/>
<path d="M6416 6068 c-9 -5 -21 -6 -26 -3 -6 3 -10 0 -10 -8 0 -8 -11 -26 -25
-41 -13 -14 -19 -26 -13 -26 6 0 8 -13 6 -30 -4 -28 -2 -30 50 -45 59 -18 87
-14 78 10 -3 8 0 15 7 15 8 0 13 19 14 53 3 51 2 53 -31 68 -22 10 -40 13 -50
7z"/>
<path d="M2105 6011 c-7 -12 12 -24 25 -16 11 7 4 25 -10 25 -5 0 -11 -4 -15
-9z"/>
<path d="M5142 5998 c-17 -17 -15 -47 4 -55 23 -9 51 23 38 44 -14 22 -27 26
-42 11z"/>
<path d="M6578 5984 c-16 -8 -28 -22 -28 -30 0 -11 -6 -13 -20 -9 l-21 7 21
-36 c11 -20 20 -38 20 -41 0 -3 0 -8 0 -11 0 -4 6 -1 13 5 8 6 16 8 19 6 3 -3
18 -1 33 5 15 6 25 13 22 16 -3 3 -2 18 3 34 6 23 4 32 -13 48 -20 19 -24 19
-49 6z"/>
<path d="M6136 5921 c-23 -25 -29 -64 -12 -86 12 -16 19 -18 41 -10 36 13 63
59 49 82 -16 26 -60 34 -78 14z"/>
<path d="M2901 5867 c-6 -6 -11 -24 -11 -39 0 -21 5 -28 19 -28 24 0 40 20 38
47 -1 24 -30 36 -46 20z"/>
<path d="M1647 5635 c-18 -18 -14 -35 8 -35 20 0 28 17 17 36 -8 14 -10 14
-25 -1z"/>
<path d="M236 5614 c-12 -32 -7 -54 14 -54 14 0 20 7 20 24 0 31 -25 53 -34
30z"/>
<path d="M600 5605 c-12 -31 -3 -55 20 -55 10 0 20 7 24 15 7 19 -10 65 -24
65 -6 0 -15 -11 -20 -25z"/>
<path d="M3565 5589 c-10 -31 12 -49 30 -26 15 21 10 47 -10 47 -8 0 -17 -9
-20 -21z"/>
<path d="M3227 5586 c-6 -15 1 -26 15 -26 11 0 10 27 -1 34 -5 3 -11 0 -14 -8z"/>
<path d="M6780 5585 c0 -8 9 -15 20 -15 11 0 20 7 20 15 0 8 -9 15 -20 15 -11
0 -20 -7 -20 -15z"/>
<path d="M3705 5531 c-15 -47 27 -70 47 -25 10 21 9 27 -3 35 -22 14 -37 11
-44 -10z"/>
<path d="M4435 5539 c-10 -15 1 -23 20 -15 9 3 13 10 10 16 -8 13 -22 13 -30
-1z"/>
<path d="M4974 5535 c-3 -8 -3 -19 1 -25 9 -14 35 6 35 26 0 19 -29 18 -36 -1z"/>
<path d="M1425 5530 c-3 -5 -1 -10 4 -10 6 0 11 5 11 10 0 6 -2 10 -4 10 -3 0
-8 -4 -11 -10z"/>
<path d="M2751 5517 c-11 -15 -6 -47 9 -47 4 0 13 7 20 16 11 12 11 18 -2 30
-13 13 -16 13 -27 1z"/>
<path d="M2495 5510 c4 -6 11 -8 16 -5 14 9 11 15 -7 15 -8 0 -12 -5 -9 -10z"/>
<path d="M7151 5466 c-13 -13 -21 -32 -19 -43 4 -24 50 -29 72 -8 20 21 21 61
0 69 -24 9 -29 8 -53 -18z"/>
<path d="M4724 5412 c-18 -12 -23 -40 -10 -51 22 -18 47 -2 44 27 -3 27 -16
36 -34 24z"/>
<path d="M4860 5405 c0 -9 5 -15 11 -13 6 2 11 8 11 13 0 5 -5 11 -11 13 -6 2
-11 -4 -11 -13z"/>
<path d="M5040 5370 c-30 -7 -50 -53 -34 -78 10 -16 84 -28 82 -13 -2 20 4 31
16 31 10 0 13 8 11 21 -3 12 -6 22 -7 23 -2 0 -12 6 -23 12 -11 6 -31 8 -45 4z"/>
<path d="M2162 5308 c-9 -35 -1 -48 29 -48 25 0 42 27 35 55 -5 18 -13 25 -31
25 -19 0 -26 -7 -33 -32z"/>
<path d="M3976 5305 c-9 -9 -16 -25 -16 -36 0 -29 54 -23 58 7 4 31 -22 49
-42 29z"/>
<path d="M6504 5306 c-4 -9 -4 -20 0 -23 3 -4 12 -1 18 5 9 9 9 15 0 24 -9 9
-13 7 -18 -6z"/>
<path d="M4755 5271 c-7 -12 12 -24 25 -16 11 7 4 25 -10 25 -5 0 -11 -4 -15
-9z"/>
<path d="M47 5226 c-6 -15 1 -26 15 -26 11 0 10 27 -1 34 -5 3 -11 0 -14 -8z"/>
<path d="M1575 5220 c-3 -5 -2 -17 3 -26 8 -14 10 -14 21 0 13 15 8 36 -9 36
-5 0 -12 -4 -15 -10z"/>
<path d="M4826 5198 c-21 -30 -20 -43 6 -68 l22 -20 23 22 c27 25 29 50 7 72
-21 22 -40 20 -58 -6z"/>
<path d="M560 5195 c0 -8 5 -15 10 -15 6 0 10 7 10 15 0 8 -4 15 -10 15 -5 0
-10 -7 -10 -15z"/>
<path d="M3604 5176 c-4 -10 -2 -22 4 -28 8 -8 13 -7 18 6 4 10 2 22 -4 28 -8
8 -13 7 -18 -6z"/>
<path d="M677 5164 c-8 -8 1 -24 14 -24 5 0 9 7 9 15 0 15 -12 20 -23 9z"/>
<path d="M1780 5140 c0 -5 7 -10 15 -10 8 0 15 5 15 10 0 6 -7 10 -15 10 -8 0
-15 -4 -15 -10z"/>
<path d="M230 5116 c0 -9 5 -16 10 -16 6 0 10 4 10 9 0 6 -4 13 -10 16 -5 3
-10 -1 -10 -9z"/>
<path d="M2670 5050 c0 -5 5 -10 10 -10 6 0 10 5 10 10 0 6 -4 10 -10 10 -5 0
-10 -4 -10 -10z"/>
<path d="M645 5041 c-3 -5 -1 -12 5 -16 5 -3 10 1 10 9 0 18 -6 21 -15 7z"/>
<path d="M157 5000 c3 -11 11 -19 17 -17 17 6 13 31 -6 35 -12 2 -15 -2 -11
-18z"/>
<path d="M1451 4991 c-14 -26 12 -50 34 -31 20 17 19 27 -5 40 -15 8 -21 6
-29 -9z"/>
<path d="M3556 5003 c-3 -4 -6 -15 -6 -25 0 -24 33 -21 38 3 3 17 -21 33 -32
22z"/>
<path d="M2566 4984 c-19 -19 -12 -34 15 -34 12 0 19 7 19 19 0 27 -15 34 -34
15z"/>
<path d="M1920 4940 c0 -5 5 -10 10 -10 6 0 10 5 10 10 0 6 -4 10 -10 10 -5 0
-10 -4 -10 -10z"/>
<path d="M3516 4923 c-11 -11 -6 -23 9 -23 8 0 15 4 15 9 0 13 -16 22 -24 14z"/>
<path d="M1627 4826 c-6 -15 11 -36 29 -36 17 0 24 26 11 39 -15 15 -34 14
-40 -3z"/>
<path d="M4551 4804 c0 -11 3 -14 6 -6 3 7 2 16 -1 19 -3 4 -6 -2 -5 -13z"/>
<path d="M4530 4798 c0 -23 -20 -34 -32 -17 -7 10 -8 8 -5 -8 3 -13 2 -23 -2
-23 -7 0 -7 -12 -2 -52 1 -3 13 -10 29 -16 22 -7 31 -5 47 11 11 10 29 23 40
27 17 7 17 9 3 9 -12 1 -18 9 -18 26 0 18 -5 25 -20 25 -10 0 -24 8 -29 18
-10 16 -10 16 -11 0z"/>
<path d="M1990 4750 c0 -5 5 -10 10 -10 6 0 10 5 10 10 0 6 -4 10 -10 10 -5 0
-10 -4 -10 -10z"/>
<path d="M3280 4731 c0 -5 -11 -12 -24 -15 -33 -8 -54 -53 -44 -92 10 -40 52
-60 91 -45 32 12 44 40 45 98 1 38 -2 42 -30 52 -37 13 -38 13 -38 2z"/>
<path d="M4332 4724 c-46 -32 -11 -100 38 -74 23 12 27 59 8 78 -15 15 -19 15
-46 -4z"/>
<path d="M775 4660 c4 -6 11 -8 16 -5 14 9 11 15 -7 15 -8 0 -12 -5 -9 -10z"/>
<path d="M4248 4580 c-14 -29 -15 -36 -3 -42 7 -5 20 -5 28 -2 20 7 29 44 12
44 -8 0 -15 8 -17 17 -2 13 -8 8 -20 -17z"/>
<path d="M6489 4598 c-22 -19 -50 -66 -41 -71 11 -8 64 1 74 11 12 12 6 64 -7
69 -6 2 -18 -2 -26 -9z"/>
<path d="M6778 4559 c-23 -13 -23 -48 -2 -56 19 -7 44 21 44 49 0 20 -16 23
-42 7z"/>
<path d="M2747 4554 c-8 -8 1 -24 14 -24 5 0 9 7 9 15 0 15 -12 20 -23 9z"/>
<path d="M445 4459 c-10 -15 3 -25 16 -12 7 7 7 13 1 17 -6 3 -14 1 -17 -5z"/>
<path d="M2670 4455 c0 -8 7 -15 15 -15 8 0 15 7 15 15 0 8 -7 15 -15 15 -8 0
-15 -7 -15 -15z"/>
<path d="M3720 4385 c0 -8 5 -15 10 -15 6 0 10 7 10 15 0 8 -4 15 -10 15 -5 0
-10 -7 -10 -15z"/>
<path d="M3685 4351 c-7 -12 12 -24 25 -16 11 7 4 25 -10 25 -5 0 -11 -4 -15
-9z"/>
<path d="M4935 4349 c-4 -6 -5 -13 -2 -16 7 -7 27 6 27 18 0 12 -17 12 -25 -2z"/>
<path d="M1890 4335 c-14 -16 -6 -35 16 -35 8 0 14 10 14 25 0 28 -12 32 -30
10z"/>
<path d="M5450 4340 c0 -5 5 -10 10 -10 6 0 10 5 10 10 0 6 -4 10 -10 10 -5 0
-10 -4 -10 -10z"/>
<path d="M365 4330 c-3 -5 -1 -10 4 -10 6 0 11 5 11 10 0 6 -2 10 -4 10 -3 0
-8 -4 -11 -10z"/>
<path d="M2550 4310 c0 -5 7 -10 15 -10 8 0 15 5 15 10 0 6 -7 10 -15 10 -8 0
-15 -4 -15 -10z"/>
<path d="M301 4260 c-17 -10 -7 -40 14 -40 8 0 15 9 15 19 0 24 -12 32 -29 21z"/>
<path d="M2568 4254 c-36 -19 -43 -44 -19 -67 14 -14 27 -18 45 -13 35 9 46
51 19 75 -17 16 -23 17 -45 5z"/>
<path d="M4779 4260 c-21 -12 -19 -50 3 -64 14 -8 22 -7 35 6 16 17 27 62 12
52 -4 -2 -10 0 -14 6 -8 12 -15 12 -36 0z"/>
<path d="M6220 4220 c0 -5 7 -10 15 -10 8 0 15 5 15 10 0 6 -7 10 -15 10 -8 0
-15 -4 -15 -10z"/>
<path d="M3443 4210 c-29 -12 -33 -74 -7 -84 41 -16 81 35 57 72 -12 20 -23
23 -50 12z"/>
<path d="M3220 4184 c0 -9 5 -14 12 -12 18 6 21 28 4 28 -9 0 -16 -7 -16 -16z"/>
<path d="M4645 4190 c4 -6 11 -8 16 -5 14 9 11 15 -7 15 -8 0 -12 -5 -9 -10z"/>
<path d="M4885 4180 c3 -5 8 -10 11 -10 2 0 4 5 4 10 0 6 -5 10 -11 10 -5 0
-7 -4 -4 -10z"/>
<path d="M5620 4156 c0 -8 4 -17 9 -20 10 -7 23 19 14 28 -11 11 -23 6 -23 -8z"/>
<path d="M1875 4151 c-6 -11 9 -23 19 -14 9 9 7 23 -3 23 -6 0 -12 -4 -16 -9z"/>
<path d="M5690 4125 c0 -10 7 -15 18 -13 21 4 19 22 -2 26 -10 2 -16 -3 -16
-13z"/>
<path d="M4781 4096 c-16 -19 4 -60 25 -52 8 3 14 1 14 -4 0 -16 27 -11 34 5
3 8 2 15 -3 15 -5 0 -12 11 -15 25 -7 28 -36 34 -55 11z"/>
<path d="M5723 4080 c-3 -11 -9 -20 -12 -20 -4 0 -7 -10 -5 -22 1 -13 3 -27 3
-31 1 -5 10 -5 21 -2 12 4 20 2 20 -5 0 -6 11 -3 25 7 24 18 31 46 19 77 -9
24 -65 21 -71 -4z"/>
<path d="M4940 4066 c0 -8 -12 -17 -26 -20 -18 -5 -24 -12 -20 -22 3 -9 6 -21
6 -28 0 -7 8 -22 18 -34 14 -15 22 -18 35 -10 13 7 23 6 33 -3 13 -10 17 -10
25 2 15 23 -1 72 -34 102 -35 31 -37 32 -37 13z"/>
<path d="M1911 4031 c-16 -28 -14 -30 17 -22 15 4 27 14 27 22 0 22 -33 22
-44 0z"/>
<path d="M3943 4033 c-23 -8 -47 -72 -36 -96 5 -12 6 -35 2 -50 -4 -16 -5 -36
-2 -45 10 -30 54 -82 68 -82 7 0 15 -6 18 -12 2 -7 13 9 25 35 20 44 20 52 7
83 -13 31 -16 33 -39 24 -41 -15 -39 6 3 26 24 11 37 24 36 34 -2 8 -4 21 -4
28 -1 7 -9 15 -18 19 -10 3 -25 14 -33 23 -8 10 -21 16 -27 13z"/>
<path d="M273 4013 c-16 -6 -17 -59 -3 -68 15 -9 40 13 40 35 0 21 -20 39 -37
33z"/>
<path d="M768 3948 c-6 -15 12 -58 23 -58 4 0 7 14 6 32 -2 32 -21 50 -29 26z"/>
<path d="M3870 3935 c0 -8 5 -15 10 -15 6 0 10 7 10 15 0 8 -4 15 -10 15 -5 0
-10 -7 -10 -15z"/>
<path d="M5194 3926 c-35 -35 -47 -65 -34 -81 17 -21 70 -46 70 -33 0 6 6 6
15 -2 12 -10 18 -10 30 0 24 20 -2 120 -32 120 -7 0 -13 5 -13 10 0 15 -13 10
-36 -14z"/>
<path d="M4758 3873 c-10 -2 -18 -8 -18 -13 0 -8 -48 -25 -62 -22 -5 1 -8 -5
-8 -13 0 -17 -34 -37 -45 -27 -5 4 -5 -1 -2 -10 4 -10 2 -18 -3 -18 -15 0 -12
-16 5 -33 8 -9 12 -24 9 -38 -14 -57 -16 -89 -5 -89 7 0 23 -12 37 -27 13 -14
32 -27 42 -28 9 0 23 -5 31 -9 7 -5 17 -4 23 2 6 6 6 12 -1 16 -18 12 -12 23
15 30 17 5 24 12 20 21 -3 8 3 17 15 20 10 4 19 11 19 17 0 5 7 7 15 4 10 -3
18 1 22 12 3 9 12 24 20 34 10 11 11 18 3 23 -5 3 -8 11 -5 16 4 5 2 9 -3 9
-12 0 -36 59 -33 79 2 9 -3 12 -13 8 -10 -4 -22 3 -32 18 -9 14 -19 24 -23 24
-3 -1 -14 -3 -23 -6z"/>
<path d="M664 3849 c-3 -6 -1 -16 5 -22 8 -8 11 -5 11 11 0 24 -5 28 -16 11z"/>
<path d="M1200 3740 c0 -5 4 -10 9 -10 6 0 13 5 16 10 3 6 -1 10 -9 10 -9 0
-16 -4 -16 -10z"/>
<path d="M2574 3686 c-18 -14 -18 -15 -1 -22 22 -8 46 11 31 26 -7 7 -17 5
-30 -4z"/>
<path d="M665 3560 c-4 -6 -3 -16 3 -22 13 -13 23 4 13 21 -7 10 -10 10 -16 1z"/>
<path d="M4030 3480 c0 -5 5 -10 10 -10 6 0 10 5 10 10 0 6 -4 10 -10 10 -5 0
-10 -4 -10 -10z"/>
<path d="M2234 3416 c-8 -22 3 -35 26 -29 12 3 20 12 18 22 -4 21 -36 27 -44
7z"/>
<path d="M4552 3423 c-6 -2 -10 -9 -6 -14 3 -5 0 -9 -6 -9 -6 0 -17 -14 -24
-31 -16 -38 -2 -109 21 -109 10 0 13 -6 9 -16 -5 -12 -2 -15 11 -9 10 3 23 7
28 8 6 1 13 7 17 12 5 7 14 6 26 -2 16 -9 24 -7 47 13 17 15 25 29 21 39 -3 9
-10 14 -15 10 -6 -3 -18 14 -29 37 -30 68 -58 88 -100 71z"/>
<path d="M470 3400 c0 -5 5 -10 11 -10 5 0 7 5 4 10 -3 6 -8 10 -11 10 -2 0
-4 -4 -4 -10z"/>
<path d="M4205 3389 c-4 -6 -5 -13 -2 -16 7 -7 27 6 27 18 0 12 -17 12 -25 -2z"/>
<path d="M5417 3366 c-3 -8 0 -21 6 -30 11 -15 14 -15 32 -1 20 15 20 15 1 30
-25 19 -32 19 -39 1z"/>
<path d="M7110 3360 c0 -5 5 -10 10 -10 6 0 10 5 10 10 0 6 -4 10 -10 10 -5 0
-10 -4 -10 -10z"/>
<path d="M2210 3320 c0 -5 5 -10 10 -10 6 0 10 5 10 10 0 6 -4 10 -10 10 -5 0
-10 -4 -10 -10z"/>
<path d="M6485 3320 c-8 -13 14 -42 26 -34 5 3 9 14 9 25 0 20 -24 26 -35 9z"/>
<path d="M2035 3311 c-7 -12 12 -24 25 -16 11 7 4 25 -10 25 -5 0 -11 -4 -15
-9z"/>
<path d="M2568 3253 c-2 -4 -4 -26 -3 -48 0 -34 4 -41 23 -43 17 -3 22 1 22
20 0 25 -35 85 -42 71z"/>
<path d="M3455 3250 c-3 -5 -1 -10 4 -10 6 0 11 5 11 10 0 6 -2 10 -4 10 -3 0
-8 -4 -11 -10z"/>
<path d="M3754 3154 c3 -8 -1 -14 -9 -14 -18 0 -18 -4 -2 -33 16 -29 29 -38
45 -32 7 3 10 0 7 -5 -4 -6 10 -10 33 -10 41 0 52 11 52 50 0 15 -12 25 -40
35 -3 1 -12 4 -20 8 -8 3 -28 7 -43 10 -21 3 -27 1 -23 -9z"/>
<path d="M2262 3133 c2 -10 12 -18 23 -18 11 0 21 8 23 18 3 13 -3 17 -23 17
-20 0 -26 -4 -23 -17z"/>
<path d="M2645 3131 c-8 -15 3 -31 21 -31 9 0 14 7 12 17 -4 20 -24 28 -33 14z"/>
<path d="M4740 3090 c0 -5 5 -10 11 -10 5 0 7 5 4 10 -3 6 -8 10 -11 10 -2 0
-4 -4 -4 -10z"/>
<path d="M2090 3080 c0 -5 5 -10 10 -10 6 0 10 5 10 10 0 6 -4 10 -10 10 -5 0
-10 -4 -10 -10z"/>
<path d="M4291 3067 c-13 -16 -5 -27 21 -27 11 0 18 7 18 20 0 23 -22 27 -39
7z"/>
<path d="M2310 3000 c0 -5 5 -10 10 -10 6 0 10 5 10 10 0 6 -4 10 -10 10 -5 0
-10 -4 -10 -10z"/>
<path d="M2635 2910 c3 -5 -3 -15 -15 -22 -32 -21 -18 -98 19 -98 6 0 20 -9
31 -20 16 -16 20 -17 20 -5 0 8 9 24 21 36 34 34 9 112 -32 102 -9 -3 -20 0
-23 6 -4 6 -12 11 -17 11 -6 0 -7 -4 -4 -10z"/>
<path d="M770 2875 c0 -8 5 -15 10 -15 6 0 10 7 10 15 0 8 -4 15 -10 15 -5 0
-10 -7 -10 -15z"/>
<path d="M4200 2870 c0 -15 5 -20 18 -18 9 2 17 10 17 18 0 8 -8 16 -17 18
-13 2 -18 -3 -18 -18z"/>
<path d="M5470 2880 c0 -5 5 -10 10 -10 6 0 10 5 10 10 0 6 -4 10 -10 10 -5 0
-10 -4 -10 -10z"/>
<path d="M4460 2860 c0 -5 -7 -10 -16 -10 -8 0 -12 -5 -9 -10 4 -6 2 -16 -3
-23 -8 -10 -9 -34 -3 -69 0 -5 18 -6 39 -3 63 8 81 57 37 100 -25 26 -45 32
-45 15z"/>
<path d="M3945 2782 c-21 -18 -22 -41 -3 -79 15 -31 23 -29 41 8 11 24 12 39
5 60 -12 33 -16 34 -43 11z"/>
<path d="M5522 2788 c-16 -16 -15 -51 1 -67 10 -10 9 -14 -5 -22 -16 -9 -26
-39 -14 -39 12 0 86 86 86 100 0 20 -19 40 -40 40 -9 0 -21 -5 -28 -12z"/>
<path d="M4280 2740 c0 -5 7 -10 15 -10 8 0 15 5 15 10 0 6 -7 10 -15 10 -8 0
-15 -4 -15 -10z"/>
<path d="M3825 2630 c-3 -5 -1 -10 4 -10 6 0 11 5 11 10 0 6 -2 10 -4 10 -3 0
-8 -4 -11 -10z"/>
<path d="M3138 2614 c-4 -3 -14 -7 -24 -8 -15 -2 -20 -13 -22 -49 -3 -38 0
-47 17 -57 11 -6 32 -8 45 -4 26 6 35 22 41 74 3 23 0 30 -13 30 -10 0 -23 5
-28 10 -6 6 -13 8 -16 4z"/>
<path d="M4774 2545 c-4 -9 -2 -21 4 -27 15 -15 44 -1 40 19 -4 23 -36 29 -44
8z"/>
<path d="M570 2524 c0 -16 5 -24 13 -22 18 7 20 35 2 41 -11 5 -15 0 -15 -19z"/>
<path d="M4225 2540 c-3 -5 3 -10 14 -10 12 0 21 5 21 10 0 6 -6 10 -14 10 -8
0 -18 -4 -21 -10z"/>
<path d="M4104 2526 c-8 -22 -51 -66 -64 -66 -11 0 -11 0 -15 -47 -3 -34 9
-50 35 -50 8 0 24 -3 35 -6 16 -5 25 0 38 22 20 34 21 65 6 112 -15 45 -27 56
-35 35z"/>
<path d="M3756 2408 c-10 -38 -7 -66 8 -71 32 -12 48 42 22 76 -17 22 -22 22
-30 -5z"/>
<path d="M4593 2398 c-29 -14 -48 -70 -34 -96 12 -23 44 -38 49 -23 2 6 10 11
17 11 21 0 29 68 10 96 -8 13 -16 24 -18 23 -1 0 -12 -5 -24 -11z"/>
<path d="M2580 2366 c0 -9 5 -16 10 -16 6 0 10 4 10 9 0 6 -4 13 -10 16 -5 3
-10 -1 -10 -9z"/>
<path d="M2726 2357 c-11 -40 -6 -66 13 -76 15 -9 22 -6 35 13 8 14 12 26 8
28 -4 2 -17 15 -29 30 -21 28 -21 28 -27 5z"/>
<path d="M6187 2340 c-13 -13 -15 -20 -7 -25 8 -5 9 -10 1 -18 -14 -14 5 -47
29 -47 21 0 40 42 21 48 -9 3 -7 10 4 22 33 36 -13 56 -48 20z"/>
<path d="M3710 2330 c0 -11 -6 -23 -14 -26 -12 -5 -12 -11 -2 -42 11 -30 18
-37 40 -38 40 -1 54 38 26 73 -11 14 -20 32 -20 39 0 8 -7 14 -15 14 -8 0 -15
-9 -15 -20z"/>
<path d="M5018 2233 c-14 -3 -18 -15 -18 -48 0 -31 5 -47 18 -54 16 -10 15
-12 -8 -31 -19 -15 -21 -20 -9 -20 9 0 20 7 23 16 6 16 8 16 24 0 23 -20 39
-21 22 -1 -10 12 -10 15 2 15 15 0 58 51 58 69 0 5 6 12 13 14 7 3 5 6 -5 6
-10 1 -27 10 -38 21 -19 19 -44 23 -82 13z"/>
<path d="M2673 2214 c-9 -23 13 -40 32 -24 12 10 13 16 4 26 -15 18 -28 18
-36 -2z"/>
<path d="M6372 2208 c-18 -18 -15 -36 7 -48 23 -12 56 14 47 37 -3 8 -6 17 -6
19 0 9 -37 3 -48 -8z"/>
<path d="M3841 2186 c-13 -13 -27 -41 -31 -62 -8 -33 -5 -43 16 -71 14 -18 34
-33 45 -33 11 0 17 5 14 10 -3 6 1 10 9 10 9 0 16 9 16 20 0 11 4 20 8 20 4 0
13 14 19 31 10 25 9 31 -3 36 -9 3 -20 17 -25 30 -5 13 -13 21 -19 18 -5 -3
-10 -1 -10 4 0 18 -15 13 -39 -13z"/>
<path d="M4260 2198 c-20 -6 -29 -20 -38 -53 -17 -65 -15 -93 9 -105 16 -9 26
-8 45 5 13 8 24 22 24 30 0 8 4 15 9 15 6 0 -9 81 -22 111 -1 3 -13 2 -27 -3z"/>
<path d="M7352 2180 c0 -14 2 -19 5 -12 2 6 2 18 0 25 -3 6 -5 1 -5 -13z"/>
<path d="M4510 2175 c0 -9 5 -15 11 -13 6 2 11 8 11 13 0 5 -5 11 -11 13 -6 2
-11 -4 -11 -13z"/>
<path d="M2905 2150 c-11 -18 6 -51 23 -48 21 4 28 38 10 49 -17 11 -26 11
-33 -1z"/>
<path d="M324 2109 c-10 -17 13 -36 27 -22 12 12 4 33 -11 33 -5 0 -12 -5 -16
-11z"/>
<path d="M4586 2093 c-11 -11 -6 -23 9 -23 8 0 15 4 15 9 0 13 -16 22 -24 14z"/>
<path d="M1784 2066 c-8 -22 3 -33 18 -18 9 9 9 15 0 24 -9 9 -13 7 -18 -6z"/>
<path d="M4895 2011 c-8 -15 3 -31 21 -31 9 0 14 7 12 17 -4 20 -24 28 -33 14z"/>
<path d="M1920 1926 c0 -31 17 -43 63 -44 31 -1 38 2 33 14 -3 9 -6 20 -6 25
0 5 -9 9 -19 9 -11 0 -23 5 -26 10 -3 6 -15 10 -26 10 -13 0 -19 -7 -19 -24z"/>
<path d="M3600 1915 c0 -8 9 -15 20 -15 11 0 20 7 20 15 0 8 -9 15 -20 15 -11
0 -20 -7 -20 -15z"/>
<path d="M4127 1923 c-10 -10 3 -103 19 -134 24 -47 75 -43 109 8 22 32 27 53
14 53 -6 0 -9 6 -7 14 5 25 -53 66 -93 66 -20 0 -39 -3 -42 -7z"/>
<path d="M5550 1920 c0 -5 5 -10 11 -10 5 0 7 5 4 10 -3 6 -8 10 -11 10 -2 0
-4 -4 -4 -10z"/>
<path d="M1290 1910 c0 -5 7 -10 15 -10 8 0 15 5 15 10 0 6 -7 10 -15 10 -8 0
-15 -4 -15 -10z"/>
<path d="M2816 1891 c-9 -14 4 -41 21 -41 9 0 13 8 11 22 -3 23 -23 35 -32 19z"/>
<path d="M3330 1849 c0 -5 5 -7 10 -4 6 3 10 8 10 11 0 2 -4 4 -10 4 -5 0 -10
-5 -10 -11z"/>
<path d="M5030 1735 c-20 -24 4 -45 26 -24 13 14 13 17 1 27 -11 10 -17 9 -27
-3z"/>
<path d="M2240 1700 c0 -5 5 -10 10 -10 6 0 10 5 10 10 0 6 -4 10 -10 10 -5 0
-10 -4 -10 -10z"/>
<path d="M2810 1700 c0 -5 5 -10 10 -10 6 0 10 5 10 10 0 6 -4 10 -10 10 -5 0
-10 -4 -10 -10z"/>
<path d="M2300 1671 c0 -24 18 -37 32 -23 8 8 7 16 -2 27 -17 21 -30 19 -30
-4z"/>
<path d="M5845 1670 c-8 -13 3 -30 20 -30 14 0 27 24 18 34 -10 9 -31 7 -38
-4z"/>
<path d="M900 1644 c0 -8 5 -12 10 -9 6 4 8 11 5 16 -9 14 -15 11 -15 -7z"/>
<path d="M2654 1629 c-3 -6 0 -17 7 -25 18 -17 44 -2 36 20 -7 18 -33 21 -43
5z"/>
<path d="M6796 1633 c-11 -11 -6 -23 9 -23 8 0 15 4 15 9 0 13 -16 22 -24 14z"/>
<path d="M6121 1611 c-10 -7 -10 -10 -1 -16 6 -4 16 -3 22 3 13 13 -4 23 -21
13z"/>
<path d="M6070 1600 c0 -5 5 -10 10 -10 6 0 10 5 10 10 0 6 -4 10 -10 10 -5 0
-10 -4 -10 -10z"/>
<path d="M2925 1590 c-3 -5 -1 -10 4 -10 6 0 11 5 11 10 0 6 -2 10 -4 10 -3 0
-8 -4 -11 -10z"/>
<path d="M2998 1498 c-8 -21 2 -38 24 -38 14 0 19 6 16 22 -3 25 -33 36 -40
16z"/>
<path d="M5350 1480 c0 -6 -6 -10 -14 -10 -15 0 -26 -21 -26 -51 0 -10 -6 -19
-12 -19 -25 0 -4 -104 25 -122 21 -13 67 24 67 54 0 15 9 43 20 63 24 43 25
55 5 55 -8 0 -15 4 -15 8 0 5 -11 14 -25 20 -15 7 -25 8 -25 2z"/>
<path d="M2396 1381 c-4 -7 -5 -15 -2 -18 9 -9 19 4 14 18 -4 11 -6 11 -12 0z"/>
<path d="M6670 1365 c-10 -12 -10 -18 0 -30 25 -30 78 -7 64 29 -8 20 -47 21
-64 1z"/>
<path d="M1615 1290 c-9 -15 14 -40 31 -33 22 8 18 43 -5 43 -11 0 -23 -5 -26
-10z"/>
<path d="M1737 1284 c-8 -8 5 -53 19 -65 23 -19 53 -2 52 31 -1 16 -4 27 -9
25 -4 -3 -18 -1 -32 4 -14 5 -27 8 -30 5z"/>
<path d="M2430 1279 c0 -5 5 -7 10 -4 6 3 10 8 10 11 0 2 -4 4 -10 4 -5 0 -10
-5 -10 -11z"/>
<path d="M4165 1240 c-9 -28 13 -54 31 -39 19 15 18 45 -2 53 -22 8 -22 8 -29
-14z"/>
<path d="M1456 1183 c-11 -11 -6 -23 9 -23 8 0 15 4 15 9 0 13 -16 22 -24 14z"/>
<path d="M2260 1120 c0 -5 5 -10 10 -10 6 0 10 5 10 10 0 6 -4 10 -10 10 -5 0
-10 -4 -10 -10z"/>
<path d="M1230 1100 c0 -5 7 -10 15 -10 8 0 15 5 15 10 0 6 -7 10 -15 10 -8 0
-15 -4 -15 -10z"/>
<path d="M5628 1099 c-22 -12 -23 -45 -3 -53 34 -13 66 24 44 50 -13 16 -18
17 -41 3z"/>
<path d="M3350 1090 c0 -5 5 -10 10 -10 6 0 10 5 10 10 0 6 -4 10 -10 10 -5 0
-10 -4 -10 -10z"/>
<path d="M3004 1034 c3 -9 6 -18 6 -20 0 -2 7 -4 15 -4 8 0 15 9 15 20 0 14
-7 20 -21 20 -15 0 -19 -4 -15 -16z"/>
<path d="M6747 1033 c-14 -13 -6 -41 12 -46 34 -9 57 35 25 47 -20 8 -29 8
-37 -1z"/>
<path d="M2050 1014 c0 -17 22 -14 28 4 2 7 -3 12 -12 12 -9 0 -16 -7 -16 -16z"/>
<path d="M6310 990 c0 -16 5 -21 23 -18 12 2 22 10 22 18 0 8 -10 16 -22 18
-18 3 -23 -2 -23 -18z"/>
<path d="M5750 910 c0 -6 9 -21 20 -32 15 -16 23 -19 31 -11 16 16 3 47 -16
39 -8 -3 -15 -1 -15 4 0 6 -4 10 -10 10 -5 0 -10 -5 -10 -10z"/>
<path d="M2010 890 c0 -5 5 -10 10 -10 6 0 10 5 10 10 0 6 -4 10 -10 10 -5 0
-10 -4 -10 -10z"/>
<path d="M3133 858 c-36 -22 -40 -35 -18 -64 14 -19 14 -19 30 4 9 12 19 20
23 18 15 -8 29 20 21 42 -10 26 -14 26 -56 0z"/>
<path d="M10 830 c0 -5 5 -10 11 -10 5 0 7 5 4 10 -3 6 -8 10 -11 10 -2 0 -4
-4 -4 -10z"/>
<path d="M3235 800 c-3 -5 -2 -16 2 -24 11 -20 38 -3 30 18 -7 18 -23 21 -32
6z"/>
<path d="M3342 743 c2 -10 10 -18 18 -18 8 0 16 8 18 18 2 12 -3 17 -18 17
-15 0 -20 -5 -18 -17z"/>
<path d="M6026 743 c-5 -11 -1 -22 9 -30 23 -16 47 -5 43 21 -4 27 -43 34 -52
9z"/>
<path d="M6186 737 c-23 -17 -11 -47 19 -47 28 0 45 38 24 51 -18 12 -22 11
-43 -4z"/>
<path d="M7120 685 c0 -8 6 -15 14 -15 22 0 28 17 10 24 -22 9 -24 8 -24 -9z"/>
<path d="M7174 659 c-10 -17 13 -36 27 -22 12 12 4 33 -11 33 -5 0 -12 -5 -16
-11z"/>
<path d="M3030 650 c0 -5 5 -10 10 -10 6 0 10 5 10 10 0 6 -4 10 -10 10 -5 0
-10 -4 -10 -10z"/>
<path d="M6016 651 c-4 -7 -5 -15 -2 -18 9 -9 19 4 14 18 -4 11 -6 11 -12 0z"/>
<path d="M3274 629 c-7 -12 15 -31 28 -23 4 3 8 12 8 20 0 17 -26 19 -36 3z"/>
<path d="M3200 620 c0 -5 5 -10 10 -10 6 0 10 5 10 10 0 6 -4 10 -10 10 -5 0
-10 -4 -10 -10z"/>
<path d="M840 565 c0 -8 5 -15 10 -15 6 0 10 7 10 15 0 8 -4 15 -10 15 -5 0
-10 -7 -10 -15z"/>
<path d="M900 510 c0 -5 5 -10 10 -10 6 0 10 5 10 10 0 6 -4 10 -10 10 -5 0
-10 -4 -10 -10z"/>
<path d="M1966 511 c-3 -5 1 -12 10 -15 20 -8 29 -1 19 13 -8 13 -22 14 -29 2z"/>
<path d="M1590 445 c0 -8 7 -15 15 -15 8 0 15 7 15 15 0 8 -7 15 -15 15 -8 0
-15 -7 -15 -15z"/>
<path d="M3474 413 c-14 -24 -7 -43 17 -43 14 0 19 7 19 30 0 33 -19 40 -36
13z"/>
<path d="M1230 275 c0 -8 5 -15 10 -15 6 0 10 7 10 15 0 8 -4 15 -10 15 -5 0
-10 -7 -10 -15z"/>
<path d="M2617 233 c-8 -7 11 -33 24 -33 5 0 9 9 9 20 0 19 -20 27 -33 13z"/>
<path d="M296 132 c-9 -14 12 -35 28 -29 23 9 20 37 -3 37 -11 0 -22 -4 -25
-8z"/>
<path d="M3602 124 c4 -21 22 -23 26 -1 2 10 -3 17 -13 17 -10 0 -15 -6 -13
-16z"/>
</g>
</svg>
