<?xml version="1.0" standalone="no"?>
<!DOCTYPE svg PUBLIC "-//W3C//DTD SVG 20010904//EN"
 "http://www.w3.org/TR/2001/REC-SVG-20010904/DTD/svg10.dtd">
<svg version="1.0" xmlns="http://www.w3.org/2000/svg"
 width="300.000000pt" height="513.000000pt" viewBox="0 0 300.000000 513.000000"
 preserveAspectRatio="xMidYMid meet">
<metadata>
Created by potrace 1.10, written by Peter Selinger 2001-2011
</metadata>
<g transform="translate(0.000000,513.000000) scale(0.100000,-0.100000)"
fill="#000000" stroke="none">
<path d="M1460 4748 c0 -41 -6 -54 -37 -90 -30 -34 -31 -38 -8 -18 l29 25 -17
-25 c-36 -54 -39 -60 -22 -60 9 0 19 10 24 22 l8 22 17 -26 c18 -27 14 -53
-11 -62 -13 -6 -13 -3 1 21 l17 28 -20 -24 c-23 -25 -29 -57 -9 -45 7 5 9 2 5
-9 -4 -11 -2 -14 8 -10 8 3 12 9 9 14 -3 5 3 12 12 16 10 4 19 2 22 -5 2 -7
10 -12 17 -12 7 0 15 -9 18 -20 3 -11 1 -20 -4 -20 -5 0 -9 -4 -9 -10 0 -5 20
-9 44 -8 36 0 46 5 51 22 4 11 7 24 7 27 -1 3 9 5 21 5 15 -1 22 5 22 17 0 20
43 43 105 58 26 6 19 7 -28 4 -49 -4 -71 -11 -94 -30 -16 -14 -34 -23 -39 -19
-5 3 -9 0 -9 -5 0 -6 -7 -11 -15 -11 -8 0 -12 -6 -9 -13 3 -8 -2 -14 -11 -14
-17 0 -19 15 -6 51 7 17 7 26 -2 30 -9 3 -9 5 1 5 6 1 12 7 12 15 0 7 8 16 18
20 28 10 86 56 71 56 -8 0 -32 -12 -53 -26 -21 -15 -36 -22 -33 -17 3 5 8 22
11 36 5 29 -2 29 -38 -2 -10 -9 -20 -15 -22 -13 -10 6 -25 1 -19 -7 3 -5 0
-13 -6 -17 -8 -5 -9 -3 -4 6 6 9 2 10 -15 5 -22 -7 -21 -5 6 31 16 21 22 34
14 29 -13 -8 -13 -6 -1 8 7 9 17 15 21 12 11 -7 40 5 40 15 0 5 -15 4 -32 -1
-45 -12 -47 -12 -41 10 3 11 0 28 -6 38 -8 15 -10 9 -11 -29z m98 -110 c-2
-13 -17 -35 -34 -50 -54 -48 -60 -33 -12 30 36 47 51 53 46 20z"/>
<path d="M1252 4734 c-12 -24 -26 -44 -32 -44 -14 0 -50 -75 -50 -104 0 -24
-1 -24 -30 -10 -16 9 -32 20 -35 25 -7 11 -25 2 -25 -12 0 -5 7 -9 15 -9 8 0
15 -5 15 -11 0 -5 4 -8 9 -4 6 3 20 -5 32 -17 12 -13 18 -17 14 -9 -5 10 -4
12 4 7 6 -4 9 -12 5 -17 -3 -6 6 -28 20 -49 29 -44 34 -75 11 -66 -10 4 -15
-1 -15 -14 0 -28 -29 -14 -37 19 -3 14 -15 41 -25 60 -11 18 -17 36 -14 39 3
2 -6 18 -20 35 -14 16 -23 35 -20 42 2 7 -4 15 -15 18 -12 3 -19 14 -19 29 -1
12 -7 37 -15 53 -12 26 -13 27 -14 8 -1 -30 35 -124 64 -168 25 -35 25 -36 2
-24 -45 24 -144 98 -160 121 -13 18 -16 20 -16 6 -1 -27 21 -68 35 -66 7 2 13
-1 14 -7 2 -16 32 -45 47 -45 7 0 13 -4 13 -10 0 -5 18 -19 40 -30 26 -13 47
-34 60 -60 12 -23 25 -38 30 -35 6 4 13 -1 16 -9 3 -9 13 -16 20 -16 25 0 74
43 74 64 0 30 -31 106 -41 101 -4 -3 -7 3 -7 12 0 10 -3 27 -7 37 -6 14 -5 17
3 12 7 -4 12 -2 12 3 0 6 -4 11 -8 11 -12 0 -2 58 12 69 9 8 12 -7 13 -62 2
-89 1 -87 17 -58 8 14 11 42 8 72 -5 56 5 122 18 114 5 -3 4 -17 -3 -32 -9
-21 -9 -27 1 -31 8 -2 10 -16 6 -42 -5 -31 -2 -43 16 -62 l23 -23 -7 45 c-4
25 -9 61 -12 80 -8 56 14 12 26 -51 6 -28 16 -57 24 -63 18 -14 40 -90 24 -79
-7 4 -9 0 -5 -9 4 -11 -1 -18 -14 -21 -21 -6 -25 -37 -9 -67 6 -11 35 -35 65
-56 30 -20 55 -39 55 -43 0 -5 -9 -16 -20 -26 -26 -24 -25 -65 1 -100 17 -20
19 -29 9 -35 -9 -6 -9 -9 0 -15 6 -4 16 -19 22 -33 11 -27 11 -27 18 13 8 44
4 61 -22 89 -10 11 -18 26 -18 34 0 18 28 45 39 37 12 -7 41 33 41 57 0 10 -7
18 -15 18 -8 0 -15 6 -15 13 0 7 -6 20 -12 28 -7 8 -12 12 -11 10 4 -7 -18
-41 -26 -41 -5 0 -19 19 -30 43 -15 31 -18 50 -13 72 9 33 -6 114 -26 138 -8
9 -10 26 -7 44 6 27 6 27 -9 9 -16 -19 -16 -19 -16 6 0 15 4 38 10 52 6 16 6
26 0 26 -5 0 -13 -15 -18 -32 l-9 -33 -30 62 -30 61 -21 -44z m136 -337 c2
-20 -1 -37 -6 -37 -5 0 -9 6 -10 13 -1 6 -4 25 -8 41 -5 22 -4 28 7 24 8 -2
15 -21 17 -41z"/>
<path d="M1632 4613 c-28 -17 -39 -28 -31 -33 6 -4 9 -13 5 -19 -17 -27 24 4
53 40 37 46 32 48 -27 12z"/>
<path d="M1871 4599 c-29 -16 -47 -29 -40 -29 20 0 99 41 99 51 0 11 6 13 -59
-22z"/>
<path d="M1922 4543 c-17 -24 -25 -27 -73 -24 -30 1 -68 -2 -84 -8 -29 -10
-30 -10 -7 5 24 18 31 50 8 41 -8 -3 -31 -9 -50 -13 -41 -7 -46 -19 -14 -30
21 -6 21 -7 3 -20 -18 -13 -18 -14 -1 -14 15 0 16 -3 6 -15 -8 -10 -9 -15 -1
-15 6 0 17 -12 24 -27 14 -30 17 -73 5 -73 -5 0 -17 0 -28 0 -13 0 -22 9 -26
28 -3 15 -10 37 -16 50 -10 20 -13 21 -28 7 -9 -8 -20 -12 -25 -8 -8 8 -3 -18
10 -49 5 -12 1 -17 -17 -20 -16 -2 -22 -9 -20 -22 2 -10 -1 -15 -6 -12 -20 12
14 -74 43 -108 17 -20 31 -42 31 -49 1 -6 2 -18 3 -24 0 -7 6 -13 11 -13 18 0
11 71 -11 101 -24 34 -38 129 -17 112 7 -6 30 -16 51 -23 35 -11 41 -10 63 11
13 12 24 28 24 35 0 42 88 4 114 -50 21 -44 20 -56 -4 -56 -10 0 -30 -5 -43
-11 -20 -9 -30 -6 -61 15 -43 29 -61 25 -81 -15 -21 -39 -20 -45 21 -83 l37
-35 -27 -31 c-33 -39 -33 -74 -1 -105 29 -30 46 -31 70 -5 9 10 20 19 24 18
21 -2 21 6 -2 36 -20 26 -25 42 -21 67 3 25 -1 41 -17 59 -11 14 -18 19 -14
12 6 -11 3 -12 -14 -3 -24 14 -41 42 -41 70 0 31 11 26 58 -28 27 -30 49 -48
58 -44 8 3 12 8 10 12 -2 3 2 15 11 26 14 20 15 20 38 -7 27 -31 40 -36 31
-12 -4 12 -2 15 9 10 12 -4 14 0 9 22 -4 15 -11 30 -17 33 -16 11 17 17 37 6
19 -9 93 -5 131 9 16 5 18 4 8 -6 -6 -7 -40 -15 -76 -17 -62 -5 -65 -7 -69
-34 -3 -16 0 -33 5 -38 7 -7 4 -21 -6 -43 -9 -19 -12 -38 -7 -47 5 -9 2 -20
-6 -28 -14 -15 -38 -8 -29 7 3 5 1 19 -5 30 -9 17 -8 20 12 20 21 0 21 0 2 15
-16 12 -21 12 -30 0 -8 -11 -12 -10 -23 7 -7 11 -15 17 -18 14 -3 -3 2 -17 11
-30 9 -14 16 -33 15 -43 0 -14 -2 -13 -9 5 -13 31 -17 28 -18 -14 -2 -48 6
-59 28 -39 12 11 26 14 40 10 14 -4 28 -1 41 10 15 15 21 15 34 5 8 -7 12 -16
10 -21 -12 -18 40 -31 104 -26 114 10 138 31 44 40 -71 6 -79 2 -21 -11 37 -8
39 -10 13 -11 -35 -1 -123 38 -145 64 -14 17 -12 18 45 10 33 -4 74 -7 90 -5
17 2 45 4 63 4 45 1 40 16 -5 17 l-38 1 30 13 30 14 -45 1 c-59 0 -101 13
-158 47 l-47 27 57 8 c66 8 98 22 98 43 0 11 -12 12 -54 8 -49 -5 -59 -3 -107
28 -49 32 -51 34 -25 37 15 2 41 -1 57 -7 16 -5 29 -6 29 -1 0 10 -57 25 -82
21 -11 -1 -18 4 -18 13 0 14 -54 36 -89 36 -7 0 12 27 43 60 51 56 83 100 72
100 -2 0 -13 -12 -24 -27z m-43 -40 c0 -10 -52 -51 -73 -59 -29 -11 -16 10 22
38 39 28 52 33 51 21z m-79 -23 c-37 -20 -70 -26 -70 -11 0 9 55 29 85 30 14
0 10 -5 -15 -19z m-16 -427 c9 -20 11 -35 4 -53 l-9 -24 -19 29 c-24 36 -26
75 -5 75 8 0 21 -12 29 -27z"/>
<path d="M910 4544 c0 -13 68 -78 110 -105 25 -16 38 -29 30 -29 -8 0 -21 4
-29 9 -18 11 -53 -4 -103 -43 -46 -35 -43 -45 3 -17 40 24 75 29 43 6 -12 -8
-27 -28 -34 -45 -7 -16 -16 -30 -21 -30 -5 0 -9 -4 -9 -10 0 -5 12 -10 26 -10
21 0 25 -4 21 -20 -3 -11 -2 -20 2 -20 13 0 29 22 25 35 -3 6 2 18 11 25 9 8
15 8 15 2 0 -6 -4 -13 -9 -16 -15 -9 0 -45 21 -51 10 -4 26 -1 35 7 14 11 14
9 -1 -20 -9 -18 -15 -39 -12 -45 2 -7 5 -5 5 4 1 18 42 59 59 59 7 0 15 7 19
16 3 8 11 13 19 10 7 -3 24 4 38 15 15 11 32 19 39 16 7 -2 -3 -13 -23 -25
-19 -12 -41 -20 -47 -17 -7 2 -13 0 -13 -5 0 -16 22 -11 68 15 46 26 49 25 27
-9 -15 -23 -11 -61 6 -50 5 3 9 0 9 -5 0 -14 -50 -14 -70 -1 -13 8 -12 11 5
24 11 9 15 16 8 16 -6 0 -15 -4 -18 -10 -3 -5 -19 -10 -36 -10 -60 0 -21 -33
56 -47 17 -3 35 -12 42 -20 9 -11 12 -6 18 26 4 22 4 45 0 51 -3 5 -2 10 4 10
20 0 22 -21 5 -75 -12 -38 -20 -51 -27 -43 -6 9 -7 7 -3 -5 7 -23 -19 -87 -35
-87 -7 0 -9 -3 -6 -7 10 -9 44 24 72 73 27 47 40 57 30 24 -3 -11 -2 -20 4
-20 15 0 25 61 12 70 -9 5 -7 11 4 20 9 8 23 27 32 44 14 27 14 33 -2 62 -21
39 -41 49 -61 29 -11 -11 -27 -13 -61 -8 -37 5 -44 3 -38 -7 6 -10 4 -12 -7
-7 -9 3 -24 0 -34 -7 -20 -14 -114 -28 -114 -17 1 15 19 33 28 27 19 -11 23
13 6 33 -13 15 -25 18 -50 14 -21 -4 -34 -2 -34 5 0 7 7 9 17 5 10 -4 14 -2 9
5 -3 6 -1 14 5 18 8 4 9 3 5 -4 -5 -8 2 -12 18 -12 14 0 26 5 26 10 0 6 -6 10
-12 10 -9 0 -8 3 2 10 22 14 42 -8 35 -41 -8 -38 11 -46 23 -9 9 24 7 33 -9
54 -10 13 -19 32 -19 41 0 9 -4 14 -9 11 -5 -3 -12 1 -15 10 -3 9 -11 14 -17
12 -12 -4 -46 20 -82 60 -20 21 -37 29 -37 16z m400 -295 c0 -33 -3 -40 -17
-37 -32 6 -30 78 2 78 11 0 15 -11 15 -41z"/>
<path d="M1990 4397 c-22 -6 -29 -12 -19 -14 9 -2 32 3 50 11 39 17 20 19 -31
3z"/>
<path d="M860 4235 c-8 -10 -11 -32 -7 -64 7 -56 -8 -78 -49 -73 -18 3 -25 -3
-30 -22 -3 -13 -12 -27 -20 -30 -8 -3 -14 -17 -14 -30 0 -25 -44 -76 -66 -76
-7 0 -22 -8 -35 -19 -21 -16 -21 -21 -10 -49 7 -17 34 -48 60 -70 25 -21 59
-63 75 -93 16 -30 32 -56 36 -59 3 -3 11 -33 18 -67 11 -55 10 -66 -8 -112
-27 -70 -26 -90 16 -173 51 -101 81 -254 52 -262 -7 -2 -32 -9 -55 -15 -52
-14 -154 -97 -190 -154 -14 -23 -53 -77 -85 -121 -55 -74 -81 -125 -38 -75
l20 24 -17 -32 c-10 -17 -21 -29 -25 -27 -4 3 -5 -3 -1 -12 4 -11 2 -15 -4
-11 -17 11 -51 -134 -63 -268 -7 -66 -13 -122 -15 -125 -6 -10 -44 -357 -54
-490 -6 -74 -22 -229 -36 -345 -15 -126 -24 -254 -23 -320 l2 -110 6 120 c4
66 8 131 9 143 0 14 6 22 14 19 6 -2 11 -10 9 -16 -1 -7 2 -10 7 -7 5 4 12 0
14 -6 3 -7 6 -3 6 9 1 12 -4 23 -10 25 -14 5 -13 182 1 208 13 24 13 33 0 25
-14 -9 -13 8 2 23 9 9 9 12 -1 12 -7 0 -9 5 -6 10 3 6 6 29 7 53 0 23 5 51 11
62 6 11 9 39 8 61 -1 23 2 45 8 48 5 4 8 16 5 29 -10 43 -10 78 -1 84 5 3 3 9
-4 14 -9 6 -10 9 -2 9 8 0 10 11 6 35 -4 22 -1 41 8 51 9 11 14 45 15 93 1 42
4 94 8 116 3 22 6 53 6 69 -1 16 7 46 16 65 15 31 18 33 24 16 4 -11 5 -42 3
-70 -7 -64 2 -56 15 15 6 30 13 64 17 75 4 14 2 12 -9 -5 -15 -25 -15 -24 -9
15 3 22 10 45 15 51 5 7 3 16 -5 23 -12 9 -18 2 -32 -36 -10 -26 -20 -43 -22
-37 -2 7 5 36 17 65 11 30 20 66 20 82 0 15 13 57 30 93 28 63 44 87 103 159
20 24 26 40 22 57 -5 19 6 37 55 90 33 37 79 75 103 86 46 22 112 39 88 24 -9
-7 -10 -12 -2 -16 20 -13 12 -52 -17 -79 -27 -26 -28 -26 -40 -7 -7 11 -20 20
-30 20 -16 -1 -16 -1 1 -14 25 -19 21 -43 -13 -79 -17 -18 -38 -44 -48 -59
-21 -36 -35 -36 -21 -1 14 38 -4 50 -26 16 -10 -15 -35 -48 -55 -73 -21 -25
-52 -71 -70 -103 -18 -32 -39 -61 -46 -64 -20 -8 -17 -19 12 -46 22 -20 24
-29 19 -60 -4 -20 -13 -41 -21 -48 -8 -6 -14 -16 -14 -22 0 -6 3 -8 6 -4 10
10 52 -28 132 -121 l53 -62 -35 0 c-20 0 -36 5 -36 10 0 16 -30 11 -37 -6 -4
-10 -13 -14 -27 -10 -12 3 -28 1 -36 -4 -12 -8 -12 -13 3 -42 l17 -33 -6 33
c-6 37 7 43 25 10 10 -21 11 -21 6 -2 -6 25 13 30 158 41 l87 6 0 -52 c0 -55
-2 -57 -65 -41 -26 7 -27 8 -6 9 17 1 21 5 17 17 -3 9 -6 24 -6 35 0 10 -7 19
-15 19 -8 0 -15 -4 -15 -10 0 -5 4 -10 9 -10 5 0 11 -9 14 -21 4 -15 2 -19 -9
-15 -8 3 -14 1 -14 -4 0 -6 -26 -10 -57 -10 -32 -1 -71 -7 -88 -15 -38 -17
-21 -18 46 -4 41 9 69 8 121 -1 37 -7 68 -17 68 -22 0 -20 25 -33 57 -30 28 4
33 1 33 -16 0 -12 4 -23 9 -26 4 -3 6 6 3 19 -2 15 0 25 7 25 6 0 12 -8 13
-17 5 -61 24 -150 27 -128 1 6 8 -1 16 -15 l14 -25 1 31 c0 17 -7 46 -16 64
-13 25 -14 34 -4 40 9 6 8 10 -6 18 -29 16 -11 23 24 10 35 -14 40 -23 17 -32
-20 -7 -19 -22 3 -44 30 -33 41 -59 40 -102 0 -33 -3 -39 -10 -26 -5 9 -8 24
-6 34 1 9 -5 28 -14 41 l-17 25 3 -35 c2 -19 6 -43 10 -54 5 -13 2 -11 -7 5
-9 14 -19 24 -23 22 -5 -2 -11 5 -15 15 -6 14 -8 14 -8 2 -1 -8 7 -24 18 -35
10 -11 22 -30 25 -42 4 -12 12 -20 17 -17 5 3 6 -2 2 -11 -4 -12 -3 -15 5 -10
7 4 10 2 6 -7 -5 -14 50 -139 87 -194 21 -34 14 -42 -21 -23 -13 7 -19 6 -23
-3 -3 -9 6 -14 25 -15 44 -4 67 -19 74 -50 10 -50 84 -216 92 -208 2 2 -6 23
-16 45 l-20 41 24 0 c13 0 25 -6 25 -12 5 -48 4 -96 -2 -92 -5 3 -3 -9 2 -26
25 -72 -19 -105 -73 -55 -30 27 -38 31 -38 15 0 -6 8 -14 18 -17 9 -4 29 -16
45 -27 22 -16 27 -28 27 -60 1 -34 2 -38 11 -23 6 10 8 30 4 44 -5 22 -3 24
12 18 35 -14 83 -18 83 -7 0 6 -17 12 -37 14 -28 2 -37 7 -34 18 7 28 7 185 0
195 -10 14 -16 314 -6 308 4 -2 5 8 1 24 -4 15 -13 31 -20 36 -7 4 -12 28 -12
60 0 30 -5 63 -11 76 -21 38 -16 93 12 155 15 32 25 61 22 64 -3 3 -18 -24
-34 -59 -26 -55 -37 -68 -32 -36 1 5 -4 37 -10 71 -9 55 -8 68 6 96 20 40 31
32 16 -11 -6 -18 -11 -46 -10 -63 l1 -31 9 35 c5 19 10 44 13 55 8 41 46 129
58 137 10 6 9 8 -4 8 -10 0 -21 -13 -27 -33 -7 -19 -25 -47 -42 -63 l-31 -29
20 52 c11 29 16 50 10 47 -11 -7 -2 66 17 129 l13 42 7 -35 c3 -19 1 -48 -5
-64 -6 -16 -8 -31 -6 -34 5 -5 22 33 27 59 1 8 -1 30 -5 51 -7 30 -2 48 22
100 17 34 46 79 65 98 98 102 184 166 236 176 63 13 202 -83 237 -163 37 -87
68 -220 83 -360 33 -297 34 -322 21 -395 -7 -40 -17 -79 -23 -86 -13 -16 -2
-199 19 -307 9 -44 18 -92 21 -106 6 -33 -43 -91 -123 -144 -30 -20 -52 -41
-49 -46 4 -5 -17 -10 -47 -10 -29 -1 -62 -3 -73 -4 -34 -5 -122 -42 -152 -63
-15 -11 -31 -20 -35 -21 -5 -1 -8 -3 -8 -6 0 -3 0 -8 0 -11 0 -4 7 -1 15 6 8
7 15 9 15 4 0 -5 6 -1 14 8 21 29 147 69 227 73 47 2 105 24 65 25 -14 0 -4
10 30 31 27 17 64 45 82 62 17 17 32 25 32 18 0 -27 -22 -51 -70 -77 -28 -15
-48 -29 -46 -32 8 -8 96 48 109 69 6 10 15 19 19 19 9 0 -3 -34 -36 -103 -21
-45 -26 -66 -22 -93 5 -21 3 -34 -4 -34 -6 0 -8 -10 -4 -24 5 -21 -4 -32 -58
-74 -64 -51 -149 -90 -248 -113 -80 -18 -104 -19 -112 -6 -5 8 -8 6 -8 -5 0
-30 88 -23 215 17 11 3 -5 -7 -35 -24 -80 -43 -143 -57 -191 -41 -40 13 -49
25 -26 33 7 3 5 8 -8 13 -11 4 -28 17 -37 29 -15 17 -17 18 -18 3 0 -9 7 -21
17 -26 9 -5 17 -18 18 -28 2 -31 14 -44 41 -44 14 0 23 -4 20 -8 -3 -5 16 -5
43 -1 52 8 173 65 207 97 74 70 88 33 14 -41 -27 -27 -50 -52 -50 -55 0 -4 17
11 39 32 44 43 67 33 32 -14 -11 -16 -24 -48 -27 -72 -5 -28 -18 -56 -40 -81
-24 -26 -34 -47 -34 -71 0 -30 -14 -72 -39 -116 -22 -40 -41 -79 -41 -85 0 -4
18 11 39 33 22 22 42 38 44 35 6 -6 47 19 47 30 0 4 -11 0 -25 -9 -30 -19 -33
-5 -5 21 11 10 20 23 20 29 0 6 -12 -2 -25 -17 -16 -18 -25 -23 -25 -13 0 8 5
18 10 21 6 3 10 15 10 26 0 13 4 18 13 13 10 -6 10 -4 0 7 -7 7 -13 20 -13 29
0 19 55 -66 92 -143 32 -67 33 -70 19 -75 -6 -2 -12 7 -12 20 -1 17 -2 19 -6
5 -3 -10 0 -24 7 -31 8 -11 1 -22 -37 -52 -26 -21 -58 -47 -71 -58 -19 -17
-22 -18 -16 -3 4 12 1 17 -12 17 -11 0 -15 -4 -9 -8 20 -15 15 -32 -11 -32
-14 0 -23 -4 -19 -10 3 -6 0 -10 -8 -10 -8 0 -29 -3 -46 -6 -24 -5 -31 -3 -31
10 0 14 -2 14 -18 -2 -11 -9 -17 -20 -15 -23 1 -4 -4 -24 -13 -44 -8 -20 -13
-42 -11 -48 3 -7 8 -3 12 8 19 56 36 85 51 85 12 0 15 -6 10 -25 -9 -34 0 -32
19 5 10 18 23 30 36 30 28 0 56 16 109 62 39 35 45 37 51 21 7 -16 8 -15 8 4
1 14 12 28 29 37 l29 15 11 -116 c6 -64 16 -121 22 -127 13 -13 13 -6 1 65 -5
30 -12 84 -15 122 -5 55 -4 67 8 67 8 0 18 4 21 10 4 7 -3 7 -20 0 -38 -14
-52 -12 -29 5 22 17 50 19 59 6 3 -6 8 -29 11 -53 4 -24 10 -51 15 -61 12 -21
39 -23 39 -2 0 8 -6 15 -14 15 -18 0 -40 82 -24 91 7 5 7 8 -1 10 -12 4 -16
28 -46 254 -25 194 -13 374 24 351 8 -5 26 -152 35 -291 2 -33 10 -117 17
-187 13 -127 14 -128 39 -128 14 0 43 -3 66 -6 l41 -6 -33 -91 c-18 -51 -27
-84 -20 -75 7 10 17 14 21 10 5 -4 5 -1 1 5 -4 7 3 41 15 75 23 64 35 86 44
77 6 -7 -17 -72 -30 -81 -5 -4 -7 -8 -3 -8 6 0 -7 -55 -39 -165 -3 -13 -2 -17
5 -10 5 6 19 44 30 85 12 42 32 106 45 142 22 60 22 66 6 58 -14 -8 -19 -6
-24 10 -6 20 -24 23 -37 6 -3 -5 -9 27 -12 70 -4 43 -9 91 -11 106 -2 15 0 30
5 33 6 4 8 10 6 14 -3 4 -1 12 3 19 12 20 28 -25 40 -120 6 -48 15 -98 20
-110 8 -21 11 -18 47 39 102 164 115 188 119 217 5 30 4 30 -6 -4 -16 -53 -33
-63 -25 -15 4 22 15 47 24 55 19 17 22 28 29 128 6 87 -3 150 -20 133 -14 -14
-30 -14 -22 0 12 19 18 132 6 125 -5 -4 -8 -13 -5 -20 8 -20 -90 -63 -170 -75
-76 -11 -181 3 -171 23 3 6 8 19 11 30 6 17 15 18 100 11 52 -4 116 -4 144 0
42 6 53 12 71 42 15 24 23 55 25 96 1 34 8 157 14 272 23 412 23 392 -12 463
-31 65 -34 92 -4 46 10 -14 20 -23 23 -20 3 3 -6 21 -21 41 -23 30 -25 38 -15
57 11 21 15 15 45 -67 28 -79 32 -99 29 -165 -3 -52 -2 -66 4 -45 5 17 9 46
10 65 l2 35 15 -34 c19 -44 29 -35 10 10 -20 50 -27 99 -15 99 6 0 30 -20 55
-45 24 -25 48 -45 53 -45 5 0 17 -3 27 -7 12 -4 15 -3 10 5 -4 7 -15 12 -25
12 -10 0 -28 11 -41 25 l-23 25 28 0 c16 0 39 -10 52 -22 19 -18 23 -19 23 -5
0 17 18 33 26 24 3 -3 1 -15 -6 -26 -8 -16 -8 -21 1 -21 7 0 9 -9 5 -26 -5
-17 -3 -23 4 -19 5 3 10 21 10 38 0 39 36 121 49 112 6 -3 8 -12 5 -19 -3 -8
-1 -17 5 -21 7 -4 8 0 4 11 -4 11 -3 15 4 11 8 -5 7 1 0 17 -8 16 -16 21 -21
15 -13 -12 -39 -12 -31 1 4 6 10 8 15 5 4 -3 11 2 14 10 3 8 11 14 18 13 7 -2
12 4 11 12 -3 18 33 67 42 58 4 -3 7 -12 8 -20 2 -7 10 -24 19 -36 9 -13 13
-33 10 -44 -3 -14 -1 -19 6 -14 18 11 14 -10 -4 -29 -22 -21 -11 -73 12 -54
12 10 14 7 12 -20 -1 -21 -7 -30 -15 -27 -7 3 -13 -2 -13 -11 0 -8 -5 -33 -12
-55 -8 -26 -14 -35 -20 -26 -10 16 -11 58 0 58 18 0 31 52 20 78 -9 22 -12 23
-15 10 -6 -23 -20 -23 -26 0 -4 14 -5 13 -6 -4 0 -11 -7 -26 -13 -33 -11 -10
-10 -11 3 -6 13 5 15 1 11 -20 -3 -17 -9 -24 -18 -21 -8 3 -41 -21 -76 -55
-35 -32 -71 -62 -80 -65 -10 -3 -18 -10 -18 -15 0 -5 -4 -9 -10 -9 -5 0 -10 7
-10 15 0 8 8 15 18 15 12 0 14 2 4 8 -13 9 -6 42 9 42 5 0 9 5 9 11 0 6 -7 8
-16 5 -11 -4 -15 -2 -11 8 3 8 -2 20 -11 28 -16 12 -16 11 -2 -6 14 -18 13
-19 -10 -13 -24 5 -24 5 -4 -9 15 -10 19 -22 16 -44 -5 -35 -26 -39 -42 -9 -7
11 -14 18 -18 15 -3 -4 4 -20 16 -36 12 -16 22 -34 22 -40 0 -6 4 -8 10 -5 6
4 10 -13 10 -45 0 -32 -4 -49 -10 -45 -5 3 -10 1 -10 -5 0 -6 -7 -22 -16 -36
l-17 -25 -25 76 c-13 41 -28 75 -32 75 -4 0 -8 -51 -9 -113 -1 -61 -6 -161
-12 -221 -10 -111 -8 -129 13 -108 9 9 9 12 -1 12 -9 0 -11 10 -7 37 4 21 7
57 8 81 1 23 3 42 5 42 8 0 25 -58 25 -88 0 -24 4 -32 13 -28 9 3 12 0 8 -9
-3 -8 -10 -12 -16 -8 -6 3 -7 1 -3 -6 4 -6 2 -19 -6 -28 -11 -14 -11 -16 0 -9
11 6 13 1 10 -20 -2 -22 1 -28 12 -25 8 2 21 4 27 5 21 3 73 58 93 96 9 19 25
62 34 95 10 33 32 83 50 110 62 95 66 106 59 186 -6 71 -7 72 -15 34 -5 -22
-16 -45 -24 -52 -9 -6 -13 -16 -9 -22 3 -6 4 -11 0 -11 -3 0 -10 10 -15 23 -8
20 -9 19 -9 -12 -1 -24 3 -32 13 -28 23 9 26 -4 5 -26 -10 -11 -19 -27 -19
-34 0 -19 -51 -42 -104 -45 -25 -2 -46 -6 -46 -10 0 -5 -6 -8 -14 -8 -8 0 -18
-5 -22 -12 -4 -6 -3 -8 4 -5 6 5 8 -1 5 -15 -4 -22 -4 -22 8 -3 6 11 13 22 15
24 2 2 22 7 46 11 24 5 51 12 62 16 35 13 12 -13 -42 -50 -29 -19 -59 -33 -67
-29 -16 6 -19 -5 -7 -24 5 -8 19 -3 47 18 22 16 50 34 62 40 13 7 36 36 52 64
16 29 37 55 46 59 14 5 14 2 -2 -25 -10 -17 -25 -38 -33 -47 -23 -25 -60 -108
-60 -134 0 -19 -2 -20 -10 -8 -5 8 -10 11 -10 5 0 -5 -12 -23 -25 -40 -21 -25
-27 -28 -35 -15 -8 12 -10 12 -10 -5 0 -29 16 -49 34 -42 13 5 14 3 4 -12 -11
-19 -75 -57 -82 -50 -2 2 0 27 5 54 6 33 6 65 -1 95 -21 89 -14 190 9 151 6
-10 11 -6 19 15 8 24 11 25 13 9 1 -11 4 -5 8 14 7 39 31 55 31 21 0 -19 2
-21 16 -9 14 11 13 15 -8 31 l-23 18 63 58 c41 37 62 65 62 79 0 12 5 25 12
29 8 5 9 0 6 -14 -9 -32 6 -27 38 13 24 31 29 33 35 18 3 -10 2 -35 -3 -57 -9
-41 -3 -60 12 -36 5 8 20 48 32 87 16 50 28 73 39 73 13 0 16 16 17 103 1 56
2 118 3 137 1 19 1 53 -1 75 -1 22 1 69 4 105 4 36 8 74 9 85 1 11 27 67 56
125 53 101 55 110 67 225 7 66 17 138 23 161 6 23 10 95 9 160 0 65 5 139 11
163 7 24 11 80 9 125 -2 73 -5 85 -34 121 -17 22 -50 68 -73 102 -23 33 -50
63 -59 65 -24 6 -85 -16 -75 -26 4 -5 3 -6 -3 -3 -6 3 -42 -1 -80 -9 -95 -19
-105 -18 -142 15 -25 24 -32 38 -32 68 0 33 -7 45 -46 81 -42 41 -47 43 -76
33 -47 -17 -58 -14 -69 18 -6 16 -17 32 -25 35 -7 3 -22 18 -31 34 -22 35
-123 124 -137 119 -23 -8 -15 -27 16 -40 37 -15 107 -75 75 -64 -10 4 -24 7
-29 7 -6 0 -8 3 -5 6 4 4 -14 18 -39 31 -25 14 -48 23 -50 20 -2 -2 5 -16 17
-31 18 -23 20 -30 8 -37 -8 -5 -9 -9 -4 -10 6 0 1 -4 -10 -8 -18 -7 -15 -10
21 -29 22 -11 47 -28 55 -38 10 -12 -1 -9 -39 10 -49 25 -69 23 -37 -4 8 -7
13 -16 10 -20 -8 -13 102 -39 132 -31 l28 8 -33 7 c-42 10 -62 43 -29 49 19 4
19 4 -5 6 -15 0 -39 12 -55 25 l-28 24 59 -1 c47 -2 64 -7 85 -27 30 -28 72
-104 76 -135 7 -57 8 -59 15 -25 5 29 8 32 15 16 16 -38 -59 -141 -115 -156
-23 -6 -26 -3 -37 39 l-12 46 4 -42 c6 -53 -1 -70 -37 -89 -16 -9 -28 -18 -25
-20 3 -3 14 0 26 8 18 11 23 10 38 -6 17 -17 17 -17 -7 -15 -14 2 -26 -1 -28
-6 -4 -16 161 -23 173 -7 6 8 26 17 45 21 18 3 35 11 37 17 6 17 -21 43 -52
49 -30 6 -30 6 5 -12 38 -20 44 -36 14 -41 -10 -2 -33 -10 -51 -18 -44 -20
-89 -18 -114 7 -30 30 -19 43 47 55 37 7 51 12 37 15 -17 3 -20 8 -13 19 7 12
16 12 49 4 23 -6 41 -8 41 -3 0 4 -6 9 -12 12 -10 4 -10 7 0 18 6 7 12 36 12
63 0 45 -3 53 -30 71 -35 24 -37 31 -9 38 29 8 61 -6 84 -37 11 -14 25 -26 32
-26 9 0 13 -18 12 -62 -1 -54 -2 -58 -9 -30 -4 19 -13 39 -19 45 -7 7 -6 -1 2
-22 11 -29 10 -34 -10 -49 -22 -17 -21 -17 45 -19 106 -2 303 19 319 35 21 22
38 9 90 -68 90 -134 84 -120 62 -164 -10 -22 -19 -46 -19 -53 0 -7 -11 -13
-25 -13 -14 0 -25 5 -25 11 0 18 -34 54 -55 57 -23 4 -48 28 -58 56 -7 19 -8
19 -22 -1 -11 -15 -12 -28 -6 -45 6 -15 4 -32 -5 -50 -8 -16 -13 -28 -12 -29
2 0 12 -2 22 -4 26 -5 37 -25 33 -57 -2 -15 1 -30 7 -33 7 -3 7 -7 -1 -11 -7
-3 -13 -10 -13 -16 0 -7 5 -7 13 1 8 6 16 8 20 5 10 -10 26 32 17 46 -11 18
-2 70 15 89 11 11 13 10 12 -5 -1 -11 4 -18 11 -16 6 1 12 -3 12 -9 0 -5 4 -8
9 -5 9 6 20 -43 13 -62 -2 -7 -9 -9 -15 -5 -7 3 -9 3 -5 -2 4 -4 3 -14 -3 -22
-22 -25 0 -13 37 22 33 31 36 40 12 36 -4 0 1 15 12 34 11 20 20 42 20 50 0 7
5 17 10 20 7 4 10 -17 8 -64 -1 -38 -6 -67 -10 -65 -4 3 -8 -9 -8 -26 0 -25
-4 -31 -15 -26 -13 5 -13 2 0 -18 13 -19 13 -25 3 -29 -10 -4 -10 -6 0 -6 17
-1 15 -21 -5 -43 -15 -17 -15 -20 5 -39 21 -19 21 -22 7 -49 -9 -17 -11 -30
-5 -30 5 0 10 -8 10 -17 0 -15 -2 -16 -10 -3 -8 13 -10 13 -10 -2 0 -9 5 -20
10 -23 18 -11 11 -35 -10 -35 -11 0 -20 -4 -20 -10 0 -5 5 -10 10 -10 14 0 2
-133 -13 -142 -9 -6 -9 -8 0 -8 13 0 6 -37 -11 -59 -8 -11 -8 -13 2 -7 8 5 12
1 12 -13 0 -24 -16 -36 -24 -19 -3 7 -3 2 0 -11 4 -16 3 -21 -5 -17 -6 4 -11
4 -10 -1 4 -22 -2 -43 -11 -38 -5 3 -10 1 -10 -5 0 -6 -5 -8 -12 -4 -7 4 -8 3
-4 -4 4 -6 14 -9 24 -6 15 5 15 4 1 -8 -9 -7 -14 -18 -12 -24 2 -6 -3 -17 -12
-24 -8 -7 -15 -18 -15 -24 0 -6 -17 -22 -37 -36 l-37 -25 30 -6 c27 -6 28 -7
7 -14 -13 -4 -20 -11 -18 -16 10 -16 17 -141 7 -136 -5 4 -9 0 -9 -8 0 -8 3
-12 7 -10 4 3 10 -16 14 -42 9 -66 8 -75 -6 -67 -10 6 -10 4 -2 -7 6 -8 8 -22
5 -33 -6 -15 -10 -11 -23 20 -9 22 -20 49 -23 62 -5 17 -12 21 -26 17 -16 -5
-19 -1 -19 29 0 20 5 36 10 36 6 0 10 9 10 19 0 11 3 27 6 36 5 13 8 14 15 3
7 -11 9 -11 9 0 0 8 -9 16 -20 19 -11 3 -23 16 -26 29 -7 28 -19 30 -63 8 -21
-10 -45 -14 -68 -11 -24 4 -33 2 -30 -6 6 -19 58 -16 99 4 46 23 45 23 51 -1
3 -14 0 -20 -11 -22 -10 0 -21 -2 -27 -3 -5 -2 -19 -4 -30 -5 -20 -1 -20 -1 0
-9 11 -5 30 -4 43 0 34 13 42 11 42 -10 0 -43 -63 -93 -127 -100 -16 -2 -15
-3 2 -10 14 -6 33 -1 63 16 29 17 42 21 42 12 0 -19 -78 -88 -118 -105 -30
-13 -37 -13 -59 1 -13 9 -31 31 -39 48 -7 18 -22 41 -31 52 -19 21 -93 68 -93
59 0 -17 24 -45 35 -41 14 6 68 -47 78 -75 5 -13 1 -18 -14 -18 -11 0 -18 3
-16 8 3 4 -5 8 -16 8 -12 1 -33 5 -46 9 -16 5 -22 5 -18 -2 4 -6 32 -18 64
-28 31 -10 92 -35 135 -55 l79 -37 -42 -18 c-35 -16 -48 -17 -96 -7 -92 19
-124 40 -141 92 -7 25 -14 53 -14 62 1 11 -21 28 -61 48 -34 17 -75 45 -90 63
-16 17 -26 26 -22 20 13 -27 -15 -11 -32 17 -9 17 -23 30 -30 30 -18 0 -27 21
-13 30 9 5 9 9 1 14 -6 4 -11 12 -11 18 0 7 5 6 14 -1 12 -10 15 -7 14 18 -1
17 -4 31 -8 31 -12 0 -110 104 -110 117 0 8 15 8 57 -2 76 -18 81 -11 7 11
-60 17 -84 30 -84 45 0 5 8 9 18 10 13 0 14 2 2 6 -45 16 -53 70 -12 76 l27 4
-27 2 c-25 1 -57 35 -45 48 9 9 88 -18 94 -32 3 -8 9 -12 14 -10 4 3 22 -7 39
-22 26 -23 30 -33 26 -62 -3 -22 1 -39 9 -46 9 -7 11 -23 6 -55 -4 -28 -9 -40
-14 -32 -5 6 -12 12 -18 12 -15 0 24 -34 54 -47 15 -7 52 -31 82 -53 30 -22
58 -40 62 -40 4 0 1 5 -7 10 -8 5 -15 17 -15 27 0 10 -6 17 -13 15 -8 -1 -38
13 -67 33 -53 35 -53 35 -48 77 3 24 9 47 14 52 12 13 11 26 -2 26 -5 0 -7 -6
-3 -12 5 -9 2 -8 -9 1 -13 10 -16 22 -11 46 4 25 2 34 -11 39 -15 5 -15 9 -4
23 8 9 9 14 4 11 -6 -4 -38 6 -71 20 -56 25 -60 29 -53 50 5 13 12 21 16 19 5
-3 9 7 10 21 4 53 95 231 118 231 6 0 21 -8 35 -19 14 -11 32 -20 40 -20 8 0
22 -5 30 -10 12 -8 11 -14 -9 -41 l-24 -32 23 -17 c14 -11 24 -30 25 -51 4
-40 23 -94 31 -86 3 3 2 14 -4 24 -5 10 -8 40 -7 66 1 34 -2 46 -11 43 -7 -3
-18 2 -25 10 -10 12 -8 20 8 42 22 30 63 42 63 19 0 -8 -10 -19 -22 -25 -13
-6 -17 -11 -9 -11 8 -1 26 9 39 22 l24 22 19 -24 c15 -18 19 -20 19 -6 0 9 -6
22 -12 28 -14 13 -16 13 -74 16 -24 1 -33 5 -28 13 5 8 2 9 -9 5 -21 -8 -49 2
-41 14 3 5 -4 10 -15 10 -25 2 -28 2 -66 18 -16 6 -42 16 -57 22 -15 6 -33 9
-40 6 -8 -4 -7 -6 5 -6 9 -1 17 -8 17 -16 0 -9 7 -18 15 -21 22 -9 18 -31 -5
-37 -14 -4 -20 -14 -20 -34 -1 -15 -9 -46 -20 -68 -11 -22 -19 -47 -20 -56 0
-8 -6 -24 -14 -34 -13 -18 -15 -18 -40 -2 -14 10 -26 14 -26 9 0 -5 11 -15 25
-22 32 -17 33 -43 3 -38 -17 2 -31 19 -50 59 -22 47 -38 64 -95 101 -89 58
-98 63 -90 51 4 -7 -8 -14 -31 -18 -20 -4 -65 -21 -100 -40 -34 -18 -65 -29
-68 -24 -3 5 -28 22 -55 38 l-50 28 28 19 c23 15 46 18 123 18 73 -1 86 1 55
7 -22 4 -68 8 -101 8 -52 1 -73 -5 -134 -36 -39 -20 -106 -66 -148 -102 -81
-69 -85 -72 -117 -110 l-20 -24 22 12 c19 10 23 8 35 -17 14 -29 12 -76 -3
-67 -5 4 -9 1 -9 -4 0 -6 5 -11 11 -11 5 0 7 -4 4 -10 -3 -5 -15 -10 -27 -10
-14 0 -18 5 -14 16 3 9 2 12 -5 9 -10 -7 -2 -46 11 -55 21 -15 30 -50 19 -74
-10 -21 -15 -23 -35 -16 -29 11 -31 0 -9 -64 8 -24 12 -51 9 -60 -6 -14 -9
-14 -36 1 -22 14 -28 23 -23 40 8 32 -4 56 -19 40 -7 -7 -15 -19 -19 -27 -9
-25 -7 72 3 115 10 46 2 55 -50 53 -26 0 -29 -2 -10 -5 49 -8 55 -12 34 -28
-10 -8 -27 -15 -36 -15 -10 0 -18 -5 -18 -11 0 -9 16 -7 58 8 18 7 14 -7 -13
-52 -14 -22 -24 -51 -24 -65 1 -21 2 -19 9 8 14 61 31 62 25 2 -7 -79 3 -140
24 -140 14 0 14 2 1 10 -12 8 -11 10 8 10 21 0 42 -17 80 -64 9 -11 31 -16 70
-17 54 -1 55 -1 20 -10 -20 -4 -56 -5 -80 -1 -37 6 -43 11 -46 35 -2 15 -8 27
-13 27 -11 0 -11 0 2 -39 6 -17 17 -31 25 -31 15 0 17 -10 8 -34 -4 -10 -18
-16 -41 -16 -20 0 -32 4 -28 10 3 6 2 10 -2 10 -5 0 -17 6 -27 13 -16 12 -17
17 -6 38 10 20 10 22 -1 12 -7 -7 -17 -13 -21 -13 -12 0 2 74 16 82 6 5 2 8
-10 8 -39 0 -247 175 -241 203 1 7 -3 11 -9 10 -7 -1 -33 20 -59 48 -36 39
-45 54 -40 72 8 25 43 59 55 52 5 -3 6 4 3 15 -3 11 0 20 6 20 6 0 11 -5 11
-11 0 -6 16 -31 36 -55 20 -24 32 -44 26 -44 -5 0 -15 7 -22 15 -15 18 -31 10
-23 -11 3 -8 8 -12 11 -9 3 3 14 -2 24 -12 17 -15 18 -15 18 0 0 13 10 17 38
18 20 0 44 2 52 3 8 2 45 7 83 10 37 4 67 11 67 15 0 7 -132 -3 -177 -14 -15
-3 -23 0 -26 12 -4 17 -5 17 -6 1 -1 -17 -31 -26 -31 -10 0 5 -10 19 -21 31
-19 20 -20 27 -11 59 6 21 14 50 17 66 l6 29 25 -23 c17 -17 24 -34 24 -62 0
-21 5 -38 10 -38 19 0 11 69 -10 90 -11 11 -20 24 -20 30 0 24 152 210 171
210 14 0 10 -67 -5 -105 -18 -41 -28 -55 -81 -106 -45 -44 -44 -59 2 -27 40
29 72 77 93 139 13 36 19 45 22 31 3 -11 1 -27 -4 -36 -5 -9 -7 -24 -5 -34 3
-12 8 -7 20 18 20 47 27 52 46 37 14 -10 14 -10 3 5 -8 9 -13 25 -12 35 4 37
-1 37 -19 -2 -15 -30 -20 -35 -20 -19 -1 12 -8 40 -16 63 -11 32 -12 57 -6
104 8 60 2 124 -21 212 -6 22 -12 51 -14 64 -4 32 -14 40 -14 10 0 -17 -7 -9
-26 31 -20 44 -23 59 -15 78 6 12 11 31 11 40 0 9 5 24 10 32 8 13 11 12 25
-5 15 -19 15 -19 9 10 -4 17 -14 44 -22 60 -8 17 -16 50 -17 75 l-3 44 23 -28
c14 -18 29 -27 38 -23 9 3 18 1 20 -6 2 -7 8 -9 12 -5 5 4 -7 23 -26 41 -19
18 -39 42 -46 53 -7 11 -11 13 -9 4 1 -8 1 -12 -1 -7 -3 4 -11 7 -18 7 -8 0
-17 4 -20 10 -3 6 1 7 9 4 9 -3 16 -1 16 4 0 6 7 18 16 26 14 15 14 16 0 16
-9 0 -16 -6 -16 -13 0 -7 -9 -13 -20 -14 -11 -1 -18 2 -15 8 4 5 -3 9 -13 9
-11 0 -23 7 -26 16 -10 25 1 29 23 10 10 -10 22 -13 25 -8 3 5 20 7 38 6 18
-2 -2 6 -45 17 -78 20 -89 25 -127 63 -25 25 -25 33 1 46 34 19 99 81 99 96 0
18 14 18 30 -1 14 -17 35 -21 25 -5 -3 6 3 10 13 10 11 0 22 -7 26 -15 3 -8
12 -15 21 -15 13 0 11 6 -7 33 -28 39 -39 48 -51 40 -5 -3 -8 0 -6 6 3 7 8 11
12 9 16 -7 49 65 43 94 -6 28 13 93 21 72 2 -7 13 -10 23 -7 11 3 17 9 14 14
-9 14 -50 10 -64 -6z m-50 -195 c8 -5 12 -12 8 -15 -9 -9 -48 4 -48 16 0 12
21 11 40 -1z m1480 -565 c-7 -14 -17 -25 -21 -25 -9 0 -1 29 14 48 16 21 21 4
7 -23z m460 -267 c0 -4 -7 -8 -15 -8 -9 0 -15 -9 -15 -22 0 -23 -1 -23 -14 2
-7 14 -12 27 -10 31 4 8 54 6 54 -3z m-1362 -438 c60 -38 102 -51 102 -31 0
28 167 63 214 45 34 -13 13 -19 -67 -19 -75 0 -88 -3 -126 -28 -23 -15 -47
-25 -53 -21 -6 4 -8 3 -5 -3 3 -5 -19 -33 -49 -62 -31 -29 -68 -72 -83 -94
-14 -23 -41 -57 -59 -76 -25 -26 -32 -42 -32 -75 0 -22 -5 -48 -10 -56 -15
-23 -13 63 2 97 29 65 116 183 135 183 11 0 83 73 83 84 0 6 -18 -7 -39 -28
-22 -21 -44 -36 -49 -32 -5 3 -12 -4 -15 -15 -4 -13 -10 -18 -18 -13 -7 4 -10
3 -6 -2 3 -6 1 -16 -4 -24 -6 -9 -12 -11 -15 -5 -16 36 -23 40 -37 22 -15 -22
-54 -172 -93 -365 l-28 -133 -40 6 c-54 9 -61 17 -57 68 3 48 8 57 21 37 7
-11 9 -10 7 7 0 12 -5 19 -9 17 -15 -10 5 80 44 194 21 62 38 117 38 122 0 15
37 49 45 42 3 -4 3 1 0 9 -7 20 39 42 69 34 16 -5 18 -4 6 4 -8 6 -39 8 -70 4
-47 -4 -53 -3 -40 8 8 8 21 21 29 29 11 13 12 12 6 -7 -9 -31 3 -29 15 1 7 19
14 23 32 19 44 -12 69 -34 63 -57 -5 -15 -4 -17 3 -8 5 8 12 13 16 13 3 -1 7
2 8 7 1 4 -22 21 -50 37 -28 17 -51 33 -52 37 0 9 82 68 94 68 6 0 39 -18 74
-40z m-724 -82 c-5 -7 -7 -20 -6 -29 4 -21 -20 -40 -37 -30 -11 7 -8 16 15 44
27 34 46 44 28 15z m491 -64 c0 -10 -6 -18 -12 -16 -7 1 -13 -6 -13 -15 0 -10
-5 -25 -10 -33 -7 -12 -9 -11 -8 5 0 11 -2 27 -6 36 -8 19 20 52 38 46 6 -2
11 -12 11 -23z m-570 -224 c-9 -47 -13 -52 -36 -39 -16 8 -19 16 -13 47 9 50
12 53 35 39 16 -10 19 -19 14 -47z m165 -143 c0 -10 5 -17 10 -17 6 0 10 5 10
11 0 8 5 8 15 -1 8 -7 12 -16 9 -21 -3 -5 3 -6 12 -2 12 4 15 3 10 -5 -5 -8
-2 -10 8 -6 9 3 16 1 16 -5 0 -7 -25 -11 -69 -11 l-69 0 -56 62 c-39 42 -54
67 -50 78 4 8 7 30 6 49 l-2 34 75 -75 c41 -41 75 -82 75 -91z m1251 21 c17
-31 -16 -21 -55 16 -21 20 -36 43 -36 57 0 22 3 20 41 -16 22 -22 45 -48 50
-57z m-51 -9 c0 -5 4 -8 9 -5 4 3 13 -6 20 -21 9 -20 9 -28 0 -34 -8 -5 -5
-10 9 -18 13 -7 19 -17 15 -27 -4 -12 -8 -13 -22 -2 -9 7 -6 3 7 -9 26 -26 52
-32 32 -8 -7 9 -10 18 -7 22 4 3 15 -5 26 -18 14 -17 16 -26 8 -31 -18 -12 13
-29 41 -25 12 3 25 0 29 -6 3 -5 2 -7 -3 -4 -13 7 -28 -3 -41 -28 -9 -15 -8
-22 4 -30 12 -9 11 -11 -9 -10 -48 2 -68 15 -68 45 0 16 9 38 20 48 22 20 24
20 -32 13 -4 -1 -6 -26 -4 -56 2 -30 2 -55 0 -55 -7 0 -27 46 -31 70 -3 14 -6
54 -9 90 -2 36 -6 75 -10 88 -4 13 -2 22 5 22 6 0 11 -5 11 -11z m-756 -58
c-8 -18 -11 -50 -14 -161 l-2 -75 -12 50 c-6 28 -14 46 -17 40 -9 -14 50 -266
66 -281 12 -12 23 -63 24 -104 0 -23 18 -101 30 -133 17 -44 13 -63 -14 -75
-46 -21 -62 -15 -79 29 -17 42 -16 51 7 55 7 1 26 7 42 14 44 18 18 22 -42 7
l-52 -14 -17 41 c-45 109 -53 140 -43 152 7 8 5 40 -5 101 -8 48 -18 113 -21
144 l-7 56 54 7 c29 4 58 8 64 8 7 1 11 21 11 52 -1 28 2 74 7 101 7 45 9 48
18 26 5 -14 5 -32 2 -40z m-329 -78 c-9 -64 -13 -75 -25 -68 -11 7 -14 98 -3
108 3 4 13 7 20 7 11 0 13 -10 8 -47z m1305 -93 c0 -11 -40 -34 -47 -26 -3 3
-3 12 0 21 7 16 47 21 47 5z m-180 -34 c0 5 5 2 10 -6 8 -12 10 -12 10 5 1 12
8 3 21 -25 28 -64 36 -75 48 -73 11 3 27 -42 23 -64 -1 -6 3 -15 9 -19 19 -11
2 57 -21 86 -24 31 -53 81 -48 85 2 2 17 -3 35 -10 20 -9 39 -28 52 -54 25
-48 26 -58 6 -41 -9 7 -3 -16 16 -61 17 -41 46 -120 65 -177 33 -100 34 -107
33 -255 -1 -84 -4 -165 -8 -182 -6 -28 -8 -26 -14 20 -4 28 -7 93 -6 145 0 99
-6 156 -22 197 -13 34 -11 56 3 47 7 -4 8 -3 4 4 -4 7 -13 12 -21 12 -8 0 -19
8 -24 18 -6 9 -11 13 -11 8 0 -5 -7 -3 -15 4 -9 7 -18 10 -22 6 -3 -3 -1 -6 6
-6 7 0 9 -4 6 -10 -3 -5 0 -10 8 -10 23 0 36 -23 42 -71 3 -24 10 -45 15 -47
6 -2 10 -8 10 -13 0 -6 -5 -7 -12 -3 -7 5 -8 3 -2 -7 13 -22 15 -37 19 -149 2
-58 7 -130 11 -160 12 -93 13 -134 1 -162 -7 -16 -15 -28 -19 -28 -9 0 -68 90
-109 169 -18 35 -35 58 -37 52 -2 -6 -7 -9 -11 -7 -4 3 -8 -1 -8 -9 0 -10 4
-12 12 -5 8 7 24 -15 54 -75 24 -47 55 -96 69 -110 26 -27 23 -38 -14 -49 -18
-6 -24 0 -39 41 -10 27 -21 52 -25 56 -10 11 -9 -26 1 -39 5 -5 5 -22 1 -37
l-7 -27 -16 32 c-32 65 -89 197 -89 208 0 6 -5 19 -11 29 -7 10 -9 30 -5 46
l7 29 25 -30 c29 -35 22 -6 -9 39 -11 16 -26 63 -33 105 -16 92 -16 91 -4 72
11 -18 23 -8 14 13 -3 9 -12 13 -20 10 -12 -4 -13 9 -9 83 4 48 9 92 12 97 3
6 1 7 -5 3 -14 -8 -14 16 -2 54 8 25 8 25 10 -5 l2 -30 9 35 c5 19 6 51 3 70
-5 33 -4 34 9 15 26 -36 97 -232 132 -368 10 -36 20 -55 26 -51 8 4 7 9 -1 14
-8 5 -11 19 -7 39 4 19 2 31 -4 31 -6 0 -9 7 -6 15 4 8 2 17 -4 21 -6 3 -8 12
-5 20 3 7 1 16 -4 19 -6 4 -10 13 -10 21 0 9 -12 41 -26 72 -51 112 -74 178
-71 202 2 14 -4 33 -15 44 -10 11 -18 32 -18 47 0 15 -3 36 -7 46 -6 17 -5 17
15 -1 12 -11 22 -15 22 -10z m220 1 c0 -18 -27 -53 -34 -46 -9 9 11 59 24 59
5 0 10 -6 10 -13z m366 -43 c-12 -8 -13 -13 -5 -16 7 -2 0 -13 -18 -26 -18
-12 -38 -19 -47 -16 -21 8 -20 21 2 28 10 4 32 20 48 37 17 18 30 25 33 18 2
-7 -4 -18 -13 -25z m-400 -28 c3 -8 12 -12 20 -9 10 3 14 -2 14 -18 0 -13 11
-47 24 -76 21 -44 48 -177 33 -163 -2 3 -21 46 -42 95 -20 50 -50 111 -66 138
-27 44 -28 47 -9 47 12 0 23 -6 26 -14z m38 -179 c32 -78 46 -125 44 -148 -2
-28 -11 -11 -47 99 -25 73 -48 135 -53 138 -4 3 -8 12 -8 20 0 32 19 0 64
-109z m290 -153 c3 -8 2 -12 -4 -9 -5 3 -14 -4 -20 -15 -9 -16 -13 -18 -24 -8
-11 11 -9 16 13 30 14 9 27 17 27 17 1 1 5 -6 8 -15z m-173 -155 c1 -13 1 -35
0 -49 -3 -42 -20 0 -26 66 -6 56 -5 58 9 33 8 -14 16 -36 17 -50z m-1051 -13
c0 -18 -8 -27 -29 -34 -31 -11 -41 -7 -41 15 0 11 45 39 68 43 1 0 2 -11 2
-24z m1047 -136 c0 -25 -1 -34 -4 -20 -3 14 -9 29 -14 35 -5 5 -9 25 -9 45 0
35 0 35 13 10 7 -14 14 -45 14 -70z m133 -100 c-7 -16 -19 -30 -27 -30 -13 0
-14 3 -1 23 8 12 18 28 22 35 14 24 19 3 6 -28z m-445 -115 c21 -47 38 -106
32 -112 -3 -3 -12 -1 -19 3 -14 9 -19 11 -43 13 -8 0 -15 11 -16 24 l-1 22 -6
-23 c-10 -35 -27 -31 -30 7 -3 26 -6 31 -13 20 -8 -10 -8 -8 -4 10 4 13 8 29
9 35 11 61 18 59 42 -10 13 -37 29 -73 36 -79 8 -7 10 -6 6 5 -41 122 -49 153
-43 168 6 14 10 10 22 -18 8 -19 21 -48 28 -65z m208 -233 c23 -44 24 -54 17
-118 -4 -38 -16 -89 -27 -114 -12 -25 -24 -61 -28 -80 -8 -38 -51 -120 -64
-120 -10 0 -30 87 -27 120 0 14 -6 32 -15 40 -10 9 -21 48 -29 100 -22 151
-28 170 -41 149 -13 -20 -11 -82 5 -174 8 -44 11 -82 7 -85 -5 -3 -16 -21 -26
-40 -14 -28 -17 -49 -12 -117 5 -67 3 -83 -8 -83 -15 0 -19 15 -35 155 -9 80
-30 338 -30 373 0 17 87 6 111 -14 19 -17 45 -18 54 -3 11 17 -5 25 -16 9 -9
-13 -10 -13 -6 0 5 18 27 23 46 11 18 -11 27 -254 11 -295 -13 -34 3 -33 26 2
16 23 19 44 17 135 -2 73 -7 117 -18 137 -15 30 -15 30 17 44 46 20 43 21 71
-32z m-430 -272 c24 -145 31 -240 18 -240 -6 0 -20 19 -32 43 -12 23 -35 61
-50 84 -34 49 -36 64 -9 88 11 10 28 43 36 73 9 29 17 52 19 50 1 -2 10 -46
18 -98z"/>
<path d="M1104 1703 c3 -34 30 -123 37 -123 13 0 22 22 12 29 -5 3 -15 21 -22
39 -12 29 -12 34 5 48 11 9 13 13 6 9 -7 -4 -19 -2 -26 4 -10 9 -13 7 -12 -6z"/>
<path d="M2030 1834 c0 -3 14 -19 30 -36 17 -16 30 -36 30 -44 0 -8 7 -14 16
-14 9 0 12 -5 8 -12 -5 -10 -4 -10 6 -1 11 10 10 20 -6 53 -18 38 -40 57 -27
23 4 -11 3 -14 -5 -9 -7 4 -12 13 -12 21 0 7 -7 16 -16 19 -20 7 -24 8 -24 0z"/>
<path d="M1971 1726 c-13 -45 -8 -106 10 -106 5 0 9 -10 9 -22 0 -13 5 -30 10
-38 15 -21 2 35 -17 78 -9 22 -12 43 -7 60 6 24 8 24 12 7 8 -34 98 -297 127
-369 22 -56 25 -70 14 -77 -11 -7 -10 -9 4 -9 10 0 17 -8 17 -18 0 -10 7 -27
16 -38 14 -17 15 -17 10 -1 -3 10 -13 43 -21 75 -9 31 -25 73 -36 93 -10 20
-19 45 -19 56 0 10 -4 23 -9 28 -5 6 -16 33 -24 60 -9 28 -23 70 -33 95 -9 25
-24 73 -33 108 l-16 63 -14 -45z"/>
<path d="M1970 1480 c0 -10 52 -164 61 -180 26 -44 -12 88 -43 150 -9 19 -17
33 -18 30z"/>
<path d="M1531 4217 c-1 -10 -5 -16 -10 -13 -10 7 -21 -42 -14 -61 3 -7 10
-13 16 -13 6 0 26 -14 44 -31 31 -31 33 -32 58 -15 22 15 24 19 13 39 -6 12
-10 22 -8 22 2 0 0 10 -4 23 -4 12 -13 22 -21 22 -13 0 -14 -12 -1 -42 4 -9 6
-27 4 -40 -3 -18 -12 -7 -40 52 -20 41 -37 67 -37 57z"/>
<path d="M935 4140 c-8 -13 3 -30 21 -30 18 0 18 14 0 29 -10 8 -16 9 -21 1z"/>
<path d="M1301 4053 c-12 -43 -27 -89 -32 -102 -9 -21 -8 -23 4 -12 25 20 67
119 67 156 0 57 -16 40 -39 -42z"/>
<path d="M1425 4091 c-4 -7 1 -23 9 -36 17 -26 36 -33 36 -14 0 5 -4 7 -10 4
-5 -3 -10 2 -10 12 0 27 -16 48 -25 34z"/>
<path d="M890 4080 c0 -17 31 -72 37 -67 8 8 -17 77 -28 77 -5 0 -9 -5 -9 -10z"/>
<path d="M1336 4019 c-11 -18 -14 -29 -7 -25 19 12 12 -13 -14 -51 -26 -40
-26 -54 2 -32 11 9 14 10 9 2 -4 -7 -2 -13 4 -13 15 0 -4 -35 -54 -94 -28 -34
-34 -46 -19 -37 12 6 25 16 28 21 3 6 11 10 18 10 6 0 -4 -14 -23 -31 -36 -31
-26 -30 22 3 l28 19 -6 -29 c-3 -17 -1 -38 5 -49 8 -15 10 -9 11 29 0 26 5 50
10 53 6 4 10 -5 8 -22 -3 -43 10 -58 32 -38 16 15 18 14 30 -15 14 -34 33 -31
24 5 -3 12 -1 26 5 30 8 4 7 13 -4 28 -20 28 -19 37 4 37 52 0 69 -43 34 -83
-17 -19 -17 -20 3 -9 26 14 35 33 29 63 -5 26 -22 39 -51 39 -23 0 -51 26 -41
37 4 3 12 1 20 -5 7 -6 31 -14 54 -18 35 -5 42 -10 47 -36 13 -66 10 -71 -69
-112 -42 -21 -81 -36 -88 -33 -14 5 -79 -100 -66 -109 5 -3 9 -1 9 4 0 5 8 12
18 15 9 4 27 14 40 23 l24 18 -22 -40 c-41 -76 -108 -114 -135 -78 -11 15 -14
16 -15 4 0 -8 12 -28 26 -45 19 -22 22 -24 14 -7 -6 12 -7 21 -3 21 16 -4 62
21 99 53 l37 33 -7 -30 c-4 -16 -11 -32 -16 -35 -15 -9 -29 -56 -21 -69 5 -8
11 -1 16 21 7 32 7 33 15 8 7 -21 8 -18 11 20 2 41 3 42 6 11 3 -19 -1 -55 -8
-80 -8 -25 -13 -49 -12 -52 3 -10 -36 -43 -43 -37 -3 3 -6 15 -7 26 -2 35 -9
16 -13 -37 -3 -41 -1 -51 11 -51 18 0 19 12 4 27 -8 8 -5 13 9 17 12 4 34 22
50 41 17 18 33 31 36 28 12 -12 6 -49 -14 -80 -11 -18 -16 -33 -11 -33 5 0 17
17 27 38 26 55 23 175 -5 231 -14 27 -21 56 -19 79 3 34 8 39 67 70 36 18 70
31 76 28 7 -2 15 -20 19 -38 3 -19 16 -45 27 -57 l21 -22 24 22 c38 36 29 116
-18 167 -28 28 -42 28 -27 0 19 -36 48 -138 39 -138 -5 0 -10 -8 -13 -17 -5
-24 -11 -7 -27 82 -15 80 -40 144 -64 164 -24 20 -104 33 -127 21 -11 -6 -19
-21 -19 -35 0 -13 -4 -26 -9 -29 -5 -3 -7 -15 -4 -25 3 -10 0 -22 -6 -25 -7
-5 -11 4 -11 23 0 22 -5 31 -16 31 -10 0 -13 6 -10 18 6 16 17 212 12 212 -1
0 -10 -14 -20 -31z"/>
<path d="M1980 4010 c0 -7 16 -27 35 -46 25 -23 35 -41 35 -63 0 -20 7 -34 21
-41 11 -7 38 -28 60 -47 44 -40 50 -36 17 10 -13 17 -27 40 -33 51 -5 11 -18
20 -28 22 -55 8 -26 34 31 28 34 -4 57 0 84 13 l37 18 -57 1 c-32 0 -68 6 -82
13 -24 11 -24 11 -6 -3 11 -9 17 -16 13 -16 -18 0 -84 33 -104 52 -15 14 -23
17 -23 8z"/>
<path d="M1210 4002 c-18 -8 -25 -58 -10 -67 5 -3 10 -15 10 -26 0 -10 5 -19
10 -19 6 0 4 15 -5 36 -11 27 -12 41 -4 56 9 17 13 18 20 7 7 -11 9 -10 9 4 0
18 -6 20 -30 9z"/>
<path d="M972 3950 c2 -16 -2 -24 -9 -22 -7 1 -13 -3 -13 -9 0 -6 -6 -9 -13
-6 -11 4 -11 -4 1 -41 20 -63 26 -75 41 -80 7 -2 5 10 -7 32 -24 44 -17 89 14
94 28 4 94 -61 98 -95 2 -16 4 -31 5 -35 0 -5 4 -8 9 -8 4 0 6 18 4 40 -2 22
-8 40 -13 40 -5 0 -9 5 -9 11 0 5 4 8 9 5 5 -4 7 3 4 13 -3 12 -11 17 -19 14
-9 -3 -14 1 -14 12 0 15 -3 15 -15 5 -13 -11 -14 -10 -9 3 4 12 1 14 -15 10
-12 -3 -21 -1 -21 6 0 6 5 11 12 11 9 0 8 3 -1 13 -11 10 -14 9 -18 -2 -5 -11
-7 -11 -15 0 -6 10 -8 7 -6 -11z"/>
<path d="M823 3914 c-9 -4 -9 -11 -1 -30 15 -32 23 -30 24 6 1 30 -1 32 -23
24z"/>
<path d="M1259 3884 c-6 -8 -18 -14 -25 -14 -8 0 -14 -4 -14 -10 0 -14 12 -12
38 5 12 9 29 15 38 13 9 -2 19 2 20 7 6 16 -44 15 -57 -1z"/>
<path d="M870 3867 c0 -20 6 -30 20 -34 11 -3 17 -9 14 -14 -3 -5 0 -9 6 -9 6
0 9 -4 6 -8 -3 -5 1 -9 9 -9 11 0 9 7 -6 29 -11 15 -25 28 -30 28 -6 0 -8 4
-5 8 2 4 1 14 -5 22 -6 11 -9 8 -9 -13z"/>
<path d="M1723 3880 c-12 -5 -27 -18 -33 -30 -16 -31 21 -80 61 -80 37 0 37
18 0 31 -36 13 -46 35 -25 56 14 14 16 14 29 -3 8 -11 18 -29 21 -41 9 -32 24
-29 24 5 0 17 -10 37 -23 50 -26 25 -24 24 -54 12z"/>
<path d="M903 3756 c8 -17 13 -21 15 -11 2 8 8 13 13 9 5 -3 7 -9 5 -13 -3 -4
1 -8 8 -8 16 0 9 33 -7 34 -7 0 -20 4 -29 8 -15 6 -16 4 -5 -19z"/>
<path d="M1187 3747 c-7 -24 -44 -47 -75 -47 -9 0 -39 12 -67 25 -27 14 -56
25 -64 25 -17 0 -5 -15 12 -15 7 -1 11 -6 9 -13 -1 -7 1 -11 5 -10 5 1 24 -3
43 -10 28 -9 36 -18 38 -39 3 -33 12 -44 12 -14 0 12 8 24 18 27 60 20 105 65
85 85 -7 7 -12 3 -16 -14z"/>
<path d="M1220 3720 c0 -12 9 -22 24 -26 14 -3 32 -14 42 -25 21 -23 31 -24
51 -4 14 14 13 15 -13 10 -20 -5 -25 -4 -16 3 10 7 1 12 -32 21 -55 14 -61 26
-8 18 40 -7 25 6 -20 17 -24 5 -28 3 -28 -14z"/>
<path d="M937 3628 c-3 -10 4 -25 19 -39 13 -12 24 -17 24 -11 0 6 -5 14 -11
17 -6 4 -14 16 -18 28 -6 16 -9 17 -14 5z"/>
<path d="M2023 3607 c2 -20 -4 -22 -58 -27 l-60 -5 63 -23 c34 -13 72 -33 83
-45 19 -21 19 -22 2 -25 -28 -4 -98 21 -98 36 0 7 -12 19 -27 27 -24 12 -28
12 -28 -1 0 -8 -8 -14 -17 -14 -14 -1 -11 -6 11 -25 28 -22 122 -43 169 -36
10 1 17 -4 17 -13 0 -9 5 -16 10 -16 17 0 11 16 -26 71 l-36 54 33 -30 c34
-32 31 -17 -5 24 l-21 24 45 -6 c25 -3 56 -9 70 -12 22 -6 23 -5 6 6 -10 6
-45 22 -77 34 l-58 23 2 -21z"/>
<path d="M1165 3541 c3 -5 -4 -16 -15 -24 -13 -9 -18 -20 -14 -30 5 -13 11
-10 30 19 28 41 29 44 8 44 -8 0 -13 -4 -9 -9z"/>
<path d="M2326 3520 c6 -36 23 -65 32 -55 3 2 0 10 -5 17 -6 7 -15 27 -22 43
l-11 30 6 -35z"/>
<path d="M2180 3506 c9 -11 9 -16 1 -16 -9 0 -9 -5 -1 -20 11 -20 30 -19 30 1
0 6 -4 7 -10 4 -5 -3 -10 -2 -10 4 0 5 8 11 17 13 12 2 9 6 -12 16 -25 12 -27
11 -15 -2z"/>
<path d="M1810 3504 c0 -15 14 -28 50 -48 19 -10 43 -26 52 -34 10 -8 35 -16
55 -18 l38 -3 -45 25 c-25 14 -59 39 -76 56 -21 20 -34 26 -39 18 -5 -8 -10
-8 -21 1 -8 6 -14 8 -14 3z"/>
<path d="M1795 3470 c4 -14 15 -45 26 -68 11 -24 18 -49 16 -55 -3 -7 -12 5
-21 25 -9 20 -20 39 -26 43 -14 9 -12 -18 3 -34 10 -11 9 -13 -3 -9 -16 6 -43
-16 -33 -26 4 -3 2 -6 -4 -6 -6 0 -16 7 -23 15 -7 8 -16 12 -21 9 -5 -3 -18 0
-30 7 l-22 11 21 -35 c23 -36 28 -57 13 -57 -5 0 -14 14 -21 30 -7 17 -16 30
-21 30 -12 0 -11 -27 2 -53 9 -18 9 -20 -2 -9 -7 6 -19 12 -26 12 -10 0 -10
-6 3 -24 19 -30 29 -83 26 -130 -2 -17 -5 -16 -28 7 -28 28 -55 27 -47 -2 3
-11 12 -17 21 -15 23 5 77 -40 67 -56 -5 -8 -16 -3 -36 16 -33 32 -40 22 -8
-12 l22 -23 -24 -5 c-13 -3 -42 -7 -63 -8 -37 -3 -39 -1 -41 27 -1 17 2 41 5
55 l6 25 15 -29 c13 -28 55 -48 46 -23 -2 7 -9 12 -14 12 -6 0 -15 3 -19 8 -4
4 -2 7 4 7 21 0 -4 43 -26 45 -17 1 -22 -4 -22 -22 0 -13 -4 -22 -9 -19 -5 3
-7 20 -5 38 7 78 6 113 -6 193 -1 6 -10 -21 -20 -60 -19 -70 -19 -100 -1 -51
19 48 20 27 2 -26 -14 -43 -16 -70 -11 -139 4 -48 11 -93 16 -102 5 -8 38 -45
72 -81 56 -57 67 -65 90 -60 15 4 31 11 37 15 11 11 8 11 -32 0 -18 -5 -35 -6
-38 -1 -3 5 21 14 52 21 32 7 76 23 98 36 53 30 28 29 -41 -2 -73 -33 -123
-33 -159 1 l-29 26 35 29 c19 15 35 24 37 19 2 -4 12 -6 22 -3 16 4 20 0 20
-23 1 -25 2 -27 11 -11 8 14 19 17 44 13 28 -5 33 -3 29 9 -7 18 -21 19 -27 3
-4 -10 -6 -10 -6 0 -1 7 17 19 39 28 23 9 39 18 37 21 -7 6 -87 -28 -87 -38 0
-5 -7 -9 -15 -9 -8 0 -15 5 -15 10 0 6 -12 10 -27 10 -26 0 -26 0 -7 21 11 13
20 16 22 9 2 -6 13 2 23 19 10 17 26 31 34 31 9 0 13 4 10 10 -3 5 21 27 53
47 91 58 102 66 73 52 -21 -10 -23 -9 -19 8 3 12 -3 30 -14 44 -14 16 -18 18
-14 7 7 -23 -8 -23 -45 -1 -19 11 -29 26 -29 40 0 13 2 23 5 23 12 0 55 -24
55 -31 0 -5 7 -6 16 -2 8 3 25 -4 39 -17 l23 -22 21 21 c12 12 21 27 21 34 0
6 -9 1 -20 -13 l-20 -25 7 35 c3 19 7 36 9 38 1 2 -4 19 -12 38 -8 20 -10 34
-4 34 5 0 10 -4 10 -10 0 -12 55 -41 63 -34 3 3 11 -4 17 -16 13 -24 7 -52
-11 -48 -6 2 -13 -5 -14 -14 -2 -10 3 -18 10 -18 8 0 19 8 24 18 6 10 11 12
11 4 0 -9 5 -10 18 -4 9 5 22 8 28 5 5 -2 21 9 35 23 19 21 20 26 6 21 -10 -4
-16 -3 -13 1 3 5 7 24 10 43 3 19 3 28 0 21 -3 -6 -10 -10 -15 -6 -5 3 -9 0
-9 -6 0 -6 -13 -5 -36 5 -45 19 -55 19 -30 0 16 -12 17 -15 4 -15 -19 0 -85
44 -109 73 l-18 22 5 -25 c4 -20 0 -17 -21 15 -20 30 -25 34 -20 15z m209
-106 c9 -4 16 -17 16 -33 -1 -24 -2 -25 -14 -8 -13 16 -14 16 -21 -10 l-7 -28
-16 33 c-14 29 -14 34 -2 42 18 11 23 12 44 4z m-183 -47 c0 -20 1 -21 8 -3 9
23 21 8 16 -20 -2 -10 -4 -23 -4 -28 -1 -5 -11 4 -23 20 -13 16 -22 32 -20 36
1 5 -2 8 -8 8 -5 0 -10 7 -10 15 0 26 40 -2 41 -28z m-135 -62 c8 -8 34 -20
57 -26 50 -15 62 -23 52 -38 -4 -8 -16 -5 -36 9 -30 22 -37 14 -18 -21 8 -16
7 -25 -7 -40 -24 -26 -34 -24 -34 9 0 15 -4 32 -9 38 -11 10 -32 84 -24 84 2
0 11 -7 19 -15z m2 -115 c3 -40 -5 -49 -25 -29 -8 8 -8 19 0 40 15 39 21 37
25 -11z m-191 -62 c0 -7 2 -19 4 -27 2 -7 -2 -16 -8 -18 -9 -3 -13 6 -13 26 0
29 16 46 17 19z m113 -44 c0 -16 -35 -32 -47 -22 -21 17 -15 28 17 28 17 0 30
-3 30 -6z m-50 -48 c0 -6 -4 -5 -9 2 -6 10 -10 8 -16 -10 l-7 -23 -8 25 -8 25
-1 -25 -2 -25 -14 25 c-20 34 -18 43 5 37 11 -3 20 0 20 5 0 6 9 3 20 -7 11
-10 20 -23 20 -29z"/>
<path d="M1089 3443 c-8 -50 -6 -55 18 -50 21 4 27 -1 40 -32 9 -20 16 -42 16
-48 0 -7 4 -13 8 -13 4 0 6 11 5 25 -3 28 -37 95 -48 95 -3 0 -14 7 -22 16 -9
8 -17 12 -17 7z"/>
<path d="M1022 3343 c1 -51 -1 -95 -5 -99 -13 -13 -7 -23 9 -17 10 4 14 14 11
30 -2 13 -1 26 4 29 4 2 4 15 0 27 -5 12 -5 33 -1 47 4 15 1 35 -7 50 -12 22
-13 15 -11 -67z"/>
<path d="M2387 3411 c-3 -14 0 -24 9 -28 25 -9 16 -31 -11 -25 -19 3 -25 0
-25 -12 0 -10 4 -14 10 -11 5 3 22 -1 37 -8 24 -13 29 -13 40 2 10 13 10 9 1
-21 -6 -20 -18 -40 -26 -43 -23 -9 -82 14 -76 29 8 20 -23 27 -41 9 -9 -8 -19
-13 -22 -9 -3 3 -12 1 -20 -5 -7 -6 -13 -8 -13 -4 0 4 -7 2 -15 -5 -8 -6 -19
-9 -25 -5 -6 4 -10 -4 -10 -20 0 -18 4 -24 13 -18 6 4 17 8 22 9 6 0 16 2 23
2 7 1 10 7 7 12 -15 25 10 27 78 8 78 -22 116 -46 95 -60 -10 -6 -9 -8 3 -8 9
0 20 -7 23 -16 4 -9 9 -14 12 -11 3 3 -2 19 -10 36 -16 29 -15 32 5 48 11 10
27 30 35 45 17 32 50 28 67 -9 10 -23 35 -27 29 -4 -2 9 3 9 17 1 30 -16 44
-12 38 10 -3 11 -1 23 4 26 5 3 9 0 9 -7 0 -7 3 -9 7 -6 3 4 13 1 21 -6 12 -9
16 -9 19 1 3 6 10 12 17 12 7 0 20 8 29 18 19 21 24 43 6 25 -8 -8 -19 -9 -37
-2 -20 8 -23 7 -14 -3 8 -10 0 -14 -36 -16 -26 -1 -55 -5 -65 -8 -15 -5 -18
-2 -13 14 5 14 1 21 -13 25 -24 6 -46 -7 -36 -23 5 -8 0 -7 -14 2 -16 9 -18
14 -7 16 15 3 30 42 15 42 -5 0 -9 -7 -9 -16 0 -8 -4 -13 -9 -10 -11 7 -34
-20 -27 -32 3 -6 -16 2 -44 17 -27 14 -53 35 -58 46 -8 18 -9 18 -15 -4z"/>
<path d="M2760 3405 c-6 -8 -10 -21 -8 -29 3 -13 6 -13 23 1 14 11 16 17 7 20
-6 3 -10 9 -6 14 8 14 -2 10 -16 -6z"/>
<path d="M1072 3324 c14 -4 17 -13 13 -41 -3 -28 -1 -34 10 -29 8 3 15 1 15
-4 0 -6 -4 -10 -10 -10 -5 0 -10 -5 -10 -12 0 -8 5 -7 15 3 13 13 14 20 2 55
-9 25 -21 40 -33 41 -16 2 -16 1 -2 -3z"/>
<path d="M1175 3241 c2 -36 0 -48 -9 -45 -7 3 -13 -2 -13 -10 0 -23 20 -14 45
21 26 37 28 53 7 53 -8 0 -15 7 -15 15 0 8 -4 15 -9 15 -5 0 -8 -22 -6 -49z"/>
<path d="M2065 3260 c10 -11 15 -23 12 -27 -4 -3 -7 0 -7 7 0 11 -3 11 -11 3
-7 -7 -9 -19 -6 -27 6 -15 9 -14 27 1 11 10 20 22 20 27 0 5 8 15 18 22 15 12
15 13 0 14 -9 0 -18 -6 -21 -12 -4 -10 -7 -10 -18 0 -22 20 -34 14 -14 -8z"/>
<path d="M1595 3262 c-6 -4 -15 -18 -21 -32 -9 -20 -8 -28 3 -39 13 -12 14
-11 9 10 -7 23 -6 23 8 5 9 -11 16 -23 16 -26 0 -4 7 -7 14 -7 12 0 11 6 -5
28 -24 34 -26 57 -4 39 22 -18 29 -6 7 13 -9 9 -22 13 -27 9z"/>
<path d="M1251 3215 l-2 -30 -13 24 c-24 43 -25 7 -1 -44 12 -28 28 -77 36
-110 20 -95 21 -41 0 80 -10 61 -19 97 -20 80z"/>
<path d="M1342 3210 c1 -16 5 -30 11 -30 5 0 3 -8 -4 -17 -13 -16 -12 -17 3
-5 9 7 15 21 13 30 -2 9 -4 25 -4 35 -1 9 -5 17 -10 17 -5 0 -9 -13 -9 -30z"/>
<path d="M2011 3199 c-15 -12 -18 -19 -9 -19 8 0 15 -7 15 -15 0 -12 -4 -12
-16 -3 -9 7 -22 19 -28 27 -23 27 -15 -13 8 -43 11 -14 16 -26 11 -26 -6 0
-12 -7 -16 -15 -4 -11 0 -14 17 -11 12 3 33 5 46 5 24 1 24 1 6 22 -16 16 -17
25 -8 48 15 40 3 53 -26 30z"/>
<path d="M1900 3163 c0 -6 7 -18 15 -26 8 -8 11 -18 7 -22 -4 -5 -2 -5 5 -2 6
4 13 2 15 -4 2 -7 10 -4 18 7 11 13 12 16 1 10 -9 -6 -21 1 -37 20 -13 16 -23
24 -24 17z"/>
<path d="M2476 3126 c-4 -20 -4 -41 0 -47 3 -6 -4 -24 -16 -41 l-22 -29 28
-40 c15 -22 36 -46 46 -53 11 -8 16 -20 12 -30 -3 -9 0 -24 7 -33 10 -11 10
-14 2 -9 -9 5 -11 2 -7 -8 3 -9 10 -16 15 -16 5 0 9 -9 9 -20 0 -12 -7 -20
-16 -20 -13 0 -14 -3 -5 -14 7 -8 21 -12 31 -9 16 4 23 -2 31 -27 9 -23 14
-28 20 -18 15 24 10 -14 -6 -45 -13 -26 -13 -28 4 -22 24 7 51 -4 51 -21 0 -8
7 -17 15 -20 8 -4 15 -14 15 -23 0 -13 -2 -13 -9 -2 -7 11 -10 9 -16 -8 -8
-27 -3 -34 18 -26 22 9 28 53 8 65 -14 8 -14 9 2 10 9 0 17 5 17 11 0 6 -9 8
-21 4 -14 -5 -20 -3 -18 7 4 34 0 41 -18 27 -14 -12 -15 -12 -9 0 5 7 5 16 0
20 -12 8 -29 37 -50 81 -9 19 -21 45 -26 57 -6 11 -7 26 -4 32 4 6 0 14 -8 17
-9 3 -16 14 -16 23 0 9 -11 38 -24 64 -14 27 -22 55 -19 63 4 12 38 20 66 15
57 -9 97 -22 97 -31 0 -5 7 -16 16 -25 12 -12 13 -19 5 -29 -9 -11 -8 -17 2
-28 13 -12 18 -52 18 -120 0 -14 9 -18 35 -18 19 0 34 -4 34 -10 0 -5 -18 -9
-40 -8 -22 1 -40 6 -40 12 0 8 -2 8 -8 0 -4 -6 -14 -14 -22 -17 -10 -4 -8 -6
7 -6 12 -1 29 -11 37 -23 9 -12 19 -19 22 -15 4 4 2 13 -5 21 -10 11 -5 14 29
18 36 3 40 1 40 -19 0 -13 5 -23 10 -23 15 0 12 23 -7 49 -16 24 -16 24 6 18
18 -4 20 -3 11 8 -7 9 -24 11 -50 8 -33 -5 -40 -3 -40 11 0 19 4 20 33 4 20
-10 21 -10 8 5 -7 10 -21 17 -31 17 -9 0 -17 7 -17 15 0 8 6 15 13 15 7 0 19
10 25 23 9 18 9 20 -2 10 -7 -7 -19 -13 -27 -13 -12 0 -12 3 -2 15 11 13 10
18 -5 29 -14 10 -17 21 -12 44 5 24 3 32 -8 32 -7 0 -17 5 -21 12 -4 7 -3 8 4
4 7 -4 12 -3 12 3 0 5 -4 13 -10 16 -5 3 -10 1 -10 -4 0 -17 -17 -13 -24 5 -3
8 -2 12 4 9 6 -3 10 1 10 10 0 10 5 13 12 9 7 -4 8 -3 4 5 -5 8 -12 9 -20 2
-13 -11 -76 -12 -76 -1 0 4 -11 5 -25 2 -14 -2 -25 0 -23 4 2 5 -3 16 -10 24
-7 8 -19 24 -26 34 -12 18 -14 17 -20 -18z"/>
<path d="M1955 3071 c-3 -5 3 -12 14 -16 11 -3 25 -13 33 -22 11 -15 10 -16
-9 -11 -13 4 -23 2 -23 -3 0 -5 6 -9 14 -9 7 0 26 -6 41 -14 15 -8 42 -13 60
-11 26 2 35 -2 43 -19 l11 -21 0 23 c1 12 1 25 0 28 -2 13 26 23 46 18 20 -5
20 -5 1 10 -11 9 -30 16 -43 16 -21 0 -22 3 -13 20 10 18 9 19 -15 8 -14 -6
-25 -20 -25 -30 0 -11 3 -17 8 -15 4 3 13 -1 20 -9 11 -12 8 -14 -18 -14 -22
0 -30 5 -30 18 -1 15 -2 15 -15 -2 -14 -18 -20 -15 -15 9 1 6 -2 7 -6 3 -4 -4
-20 6 -36 22 -31 33 -34 34 -43 21z"/>
<path d="M1304 3019 c1 -19 8 -44 15 -55 10 -16 11 -14 5 16 -11 56 -24 82
-20 39z"/>
<path d="M1787 3038 c-7 -5 10 -6 38 -2 28 4 52 8 55 11 9 8 -80 -1 -93 -9z"/>
<path d="M2219 3024 c-12 -15 -11 -16 11 -9 14 4 27 7 30 7 48 1 59 -3 57 -22
-1 -15 -8 -20 -29 -20 -16 0 -31 7 -34 15 -10 26 -20 17 -21 -17 0 -18 -3 -47
-7 -64 -7 -28 -5 -32 18 -36 31 -6 35 7 5 15 -19 5 -19 7 -5 35 18 35 29 40
76 32 28 -4 35 -9 33 -26 -2 -21 32 -62 42 -52 10 10 -29 77 -48 84 -13 4 -17
14 -15 32 2 21 -2 27 -22 33 -44 12 -77 10 -91 -7z"/>
<path d="M1057 2989 c-9 -5 -22 -7 -28 -4 -6 4 -13 -2 -16 -14 -3 -12 -9 -21
-14 -21 -5 0 -9 -7 -9 -15 0 -8 6 -15 13 -15 8 0 19 -11 25 -25 6 -14 16 -25
22 -25 14 0 13 9 -5 26 -19 20 -20 74 -1 74 7 0 19 7 26 15 14 17 12 18 -13 4z"/>
<path d="M1815 2990 c-18 -8 -18 -9 5 -8 14 0 39 4 55 8 l30 8 -35 0 c-19 0
-44 -3 -55 -8z"/>
<path d="M1083 2972 c-12 -7 -6 -62 7 -62 4 0 5 12 2 26 -3 16 1 30 9 35 8 5
10 9 4 9 -5 0 -15 -4 -22 -8z"/>
<path d="M1910 2947 c0 -14 22 -37 50 -52 8 -5 4 4 -10 19 -14 15 -24 31 -22
34 2 4 -1 8 -7 10 -6 2 -11 -3 -11 -11z"/>
<path d="M2090 2936 c0 -9 6 -13 14 -10 8 3 17 1 21 -5 9 -16 35 -13 35 3 0 8
-8 14 -17 14 -10 0 -26 3 -35 7 -13 5 -18 3 -18 -9z"/>
<path d="M1097 2893 c-2 -5 -16 -29 -32 -55 -22 -39 -24 -48 -11 -48 9 0 15 3
15 8 -3 18 3 31 26 56 13 14 19 26 14 26 -6 0 -7 5 -4 10 3 6 4 10 1 10 -3 0
-7 -3 -9 -7z"/>
<path d="M1172 2879 c-10 -16 -10 -24 -1 -35 15 -18 39 -18 39 1 0 8 -7 15
-16 15 -11 0 -14 6 -9 20 8 26 3 25 -13 -1z"/>
<path d="M1130 2863 c-1 -24 -25 -55 -35 -45 -5 4 -5 1 -1 -5 4 -7 2 -13 -5
-13 -7 0 -5 -9 6 -26 14 -22 15 -28 4 -36 -11 -8 -11 -9 1 -5 10 2 15 16 15
38 0 19 8 47 18 61 19 31 22 48 7 48 -5 0 -10 -8 -10 -17z"/>
<path d="M1710 2870 c-8 -6 -13 -10 -10 -10 49 -5 88 -14 98 -22 8 -7 12 -7
12 1 0 13 -41 31 -53 24 -4 -3 -13 0 -20 6 -8 6 -18 6 -27 1z"/>
<path d="M2326 2857 c3 -9 12 -13 20 -10 10 3 12 0 8 -10 -6 -16 13 -34 24
-22 3 3 0 10 -8 15 -12 8 -10 10 8 10 17 0 22 -6 22 -27 0 -22 2 -25 10 -13 6
10 10 11 10 3 0 -7 4 -13 10 -13 5 0 7 7 4 15 -4 10 0 15 12 15 17 0 16 1 -1
14 -11 8 -24 12 -29 9 -5 -4 -6 -1 -2 5 3 6 2 13 -4 17 -5 3 -10 0 -10 -7 0
-9 -3 -9 -10 2 -7 12 -10 12 -10 1 0 -8 -6 -11 -15 -7 -8 3 -22 9 -30 12 -11
4 -13 2 -9 -9z"/>
<path d="M960 2805 c0 -8 5 -15 11 -15 6 0 9 -10 7 -23 -3 -15 0 -24 8 -24 7
0 11 4 8 9 -3 4 0 8 5 8 6 0 11 -9 11 -20 0 -11 7 -20 15 -20 7 0 18 -7 23
-17 9 -14 11 -14 21 5 11 21 8 26 -12 23 -11 -2 -37 25 -37 37 0 5 -10 12 -21
15 -15 4 -20 11 -16 21 4 10 1 16 -8 16 -8 0 -15 -7 -15 -15z"/>
<path d="M1840 2819 c0 -13 32 -69 41 -69 12 0 11 8 -1 23 -6 7 -17 21 -25 32
-8 11 -15 17 -15 14z"/>
<path d="M2315 2770 c10 -11 23 -20 29 -20 15 0 68 -49 62 -58 -2 -4 25 -8 60
-9 70 -1 76 5 46 48 -21 32 -41 28 -34 -7 5 -28 -13 -30 -36 -4 -8 8 -11 10
-8 4 13 -26 -22 -20 -38 6 -9 17 -28 31 -46 35 -17 4 -30 11 -30 16 0 5 -5 9
-12 9 -6 0 -3 -9 7 -20z"/>
<path d="M2217 2763 c-4 -3 1 -15 10 -26 10 -11 18 -27 19 -36 3 -47 7 -52 14
-16 5 24 4 45 -2 52 -5 7 -7 17 -3 23 3 5 1 10 -4 10 -6 0 -11 -6 -11 -12 0
-10 -2 -10 -8 0 -5 7 -11 9 -15 5z"/>
<path d="M2106 2738 c-7 -13 -18 -32 -24 -43 -8 -14 -12 -16 -12 -5 0 9 -6 5
-15 -10 -19 -34 -18 -52 1 -20 l15 25 -7 -30 c-4 -16 -7 -40 -7 -52 1 -14 -3
-20 -10 -16 -6 3 -7 1 -3 -5 11 -18 22 -14 34 13 6 14 27 33 47 42 27 13 35
22 34 42 -1 18 -3 20 -6 8 -4 -17 -73 -70 -81 -62 -7 7 19 75 29 75 5 0 9 7 9
16 0 14 3 14 15 4 21 -17 30 -6 11 13 -8 8 -12 17 -9 21 4 3 3 6 0 6 -4 0 -13
-10 -21 -22z"/>
<path d="M1690 2672 c0 -4 20 -39 45 -76 25 -38 45 -63 45 -56 0 12 -79 140
-86 140 -2 0 -4 -4 -4 -8z"/>
<path d="M2355 2670 c-20 -8 -18 -11 8 -14 7 -1 12 -15 12 -32 0 -21 4 -30 12
-27 17 7 28 -26 14 -40 -18 -18 -13 -28 13 -21 30 7 38 -11 42 -91 1 -33 5
-70 9 -82 7 -22 4 -23 -37 -23 -24 0 -49 5 -56 12 -9 9 -12 9 -12 0 0 -15 76
-35 106 -28 21 6 23 11 17 34 -7 31 -7 29 2 105 7 48 5 57 -8 57 -19 0 -29 25
-21 57 6 22 4 24 -14 19 -17 -6 -25 0 -41 32 -11 22 -17 42 -14 46 9 8 -8 6
-32 -4z"/>
<path d="M1485 2630 c-11 -5 -14 -9 -7 -9 6 -1 12 -7 12 -14 0 -7 16 -27 35
-45 28 -27 34 -38 30 -65 -4 -28 -4 -29 4 -7 8 23 9 24 10 3 1 -15 7 -21 21
-20 22 1 28 17 6 17 -7 0 -19 15 -26 33 -8 17 -26 44 -42 59 -17 16 -26 33
-22 42 7 18 7 18 -21 6z"/>
<path d="M778 2607 c-24 -19 -23 -30 1 -17 24 12 69 13 107 1 52 -17 102 -20
107 -8 3 8 -11 12 -42 12 -25 0 -49 4 -52 9 -12 16 -103 18 -121 3z"/>
<path d="M2317 2579 c-3 -12 -10 -18 -16 -14 -8 4 -8 -2 0 -22 5 -15 8 -38 4
-50 -3 -13 -1 -23 4 -23 5 0 12 8 14 18 4 16 5 16 6 0 1 -24 21 -23 21 1 0 30
-11 51 -26 51 -8 0 -14 5 -14 11 0 6 6 9 13 6 10 -4 13 2 9 19 -5 29 -8 30
-15 3z"/>
<path d="M1005 2580 c-4 -6 -21 -17 -38 -24 -24 -11 -27 -15 -12 -15 11 -1 34
10 50 24 17 13 25 24 18 25 -6 0 -15 -5 -18 -10z"/>
<path d="M2211 2553 c-5 -10 -13 -17 -18 -15 -4 2 -9 -2 -12 -9 -2 -7 1 -9 9
-4 9 6 9 2 -1 -16 -7 -13 -11 -26 -10 -29 1 -3 -8 -8 -21 -12 -22 -6 -21 -6 5
-7 15 -1 27 -6 27 -12 0 -5 -4 -7 -10 -4 -5 3 -10 1 -10 -4 0 -6 4 -11 9 -11
5 0 14 -14 20 -32 9 -24 8 -33 -1 -39 -9 -6 -9 -9 3 -14 12 -4 15 -26 14 -110
0 -60 3 -98 8 -89 4 8 12 12 17 9 5 -3 7 5 4 17 -3 13 -6 56 -8 96 -2 56 0 72
11 72 19 0 67 -25 82 -44 8 -9 18 -16 24 -16 6 0 2 7 -9 16 -19 15 -19 15 1
10 103 -26 101 -17 -6 20 -79 28 -80 28 -54 42 38 20 23 27 -16 8 -36 -18 -54
-7 -43 26 3 10 -2 28 -10 40 -21 30 -20 50 4 81 11 14 20 30 20 36 0 17 -18
13 -29 -6z"/>
<path d="M2355 2551 c-3 -5 -1 -12 4 -15 5 -4 5 -21 0 -43 -6 -25 -5 -48 2
-65 10 -24 14 -26 33 -17 19 9 19 8 -3 -10 -13 -12 -19 -21 -13 -21 6 0 17 -3
26 -6 18 -7 17 13 -10 114 -18 69 -26 83 -39 63z"/>
<path d="M1406 2536 c3 -8 12 -12 19 -10 7 3 20 -4 28 -16 l15 -22 7 22 c8 25
-2 41 -14 22 -6 -10 -11 -10 -21 3 -16 19 -41 20 -34 1z"/>
<path d="M2665 2528 c-11 -6 -21 -12 -23 -14 -2 -1 1 -11 7 -22 5 -10 13 -32
16 -48 3 -16 7 -36 9 -44 2 -8 -1 -21 -7 -28 -7 -9 -6 -11 7 -6 9 3 16 11 15
18 -1 6 1 19 6 29 4 9 3 23 -2 30 -14 17 -24 49 -14 43 4 -3 8 8 7 24 -1 17
-1 30 -1 30 0 0 -9 -6 -20 -12z"/>
<path d="M611 2499 c-1 -19 6 -44 14 -55 13 -18 14 -18 8 6 -6 24 -5 24 13 8
11 -9 40 -19 64 -22 l45 -6 -46 14 c-61 18 -67 22 -83 59 l-14 32 -1 -36z"/>
<path d="M938 2523 c-10 -2 -18 -11 -18 -20 0 -8 5 -12 13 -9 6 3 20 9 30 12
9 4 17 10 17 15 0 9 -13 10 -42 2z"/>
<path d="M2076 2514 c-10 -26 -7 -44 7 -39 6 3 12 16 12 30 0 28 -10 33 -19 9z"/>
<path d="M2565 2435 c9 -31 9 -47 2 -54 -8 -8 -6 -11 5 -11 9 0 18 3 21 8 2 4
2 2 1 -5 -2 -6 3 -13 9 -16 7 -3 13 7 14 24 1 16 -2 29 -7 29 -6 0 -9 3 -8 8
5 17 -14 50 -32 55 -17 4 -18 2 -5 -38z"/>
<path d="M1768 2461 c-2 -3 -38 -24 -81 -46 -79 -40 -150 -100 -144 -119 2 -6
12 -12 23 -13 16 -2 16 -1 1 3 -9 3 -15 10 -11 15 3 5 11 6 17 3 7 -4 9 -3 4
1 -7 8 40 65 53 65 4 0 3 -24 -1 -52 -12 -75 -18 -197 -10 -202 3 -2 7 10 8
27 1 18 7 76 14 130 11 95 12 98 48 125 77 60 160 62 162 4 l1 -27 8 25 c4 16
3 30 -5 38 -14 15 -82 33 -87 23z"/>
<path d="M1427 2443 c-8 -14 1 -67 12 -71 6 -2 11 -11 12 -20 0 -11 2 -13 6
-4 3 7 0 19 -6 26 -7 8 -13 28 -14 45 -2 33 -3 35 -10 24z"/>
<path d="M2145 2400 c6 -18 4 -19 -20 -10 -35 13 -40 13 -26 -3 6 -8 7 -18 3
-23 -4 -4 2 -2 12 6 13 10 17 10 12 3 -5 -9 1 -13 19 -13 21 0 26 4 21 16 -3
9 -6 22 -6 30 0 8 -5 14 -11 14 -6 0 -8 -9 -4 -20z"/>
<path d="M2510 2351 c0 -11 70 -22 84 -14 6 4 0 10 -14 14 -36 10 -70 10 -70
0z"/>
<path d="M1860 2262 c0 -45 4 -82 9 -82 9 0 3 149 -5 159 -2 2 -4 -32 -4 -77z"/>
<path d="M2481 2304 c-1 -17 -6 -21 -28 -18 -19 2 -16 0 9 -7 39 -11 57 -37
36 -50 -10 -6 -10 -11 -1 -20 8 -8 13 -3 18 22 6 26 3 35 -11 46 -11 8 -18 16
-16 19 2 2 1 10 -1 17 -3 6 -6 2 -6 -9z"/>
<path d="M2695 2310 c-4 -6 -22 -17 -41 -25 -19 -8 -34 -19 -34 -26 0 -8 6 -6
18 4 20 19 37 23 27 7 -11 -18 0 -10 28 20 16 17 24 30 18 30 -5 0 -13 -5 -16
-10z"/>
<path d="M1516 2302 c-3 -6 -1 -12 5 -14 7 -2 1 -16 -13 -33 -14 -17 -33 -45
-42 -63 -10 -19 -21 -30 -28 -26 -8 5 -9 1 -5 -10 4 -9 -1 -35 -10 -58 -12
-30 -13 -43 -5 -46 9 -3 9 -9 0 -25 -6 -12 -10 -23 -9 -25 2 -2 -17 -28 -41
-58 -45 -57 -66 -103 -67 -144 0 -16 6 -7 16 24 13 46 40 89 93 156 20 25 25
41 36 110 9 57 15 72 56 133 28 42 36 62 30 73 -6 10 -12 13 -16 6z"/>
<path d="M2283 2283 c8 -16 13 -37 11 -47 -1 -11 4 -32 12 -47 13 -25 12 -28
-1 -23 -8 4 -15 1 -15 -5 0 -10 30 -27 53 -30 4 0 20 -7 37 -16 33 -17 100
-20 100 -4 0 7 -11 8 -29 4 -30 -6 -102 22 -117 46 -4 7 -8 36 -9 66 -2 39 -8
58 -21 68 -29 22 -36 18 -21 -12z"/>
<path d="M2060 2283 c1 -5 24 -26 52 -48 62 -48 78 -58 84 -52 3 3 -27 28 -65
56 -39 28 -71 48 -71 44z"/>
<path d="M2572 2277 c-19 -23 -4 -54 24 -51 18 2 28 -4 34 -19 l9 -22 0 21 c1
20 -23 40 -41 36 -13 -3 -9 16 5 21 6 3 3 6 -8 7 -17 2 -16 3 5 10 22 7 23 8
4 9 -12 1 -26 -5 -32 -12z"/>
<path d="M2384 2271 c4 -6 15 -11 24 -11 10 0 23 -9 30 -20 7 -11 19 -20 27
-20 23 0 -27 48 -59 56 -21 5 -27 4 -22 -5z"/>
<path d="M1545 2233 c-4 -21 -13 -60 -22 -86 -8 -27 -13 -51 -10 -53 5 -6 57
143 57 164 0 28 -20 9 -25 -25z"/>
<path d="M2040 2244 c0 -11 11 -31 25 -44 14 -13 25 -19 25 -14 0 5 26 -19 58
-53 44 -49 60 -61 72 -53 12 8 11 10 -7 10 -13 0 -23 4 -23 8 0 4 -34 43 -75
87 -57 62 -74 75 -75 59z"/>
<path d="M1357 2205 c-20 -24 -37 -52 -37 -63 0 -11 -9 -31 -20 -45 -13 -16
-16 -28 -10 -32 6 -4 22 19 37 52 14 32 37 73 51 91 38 50 21 48 -21 -3z"/>
<path d="M2358 2218 c6 -40 19 -43 20 -4 1 20 -3 33 -11 33 -9 0 -12 -10 -9
-29z"/>
<path d="M1480 2038 c-11 -25 -30 -55 -41 -67 -11 -12 -18 -25 -15 -30 3 -5
-9 -31 -27 -57 -47 -69 -52 -78 -39 -70 31 19 162 250 149 262 -3 4 -15 -14
-27 -38z"/>
<path d="M514 2015 c-4 -8 -10 -12 -15 -9 -5 3 -6 -2 -3 -10 3 -9 10 -13 15
-10 5 3 9 -4 9 -16 0 -12 5 -18 10 -15 6 3 10 1 10 -6 0 -7 3 -10 6 -6 3 3 -1
20 -10 38 -9 17 -13 35 -10 40 3 5 3 9 -1 9 -3 0 -8 -7 -11 -15z"/>
<path d="M871 2008 c-1 -29 27 -98 40 -98 4 0 -1 21 -11 48 -9 26 -20 54 -23
62 -3 9 -6 3 -6 -12z"/>
<path d="M707 1944 c7 -18 -17 -124 -27 -124 -4 0 -7 -19 -7 -42 -1 -42 0 -41
22 27 33 103 39 141 21 148 -10 4 -13 1 -9 -9z"/>
<path d="M2635 1930 c-11 -5 -14 -9 -7 -9 6 -1 12 -11 13 -23 0 -22 1 -22 10
-3 7 15 8 10 5 -20 -3 -25 -2 -34 3 -25 9 15 14 52 12 78 -1 14 -8 14 -36 2z"/>
<path d="M845 1895 c26 -197 40 -256 64 -276 12 -10 21 -23 21 -31 0 -8 5 -6
11 5 9 15 7 23 -9 37 -11 10 -22 17 -24 14 -8 -7 -47 193 -42 213 3 12 -1 34
-10 49 l-16 29 5 -40z"/>
<path d="M1337 1843 c-8 -15 -18 -53 -21 -83 l-7 -55 21 44 c23 49 24 55 9 46
-5 -4 -3 10 6 31 18 44 13 58 -8 17z"/>
<path d="M1851 1789 c0 -35 4 -73 9 -84 5 -12 6 12 3 60 -7 98 -13 110 -12 24z"/>
<path d="M1450 1811 c0 -31 -11 -51 -24 -44 -6 3 -8 3 -4 -2 4 -4 3 -14 -3
-21 -7 -8 -7 -14 1 -19 5 -3 10 -1 10 4 0 6 6 11 13 11 7 0 13 17 15 45 1 25
0 45 -3 45 -3 0 -5 -9 -5 -19z"/>
<path d="M1601 1778 c-7 -16 -5 -26 5 -34 7 -6 10 -15 6 -19 -4 -5 -2 -5 5 -1
8 4 9 16 3 35 -4 16 -6 32 -2 35 3 3 2 6 -2 6 -3 0 -11 -10 -15 -22z"/>
<path d="M751 1731 c16 -34 29 -67 29 -75 0 -8 4 -17 9 -20 15 -10 0 65 -22
107 -35 64 -47 54 -16 -12z"/>
<path d="M1291 1752 c-1 -16 -5 -21 -13 -16 -10 6 -10 5 -1 -8 7 -8 10 -18 6
-21 -3 -4 -1 -7 5 -7 7 0 12 -7 12 -17 0 -9 2 -14 4 -12 3 3 1 27 -3 54 -5 28
-9 40 -10 27z"/>
<path d="M2385 1760 c-3 -6 -3 -15 1 -21 5 -8 9 -8 14 1 6 9 14 8 34 -5 24
-16 30 -29 27 -65 0 -10 1 -11 5 -2 3 6 12 12 19 12 7 0 15 9 18 21 5 20 5 20
-14 3 -20 -18 -20 -18 -10 10 7 16 7 25 1 21 -5 -3 -27 3 -49 15 -24 12 -42
16 -46 10z"/>
<path d="M656 1704 c-6 -15 -36 -141 -36 -150 0 -3 5 -2 10 1 6 3 10 17 10 30
0 14 9 47 19 75 11 27 15 52 11 55 -4 3 -11 -2 -14 -11z"/>
<path d="M1375 1653 c-10 -21 -20 -41 -22 -45 -2 -5 0 -8 5 -8 4 0 16 16 25
35 9 19 21 35 27 35 5 0 10 5 10 10 0 24 -29 7 -45 -27z"/>
<path d="M2298 1603 c5 -10 19 -42 32 -71 12 -29 25 -51 27 -48 6 6 -51 136
-59 136 -4 0 -4 -8 0 -17z"/>
<path d="M954 1587 c3 -10 6 -23 6 -29 0 -6 7 -8 14 -5 11 4 13 1 9 -11 -3 -9
-3 -14 2 -10 4 4 14 0 21 -10 8 -10 7 0 -4 25 -9 23 -19 38 -21 32 -1 -6 -10
-2 -18 8 -14 17 -14 17 -9 0z"/>
<path d="M1329 1564 c-5 -15 -12 -31 -16 -37 -3 -6 -1 -7 6 -3 17 11 43 66 31
66 -6 0 -15 -12 -21 -26z"/>
<path d="M1614 1563 c-10 -15 -15 -16 -33 -5 -12 7 -21 8 -21 2 0 -5 0 -13 0
-17 0 -5 9 -9 21 -9 37 -2 43 -19 25 -65 -12 -31 -14 -44 -6 -49 8 -5 7 -9 -4
-13 -9 -4 -13 -13 -10 -22 3 -8 3 -15 0 -15 -12 0 -55 43 -51 51 3 4 -4 23
-15 42 l-21 35 23 16 c17 12 18 16 6 16 -9 0 -18 -7 -22 -15 -3 -8 -12 -15
-21 -15 -9 0 -15 -9 -15 -25 0 -14 6 -25 13 -25 19 0 60 -59 60 -87 0 -17 3
-21 10 -14 6 6 16 7 27 1 24 -13 56 26 52 62 -2 16 4 31 15 40 10 7 18 25 18
40 0 17 -3 24 -9 18 -14 -14 -23 -12 -30 6 -5 14 -4 15 8 5 11 -9 15 -8 19 4
4 8 3 14 -1 14 -24 -4 -33 3 -27 21 8 25 4 26 -11 3z"/>
<path d="M1699 1575 c-6 -23 0 -31 26 -40 24 -8 30 -16 30 -40 0 -19 -5 -30
-14 -30 -8 0 -16 -6 -19 -14 -3 -8 0 -11 6 -7 6 4 16 -4 23 -16 7 -13 15 -25
20 -28 13 -9 22 -60 10 -60 -6 0 -8 -7 -4 -17 5 -12 3 -14 -7 -8 -10 6 -12 3
-8 -12 4 -16 -2 -23 -31 -33 -20 -7 -43 -18 -51 -25 -8 -7 -25 -16 -38 -20
-44 -13 -137 -71 -138 -85 -2 -33 -4 -40 -12 -38 -4 2 -18 -7 -31 -19 -13 -12
-28 -20 -33 -17 -4 3 -8 1 -8 -4 0 -6 -7 -9 -17 -8 -19 1 -48 -60 -33 -69 6
-3 10 3 10 14 0 12 5 21 10 21 19 0 90 53 90 67 0 8 4 12 9 9 5 -3 18 9 28 27
20 32 102 79 233 134 30 12 49 23 42 23 -8 0 -10 5 -5 13 8 11 12 149 4 142
-2 -2 -9 1 -16 8 -9 9 -9 16 -1 29 14 22 -19 89 -40 81 -20 -7 -39 7 -23 18
10 6 11 9 2 9 -7 0 -14 -2 -14 -5z"/>
<path d="M393 1527 c-12 -26 -12 -27 17 -27 17 0 29 -3 29 -7 -4 -26 3 -35 11
-15 11 26 23 28 43 7 8 -8 18 -11 22 -7 9 8 1 -45 -10 -70 -5 -13 -3 -18 8
-18 8 0 15 10 16 25 3 48 4 55 13 55 4 0 8 4 8 10 0 5 -7 7 -15 4 -8 -4 -15
-1 -15 7 0 7 -3 10 -6 6 -9 -9 -32 16 -27 29 2 7 -1 15 -8 20 -7 4 -10 3 -6
-3 9 -14 -12 -29 -40 -31 -15 0 -23 6 -25 21 -3 20 -4 19 -15 -6z"/>
<path d="M1430 1479 c0 -6 -6 -9 -13 -6 -8 3 -14 -1 -14 -9 0 -7 7 -16 15 -19
19 -7 47 19 38 34 -9 14 -26 14 -26 0z"/>
<path d="M1065 1470 c-4 -7 21 -19 48 -24 4 0 28 -23 54 -51 50 -55 48 -43 -3
20 -32 39 -89 71 -99 55z"/>
<path d="M1373 1460 c6 -20 -13 -36 -40 -34 -12 1 -20 -3 -17 -8 3 -4 10 -6
15 -2 5 3 16 1 23 -5 18 -15 39 29 24 50 -8 12 -9 12 -5 -1z"/>
<path d="M485 1373 c16 -38 17 -67 5 -119 -8 -32 -19 -54 -27 -54 -17 0 -17
-86 1 -119 l13 -24 12 35 c7 20 9 47 6 61 -8 30 19 97 38 97 38 0 77 -14 77
-27 0 -8 5 -23 11 -34 10 -19 12 -19 28 -5 10 9 21 13 26 9 4 -5 6 -1 3 7 -3
8 -13 15 -23 15 -12 0 -21 9 -25 25 -5 22 -11 25 -52 25 -25 0 -50 4 -55 9 -5
5 -2 6 6 1 8 -4 17 -2 22 6 14 22 10 31 -10 24 -13 -4 -20 0 -24 15 -3 13 0
20 8 20 7 0 12 8 11 18 -2 9 -8 17 -14 17 -6 0 -14 3 -18 8 -14 14 -26 7 -19
-10z"/>
<path d="M654 1353 c2 -11 16 -20 37 -25 44 -8 49 -3 10 10 -17 6 -31 16 -31
21 0 6 -4 11 -9 11 -5 0 -8 -8 -7 -17z"/>
<path d="M1018 1335 c14 -28 72 -100 72 -89 0 5 5 2 10 -6 6 -9 10 -10 10 -3
0 19 -12 43 -21 43 -5 0 -25 17 -45 38 -19 20 -31 28 -26 17z"/>
<path d="M735 1280 c-4 -6 -15 -8 -26 -5 -17 6 -17 3 -8 -24 6 -17 16 -34 22
-38 6 -3 7 -1 3 5 -4 6 0 25 9 42 14 28 14 43 0 20z"/>
<path d="M1187 1263 c-4 -3 -7 -15 -7 -25 0 -10 -5 -18 -11 -18 -5 0 -7 -5 -3
-12 5 -8 11 -6 19 5 7 9 16 13 21 9 4 -4 2 1 -5 10 -7 9 -10 22 -6 28 7 11 2
14 -8 3z"/>
<path d="M1516 1246 c-10 -16 -13 -25 -7 -21 7 4 18 2 26 -5 9 -8 15 -8 20 0
3 6 11 8 16 5 5 -4 9 -2 9 4 0 17 -22 24 -30 11 -6 -9 -9 -6 -12 11 l-3 23
-19 -28z"/>
<path d="M2400 1250 c-14 -10 -21 -22 -17 -26 4 -4 20 4 35 19 31 31 19 36
-18 7z"/>
<path d="M690 1183 c0 -8 9 -17 20 -20 11 -3 20 -10 20 -16 0 -7 4 -7 12 1 10
10 10 15 -1 21 -7 5 -11 13 -8 17 3 5 -6 10 -19 10 -15 1 -24 -4 -24 -13z"/>
<path d="M327 1035 c-4 -61 -5 -144 -3 -185 2 -41 2 -60 -1 -42 -2 17 -8 32
-13 32 -5 0 -11 24 -13 53 -2 28 -2 -12 0 -89 4 -138 4 -143 -22 -194 -14 -29
-22 -49 -16 -45 19 11 24 -25 7 -44 -9 -10 -16 -23 -16 -29 0 -7 -4 -12 -10
-12 -5 0 -6 7 -3 17 13 33 -17 2 -32 -34 -24 -58 -15 -311 16 -425 9 -36 12
-38 49 -38 l39 0 -15 35 c-7 19 -14 48 -14 64 0 16 -4 31 -9 33 -10 3 -28 107
-37 213 -6 66 9 117 46 150 l21 19 -10 -28 c-12 -29 -15 -294 -4 -283 3 4 12
2 19 -4 17 -14 35 -3 27 16 -3 8 -1 15 3 15 5 0 9 42 9 93 1 127 1 128 64 111
28 -7 56 -16 61 -19 6 -4 10 -86 10 -211 0 -178 2 -204 16 -204 13 0 14 22 9
189 l-7 190 32 -1 c34 -1 70 -37 70 -69 0 -10 5 -21 11 -25 9 -5 10 1 4 22 -4
16 -9 38 -10 49 0 11 -8 36 -17 55 -13 27 -17 30 -17 14 -3 -65 -30 7 -45 117
-3 25 -29 46 -67 54 -28 6 -104 39 -111 48 -1 1 -4 115 -7 252 -6 232 -7 242
-14 140z m73 -457 c55 -28 66 -38 71 -65 4 -18 12 -39 18 -47 9 -11 6 -12 -14
-8 -17 3 -25 11 -26 26 -1 17 -2 17 -6 4 -5 -21 -15 -22 -62 -8 -49 14 -83 73
-67 116 7 19 13 18 86 -18z m-70 -140 c0 -36 -3 -46 -14 -42 -9 3 -12 19 -10
47 1 23 3 49 4 57 0 13 1 13 10 0 5 -8 10 -36 10 -62z m-13 -60 c12 -16 11
-114 -1 -110 -5 2 -13 -2 -17 -10 -6 -9 -9 -4 -9 16 0 16 8 35 18 42 15 12 15
13 1 14 -11 0 -16 10 -17 30 -1 32 9 39 25 18z"/>
<path d="M743 1116 c1 -6 -4 -10 -10 -8 -7 1 -13 -4 -13 -12 0 -9 7 -12 20 -9
11 3 18 9 15 13 -3 5 3 10 12 12 15 3 14 5 -4 10 -14 4 -22 2 -20 -6z"/>
<path d="M546 1058 c-12 -94 -12 -108 -6 -108 7 0 21 142 15 148 -2 2 -6 -16
-9 -40z"/>
<path d="M2269 1079 c-3 -55 4 -135 13 -140 6 -4 8 -19 4 -35 -5 -21 -4 -25 4
-14 5 8 10 24 10 35 1 20 1 20 16 0 14 -19 15 -17 9 26 -6 40 -3 49 19 76 14
17 26 35 26 39 0 5 -7 1 -15 -10 -7 -10 -18 -15 -24 -11 -7 4 -8 0 -4 -11 4
-12 3 -15 -5 -10 -12 7 -16 -6 -14 -54 0 -16 -1 -19 -5 -7 -2 9 -8 15 -13 12
-5 -3 -9 20 -9 51 0 31 -2 58 -5 62 -3 3 -6 -1 -7 -9z"/>
<path d="M650 1064 c0 -16 37 -60 44 -53 3 3 -5 19 -19 35 -14 16 -25 24 -25
18z"/>
<path d="M710 1001 c0 -10 7 -24 15 -31 13 -11 14 -10 8 6 -6 17 -5 18 11 5 9
-8 16 -10 15 -5 -4 22 2 35 13 28 7 -5 8 -3 3 6 -7 11 -10 10 -19 -1 -15 -19
-37 -22 -30 -4 4 8 1 15 -5 15 -6 0 -11 -8 -11 -19z"/>
<path d="M1490 999 c-13 -23 -7 -49 11 -49 8 0 8 4 -1 15 -18 22 -6 29 22 14
21 -11 22 -11 10 4 -8 9 -11 21 -7 27 3 5 -1 10 -9 10 -8 0 -20 -9 -26 -21z"/>
<path d="M1250 981 c0 -6 9 -15 20 -21 11 -6 20 -16 20 -21 0 -11 -187 -221
-203 -227 -4 -2 -13 -9 -20 -15 -21 -20 -107 -59 -120 -54 -6 2 -25 -3 -42
-13 -16 -10 -45 -18 -63 -18 -42 -1 -111 -42 -137 -81 -11 -17 -23 -31 -27
-31 -4 0 -27 11 -52 25 -57 32 -71 32 -25 0 39 -25 54 -50 39 -60 -5 -3 -8
-22 -5 -42 2 -19 0 -43 -5 -53 -7 -13 -6 -19 4 -23 7 -3 16 -21 20 -41 9 -47
23 -54 18 -9 -4 32 -3 35 14 28 40 -17 151 -44 185 -44 l36 -1 9 72 c6 45 14
73 22 76 11 3 12 0 4 -14 -11 -21 -6 -44 10 -44 7 0 7 4 0 13 -6 7 -7 18 -2
26 4 8 6 20 3 28 -5 13 -1 14 49 18 15 1 33 7 41 13 12 10 118 42 139 42 17 0
6 -37 -22 -69 -26 -30 -32 -33 -53 -24 -14 7 -29 8 -38 2 -8 -5 -10 -9 -5 -9
5 0 -1 -12 -15 -27 l-24 -28 31 28 c20 18 37 25 48 21 15 -6 15 -7 -1 -21 -14
-11 -11 -10 14 2 39 18 44 19 38 3 -3 -8 12 -20 36 -30 35 -15 40 -15 35 -2
-4 11 -1 14 12 10 9 -3 35 -8 57 -12 33 -6 36 -9 20 -15 -14 -6 -6 -8 24 -6
30 1 46 7 48 17 4 12 3 13 -5 1 -5 -7 -15 -10 -22 -6 -18 11 -122 34 -156 35
-26 0 -33 5 -37 25 -3 18 2 31 18 43 17 13 22 28 22 60 0 36 -2 40 -14 30 -8
-6 -54 -22 -102 -34 -48 -12 -107 -32 -131 -44 -47 -24 -71 -16 -43 16 10 10
30 38 45 61 23 35 66 71 76 65 1 -1 2 0 2 3 0 3 0 8 0 11 0 4 -6 1 -13 -5 -8
-6 -16 -8 -19 -6 -3 3 -22 -14 -42 -37 -52 -61 -56 -66 -56 -78 0 -5 -4 -10
-10 -10 -5 0 -10 -7 -10 -16 0 -13 -7 -15 -42 -9 -24 4 -63 14 -88 21 -24 7
-45 12 -47 11 -1 -2 0 -20 4 -40 4 -29 8 -35 19 -26 17 14 141 1 147 -15 7
-19 -4 -64 -18 -76 -18 -15 -122 5 -165 31 -31 19 -36 44 -9 44 15 1 15 2 5
50 -5 25 -1 38 21 67 29 38 87 73 104 63 5 -4 12 0 15 8 3 9 14 12 30 9 14 -2
35 0 47 6 49 23 86 34 96 27 6 -3 11 -2 11 4 0 6 13 17 28 25 34 18 69 51 141
135 50 58 56 61 68 45 18 -25 16 -60 -4 -76 -10 -7 -19 -24 -21 -38 l-2 -25
27 29 c23 24 28 36 24 70 -2 23 -8 47 -14 54 -15 19 45 73 67 60 9 -5 14 -13
11 -19 -4 -5 -2 -9 4 -9 15 0 26 23 13 28 -7 2 -35 19 -62 38 -28 19 -50 30
-50 25z"/>
<path d="M1335 964 c17 -14 43 -30 58 -36 39 -14 33 -48 -12 -69 -20 -9 -30
-19 -23 -23 6 -4 21 -1 34 5 13 7 30 15 38 20 8 4 13 13 11 21 -2 7 -3 21 -3
30 0 11 -12 21 -36 29 -20 6 -45 20 -55 30 -10 11 -23 19 -30 19 -7 -1 2 -12
18 -26z"/>
<path d="M757 956 c-8 -8 -17 -12 -21 -9 -3 4 -6 -12 -6 -34 0 -22 -3 -43 -7
-47 -10 -10 -13 -37 -3 -31 5 3 11 1 15 -5 3 -5 0 -10 -7 -11 -7 0 -5 -4 6 -8
17 -6 16 -9 -8 -24 -15 -10 -24 -22 -20 -28 4 -6 13 -4 25 7 18 16 19 16 19
-3 0 -12 7 -23 15 -27 17 -6 19 7 5 34 -6 11 -12 32 -14 47 -2 15 -7 42 -11
60 -4 18 -4 40 0 50 6 17 7 17 20 0 8 -12 15 -14 20 -8 3 6 -1 14 -10 17 -13
5 -14 9 -4 15 8 4 11 11 7 14 -3 3 -12 -1 -21 -9z"/>
<path d="M1609 946 c-3 -3 -20 -8 -39 -11 -43 -7 -44 -9 -25 -25 11 -9 15 -9
15 -1 0 7 5 9 10 6 6 -3 10 -1 10 4 0 6 9 11 20 11 11 0 20 5 20 10 0 11 -4
13 -11 6z"/>
<path d="M1485 912 c-27 -5 -39 -18 -26 -26 6 -4 11 -2 11 5 0 8 4 8 13 1 8
-7 17 -6 30 3 20 15 5 24 -28 17z"/>
<path d="M808 883 c-3 -12 -1 -27 6 -34 8 -9 8 -10 -4 -4 -12 6 -13 5 -3 -5
19 -21 27 -4 16 32 -8 29 -10 31 -15 11z"/>
<path d="M2315 825 c0 -35 3 -58 7 -52 10 16 10 104 1 110 -5 3 -8 -23 -8 -58z"/>
<path d="M1510 868 c0 -8 6 -20 13 -27 8 -10 8 -12 0 -7 -6 3 -14 2 -18 -4 -3
-5 3 -10 14 -10 25 0 29 31 6 50 -12 10 -15 10 -15 -2z"/>
<path d="M465 725 c2 -55 4 -102 5 -105 1 -3 7 11 14 30 10 25 10 37 2 42 -6
4 -14 36 -17 70 -5 47 -6 37 -4 -37z"/>
<path d="M687 744 c-10 -10 -9 -44 2 -44 13 0 23 32 13 42 -5 5 -11 5 -15 2z"/>
<path d="M440 707 c0 -9 -6 -16 -12 -14 -7 1 -14 -8 -16 -20 -2 -17 1 -21 11
-17 16 6 32 52 22 62 -3 3 -5 -2 -5 -11z"/>
<path d="M772 703 c-10 -19 -6 -63 6 -75 4 -4 8 15 9 42 2 53 -1 60 -15 33z"/>
<path d="M1260 695 c0 -12 -5 -26 -12 -33 -14 -14 6 -42 31 -42 12 0 10 5 -8
19 -22 17 -23 19 -6 28 14 8 15 14 7 29 -11 18 -11 18 -12 -1z"/>
<path d="M505 662 c-4 -24 -5 -46 -2 -49 8 -7 20 63 14 79 -2 7 -7 -6 -12 -30z"/>
<path d="M1191 678 c-7 -11 -8 -17 -2 -13 14 8 14 0 -1 -26 -11 -17 -10 -23 0
-26 6 -3 10 -9 6 -14 -3 -5 0 -9 5 -9 6 0 11 15 11 34 0 19 5 38 10 41 14 9
12 22 -3 28 -7 3 -19 -4 -26 -15z"/>
<path d="M1631 627 c-67 -46 -81 -51 -133 -53 -36 -1 -55 3 -51 9 4 6 1 7 -6
3 -7 -5 -10 -14 -7 -22 3 -8 -1 -14 -10 -14 -8 0 -12 -4 -9 -10 3 -5 -2 -10
-12 -11 -28 -1 89 -31 120 -31 27 1 121 32 114 38 -1 2 -24 -3 -50 -11 -41
-12 -67 -13 -134 -3 -26 3 2 28 32 28 18 0 50 7 71 16 48 20 154 92 154 104 0
12 8 17 -79 -43z"/>
<path d="M1145 661 c3 -5 1 -12 -5 -16 -5 -3 -10 -1 -10 6 0 7 -7 4 -16 -7 -8
-10 -12 -13 -8 -5 5 11 3 13 -10 8 -10 -4 -20 -7 -22 -7 -2 0 -4 -7 -4 -15 0
-8 5 -15 11 -15 5 0 7 6 3 13 -6 8 -3 8 9 -1 14 -12 21 -11 47 8 33 23 39 40
14 40 -8 0 -13 -4 -9 -9z"/>
<path d="M671 614 c-22 -28 -28 -54 -11 -54 6 0 10 10 11 23 0 12 3 16 6 10 9
-24 30 -14 27 13 -4 37 -9 38 -33 8z"/>
<path d="M1323 460 c-23 -10 -32 -30 -12 -30 5 0 7 5 3 12 -5 8 -2 9 12 4 10
-4 31 -10 47 -13 15 -3 27 -10 27 -16 0 -7 4 -7 12 1 7 7 32 13 58 13 l45 1
-39 8 c-22 4 -55 6 -73 4 -24 -2 -33 1 -33 12 0 16 -14 17 -47 4z"/>
<path d="M1127 363 c-4 -6 -4 -18 -1 -26 3 -8 0 -35 -7 -58 -17 -61 -18 -70
-9 -64 5 3 12 22 16 41 l7 36 51 -7 c28 -4 74 -9 101 -11 28 -3 64 -8 82 -13
22 -6 33 -5 36 2 2 7 -5 13 -17 14 -11 0 -50 4 -86 8 -36 3 -73 6 -83 6 -40 0
-66 18 -75 51 -5 19 -11 28 -15 21z"/>
<path d="M1400 338 c0 -12 128 -10 135 2 4 6 -21 9 -64 7 -39 -1 -71 -5 -71
-9z"/>
<path d="M920 288 c0 -10 11 -19 29 -23 38 -8 71 -40 71 -70 0 -14 4 -25 10
-25 5 0 7 13 4 30 -7 34 1 37 36 14 25 -17 25 -17 5 3 -11 11 -47 31 -80 43
-33 13 -63 29 -67 34 -5 7 -8 4 -8 -6z"/>
<path d="M1411 255 c3 -3 32 -8 65 -11 32 -4 62 -7 65 -8 4 0 9 4 10 9 3 6
-26 11 -71 13 -41 2 -72 0 -69 -3z"/>
<path d="M1957 137 c-41 -133 -42 -137 -27 -137 6 0 10 12 11 28 0 15 6 43 14
62 12 33 12 32 7 -29 -4 -50 -2 -62 7 -56 8 4 11 18 8 33 -3 15 3 65 14 112
21 95 22 110 12 110 -5 0 -25 -55 -46 -123z"/>
<path d="M1895 241 c-3 -5 0 -13 6 -17 8 -5 9 -3 4 6 -5 8 -3 11 6 8 8 -2 15
-21 17 -41 2 -20 8 -37 14 -37 10 0 3 63 -8 82 -7 11 -32 10 -39 -1z"/>
<path d="M620 229 c0 -24 24 -67 36 -65 8 1 14 6 12 12 -2 11 -48 61 -48 53z"/>
<path d="M1640 220 c-21 -7 -19 -8 18 -9 23 -1 42 4 42 9 0 12 -24 12 -60 0z"/>
<path d="M1095 191 c-3 -2 -5 -14 -5 -25 0 -12 -9 -50 -20 -84 -22 -70 -25
-91 -11 -76 9 9 22 48 41 121 7 27 17 44 30 48 11 4 18 10 15 15 -5 9 -42 10
-50 1z"/>
<path d="M330 180 c0 -5 -3 -9 -7 -7 -9 2 -13 -6 -13 -28 0 -8 5 -15 11 -15 6
0 9 7 5 15 -8 23 2 18 15 -7 6 -13 8 -20 4 -16 -10 10 -37 -11 -29 -23 3 -5
10 -9 16 -9 6 0 8 3 5 7 -4 3 1 12 10 18 14 10 15 16 5 28 -7 8 -10 22 -6 31
3 9 1 16 -5 16 -6 0 -11 -4 -11 -10z"/>
<path d="M716 153 c4 -15 12 -39 19 -53 7 -14 20 -42 30 -62 10 -21 22 -38 26
-38 4 0 -8 33 -27 74 -19 41 -34 79 -34 85 0 5 -5 13 -10 16 -7 4 -8 -3 -4
-22z"/>
<path d="M1144 156 c20 -17 123 -52 171 -59 25 -3 30 -9 28 -28 l-2 -24 11 23
c6 12 20 22 32 22 17 0 18 2 6 10 -8 5 -29 10 -47 10 -27 0 -104 21 -198 55
-19 6 -19 6 -1 -9z"/>
<path d="M1151 92 c-1 -8 -6 -10 -13 -6 -7 4 -5 -2 5 -13 9 -11 15 -23 12 -26
-3 -4 0 -3 7 3 8 7 17 2 31 -18 12 -17 16 -20 12 -7 -4 11 -8 25 -8 32 0 7 -5
11 -11 10 -6 -1 -10 4 -8 11 1 8 -2 11 -7 8 -5 -4 -12 0 -14 6 -4 10 -6 10 -6
0z"/>
<path d="M314 64 c3 -9 6 -26 6 -38 0 -15 6 -22 22 -23 13 -1 18 1 12 5 -13 8
-15 42 -2 42 4 0 8 4 8 10 0 5 -7 7 -15 4 -8 -4 -15 -1 -15 5 0 6 -5 11 -11
11 -6 0 -8 -7 -5 -16z"/>
</g>
</svg>
