<?xml version="1.0" standalone="no"?>
<!DOCTYPE svg PUBLIC "-//W3C//DTD SVG 20010904//EN"
 "http://www.w3.org/TR/2001/REC-SVG-20010904/DTD/svg10.dtd">
<svg version="1.0" xmlns="http://www.w3.org/2000/svg"
 width="468.000000pt" height="468.000000pt" viewBox="0 0 468.000000 468.000000"
 preserveAspectRatio="xMidYMid meet">

<g transform="translate(0.000000,468.000000) scale(0.100000,-0.100000)"
fill="#000000" stroke="none">
<path d="M923 4667 c0 -7 -11 -39 -26 -70 -30 -67 -27 -76 5 -14 l23 42 3
-207 c2 -170 5 -208 16 -208 22 0 30 57 13 83 -13 20 -13 26 0 50 11 21 11 27
1 25 -13 -3 -13 5 -3 72 8 47 13 212 7 228 -6 16 -39 16 -39 -1z"/>
<path d="M1100 4583 c0 -53 3 -93 7 -89 10 10 11 186 1 186 -4 0 -8 -43 -8
-97z"/>
<path d="M3830 4673 c-5 -104 -7 -134 -13 -139 -3 -4 -48 -8 -99 -11 -51 -2
-94 -6 -97 -8 -12 -12 -1 -159 14 -181 10 -16 18 -58 21 -122 7 -121 16 -137
13 -22 -2 47 1 92 7 101 10 18 54 35 55 22 4 -43 19 -70 19 -35 0 12 5 22 10
22 8 0 15 -135 9 -176 0 -4 5 -10 11 -14 7 -4 9 -13 5 -20 -10 -16 -5 -294 11
-574 6 -107 5 -118 -10 -113 -11 5 -16 1 -16 -12 0 -10 -8 -29 -19 -42 -16
-20 -21 -21 -35 -10 -14 12 -16 11 -16 -5 0 -17 8 -19 58 -18 32 0 63 3 68 7
5 3 9 34 7 69 -2 65 3 98 15 97 4 -1 17 -1 30 0 33 2 26 19 -10 23 -30 3 -31
4 -35 63 -6 89 -13 80 -15 -21 l-2 -89 -5 90 c-4 50 -7 185 -8 300 -1 161 1
202 9 175 9 -30 11 -32 18 -15 7 19 8 18 13 -5 8 -39 7 -70 -3 -70 -5 0 -11 8
-13 18 -3 9 -5 -21 -6 -67 0 -46 2 -81 6 -78 3 4 6 32 5 62 0 30 4 55 9 55 5
0 8 -3 8 -7 -5 -32 3 -265 9 -259 4 4 7 88 8 187 1 99 4 182 8 186 14 14 19
-12 22 -113 3 -127 13 -151 15 -36 1 45 3 87 4 92 1 6 3 21 4 35 2 45 21 26
21 -22 0 -67 17 -41 19 30 2 52 19 26 28 -40 4 -38 7 -74 6 -80 0 -7 3 -13 8
-13 4 0 8 24 7 53 -2 96 0 107 22 107 18 0 20 -7 20 -62 0 -74 12 -71 14 3 1
54 22 80 33 40 3 -12 9 -21 13 -21 5 0 6 9 3 20 -5 18 -1 21 33 20 22 -1 63 1
92 4 34 3 52 2 52 -6 0 -7 4 -7 13 -1 20 16 107 14 114 -3 4 -12 7 -12 18 2
14 19 35 11 35 -14 0 -13 3 -12 15 5 14 19 24 21 103 21 78 -1 87 1 91 17 3
17 1 17 -12 6 -9 -7 -26 -11 -38 -9 -21 3 -20 5 14 28 20 14 37 29 37 34 0 5
-7 3 -15 -4 -9 -7 -19 -10 -23 -6 -4 4 4 16 17 27 13 10 20 19 16 19 -8 0 -96
-70 -112 -90 -11 -13 -12 -13 -13 0 0 11 -3 11 -12 2 -7 -7 -17 -12 -22 -12
-16 1 37 40 53 40 8 0 11 3 8 7 -4 3 -1 13 6 22 16 21 -38 -13 -74 -45 -24
-23 -79 -33 -79 -15 0 10 32 23 61 26 8 1 24 10 35 21 49 49 113 94 133 94 12
0 20 4 16 9 -12 20 -89 6 -119 -22 -16 -15 -32 -27 -36 -27 -4 0 -24 -15 -44
-34 -34 -33 -64 -40 -115 -27 -7 2 32 41 41 41 5 0 21 14 35 30 13 17 34 30
44 30 11 0 18 4 15 9 -8 12 13 28 47 36 32 8 37 -9 7 -25 -11 -6 -31 -20 -44
-33 -28 -25 -64 -54 -86 -67 -8 -5 -12 -12 -9 -15 4 -3 30 14 59 37 29 24 59
48 68 53 8 6 25 20 38 33 13 12 29 22 36 22 19 1 68 47 68 65 0 13 -55 15
-487 16 -269 1 -497 1 -508 0 -38 -2 -49 14 -47 75 0 31 5 61 11 67 6 6 195
11 518 14 279 3 510 7 513 9 2 3 -2 10 -10 15 -9 6 -58 8 -125 5 -265 -13
-686 -14 -691 -3 -2 7 -5 32 -7 57 l-2 45 104 8 c67 5 107 4 115 -3 15 -11 26
-4 26 18 0 10 -7 12 -25 8 -43 -11 -209 -8 -213 3 -4 12 -22 15 -22 4z m758
-350 c-10 -2 -18 -9 -18 -14 0 -5 -9 -9 -20 -9 -11 0 -20 5 -20 11 0 6 7 9 15
6 8 -4 17 -2 20 3 4 6 14 9 23 9 15 -1 15 -2 0 -6z m-596 -15 c-8 -8 -17 -8
-34 0 -22 10 -21 11 12 11 26 1 31 -2 22 -11z m518 1 c0 -5 -11 -9 -25 -9 -14
0 -25 -4 -25 -10 0 -5 -12 -9 -27 -9 -22 1 -23 2 -8 6 11 3 23 10 27 17 7 13
58 18 58 5z m130 1 c0 -5 -7 -10 -16 -10 -8 0 -12 5 -9 10 3 6 10 10 16 10 5
0 9 -4 9 -10z m-257 -7 c-7 -2 -19 -2 -25 0 -7 3 -2 5 12 5 14 0 19 -2 13 -5z
m-60 -16 c21 4 28 3 23 -5 -4 -7 -13 -12 -20 -12 -8 0 -19 -7 -26 -15 -8 -9
-9 -15 -2 -15 6 0 14 5 17 10 3 6 13 10 22 10 12 0 13 -3 3 -15 -6 -8 -26 -14
-44 -13 -23 1 -48 -11 -93 -45 -69 -53 -108 -64 -49 -14 22 17 49 38 60 45 20
12 20 13 -6 8 -15 -4 -30 -1 -33 4 -4 6 -11 8 -16 4 -16 -10 -79 -12 -79 -3 0
11 -1 11 90 14 83 2 123 11 115 26 -4 5 -14 5 -25 -1 -28 -15 -44 -13 -28 3
19 19 41 26 52 16 5 -4 22 -5 39 -2z m-353 -2 c0 -2 -11 -12 -24 -21 -19 -12
-29 -13 -43 -5 -16 9 -15 10 10 11 15 0 27 5 27 10 0 6 7 10 15 10 8 0 15 -2
15 -5z m46 -10 c-8 -8 -20 -15 -27 -15 -7 0 -4 6 7 15 25 19 40 19 20 0z m88
0 c-10 -8 -26 -14 -34 -14 -9 0 -4 6 10 14 33 19 49 19 24 0z m60 0 c-25 -19
-40 -19 -24 0 7 8 20 15 28 15 13 0 12 -3 -4 -15z m50 0 c-10 -8 -25 -15 -33
-15 -11 0 -9 4 5 15 10 8 25 15 33 15 11 0 9 -4 -5 -15z m314 8 c-10 -2 -26
-2 -35 0 -10 3 -2 5 17 5 19 0 27 -2 18 -5z m75 0 c-7 -2 -19 -2 -25 0 -7 3
-2 5 12 5 14 0 19 -2 13 -5z m-113 -22 c0 -8 -23 -25 -107 -77 -18 -11 -46
-33 -61 -47 -26 -25 -52 -35 -52 -21 0 11 42 44 57 44 7 0 13 7 13 15 0 13 -4
14 -22 4 -13 -7 -27 -18 -31 -25 -4 -8 -17 -14 -27 -14 -12 0 -17 -5 -14 -14
3 -9 -6 -15 -32 -19 -47 -8 -55 -2 -21 14 15 7 24 15 22 20 -6 9 33 24 55 21
11 -1 11 0 2 4 -10 5 -9 11 5 26 10 12 -10 1 -45 -22 -34 -24 -64 -41 -67 -38
-2 2 16 21 41 42 42 35 57 41 127 45 10 1 16 5 12 10 -9 16 28 30 74 29 23 0
45 2 48 6 9 9 23 7 23 -3z m-440 -21 c0 -5 -7 -10 -16 -10 -8 0 -12 5 -9 10 3
6 10 10 16 10 5 0 9 -4 9 -10z m-140 -4 c0 -3 -4 -8 -10 -11 -5 -3 -10 -1 -10
4 0 6 5 11 10 11 6 0 10 -2 10 -4z m60 0 c0 -3 -4 -8 -10 -11 -5 -3 -10 -1
-10 4 0 6 5 11 10 11 6 0 10 -2 10 -4z m650 -15 c0 -5 -13 -17 -29 -28 -16
-10 -47 -31 -70 -47 -67 -47 -56 -25 16 32 65 51 83 61 83 43z m-610 -11 c0
-5 -9 -14 -20 -20 -15 -8 -27 -7 -47 5 l-28 15 30 -5 c17 -2 37 0 45 5 19 12
20 12 20 0z m115 0 c-3 -5 -10 -10 -16 -10 -5 0 -9 5 -9 10 0 6 7 10 16 10 8
0 12 -4 9 -10z m55 1 c0 -12 -76 -61 -84 -54 -3 3 9 19 27 34 32 28 57 37 57
20z m-300 -10 c0 -5 -7 -11 -15 -15 -15 -5 -20 5 -8 17 9 10 23 9 23 -2z m198
3 c28 -8 28 -20 1 -35 -20 -10 -21 -9 -16 10 4 18 3 20 -9 10 -16 -13 -30 -6
-19 10 7 13 12 13 43 5z m-27 -46 c43 -12 54 -32 13 -22 -17 4 -29 2 -35 -7
-8 -12 -10 -12 -18 0 -8 12 -12 13 -25 1 -9 -7 -19 -10 -23 -6 -3 3 -1 6 6 6
7 0 9 5 5 12 -5 8 2 9 24 5 33 -7 46 8 15 16 -10 3 -14 5 -9 6 5 0 26 -4 47
-11z m584 -48 c-3 -5 -11 -10 -16 -10 -6 0 -7 5 -4 10 3 6 11 10 16 10 6 0 7
-4 4 -10z m-281 -25 c-4 -8 -18 -15 -32 -15 -29 0 -20 15 13 23 11 3 21 5 22
6 1 0 0 -6 -3 -14z m56 0 c0 -8 -9 -15 -20 -15 -22 0 -27 15 -7 23 21 9 27 7
27 -8z m-155 -5 c-3 -5 -13 -10 -21 -10 -8 0 -12 5 -9 10 3 6 13 10 21 10 8 0
12 -4 9 -10z m-105 -10 c-20 -13 -43 -13 -35 0 3 6 16 10 28 10 18 0 19 -2 7
-10z"/>
<path d="M4377 4228 c-9 -5 -17 -14 -17 -20 0 -7 4 -7 13 0 6 5 21 12 32 14
16 3 17 5 4 10 -8 3 -23 2 -32 -4z"/>
<path d="M4626 4641 c-4 -7 -5 -15 -2 -18 9 -9 19 4 14 18 -4 11 -6 11 -12 0z"/>
<path d="M4081 4588 c-1 -28 16 -37 35 -18 5 5 81 11 169 13 l160 3 -177 2
c-130 1 -178 5 -181 15 -3 6 -6 0 -6 -15z"/>
<path d="M4560 4590 c0 -5 5 -10 11 -10 5 0 7 5 4 10 -3 6 -8 10 -11 10 -2 0
-4 -4 -4 -10z"/>
<path d="M4618 4593 c12 -2 32 -2 45 0 12 2 2 4 -23 4 -25 0 -35 -2 -22 -4z"/>
<path d="M4468 4583 c7 -3 16 -2 19 1 4 3 -2 6 -13 5 -11 0 -14 -3 -6 -6z"/>
<path d="M4508 4583 c6 -2 18 -2 25 0 6 3 1 5 -13 5 -14 0 -19 -2 -12 -5z"/>
<path d="M112 4534 c3 -3 25 -6 49 -7 40 -2 44 -5 50 -32 6 -29 7 -29 8 8 l1
37 -57 0 c-31 0 -54 -3 -51 -6z"/>
<path d="M862 4495 c0 -16 2 -22 5 -12 2 9 2 23 0 30 -3 6 -5 -1 -5 -18z"/>
<path d="M1100 4440 c0 -11 4 -20 8 -20 4 0 8 9 8 20 0 11 -4 20 -8 20 -4 0
-8 -9 -8 -20z"/>
<path d="M80 4420 c-8 -5 -10 -10 -5 -10 6 0 17 5 25 10 8 5 11 10 5 10 -5 0
-17 -5 -25 -10z"/>
<path d="M6 4411 c-4 -5 3 -7 14 -4 23 6 26 13 6 13 -8 0 -17 -4 -20 -9z"/>
<path d="M208 4290 c3 -69 6 -178 6 -242 0 -72 4 -115 9 -111 10 6 3 219 -13
393 -6 62 -6 51 -2 -40z"/>
<path d="M875 4400 c-4 -6 -2 -17 4 -24 6 -7 13 -66 16 -131 3 -65 7 -120 10
-123 3 -3 5 7 5 21 0 15 5 27 10 27 13 0 13 -57 0 -62 -6 -2 -6 -17 2 -40 8
-29 8 -44 0 -63 -7 -14 -12 -39 -12 -55 0 -16 -5 -41 -11 -57 -17 -43 -19
-106 -3 -133 14 -27 20 -19 5 8 -11 21 3 130 19 146 8 8 10 -26 9 -122 0 -74
2 -136 5 -139 3 -4 6 10 6 31 0 22 4 35 10 31 6 -3 10 -1 10 4 0 6 -4 11 -10
11 -15 0 -13 263 2 278 9 9 9 12 0 12 -9 0 -10 6 -4 18 5 9 8 49 7 87 -2 61
-5 70 -21 70 -16 0 -20 14 -31 104 -12 106 -16 120 -28 101z"/>
<path d="M3677 4399 c7 -7 15 -10 18 -7 3 3 -2 9 -12 12 -14 6 -15 5 -6 -5z"/>
<path d="M3706 4381 c-2 -3 9 -7 25 -8 16 -1 29 1 29 5 0 9 -49 12 -54 3z"/>
<path d="M1100 4355 c0 -8 4 -15 10 -15 5 0 7 7 4 15 -4 8 -8 15 -10 15 -2 0
-4 -7 -4 -15z"/>
<path d="M4646 4274 c-22 -22 -20 -25 9 -12 14 6 25 15 25 20 0 13 -17 9 -34
-8z"/>
<path d="M1100 4253 c0 -22 2 -25 10 -13 13 20 13 40 0 40 -5 0 -10 -12 -10
-27z"/>
<path d="M40 4240 c0 -11 4 -20 9 -20 17 0 19 15 5 28 -12 11 -14 9 -14 -8z"/>
<path d="M1 4234 c0 -11 3 -14 6 -6 3 7 2 16 -1 19 -3 4 -6 -2 -5 -13z"/>
<path d="M100 4240 c0 -15 21 -23 32 -12 6 6 2 11 -11 15 -12 3 -21 1 -21 -3z"/>
<path d="M1110 4179 c0 -11 -5 -29 -10 -40 -8 -13 -7 -25 1 -40 6 -12 7 -19 2
-16 -6 4 -8 -133 -6 -341 2 -191 3 -353 3 -361 0 -8 3 -11 7 -7 4 3 7 150 8
326 1 176 -2 314 -7 308 -5 -9 -8 -8 -8 5 0 9 4 17 9 17 5 0 9 38 10 85 1 47
-1 85 -4 85 -3 0 -5 -9 -5 -21z"/>
<path d="M2265 4190 c-24 -6 -19 -8 29 -9 l59 -1 -7 -52 c-3 -29 -6 -63 -6
-75 0 -16 -6 -23 -20 -23 -11 0 -20 -5 -20 -10 0 -9 20 -8 73 7 9 2 24 -3 33
-11 10 -10 33 -16 65 -16 43 0 51 -3 59 -24 7 -18 14 -22 34 -19 19 4 26 1 26
-11 0 -8 11 -18 25 -22 14 -3 25 -12 25 -19 0 -7 16 -27 35 -44 19 -17 35 -37
35 -46 0 -8 5 -15 11 -15 6 0 9 -9 6 -20 -3 -13 0 -20 9 -20 15 0 64 -97 83
-166 13 -44 41 -227 36 -232 -2 -2 -30 -6 -62 -9 l-60 -5 -14 33 c-18 45 -138
165 -183 184 -39 16 -132 20 -140 6 -14 -22 6 -39 46 -39 59 -1 117 -12 124
-24 4 -6 -1 -8 -14 -4 -52 17 -170 -66 -194 -136 -6 -15 -17 -28 -26 -28 -10
0 -33 -3 -52 -6 -33 -5 -36 -4 -47 28 -24 64 -68 105 -128 119 -30 7 -52 16
-49 21 6 10 8 10 -55 -2 -29 -5 -65 -19 -79 -31 l-27 -21 25 6 25 7 -25 -22
c-14 -12 -20 -20 -15 -17 6 2 36 17 69 32 54 26 61 28 100 16 66 -20 94 -38
120 -78 38 -57 40 -159 4 -212 -72 -106 -231 -105 -308 2 -34 47 -39 105 -15
173 19 52 18 55 -5 26 -11 -13 -20 -36 -20 -52 0 -22 -6 -32 -26 -39 -33 -13
-114 -13 -114 0 0 6 -7 10 -15 10 -8 0 -14 -5 -12 -11 1 -6 -4 -14 -10 -16 -9
-3 -13 8 -13 36 0 39 1 41 32 41 34 0 31 12 -4 15 -12 1 -24 7 -26 15 -3 9 4
11 27 8 37 -5 42 7 6 16 -35 9 -33 38 2 34 23 -2 29 -9 35 -42 5 -25 4 -43 -3
-52 -8 -9 -8 -14 -1 -14 14 0 25 35 18 58 -3 10 0 41 8 70 11 44 11 52 0 52
-9 0 -14 -11 -14 -30 0 -24 -4 -30 -22 -30 -13 0 -30 5 -38 10 -12 8 -13 11
-1 19 7 5 22 6 32 4 10 -3 19 0 19 6 0 6 -11 11 -25 11 -16 0 -25 6 -25 16 0
14 7 16 40 11 49 -6 53 10 5 19 -20 3 -35 12 -35 20 0 9 12 14 35 14 24 0 35
-5 35 -15 0 -8 5 -15 11 -15 6 0 9 7 6 15 -4 8 -2 17 3 20 6 4 10 24 10 46 0
25 5 42 14 45 8 3 12 12 9 20 -3 8 0 21 7 29 7 8 10 21 7 30 -4 8 4 22 18 34
14 10 25 26 25 35 0 21 21 59 39 70 8 5 30 25 49 44 25 24 47 36 76 40 23 2
46 9 53 14 6 5 46 10 88 10 53 1 79 6 82 15 3 7 9 10 14 7 5 -3 8 27 8 68 l-1
73 -13 -65 c-13 -72 -23 -65 -28 20 -3 46 -4 42 -5 -22 -2 -85 -14 -98 -38
-45 l-15 32 5 -33 c4 -20 2 -31 -4 -27 -6 3 -10 14 -10 24 0 9 -7 26 -15 37
-15 18 -15 18 -9 -8 3 -16 4 -35 0 -43 -7 -19 -36 -8 -36 14 0 9 -9 33 -20 54
-11 20 -20 39 -20 41 0 5 47 17 85 22 16 2 34 9 40 15 21 22 -106 -8 -190 -44
-62 -26 -135 -87 -106 -87 11 0 32 -16 47 -35 27 -36 27 -65 -1 -65 -8 0 -15
-7 -15 -15 0 -8 -4 -15 -10 -15 -5 0 -10 4 -10 10 0 5 -16 20 -36 34 -21 14
-31 27 -25 30 6 4 16 17 21 29 6 12 -11 -2 -39 -31 -50 -55 -101 -140 -101
-171 0 -10 -3 -21 -7 -25 -8 -8 -32 -93 -32 -116 -1 -12 1 -12 8 -2 6 9 19 11
44 7 34 -7 35 -8 33 -48 -2 -42 -2 -42 -44 -44 -30 -1 -42 3 -42 13 0 9 12 14
38 14 l37 1 -33 14 c-36 16 -57 7 -60 -25 0 -8 -9 -84 -18 -167 -12 -108 -21
-153 -30 -153 -21 0 -84 -114 -84 -151 0 -41 26 -99 74 -169 39 -56 45 -80 20
-80 -37 0 -299 -167 -444 -283 -104 -83 -196 -196 -270 -332 -9 -16 -35 -60
-58 -96 -22 -37 -48 -83 -56 -103 -9 -21 -24 -50 -35 -65 -11 -16 -18 -30 -16
-33 9 -9 -33 -113 -94 -233 -41 -82 -58 -128 -55 -142 4 -13 -2 -35 -14 -55
-22 -35 -67 -169 -77 -229 -8 -41 4 -65 67 -138 21 -24 37 -46 35 -48 -3 -2
-142 -4 -311 -4 -190 0 -306 -3 -306 -9 0 -6 84 -10 218 -10 220 0 244 -3 417
-48 33 -8 76 -23 95 -32 67 -33 166 -42 445 -40 149 0 324 2 390 4 66 2 123
-1 126 -6 3 -5 32 -11 65 -14 32 -3 79 -10 104 -16 75 -17 209 -24 320 -16 58
4 179 12 270 17 165 10 257 28 279 55 7 8 14 33 16 57 3 23 6 43 8 45 7 8 676
11 688 3 10 -6 6 -9 -13 -9 -40 0 -34 -16 10 -28 25 -7 30 -10 15 -11 -13 -1
-23 -5 -23 -10 0 -14 -58 -31 -104 -31 -52 0 -87 -10 -80 -21 3 -5 -6 -9 -20
-9 -14 0 -26 -3 -26 -7 0 -11 748 -10 785 1 53 15 125 48 125 57 0 5 7 9 15 9
10 0 15 10 15 29 0 17 6 31 16 35 9 3 130 6 270 6 163 0 254 4 254 10 0 6 -47
10 -121 10 -106 0 -120 2 -109 15 7 9 14 55 16 112 4 99 -2 120 -12 42 -3 -24
-10 -48 -15 -53 -12 -13 -11 -39 1 -31 6 3 10 -1 10 -9 0 -8 -4 -18 -10 -21
-6 -3 -10 -17 -10 -31 0 -21 -5 -24 -37 -25 -80 -2 -278 3 -282 6 -2 2 6 24
18 48 11 24 21 59 21 78 0 20 3 39 7 42 10 10 7 140 -6 247 -6 52 -24 145 -41
205 -16 61 -30 121 -30 134 0 14 -31 81 -70 151 -223 405 -346 547 -604 695
-37 22 -76 45 -85 50 -74 45 -173 96 -179 91 -3 -4 -1 -26 6 -49 24 -91 -6
-342 -64 -525 -2 -9 -15 -5 -44 14 -29 19 -39 32 -34 43 11 27 32 123 38 176
11 91 15 316 6 341 -12 31 7 32 43 4 14 -11 28 -16 31 -11 8 12 -38 48 -81 66
-35 15 -45 48 -19 58 8 3 18 23 21 44 3 21 16 63 27 93 12 30 21 71 21 91 -3
67 -50 153 -78 143 -15 -6 -18 3 -35 96 -6 36 -16 83 -21 105 -6 22 -11 47
-13 55 -9 52 -21 88 -35 110 -10 14 -24 41 -31 60 -25 65 -69 147 -96 179
l-27 32 -53 -52 c-64 -63 -76 -43 -14 22 22 23 39 43 38 44 -2 1 -21 15 -43
31 -60 46 -154 94 -210 109 -66 17 -173 25 -210 15z m121 -25 c-3 -8 -8 -37
-12 -65 -4 -28 -11 -53 -17 -57 -6 -4 -7 11 -3 43 11 73 17 94 28 94 6 0 8 -7
4 -15z m70 -9 c2 -6 -4 -33 -15 -61 -13 -35 -24 -50 -37 -50 -16 0 -19 7 -17
40 2 63 18 94 43 88 12 -3 24 -11 26 -17z m18 -76 c-10 -28 -22 -50 -26 -50
-12 0 -10 23 6 61 7 19 17 43 21 54 7 18 8 19 12 2 3 -10 -3 -40 -13 -67z m53
-3 c-11 -28 -26 -55 -31 -59 -24 -16 -26 14 -6 71 20 53 25 59 41 51 17 -10
17 -12 -4 -63z m-452 16 c11 -26 22 -51 23 -55 2 -4 -3 -8 -11 -8 -8 0 -20 13
-27 29 -11 27 -50 72 -50 58 0 -4 14 -29 31 -57 17 -28 30 -53 28 -54 -2 -2
-22 -6 -44 -9 -37 -5 -42 -3 -74 34 -19 22 -31 42 -28 45 12 12 49 -9 68 -39
16 -27 19 -29 19 -11 0 12 -12 33 -26 47 l-25 26 38 20 c21 11 43 20 48 21 6
0 19 -21 30 -47z m509 19 c8 -14 -32 -92 -48 -92 -13 0 -13 5 -1 41 8 22 17
44 20 50 7 11 22 12 29 1z m36 -23 c0 -5 -12 -35 -26 -65 -17 -36 -30 -52 -36
-46 -6 6 0 29 18 66 25 52 44 71 44 45z m64 -40 l28 -22 -43 -43 c-24 -24 -46
-44 -50 -44 -18 0 -19 59 -3 94 20 42 31 44 68 15z m100 -87 c15 -28 14 -30
-27 -70 -24 -23 -46 -42 -50 -42 -18 0 -3 26 35 61 24 22 38 39 31 39 -6 0
-28 -16 -49 -35 -39 -37 -49 -41 -60 -24 -7 12 74 99 93 99 7 0 19 -13 27 -28z
m-925 -6 c32 -17 59 -46 43 -46 -6 0 -19 -16 -28 -35 -16 -35 -42 -43 -36 -13
1 10 -10 20 -29 27 -27 9 -30 13 -19 26 11 13 17 13 49 -6 l36 -21 -31 29
c-17 15 -29 34 -27 41 6 15 8 15 42 -2z m968 -75 l20 -40 -51 -31 -51 -30 44
40 c47 43 41 56 -7 15 -35 -30 -52 -32 -52 -7 0 16 62 92 74 92 2 0 13 -18 23
-39z m-1016 -31 c10 -6 19 -17 19 -26 0 -11 -4 -12 -19 -4 -11 5 -29 10 -40
10 -21 0 -27 11 -14 23 9 10 31 9 54 -3z m-4 -45 c7 -3 10 -11 6 -20 -4 -13
-14 -15 -40 -10 -21 4 -33 2 -29 -3 3 -5 20 -12 37 -16 45 -9 32 -31 -17 -29
l-39 2 38 -11 c48 -15 49 -32 0 -23 -51 9 -52 10 -43 47 22 84 20 83 87 63z
m1055 5 c0 -5 1 -14 2 -20 1 -5 -17 -19 -39 -30 -53 -27 -69 -11 -30 30 28 29
64 40 67 20z m-17 -76 c-25 -13 -49 -24 -52 -24 -14 0 25 34 52 46 49 20 49 4
0 -22z m55 -9 c0 -8 -6 -15 -12 -15 -7 0 -24 -9 -38 -20 -30 -23 -40 -25 -40
-6 0 15 56 56 78 56 6 0 12 -7 12 -15z m-20 -55 c-34 -28 -60 -38 -60 -22 0
11 63 52 79 52 9 0 1 -12 -19 -30z m40 -2 c-1 -7 -15 -22 -32 -33 -17 -11 -34
-27 -36 -35 -3 -8 9 -2 27 13 18 15 37 27 41 27 9 0 21 -36 35 -106 5 -28 3
-33 -29 -48 -42 -20 -66 -21 -66 -2 0 14 40 47 70 59 13 5 13 6 -1 6 -8 1 -24
-6 -35 -14 -31 -23 -41 -18 -53 31 l-12 46 38 34 c41 36 53 41 53 22z m-411
-114 c11 -10 -8 -12 -49 -7 -39 6 -42 8 -20 14 23 6 58 2 69 -7z m111 -82 c25
-12 44 -34 67 -80 36 -70 36 -89 0 -181 -17 -45 -27 -56 -61 -72 -55 -25 -101
-24 -163 5 -69 33 -97 84 -91 167 10 133 138 216 248 161z m350 -23 c0 -22 -8
-34 -32 -49 -18 -11 -42 -20 -53 -20 -19 1 -19 2 4 20 13 11 29 20 36 20 7 0
18 7 25 15 15 18 7 19 -22 4 -19 -10 -19 -9 3 20 26 35 39 32 39 -10z m-1010
21 c0 -5 -5 -10 -11 -10 -5 0 -7 5 -4 10 3 6 8 10 11 10 2 0 4 -4 4 -10z m935
-30 c-10 -11 -22 -17 -28 -13 -6 4 -3 12 8 20 28 20 41 16 20 -7z m71 -98
c-22 -22 -46 -1 -26 23 8 9 8 15 2 15 -6 0 -14 -4 -17 -10 -3 -5 -14 -10 -23
-10 -12 1 -10 5 8 15 14 8 33 12 43 9 10 -3 18 0 18 8 1 7 4 2 6 -11 3 -13 -2
-30 -11 -39z m72 6 c5 -7 17 -38 26 -69 16 -56 15 -58 -9 -123 -14 -37 -25
-75 -25 -86 0 -16 -26 -40 -43 -40 -10 0 -1 27 16 53 9 15 17 35 17 46 0 11 8
36 17 56 16 34 16 37 -1 66 -15 26 -16 33 -5 40 7 4 10 11 6 15 -9 9 -33 -12
-58 -52 -17 -28 -19 -37 -9 -49 10 -12 10 -18 0 -30 -14 -17 -8 -162 9 -193
16 -32 24 -291 10 -362 -28 -144 -101 -244 -146 -199 -18 18 -96 1 -146 -32
-25 -16 -74 -60 -108 -97 l-63 -67 -100 0 c-155 1 -249 27 -353 96 -38 24 -43
19 -10 -12 31 -30 114 -69 167 -79 25 -4 72 -13 105 -20 36 -7 87 -9 128 -5
40 4 67 2 67 -3 0 -14 -105 -20 -158 -10 -25 4 -48 6 -50 3 -14 -13 17 -19
103 -20 105 0 103 1 69 -67 -12 -23 -20 -27 -76 -30 -35 -2 -112 2 -173 8
-251 29 -411 142 -480 339 -27 77 -23 109 6 46 42 -95 178 -202 254 -200 29 0
29 0 -10 17 -197 83 -278 224 -301 528 -4 49 -12 85 -19 87 -6 3 -35 39 -63
81 -34 51 -45 73 -32 66 11 -6 24 -19 30 -30 6 -11 21 -20 33 -20 21 0 22 3
19 72 -2 52 0 69 7 58 6 -8 11 -30 11 -48 0 -29 3 -33 22 -30 20 3 22 8 20 91
-1 86 -1 88 25 98 51 19 75 8 87 -38 12 -47 63 -94 123 -114 49 -16 125 -5
180 26 25 14 51 25 58 25 15 0 45 43 45 64 0 8 -7 19 -15 23 -26 15 5 40 56
46 40 6 48 4 52 -13 3 -11 -1 -21 -9 -24 -34 -13 1 -86 41 -86 12 0 43 -11 66
-25 55 -31 129 -33 179 -6 37 19 88 92 89 126 2 35 15 44 75 51 68 7 76 1 76
-65 0 -57 20 -121 37 -121 7 0 13 5 13 10 0 6 -5 10 -10 10 -6 0 -8 11 -4 26
5 19 4 25 -5 20 -6 -4 -11 -1 -11 8 0 9 6 16 13 17 10 0 10 2 0 6 -18 7 -16
40 2 46 21 9 27 -8 21 -58 -4 -25 -2 -46 4 -50 6 -4 10 18 10 63 0 62 3 72 32
110 34 44 49 51 66 30z m-152 -27 c-9 -14 -96 -15 -96 -1 0 6 18 10 40 10 24
0 40 5 40 12 0 9 3 9 11 1 6 -6 8 -16 5 -22z m-541 -11 c8 -13 -34 -22 -76
-18 -34 4 -34 4 -9 15 31 15 77 16 85 3z m571 -35 c-11 -8 -22 -12 -25 -9 -6
6 19 24 34 24 6 -1 1 -7 -9 -15z m-1248 -41 c12 -20 22 -46 22 -59 l0 -24 -25
25 c-14 14 -25 29 -25 34 0 6 -4 10 -9 10 -16 0 -44 -74 -43 -112 2 -49 -14
-49 -28 0 -9 33 -7 44 21 100 35 72 53 78 87 26z m97 20 c-73 -16 -75 -16 -75
-5 0 10 40 17 100 18 27 1 20 -2 -25 -13z m1259 -20 c4 -11 2 -15 -8 -11 -7 3
-19 0 -25 -6 -8 -8 -11 -7 -11 4 0 31 33 41 44 13z m-1294 -84 c0 -44 -4 -80
-9 -80 -10 0 -24 137 -16 151 16 26 25 1 25 -71z m504 26 c-26 -40 -36 -31
-12 11 12 20 24 31 26 25 2 -6 -4 -22 -14 -36z m146 5 c-1 -13 -3 -13 -15 3
-19 26 -19 42 0 26 8 -7 15 -20 15 -29z m-725 -20 c3 -5 -9 -24 -26 -43 -17
-18 -29 -28 -27 -23 3 6 11 25 18 43 15 33 24 39 35 23z m1379 -253 c9 -37 7
-263 -4 -341 -12 -82 -40 -187 -50 -187 -4 0 -21 5 -39 11 -27 9 -30 14 -19
26 7 8 18 25 24 37 62 108 79 194 70 357 -3 68 -2 119 3 119 5 0 11 -10 15
-22z m-1357 -58 c-1 -8 -11 -20 -22 -27 -19 -12 -19 -12 4 -13 24 0 24 0 5
-16 -18 -15 -18 -15 4 -9 26 7 28 -2 5 -27 -15 -17 -15 -18 3 -18 16 0 17 -2
4 -10 -13 -8 -13 -10 1 -10 9 0 16 -6 16 -14 0 -8 -3 -15 -6 -14 -3 0 -12 0
-19 -1 -22 -2 -3 -21 21 -21 20 -1 21 -1 4 -11 -13 -8 -15 -14 -7 -24 6 -7 19
-57 30 -111 33 -169 83 -265 180 -343 80 -64 304 -120 484 -121 77 0 87 -2 76
-15 -7 -8 -10 -26 -8 -40 l5 -26 -161 6 c-186 6 -179 5 -461 45 -167 24 -210
41 -221 88 -4 15 -21 79 -40 143 -21 75 -40 176 -53 290 -31 259 -31 240 6
267 18 12 38 22 45 22 7 0 21 7 30 14 25 18 78 15 75 -4z m1743 -129 c25 -13
79 -50 120 -80 41 -31 78 -59 83 -62 4 -3 9 -19 11 -35 5 -40 5 -41 15 -25 18
27 66 -23 182 -189 54 -78 219 -374 219 -394 0 -12 -21 -6 -48 14 -33 24 -132
50 -187 50 -47 -1 -207 -39 -284 -68 l-53 -21 -28 20 c-15 12 -62 59 -105 105
-84 93 -85 94 -18 135 36 22 40 39 5 20 -15 -8 -21 -8 -24 1 -3 7 -13 -2 -23
-20 -11 -18 -23 -32 -27 -32 -15 0 -8 58 8 71 21 17 67 89 61 95 -2 3 -18 -11
-36 -31 -17 -20 -31 -30 -31 -23 0 16 146 158 204 197 24 17 66 39 92 50 39
16 44 20 24 20 -22 1 -165 -77 -180 -98 -3 -3 -36 -33 -74 -66 l-69 -60 6 35
c6 32 14 92 36 290 5 36 7 89 6 118 l-2 52 36 -21 c20 -12 56 -34 81 -48z
m-2056 -55 c3 -13 9 -52 12 -87 3 -35 8 -66 9 -69 2 -3 11 -48 20 -100 9 -52
32 -167 52 -255 33 -147 35 -168 29 -260 -4 -55 -9 -102 -12 -104 -2 -3 -11 4
-20 15 -15 18 -15 18 -5 -3 17 -35 13 -75 -11 -100 -12 -13 -17 -23 -11 -23
15 0 33 -46 33 -86 l0 -35 -42 6 c-60 9 -122 32 -197 72 -80 43 -229 93 -276
93 -83 0 -191 -33 -268 -82 -26 -17 -50 -28 -53 -25 -3 2 29 71 71 152 41 81
75 153 75 161 0 45 90 26 236 -51 62 -33 117 -73 182 -134 52 -47 111 -99 133
-115 38 -29 40 -29 57 -12 16 18 16 19 -1 12 -24 -8 -69 26 -176 131 -46 46
-87 83 -92 83 -4 0 -14 6 -21 13 -30 28 -255 127 -294 130 -8 0 -6 12 5 36 20
42 61 119 76 141 5 9 19 31 30 49 117 194 120 198 138 183 8 -7 45 -72 82
-147 38 -74 71 -133 73 -131 5 6 -91 204 -126 261 l-30 49 26 34 c56 73 246
222 283 222 4 0 10 -11 13 -24z m1478 -265 c13 -5 48 -16 79 -25 99 -28 286
-187 342 -288 9 -18 17 -47 17 -65 0 -24 4 -31 14 -27 11 4 13 0 10 -18 -5
-20 -4 -21 6 -5 6 9 8 27 4 40 -4 15 16 0 62 -45 86 -84 195 -170 344 -270
247 -168 311 -234 340 -355 6 -29 16 -53 20 -53 4 0 4 17 -1 38 -5 20 -12 51
-15 67 -4 25 -3 27 6 12 6 -9 17 -50 25 -89 13 -68 12 -77 -6 -133 -34 -101
-83 -155 -141 -155 -13 0 -29 -5 -36 -12 -9 -9 -12 -9 -12 -1 0 7 5 15 10 18
6 4 8 11 4 17 -8 12 -56 1 -66 -15 -12 -20 -138 -12 -215 13 -138 46 -220 126
-285 280 -34 80 -123 272 -186 400 -15 30 -31 58 -36 62 -15 10 14 38 39 38
12 0 28 7 35 15 10 12 7 13 -22 8 -23 -3 -39 0 -49 9 -8 8 -24 20 -37 27 -26
14 -29 48 -7 77 8 10 15 25 15 32 0 21 -16 13 -30 -15 -8 -16 -23 -40 -33 -55
-17 -26 -17 -28 -1 -28 13 0 14 -3 4 -15 -16 -19 -89 -19 -113 0 -17 12 -18
19 -8 63 6 27 20 65 31 85 26 44 42 97 29 97 -5 0 -9 -6 -9 -13 0 -7 -12 -37
-26 -66 -15 -29 -32 -71 -39 -94 -6 -22 -17 -43 -23 -45 -6 -2 -29 13 -51 34
-52 46 -52 72 -5 143 58 86 88 161 64 161 -5 0 -10 -7 -10 -15 0 -18 -42 -103
-78 -157 -13 -21 -27 -55 -29 -75 -2 -21 -6 -39 -8 -41 -2 -3 -19 4 -37 15
-37 21 -50 53 -22 53 15 0 15 3 -5 21 -34 32 -21 85 45 181 30 43 54 83 54 90
0 7 -27 -29 -60 -79 -33 -51 -68 -97 -78 -102 -11 -6 -31 -36 -45 -69 -31 -68
-50 -87 -94 -97 -26 -5 -34 -2 -47 17 -14 22 -13 29 23 103 21 44 43 96 50
115 10 31 76 104 148 164 35 29 105 42 145 27z m-179 -325 c-3 -24 0 -53 7
-66 10 -19 9 -25 -9 -43 -26 -26 -35 -18 -19 18 10 23 10 28 -5 36 -9 6 -17
15 -17 22 0 12 37 77 44 77 2 0 1 -20 -1 -44z m-33 -71 c0 -3 -5 -14 -12 -24
-16 -26 5 -173 32 -217 17 -31 18 -35 3 -49 -9 -10 -22 -13 -32 -9 -9 4 -32 9
-51 11 -19 2 -42 7 -50 9 -13 4 -13 6 0 14 12 8 10 10 -7 10 -13 0 -23 4 -23
9 0 4 -11 6 -24 4 -22 -5 -26 0 -36 36 -11 42 -6 78 16 122 11 21 23 28 64 33
35 5 59 14 73 30 20 22 47 34 47 21z m1259 -35 c29 -5 77 -24 107 -42 59 -36
63 -43 103 -188 30 -109 41 -192 41 -306 0 -104 -7 -164 -20 -164 -4 0 -7 16
-8 35 -3 81 -20 114 -100 190 -84 79 -214 181 -308 240 -66 43 -184 135 -184
145 0 15 105 63 173 80 86 21 127 23 196 10z m-1074 -40 c3 -6 -1 -7 -9 -4
-18 7 -21 14 -7 14 6 0 13 -4 16 -10z m280 -75 l30 -25 -28 0 c-16 0 -37 5
-48 11 -16 8 -18 13 -8 25 15 18 19 18 54 -11z m-1285 -29 c47 -9 99 -16 117
-16 17 0 34 -4 37 -9 4 -5 1 -33 -5 -62 l-11 -52 -77 6 c-66 6 -204 36 -216
49 -3 2 -2 28 2 57 6 53 6 53 37 48 17 -3 69 -13 116 -21z m1094 -42 c13 -5
16 -24 14 -113 l-2 -106 -5 95 c-6 89 -7 95 -29 98 -31 5 -35 -13 -25 -115 l8
-88 60 -1 c117 -3 126 -4 120 -14 -7 -12 -175 -4 -188 9 -4 4 -10 53 -14 108
-6 97 -5 101 16 108 11 3 21 11 21 16 0 11 3 11 24 3z m134 -3 c10 -6 14 -35
13 -111 -1 -57 -3 -106 -6 -108 -3 -3 -5 38 -5 91 0 86 -2 97 -18 97 -11 0
-18 7 -18 20 0 21 12 25 34 11z m-50 -93 c1 -62 -2 -86 -8 -73 -5 11 -9 46 -9
78 -1 42 -5 57 -15 57 -8 0 -16 7 -20 15 -4 11 2 15 23 15 l27 0 2 -92z m-504
23 c10 -4 -28 -8 -85 -8 -57 -1 -140 -5 -184 -9 -44 -3 -77 -4 -74 0 19 20
300 34 343 17z m235 -18 c2 -2 -5 -3 -16 -3 -11 0 -20 7 -20 15 0 12 3 12 16
3 9 -7 18 -14 20 -15z m-1683 -4 c38 -12 110 -41 159 -64 50 -24 120 -51 155
-60 36 -9 85 -23 110 -30 75 -23 203 -55 222 -55 10 0 27 -5 37 -12 18 -11 18
-12 0 -52 -10 -23 -19 -48 -19 -56 0 -8 9 3 19 25 28 61 69 99 151 143 63 34
86 41 145 44 66 3 70 2 73 -20 3 -22 1 -22 -52 -16 -39 5 -56 3 -56 -5 0 -6 6
-11 13 -11 87 -2 304 -59 346 -91 13 -10 29 -19 37 -19 7 0 14 -4 16 -9 2 -5
31 -23 65 -40 75 -37 90 -60 65 -91 -15 -19 -22 -21 -40 -11 -11 6 -31 11 -44
11 -39 0 -52 14 -38 39 6 12 9 27 7 34 -3 7 -9 0 -15 -15 -6 -14 -15 -29 -21
-32 -17 -11 -202 42 -226 64 -21 20 -23 20 -29 3 -3 -10 -9 -24 -12 -32 -5 -9
-1 -11 12 -7 11 3 55 -4 99 -15 44 -11 98 -25 119 -30 22 -5 51 -16 65 -24 14
-8 50 -24 79 -36 63 -26 77 -57 43 -93 -19 -20 -27 -22 -54 -15 -18 4 -49 11
-69 14 -41 6 -45 16 -23 55 8 14 14 36 14 50 0 20 -2 18 -13 -13 -23 -64 -29
-67 -94 -47 -59 18 -192 31 -192 19 0 -11 22 -17 96 -24 38 -5 89 -17 114 -28
25 -10 65 -24 89 -31 56 -14 72 -37 47 -65 -12 -14 -27 -19 -45 -15 -27 4 -80
12 -95 13 -5 1 -2 9 7 19 29 32 18 42 -12 11 -35 -34 -66 -37 -184 -14 -43 8
-85 15 -93 15 -8 0 -23 -20 -34 -44 -18 -43 -21 -45 -59 -43 -40 1 -52 13 -72
72 -7 19 -7 19 -8 -2 -1 -24 -27 -26 -42 -2 -7 11 -9 11 -9 -4 0 -16 -3 -16
-37 3 -31 16 -40 28 -50 67 l-13 48 5 -49 c4 -43 3 -47 -11 -35 -12 9 -15 27
-12 66 2 29 0 53 -4 53 -16 0 -8 -113 8 -131 16 -18 9 -18 -178 -12 -175 5
-205 4 -289 -15 -197 -43 -224 -46 -304 -34 -42 7 -92 20 -113 31 -47 24 -84
59 -77 72 4 5 -1 9 -9 9 -8 0 -20 8 -25 18 -6 9 -11 14 -11 10 0 -5 -24 16
-54 45 -67 65 -82 107 -62 168 8 24 17 60 21 79 10 46 51 139 73 163 19 22
154 87 180 87 9 0 24 5 32 10 25 16 104 11 176 -11z m1098 -15 c5 -12 2 -15
-10 -10 -8 3 -20 6 -25 6 -5 0 -9 5 -9 10 0 16 37 11 44 -6z m609 -4 c-4 -5
-24 -10 -43 -13 -33 -4 -32 -4 8 -5 l44 -2 -7 -187 c-10 -330 -20 -430 -44
-442 -43 -23 -291 -41 -291 -21 0 6 7 10 15 10 8 0 26 18 40 40 14 22 31 40
37 40 17 0 58 41 58 59 0 8 -5 30 -12 48 -9 26 -9 40 0 68 20 55 -3 88 -91
129 -138 65 -182 83 -251 102 -78 22 -93 37 -102 109 l-7 48 69 -7 c76 -8 385
-8 393 -1 2 3 -76 5 -175 6 -98 1 -190 4 -204 8 -14 4 92 8 235 8 143 1 274 6
290 11 32 10 52 5 38 -8z m608 -397 c12 -27 32 -62 45 -79 13 -17 24 -34 24
-37 0 -4 -20 -7 -44 -7 l-43 0 -7 53 c-7 62 -8 117 -1 117 2 0 14 -21 26 -47z
m-1296 -233 c3 -5 -2 -21 -12 -36 -9 -15 -19 -22 -21 -15 -2 6 -8 11 -14 11
-6 0 -8 -7 -4 -15 3 -9 0 -15 -9 -15 -19 0 -19 13 0 50 15 29 48 40 60 20z
m19 -44 c-9 -14 -21 -26 -26 -26 -5 0 -5 6 -1 13 29 45 38 56 41 48 2 -6 -4
-21 -14 -35z m46 27 c0 -5 -10 -19 -21 -33 l-21 -25 18 33 c18 32 24 38 24 25z
m70 -6 c0 -18 -27 -53 -35 -45 -4 3 1 18 10 32 19 29 25 32 25 13z m-40 -4
c-1 -15 -30 -46 -37 -40 -3 4 2 16 12 27 19 21 25 24 25 13z m60 -29 c-18 -21
-24 -10 -8 15 7 12 14 17 16 11 2 -6 -2 -17 -8 -26z m31 3 c-10 -9 -11 -8 -5
6 3 10 9 15 12 12 3 -3 0 -11 -7 -18z"/>
<path d="M2875 3585 c-16 -14 -25 -25 -20 -25 6 0 24 11 40 25 17 13 26 24 20
24 -5 0 -23 -11 -40 -24z"/>
<path d="M2245 3040 c-4 -16 -4 -33 -1 -38 3 -5 -4 -26 -14 -48 -25 -48 -27
-104 -4 -104 12 0 14 3 6 13 -16 19 9 117 30 117 6 0 7 -11 2 -27 -13 -47 -10
-96 6 -101 13 -5 13 -3 1 12 -12 14 -12 23 -1 59 8 23 13 45 12 50 -1 4 5 7
13 7 7 0 18 8 24 17 7 14 3 21 -20 35 -16 10 -29 22 -29 28 0 23 -19 8 -25
-20z m44 -24 c8 -10 9 -16 1 -21 -13 -8 -30 3 -30 21 0 18 14 18 29 0z"/>
<path d="M2380 2970 c-15 -4 -23 -12 -21 -21 2 -8 6 -26 9 -41 2 -16 8 -28 13
-28 12 0 11 22 -1 57 -9 26 -9 27 5 9 8 -11 15 -26 15 -34 0 -7 5 -10 10 -7 6
3 10 -4 10 -16 0 -17 3 -20 11 -12 14 14 4 77 -14 90 -6 6 -23 7 -37 3z"/>
<path d="M2306 2961 c-14 -22 -18 -98 -6 -106 9 -5 10 -2 6 13 -4 12 -2 38 3
59 10 36 9 54 -3 34z"/>
<path d="M2331 2908 c-1 -16 4 -28 9 -28 12 0 12 8 0 35 -8 18 -9 17 -9 -7z"/>
<path d="M2570 2860 c-43 -7 -42 -7 23 -8 90 -2 78 -17 -20 -25 -43 -4 -148
-13 -233 -21 -239 -23 -356 -30 -347 -20 5 5 52 14 105 21 l97 12 -103 -5
c-57 -2 -108 -7 -113 -10 -11 -6 -5 -72 7 -84 16 -16 707 36 698 52 -4 5 -16
7 -28 5 -43 -11 -636 -49 -652 -43 -41 16 15 28 217 46 416 38 433 39 446 22
19 -23 25 -9 15 29 -9 38 -28 43 -112 29z"/>
<path d="M2355 2840 c-29 -5 -7 -6 55 -3 58 3 107 7 109 9 7 6 -110 2 -164 -6z"/>
<path d="M2223 2823 c15 -2 39 -2 55 0 15 2 2 4 -28 4 -30 0 -43 -2 -27 -4z"/>
<path d="M3560 2296 c0 -2 7 -6 15 -10 8 -3 15 -1 15 4 0 6 -7 10 -15 10 -8 0
-15 -2 -15 -4z"/>
<path d="M3417 2244 c-16 -9 -27 -18 -24 -20 3 -3 20 4 38 15 39 24 28 28 -14
5z"/>
<path d="M1148 2304 c-11 -11 3 -33 18 -27 8 3 14 1 14 -3 0 -5 10 -20 21 -34
17 -20 17 -17 -4 20 -25 44 -38 56 -49 44z"/>
<path d="M985 2120 c-3 -5 0 -10 8 -10 8 0 35 -19 61 -41 26 -23 49 -39 52
-36 4 4 -75 74 -103 90 -6 4 -14 3 -18 -3z"/>
<path d="M1426 1845 c4 -8 11 -15 16 -15 6 0 5 6 -2 15 -7 8 -14 15 -16 15 -2
0 -1 -7 2 -15z"/>
<path d="M3178 1783 c6 -2 18 -2 25 0 6 3 1 5 -13 5 -14 0 -19 -2 -12 -5z"/>
<path d="M3785 1090 c-3 -5 -1 -10 4 -10 6 0 11 5 11 10 0 6 -2 10 -4 10 -3 0
-8 -4 -11 -10z"/>
<path d="M3818 1043 c7 -3 16 -2 19 1 4 3 -2 6 -13 5 -11 0 -14 -3 -6 -6z"/>
<path d="M1686 1787 c3 -10 9 -15 12 -12 3 3 0 11 -7 18 -10 9 -11 8 -5 -6z"/>
<path d="M1744 1784 c-4 -10 -9 -22 -11 -26 -2 -5 0 -8 6 -8 11 0 26 39 17 47
-3 3 -9 -3 -12 -13z"/>
<path d="M1698 1769 c-17 -18 -17 -19 2 -19 13 0 20 7 20 20 0 24 0 24 -22 -1z"/>
<path d="M1835 1779 c-4 -6 -13 -8 -21 -5 -8 3 -14 -1 -14 -9 0 -9 -6 -12 -17
-8 -13 4 -15 3 -8 -5 6 -6 19 -13 30 -15 11 -1 25 -6 32 -10 6 -4 14 -3 18 3
3 5 -1 10 -10 10 -10 0 -15 6 -13 18 2 9 10 16 16 15 7 -2 12 2 12 7 0 13 -17
13 -25 -1z"/>
<path d="M1880 1780 c0 -5 5 -10 11 -10 5 0 7 5 4 10 -3 6 -8 10 -11 10 -2 0
-4 -4 -4 -10z"/>
<path d="M1910 1770 c0 -5 5 -10 11 -10 5 0 7 5 4 10 -3 6 -8 10 -11 10 -2 0
-4 -4 -4 -10z"/>
<path d="M1900 1720 c0 -5 5 -10 10 -10 6 0 10 5 10 10 0 6 -4 10 -10 10 -5 0
-10 -4 -10 -10z"/>
<path d="M2018 1452 c-17 -28 -17 -30 2 -47 19 -17 20 -17 20 1 0 11 8 30 17
44 15 21 15 23 0 17 -8 -3 -17 -1 -19 4 -2 5 -11 -3 -20 -19z m13 -19 c-12
-20 -14 -14 -5 12 4 9 9 14 11 11 3 -2 0 -13 -6 -23z"/>
<path d="M1940 1449 c0 -5 5 -7 10 -4 6 3 10 8 10 11 0 2 -4 4 -10 4 -5 0 -10
-5 -10 -11z"/>
<path d="M1666 1370 c-18 -44 -20 -60 -8 -60 4 0 14 23 24 50 19 60 7 67 -16
10z"/>
<path d="M2001 1322 c-14 -26 -14 -59 0 -67 13 -9 15 -7 23 30 6 28 5 29 -9
11 -17 -23 -20 -14 -4 16 6 11 8 22 6 25 -3 2 -10 -4 -16 -15z"/>
<path d="M630 1303 c0 -10 5 -25 10 -33 7 -11 10 -7 10 18 0 17 -4 32 -10 32
-5 0 -10 -8 -10 -17z"/>
<path d="M1865 1273 c-3 -27 -9 -61 -12 -78 -10 -54 11 -15 24 43 15 71 15 82
4 82 -6 0 -13 -21 -16 -47z"/>
<path d="M711 1244 c0 -11 3 -14 6 -6 3 7 2 16 -1 19 -3 4 -6 -2 -5 -13z"/>
<path d="M630 1234 c0 -8 5 -12 10 -9 6 3 10 10 10 16 0 5 -4 9 -10 9 -5 0
-10 -7 -10 -16z"/>
<path d="M759 1188 c4 -28 6 -29 9 -9 2 13 0 27 -5 32 -6 6 -7 -3 -4 -23z"/>
<path d="M1951 1188 c-10 -30 -9 -31 4 -14 8 11 15 26 15 33 0 22 -8 14 -19
-19z"/>
<path d="M731 1164 c0 -11 3 -14 6 -6 3 7 2 16 -1 19 -3 4 -6 -2 -5 -13z"/>
<path d="M801 1170 c0 -8 4 -24 9 -35 l9 -20 0 20 c0 11 -4 27 -9 35 -9 13
-10 13 -9 0z"/>
<path d="M1960 1135 c0 -8 5 -15 10 -15 6 0 10 7 10 15 0 8 -4 15 -10 15 -5 0
-10 -7 -10 -15z"/>
<path d="M740 1131 c0 -6 4 -13 10 -16 6 -3 7 1 4 9 -7 18 -14 21 -14 7z"/>
<path d="M1926 1123 c-6 -14 -5 -15 5 -6 7 7 10 15 7 18 -3 3 -9 -2 -12 -12z"/>
<path d="M1970 1080 c-6 -12 -9 -24 -7 -27 3 -2 11 5 17 17 6 12 9 24 7 27 -3
2 -11 -5 -17 -17z"/>
<path d="M1947 1021 c-4 -17 -3 -21 5 -13 5 5 8 16 6 23 -3 8 -7 3 -11 -10z"/>
<path d="M2608 1643 c6 -2 18 -2 25 0 6 3 1 5 -13 5 -14 0 -19 -2 -12 -5z"/>
<path d="M4626 4185 c-11 -8 -15 -15 -9 -15 6 0 16 7 23 15 16 19 11 19 -14 0z"/>
<path d="M3730 4155 c0 -8 4 -15 10 -15 5 0 7 7 4 15 -4 8 -8 15 -10 15 -2 0
-4 -7 -4 -15z"/>
<path d="M2127 4129 c4 -13 8 -18 11 -10 2 7 -1 18 -6 23 -8 8 -9 4 -5 -13z"/>
<path d="M125 4127 c-3 -7 -1 -24 5 -38 8 -19 9 -20 8 -4 -2 11 1 25 5 32 4 6
3 14 -3 18 -6 3 -13 0 -15 -8z"/>
<path d="M1 4103 c-1 -16 5 -23 17 -23 10 0 13 3 6 8 -6 4 -14 14 -17 22 -4
10 -6 8 -6 -7z"/>
<path d="M51 4098 c-1 -30 16 -38 26 -12 3 8 12 13 19 10 8 -3 14 -1 14 4 0
15 -40 12 -41 -2 0 -7 -4 -4 -9 7 -8 18 -9 17 -9 -7z"/>
<path d="M3742 4070 c0 -14 2 -19 5 -12 2 6 2 18 0 25 -3 6 -5 1 -5 -13z"/>
<path d="M3662 4035 c0 -16 2 -22 5 -12 2 9 2 23 0 30 -3 6 -5 -1 -5 -18z"/>
<path d="M3742 4015 c0 -16 2 -22 5 -12 2 9 2 23 0 30 -3 6 -5 -1 -5 -18z"/>
<path d="M4222 4020 c0 -14 2 -19 5 -12 2 6 2 18 0 25 -3 6 -5 1 -5 -13z"/>
<path d="M1905 3995 c16 -13 31 -22 34 -20 8 8 -32 45 -48 45 -11 -1 -7 -8 14
-25z"/>
<path d="M13 3943 c9 -2 25 -2 35 0 9 3 1 5 -18 5 -19 0 -27 -2 -17 -5z"/>
<path d="M951 3924 c0 -11 3 -14 6 -6 3 7 2 16 -1 19 -3 4 -6 -2 -5 -13z"/>
<path d="M3942 3915 c0 -16 2 -22 5 -12 2 9 2 23 0 30 -3 6 -5 -1 -5 -18z"/>
<path d="M210 3856 l0 -67 -92 1 c-51 1 -99 1 -105 1 -7 -1 -13 -12 -13 -25 0
-18 6 -25 23 -28 25 -3 184 16 192 23 7 8 8 149 1 156 -3 4 -6 -24 -6 -61z"/>
<path d="M3673 3860 c0 -36 2 -50 4 -32 2 17 2 47 0 65 -2 17 -4 3 -4 -33z"/>
<path d="M3990 3790 c0 -16 4 -30 8 -30 4 0 9 14 10 30 1 17 -2 30 -8 30 -5 0
-10 -13 -10 -30z"/>
<path d="M3745 3790 c-3 -5 -1 -18 5 -27 10 -16 11 -16 7 4 -3 12 0 24 7 27 8
3 8 5 -1 5 -6 1 -15 -3 -18 -9z"/>
<path d="M3822 3780 c0 -14 2 -19 5 -12 2 6 2 18 0 25 -3 6 -5 1 -5 -13z"/>
<path d="M3947 3723 c-4 -3 -7 -11 -7 -17 0 -6 5 -5 12 2 6 6 9 14 7 17 -3 3
-9 2 -12 -2z"/>
<path d="M3677 3698 c-2 -7 -1 -22 4 -33 6 -16 8 -14 8 13 1 33 -4 41 -12 20z"/>
<path d="M3821 3694 c0 -11 3 -14 6 -6 3 7 2 16 -1 19 -3 4 -6 -2 -5 -13z"/>
<path d="M951 3634 c0 -11 3 -14 6 -6 3 7 2 16 -1 19 -3 4 -6 -2 -5 -13z"/>
<path d="M3857 3643 c-6 -9 1 -74 8 -81 3 -3 5 16 5 41 0 45 -4 56 -13 40z"/>
<path d="M929 3595 c-3 -27 -9 -59 -13 -70 -6 -16 -6 -17 3 -5 8 11 11 -130
11 -503 0 -343 -3 -516 -10 -512 -5 3 -10 31 -10 61 0 30 -4 54 -10 54 -21 0
-21 49 -1 93 23 50 26 84 11 107 -8 11 -9 9 -5 -10 3 -14 -3 -51 -15 -84 -24
-70 -24 -79 -5 -119 8 -18 15 -52 17 -77 2 -30 7 -44 16 -43 8 2 12 -12 12
-46 0 -55 16 -76 26 -35 4 17 2 29 -7 35 -12 7 -11 9 1 9 13 0 13 1 0 10 -13
9 -13 10 0 10 9 0 11 3 5 8 -6 4 -11 187 -12 505 -2 456 0 497 14 485 15 -12
15 -11 5 9 -15 27 -15 36 -1 27 8 -5 8 -1 0 13 -5 11 -7 37 -4 58 4 26 3 36
-5 31 -6 -3 -12 3 -14 16 -2 13 -6 1 -9 -27z"/>
<path d="M3681 3568 c0 -38 2 -68 7 -68 4 0 6 21 4 48 -5 82 -9 89 -11 20z"/>
<path d="M2065 3544 c-29 -14 -7 -13 28 1 25 11 21 -10 -5 -24 -19 -9 -15 -10
27 -5 60 7 66 11 41 30 -25 18 -53 17 -91 -2z"/>
<path d="M4596 3533 c-1 -1 -69 -5 -151 -8 -83 -3 -170 -7 -195 -9 -25 -2
-106 -7 -180 -11 -74 -3 -137 -9 -140 -12 -7 -8 377 6 494 18 54 6 120 10 145
9 76 -3 111 0 111 8 0 6 -78 11 -84 5z"/>
<path d="M3685 3470 c-3 -5 -2 -18 4 -27 7 -14 9 -12 8 10 -2 30 -3 31 -12 17z"/>
<path d="M1111 3330 c-1 -15 -3 -365 -2 -524 1 -49 3 -87 5 -85 10 10 15 292
7 449 -4 96 -9 168 -10 160z"/>
<path d="M1685 3330 c3 -5 11 -10 16 -10 6 0 7 5 4 10 -3 6 -11 10 -16 10 -6
0 -7 -4 -4 -10z"/>
<path d="M855 3260 c-3 -11 -2 -27 3 -37 8 -13 10 -9 10 20 0 42 -4 46 -13 17z"/>
<path d="M3150 3178 c0 -4 46 -8 102 -8 56 0 99 3 95 6 -9 9 -197 11 -197 2z"/>
<path d="M3369 3179 c-10 -6 -4 -9 19 -9 17 0 32 2 32 4 0 9 -39 13 -51 5z"/>
<path d="M3445 3180 c-19 -8 -19 -9 3 -9 12 -1 22 4 22 9 0 6 -1 10 -2 9 -2 0
-12 -4 -23 -9z"/>
<path d="M3823 3183 c76 -2 198 -2 270 0 73 1 11 3 -138 3 -148 0 -208 -2
-132 -3z"/>
<path d="M4238 3183 c7 -3 16 -2 19 1 4 3 -2 6 -13 5 -11 0 -14 -3 -6 -6z"/>
<path d="M4338 3183 c17 -2 47 -2 65 0 17 2 3 4 -33 4 -36 0 -50 -2 -32 -4z"/>
<path d="M4443 3135 c0 -27 2 -38 4 -22 2 15 2 37 0 50 -2 12 -4 0 -4 -28z"/>
<path d="M960 3071 c0 -44 5 -83 10 -86 7 -4 9 22 8 75 -1 45 -6 84 -10 86 -5
3 -8 -31 -8 -75z"/>
<path d="M867 3092 c-7 -35 -3 -38 11 -7 6 13 7 27 3 30 -5 2 -11 -8 -14 -23z"/>
<path d="M4441 3064 c0 -11 3 -14 6 -6 3 7 2 16 -1 19 -3 4 -6 -2 -5 -13z"/>
<path d="M4252 3053 c-13 -26 -4 -43 24 -43 26 0 33 27 12 48 -16 16 -26 15
-36 -5z"/>
<path d="M3995 3000 c-3 -6 1 -7 9 -4 18 7 21 14 7 14 -6 0 -13 -4 -16 -10z"/>
<path d="M960 2933 c0 -24 3 -33 9 -25 7 12 4 62 -5 62 -2 0 -4 -17 -4 -37z"/>
<path d="M965 2850 c-3 -5 -1 -10 4 -10 6 0 11 5 11 10 0 6 -2 10 -4 10 -3 0
-8 -4 -11 -10z"/>
<path d="M3568 2771 c-18 -16 -29 -33 -25 -38 5 -4 18 4 29 20 15 20 28 27 54
27 83 0 112 -66 52 -121 -40 -36 -21 -39 21 -3 41 34 42 79 3 117 -39 38 -91
37 -134 -2z"/>
<path d="M4135 2783 c-6 -5 -12 -19 -12 -32 -2 -30 -18 -41 -60 -41 -17 0 -43
-4 -57 -10 -21 -8 -26 -16 -26 -46 0 -32 2 -36 23 -31 12 3 37 8 56 12 l34 7
-47 -57 c-25 -31 -46 -61 -46 -66 0 -5 11 -15 25 -21 23 -10 29 -8 65 27 l40
39 0 -53 0 -52 33 3 32 3 6 72 c6 86 8 88 58 92 21 1 31 27 24 65 -4 21 -11
26 -34 26 -29 0 -30 2 -33 50 -1 16 -63 26 -81 13z m62 -42 c-6 -31 5 -41 44
-41 16 0 20 -6 17 -27 -2 -23 -9 -29 -34 -31 -28 -3 -32 -8 -38 -40 -3 -20 -6
-56 -6 -79 0 -32 -4 -43 -15 -43 -12 0 -15 13 -15 60 0 33 -4 60 -9 60 -5 0
-26 -20 -47 -45 -35 -44 -57 -55 -69 -36 -3 6 22 39 55 74 33 35 57 66 54 69
-2 3 -30 -1 -62 -8 -73 -17 -72 -17 -72 5 0 23 45 41 101 41 36 0 39 2 39 28
0 35 6 42 38 42 22 0 24 -3 19 -29z"/>
<path d="M3821 2762 c-39 -12 -83 -74 -88 -126 -4 -28 -2 -46 4 -46 6 0 13 21
16 46 3 34 13 54 38 80 39 40 74 44 114 12 26 -20 27 -25 22 -79 -3 -36 -14
-73 -28 -95 -15 -25 -18 -35 -8 -32 24 8 49 63 55 124 6 54 4 63 -17 87 -26
29 -69 40 -108 29z"/>
<path d="M4440 2749 c-1 -2 -3 -210 -6 -461 -5 -402 -4 -458 9 -458 13 0 15
32 18 213 2 116 3 237 2 267 -7 326 -11 431 -17 437 -3 3 -6 4 -6 2z"/>
<path d="M3633 2719 c9 -5 17 -17 17 -26 0 -13 3 -14 12 -5 14 14 -6 42 -31
42 -14 -1 -14 -2 2 -11z"/>
<path d="M1110 2695 c0 -8 4 -15 10 -15 5 0 7 7 4 15 -4 8 -8 15 -10 15 -2 0
-4 -7 -4 -15z"/>
<path d="M3803 2667 c-23 -34 -29 -57 -15 -57 4 0 13 13 20 30 15 33 46 47 67
30 19 -16 19 -61 0 -86 -17 -22 -19 -34 -5 -34 13 0 27 28 35 72 6 29 3 40
-14 57 -31 31 -62 27 -88 -12z"/>
<path d="M972 2498 c-2 -25 0 -29 8 -18 12 18 13 50 2 50 -4 0 -9 -15 -10 -32z"/>
<path d="M4145 2439 c-33 -5 -94 -14 -135 -20 -102 -14 -123 -20 -113 -30 5
-5 53 0 108 10 102 19 275 37 275 28 0 -3 -66 -26 -147 -52 -82 -26 -157 -51
-168 -55 -19 -8 -19 -9 3 -9 13 -1 93 22 178 50 121 41 154 55 152 68 -4 19
-63 23 -153 10z"/>
<path d="M4270 2330 c0 -11 5 -20 10 -20 6 0 10 9 10 20 0 11 -4 20 -10 20 -5
0 -10 -9 -10 -20z"/>
<path d="M4091 2311 c-6 -10 -22 -22 -36 -25 -14 -4 -23 -11 -20 -16 3 -5 13
-6 21 -3 14 5 15 3 5 -15 -13 -24 -14 -42 -3 -42 5 0 16 16 26 36 13 28 20 34
29 25 9 -9 8 -16 -1 -32 -17 -27 -5 -40 14 -15 18 25 18 41 -2 60 -8 9 -13 20
-9 25 3 5 1 12 -4 16 -6 3 -15 -3 -20 -14z"/>
<path d="M4230 2296 c0 -33 2 -36 30 -36 35 0 49 -23 31 -51 -9 -15 -8 -19 4
-19 8 0 18 12 21 27 6 20 2 31 -16 45 -12 10 -28 18 -36 18 -8 0 -14 9 -14 19
0 11 -4 23 -10 26 -6 4 -10 -8 -10 -29z"/>
<path d="M4151 2310 c-1 -8 8 -26 19 -40 15 -19 20 -21 20 -9 0 9 -9 27 -20
40 -13 17 -19 19 -19 9z"/>
<path d="M165 2210 c-3 -6 1 -7 9 -4 18 7 21 14 7 14 -6 0 -13 -4 -16 -10z"/>
<path d="M4056 2104 c-9 -24 -8 -26 14 -19 22 7 26 -5 9 -22 -8 -8 -8 -13 0
-17 18 -11 37 40 21 59 -16 19 -36 19 -44 -1z"/>
<path d="M4205 2113 c-58 -5 -75 -16 -75 -49 0 -19 6 -24 28 -25 16 -1 20 -3
10 -6 -26 -7 -22 -42 6 -54 19 -9 31 -8 57 5 39 20 39 20 39 0 0 -12 9 -14 38
-12 l37 3 7 60 c4 32 4 63 0 67 -11 11 -86 16 -147 11z m135 -30 c0 -55 -13
-93 -31 -93 -11 0 -18 6 -16 12 3 17 -44 23 -53 7 -14 -21 -43 -1 -38 26 5 22
2 25 -24 25 -19 0 -28 4 -26 12 6 18 43 26 121 27 58 1 67 -1 67 -16z"/>
<path d="M4184 1935 c0 -14 6 -23 11 -22 14 5 13 39 -1 44 -7 2 -11 -6 -10
-22z"/>
<path d="M4244 1916 c-3 -13 -15 -27 -27 -31 -14 -4 -17 -8 -9 -12 6 -2 12
-11 12 -18 0 -7 8 -23 18 -35 15 -18 25 -22 46 -16 31 8 69 43 61 56 -3 5 1
20 10 34 15 23 15 25 -5 36 -16 8 -25 8 -35 0 -9 -7 -15 -8 -20 0 -12 19 -44
11 -51 -14z m36 0 c0 -3 -4 -8 -10 -11 -5 -3 -10 -1 -10 4 0 6 5 11 10 11 6 0
10 -2 10 -4z m8 -35 c-26 -34 -34 -37 -41 -16 -4 9 4 20 21 29 41 21 46 19 20
-13z m32 -32 c-13 -23 -31 -32 -57 -27 -14 2 -10 8 17 25 44 28 54 29 40 2z"/>
<path d="M4435 1713 c3 -120 12 -180 28 -190 5 -3 7 -2 4 4 -3 5 -7 73 -8 151
-1 110 -4 142 -14 142 -10 0 -13 -24 -10 -107z"/>
<path d="M4454 1460 c1 -27 4 -52 8 -56 4 -4 7 16 7 45 -1 28 -5 53 -9 56 -3
2 -6 -18 -6 -45z"/>
<path d="M3258 1053 c6 -2 18 -2 25 0 6 3 1 5 -13 5 -14 0 -19 -2 -12 -5z"/>
<path d="M3123 1013 c15 -2 37 -2 50 0 12 2 0 4 -28 4 -27 0 -38 -2 -22 -4z"/>
<path d="M3679 916 c-2 -2 -656 -7 -1454 -11 -797 -5 -1535 -9 -1640 -11 -104
-1 -280 -3 -390 -4 -110 -1 -191 -5 -180 -9 20 -8 142 -7 1103 4 426 5 483 4
488 -10 4 -8 11 -15 16 -15 6 0 8 7 4 15 -5 13 10 15 97 15 57 0 107 -4 113
-9 16 -16 50 -17 68 -2 13 11 22 12 35 4 11 -7 23 -7 34 -2 9 5 119 8 244 7
l228 -3 -1 -24 -1 -24 25 28 25 29 956 4 c526 2 965 3 976 2 52 -2 83 -2 118
0 23 2 42 -2 46 -9 11 -17 91 -3 91 15 0 12 -80 14 -499 14 -274 0 -500 -2
-502 -4z"/>
<path d="M4265 880 c-20 -5 -24 -8 -10 -9 17 -1 18 -3 5 -12 -11 -8 -8 -9 14
-4 15 3 35 13 43 20 13 13 12 15 -4 14 -10 -1 -31 -5 -48 -9z"/>
<path d="M140 841 c0 -5 9 -7 20 -4 11 3 20 7 20 9 0 2 -9 4 -20 4 -11 0 -20
-4 -20 -9z"/>
<path d="M798 843 c6 -2 18 -2 25 0 6 3 1 5 -13 5 -14 0 -19 -2 -12 -5z"/>
<path d="M1342 840 c10 -6 25 -7 40 -1 20 9 18 10 -17 10 -31 0 -36 -2 -23 -9z"/>
<path d="M1045 690 c-3 -6 1 -7 9 -4 18 7 21 14 7 14 -6 0 -13 -4 -16 -10z"/>
<path d="M970 650 c-9 -6 -10 -10 -3 -10 6 0 15 5 18 10 8 12 4 12 -15 0z"/>
<path d="M868 613 c6 -2 18 -2 25 0 6 3 1 5 -13 5 -14 0 -19 -2 -12 -5z"/>
<path d="M670 521 c-31 -17 -68 -19 -352 -22 -295 -4 -318 -5 -318 -21 0 -17
23 -18 339 -18 238 0 342 -3 347 -11 5 -8 8 -8 14 0 10 17 90 19 1500 26 696
4 1281 8 1301 10 19 2 285 5 590 6 305 1 562 5 572 7 9 2 17 11 17 19 0 13
-45 14 -332 9 -183 -3 -792 -8 -1353 -11 -561 -3 -1312 -7 -1670 -11 l-650 -5
25 20 c31 25 17 26 -30 2z"/>
<path d="M4306 453 c-1 -2 -264 -3 -584 -3 -320 0 -583 -4 -586 -8 -2 -4 312
-6 697 -6 801 2 773 2 764 11 -6 6 -285 11 -291 6z"/>
<path d="M4620 450 c0 -5 12 -10 26 -10 14 0 23 4 19 10 -3 6 -15 10 -26 10
-10 0 -19 -4 -19 -10z"/>
<path d="M87 439 c-10 -6 -25 -8 -33 -5 -8 3 -14 1 -14 -4 0 -6 25 -10 55 -10
34 0 55 4 55 11 0 7 -10 9 -26 5 -17 -5 -23 -3 -19 4 8 12 5 12 -18 -1z"/>
<path d="M498 443 c-30 -8 -20 -19 16 -19 24 0 32 4 29 13 -5 13 -14 14 -45 6z"/>
<path d="M560 440 c0 -5 6 -10 14 -10 8 0 18 5 21 10 3 6 -3 10 -14 10 -12 0
-21 -4 -21 -10z"/>
<path d="M620 440 c-8 -5 -11 -12 -7 -17 5 -4 12 -1 16 6 6 9 11 10 15 2 8
-12 26 -6 26 10 0 12 -31 12 -50 -1z"/>
<path d="M715 440 c-3 -5 3 -10 15 -10 12 0 18 5 15 10 -3 6 -10 10 -15 10 -5
0 -12 -4 -15 -10z"/>
<path d="M1020 440 c0 -7 24 -20 36 -20 13 0 1 19 -16 23 -11 3 -20 2 -20 -3z"/>
<path d="M1076 442 c-8 -14 34 -23 53 -12 14 8 14 9 -1 10 -9 0 -23 3 -31 6
-8 3 -18 1 -21 -4z"/>
<path d="M1920 439 c-63 -3 49 -5 250 -6 201 0 354 1 340 3 -48 7 -476 9 -590
3z"/>
<path d="M2684 439 c-13 -5 -5 -8 25 -8 24 -1 41 2 37 6 -9 10 -40 11 -62 2z"/>
<path d="M2786 439 c2 -4 20 -7 39 -7 19 0 37 3 39 7 2 3 -15 6 -39 6 -24 0
-41 -3 -39 -6z"/>
<path d="M2891 441 c-10 -7 -7 -9 12 -8 15 1 27 5 27 10 0 10 -22 9 -39 -2z"/>
<path d="M2945 440 c3 -6 31 -9 60 -9 71 2 63 15 -10 17 -34 1 -53 -2 -50 -8z"/>
<path d="M3070 439 c0 -5 9 -9 19 -9 11 0 22 4 25 9 3 5 -6 9 -19 9 -14 0 -25
-4 -25 -9z"/>
<path d="M0 430 c0 -6 7 -10 15 -10 8 0 15 2 15 4 0 2 -7 6 -15 10 -8 3 -15 1
-15 -4z"/>
<path d="M200 429 c0 -5 14 -9 32 -9 36 0 31 12 -7 16 -14 1 -25 -2 -25 -7z"/>
<path d="M280 430 c-13 -8 -12 -10 3 -10 9 0 17 5 17 10 0 12 -1 12 -20 0z"/>
<path d="M320 432 c0 -4 14 -9 30 -10 17 -1 30 1 30 5 0 5 -14 9 -30 10 -17 1
-30 -1 -30 -5z"/>
<path d="M980 430 c-13 -8 -13 -10 2 -10 9 0 20 5 23 10 8 13 -5 13 -25 0z"/>
<path d="M1150 430 c0 -5 7 -10 16 -10 8 0 12 5 9 10 -3 6 -10 10 -16 10 -5 0
-9 -4 -9 -10z"/>
<path d="M1198 433 c7 -3 16 -2 19 1 4 3 -2 6 -13 5 -11 0 -14 -3 -6 -6z"/>
<path d="M1498 433 c56 -2 148 -2 205 0 56 1 10 3 -103 3 -113 0 -159 -2 -102
-3z"/>
<path d="M2548 433 c7 -3 16 -2 19 1 4 3 -2 6 -13 5 -11 0 -14 -3 -6 -6z"/>
<path d="M2588 433 c6 -2 18 -2 25 0 6 3 1 5 -13 5 -14 0 -19 -2 -12 -5z"/>
<path d="M2638 433 c7 -3 16 -2 19 1 4 3 -2 6 -13 5 -11 0 -14 -3 -6 -6z"/>
<path d="M4544 405 c-19 -14 -19 -14 2 -15 12 0 24 7 28 15 7 19 -5 19 -30 0z"/>
<path d="M40 376 c0 -2 7 -7 16 -10 8 -3 12 -2 9 4 -6 10 -25 14 -25 6z"/>
<path d="M235 320 c-3 -5 -2 -10 4 -10 5 0 13 5 16 10 3 6 2 10 -4 10 -5 0
-13 -4 -16 -10z"/>
<path d="M200 309 c0 -5 5 -7 10 -4 6 3 10 8 10 11 0 2 -4 4 -10 4 -5 0 -10
-5 -10 -11z"/>
<path d="M1173 281 c-7 -11 -13 -37 -13 -56 l0 -35 -177 0 c-389 -1 -577 0
-769 6 -151 5 -203 4 -209 -5 -4 -7 -4 -15 0 -19 6 -6 749 -4 1028 3 l127 3 0
-52 c0 -28 4 -56 8 -62 7 -11 105 -12 110 -1 7 20 1 27 -15 19 -10 -5 -32 -9
-50 -10 -29 -2 -33 1 -39 34 -4 20 -2 46 5 60 6 13 7 24 3 24 -12 0 -1 78 13
90 10 8 23 7 49 -4 32 -13 36 -19 36 -50 0 -27 -4 -36 -17 -37 -11 0 -13 -3
-5 -6 7 -3 12 -22 12 -46 0 -73 12 -31 17 62 5 84 4 91 -13 91 -11 0 -35 3
-54 6 -28 4 -37 1 -47 -15z"/>
<path d="M1325 189 c-14 -6 -9 -8 22 -7 63 3 74 -12 72 -99 -1 -41 1 -77 5
-80 3 -4 6 39 6 95 l0 102 -43 -1 c-23 -1 -51 -6 -62 -10z"/>
<path d="M3757 46 c-16 -23 -15 -23 8 -12 14 6 25 17 25 24 0 20 -16 14 -33
-12z"/>
<path d="M1251 21 c-14 -9 -5 -18 18 -17 18 1 27 26 9 26 -7 0 -19 -4 -27 -9z"/>
<path d="M873 14 c4 -4 27 -7 52 -7 25 0 48 3 52 7 3 3 -20 6 -52 6 -32 0 -55
-3 -52 -6z"/>
<path d="M1038 13 c29 -2 74 -2 100 0 26 2 2 3 -53 3 -55 0 -76 -1 -47 -3z"/>
<path d="M1198 13 c7 -3 16 -2 19 1 4 3 -2 6 -13 5 -11 0 -14 -3 -6 -6z"/>
<path d="M418 3 c84 -2 219 -2 300 0 81 1 12 3 -153 3 -165 0 -231 -2 -147 -3z"/>
</g>
</svg>
