<?xml version="1.0" standalone="no"?>
<!DOCTYPE svg PUBLIC "-//W3C//DTD SVG 20010904//EN"
 "http://www.w3.org/TR/2001/REC-SVG-20010904/DTD/svg10.dtd">
<svg version="1.0" xmlns="http://www.w3.org/2000/svg"
 width="736.000000pt" height="736.000000pt" viewBox="0 0 736.000000 736.000000"
 preserveAspectRatio="xMidYMid meet">

<g transform="translate(0.000000,736.000000) scale(0.100000,-0.100000)"
fill="#000000" stroke="none">
<path d="M557 7308 c-78 -253 -120 -653 -119 -1138 0 -214 -4 -334 -14 -402
-23 -161 -34 -355 -23 -438 5 -41 12 -108 15 -147 5 -78 61 -392 95 -533 31
-134 99 -340 124 -379 12 -20 41 -53 64 -74 l41 -37 -16 -51 c-9 -27 -30 -63
-45 -79 -49 -48 -29 -77 23 -33 10 9 18 11 22 4 9 -14 -6 -40 -43 -75 -22 -22
-28 -32 -19 -37 15 -10 -6 -28 -67 -59 -47 -23 -24 -27 30 -4 20 8 34 10 30 5
-9 -15 1 -14 38 5 l32 16 -35 -36 c-19 -21 -66 -53 -105 -73 -38 -19 -59 -33
-45 -29 14 3 36 9 49 13 42 11 15 -13 -31 -27 -24 -7 -47 -17 -52 -21 -14 -12
34 -21 82 -15 32 4 41 3 27 -3 -11 -5 -43 -10 -72 -10 -43 -1 -51 -4 -46 -17
4 -12 0 -14 -21 -8 -28 7 -34 -4 -14 -24 7 -7 8 -12 3 -12 -5 0 -24 14 -42 32
-29 28 -33 29 -33 12 0 -29 37 -94 78 -136 20 -21 33 -40 30 -43 -8 -8 -125
72 -148 102 -11 14 -20 35 -20 47 -1 21 -1 21 -15 2 -8 -11 -15 -30 -15 -43 0
-25 29 -89 61 -135 11 -14 19 -41 19 -60 0 -18 7 -43 15 -55 19 -28 109 -56
152 -48 46 8 41 -2 -9 -22 -39 -15 -41 -18 -19 -23 20 -4 15 -9 -35 -29 -33
-13 -153 -70 -269 -127 l-210 -104 1 -427 c1 -236 5 -515 8 -620 4 -150 3
-193 -7 -193 -8 0 -8 -3 2 -9 11 -7 13 -29 7 -113 -3 -56 -9 -439 -12 -850
l-7 -748 249 0 249 0 0 468 c0 257 3 483 6 502 4 19 7 -191 8 -467 1 -440 3
-503 16 -503 9 0 15 9 16 23 0 12 0 255 -1 540 0 347 3 517 10 517 7 0 10
-178 10 -540 0 -473 2 -540 15 -540 8 0 15 6 15 13 0 6 0 275 0 596 0 322 2
582 5 579 10 -9 12 -156 14 -685 1 -451 3 -503 17 -503 14 0 15 64 13 645 -1
355 0 647 3 650 9 10 18 -397 18 -847 l0 -448 21 0 c18 0 20 4 16 33 -8 40
-12 1355 -5 1362 8 8 18 -541 18 -987 0 -370 2 -408 16 -408 15 0 16 64 13
749 -2 412 -1 753 4 757 4 4 7 -73 8 -172 0 -98 2 -336 5 -529 2 -192 4 -452
4 -577 0 -206 2 -228 17 -228 15 0 16 58 10 798 -4 496 -3 803 3 812 6 10 10
-209 10 -601 0 -764 7 -1009 28 -1009 13 0 14 97 8 848 -4 557 -3 852 4 862 6
10 10 -271 10 -847 l0 -863 21 0 21 0 -7 910 c-5 640 -4 910 3 910 7 0 11 -32
10 -88 0 -48 0 -457 1 -909 1 -788 2 -823 19 -823 18 0 18 38 14 957 -2 527 0
954 4 950 10 -9 10 -23 12 -1089 2 -772 3 -818 20 -818 16 0 17 54 14 1007 -1
554 -1 1005 1 1003 7 -8 17 -828 17 -1442 0 -513 2 -568 16 -568 14 0 16 96
13 1054 -2 580 -1 1057 2 1060 6 7 19 -1133 19 -1721 l0 -393 89 0 90 0 4 28
4 27 2 -27 c1 -20 6 -28 19 -28 15 0 17 6 14 36 -3 26 -1 35 7 30 6 -4 11 -20
11 -37 l0 -29 416 0 416 0 -7 82 c-4 46 -9 101 -11 123 -1 22 -5 67 -8 100 -3
33 -8 96 -11 140 -7 104 -45 407 -80 637 -5 32 -3 39 5 28 8 -11 9 -1 5 40 -9
84 -15 106 -24 91 -10 -16 -22 62 -16 104 5 31 -51 345 -67 380 -7 18 -8 17
-4 -4 9 -42 -11 -8 -23 41 -16 67 -14 78 9 41 11 -18 24 -33 29 -33 5 0 22
-21 39 -47 22 -36 29 -57 26 -83 -3 -34 -3 -34 5 -5 l9 30 1 -30 c2 -40 20
-71 21 -35 1 23 1 24 12 6 6 -11 11 -32 10 -48 -1 -24 2 -28 19 -23 20 7 22 3
34 -49 4 -21 9 -26 14 -17 6 9 11 10 15 2 4 -6 4 -16 1 -22 -4 -6 2 -13 14
-16 15 -4 21 -13 21 -35 0 -16 4 -27 9 -23 15 9 19 -5 31 -120 6 -61 18 -171
27 -245 23 -201 25 -252 7 -155 -36 188 -37 192 -44 165 l-7 -25 -5 25 c-3 14
-3 -6 -1 -45 6 -92 -5 -78 -22 27 -7 46 -13 73 -14 61 -2 -36 30 -247 38 -256
4 -4 6 13 5 37 -3 51 4 86 17 86 5 0 9 -13 9 -30 0 -16 -4 -30 -10 -30 -5 0
-10 -4 -10 -10 0 -5 8 -10 17 -10 13 0 14 -3 5 -12 -18 -18 -15 -38 4 -31 11
4 15 2 13 -6 -3 -7 -7 -11 -10 -9 -3 2 -13 -4 -22 -14 -14 -13 -15 -22 -6 -48
10 -28 24 -33 24 -9 0 23 20 11 22 -13 1 -15 13 -74 27 -130 14 -57 28 -118
31 -135 4 -18 11 -36 17 -39 7 -4 7 2 3 17 -5 13 -9 33 -11 44 -2 11 -6 31 -9
45 -6 23 -5 24 6 5 7 -11 14 -31 15 -45 3 -29 59 -247 79 -305 7 -22 21 -68
31 -102 18 -63 18 -63 55 -63 l37 0 -13 57 c-8 32 -21 81 -29 108 -9 28 -16
60 -16 73 0 12 -7 25 -15 28 -8 4 -13 9 -10 14 2 4 0 22 -6 41 -16 55 -77 371
-105 544 -14 88 -31 166 -37 173 -16 20 -15 121 1 135 11 9 13 7 11 -8 -2 -11
2 -36 8 -55 6 -19 14 -67 17 -107 8 -96 58 -288 147 -568 16 -49 30 -107 31
-127 2 -21 9 -40 16 -43 14 -5 16 -42 2 -47 -5 -2 2 -48 18 -108 29 -115 29
-116 38 -108 3 3 -6 45 -20 94 -14 48 -26 95 -25 104 1 22 14 -11 44 -112 l26
-88 144 0 c100 0 145 3 145 11 0 6 -16 37 -35 69 -19 32 -42 75 -51 95 -8 21
-40 80 -70 132 -30 51 -54 98 -54 104 0 15 -90 129 -106 136 -8 3 -14 13 -14
23 0 9 -13 34 -30 55 -16 21 -30 44 -30 51 0 8 -6 14 -13 14 -7 0 -19 21 -26
48 -70 249 -77 286 -57 279 6 -2 12 -22 14 -45 3 -43 17 -56 25 -24 4 13 5 11
6 -6 0 -12 5 -30 10 -40 5 -9 16 -33 25 -52 15 -35 15 -35 11 -5 l-5 30 15
-32 c8 -17 19 -34 25 -38 5 -3 10 -21 11 -38 0 -18 3 -26 6 -19 8 19 23 4 23
-24 0 -14 4 -22 10 -19 6 4 10 -6 10 -24 0 -36 16 -81 29 -81 6 0 3 17 -5 37
-14 33 -14 36 -1 24 9 -6 18 -30 22 -52 6 -37 25 -64 25 -37 1 7 7 2 14 -11
10 -17 15 -20 18 -10 4 10 9 6 16 -11 10 -25 64 -80 77 -80 4 0 5 7 1 15 -3 9
0 15 8 15 7 0 16 -13 19 -30 8 -36 29 -41 23 -5 -7 38 21 30 43 -12 14 -27 31
-30 31 -7 0 14 3 14 15 4 18 -15 20 -37 3 -43 -7 -2 -10 -8 -5 -12 4 -5 12 -4
19 3 8 8 19 7 41 -4 17 -10 33 -12 38 -7 5 5 23 7 39 5 26 -4 29 -7 18 -20
-11 -13 -10 -14 8 -8 16 5 23 2 27 -14 3 -11 13 -20 24 -20 17 1 17 1 1 11
-25 14 -23 38 2 32 11 -3 20 -14 20 -24 0 -10 5 -21 10 -24 6 -3 10 3 10 14 0
23 7 26 29 12 7 -5 11 -13 7 -19 -3 -5 1 -13 10 -16 22 -9 24 -8 18 9 -4 8 -1
15 4 15 6 0 14 -9 17 -20 9 -28 42 -47 95 -53 45 -6 45 -6 23 13 -24 19 -32
37 -10 23 6 -4 22 -6 35 -4 15 1 22 -3 22 -13 0 -9 5 -16 10 -16 6 0 10 4 10
8 0 5 10 8 23 6 12 -1 22 -3 22 -4 0 -1 62 -10 85 -12 8 0 20 -5 27 -10 7 -5
14 -5 18 2 11 18 35 11 45 -12 l9 -23 7 23 c3 12 11 22 16 22 5 0 7 -9 3 -20
-5 -15 -3 -18 9 -14 8 3 12 12 9 20 -3 8 0 14 6 14 6 0 11 -5 11 -10 0 -11 22
-9 30 2 9 11 70 19 70 9 0 -6 -10 -17 -22 -25 -12 -9 -18 -19 -14 -23 4 -5 21
7 37 25 29 33 49 41 49 20 0 -6 9 -3 20 7 15 14 23 15 34 6 11 -9 15 -8 20 4
9 25 29 17 24 -10 -7 -33 0 -32 12 1 10 25 11 25 35 10 30 -19 35 -20 35 -3 0
20 40 54 48 41 4 -6 14 -11 22 -12 8 -1 24 -2 34 -4 12 -2 24 5 30 17 8 14 20
19 41 18 25 -2 26 -1 10 6 -19 8 -18 9 7 16 15 4 35 4 46 1 15 -5 20 -2 18 11
0 10 6 18 14 18 8 1 24 5 34 10 13 5 21 5 23 -2 2 -6 17 2 33 18 34 34 65 39
55 9 -10 -32 1 -23 19 15 9 19 23 35 31 35 18 0 19 -12 3 -28 -6 -6 -9 -15 -5
-18 3 -4 14 10 23 30 10 20 24 36 32 36 8 0 23 11 33 25 11 13 26 22 33 19 8
-3 22 10 35 32 12 20 25 34 28 30 3 -3 16 16 29 42 13 27 39 64 58 83 21 20
36 44 36 58 0 19 3 21 14 12 12 -10 5 -26 -43 -99 -32 -48 -72 -112 -89 -142
-16 -30 -50 -89 -74 -130 -25 -41 -53 -93 -63 -115 -11 -22 -25 -44 -32 -48
-7 -4 -13 -14 -13 -22 0 -7 -10 -17 -22 -20 -28 -8 -190 -90 -239 -121 -27
-17 -39 -20 -48 -11 -8 8 -11 7 -11 -6 0 -15 -16 -22 -46 -18 -7 1 -14 -5 -18
-14 -9 -24 -28 -18 -22 8 4 15 2 13 -6 -5 -7 -16 -20 -28 -30 -28 -10 0 -18
-4 -18 -10 0 -6 50 -10 129 -10 120 0 129 1 134 20 3 11 10 20 15 20 6 0 8 -9
5 -20 -4 -15 0 -20 14 -20 14 0 23 11 31 38 l11 37 -5 -37 c-3 -23 -1 -38 6
-38 5 0 10 10 10 23 0 12 5 29 11 37 7 11 8 5 3 -22 l-6 -38 310 0 310 0 7 37
c3 20 26 102 50 182 73 244 117 442 150 671 9 63 32 196 50 295 54 288 54 289
43 302 -6 8 -3 15 11 22 11 6 21 23 23 37 4 31 48 68 48 40 0 -9 -7 -16 -16
-16 -13 0 -14 -3 -4 -15 13 -16 3 -77 -26 -160 -7 -22 -23 -134 -34 -250 -26
-254 -63 -533 -85 -635 -9 -41 -20 -97 -25 -125 -4 -27 -18 -95 -29 -150 -49
-231 -50 -235 -23 -235 23 0 46 58 30 77 -8 10 -7 12 4 8 12 -5 17 2 20 27 3
18 17 87 31 153 30 139 76 404 78 449 l2 31 7 -35 6 -35 8 40 c4 22 16 76 26
120 39 166 58 295 70 450 6 88 12 170 14 182 2 13 -1 20 -7 16 -6 -4 -8 0 -4
11 4 10 7 62 7 117 l0 99 48 53 c26 30 74 88 107 130 33 42 60 75 61 74 1 -1
-3 -33 -7 -72 -5 -38 -16 -126 -24 -195 -17 -151 -71 -518 -84 -580 -51 -228
-62 -291 -75 -400 -18 -155 -25 -247 -32 -470 -3 -96 -7 -192 -8 -212 l-2 -38
598 0 598 0 1 98 c1 53 5 108 10 122 5 16 7 -19 6 -98 -2 -110 0 -122 16 -122
15 0 17 11 17 88 0 48 5 94 11 102 7 11 9 -14 4 -87 -6 -100 -6 -103 14 -103
20 0 21 5 22 143 0 78 4 162 9 187 6 29 7 -20 4 -142 -4 -161 -3 -188 10 -188
20 0 24 40 32 305 3 121 10 238 15 260 8 40 6 -77 -7 -408 -6 -137 -5 -157 9
-157 20 0 24 45 37 460 6 184 14 351 19 370 9 37 7 -26 -9 -465 -13 -347 -13
-365 4 -365 15 0 20 66 31 390 5 161 20 529 30 740 2 58 7 203 11 322 4 120
11 218 16 218 11 0 11 -8 -12 -550 -45 -1089 -46 -1120 -26 -1120 15 0 17 26
36 540 6 151 17 433 25 625 8 193 15 368 15 390 0 28 3 35 9 25 5 -8 5 -104 0
-220 -21 -492 -49 -1221 -49 -1287 0 -56 3 -73 14 -73 11 0 15 40 21 203 3
111 8 218 10 237 2 19 6 136 10 260 4 124 8 243 10 265 2 22 7 143 11 270 4
126 10 241 15 255 11 37 11 -47 -1 -312 -5 -126 -15 -330 -20 -455 -6 -126
-13 -339 -17 -476 -6 -226 -5 -247 10 -247 15 0 17 15 18 108 1 59 3 121 4
137 2 17 9 169 15 340 6 171 15 411 20 535 5 124 10 245 10 270 0 31 3 40 10
30 8 -15 4 -152 -20 -695 -5 -126 -12 -322 -15 -435 -3 -113 -8 -224 -11 -247
-5 -37 -3 -43 14 -43 18 0 19 17 31 328 33 908 39 1031 51 1012 4 -7 6 -29 4
-49 -4 -34 -12 -221 -34 -801 -5 -146 -12 -316 -14 -377 -4 -102 -3 -113 13
-113 15 0 19 51 40 613 13 336 24 620 23 630 0 9 4 17 10 17 6 0 8 -35 4 -102
-3 -57 -8 -170 -11 -253 -3 -82 -8 -184 -10 -225 -2 -41 -7 -167 -10 -280 -3
-113 -8 -249 -11 -302 -5 -84 -4 -98 9 -98 20 0 24 48 37 415 18 518 29 758
36 764 9 8 -4 -388 -32 -1026 -6 -136 -5 -153 9 -153 22 0 25 28 32 275 5 199
7 263 25 664 l7 166 1 -145 c1 -132 -4 -305 -24 -792 l-7 -168 47 0 c44 0 46
1 46 30 0 17 -4 30 -8 30 -4 0 -5 28 -1 63 4 34 7 686 7 1449 l0 1388 -77 48
c-42 27 -103 64 -136 82 -33 18 -101 60 -152 92 -51 33 -142 79 -202 103 -60
23 -143 64 -183 91 -76 51 -222 183 -213 192 3 3 31 -19 63 -49 71 -69 164
-140 220 -169 53 -28 214 -70 261 -69 30 0 24 3 -32 18 -74 19 -109 41 -66 41
14 0 49 -6 79 -14 77 -19 147 -25 205 -16 43 6 35 8 -55 10 l-105 3 107 8
c107 7 218 32 218 48 0 5 -37 12 -82 16 -46 4 -98 14 -116 22 -38 18 -55 38
-23 28 34 -10 16 18 -42 66 -83 70 -159 141 -212 199 -39 42 -31 37 35 -24
124 -114 314 -256 344 -256 5 0 -20 19 -55 41 -89 58 -185 137 -216 179 -26
34 -26 35 -2 15 13 -11 51 -45 85 -75 33 -31 78 -66 100 -78 l39 -22 -35 27
c-73 57 -224 210 -262 267 -46 67 -121 221 -116 238 2 6 25 -34 52 -88 53
-110 103 -194 117 -194 5 0 0 15 -11 33 -11 17 -20 37 -20 42 1 6 11 -8 22
-30 12 -22 21 -43 21 -46 -1 -3 20 -28 48 -55 27 -26 49 -45 49 -42 0 4 -23
37 -50 73 -28 37 -59 84 -70 106 -11 21 -34 60 -50 86 -17 26 -30 52 -30 57 0
6 11 -8 25 -31 27 -44 62 -64 75 -43 5 9 9 9 14 1 9 -14 66 -14 101 -1 14 5
24 14 20 19 -3 6 11 13 32 17 21 4 45 11 53 16 11 7 10 8 -7 5 -29 -6 -29 -2
2 31 33 36 32 42 -12 42 -21 0 -56 7 -78 15 l-40 14 50 2 50 1 -50 13 c-27 6
-69 21 -91 33 -53 27 -120 103 -126 143 -4 27 2 36 66 91 82 70 97 95 125 204
49 197 54 248 56 669 2 220 8 537 13 705 6 168 7 334 3 369 -4 36 -4 126 0
200 5 79 4 178 -2 236 -5 55 -14 150 -19 210 -12 131 -32 241 -64 350 l-23 80
-3205 3 -3204 2 -17 -52z m3758 -1113 c277 -44 408 -74 614 -140 76 -25 144
-45 152 -45 35 0 480 -236 594 -315 39 -27 93 -64 120 -82 28 -19 70 -53 95
-76 25 -24 68 -60 95 -82 192 -151 389 -367 459 -502 22 -45 20 -50 -10 -22
-21 19 -24 20 -18 5 5 -14 4 -17 -4 -12 -7 4 -12 3 -12 -3 0 -5 4 -12 9 -15 5
-3 11 -15 14 -26 4 -18 3 -19 -9 -9 -12 10 -13 9 -8 -7 4 -10 10 -23 14 -29 4
-5 10 -19 13 -30 6 -17 4 -16 -13 4 l-21 24 6 -56 c3 -31 10 -68 15 -83 6 -15
9 -29 6 -31 -2 -2 -11 15 -19 39 -14 38 -16 40 -16 15 -1 -15 6 -44 14 -64 8
-20 13 -38 11 -41 -3 -2 -13 14 -22 37 -9 23 -18 40 -20 38 -4 -4 16 -74 31
-110 6 -14 4 -16 -11 -10 -11 4 -3 -9 19 -32 36 -37 37 -40 18 -47 -12 -4 -21
-12 -21 -18 0 -16 -30 -12 -36 5 -4 8 -10 15 -15 15 -6 0 -4 -10 3 -22 13 -24
19 -318 7 -318 -12 0 -18 -114 -7 -127 8 -10 5 -13 -11 -13 -11 0 -21 -4 -21
-10 0 -5 4 -10 10 -10 5 0 7 -14 4 -32 -3 -18 -8 -67 -13 -108 -4 -41 -13 -87
-19 -101 -6 -15 -8 -29 -5 -32 7 -8 -27 -164 -103 -472 -120 -482 -215 -782
-301 -947 -31 -60 -62 -108 -68 -108 -7 0 -15 -13 -18 -29 -3 -16 -29 -52 -57
-81 -27 -28 -50 -54 -50 -57 0 -3 -41 -54 -92 -112 -51 -58 -97 -112 -103
-119 -5 -8 -29 -35 -52 -61 -24 -27 -43 -56 -43 -65 0 -11 -7 -16 -17 -14 -14
2 -17 -3 -15 -21 2 -17 -2 -22 -13 -17 -9 3 -13 2 -10 -4 3 -6 1 -10 -5 -10
-7 0 -10 -7 -6 -15 3 -10 -1 -15 -13 -15 -15 0 -18 -5 -14 -23 4 -21 4 -22
-11 -3 -16 19 -16 19 -16 -5 0 -14 -6 -34 -14 -44 -14 -19 -15 -19 -27 8 -17
37 -30 34 -18 -5 19 -68 5 -106 -20 -52 -6 15 -14 24 -17 21 -4 -3 1 -20 10
-38 15 -29 15 -35 1 -48 -13 -13 -16 -13 -29 4 -8 11 -16 41 -19 68 -2 26 -10
54 -17 60 -10 10 -11 7 -4 -13 4 -14 8 -43 9 -65 2 -22 9 -53 16 -69 11 -23
11 -30 1 -34 -6 -2 -12 -11 -12 -20 -1 -11 -6 -8 -16 11 -19 36 -26 34 -12 -3
11 -32 4 -65 -11 -56 -5 4 -11 -2 -14 -11 -3 -13 -6 -9 -11 12 -38 153 -58
183 -27 40 15 -65 17 -94 9 -108 -8 -16 -12 -17 -19 -6 -6 10 -9 5 -9 -16 l-1
-30 -13 31 c-14 32 -33 50 -43 41 -2 -3 7 -26 22 -51 26 -44 24 -60 -4 -33
-11 10 -12 7 -6 -13 5 -17 4 -22 -3 -15 -16 16 -26 59 -12 50 7 -4 5 5 -4 23
-9 17 -16 41 -16 54 -1 13 -7 34 -16 48 -14 24 -14 24 -8 -15 4 -22 12 -54 19
-72 8 -17 11 -33 9 -36 -2 -2 -5 -32 -5 -66 -1 -62 -13 -82 -21 -36 -3 14 -1
25 5 25 5 0 2 10 -7 22 -9 13 -27 47 -41 75 -13 29 -26 53 -28 53 -2 0 11 -52
30 -116 32 -111 33 -117 17 -135 -22 -24 -31 -15 -37 36 -4 45 -55 165 -69
165 -12 0 -2 -32 28 -92 13 -26 24 -58 23 -70 0 -16 -5 -10 -16 20 -22 63 -27
44 -8 -32 9 -36 15 -76 13 -88 -3 -21 -5 -20 -26 14 -15 24 -21 45 -17 58 5
15 3 18 -8 14 -10 -3 -20 13 -36 56 -13 34 -25 59 -28 56 -3 -3 0 -20 7 -38
20 -54 47 -191 45 -223 -1 -16 -3 -45 -4 -63 -1 -22 -5 -32 -13 -29 -10 3 -13
32 -11 108 l1 104 -12 -90 c-9 -64 -14 -79 -15 -50 -1 22 -4 54 -6 70 -4 40
-44 145 -55 145 -5 0 2 -25 16 -56 18 -41 22 -60 14 -69 -6 -7 -12 -34 -13
-59 -2 -25 -5 -48 -8 -50 -3 -3 -18 35 -33 85 -32 102 -46 114 -21 17 12 -48
15 -84 10 -153 -4 -49 -10 -94 -13 -99 -8 -13 -34 74 -27 92 3 8 -13 74 -36
146 -23 72 -44 125 -47 118 -2 -8 3 -30 12 -50 39 -92 54 -193 42 -287 -2 -16
-4 -48 -5 -70 -2 -74 -24 -20 -29 71 -4 72 -10 99 -38 158 -41 87 -44 76 -5
-19 16 -38 26 -74 23 -80 -8 -12 -12 -144 -5 -168 4 -14 8 -16 19 -6 11 9 14
7 14 -16 0 -25 -2 -26 -17 -14 -10 8 -21 19 -25 24 -4 6 -8 -11 -8 -36 0 -40
-3 -48 -22 -52 -12 -4 -23 -5 -24 -4 -7 9 -10 95 -3 91 5 -3 9 -13 9 -23 0 -9
7 -26 16 -37 15 -19 16 -19 9 1 -16 48 -27 155 -22 219 4 62 3 67 -9 45 -7
-13 -13 -54 -14 -90 0 -86 -10 -159 -22 -159 -6 0 -6 31 -2 78 13 123 12 129
-32 281 -3 8 -6 12 -9 10 -2 -3 5 -38 15 -79 15 -58 18 -92 13 -154 -7 -86
-20 -84 -27 5 -3 30 -6 59 -6 64 -1 6 -5 1 -10 -10 -7 -18 -8 -17 -15 10 -11
49 -37 127 -40 123 -2 -2 5 -35 17 -73 33 -115 39 -147 34 -174 -3 -14 -8 -44
-11 -66 l-7 -40 -14 27 c-8 15 -21 55 -29 90 -21 92 -46 192 -49 195 -2 2 -2
-30 -2 -69 1 -40 -2 -100 -6 -133 -4 -33 -3 -46 1 -30 l8 30 6 -25 c4 -14 9
-45 11 -70 2 -25 3 4 2 63 -2 59 1 102 5 95 5 -7 9 -23 9 -34 0 -27 48 -176
61 -189 14 -14 11 -22 -11 -28 -15 -4 -20 0 -20 16 0 12 -5 29 -10 37 -7 11
-10 3 -10 -28 0 -61 -21 -50 -43 24 -41 130 -68 167 -66 86 1 -36 1 -37 8 -7
l7 30 12 -35 c7 -19 14 -62 16 -95 2 -33 2 -43 -1 -22 -5 44 -23 40 -23 -6 -1
-28 -3 -25 -19 23 -28 82 -31 140 -7 162 9 9 11 20 5 36 -11 28 -8 143 3 136
13 -8 10 2 -13 40 -22 38 -36 48 -24 19 14 -38 22 -104 13 -109 -5 -3 -8 -20
-7 -38 5 -72 -1 -127 -13 -120 -8 5 -9 -5 -4 -37 4 -24 12 -46 18 -50 6 -4 8
-25 3 -58 -8 -62 -30 -70 -23 -8 3 23 1 51 -3 62 -8 18 -9 17 -8 -5 3 -77 -2
-121 -12 -114 -8 4 -9 25 -5 60 5 40 1 63 -14 99 -20 47 -27 111 -11 101 5 -3
12 -25 15 -48 4 -24 11 -50 17 -58 12 -18 5 31 -22 145 -10 44 -19 96 -19 115
0 44 -10 81 -19 75 -4 -2 -4 -35 1 -72 11 -91 12 -93 8 -133 -1 -19 -4 -27 -7
-17 -2 9 -9 17 -15 17 -6 0 -7 -8 -3 -17 4 -10 9 -36 11 -58 2 -27 -2 -18 -14
30 -10 39 -26 86 -34 105 -9 19 -21 53 -28 75 -18 62 -32 95 -40 95 -4 0 -2
-18 3 -40 6 -22 15 -40 19 -40 4 0 8 -10 7 -22 0 -22 -1 -22 -9 -3 -8 19 -9
18 -9 -4 -1 -13 8 -38 19 -57 12 -18 24 -57 27 -86 6 -46 8 -49 13 -23 6 27 7
25 19 -27 7 -32 11 -74 9 -95 -3 -37 -3 -37 -27 32 -13 39 -27 74 -32 80 -10
10 6 -46 35 -124 17 -47 22 -121 7 -121 -5 0 -13 10 -17 23 -8 21 -8 21 -13
-7 -4 -16 -10 -31 -16 -33 -6 -2 -10 39 -10 109 0 115 -11 192 -39 263 -18 47
-20 35 -5 -33 10 -50 1 -117 -16 -117 -5 0 -16 34 -25 75 -26 116 -62 251 -66
247 -2 -2 5 -44 17 -93 49 -212 71 -472 26 -303 -10 35 -20 87 -23 114 -2 28
-8 73 -13 100 l-9 50 -1 -57 c-1 -34 -5 -58 -12 -58 -7 0 -9 -32 -4 -106 5
-68 4 -104 -2 -101 -6 4 -8 -4 -6 -18 6 -27 -14 -95 -28 -95 -5 0 -11 10 -14
23 -2 12 -11 51 -19 87 -8 36 -18 107 -21 158 -4 51 -10 94 -14 96 -3 2 -7
-53 -9 -122 -2 -70 -6 -142 -9 -159 -3 -21 -1 -33 6 -33 6 0 11 -13 11 -30 0
-21 -5 -30 -16 -30 -12 0 -15 6 -10 26 5 18 2 30 -9 38 -12 8 -16 37 -19 128
-2 64 -8 123 -13 130 -4 7 -13 60 -19 118 l-11 105 -2 -200 c-4 -255 -15 -299
-26 -96 -4 85 -13 186 -21 225 l-13 71 5 -130 c3 -92 1 -124 -6 -110 -8 15 -9
8 -4 -28 6 -51 -13 -155 -26 -140 -10 12 -32 165 -29 199 3 19 0 28 -8 27 -10
-2 -11 16 -7 75 4 62 3 73 -7 58 -8 -13 -10 -55 -7 -135 5 -122 0 -162 -20
-169 -9 -3 -12 22 -13 95 0 79 -2 93 -11 73 -6 -14 -11 -75 -12 -137 -1 -94
-4 -115 -19 -130 -18 -17 -18 -17 -12 9 4 15 3 40 -2 55 -6 19 -5 52 3 98 7
39 12 84 12 100 -1 23 -2 24 -5 7 -9 -45 -23 -20 -23 40 0 34 -3 59 -6 56 -10
-11 -14 -298 -4 -298 6 0 10 -5 10 -11 0 -6 -6 -9 -14 -6 -8 3 -16 -2 -19 -14
-3 -10 -12 -19 -20 -19 -18 0 -27 61 -27 193 0 104 -9 121 -21 39 -4 -33 -7
-9 -8 76 -1 84 -5 122 -13 122 -8 0 -10 -46 -5 -175 5 -161 -1 -236 -21 -257
-4 -4 -6 72 -5 168 2 115 0 173 -7 169 -6 -3 -11 -21 -12 -38 -1 -21 -4 -12
-8 23 l-7 55 -2 -55 c-2 -30 -9 -77 -16 -105 -12 -49 -13 -49 -15 70 l-2 120
-12 -60 c-17 -80 -45 -173 -64 -210 -8 -16 -18 -37 -22 -45 -9 -19 -39 -25
-53 -11 -8 8 -8 14 1 23 7 7 8 17 2 29 -7 12 -4 35 10 76 l19 58 -4 -75 c-3
-54 -2 -66 4 -42 11 41 21 53 21 24 0 -11 4 -24 10 -27 6 -4 9 17 8 57 -2 40
6 93 20 147 13 46 21 86 18 89 -7 6 -26 -43 -27 -71 0 -12 -5 -31 -10 -42 -10
-21 -6 63 6 115 4 22 3 21 -9 -5 -8 -16 -18 -51 -22 -77 -3 -26 -10 -45 -15
-43 -4 3 -13 -14 -19 -37 -6 -24 -15 -52 -20 -63 -16 -36 -12 25 6 84 15 52
14 112 -1 64 -4 -13 -12 -23 -19 -23 -16 0 -20 -159 -4 -178 11 -13 10 -14 -8
-8 -14 4 -26 1 -34 -9 -20 -24 -43 -19 -34 7 12 40 26 56 21 25 -3 -18 0 -26
7 -24 6 2 10 21 9 42 -3 47 29 215 52 270 13 31 14 37 2 25 -8 -8 -24 -41 -37
-73 -16 -40 -26 -54 -31 -45 -9 13 -14 -46 -10 -109 2 -32 -11 -66 -34 -90
-34 -33 -16 105 31 245 13 40 24 76 24 80 -1 17 -31 -48 -46 -101 -19 -67 -34
-82 -34 -36 0 54 -8 28 -14 -46 -4 -47 -11 -72 -21 -78 -9 -4 -13 -12 -10 -18
4 -5 1 -9 -4 -9 -29 0 3 147 55 255 25 53 30 75 15 75 -5 0 -18 -21 -29 -48
-12 -26 -31 -60 -43 -77 l-21 -30 5 28 c2 15 0 27 -4 27 -5 0 -9 7 -9 15 0 18
20 20 20 3 1 -13 29 31 30 45 0 19 -62 -37 -80 -71 -27 -52 -25 -18 5 70 29
84 29 90 11 65 -8 -10 -18 -18 -22 -17 -5 1 -10 -3 -12 -9 -2 -6 1 -11 6 -11
5 0 1 -30 -9 -67 -11 -37 -19 -81 -19 -98 -1 -35 -24 -72 -35 -55 -4 6 -2 16
3 23 5 7 9 26 9 43 0 18 10 56 23 85 14 33 18 55 12 57 -7 2 -6 17 4 44 16 47
12 61 -7 26 l-13 -23 -7 30 c-3 18 -8 24 -11 15 -38 -115 -40 -123 -26 -132
10 -8 10 -9 -2 -5 -9 2 -20 -7 -27 -22 -10 -22 -11 -18 -7 34 3 33 9 74 14 90
5 17 12 52 15 79 l5 49 -31 -46 c-53 -81 -57 -75 -34 53 5 28 -3 18 -35 -42
-22 -43 -45 -78 -50 -78 -17 0 -11 37 13 92 30 68 40 108 27 108 -5 0 -10 -6
-10 -14 0 -21 -50 -126 -60 -126 -21 0 -20 26 5 98 41 121 44 132 34 132 -4 0
-18 -33 -30 -73 -12 -39 -26 -80 -31 -90 -9 -18 -10 -18 -22 -1 -13 18 -9 39
20 109 7 17 20 58 28 92 9 34 19 70 22 80 3 10 -1 7 -10 -7 -8 -14 -20 -47
-27 -75 -7 -27 -23 -74 -37 -104 l-25 -54 -14 26 c-12 24 -11 35 11 99 13 40
27 82 32 92 5 12 4 17 -3 13 -5 -4 -18 -30 -27 -59 -9 -29 -23 -64 -31 -78
-12 -22 -14 -23 -20 -7 -4 9 -5 24 -1 32 3 9 -1 15 -11 15 -11 0 -13 4 -6 12
6 7 13 22 17 33 7 18 5 18 -17 -3 l-24 -22 -13 24 c-7 13 -12 36 -12 51 0 21
-4 26 -19 22 -12 -3 -23 2 -29 13 -17 32 -11 43 10 19 19 -24 19 -24 20 -3 0
12 7 35 15 50 8 16 15 36 14 44 0 8 -7 1 -14 -16 -21 -47 -41 -50 -42 -5 0 20
-8 59 -17 86 -15 48 -16 48 -10 10 10 -71 9 -118 -1 -122 -7 -2 -9 12 -7 37 2
22 1 48 -4 58 -4 9 -13 37 -20 62 -9 36 -12 40 -13 17 0 -15 6 -44 14 -65 17
-39 12 -99 -5 -71 -5 7 -7 22 -4 32 7 21 -19 80 -48 109 l-21 21 7 -28 c5 -20
3 -26 -6 -22 -9 3 -12 19 -10 47 l3 43 -20 -24 c-15 -17 -20 -20 -21 -9 0 9 5
21 10 26 7 7 7 19 1 35 -10 24 -10 24 -10 -5 -1 -43 -14 -23 -33 52 -13 47
-16 55 -13 25 3 -23 8 -50 11 -60 5 -16 4 -16 -11 2 -9 11 -18 29 -20 40 -19
91 -53 211 -48 170 3 -27 12 -67 19 -89 15 -42 18 -74 7 -62 -5 4 -7 11 -6 14
1 4 -11 21 -27 37 -34 35 -51 92 -105 353 -23 108 -40 169 -50 175 -12 6 -14
21 -10 65 3 38 2 47 -3 27 -8 -29 -9 -28 -20 21 -6 28 -21 109 -33 180 -12 71
-25 134 -29 139 -4 6 -16 55 -25 110 -9 55 -18 102 -20 106 -2 3 -5 22 -7 42
-1 20 -5 34 -9 32 -7 -5 -7 -3 21 -160 65 -369 178 -855 229 -988 16 -40 5
-33 -24 18 -27 45 -97 312 -129 495 -28 154 -83 377 -88 355 -3 -11 -4 3 -2
30 3 38 1 44 -5 25 -5 -14 -10 -20 -10 -15 -1 6 -12 64 -26 130 -27 134 -29
147 -15 125 5 -8 10 -26 10 -39 0 -13 3 -22 6 -19 10 11 -8 97 -20 95 -6 -1
-11 11 -11 28 0 17 -4 33 -8 36 -8 6 -53 269 -82 484 -18 128 -32 173 -20 65
11 -108 102 -664 135 -824 16 -82 28 -151 26 -153 -9 -10 -103 482 -146 762
-11 77 -27 181 -35 230 -8 50 -24 174 -36 277 -12 103 -25 185 -29 183 -11 -7
20 -281 66 -590 70 -461 141 -811 253 -1235 23 -85 46 -177 52 -205 7 -27 14
-52 18 -55 8 -6 41 -103 37 -107 -8 -8 -60 85 -58 104 1 15 -3 21 -11 17 -20
-7 -86 178 -145 406 -28 107 -81 353 -117 545 -36 193 -72 380 -79 418 -7 37
-10 67 -5 67 4 0 10 -8 12 -17 3 -12 5 -10 6 7 1 20 3 22 11 10 14 -21 13 -53
-2 -44 -13 8 -9 -22 24 -193 12 -61 24 -110 28 -108 3 2 4 -12 2 -31 -3 -24
-1 -34 8 -32 9 2 22 -36 41 -117 38 -159 32 -114 -29 210 -27 149 -56 306 -63
350 -12 73 -14 77 -21 45 -6 -28 -6 -25 -3 15 2 28 -1 84 -6 125 -5 41 -18
166 -29 278 -11 112 -24 211 -29 220 -5 9 -6 25 -2 34 7 19 -9 247 -29 425
-11 91 -11 117 0 143 18 43 29 22 31 -60 1 -36 5 -78 9 -95 5 -17 6 13 3 70
-2 55 -7 106 -9 113 -6 20 15 54 28 46 6 -4 8 -3 5 3 -6 9 131 148 343 350
120 114 284 244 386 307 43 26 138 84 209 128 163 101 335 183 527 253 171 62
218 74 218 54 1 -10 4 -9 14 3 10 13 15 15 24 6 9 -9 12 -7 13 8 0 10 3 13 6
7 7 -18 23 -16 23 3 0 13 3 14 14 5 10 -9 16 -8 26 4 14 17 50 20 50 5 0 -5 5
-10 10 -10 6 0 10 6 10 14 0 21 31 26 235 37 105 5 206 11 225 13 89 10 570
-4 665 -19z m2392 -61 c-3 -3 -12 -4 -19 -1 -8 3 -5 6 6 6 11 1 17 -2 13 -5z
m-5457 -1469 c11 -132 20 -253 20 -268 0 -42 -15 -25 -18 20 -1 21 -7 85 -13
143 -5 58 -12 140 -16 183 -3 43 -10 80 -15 83 -5 3 -7 -5 -4 -18 3 -12 13
-106 21 -208 9 -102 23 -239 31 -305 7 -67 14 -135 14 -153 0 -22 5 -32 15
-32 17 0 20 -25 5 -35 -5 -3 -10 -15 -10 -26 0 -11 4 -18 8 -15 4 2 6 -10 4
-27 -2 -18 4 -79 13 -137 9 -58 19 -128 22 -157 4 -38 9 -50 19 -46 8 3 14 1
14 -5 0 -9 -30 -26 -36 -20 -1 2 -14 71 -28 153 -25 146 -39 234 -91 615 -15
102 -31 216 -36 255 -6 38 -8 83 -6 100 5 32 41 138 54 158 10 16 9 25 33
-258z m5210 49 c11 -30 20 -58 20 -62 -1 -9 -69 120 -70 132 -1 24 32 -23 50
-70z m-5320 32 c0 -3 -4 -8 -10 -11 -5 -3 -10 -1 -10 4 0 6 5 11 10 11 6 0 10
-2 10 -4z m10 -119 c0 -24 11 -130 25 -237 14 -107 30 -240 35 -295 5 -55 19
-156 30 -225 11 -69 27 -170 36 -225 8 -55 19 -116 24 -136 6 -20 17 -76 25
-125 9 -49 18 -98 21 -109 4 -15 3 -16 -4 -5 -5 8 -14 40 -20 70 -36 172 -55
271 -63 320 -4 30 -15 96 -24 145 -31 179 -47 293 -61 430 -7 77 -20 181 -29
230 -17 106 -20 219 -5 210 6 -3 10 -25 10 -48z m-20 -133 c0 -8 -4 -12 -10
-9 -5 3 -10 10 -10 16 0 5 5 9 10 9 6 0 10 -7 10 -16z m9 -95 c1 -45 -23 -72
-33 -37 -9 37 -6 45 8 19 11 -21 12 -17 9 35 -2 42 0 53 6 39 5 -11 10 -36 10
-56z m5501 19 c0 -13 14 -43 30 -68 33 -49 37 -62 18 -55 -34 13 -86 145 -57
145 5 0 9 -10 9 -22z m-5655 -57 c-3 -6 -11 -11 -17 -11 -6 0 -6 6 2 15 14 17
26 13 15 -4z m294 -76 c-1 -39 -2 -39 -9 -10 -4 17 -8 41 -9 55 0 20 1 22 9
10 5 -8 9 -33 9 -55z m-129 -45 c0 -32 -14 -40 -24 -14 -3 8 0 21 7 29 17 19
17 19 17 -15z m-4 -77 c-10 -10 -19 5 -10 18 6 11 8 11 12 0 2 -7 1 -15 -2
-18z m34 -177 c7 -61 8 -100 1 -116 -11 -28 -10 -34 -14 84 -2 38 -7 71 -12
73 -6 2 -8 27 -6 55 3 47 5 50 12 24 4 -16 13 -70 19 -120z m5453 118 c14 -4
26 -44 13 -44 -8 0 -96 52 -96 57 0 4 44 -3 83 -13z m161 -84 c3 -14 -5 -2
-18 25 -14 28 -25 55 -25 60 0 15 36 -56 43 -85z m-172 -10 c-6 -17 -21 -43
-33 -58 -21 -25 -21 -23 -4 21 6 14 2 17 -21 18 -16 1 -37 1 -46 0 -10 -1 -18
4 -18 13 0 18 8 20 30 6 9 -6 17 -5 22 3 7 12 70 37 77 31 2 -2 -2 -17 -7 -34z
m-5773 -52 c16 -7 21 -12 13 -15 -14 -5 -82 53 -82 70 0 5 10 -2 21 -17 12
-15 33 -32 48 -38z m81 -40 c0 -14 -18 -9 -24 8 -11 28 -6 39 9 20 8 -11 15
-23 15 -28z m5722 -1 c15 -24 46 -65 69 -93 l43 -49 -48 45 c-50 46 -106 116
-106 132 0 19 17 5 42 -35z m-176 -48 c8 -17 14 -39 12 -49 -2 -11 -11 2 -24
36 -22 56 -15 64 12 13z m205 -69 c15 -19 34 -48 44 -65 l17 -30 -27 30 c-41
46 -105 142 -105 157 0 7 11 -3 23 -22 12 -20 34 -51 48 -70z m-286 80 c3 -5
1 -10 -4 -10 -6 0 -11 5 -11 10 0 6 2 10 4 10 3 0 8 -4 11 -10z m-5425 -21 c0
6 5 11 12 11 6 0 3 -8 -7 -20 -19 -21 -35 -18 -35 7 0 13 3 13 15 3 10 -9 15
-9 15 -1z m238 -57 c6 -25 6 -44 1 -48 -13 -8 -11 -34 3 -31 6 1 13 -7 15 -18
l3 -20 -9 20 c-9 18 -10 16 -11 -10 l-2 -30 -9 30 c-5 17 -7 47 -4 67 6 44 -3
77 -16 56 -7 -10 -9 -9 -9 4 0 13 19 30 27 24 1 -1 6 -21 11 -44z m5222 38 c0
-5 -2 -10 -4 -10 -3 0 -8 5 -11 10 -3 6 -1 10 4 10 6 0 11 -4 11 -10z m125
-63 c7 -37 5 -40 -46 -89 -61 -57 -121 -98 -144 -98 -18 0 -18 1 -5 34 6 16
17 26 30 26 28 0 25 14 -5 28 -36 16 -31 27 12 27 31 0 38 4 39 20 2 38 4 45
14 45 6 0 10 -16 10 -35 0 -19 5 -35 10 -35 6 0 10 7 10 15 0 8 9 24 19 34 11
11 23 36 27 57 8 42 18 32 29 -29z m-5825 40 c0 -2 -19 -21 -42 -42 l-43 -40
40 43 c36 39 45 47 45 39z m439 -87 c0 -26 -2 -31 -9 -20 -5 8 -9 35 -9 60 1
37 2 41 9 20 4 -14 8 -41 9 -60z m-248 29 c6 -11 6 -19 0 -19 -5 0 -11 7 -15
15 -3 8 -12 15 -21 15 -8 0 -15 4 -15 9 0 16 40 0 51 -20z m6008 -208 c68 -67
77 -78 41 -54 -59 40 -202 188 -225 232 -14 27 -5 21 40 -30 32 -35 97 -102
144 -148z m-184 101 c-7 -7 -95 70 -95 84 0 8 22 -7 50 -33 27 -25 48 -48 45
-51z m-5996 24 c-10 -9 -69 -36 -69 -32 0 7 52 35 64 36 5 0 7 -2 5 -4z m291
-11 c0 -8 -4 -15 -10 -15 -5 0 -10 7 -10 15 0 8 5 15 10 15 6 0 10 -7 10 -15z
m197 -17 c-3 -8 -6 -5 -6 6 -1 11 2 17 5 13 3 -3 4 -12 1 -19z m-7 -35 c11
-48 16 -77 19 -101 0 -7 6 -10 11 -7 7 4 9 -2 4 -19 -3 -15 -2 -32 4 -39 5 -6
13 -46 17 -87 3 -41 10 -81 15 -90 4 -8 26 -94 49 -190 22 -96 62 -248 89
-337 27 -89 46 -160 42 -158 -5 3 -18 38 -29 77 -12 40 -30 100 -40 133 -19
62 -36 124 -51 185 -5 19 -25 100 -45 180 -20 80 -43 179 -51 220 -14 72 -23
112 -44 210 -10 50 -12 70 -6 70 2 0 9 -21 16 -47z m-264 26 c9 -15 -38 -61
-89 -88 -23 -12 -32 -14 -19 -5 12 9 22 24 22 33 0 15 56 70 72 71 4 0 10 -5
14 -11z m239 -72 c69 -351 181 -785 270 -1042 6 -16 5 -17 -4 -5 -15 21 -55
129 -85 230 -52 174 -206 811 -206 851 0 22 19 -3 25 -34z m5427 -7 c83 -48
278 -136 278 -126 0 2 -24 17 -52 34 -60 33 -108 71 -92 72 5 0 54 -29 107
-64 97 -64 97 -64 55 -59 -92 10 -211 60 -320 135 -55 36 -67 48 -52 48 4 0
38 -18 76 -40z m238 -48 c8 -8 -12 0 -45 17 -33 18 -67 40 -75 49 -8 8 12 0
45 -17 33 -18 67 -40 75 -49z m-5923 -8 c-28 -36 -73 -95 -99 -131 -26 -36
-50 -68 -54 -72 -10 -8 45 89 61 109 7 8 15 22 19 30 9 19 1 9 -68 -78 -84
-107 -68 -63 21 55 59 79 150 166 164 157 5 -2 -15 -34 -44 -70z m433 22 c0
-26 -6 -18 -14 19 -5 22 -4 26 4 15 5 -8 10 -24 10 -34z m-705 -10 c33 -1 77
3 98 7 59 12 36 -9 -24 -23 -58 -14 -138 -8 -192 15 -56 23 -53 35 5 17 29 -8
80 -16 113 -16z m349 12 c-16 -27 -84 -109 -84 -103 0 10 39 75 58 98 17 19
37 23 26 5z m27 -32 c-9 -11 -9 -15 1 -18 7 -3 -4 -21 -29 -49 -22 -24 -52
-62 -66 -84 -14 -22 -37 -53 -52 -70 l-26 -30 18 33 c10 19 46 69 81 112 70
88 83 118 20 50 -46 -52 -40 -37 16 33 21 26 41 46 44 43 2 -3 0 -12 -7 -20z
m-508 -45 c-2 -3 -16 8 -31 24 l-27 28 31 -24 c17 -13 30 -26 27 -28z m866
-91 c0 -31 -17 27 -22 80 l-6 55 14 -60 c8 -33 14 -67 14 -75z m5014 -4 c29
-33 45 -55 36 -50 -22 13 -169 169 -169 180 0 11 69 -57 133 -130z m-5289 -14
c-95 -135 -186 -252 -194 -252 -5 0 40 66 101 146 60 80 115 157 121 172 6 15
12 22 15 14 3 -6 -17 -42 -43 -80z m-668 41 c-5 -5 -76 24 -76 31 0 2 18 -3
40 -11 22 -9 38 -18 36 -20z m17 -16 c74 -15 74 -32 0 -24 -40 4 -62 12 -77
28 -20 21 -20 22 -1 14 11 -4 46 -12 78 -18z m601 -12 c-9 -14 -18 -25 -21
-25 -5 0 5 18 20 38 17 22 18 13 1 -13z m5513 -172 c46 -62 87 -113 89 -113 6
0 -41 70 -113 168 -30 39 -50 72 -45 72 10 0 146 -165 173 -210 51 -82 123
-364 117 -456 l-3 -49 -19 80 c-33 137 -107 307 -173 392 -87 113 -88 115
-112 158 -21 37 -17 35 40 -25 39 -41 54 -52 39 -30 -30 44 -85 115 -124 160
l-31 35 38 -35 c21 -19 77 -86 124 -147z m-5387 97 c0 -5 -4 -10 -10 -10 -5 0
-10 5 -10 10 0 6 5 10 10 10 6 0 10 -4 10 -10z m5129 -70 c43 -38 85 -70 93
-70 13 0 78 -87 78 -106 0 -4 -33 26 -74 68 -41 41 -101 97 -135 123 -33 26
-61 50 -61 51 0 16 33 -6 99 -66z m-5139 29 c-60 -47 -83 -59 -41 -20 24 23
49 41 55 41 6 0 0 -9 -14 -21z m5618 0 c-2 -6 -8 -10 -13 -10 -5 0 -11 4 -13
10 -2 6 4 11 13 11 9 0 15 -5 13 -11z m-6118 -9 c0 -5 -2 -10 -4 -10 -3 0 -8
5 -11 10 -3 6 -1 10 4 10 6 0 11 -4 11 -10z m-50 -39 c0 -22 -4 -43 -10 -46
-6 -4 -10 12 -10 39 0 25 5 46 10 46 6 0 10 -18 10 -39z m248 17 c-8 -13 -50
-78 -92 -146 -73 -114 -97 -145 -96 -125 1 12 109 184 153 242 39 51 62 70 35
29z m464 -3 c-2 -14 -6 -25 -8 -25 -2 0 -4 11 -4 25 0 14 4 25 9 25 4 0 6 -11
3 -25z m5345 -12 c-3 -10 -5 -4 -5 12 0 17 2 24 5 18 2 -7 2 -21 0 -30z m152
-40 c0 -43 -4 -87 -9 -98 -6 -13 -9 14 -9 78 -1 58 3 97 9 97 6 0 10 -32 9
-77z m-97 1 c-3 -31 -7 -42 -13 -33 -10 17 -12 83 -2 92 12 13 18 -11 15 -59z
m-6171 -115 c-7 -18 -10 -3 -10 67 -1 50 2 94 7 98 11 12 14 -137 3 -165z
m109 162 c0 -6 -4 -13 -10 -16 -5 -3 -10 1 -10 9 0 9 5 16 10 16 6 0 10 -4 10
-9z m6101 -169 c-8 -12 -10 8 -11 74 0 50 3 94 8 98 11 12 14 -152 3 -172z
m108 106 c-2 -83 -11 -138 -21 -122 -10 15 3 194 13 194 5 0 8 -33 8 -72z
m-6020 2 c-23 -33 -44 -60 -46 -60 -5 0 4 15 45 73 19 26 36 47 39 47 2 0 -15
-27 -38 -60z m361 52 c0 -5 -43 -48 -95 -96 -52 -48 -95 -84 -95 -80 0 6 180
183 188 184 1 0 2 -4 2 -8z m5710 -36 c0 -65 -13 -155 -21 -150 -11 6 -11 58
-3 132 7 58 24 71 24 18z m-6410 -203 c0 -124 -3 -223 -7 -220 -11 12 -15 447
-3 447 7 0 10 -75 10 -227z m362 165 c-16 -24 -48 -63 -71 -88 l-42 -45 28 40
c43 62 108 143 111 140 2 -2 -9 -23 -26 -47z m-412 -442 c0 -267 -3 -487 -7
-489 -5 -3 -9 215 -10 484 -1 294 2 489 8 489 5 0 9 -195 9 -484z m890 406 c7
-29 10 -55 7 -58 -5 -5 -19 47 -33 116 -10 48 13 -3 26 -58z m4940 3 c49 -42
90 -78 90 -81 0 -2 -28 17 -63 43 -34 26 -79 59 -100 73 -36 24 -47 40 -27 40
5 0 50 -34 100 -75z m671 -43 c-3 -164 -19 -197 -20 -40 -1 117 4 166 16 154
3 -3 5 -54 4 -114z m-6548 -384 c-2 -265 -5 -483 -7 -485 -5 -5 -14 950 -9
960 2 4 7 7 11 7 4 0 6 -217 5 -482z m193 435 c-11 -11 -17 4 -9 23 7 18 8 18
11 1 2 -10 1 -21 -2 -24z m5942 -5 c41 -62 49 -91 12 -49 -26 30 -56 91 -45
91 2 0 17 -19 33 -42z m461 -35 c0 -43 -4 -100 -9 -128 -6 -39 -8 -23 -9 78 0
79 3 127 9 127 6 0 10 -32 9 -77z m-6643 -408 c-1 -261 -4 -477 -8 -480 -6 -6
-17 936 -11 948 17 30 20 -48 19 -468z m-47 -9 c0 -249 -5 -459 -9 -466 -8
-13 -20 894 -12 917 2 7 8 10 14 7 5 -3 8 -185 7 -458z m5925 412 c103 -75
198 -153 306 -254 52 -49 88 -80 79 -69 -35 45 -146 173 -187 216 -28 30 -40
49 -33 54 13 8 111 -89 170 -168 42 -57 121 -183 121 -193 0 -4 -34 25 -75 64
-101 96 -251 215 -373 295 -83 55 -99 70 -95 87 3 11 8 20 10 20 3 0 37 -23
77 -52z m812 -70 c-7 -120 -10 -137 -21 -126 -10 10 8 248 18 248 6 0 7 -43 3
-122z m-5857 -2 c-5 -70 -44 -224 -54 -214 -2 2 8 44 21 93 14 55 24 120 25
165 0 41 4 67 7 57 4 -10 5 -55 1 -101z m-929 -357 c0 -280 -4 -449 -10 -449
-9 0 -20 867 -11 897 1 7 7 10 12 7 5 -3 9 -201 9 -455z m6834 322 c-4 -56
-11 -101 -16 -101 -9 0 -9 136 0 199 4 26 7 30 13 18 5 -9 6 -61 3 -116z
m-6884 -331 c0 -287 -3 -440 -10 -440 -6 0 -10 135 -11 383 -1 210 -3 398 -5
417 -5 42 3 80 16 80 6 0 10 -159 10 -440z m381 409 c-5 -13 -10 -19 -10 -12
-1 15 10 45 15 40 3 -2 0 -15 -5 -28z m-431 -414 c0 -260 -4 -425 -9 -425 -6
0 -10 159 -11 407 0 223 -2 409 -5 411 -5 5 13 32 21 32 2 0 4 -191 4 -425z
m974 388 c10 -65 5 -80 -10 -28 -16 59 -17 65 -5 65 4 0 11 -17 15 -37z m6006
-82 c0 -69 -4 -122 -10 -126 -6 -4 -10 38 -10 119 0 77 4 126 10 126 6 0 10
-46 10 -119z m-5752 -20 c-1 -3 8 -40 20 -81 12 -41 29 -100 37 -130 8 -30 30
-113 50 -184 20 -71 34 -130 32 -132 -4 -4 -87 255 -87 272 0 6 -13 58 -30
115 -16 57 -32 120 -34 139 -3 19 -10 51 -16 70 -5 19 -10 39 -9 45 0 5 9 -17
19 -49 11 -33 18 -62 18 -65z m5183 27 c17 -32 2 -19 -47 40 l-48 57 43 -40
c23 -22 47 -48 52 -57z m226 70 c-3 -8 -6 -5 -6 6 -1 11 2 17 5 13 3 -3 4 -12
1 -19z m392 -71 c-1 -45 -5 -109 -9 -142 -5 -47 -7 -29 -9 88 0 97 2 146 9
142 6 -3 10 -43 9 -88z m-7079 -322 c0 -263 -3 -405 -10 -405 -7 0 -10 142
-10 405 0 263 3 405 10 405 7 0 10 -142 10 -405z m429 361 c-9 -8 -10 -7 -5 7
3 10 7 24 7 30 1 7 3 4 6 -7 3 -10 -1 -23 -8 -30z m-479 -376 c0 -220 -4 -400
-8 -400 -4 0 -9 180 -10 400 -2 271 1 400 8 400 7 0 10 -131 10 -400z m7174
232 c-4 -84 -11 -152 -16 -152 -10 0 -11 170 -2 259 13 118 25 45 18 -107z
m-7224 -244 c0 -215 -3 -389 -6 -385 -7 7 -17 744 -10 763 3 8 8 14 11 14 3 0
5 -176 5 -392z m7266 203 c-4 -98 -11 -192 -17 -208 -6 -19 -7 14 -4 102 3 72
5 165 5 208 0 51 4 77 11 77 9 0 10 -47 5 -179z m-6088 -61 c-40 -100 -74
-177 -76 -172 -5 16 61 206 103 297 65 140 49 63 -27 -125z m5026 54 c20 -61
40 -135 46 -165 6 -30 13 -63 16 -74 16 -51 -16 8 -46 85 -18 47 -52 127 -76
179 -24 52 -43 95 -41 97 1 2 24 -40 51 -92 27 -52 50 -94 52 -94 5 0 -25 98
-48 155 -15 38 -16 46 -4 35 8 -8 31 -65 50 -126z m201 50 c42 -25 74 -48 72
-51 -8 -7 -157 86 -192 121 -5 5 2 2 17 -7 15 -9 62 -38 103 -63z m-5485 63
c0 -2 -15 -16 -32 -33 l-33 -29 29 33 c28 30 36 37 36 29z m-210 -27 c-10 -19
-30 -28 -30 -14 0 6 30 33 38 34 1 0 -2 -9 -8 -20z m5537 -127 c9 -32 20 -60
24 -63 4 -3 9 -41 13 -85 3 -51 2 -71 -3 -55 -5 14 -10 43 -10 65 -1 22 -17
83 -36 135 -19 52 -35 102 -34 110 0 20 23 -35 46 -107z m-4982 47 c-23 -44
-29 -32 -9 16 9 21 19 34 21 27 2 -6 -3 -26 -12 -43z m4920 -155 c56 -120 49
-125 -12 -10 -32 61 -71 129 -87 152 -15 23 -25 47 -21 53 8 14 70 -87 120
-195z m-4920 103 c-14 -24 -46 -77 -70 -118 -25 -41 -54 -86 -66 -100 l-21
-25 16 27 c125 210 155 258 162 258 3 0 -7 -19 -21 -42z m282 0 c-3 -7 -5 -2
-5 12 0 14 2 19 5 13 2 -7 2 -19 0 -25z m4579 -120 c19 -38 32 -68 29 -68 -2
0 -20 30 -39 68 -19 37 -44 81 -55 97 -12 17 -21 35 -21 40 1 14 44 -56 86
-137z m-5044 55 c-26 -50 -63 -173 -57 -184 6 -9 -25 -63 -32 -56 -2 3 0 15 5
28 6 13 17 51 27 84 19 67 66 178 72 171 2 -2 -4 -21 -15 -43z m488 12 c0 -5
-5 -3 -10 5 -5 8 -10 20 -10 25 0 6 5 3 10 -5 5 -8 10 -19 10 -25z m-21 -20
c0 -5 -4 -3 -9 5 -5 8 -9 22 -9 30 0 16 17 -16 18 -35z m4790 -42 c-1 -62 -4
-79 -9 -58 -11 45 -11 145 0 145 6 0 10 -35 9 -87z m387 8 c8 -18 13 -35 11
-38 -6 -5 -43 54 -57 92 l-10 30 20 -25 c12 -14 28 -40 36 -59z m-5408 -3
c-13 -17 -40 -43 -59 -57 -29 -22 -27 -18 16 31 54 60 83 78 43 26z m4732 0
c29 -47 25 -59 -5 -16 -14 20 -25 39 -25 42 0 14 12 3 30 -26z m440 -5 c0 -7
-4 -13 -10 -13 -5 0 -10 12 -10 28 0 21 2 24 10 12 5 -8 10 -21 10 -27z
m-6000 -195 c0 -122 -2 -219 -5 -216 -8 8 -11 438 -2 438 4 0 7 -100 7 -222z
m585 117 c-15 -54 -35 -112 -46 -129 -10 -17 -19 -38 -19 -48 0 -15 -60 -62
-69 -53 -2 2 9 19 25 37 37 43 65 101 99 211 16 48 30 85 32 83 2 -2 -8 -48
-22 -101z m5455 43 c-1 -50 -3 -59 -11 -45 -10 17 -4 107 7 107 2 0 4 -28 4
-62z m-4973 30 c-3 -8 -6 -5 -6 6 -1 11 2 17 5 13 3 -3 4 -12 1 -19z m4825
-105 c-4 -127 -6 -142 -18 -130 -9 8 6 257 15 257 4 0 5 -57 3 -127z m198 37
c0 -53 -4 -90 -10 -90 -11 0 -14 162 -3 173 12 13 13 7 13 -83z m47 3 c-4 -38
-7 -89 -7 -115 0 -27 -4 -48 -10 -48 -5 0 -8 17 -6 38 2 20 4 72 5 115 1 50 5
77 12 77 9 0 10 -20 6 -67z m-6087 -144 c0 -104 -3 -189 -7 -189 -5 0 -8 87
-8 194 0 107 3 192 8 189 4 -2 7 -89 7 -194z m5518 134 c24 -35 39 -62 34 -59
-14 8 -94 126 -85 125 4 0 27 -30 51 -66z m709 45 c-3 -8 -6 -5 -6 6 -1 11 2
17 5 13 3 -3 4 -12 1 -19z m-5190 -25 c-3 -10 -5 -4 -5 12 0 17 2 24 5 18 2
-7 2 -21 0 -30z m-239 7 c-15 -25 -140 -131 -218 -185 -30 -21 -66 -48 -80
-60 -30 -27 -80 -59 -80 -52 0 3 51 43 113 90 62 47 149 117 192 156 44 38 81
70 83 70 1 1 -3 -8 -10 -19z m112 -47 c12 -38 25 -80 30 -96 5 -16 5 -25 -1
-22 -5 3 -18 38 -30 78 -30 103 -31 107 -25 107 3 0 15 -30 26 -67z m5209
-177 c-9 -8 -10 12 -5 83 3 52 7 110 8 130 1 20 4 -18 5 -83 3 -82 0 -123 -8
-130z m-615 173 c22 -34 61 -90 88 -126 26 -36 48 -70 48 -75 0 -6 14 -27 30
-48 48 -61 35 -56 -32 13 -35 35 -99 96 -143 135 -43 39 -77 73 -74 76 3 3 46
-32 96 -79 86 -80 132 -113 86 -62 -24 27 -125 173 -142 205 -24 46 6 19 43
-39z m-5454 -119 c0 -107 -4 -170 -10 -170 -6 0 -10 63 -10 170 0 107 4 170
10 170 6 0 10 -63 10 -170z m5839 53 c0 -60 -4 -117 -9 -128 -6 -13 -9 25 -8
108 1 70 5 127 10 127 4 0 8 -48 7 -107z m282 -131 c-13 -21 -14 69 -3 173 7
69 7 69 10 -43 1 -63 -2 -120 -7 -130z m-6071 69 c0 -89 -4 -152 -10 -156 -7
-4 -10 48 -10 149 0 97 4 156 10 156 6 0 10 -56 10 -149z m5610 -9 c40 -79 70
-145 68 -147 -4 -4 -111 197 -140 265 -37 85 0 25 72 -118z m-5560 3 c0 -78
-4 -136 -10 -140 -6 -4 -10 45 -10 140 0 95 4 144 10 140 6 -4 10 -62 10 -140z
m50 26 c0 -69 -4 -122 -10 -126 -6 -4 -10 38 -10 119 0 77 4 126 10 126 6 0
10 -46 10 -119z m45 29 c-2 -122 -15 -128 -15 -7 0 54 4 97 9 97 4 0 7 -40 6
-90z m42 -47 c-2 -27 -3 -5 -3 47 0 52 1 74 3 48 2 -27 2 -69 0 -95z m52 40
c-2 -92 -6 -82 -11 25 -2 34 0 62 5 62 4 0 6 -39 6 -87z m51 32 c0 -30 -3 -55
-7 -55 -5 0 -6 25 -5 55 5 71 12 71 12 0z m50 18 c0 -27 -3 -34 -11 -26 -7 7
-9 23 -5 37 9 37 16 32 16 -11z m5222 -90 c41 -71 94 -164 117 -208 47 -89 34
-79 -64 50 -58 77 -97 146 -48 86 15 -19 38 -46 51 -60 l23 -26 -12 25 c-7 14
-24 43 -39 65 -34 51 -113 195 -107 195 3 0 39 -57 79 -127z m613 10 c-7 -110
-10 -133 -18 -122 -8 11 6 239 15 239 7 0 8 -40 3 -117z m-344 -113 c-10 -182
-21 -251 -21 -128 0 138 13 339 22 325 4 -8 4 -97 -1 -197z m391 83 c-2 -56
-8 -93 -14 -93 -7 0 -9 26 -4 77 3 42 6 92 7 112 0 27 2 31 8 16 4 -11 5 -62
3 -112z m-93 70 c0 -27 -4 -68 -8 -93 -7 -39 -9 -32 -10 48 -1 55 3 92 9 92 6
0 10 -21 9 -47z m142 -70 c-4 -134 -19 -200 -20 -88 -1 86 10 205 18 205 3 0
4 -53 2 -117z m44 -90 c-4 -57 -10 -103 -13 -103 -9 0 -4 214 5 260 l7 35 4
-45 c2 -25 1 -91 -3 -147z m50 40 c-7 -131 -10 -152 -19 -142 -8 9 7 279 16
279 6 0 7 -51 3 -137z m-1025 92 c13 -14 19 -25 13 -25 -5 0 -20 11 -33 25
-13 14 -19 25 -13 25 5 0 20 -11 33 -25z m1073 -127 c-3 -84 -9 -160 -14 -168
-4 -8 -6 57 -3 145 5 147 8 175 19 175 2 0 1 -69 -2 -152z m51 40 c-3 -62 -10
-126 -15 -143 -6 -20 -7 3 -4 70 3 55 5 119 5 143 0 23 4 42 10 42 6 0 7 -42
4 -112z m37 -149 c-8 -21 -10 -18 -10 22 -1 25 2 88 7 140 l7 94 3 -116 c1
-64 -2 -127 -7 -140z m-5826 216 c-49 -41 -74 -49 -31 -10 22 19 44 35 50 35
6 0 -2 -11 -19 -25z m5200 -172 c-4 -109 -11 -202 -17 -208 -6 -6 -7 56 -2
170 9 220 10 235 20 235 3 0 3 -89 -1 -197z m676 -41 c-13 -21 -15 84 -3 179
7 61 7 58 10 -49 1 -63 -2 -120 -7 -130z m52 100 c-3 -67 -10 -122 -16 -122
-5 0 -6 7 -3 16 3 9 6 68 6 132 0 77 3 113 10 106 6 -6 8 -55 3 -132z m46 9
c-2 -144 -19 -188 -19 -51 0 91 8 170 17 170 2 0 3 -54 2 -119z m-6143 55
c-16 -11 -37 -28 -48 -36 -18 -15 -19 -46 -18 -985 0 -533 1 -1030 3 -1103 1
-74 -1 -136 -5 -139 -5 -2 -8 287 -8 644 0 356 -3 848 -7 1094 -5 368 -3 450
8 472 15 28 90 89 99 80 3 -3 -8 -15 -24 -27z m4774 10 c-8 -10 15 -23 102
-58 61 -24 114 -50 116 -56 2 -6 -34 6 -80 27 -46 21 -99 42 -118 46 -48 10
-50 12 -37 39 7 13 15 22 20 19 4 -3 3 -10 -3 -17z m640 -242 c-11 -211 -20
-278 -20 -142 0 156 13 380 22 365 4 -9 4 -108 -2 -223z m-424 188 c-5 -4 -66
26 -66 33 0 3 16 -3 35 -12 19 -9 33 -18 31 -21z m-4919 6 c-3 -8 -6 -5 -6 6
-1 11 2 17 5 13 3 -3 4 -12 1 -19z m343 -23 c0 -5 -5 -3 -10 5 -5 8 -10 20
-10 25 0 6 5 3 10 -5 5 -8 10 -19 10 -25z m-90 -281 c0 -168 -4 -303 -9 -300
-9 6 -16 581 -6 596 3 5 8 10 11 10 2 0 4 -138 4 -306z m50 86 c0 -109 -5
-202 -10 -210 -6 -10 -10 61 -10 210 0 149 4 220 10 210 5 -8 10 -101 10 -210z
m-390 185 c0 -14 -4 -25 -10 -25 -5 0 -10 11 -10 25 0 14 5 25 10 25 6 0 10
-11 10 -25z m239 -740 c-4 -22 -6 142 -6 365 l1 405 5 -365 c4 -201 3 -383 0
-405z m4998 733 c-3 -7 -5 -2 -5 12 0 14 2 19 5 13 2 -7 2 -19 0 -25z m-4949
-325 l-2 -348 -6 335 c-6 309 -5 360 6 360 2 0 3 -156 2 -347z m-238 -425 c0
-419 -2 -760 -4 -757 -2 2 -7 345 -11 762 -6 545 -4 757 3 757 8 0 11 -218 12
-762z m100 25 c0 -370 -3 -673 -7 -673 -5 0 -9 318 -10 708 -1 416 2 693 7
672 5 -19 9 -338 10 -707z m45 271 c3 -253 3 -473 -2 -490 -5 -16 -10 178 -13
456 -5 442 -4 508 5 498 1 -2 6 -210 10 -464z m-96 -247 c1 -377 -2 -566 -9
-562 -7 4 -9 226 -8 638 0 348 4 601 8 562 4 -38 8 -326 9 -638z m5191 653 c0
-22 -4 -40 -10 -40 -5 0 -10 18 -10 40 0 22 5 40 10 40 6 0 10 -18 10 -40z
m187 -112 c-4 -83 -7 -182 -7 -220 0 -43 -4 -68 -11 -68 -8 0 -9 34 -5 118 3
64 7 163 9 219 1 57 6 103 11 103 5 0 6 -63 3 -152z m-5477 -640 c0 -419 -2
-759 -4 -757 -2 2 -7 345 -11 762 -5 541 -4 757 4 757 8 0 11 -221 11 -762z
m-95 -335 c5 -796 4 -1083 -4 -1083 -8 0 -11 214 -12 788 0 433 -2 909 -5
1057 -4 234 0 335 11 323 1 -2 6 -490 10 -1085z m-495 1041 c0 -8 -5 -12 -10
-9 -6 4 -8 11 -5 16 9 14 15 11 15 -7z m1029 -74 c0 -36 -4 -74 -9 -85 -6 -13
-9 15 -9 80 -1 68 2 95 9 85 5 -8 9 -44 9 -80z m-1370 -338 c-1 -224 -4 -418
-8 -432 -4 -14 -8 172 -9 413 -1 273 3 435 9 432 5 -4 9 -167 8 -413z m292
339 c-8 -26 -21 29 -14 57 7 27 7 26 13 -8 3 -19 4 -41 1 -49z m-489 -423 c-1
-277 -5 -496 -11 -513 -6 -20 -8 148 -5 480 3 281 5 514 4 519 0 5 3 7 6 3 4
-3 6 -223 6 -489z m50 285 c3 -309 -4 -725 -12 -748 -4 -11 -7 199 -6 467 0
269 4 488 9 488 4 0 8 -93 9 -207z m50 -40 c5 -282 -1 -593 -11 -593 -4 0 -7
189 -7 420 0 231 3 420 7 420 4 0 8 -111 11 -247z m50 35 c2 -325 -3 -631 -11
-646 -4 -8 -8 183 -8 422 0 240 4 436 8 436 5 0 10 -96 11 -212z m97 -175 c0
-214 -4 -397 -8 -408 -5 -11 -9 163 -9 388 -1 255 2 407 8 407 6 0 10 -145 9
-387z m192 270 c-6 -78 -16 -45 -12 39 4 65 6 74 10 43 3 -22 4 -59 2 -82z
m-141 -161 c0 -141 -4 -263 -9 -271 -6 -9 -10 96 -10 263 -1 188 2 275 9 271
6 -4 10 -98 10 -263z m98 157 c0 -56 -3 -111 -8 -123 -6 -13 -9 25 -9 107 -1
71 3 126 7 123 5 -3 9 -51 10 -107z m6257 -6 c-12 -237 -17 -305 -24 -296 -10
12 10 413 21 413 6 0 7 -47 3 -117z m-6306 -60 c1 -95 -3 -175 -9 -183 -6 -10
-10 44 -10 168 0 104 4 182 9 182 5 0 10 -72 10 -167z m6851 153 c0 -3 -4 -8
-10 -11 -5 -3 -10 -1 -10 4 0 6 5 11 10 11 6 0 10 -2 10 -4z m-5581 -106 c0
-41 -4 -84 -9 -95 -6 -13 -9 19 -9 90 -1 74 2 105 9 95 5 -8 9 -49 9 -90z
m5181 86 c0 -3 -4 -8 -10 -11 -5 -3 -10 -1 -10 4 0 6 5 11 10 11 6 0 10 -2 10
-4z m-106 -270 c-4 -135 -11 -236 -16 -236 -10 0 -3 349 8 438 12 98 15 20 8
-202z m-5034 224 c0 -5 -2 -10 -4 -10 -3 0 -8 5 -11 10 -3 6 -1 10 4 10 6 0
11 -4 11 -10z m5081 -271 c-5 -112 -7 -207 -4 -211 2 -5 -1 -8 -8 -8 -9 0 -11
37 -6 158 4 86 7 189 7 227 1 48 3 65 10 54 6 -10 6 -95 1 -220z m-578 159
c-8 -61 -19 -66 -15 -8 2 28 8 50 12 50 4 0 6 -19 3 -42z m39 -163 c-5 -10 -7
15 -6 62 1 43 3 80 5 83 7 12 9 -132 1 -145z m579 -205 c-11 -267 -14 -312
-24 -299 -3 4 20 615 24 634 9 45 9 -87 0 -335z m-526 192 c-10 -80 -17 -57
-8 29 4 41 9 63 11 50 2 -14 1 -49 -3 -79z m575 -177 c-5 -127 -10 -258 -10
-292 0 -39 -4 -63 -11 -63 -7 0 -9 24 -5 73 3 39 8 175 12 300 4 125 11 224
15 220 5 -5 4 -112 -1 -238z m-5263 163 c-3 -8 -6 -5 -6 6 -1 11 2 17 5 13 3
-3 4 -12 1 -19z m5303 -401 c-6 -141 -16 -270 -21 -285 -5 -18 -7 -1 -4 53 2
44 7 152 10 240 3 88 9 214 13 280 7 114 7 116 10 45 2 -41 -1 -191 -8 -333z
m-1460 258 c-11 -88 -22 -113 -19 -45 1 25 -2 52 -5 61 -4 9 0 21 9 29 8 7 15
19 15 28 0 8 2 13 5 10 3 -2 0 -40 -5 -83z m-3360 -16 c0 -4 -4 -11 -10 -14
-5 -3 -10 0 -10 9 0 8 -3 23 -6 33 -5 16 -4 16 10 -1 9 -11 16 -23 16 -27z
m4337 -21 c-2 -13 -4 -3 -4 22 0 25 2 35 4 23 2 -13 2 -33 0 -45z m44 -140
l-9 -33 -1 40 c0 22 3 58 7 80 l7 40 3 -47 c2 -25 -1 -61 -7 -80z m299 81 c0
-24 -4 -38 -10 -34 -5 3 -10 22 -10 41 0 19 5 34 10 34 6 0 10 -18 10 -41z
m-250 -49 c0 -5 -5 -10 -11 -10 -5 0 -7 5 -4 10 3 6 8 10 11 10 2 0 4 -4 4
-10z m-6180 -30 c0 -16 -4 -30 -8 -30 -5 0 -7 14 -4 30 2 17 6 30 8 30 2 0 4
-13 4 -30z m6227 -157 c-4 -53 -12 -101 -18 -107 -8 -8 -10 -3 -6 19 3 17 9
65 12 108 4 42 9 77 12 77 3 0 3 -44 0 -97z m-4347 -13 c0 -8 -7 -2 -15 14
-19 36 -19 45 0 20 8 -10 14 -26 15 -34z m-2080 20 c0 -5 -4 -10 -10 -10 -5 0
-10 5 -10 10 0 6 5 10 10 10 6 0 10 -4 10 -10z m5033 -40 c-9 -22 -18 -39 -19
-37 -6 6 19 77 27 77 4 0 0 -18 -8 -40z m-4988 -78 c-10 -70 -18 -41 -9 35 6
43 10 57 12 39 2 -17 1 -50 -3 -74z m2025 46 c0 -38 -5 -34 -13 10 -4 21 -3
31 3 27 6 -3 10 -20 10 -37z m4403 -20 c-10 -179 -16 -249 -21 -244 -11 11 6
306 17 306 4 0 6 -28 4 -62z m-1487 6 c-4 -14 -9 -24 -12 -21 -3 2 -2 17 2 31
3 15 9 25 11 22 3 -3 2 -17 -1 -32z m-3149 -36 c-2 -13 -4 -5 -4 17 -1 22 1
32 4 23 2 -10 2 -28 0 -40z m3098 -28 c-4 -12 -9 -19 -12 -17 -3 3 -2 15 2 27
4 12 9 19 12 17 3 -3 2 -15 -2 -27z m-95 -44 c0 -3 -4 -8 -10 -11 -5 -3 -10
-1 -10 4 0 6 5 11 10 11 6 0 10 -2 10 -4z m27 -97 c-14 -39 -28 -64 -35 -61
-7 2 -12 -1 -12 -6 0 -21 -32 -85 -38 -75 -4 5 -15 12 -24 16 -10 3 -18 11
-18 16 0 6 7 8 15 5 11 -4 15 0 15 16 0 16 4 20 16 16 12 -5 14 -1 9 15 -4 13
-3 19 3 15 5 -3 17 16 27 41 14 35 20 43 24 30 5 -13 11 -4 21 30 9 31 15 41
17 28 2 -11 -7 -50 -20 -86z m1693 40 c0 -22 -4 -38 -8 -35 -8 5 -4 76 4 76 2
0 4 -18 4 -41z m-4142 -29 c-6 -19 -21 -51 -34 -73 -21 -37 -23 -38 -33 -19
-6 11 -8 28 -4 38 5 13 3 16 -10 11 -21 -8 -21 -5 -3 38 17 40 28 45 25 13 -5
-60 1 -63 32 -14 34 54 45 56 27 6z m4767 -127 c-11 -269 -14 -356 -21 -588
-4 -126 -11 -241 -15 -255 -8 -23 -2 405 6 495 2 22 7 142 11 268 4 126 11
227 16 227 6 0 7 -60 3 -147z m-5148 80 c-3 -10 -5 -4 -5 12 0 17 2 24 5 18 2
-7 2 -21 0 -30z m4523 17 c0 -5 -2 -10 -4 -10 -3 0 -8 5 -11 10 -3 6 -1 10 4
10 6 0 11 -4 11 -10z m-4060 -17 c0 -5 -8 -17 -17 -28 -14 -18 -15 -18 -9 -2
3 10 6 23 6 28 0 5 5 9 10 9 6 0 10 -3 10 -7z m2240 -12 c0 -6 -4 -13 -10 -16
-5 -3 -10 1 -10 9 0 9 5 16 10 16 6 0 10 -4 10 -9z m-62 -34 c16 -29 17 -36 6
-52 -11 -14 -14 -15 -18 -4 -6 21 -15 89 -11 89 2 0 12 -15 23 -33z m-2280
-28 c-1 -36 -3 -39 -14 -24 -10 13 -10 23 -2 41 15 33 18 30 16 -17z m-2100
-421 l-3 -443 -5 405 c-5 380 -3 480 6 480 2 0 3 -199 2 -442z m4265 331 c-3
-25 0 -40 11 -52 10 -10 12 -18 6 -22 -23 -14 -30 10 -29 98 1 75 3 85 9 52 5
-22 6 -56 3 -76z m2136 35 c-4 -42 -10 -78 -13 -82 -8 -7 -8 54 0 112 11 76
21 52 13 -30z m-4244 27 c3 -5 1 -12 -5 -16 -5 -3 -10 1 -10 9 0 18 6 21 15 7z
m2262 -33 c-3 -7 -5 -2 -5 12 0 14 2 19 5 13 2 -7 2 -19 0 -25z m37 -6 c-4
-12 -10 -22 -15 -22 -11 0 -12 44 -2 54 12 11 23 -9 17 -32z m-3574 9 c0 -6
-4 -13 -10 -16 -5 -3 -10 1 -10 9 0 9 5 16 10 16 6 0 10 -4 10 -9z m1271 -18
c12 -15 12 -16 -3 -10 -9 3 -19 1 -22 -6 -2 -7 -5 -2 -5 11 -1 26 11 29 30 5z
m110 -39 c2 -49 -18 -124 -33 -124 -4 0 -8 11 -8 25 0 14 6 25 13 25 8 0 8 3
-2 9 -15 9 -12 41 9 95 14 38 19 31 21 -30z m48 3 c-5 -20 -14 -37 -19 -37 -5
0 -7 6 -5 13 19 53 26 69 30 65 2 -2 0 -21 -6 -41z m1931 17 c0 -8 -4 -12 -10
-9 -5 3 -10 10 -10 16 0 5 5 9 10 9 6 0 10 -7 10 -16z m1957 -46 c-2 -13 -4
-5 -4 17 -1 22 1 32 4 23 2 -10 2 -28 0 -40z m-6242 33 c3 -5 1 -12 -5 -16 -5
-3 -10 1 -10 9 0 18 6 21 15 7z m4415 -11 c0 -5 -5 -10 -11 -10 -5 0 -7 5 -4
10 3 6 8 10 11 10 2 0 4 -4 4 -10z m-2210 -4 c0 -3 -4 -8 -10 -11 -5 -3 -10
-1 -10 4 0 6 5 11 10 11 6 0 10 -2 10 -4z m2059 -112 c1 -18 -8 -42 -18 -55
l-19 -24 4 55 c2 30 7 75 11 100 l7 45 7 -45 c4 -25 8 -59 8 -76z m-4267 -241
c-1 -175 -6 -313 -10 -306 -4 6 -6 78 -6 160 1 81 2 225 3 318 1 94 5 165 9
158 4 -6 6 -154 4 -330z m1852 322 c3 -8 1 -15 -4 -15 -6 0 -10 7 -10 15 0 8
2 15 4 15 2 0 6 -7 10 -15z m-1027 -27 c-3 -7 -5 -2 -5 12 0 14 2 19 5 13 2
-7 2 -19 0 -25z m3493 -8 c10 -7 12 -12 4 -17 -6 -5 -13 -15 -16 -23 -3 -8 -7
0 -10 18 -5 34 -2 37 22 22z m-112 -67 c5 -44 4 -47 -11 -34 -11 9 -17 29 -17
59 0 61 20 43 28 -25z m-4252 41 c-3 -9 -6 -133 -6 -277 -1 -196 -3 -257 -12
-243 -7 12 -9 52 -4 115 3 53 6 169 6 259 0 112 3 162 11 162 6 0 8 -7 5 -16z
m871 -331 c-1 -65 -3 -12 -3 117 0 129 2 182 3 118 2 -65 2 -171 0 -235z m-47
327 c0 -5 -5 -10 -11 -10 -5 0 -7 5 -4 10 3 6 8 10 11 10 2 0 4 -4 4 -10z
m1550 -51 c0 -11 -7 -19 -17 -19 -14 0 -15 2 -4 9 9 6 10 11 2 15 -6 4 -9 12
-5 17 8 14 24 0 24 -22z m3470 -6 c-11 -17 -11 -17 -6 0 3 10 6 24 7 30 0 9 2
9 5 0 3 -7 0 -20 -6 -30z m-3113 -44 c2 -53 0 -69 -10 -66 -16 5 -11 137 5
137 2 0 4 -32 5 -71z m3694 -56 c-9 -16 -10 -16 -11 3 0 12 3 43 8 70 l7 49 3
-52 c2 -29 -2 -61 -7 -70z m-2983 47 l0 -25 -8 25 c-4 14 -8 34 -8 45 l-1 20
9 -20 c5 -11 8 -31 8 -45z m719 38 c-3 -8 -6 -5 -6 6 -1 11 2 17 5 13 3 -3 4
-12 1 -19z m-2228 -38 c1 -13 0 -13 -9 0 -5 8 -9 24 -9 35 l0 20 9 -20 c5 -11
9 -27 9 -35z m2115 -95 c-9 -22 -42 -18 -55 7 -9 16 -9 34 1 77 l12 55 24 -62
c13 -34 21 -69 18 -77z m184 89 c-15 -15 -16 -15 -23 5 -9 31 4 46 23 27 15
-15 15 -17 0 -32z m-4283 -6 c-1 -24 -3 -113 -5 -198 -1 -85 -5 -144 -9 -130
-4 14 -6 81 -4 150 2 69 3 146 3 173 0 26 4 47 9 47 5 0 8 -19 6 -42z m2483
17 c-3 -3 -9 2 -12 12 -6 14 -5 15 5 6 7 -7 10 -15 7 -18z m349 -105 l-15 -33
-7 31 c-4 21 0 50 12 85 l18 52 3 -50 c2 -28 -3 -66 -11 -85z m802 -5 l0 -60
-20 50 c-16 39 -19 60 -13 100 l7 50 13 -40 c7 -22 13 -67 13 -100z m-1019 80
c0 -17 -27 -32 -37 -21 -4 3 2 13 13 21 24 18 24 18 24 0z m-1740 -5 c0 -5 -4
-10 -10 -10 -5 0 -10 5 -10 10 0 6 5 10 10 10 6 0 10 -4 10 -10z m1563 -4 c4
-10 1 -13 -9 -9 -7 3 -14 9 -14 14 0 14 17 10 23 -5z m1147 -7 c0 -5 -4 -9
-10 -9 -5 0 -10 7 -10 16 0 8 5 12 10 9 6 -3 10 -10 10 -16z m186 -98 c-4 -29
-9 -58 -12 -62 -8 -14 -46 -11 -41 4 2 6 12 11 21 9 16 -3 16 -2 1 22 -16 25
-15 71 2 131 5 17 8 15 21 -15 10 -24 12 -52 8 -89z m454 99 c0 -5 -4 -10 -10
-10 -5 0 -10 5 -10 10 0 6 5 10 10 10 6 0 10 -4 10 -10z m-1062 -115 c7 -36 7
-52 -1 -57 -22 -13 -27 4 -26 90 1 91 3 89 27 -33z m384 -42 c3 -35 1 -37 -32
-44 -19 -4 -35 -7 -36 -6 0 1 4 48 10 105 l10 103 22 -61 c13 -33 24 -77 26
-97z m2879 94 c-13 -13 -15 1 -4 30 7 17 8 17 11 -1 2 -10 -1 -23 -7 -29z
m-6481 -92 c-3 -60 -7 -103 -10 -95 -8 23 0 224 8 214 4 -5 5 -58 2 -119z
m3175 49 c-3 -30 -10 -52 -15 -49 -8 5 -3 87 7 115 10 29 15 -10 8 -66z m178
-76 c-7 -26 -20 -22 -31 11 -9 26 -3 80 16 131 7 19 22 -119 15 -142z m-573
132 c0 -5 -5 -10 -11 -10 -5 0 -7 5 -4 10 3 6 8 10 11 10 2 0 4 -4 4 -10z m46
-6 c-3 -9 -6 -21 -6 -27 0 -8 -3 -8 -11 0 -13 13 -5 43 12 43 6 0 8 -7 5 -16z
m141 -6 c-3 -8 -6 -5 -6 6 -1 11 2 17 5 13 3 -3 4 -12 1 -19z m172 -50 c-4
-15 -5 -36 -2 -48 4 -14 1 -20 -10 -20 -23 0 -31 18 -16 37 7 8 14 23 14 32 1
9 3 30 4 46 3 30 3 30 10 5 4 -14 4 -37 0 -52z m149 -3 c9 -51 8 -63 -6 -78
-19 -22 -29 -9 -33 43 -4 44 11 114 21 103 4 -4 12 -35 18 -68z m376 14 c10
-33 15 -67 12 -75 -17 -45 -55 28 -48 94 2 23 8 42 12 42 4 0 15 -27 24 -61z
m-678 -36 c-9 -10 -26 8 -19 20 4 7 8 15 9 20 4 21 7 19 11 -6 3 -16 2 -31 -1
-34z m476 -76 c-11 -21 -26 18 -29 75 l-2 63 18 -65 c10 -36 16 -69 13 -73z
m2875 111 c-3 -8 -6 -5 -6 6 -1 11 2 17 5 13 3 -3 4 -12 1 -19z m-3582 -16
c-7 -8 -35 7 -35 18 0 6 7 6 20 -2 10 -7 17 -14 15 -16z m3730 -29 c-9 -74
-24 -91 -18 -21 5 59 9 78 18 78 4 0 3 -26 0 -57z m-3425 12 c0 -15 -6 -25
-14 -25 -24 0 -29 20 -10 35 25 19 24 19 24 -10z m-3110 -11 c0 -8 -5 -12 -10
-9 -6 4 -8 11 -5 16 9 14 15 11 15 -7z m977 -116 c-2 -18 -4 -6 -4 27 0 33 2
48 4 33 2 -15 2 -42 0 -60z m2453 62 c0 -11 -7 -20 -15 -20 -13 0 -13 3 -3 20
7 11 14 20 15 20 2 0 3 -9 3 -20z m550 11 c0 -18 -18 -21 -30 -6 -10 13 -9 15
9 15 11 0 21 -4 21 -9z m-880 -11 c0 -5 -2 -10 -4 -10 -3 0 -8 5 -11 10 -3 6
-1 10 4 10 6 0 11 -4 11 -10z m270 0 c0 -5 -4 -10 -10 -10 -5 0 -10 5 -10 10
0 6 5 10 10 10 6 0 10 -4 10 -10z m-233 -36 c-2 -2 -12 -2 -21 2 -13 5 -14 9
-5 21 11 12 14 12 22 -2 5 -9 7 -19 4 -21z m716 16 c-4 -16 -8 -18 -20 -9 -11
10 -11 14 -1 20 21 14 26 10 21 -11z m2624 -32 c-3 -7 -5 -2 -5 12 0 14 2 19
5 13 2 -7 2 -19 0 -25z m-5500 -130 c-2 -18 -4 -6 -4 27 0 33 2 48 4 33 2 -15
2 -42 0 -60z m50 60 c-3 -8 -6 -5 -6 6 -1 11 2 17 5 13 3 -3 4 -12 1 -19z
m240 -100 c-3 -8 -6 -5 -6 6 -1 11 2 17 5 13 3 -3 4 -12 1 -19z m5159 -45
c-10 -10 -19 5 -10 18 6 11 8 11 12 0 2 -7 1 -15 -2 -18z m-5146 -9 c0 -8 -4
-12 -10 -9 -5 3 -10 10 -10 16 0 5 5 9 10 9 6 0 10 -7 10 -16z"/>
<path d="M2723 5713 c-4 -21 -8 -176 -8 -345 0 -183 -4 -303 -9 -298 -5 5 -12
127 -16 272 l-7 263 -1 -207 c-2 -149 -5 -208 -14 -208 -8 0 -10 65 -7 248 3
136 2 218 -2 182 -4 -36 -7 -157 -8 -269 0 -112 -3 -202 -5 -200 -2 2 -7 27
-9 54 -3 28 -6 52 -7 55 -3 11 1 229 5 275 3 37 2 43 -4 25 -5 -14 -10 -43
-11 -65 l-3 -40 -7 35 c-7 32 -7 30 -9 -20 -1 -30 -8 -68 -16 -84 -18 -33 -19
-39 -5 -31 14 8 13 -8 -1 -22 -8 -8 -9 -39 -3 -105 11 -121 10 -134 -5 -130
-7 1 -77 16 -154 33 -78 17 -147 35 -154 41 -6 5 -27 6 -46 3 -29 -6 -35 -4
-40 14 -4 16 -13 21 -41 21 -25 0 -36 4 -36 15 0 17 -18 19 -54 5 -25 -9 -37
2 -16 15 6 3 10 11 10 16 0 5 -17 1 -37 -10 -21 -10 -85 -38 -143 -62 -112
-45 -208 -102 -305 -180 l-59 -49 -14 48 c-8 26 -20 54 -28 63 -8 8 -14 25
-14 37 0 11 -4 23 -9 26 -5 4 -8 -4 -6 -16 1 -13 8 -62 15 -110 6 -48 10 -93
7 -100 -2 -7 -7 14 -11 47 -9 78 -16 109 -22 102 -3 -3 -1 -45 5 -92 10 -85 3
-141 -10 -80 -6 26 -7 23 -8 -17 -1 -38 2 -46 14 -42 8 4 15 1 15 -6 0 -6 -4
-9 -9 -5 -5 3 -12 1 -16 -5 -11 -18 -33 -11 -38 13 -3 16 -5 14 -6 -10 -1 -25
3 -32 22 -36 l22 -4 -22 -2 c-13 0 -23 -6 -23 -12 0 -7 15 -10 40 -7 32 3 41
0 46 -15 3 -10 3 -21 0 -24 -3 -4 -6 1 -6 10 0 11 -8 17 -21 17 -18 0 -17 -4
15 -42 20 -23 33 -44 30 -47 -3 -3 -17 8 -30 24 l-25 30 5 -35 c3 -19 8 -69
11 -110 7 -91 50 -456 70 -595 7 -55 23 -188 35 -295 11 -107 25 -233 31 -280
6 -47 13 -105 15 -130 3 -25 9 -63 14 -85 5 -22 21 -105 35 -185 14 -80 34
-170 45 -201 10 -31 22 -91 26 -135 7 -81 21 -80 24 1 1 32 3 36 10 20 13 -30
12 3 -1 45 -6 19 -14 67 -19 105 -5 39 -13 111 -19 160 -10 84 -47 282 -58
315 -4 12 -7 11 -13 -5 -7 -16 -9 -17 -9 -3 -1 9 4 20 10 24 6 3 8 17 5 30 -4
13 -13 102 -21 196 -21 243 -43 398 -56 398 -5 0 -9 -14 -9 -32 0 -53 -17 -19
-34 67 -15 77 -48 372 -61 540 -3 44 -8 94 -11 110 l-5 30 20 -25 c11 -14 18
-34 16 -45 -3 -11 -2 -14 1 -7 12 27 34 -9 34 -57 0 -33 -3 -42 -10 -31 -15
23 -12 -3 5 -43 20 -49 19 -60 -5 -52 -24 8 -23 10 -5 -40 10 -28 14 -33 15
-17 0 12 4 22 8 22 4 0 17 -65 28 -144 10 -79 16 -142 12 -140 -8 5 -25 87
-34 167 -3 32 -9 56 -11 53 -3 -3 0 -47 6 -98 6 -51 12 -126 12 -166 1 -68 10
-95 24 -72 3 5 11 10 16 10 6 0 7 -5 3 -12 -5 -7 -3 -8 6 -3 13 8 13 17 -14
230 -17 127 -20 172 -11 163 3 -3 12 -39 19 -79 8 -41 14 -60 14 -44 1 17 -3
49 -7 73 -6 31 -5 42 4 42 12 0 34 -113 35 -173 1 -20 2 -20 11 -4 7 11 7 35
0 74 -14 73 -13 83 3 55 12 -22 14 -23 29 -7 10 9 17 25 17 36 0 10 5 19 10
19 6 0 10 -4 10 -10 0 -5 5 -10 10 -10 6 0 9 6 8 12 -2 7 4 13 12 13 9 0 14
-7 12 -17 -2 -15 5 -18 40 -18 l43 0 -28 -19 -28 -18 31 -13 c17 -7 29 -14 27
-17 -2 -2 -25 5 -51 16 l-46 20 16 -24 c9 -13 24 -27 34 -30 11 -4 17 -12 13
-21 -3 -7 -1 -14 5 -14 6 0 12 5 14 11 2 7 12 7 31 0 41 -16 54 -14 60 9 6 22
-7 36 -45 45 -40 10 -55 32 -27 40 17 6 19 9 8 16 -11 7 -10 9 4 9 21 0 22
-16 1 -28 -14 -8 -14 -10 -1 -15 8 -3 23 3 33 14 17 19 19 19 25 2 4 -13 11
-3 24 36 15 45 15 59 5 99 -17 63 -17 63 -46 50 -26 -12 -16 -18 -154 86 l-52
39 23 18 c31 24 40 24 46 -1 3 -11 13 -20 23 -20 19 0 35 26 20 35 -4 3 -11
-1 -13 -7 -3 -8 -6 -6 -6 5 -1 10 -13 22 -28 28 -17 6 -23 13 -17 19 6 6 21 6
41 -2 25 -9 38 -9 60 1 27 12 27 13 8 27 -31 23 -66 16 -140 -27 -63 -36 -71
-39 -94 -27 -26 14 -45 51 -54 108 -12 70 40 93 278 126 66 9 122 20 125 23 5
8 90 -4 310 -43 80 -14 197 -35 260 -46 124 -22 135 -29 146 -89 4 -20 27 -85
51 -145 24 -59 42 -110 39 -113 -2 -2 -14 5 -25 16 l-20 20 4 -32 c6 -38 4
-32 -42 93 -36 99 -61 146 -70 136 -3 -3 -1 -11 5 -18 13 -17 74 -190 68 -195
-2 -3 -36 0 -75 6 -38 6 -91 11 -118 11 -73 0 -76 6 -44 82 16 37 38 79 50 94
27 34 28 64 2 64 -14 0 -18 -5 -14 -19 3 -11 -11 -46 -35 -86 -23 -37 -44 -80
-47 -96 -7 -29 -8 -30 -63 -27 l-57 4 -25 82 c-13 45 -28 82 -32 82 -7 0 20
-105 48 -189 8 -24 13 -46 10 -48 -2 -3 -19 39 -36 93 -17 54 -36 105 -41 113
-8 13 -9 12 -4 -4 14 -40 36 -127 33 -130 -2 -1 -51 -5 -109 -8 l-106 -6 27
85 c15 47 32 90 39 97 14 14 14 44 1 52 -5 3 -10 -3 -10 -14 0 -12 -4 -21 -10
-21 -13 0 -37 -58 -59 -145 -15 -56 -23 -71 -39 -73 -17 -3 -23 6 -36 49 -9
29 -16 77 -16 106 0 60 -16 73 -19 16 -1 -21 -3 -45 -4 -53 -1 -8 11 -54 28
-103 28 -82 30 -86 43 -65 12 21 13 20 7 -14 -4 -28 5 -69 39 -170 24 -74 56
-158 70 -188 31 -64 30 -60 9 -60 -22 0 -8 -13 17 -15 27 -2 25 12 -10 76 -32
59 -35 69 -20 69 6 0 10 -6 10 -14 0 -8 5 -18 12 -22 8 -5 9 -2 5 9 -8 20 -1
21 77 6 64 -12 61 -12 70 18 6 19 2 23 -31 28 -58 10 -73 15 -73 27 0 5 9 12
20 15 10 3 22 14 25 24 10 31 25 21 25 -17 0 -47 22 -41 34 9 23 92 31 -8 10
-123 -10 -49 -21 -81 -34 -91 -17 -15 -18 -18 -4 -23 28 -11 31 -7 44 52 16
73 24 82 63 76 25 -4 28 -3 17 5 -8 6 -23 11 -32 11 -23 0 -24 38 -1 85 23 49
39 46 34 -7 -1 -10 4 -18 12 -18 7 0 21 -16 30 -36 10 -19 22 -32 27 -29 6 3
10 2 10 -3 0 -6 15 -33 34 -60 35 -52 36 -64 8 -55 -13 3 -13 1 2 -11 22 -18
30 -13 41 22 5 16 2 22 -9 22 -9 0 -27 22 -41 50 -22 42 -25 59 -19 100 7 53
24 79 24 36 0 -14 5 -28 10 -31 6 -4 10 7 10 26 0 37 10 32 25 -13 16 -48 34
-47 28 1 -4 27 -2 41 6 41 6 0 11 -4 11 -9 0 -12 29 -41 41 -41 6 0 6 7 -1 19
-12 24 -13 31 -1 31 5 0 14 -13 21 -30 15 -36 34 -41 20 -5 -13 35 -4 31 15
-5 19 -36 39 -31 25 6 -15 40 -12 46 16 28 20 -14 24 -23 19 -42 -7 -29 -59
-139 -77 -165 -11 -14 -10 -19 2 -27 8 -5 17 -7 21 -4 13 7 59 116 54 124 -3
5 0 19 5 32 9 21 10 20 4 -7 -7 -39 7 -24 27 27 l16 40 17 -82 c15 -69 16 -84
5 -91 -38 -21 -54 -39 -54 -60 0 -14 -6 -24 -15 -25 -26 -1 -91 -34 -85 -44 3
-5 1 -11 -4 -15 -12 -7 -3 -35 10 -35 5 0 9 9 9 20 0 11 5 20 11 20 7 0 9 -10
5 -24 -3 -14 -2 -28 4 -31 5 -3 10 3 10 14 0 11 5 23 10 26 6 4 10 -6 10 -21
0 -41 21 -15 22 27 1 36 8 26 24 -36 l8 -30 4 38 c4 41 22 51 22 11 0 -34 20
-21 21 14 1 20 4 15 12 -18 9 -40 11 -42 16 -20 5 16 9 21 14 13 8 -13 37 -6
37 9 0 5 -4 6 -10 3 -5 -3 -10 -2 -10 4 0 6 12 8 28 5 22 -5 40 3 87 39 33 25
64 42 70 39 5 -4 2 -8 -7 -10 -14 -3 -18 -14 -18 -50 0 -50 -14 -112 -28 -121
-5 -3 -19 -33 -33 -66 -22 -55 -24 -74 -24 -215 0 -195 11 -377 30 -501 19
-125 19 -165 -5 -277 -14 -65 -17 -100 -10 -117 7 -18 5 -28 -6 -40 -10 -9
-14 -26 -11 -40 2 -14 0 -25 -5 -25 -5 0 -4 -8 1 -19 6 -10 8 -21 4 -24 -3 -3
-5 -54 -4 -112 1 -120 16 -197 37 -193 9 2 29 -28 54 -82 l39 -85 -15 -60 c-8
-33 -18 -74 -23 -91 -9 -33 4 -83 18 -68 13 13 34 84 28 91 -4 3 -13 -10 -21
-28 l-16 -34 6 34 c4 19 14 57 24 85 15 42 19 46 19 23 1 -15 7 -30 14 -33 10
-4 16 -49 7 -49 -7 0 -7 -68 0 -100 13 -55 -5 -102 -39 -108 -14 -3 -31 -1
-38 4 -7 7 -14 6 -18 -2 -6 -8 -10 -7 -16 2 -7 12 -9 11 -9 0 0 -11 -4 -9 -15
5 -14 19 -14 19 -15 -1 -1 -14 -5 -11 -13 12 -19 51 -28 50 -20 -2 4 -35 3
-46 -5 -41 -7 4 -12 25 -12 47 0 21 -4 39 -10 39 -5 0 -10 -19 -10 -42 0 -23
-3 -39 -6 -35 -3 3 -2 52 2 109 5 57 10 91 12 76 4 -31 22 -38 22 -9 0 10 6
33 14 51 10 25 14 29 20 15 3 -9 6 -31 6 -47 0 -17 3 -28 7 -24 8 8 62 185 63
206 0 33 -35 -42 -54 -115 -3 -11 -4 -5 -2 13 1 17 -1 32 -6 32 -4 0 -11 1
-15 3 -3 1 -14 -20 -24 -48 -13 -39 -18 -44 -18 -24 -1 15 6 43 15 64 21 50
10 56 -15 8 -19 -36 -20 -37 -21 -11 0 15 -5 30 -10 33 -15 9 -40 -14 -40 -36
0 -12 -5 -16 -16 -12 -12 4 -14 0 -9 -18 6 -24 -18 -108 -33 -119 -5 -3 -16
-16 -25 -30 -10 -15 -17 -19 -17 -10 0 25 12 60 19 56 3 -2 6 16 7 40 1 27 -3
41 -9 37 -7 -4 -8 1 -3 13 16 37 19 60 8 49 -12 -12 -42 -110 -42 -139 0 -17
2 -18 10 -6 5 8 10 10 10 4 0 -6 -6 -17 -14 -23 -9 -8 -12 -23 -9 -43 4 -25 2
-30 -11 -25 -9 4 -17 -1 -20 -11 -3 -9 -4 -3 -2 15 1 18 -2 29 -7 26 -17 -10
-24 18 -16 64 5 26 7 48 5 51 -10 9 -39 -65 -37 -93 1 -17 -7 -66 -19 -109
-12 -43 -19 -80 -16 -83 6 -7 7 -3 31 90 9 37 20 67 24 67 4 0 12 -15 19 -32
11 -29 10 -36 -9 -61 -19 -27 -20 -30 -4 -83 11 -40 28 -68 60 -100 25 -24 49
-44 55 -44 6 0 9 20 8 45 0 25 2 48 5 52 4 3 7 -6 7 -20 0 -15 5 -27 11 -27 6
0 9 9 6 20 -3 11 -1 23 4 26 5 3 9 -5 9 -18 0 -13 5 -30 10 -38 7 -11 8 -2 4
28 -4 28 -3 42 5 42 6 0 11 -9 11 -20 0 -11 5 -20 10 -20 6 0 10 7 10 15 0 13
11 19 31 17 4 -1 71 -3 149 -6 78 -2 143 -6 145 -8 2 -2 30 -2 62 -1 32 2 112
2 178 1 164 -2 797 2 1038 8 190 5 197 4 197 -15 0 -23 26 -35 34 -16 3 9 0
12 -10 8 -8 -3 -14 1 -14 11 0 9 4 16 8 16 4 0 6 17 3 38 -4 37 -4 37 -13 10
-5 -16 -16 -28 -24 -28 -17 0 -17 10 -4 44 8 23 12 25 34 15 15 -7 32 -31 45
-61 14 -33 16 -46 7 -39 -7 6 -17 26 -21 44 -4 18 -9 25 -12 17 -2 -9 4 -34
13 -55 l16 -40 24 28 c29 34 30 45 3 102 -23 48 -33 52 -86 33 -26 -9 -34 -19
-39 -45 -4 -23 -12 -33 -25 -33 -11 0 -19 7 -20 18 0 12 -3 10 -11 -8 -10 -24
-10 -24 -18 -5 -5 11 -9 14 -9 8 -1 -7 -8 -13 -16 -13 -11 0 -14 7 -9 25 5 21
1 27 -22 36 -40 15 -206 49 -215 43 -4 -2 -10 2 -13 8 -5 11 -7 11 -12 0 -3
-6 -11 -9 -17 -5 -7 4 -23 8 -37 9 -14 1 -56 8 -95 15 -85 16 -165 14 -202 -4
-26 -13 -61 -21 -136 -33 -15 -2 -37 -9 -49 -15 -12 -7 -23 -7 -27 -2 -5 8
-144 67 -204 87 -10 3 -32 -1 -49 -10 -17 -9 -39 -14 -49 -11 -11 3 -19 0 -19
-6 0 -25 -18 10 -23 46 -5 32 -3 38 9 33 8 -3 17 1 21 11 6 15 7 14 14 -3 7
-17 8 -17 8 4 1 15 8 26 21 29 11 3 20 9 20 13 0 5 10 6 22 2 17 -4 20 -2 15
11 -11 30 26 31 48 1 11 -15 31 -39 45 -52 22 -21 25 -22 30 -6 5 13 9 14 14
5 6 -9 16 -7 42 9 20 11 42 20 50 20 8 0 14 4 14 9 0 5 16 19 35 31 19 12 34
24 32 28 -1 4 3 8 8 10 6 2 14 -10 19 -27 10 -36 29 -42 20 -7 -3 13 -1 33 5
44 8 15 8 21 0 24 -6 2 -9 17 -7 33 l3 30 18 -34 c9 -19 17 -47 17 -62 0 -15
5 -31 10 -34 6 -4 10 12 10 39 0 25 -3 46 -7 46 -12 0 -40 54 -35 68 7 22 21
13 42 -28 11 -22 23 -40 25 -40 3 0 -4 18 -15 39 -21 42 -20 45 21 55 24 5 27
2 33 -25 3 -17 6 -60 6 -96 0 -39 4 -62 10 -58 5 3 7 19 3 35 -3 19 -1 30 6
30 6 0 11 -5 11 -10 0 -16 42 -101 47 -96 3 2 -11 44 -30 93 -52 130 -53 139
-18 157 43 23 141 116 141 135 0 9 9 22 20 29 18 11 56 74 59 96 1 11 -88 9
-179 -5 -36 -5 -107 -28 -160 -52 l-95 -42 -135 1 c-125 1 -139 4 -180 27
l-45 25 -11 128 c-7 71 -12 183 -12 249 0 127 24 441 28 365 2 -38 3 -41 10
-20 11 33 11 674 1 725 l-9 40 -2 -55 -3 -55 -8 60 c-4 33 -15 177 -23 320
-22 381 -31 436 -76 450 -11 4 -29 24 -40 45 -11 21 -25 40 -31 42 -7 2 -13
34 -16 75 -4 71 -4 71 26 89 39 23 40 38 1 32 -41 -6 -38 3 15 34 54 33 58 49
10 38 -32 -7 -35 -6 -30 10 3 10 1 21 -5 25 -5 3 -10 17 -10 31 0 13 -4 24
-10 24 -5 0 -14 19 -20 43 -7 23 -23 62 -36 86 -13 24 -24 60 -25 80 l-1 36
-10 -37 c-11 -44 -30 -52 -22 -10 4 19 -1 35 -15 52 l-20 25 -1 -25 c0 -20 2
-22 11 -10 7 11 9 3 4 -30 -3 -25 -8 -74 -11 -110 -9 -98 -17 -87 -12 15 3 50
2 101 -2 115 -6 17 -9 2 -10 -50 -1 -41 -2 -83 -1 -92 1 -10 -3 -18 -8 -18 -7
0 -11 51 -11 152 0 83 -2 149 -4 147 -3 -2 -7 -63 -11 -134 -7 -138 -11 -165
-26 -165 -5 0 -10 42 -11 93 l-2 92 -6 -90 c-5 -73 -7 -50 -10 120 l-4 210 -5
-197 c-3 -108 -9 -200 -13 -204 -5 -4 -9 89 -10 207 l-3 214 -2 -207 c-5 -292
-23 -274 -25 25 l-1 232 -8 -175 c-13 -291 -15 -295 -19 -35 -2 201 -5 232
-11 160 -4 -49 -7 -161 -8 -248 -1 -93 -5 -156 -10 -153 -6 4 -8 135 -7 314 2
215 1 268 -4 177 -4 -71 -8 -211 -9 -309 0 -99 -4 -177 -7 -173 -7 7 -6 557 1
607 5 30 4 32 -5 12 -5 -13 -13 -156 -17 -318 -4 -176 -10 -294 -16 -294 -5 0
-7 9 -4 20 3 13 0 20 -9 20 -8 0 -14 5 -14 10 0 6 5 10 10 10 6 0 10 7 10 16
0 8 -5 12 -11 9 -7 -5 -10 83 -7 304 2 171 2 311 1 311 -1 0 -6 -17 -10 -37z
m-113 -403 c-8 -5 -17 -7 -19 -4 -3 3 1 9 9 14 8 5 17 7 19 4 3 -3 -1 -9 -9
-14z m-13 -62 c-3 -8 -6 -5 -6 6 -1 11 2 17 5 13 3 -3 4 -12 1 -19z m79 -105
c-11 -11 -17 4 -9 23 7 18 8 18 11 1 2 -10 1 -21 -2 -24z m-17 -45 c1 -5 -3
-8 -8 -8 -11 0 -21 37 -13 45 6 5 20 -19 21 -37z m26 23 c3 -5 1 -12 -5 -16
-5 -3 -10 1 -10 9 0 18 6 21 15 7z m5 -41 c0 -5 -2 -10 -4 -10 -3 0 -8 5 -11
10 -3 6 -1 10 4 10 6 0 11 -4 11 -10z m420 -21 c0 -5 -4 -9 -10 -9 -5 0 -10 7
-10 16 0 8 5 12 10 9 6 -3 10 -10 10 -16z m-34 -57 c-12 -11 -18 7 -10 30 l8
23 4 -23 c2 -13 1 -26 -2 -30z m51 -4 c-3 -7 -5 -2 -5 12 0 14 2 19 5 13 2 -7
2 -19 0 -25z m-5 -65 c7 -9 4 -9 -14 -1 -20 9 -23 17 -19 42 l4 31 10 -30 c5
-16 14 -35 19 -42z m-55 25 c-3 -7 -5 -2 -5 12 0 14 2 19 5 13 2 -7 2 -19 0
-25z m113 -208 c0 -5 -5 -10 -11 -10 -5 0 -7 5 -4 10 3 6 8 10 11 10 2 0 4 -4
4 -10z m4 -105 c6 -47 6 -49 -8 -25 -16 26 -20 62 -9 73 9 10 10 8 17 -48z
m-337 13 c-3 -8 -6 -5 -6 6 -1 11 2 17 5 13 3 -3 4 -12 1 -19z m298 12 c-3 -5
-10 -10 -16 -10 -5 0 -9 5 -9 10 0 6 7 10 16 10 8 0 12 -4 9 -10z m-235 -22
c0 -21 -20 -85 -41 -133 -5 -11 -13 -33 -19 -49 -6 -16 -13 -27 -15 -24 -3 2
11 47 29 99 24 68 31 101 24 112 -7 13 -5 17 7 17 9 0 15 -9 15 -22z m-93 -70
c-3 -8 -6 -5 -6 6 -1 11 2 17 5 13 3 -3 4 -12 1 -19z m-476 -150 l-30 -75 35
-82 c20 -45 34 -84 31 -87 -2 -3 -11 12 -20 33 -8 21 -23 56 -33 78 l-17 40
-18 -55 c-9 -30 -17 -47 -18 -38 -1 10 6 38 14 62 14 41 14 49 0 82 -22 52
-17 67 6 19 l19 -40 -4 35 c-2 19 -7 43 -11 53 -6 14 -2 17 23 17 22 0 31 6
35 22 4 12 9 20 12 16 3 -3 -8 -39 -24 -80z m552 39 c3 -22 2 -35 -4 -32 -5 4
-9 22 -9 42 0 45 5 40 13 -10z m24 6 c-3 -10 -5 -4 -5 12 0 17 2 24 5 18 2 -7
2 -21 0 -30z m-1224 12 c27 -4 47 -3 51 3 10 17 72 -13 68 -33 -3 -14 4 -17
42 -13 43 3 56 -4 56 -32 0 -4 -19 -11 -43 -14 -23 -4 -56 -15 -72 -26 -36
-24 -45 -25 -45 -6 0 9 -20 19 -55 27 -51 11 -56 15 -65 48 -13 49 -13 64 4
58 7 -3 34 -8 59 -12z m546 -21 c5 -5 12 -19 16 -31 6 -22 4 -23 -58 -23 -86
0 -217 11 -217 19 0 3 4 12 9 20 16 25 229 38 250 15z m385 -14 c61 -10 74
-15 62 -27 -8 -8 -167 -19 -258 -19 -57 1 -63 3 -60 21 2 11 8 25 13 31 10 12
144 9 243 -6z m393 -2 c-3 -8 -6 -5 -6 6 -1 11 2 17 5 13 3 -3 4 -12 1 -19z
m-1473 -30 c3 -15 2 -30 -4 -33 -5 -3 -10 -2 -10 3 0 5 -3 25 -6 43 -8 41 10
29 20 -13z m1383 10 c-3 -8 -6 -5 -6 6 -1 11 2 17 5 13 3 -3 4 -12 1 -19z
m-210 -10 c-3 -8 -6 -5 -6 6 -1 11 2 17 5 13 3 -3 4 -12 1 -19z m94 -42 c-11
-25 -23 -46 -26 -46 -3 0 2 17 11 38 9 20 18 43 21 50 3 7 7 11 9 9 3 -2 -4
-25 -15 -51z m-41 -150 c20 -89 24 -124 15 -115 -6 6 -55 238 -54 254 1 16 18
-43 39 -139z m62 34 c6 0 7 7 4 16 -4 12 -1 14 13 9 13 -4 23 0 30 12 9 16 12
16 21 3 5 -8 10 -25 10 -37 0 -17 6 -23 21 -23 19 0 21 4 15 33 -5 30 -5 31 9
13 8 -11 15 -28 15 -38 0 -23 -61 -91 -115 -128 l-41 -28 -13 60 c-8 38 -9 64
-3 70 6 6 2 24 -9 48 -26 53 -24 57 7 21 14 -17 30 -31 36 -31z m108 9 c0 -4
-4 -11 -10 -14 -5 -3 -10 0 -10 9 0 8 -3 23 -6 33 -5 16 -4 16 10 -1 9 -11 16
-23 16 -27z m-920 10 c-7 -11 -14 -18 -17 -15 -8 8 5 36 17 36 7 0 7 -6 0 -21z
m50 -14 c-7 -8 -19 -15 -26 -15 -8 0 -14 -10 -14 -22 0 -19 -2 -20 -10 -8 -7
11 -3 21 18 37 31 26 51 31 32 8z m660 5 c0 -5 -4 -10 -10 -10 -5 0 -10 5 -10
10 0 6 5 10 10 10 6 0 10 -4 10 -10z m-597 -43 c-9 -23 -17 -43 -18 -44 -3 -6
-75 21 -75 28 0 7 35 23 55 24 6 0 11 6 11 13 2 18 2 18 24 19 19 2 19 0 3
-40z m264 1 c-3 -8 -6 -5 -6 6 -1 11 2 17 5 13 3 -3 4 -12 1 -19z m580 -190
c-3 -8 -6 -5 -6 6 -1 11 2 17 5 13 3 -3 4 -12 1 -19z m-157 -7 c0 -6 -4 -13
-10 -16 -5 -3 -10 1 -10 9 0 9 5 16 10 16 6 0 10 -4 10 -9z m-1250 -15 c0 -8
-4 -17 -9 -20 -10 -7 -23 19 -14 28 11 11 23 6 23 -8z m1180 -22 c0 -8 -4 -12
-10 -9 -5 3 -10 10 -10 16 0 5 5 9 10 9 6 0 10 -7 10 -16z m130 -31 c0 -19 -3
-24 -10 -17 -6 6 -8 18 -4 27 9 24 14 21 14 -10z m187 -30 c-3 -10 -5 -2 -5
17 0 19 2 27 5 18 2 -10 2 -26 0 -35z m94 4 c-8 -8 -11 -3 -11 19 1 25 2 27
11 11 8 -14 8 -22 0 -30z m-315 -14 c-11 -11 -17 4 -9 23 7 18 8 18 11 1 2
-10 1 -21 -2 -24z m351 -45 c-3 -8 -6 -5 -6 6 -1 11 2 17 5 13 3 -3 4 -12 1
-19z m-140 -75 c-2 -16 -4 -3 -4 27 0 30 2 43 4 28 2 -16 2 -40 0 -55z m-1520
5 c-2 -13 -4 -3 -4 22 0 25 2 35 4 23 2 -13 2 -33 0 -45z m1563 -28 c0 -16 -4
-30 -8 -30 -5 0 -9 14 -9 30 0 17 4 30 9 30 4 0 8 -13 8 -30z m137 -52 c-3 -7
-5 -2 -5 12 0 14 2 19 5 13 2 -7 2 -19 0 -25z m-105 -118 l-9 -75 -2 96 c0 53
2 99 7 103 11 12 13 -43 4 -124z m-32 100 c0 -5 -4 -10 -10 -10 -5 0 -10 5
-10 10 0 6 5 10 10 10 6 0 10 -4 10 -10z m62 -230 l-10 -55 -1 70 c0 39 3 95
7 125 l7 55 3 -70 c1 -38 -1 -95 -6 -125z m48 130 c0 -5 -4 -10 -10 -10 -5 0
-10 5 -10 10 0 6 5 10 10 10 6 0 10 -4 10 -10z m17 -42 c-3 -8 -6 -5 -6 6 -1
11 2 17 5 13 3 -3 4 -12 1 -19z m40 -75 c-2 -16 -4 -3 -4 27 0 30 2 43 4 28 2
-16 2 -40 0 -55z m-127 -213 l-7 -135 -1 115 c-1 96 4 170 12 158 1 -2 -1 -64
-4 -138z m67 -87 c-1 -43 -3 -8 -3 77 0 85 2 120 3 78 2 -43 2 -113 0 -155z
m-35 -78 l-9 -110 -2 141 c-1 153 12 266 17 144 1 -36 -2 -114 -6 -175z m121
210 c4 -8 2 -17 -3 -20 -6 -4 -10 3 -10 14 0 25 6 27 13 6z m5 -60 c-3 -3 -9
2 -12 12 -6 14 -5 15 5 6 7 -7 10 -15 7 -18z m-8 -124 c0 -6 -4 -13 -10 -16
-5 -3 -10 1 -10 9 0 9 5 16 10 16 6 0 10 -4 10 -9z m-43 -107 c-6 -105 -17
-139 -17 -52 0 61 10 148 17 148 3 0 3 -43 0 -96z m50 -246 c-1 -40 -3 -8 -3
72 0 80 2 112 3 73 2 -40 2 -106 0 -145z m70 50 c-2 -24 -4 -7 -4 37 0 44 2
63 4 43 2 -21 2 -57 0 -80z m-180 -50 c-2 -13 -4 -3 -4 22 0 25 2 35 4 23 2
-13 2 -33 0 -45z m170 -45 c-3 -10 -5 -4 -5 12 0 17 2 24 5 18 2 -7 2 -21 0
-30z m-27 -13 c0 -5 -2 -10 -4 -10 -3 0 -8 5 -11 10 -3 6 -1 10 4 10 6 0 11
-4 11 -10z m-33 -42 c-3 -8 -6 -5 -6 6 -1 11 2 17 5 13 3 -3 4 -12 1 -19z m60
-100 c1 -101 -1 -112 -7 -63 -13 103 -12 185 4 185 1 0 2 -55 3 -122z m-30 60
c-2 -13 -4 -5 -4 17 -1 22 1 32 4 23 2 -10 2 -28 0 -40z m-163 -65 c14 -212
15 -270 6 -228 -4 22 -11 96 -15 165 -3 69 -9 133 -11 143 -3 9 -1 17 4 17 6
0 13 -44 16 -97z m106 76 c0 -5 -4 -9 -10 -9 -5 0 -10 7 -10 16 0 8 5 12 10 9
6 -3 10 -10 10 -16z m-76 -92 c10 -85 17 -251 10 -244 -10 9 -32 297 -22 291
4 -3 9 -23 12 -47z m-64 12 c0 -18 -18 -9 -23 12 -4 16 -3 18 9 8 8 -6 14 -15
14 -20z m-59 -31 l-9 -33 -1 36 c-1 20 2 39 6 43 13 12 15 -10 4 -46z m256
-40 c-2 -18 -4 -4 -4 32 0 36 2 50 4 33 2 -18 2 -48 0 -65z m-287 56 c0 -14
-4 -23 -9 -20 -5 3 -7 15 -4 26 7 28 13 25 13 -6z m94 -133 c3 -68 3 -122 0
-118 -3 3 -8 38 -10 79 -2 40 -6 92 -9 114 -3 34 2 62 10 52 1 -2 5 -59 9
-127z m-37 57 c-3 -7 -5 -2 -5 12 0 14 2 19 5 13 2 -7 2 -19 0 -25z m137 -23
c-4 -8 -8 -15 -10 -15 -2 0 -4 7 -4 15 0 8 4 15 10 15 5 0 7 -7 4 -15z m66 5
c0 -5 -2 -10 -4 -10 -3 0 -8 5 -11 10 -3 6 -1 10 4 10 6 0 11 -4 11 -10z m-63
-62 c-3 -7 -5 -2 -5 12 0 14 2 19 5 13 2 -7 2 -19 0 -25z m43 -40 c0 -77 -11
-69 -17 13 -3 41 -1 59 6 54 6 -3 11 -34 11 -67z m64 5 c-3 -32 -7 -60 -10
-62 -6 -7 -5 71 2 97 11 38 13 25 8 -35z m-297 5 c-3 -8 -6 -5 -6 6 -1 11 2
17 5 13 3 -3 4 -12 1 -19z m30 -10 c-3 -7 -5 -2 -5 12 0 14 2 19 5 13 2 -7 2
-19 0 -25z m30 -30 c-3 -8 -6 -5 -6 6 -1 11 2 17 5 13 3 -3 4 -12 1 -19z m200
-15 c-3 -10 -5 -4 -5 12 0 17 2 24 5 18 2 -7 2 -21 0 -30z m-222 17 c3 -5 1
-10 -4 -10 -6 0 -11 5 -11 10 0 6 2 10 4 10 3 0 8 -4 11 -10z m165 -20 c0 -5
-2 -10 -4 -10 -3 0 -8 5 -11 10 -3 6 -1 10 4 10 6 0 11 -4 11 -10z m-203 -132
c-2 -24 -4 -5 -4 42 0 47 2 66 4 43 2 -24 2 -62 0 -85z m60 55 c-3 -10 -5 -2
-5 17 0 19 2 27 5 18 2 -10 2 -26 0 -35z m80 -25 c-2 -13 -4 -5 -4 17 -1 22 1
32 4 23 2 -10 2 -28 0 -40z m780 5 c-3 -10 -5 -4 -5 12 0 17 2 24 5 18 2 -7 2
-21 0 -30z m-1030 -25 c-3 -7 -5 -2 -5 12 0 14 2 19 5 13 2 -7 2 -19 0 -25z
m353 18 c0 -3 -4 -8 -10 -11 -5 -3 -10 -1 -10 4 0 6 5 11 10 11 6 0 10 -2 10
-4z m87 -38 c-3 -8 -6 -5 -6 6 -1 11 2 17 5 13 3 -3 4 -12 1 -19z m30 0 c-3
-8 -6 -5 -6 6 -1 11 2 17 5 13 3 -3 4 -12 1 -19z m520 -10 c-3 -8 -6 -5 -6 6
-1 11 2 17 5 13 3 -3 4 -12 1 -19z m-157 -23 c0 -8 -4 -15 -10 -15 -5 0 -10 7
-10 15 0 8 5 15 10 15 6 0 10 -7 10 -15z m-640 -25 c0 -5 -4 -10 -10 -10 -5 0
-10 5 -10 10 0 6 5 10 10 10 6 0 10 -4 10 -10z m687 -27 c-3 -10 -5 -4 -5 12
0 17 2 24 5 18 2 -7 2 -21 0 -30z m-600 -5 c-3 -7 -5 -2 -5 12 0 14 2 19 5 13
2 -7 2 -19 0 -25z m-70 -40 c-2 -13 -4 -3 -4 22 0 25 2 35 4 23 2 -13 2 -33 0
-45z m700 40 c-3 -8 -6 -5 -6 6 -1 11 2 17 5 13 3 -3 4 -12 1 -19z m-545 -18
c-2 -16 -6 -30 -8 -30 -2 0 -4 14 -4 30 0 17 4 30 8 30 5 0 7 -13 4 -30z m138
21 c0 -6 -4 -13 -10 -16 -5 -3 -10 1 -10 9 0 9 5 16 10 16 6 0 10 -4 10 -9z
m-105 -11 c3 -5 1 -10 -4 -10 -6 0 -11 5 -11 10 0 6 2 10 4 10 3 0 8 -4 11
-10z m25 -54 c-8 -8 -9 -4 -6 14 2 14 6 32 7 40 1 8 4 2 6 -14 3 -16 0 -33 -7
-40z m97 12 c-3 -7 -5 -2 -5 12 0 14 2 19 5 13 2 -7 2 -19 0 -25z m-125 -20
c-9 -9 -12 -7 -12 12 0 19 3 21 12 12 9 -9 9 -15 0 -24z m238 -3 c0 -8 -2 -15
-4 -15 -2 0 -6 7 -10 15 -3 8 -1 15 4 15 6 0 10 -7 10 -15z m-183 -47 c-3 -7
-5 -2 -5 12 0 14 2 19 5 13 2 -7 2 -19 0 -25z m-200 0 c-3 -8 -6 -5 -6 6 -1
11 2 17 5 13 3 -3 4 -12 1 -19z m130 -45 c-2 -16 -4 -5 -4 22 0 28 2 40 4 28
2 -13 2 -35 0 -50z m50 45 c-3 -8 -6 -5 -6 6 -1 11 2 17 5 13 3 -3 4 -12 1
-19z m198 12 c-3 -5 -10 -10 -16 -10 -5 0 -9 5 -9 10 0 6 7 10 16 10 8 0 12
-4 9 -10z m-714 -72 c-2 -85 -11 -194 -20 -243 -9 -45 -10 -42 -7 40 1 49 -2
109 -7 133 -7 32 -5 52 7 81 8 21 14 41 12 44 -2 2 1 1 7 -3 5 -5 9 -28 8 -52z
m390 21 c-6 -16 -10 -18 -10 -7 -1 22 12 55 16 42 2 -6 -1 -22 -6 -35z m46
-11 c-3 -7 -5 -2 -5 12 0 14 2 19 5 13 2 -7 2 -19 0 -25z m160 0 c-3 -7 -5 -2
-5 12 0 14 2 19 5 13 2 -7 2 -19 0 -25z m153 13 c0 -6 -4 -13 -10 -16 -5 -3
-10 1 -10 9 0 9 5 16 10 16 6 0 10 -4 10 -9z m30 5 c0 -3 -4 -8 -10 -11 -5 -3
-10 -1 -10 4 0 6 5 11 10 11 6 0 10 -2 10 -4z m-283 -38 c-3 -8 -6 -5 -6 6 -1
11 2 17 5 13 3 -3 4 -12 1 -19z m457 6 c10 -25 -1 -29 -14 -5 -6 12 -7 21 -1
21 5 0 12 -7 15 -16z m-457 -46 c-3 -8 -6 -5 -6 6 -1 11 2 17 5 13 3 -3 4 -12
1 -19z m-67 2 c0 -5 -5 -10 -11 -10 -5 0 -7 5 -4 10 3 6 8 10 11 10 2 0 4 -4
4 -10z m297 -42 c-2 -13 -4 -5 -4 17 -1 22 1 32 4 23 2 -10 2 -28 0 -40z
m-363 -40 c4 -40 9 -81 12 -90 3 -10 1 -18 -4 -18 -6 0 -13 26 -16 58 -3 31
-8 74 -10 95 -3 21 -1 35 3 32 5 -2 11 -37 15 -77z m-39 47 c-2 -37 -15 -43
-15 -7 0 18 4 32 8 32 4 0 7 -11 7 -25z m373 8 c-1 -10 1 -24 6 -31 4 -7 6
-16 3 -19 -9 -8 -29 38 -23 53 8 20 18 17 14 -3z m-742 -18 c4 -9 2 -55 -4
-103 l-10 -87 2 88 c1 48 -1 90 -6 93 -11 7 -10 24 2 24 6 0 13 -7 16 -15z
m304 -60 c4 -25 3 -42 -1 -38 -10 11 -24 100 -14 91 5 -4 11 -28 15 -53z
m-333 23 c-3 -8 -6 -5 -6 6 -1 11 2 17 5 13 3 -3 4 -12 1 -19z m480 -45 c-3
-10 -5 -2 -5 17 0 19 2 27 5 18 2 -10 2 -26 0 -35z m-486 -44 l-9 -34 -1 31
c-1 17 2 34 6 37 12 13 14 -1 4 -34z m548 -9 c0 -11 -2 -11 -10 3 -6 9 -14 15
-20 12 -13 -9 -11 9 3 23 10 10 14 9 20 -5 3 -10 7 -25 7 -33z m-129 5 c0 -8
-4 -15 -10 -15 -5 0 -7 7 -4 15 4 8 8 15 10 15 2 0 4 -7 4 -15z m77 -7 c-3 -8
-6 -5 -6 6 -1 11 2 17 5 13 3 -3 4 -12 1 -19z m-527 -38 c0 -11 -4 -20 -9 -20
-5 0 -7 9 -4 20 3 11 7 20 9 20 2 0 4 -9 4 -20z m1290 -19 c0 -6 -4 -13 -10
-16 -5 -3 -10 1 -10 9 0 9 5 16 10 16 6 0 10 -4 10 -9z m19 -35 c-9 -8 -10 -7
-5 7 3 10 7 24 7 30 1 7 3 4 6 -7 3 -10 -1 -23 -8 -30z m39 -3 c-10 -37 -27
-67 -34 -60 -7 6 28 97 36 97 5 0 4 -17 -2 -37z m62 28 c0 -6 -4 -13 -10 -16
-5 -3 -10 1 -10 9 0 9 5 16 10 16 6 0 10 -4 10 -9z m-1410 -11 c0 -5 -5 -10
-11 -10 -5 0 -7 5 -4 10 3 6 8 10 11 10 2 0 4 -4 4 -10z m810 -14 c0 -14 -4
-28 -10 -31 -6 -4 -10 7 -10 24 0 17 5 31 10 31 6 0 10 -11 10 -24z m17 -13
c-3 -10 -5 -4 -5 12 0 17 2 24 5 18 2 -7 2 -21 0 -30z m608 -8 c0 -25 -3 -45
-6 -45 -10 0 -17 49 -12 71 9 34 19 20 18 -26z m39 23 c-3 -13 -10 -30 -15
-38 -7 -13 -8 -13 -9 0 0 27 12 60 22 60 5 0 6 -10 2 -22z m30 -26 c-16 -40
-43 -73 -29 -37 4 11 11 35 17 53 5 18 13 30 18 27 6 -4 3 -21 -6 -43z m37 -5
c-6 -15 -15 -27 -21 -27 -6 0 -4 14 5 36 8 20 16 39 16 43 1 3 3 -1 6 -10 2
-8 -1 -28 -6 -42z m107 15 c-14 -36 -33 -44 -22 -9 7 24 25 50 30 44 2 -2 -2
-18 -8 -35z m-778 3 c0 -8 -4 -17 -10 -20 -6 -4 -10 5 -10 20 0 15 4 24 10 20
6 -3 10 -12 10 -20z m324 -20 c-4 -21 -10 -33 -15 -28 -6 6 -5 23 2 42 15 41
22 34 13 -14z m492 10 c-7 -29 -26 -34 -26 -7 0 18 20 45 28 37 2 -2 2 -16 -2
-30z m-794 -5 c3 -16 1 -30 -4 -30 -4 0 -8 14 -8 30 0 17 2 30 4 30 2 0 6 -13
8 -30z m273 8 c-4 -13 -13 -29 -20 -36 -10 -11 -10 -7 -1 22 6 20 15 36 19 36
5 0 5 -10 2 -22z m416 -5 c-4 -15 -12 -28 -19 -31 -9 -3 -9 4 -1 27 13 38 30
41 20 4z m31 -3 c-2 -16 -9 -30 -14 -30 -6 0 -7 7 -4 16 3 9 6 22 6 30 0 8 4
14 8 14 5 0 7 -13 4 -30z m138 11 c-1 -15 -17 -27 -40 -28 -14 -1 -19 1 -12 4
6 3 12 13 12 23 0 13 5 17 20 13 11 -3 20 -8 20 -12z m-521 -8 c0 -5 -4 -17
-9 -28 -8 -18 -9 -17 -9 8 -1 15 4 27 9 27 6 0 10 -3 9 -7z m132 -36 c-13 -13
-15 1 -4 30 7 17 8 17 11 -1 2 -10 -1 -23 -7 -29z m-641 12 c0 -5 -4 -9 -10
-9 -5 0 -10 7 -10 16 0 8 5 12 10 9 6 -3 10 -10 10 -16z m527 -1 c-3 -8 -6 -5
-6 6 -1 11 2 17 5 13 3 -3 4 -12 1 -19z m149 -15 c-11 -11 -19 6 -11 24 8 17
8 17 12 0 3 -10 2 -21 -1 -24z m-479 5 c-3 -8 -6 -5 -6 6 -1 11 2 17 5 13 3
-3 4 -12 1 -19z m39 -5 c-10 -10 -19 5 -10 18 6 11 8 11 12 0 2 -7 1 -15 -2
-18z m104 12 c0 -8 -4 -15 -10 -15 -5 0 -7 7 -4 15 4 8 8 15 10 15 2 0 4 -7 4
-15z m230 5 c0 -5 -4 -10 -10 -10 -5 0 -10 5 -10 10 0 6 5 10 10 10 6 0 10 -4
10 -10z m-260 -10 c0 -5 -5 -10 -11 -10 -5 0 -7 5 -4 10 3 6 8 10 11 10 2 0 4
-4 4 -10z"/>
<path d="M2747 5462 c-5 -112 -7 -206 -4 -208 7 -7 19 269 15 346 -2 36 -7
-26 -11 -138z"/>
<path d="M5297 5375 c-10 -7 -15 -19 -12 -27 3 -8 -1 -14 -12 -16 -10 -1 -34
-3 -53 -5 -36 -4 -198 -54 -280 -87 -59 -24 -150 -59 -285 -110 -60 -23 -138
-55 -172 -71 -35 -17 -71 -32 -82 -34 -10 -2 -37 -17 -60 -33 -22 -16 -62 -35
-88 -42 -26 -7 -49 -14 -51 -16 -2 -1 4 -14 13 -28 l17 -26 -37 6 c-20 3 -44
3 -52 -1 -13 -5 -11 -11 13 -36 l29 -31 -52 7 c-84 11 -68 -20 28 -55 l54 -20
-50 6 -50 5 22 -20 c17 -14 45 -21 108 -26 85 -7 121 -3 111 14 -4 5 8 9 26 9
58 -1 68 2 68 16 0 8 14 16 33 19 41 6 48 -1 20 -20 -14 -9 -23 -26 -23 -41 0
-25 -1 -25 -14 -7 -12 16 -16 17 -30 6 -9 -7 -16 -20 -16 -27 0 -7 -6 -11 -14
-8 -25 10 -101 -32 -148 -80 -57 -61 -110 -166 -116 -231 -3 -36 3 -67 19
-110 l23 -60 7 35 6 35 3 -30 c1 -16 2 -37 1 -47 -1 -9 3 -19 9 -23 5 -3 10 2
11 12 0 10 7 -1 16 -24 8 -23 18 -42 21 -40 4 1 32 -23 62 -53 51 -51 156
-130 172 -130 4 0 5 21 1 48 -6 43 -5 46 10 33 11 -8 18 -30 19 -60 l1 -46 4
43 c6 57 23 53 24 -5 l1 -48 12 40 c12 38 13 39 24 18 7 -12 12 -31 12 -43 0
-12 4 -18 10 -15 6 4 8 16 5 28 -6 21 -5 21 14 -2 12 -13 21 -20 21 -17 0 4
18 -3 41 -14 62 -32 69 -18 11 20 -29 18 -50 35 -48 37 2 2 29 -12 60 -32 32
-20 62 -35 67 -33 6 2 -18 22 -53 45 -211 137 -350 253 -341 282 4 13 3 13 -5
2 -8 -11 -12 -10 -21 8 -7 12 -16 19 -22 16 -5 -4 -16 9 -24 29 -17 40 -19 58
-5 36 8 -13 10 -13 10 2 0 9 19 30 43 46 70 49 121 112 155 194 18 42 32 81
32 87 0 21 189 128 303 171 64 24 112 56 99 64 -6 3 -17 0 -25 -9 -13 -13 -16
-13 -21 1 -4 11 -10 13 -25 4 -30 -16 -85 -20 -93 -6 -5 7 -8 4 -8 -8 0 -12
-5 -16 -16 -12 -8 3 -13 2 -10 -3 3 -5 -1 -12 -10 -15 -25 -10 -32 -7 -37 12
-4 13 -5 12 -6 -5 -1 -30 -21 -40 -22 -11 -1 21 -2 20 -14 -7 l-14 -30 -1 27
c0 36 26 52 115 72 39 9 84 20 100 25 17 5 48 12 70 16 22 3 60 12 85 19 25 8
65 19 90 27 25 7 53 19 63 27 11 10 17 11 17 3 0 -8 5 -9 19 -1 11 5 29 10 41
10 11 0 23 7 26 15 6 14 71 41 80 32 3 -3 -8 -8 -25 -12 -17 -4 -34 -11 -37
-17 -4 -7 5 -8 27 -3 62 12 68 15 62 32 -5 13 -2 15 15 11 12 -4 24 -3 27 1 2
4 29 13 59 20 31 7 58 17 61 22 11 17 55 10 161 -26 57 -19 112 -35 122 -35
13 0 14 -2 3 -9 -9 -6 1 -13 35 -24 74 -24 174 -45 174 -37 0 4 -8 11 -17 14
-12 5 -14 9 -5 18 18 18 15 28 -10 38 -19 7 -19 9 -5 9 25 1 11 21 -15 21 -11
0 -42 17 -68 38 -145 112 -386 252 -410 237 -5 -3 -10 -2 -10 3 0 25 -174 48
-203 27z m-97 -85 c12 -8 9 -10 -12 -10 -15 0 -30 5 -33 10 -8 13 25 13 45 0z
m-563 -496 c-7 -48 -17 -56 -17 -12 0 31 6 48 17 48 3 0 2 -16 0 -36z m-37 9
c0 -5 -8 -17 -17 -28 -13 -16 -15 -17 -10 -2 4 9 2 17 -3 17 -6 0 -10 -9 -10
-20 0 -11 -4 -20 -10 -20 -12 0 -13 20 -2 36 11 18 52 31 52 17z m-145 -142
c3 -5 1 -12 -5 -16 -5 -3 -10 1 -10 9 0 18 6 21 15 7z m-95 -132 c0 -16 -4
-29 -10 -29 -5 0 -10 16 -10 36 0 21 4 33 10 29 6 -3 10 -19 10 -36z m26 4
c-10 -10 -19 5 -10 18 6 11 8 11 12 0 2 -7 1 -15 -2 -18z m34 2 c0 -8 -2 -15
-4 -15 -2 0 -6 7 -10 15 -3 8 -1 15 4 15 6 0 10 -7 10 -15z m-140 -24 c0 -6
-4 -13 -10 -16 -5 -3 -10 1 -10 9 0 9 5 16 10 16 6 0 10 -4 10 -9z m-23 -88
c-3 -10 -5 -4 -5 12 0 17 2 24 5 18 2 -7 2 -21 0 -30z m80 5 c-3 -7 -5 -2 -5
12 0 14 2 19 5 13 2 -7 2 -19 0 -25z m-110 -25 c-3 -10 -5 -2 -5 17 0 19 2 27
5 18 2 -10 2 -26 0 -35z m83 -2 c0 -11 -4 -22 -9 -25 -5 -3 -8 6 -8 19 0 14 3
25 8 25 5 0 9 -9 9 -19z m-60 -68 c0 -35 -3 -44 -10 -33 -13 20 -13 80 0 80 6
0 10 -21 10 -47z m-30 -9 c0 -14 -4 -23 -10 -19 -5 3 -10 15 -10 26 0 10 5 19
10 19 6 0 10 -12 10 -26z m7 -111 c-3 -10 -5 -2 -5 17 0 19 2 27 5 18 2 -10 2
-26 0 -35z m29 -21 c-12 -11 -17 7 -9 34 l8 29 3 -28 c2 -16 1 -31 -2 -35z
m114 -82 c0 -5 -4 -10 -10 -10 -5 0 -10 5 -10 10 0 6 5 10 10 10 6 0 10 -4 10
-10z m38 -56 c-3 -14 -5 -12 -10 9 -3 19 -2 25 4 19 6 -6 8 -18 6 -28z m32
-32 c0 -21 -2 -24 -10 -12 -13 20 -13 53 0 45 6 -3 10 -18 10 -33z m30 -17 c0
-46 -14 -46 -17 0 -1 19 3 35 8 35 5 0 9 -16 9 -35z m170 -45 c0 -5 -2 -10 -4
-10 -3 0 -8 5 -11 10 -3 6 -1 10 4 10 6 0 11 -4 11 -10z"/>
<path d="M2961 5284 c0 -11 3 -14 6 -6 3 7 2 16 -1 19 -3 4 -6 -2 -5 -13z"/>
<path d="M2962 5230 c0 -19 2 -27 5 -17 2 9 2 25 0 35 -3 9 -5 1 -5 -18z"/>
<path d="M3032 5210 c0 -14 2 -19 5 -12 2 6 2 18 0 25 -3 6 -5 1 -5 -13z"/>
<path d="M1382 5050 c0 -14 2 -19 5 -12 2 6 2 18 0 25 -3 6 -5 1 -5 -13z"/>
<path d="M1312 4970 c0 -19 2 -27 5 -17 2 9 2 25 0 35 -3 9 -5 1 -5 -18z"/>
<path d="M1392 4950 c0 -19 2 -27 5 -17 2 9 2 25 0 35 -3 9 -5 1 -5 -18z"/>
<path d="M1351 4913 c0 -28 2 -54 7 -57 4 -2 6 14 4 37 -5 68 -10 76 -11 20z"/>
<path d="M5979 4944 c18 -8 47 -17 65 -20 30 -4 30 -4 -9 16 -22 11 -51 19
-65 19 -23 -1 -22 -2 9 -15z"/>
<path d="M6340 4925 c0 -5 9 -21 20 -35 11 -14 20 -20 20 -15 0 6 -9 21 -20
35 -11 14 -20 21 -20 15z"/>
<path d="M1323 4875 c0 -27 2 -38 4 -22 2 15 2 37 0 50 -2 12 -4 0 -4 -28z"/>
<path d="M1333 4765 c0 -22 2 -30 4 -17 2 12 2 30 0 40 -3 9 -5 -1 -4 -23z"/>
<path d="M5310 4792 c0 -9 -16 -12 -60 -9 -79 6 -223 -9 -327 -33 -131 -31
-287 -119 -349 -196 -64 -81 -109 -180 -102 -226 2 -18 11 -7 35 45 44 92 111
177 164 206 l44 24 -52 -55 c-50 -54 -93 -130 -109 -193 -4 -16 -24 -47 -46
-69 -37 -39 -46 -56 -30 -56 4 0 14 6 22 13 8 6 6 1 -3 -13 -47 -69 -35 -85
68 -86 57 -1 90 -8 129 -25 61 -28 61 -28 54 -34 -3 -3 -33 6 -67 21 -94 41
-93 13 1 -33 21 -10 38 -24 38 -31 0 -8 8 -10 24 -6 33 8 67 -11 59 -34 -5
-14 -3 -14 9 2 16 20 44 13 31 -7 -5 -9 -3 -9 8 0 21 17 74 2 73 -20 -3 -27
15 -20 22 9 l7 26 17 -26 c20 -32 30 -24 30 23 l0 37 48 -1 c26 0 63 2 82 6
19 4 64 10 99 13 129 13 89 23 -110 29 -143 4 -223 11 -269 23 -72 19 -191 67
-191 77 0 4 -6 21 -13 38 -9 21 -11 44 -5 67 10 45 86 155 121 175 26 15 27
15 34 -6 21 -69 66 -145 103 -175 118 -95 269 -120 392 -64 107 48 162 112
206 242 12 36 23 57 23 48 0 -10 3 -17 8 -16 4 1 24 -4 45 -11 21 -7 40 -11
42 -9 3 2 -18 21 -46 42 -28 21 -48 40 -45 43 2 3 15 -2 28 -11 25 -18 42 -21
33 -7 -7 13 52 -4 73 -21 32 -25 78 -73 100 -105 l23 -32 -21 -13 c-11 -7 -20
-18 -20 -23 0 -16 -68 -79 -128 -118 -29 -19 -53 -39 -53 -43 1 -5 -5 -9 -12
-9 -14 0 -97 -43 -97 -50 0 -2 8 -2 18 1 11 3 10 1 -3 -5 -11 -5 -33 -12 -49
-16 -29 -6 -29 -6 -7 -21 27 -19 29 -48 2 -39 -11 3 -22 1 -26 -5 -4 -7 -12
-7 -26 0 -10 6 -19 7 -19 3 0 -15 39 -43 59 -43 11 0 29 -12 41 -27 l21 -28
-7 25 c-4 14 -9 31 -11 38 -3 7 4 12 19 12 13 0 30 -6 37 -12 10 -11 11 -10 6
5 -9 23 8 22 30 -3 10 -11 23 -20 28 -20 6 0 0 11 -13 25 l-23 24 29 11 c16 6
36 9 46 7 11 -3 18 0 18 9 0 20 10 18 39 -8 l25 -23 -17 28 c-20 31 -5 37 25
10 19 -17 26 -5 7 14 -16 16 -3 43 21 43 11 0 20 5 20 11 0 18 32 38 59 39 24
0 24 0 5 15 -27 21 4 20 34 -1 30 -21 28 -6 -4 27 l-26 27 31 7 c32 7 40 20
19 28 -29 10 11 26 82 32 41 3 76 8 79 10 2 3 -46 5 -107 5 -62 0 -112 4 -112
9 0 5 -3 16 -6 25 -3 9 -2 16 4 16 5 0 12 -9 15 -20 4 -17 13 -20 54 -19 103
1 190 14 207 32 17 16 16 17 -18 17 -19 0 -38 5 -41 10 -3 6 -18 10 -33 11
-15 0 -40 9 -57 20 -16 11 -38 22 -48 26 -14 4 -15 8 -6 14 16 10 -2 34 -42
55 -15 7 -41 26 -59 42 -29 27 -108 57 -231 87 -31 7 -43 13 -29 14 14 0 42
-4 64 -8 21 -5 35 -6 30 -1 -20 18 -128 31 -294 37 -218 7 -390 -3 -390 -23 0
-17 -14 -18 -39 -3 -13 9 -22 9 -37 0 -17 -11 -17 -11 6 -6 21 5 22 4 7 -5 -9
-6 -22 -8 -28 -5 -5 4 -21 -1 -35 -10 -43 -28 -49 -11 -6 18 94 66 462 90 713
46 66 -11 125 -18 132 -16 19 6 223 -102 275 -146 86 -74 88 -71 7 10 -90 88
-206 155 -280 159 -22 1 -74 11 -115 23 -41 12 -102 24 -135 27 -33 3 -63 11
-67 18 -6 8 -8 7 -8 -2z m-500 -202 c0 -5 -8 -10 -17 -10 -15 0 -16 2 -3 10
19 12 20 12 20 0z m227 -54 c7 12 10 24 7 26 -3 3 2 8 11 11 12 5 15 -1 15
-28 0 -44 -20 -55 -99 -55 -34 0 -63 -5 -67 -11 -4 -8 -10 -6 -17 7 -7 13 -7
19 2 22 6 2 25 15 40 28 36 30 39 30 33 -3 -5 -25 -4 -27 11 -14 10 7 17 19
17 25 0 7 6 18 13 25 10 10 13 6 17 -21 5 -31 6 -32 17 -12z m63 29 c-7 -9
-15 -13 -17 -11 -7 7 7 26 19 26 6 0 6 -6 -2 -15z m16 -42 c-10 -10 -19 5 -10
18 6 11 8 11 12 0 2 -7 1 -15 -2 -18z m211 11 c-3 -3 -12 -4 -19 -1 -8 3 -5 6
6 6 11 1 17 -2 13 -5z m86 -51 c-13 -2 -33 -2 -45 0 -13 2 -3 4 22 4 25 0 35
-2 23 -4z m17 -45 c0 -5 -15 -8 -32 -8 l-33 1 24 20 c19 15 26 17 32 7 5 -7 9
-16 9 -20z m-370 12 c0 -5 -10 -10 -22 -10 -19 0 -20 2 -8 10 19 13 30 13 30
0z m351 -67 c-7 -15 -18 -19 -41 -15 l-32 5 39 17 c44 20 48 19 34 -7z m-408
-10 c-7 -2 -21 -2 -30 0 -10 3 -4 5 12 5 17 0 24 -2 18 -5z m294 1 c-3 -3 -12
-4 -19 -1 -8 3 -5 6 6 6 11 1 17 -2 13 -5z m-218 -28 c-11 -11 -59 -17 -59 -8
0 6 12 12 28 14 28 4 39 1 31 -6z m191 4 c0 -5 -12 -10 -26 -10 -14 0 -23 4
-19 10 3 6 15 10 26 10 10 0 19 -4 19 -10z m120 0 c0 -5 -11 -10 -25 -10 -14
0 -25 5 -25 10 0 6 11 10 25 10 14 0 25 -4 25 -10z m-430 -30 c0 -5 -5 -10
-11 -10 -5 0 -7 5 -4 10 3 6 8 10 11 10 2 0 4 -4 4 -10z m145 -10 c-10 -11
-25 -20 -34 -20 -10 0 -4 8 14 19 39 25 42 25 20 1z m158 13 c-13 -2 -33 -2
-45 0 -13 2 -3 4 22 4 25 0 35 -2 23 -4z m84 -13 c-18 -14 -39 -20 -69 -19
-24 1 -62 -1 -85 -5 -26 -5 -43 -4 -43 2 0 12 100 25 123 17 9 -4 26 0 39 9
12 9 31 16 42 16 16 0 15 -3 -7 -20z m-317 6 c0 -2 -9 -6 -20 -9 -11 -3 -20
-1 -20 4 0 5 9 9 20 9 11 0 20 -2 20 -4z m800 -7 c0 -5 -7 -9 -15 -9 -8 0 -15
-9 -15 -20 0 -11 -4 -20 -8 -20 -5 0 -26 -16 -48 -35 -21 -19 -43 -35 -47 -35
-4 0 -17 -9 -29 -20 -12 -10 -24 -17 -28 -15 -5 3 -11 -2 -14 -10 -3 -8 -9
-14 -13 -14 -7 2 -74 -26 -131 -53 -16 -8 -26 -8 -33 -1 -8 8 12 19 69 37 65
22 95 39 155 91 42 36 83 75 93 87 17 22 64 35 64 17z m-1280 -34 c-7 -8 -17
-15 -22 -15 -6 0 -5 7 2 15 7 8 17 15 22 15 6 0 5 -7 -2 -15z m513 -12 c-7 -2
-19 -2 -25 0 -7 3 -2 5 12 5 14 0 19 -2 13 -5z m173 -10 c-4 -4 -37 -8 -74 -9
l-67 -3 64 9 c35 5 66 12 69 15 3 3 8 3 10 0 3 -3 2 -8 -2 -12z m524 -63 c0
-5 -5 -10 -11 -10 -5 0 -7 5 -4 10 3 6 8 10 11 10 2 0 4 -4 4 -10z m-780 -150
c0 -14 -13 -20 -24 -11 -6 5 -24 11 -41 14 -19 3 -12 4 18 4 26 0 47 -3 47 -7z"/>
<path d="M5398 4443 c7 -3 16 -2 19 1 4 3 -2 6 -13 5 -11 0 -14 -3 -6 -6z"/>
<path d="M1302 4740 c0 -14 2 -19 5 -12 2 6 2 18 0 25 -3 6 -5 1 -5 -13z"/>
<path d="M2192 4740 c1 -13 9 -25 16 -28 17 -5 15 16 -4 35 -14 15 -16 14 -12
-7z"/>
<path d="M2585 4740 c-3 -5 0 -10 9 -10 8 0 23 -3 33 -6 16 -5 16 -4 -1 10
-23 19 -32 20 -41 6z"/>
<path d="M1371 4705 c0 -22 10 -157 24 -300 37 -389 37 -397 45 -386 3 6 3 41
-1 78 -5 38 -15 140 -24 228 -38 376 -43 418 -44 380z"/>
<path d="M1857 4690 c-3 -11 -1 -20 4 -20 5 0 9 9 9 20 0 11 -2 20 -4 20 -2 0
-6 -9 -9 -20z"/>
<path d="M1343 4655 c0 -27 2 -38 4 -22 2 15 2 37 0 50 -2 12 -4 0 -4 -28z"/>
<path d="M1353 4550 c0 -25 2 -35 4 -22 2 12 2 32 0 45 -2 12 -4 2 -4 -23z"/>
<path d="M1290 4570 c0 -5 5 -10 10 -10 6 0 10 5 10 10 0 6 -4 10 -10 10 -5 0
-10 -4 -10 -10z"/>
<path d="M5596 4531 c11 -10 74 -32 74 -25 0 5 -65 34 -77 34 -4 0 -3 -4 3 -9z"/>
<path d="M5880 4522 c0 -5 7 -15 15 -22 8 -7 15 -8 15 -2 0 5 -7 15 -15 22 -8
7 -15 8 -15 2z"/>
<path d="M1301 4484 c0 -11 3 -14 6 -6 3 7 2 16 -1 19 -3 4 -6 -2 -5 -13z"/>
<path d="M1361 4465 c-1 -26 26 -310 39 -395 l9 -65 -5 80 c-8 146 -40 425
-43 380z"/>
<path d="M1301 4382 c-17 -31 -13 -40 5 -14 9 13 14 26 11 29 -3 2 -10 -4 -16
-15z"/>
<path d="M1937 4353 c-4 -6 -16 -73 -28 -149 -27 -176 -27 -174 -45 -150 -11
16 -14 17 -14 4 0 -21 26 -42 45 -34 9 3 15 18 15 40 l0 35 67 -6 c49 -5 64
-3 59 5 -4 7 -18 12 -32 12 -13 0 -24 5 -24 11 0 6 9 9 20 6 11 -3 20 -1 20 4
0 11 -57 12 -63 2 -2 -5 -2 -2 -1 5 2 6 -5 12 -16 12 -11 0 -20 5 -20 11 0 7
10 9 28 4 15 -3 37 -9 49 -12 l22 -5 -17 41 c-14 34 -21 39 -39 34 -17 -4 -23
-1 -23 12 0 12 6 16 20 12 24 -6 24 2 1 67 -10 28 -20 45 -24 39z m23 -73 c0
-5 -4 -10 -10 -10 -5 0 -10 5 -10 10 0 6 5 10 10 10 6 0 10 -4 10 -10z"/>
<path d="M1312 4310 c0 -19 2 -27 5 -17 2 9 2 25 0 35 -3 9 -5 1 -5 -18z"/>
<path d="M1352 4220 c0 -19 2 -27 5 -17 2 9 2 25 0 35 -3 9 -5 1 -5 -18z"/>
<path d="M1714 4205 c11 -8 23 -15 28 -15 4 0 8 -7 8 -15 0 -9 9 -15 21 -15
18 0 19 -3 9 -14 -6 -8 -10 -25 -8 -38 4 -23 5 -23 16 4 10 25 14 26 44 17 46
-13 48 -12 48 14 0 18 -8 26 -35 34 -19 6 -33 7 -29 2 10 -16 -20 -9 -71 16
-28 15 -41 19 -31 10z"/>
<path d="M1362 4145 c0 -16 3 -52 8 -80 6 -41 7 -44 8 -15 0 19 -3 55 -7 80
-6 33 -9 37 -9 15z"/>
<path d="M1581 4144 c0 -11 3 -14 6 -6 3 7 2 16 -1 19 -3 4 -6 -2 -5 -13z"/>
<path d="M1621 4124 c0 -11 3 -14 6 -6 3 7 2 16 -1 19 -3 4 -6 -2 -5 -13z"/>
<path d="M5236 4042 c-5 -8 9 -43 32 -81 1 -2 4 -2 7 1 3 3 -3 24 -14 47 -10
24 -21 38 -25 33z"/>
<path d="M5130 4035 c0 -9 30 -65 35 -65 7 0 -16 60 -26 66 -5 3 -9 2 -9 -1z"/>
<path d="M5289 4004 c10 -22 17 -30 19 -21 4 18 -15 57 -27 57 -5 0 -1 -16 8
-36z"/>
<path d="M5030 4022 c0 -17 46 -69 58 -65 15 6 16 39 0 49 -8 5 -9 0 -6 -14 8
-31 1 -27 -17 8 -14 28 -35 41 -35 22z"/>
<path d="M5200 4021 c0 -5 7 -11 14 -14 10 -4 13 -1 9 9 -6 15 -23 19 -23 5z"/>
<path d="M1382 3980 c0 -19 2 -27 5 -17 2 9 2 25 0 35 -3 9 -5 1 -5 -18z"/>
<path d="M1412 3970 c0 -19 2 -27 5 -17 2 9 2 25 0 35 -3 9 -5 1 -5 -18z"/>
<path d="M1440 3983 c1 -17 21 -164 56 -405 10 -64 21 -115 26 -112 5 3 6 15
2 27 -11 34 -32 211 -27 225 3 6 1 12 -4 12 -5 0 -17 61 -27 135 -17 121 -26
167 -26 118z"/>
<path d="M1393 3905 c0 -22 2 -30 4 -17 2 12 2 30 0 40 -3 9 -5 -1 -4 -23z"/>
<path d="M1421 3885 c-1 -23 44 -339 59 -405 9 -43 9 -43 4 15 -5 56 -50 361
-58 395 -2 9 -4 7 -5 -5z"/>
<path d="M1522 3410 c0 -14 2 -19 5 -12 2 6 2 18 0 25 -3 6 -5 1 -5 -13z"/>
<path d="M1492 3395 c0 -16 2 -22 5 -12 2 9 2 23 0 30 -3 6 -5 -1 -5 -18z"/>
<path d="M1532 3355 c0 -16 4 -43 8 -60 11 -42 11 -1 1 50 -7 34 -9 35 -9 10z"/>
<path d="M1502 3325 c0 -16 2 -22 5 -12 2 9 2 23 0 30 -3 6 -5 -1 -5 -18z"/>
<path d="M1511 3264 c0 -11 3 -14 6 -6 3 7 2 16 -1 19 -3 4 -6 -2 -5 -13z"/>
<path d="M1551 3238 c-1 -16 4 -28 9 -28 12 0 12 8 0 35 -8 18 -9 17 -9 -7z"/>
<path d="M1425 3149 c8 -35 32 -151 55 -258 45 -213 98 -410 100 -371 1 29 49
-124 49 -155 0 -11 -10 13 -21 53 -11 40 -22 71 -25 69 -2 -3 6 -43 19 -88 12
-46 24 -76 26 -66 2 9 8 14 14 10 7 -4 9 -1 6 8 -3 8 -29 110 -59 227 -29 118
-55 209 -57 204 -1 -5 9 -56 23 -112 14 -56 24 -107 22 -113 -6 -18 -42 134
-124 513 -14 69 -30 129 -34 134 -4 5 -1 -20 6 -55z"/>
<path d="M1552 3050 c0 -14 2 -19 5 -12 2 6 2 18 0 25 -3 6 -5 1 -5 -13z"/>
<path d="M1562 3000 c0 -14 4 -36 8 -50 6 -20 8 -21 8 -5 0 11 -4 34 -8 50 -7
27 -8 27 -8 5z"/>
<path d="M1502 2900 c0 -14 2 -19 5 -12 2 6 2 18 0 25 -3 6 -5 1 -5 -13z"/>
<path d="M1511 2850 c0 -8 4 -24 9 -35 5 -13 9 -14 9 -5 0 8 -4 24 -9 35 -5
13 -9 14 -9 5z"/>
<path d="M1747 2570 c2 -47 9 -96 13 -110 5 -14 16 -65 25 -115 9 -49 22 -119
30 -155 8 -36 24 -109 36 -163 11 -54 23 -96 25 -94 3 2 -2 33 -11 68 -13 55
-84 431 -113 599 -9 50 -10 48 -5 -30z"/>
<path d="M1770 2602 c0 -37 98 -503 107 -512 3 -3 3 7 0 21 -4 14 -27 131 -53
260 -42 212 -54 265 -54 231z"/>
<path d="M1710 2548 c0 -19 2 -20 10 -8 13 19 13 30 0 30 -5 0 -10 -10 -10
-22z"/>
<path d="M1811 2554 c0 -11 3 -14 6 -6 3 7 2 16 -1 19 -3 4 -6 -2 -5 -13z"/>
<path d="M1821 2520 c-1 -19 48 -273 54 -279 3 -2 5 2 5 10 0 22 -58 286 -59
269z"/>
<path d="M1646 2302 c-4 -6 0 -24 8 -39 13 -23 15 -24 15 -8 -1 32 -14 61 -23
47z"/>
<path d="M1882 2200 c0 -14 2 -19 5 -12 2 6 2 18 0 25 -3 6 -5 1 -5 -13z"/>
<path d="M1922 2165 c0 -11 4 -31 8 -45 6 -20 8 -21 8 -5 0 11 -4 31 -8 45 -6
20 -8 21 -8 5z"/>
<path d="M1891 2154 c0 -11 3 -14 6 -6 3 7 2 16 -1 19 -3 4 -6 -2 -5 -13z"/>
<path d="M1901 2114 c0 -11 3 -14 6 -6 3 7 2 16 -1 19 -3 4 -6 -2 -5 -13z"/>
<path d="M1942 2075 c0 -11 4 -33 8 -50 7 -27 8 -27 8 -5 0 14 -4 36 -8 50 -6
20 -8 21 -8 5z"/>
<path d="M1881 2054 c0 -11 3 -14 6 -6 3 7 2 16 -1 19 -3 4 -6 -2 -5 -13z"/>
<path d="M1917 2036 c3 -21 12 -59 19 -85 l14 -46 -6 45 c-4 24 -12 62 -20 85
l-13 40 6 -39z"/>
<path d="M4025 2051 c8 -26 8 -151 0 -159 -5 -6 -8 2 -28 88 -10 43 -15 55
-16 36 -2 -46 40 -190 50 -174 5 7 9 29 10 48 l1 35 15 -43 c18 -51 27 -51 13
-1 -5 19 -14 65 -19 103 -6 38 -15 74 -22 80 -8 8 -9 5 -4 -13z"/>
<path d="M2957 2033 c-4 -3 -7 -20 -6 -37 l1 -31 9 34 c10 33 8 47 -4 34z"/>
<path d="M4195 1989 c8 -23 16 -71 17 -108 1 -49 2 -55 5 -23 2 23 8 40 14 37
17 -11 9 29 -16 83 -29 62 -40 68 -20 11z"/>
<path d="M4118 2000 c7 -28 6 -85 -3 -108 -5 -14 -7 -14 -16 -2 -7 11 -8 6 -3
-15 7 -34 34 -77 52 -83 8 -2 5 10 -6 30 -14 23 -18 45 -15 75 7 58 23 44 24
-20 1 -38 3 -45 8 -27 6 23 8 22 24 -19 25 -61 31 -46 7 17 -11 29 -21 71 -21
95 -1 23 -3 34 -6 25 -7 -27 -16 -22 -35 20 -10 20 -14 26 -10 12z"/>
<path d="M1961 1974 c0 -11 3 -14 6 -6 3 7 2 16 -1 19 -3 4 -6 -2 -5 -13z"/>
<path d="M1992 1970 c0 -14 2 -19 5 -12 2 6 2 18 0 25 -3 6 -5 1 -5 -13z"/>
<path d="M4314 1935 c-3 -25 -4 -49 0 -52 3 -4 6 4 6 16 0 12 4 20 8 17 4 -2
6 11 4 30 -2 19 -6 34 -7 34 -2 0 -7 -20 -11 -45z"/>
<path d="M4347 1959 c4 -13 8 -18 11 -10 2 7 -1 18 -6 23 -8 8 -9 4 -5 -13z"/>
<path d="M4435 1958 c3 -14 8 -33 11 -42 4 -9 1 -16 -6 -16 -14 0 -5 -114 11
-140 6 -9 7 5 3 37 -4 29 -3 60 1 70 5 15 10 12 25 -17 39 -72 18 -12 -34 100
-14 29 -16 30 -11 8z"/>
<path d="M4282 1950 c0 -14 2 -19 5 -12 2 6 2 18 0 25 -3 6 -5 1 -5 -13z"/>
<path d="M4550 1930 c0 -21 -16 -28 -22 -10 -1 5 -3 -15 -4 -46 0 -35 -5 -58
-13 -64 -10 -6 -11 -17 -4 -46 l9 -39 8 63 c4 35 11 60 17 57 5 -4 9 -16 9
-28 0 -24 58 -132 66 -124 3 3 -6 22 -20 44 -33 51 -49 117 -41 170 3 24 4 43
1 43 -3 0 -6 -9 -6 -20z"/>
<path d="M1972 1920 c0 -14 2 -19 5 -12 2 6 2 18 0 25 -3 6 -5 1 -5 -13z"/>
<path d="M4367 1934 c-3 -4 -3 -19 0 -35 6 -31 -12 -41 -20 -11 -3 9 -3 -8 0
-38 8 -83 19 -80 27 6 7 75 6 90 -7 78z"/>
<path d="M2974 1858 c-12 -40 -19 -80 -15 -88 5 -16 25 42 40 118 13 67 -2 49
-25 -30z"/>
<path d="M3901 1895 c0 -16 9 -46 20 -65 20 -36 19 -27 -5 51 -13 40 -14 41
-15 14z"/>
<path d="M4694 1885 c3 -23 -1 -62 -11 -95 l-16 -55 -19 55 c-10 30 -16 67
-13 83 2 15 0 27 -5 27 -6 0 -10 -8 -11 -17 0 -13 -3 -11 -10 6 -14 35 -20 21
-9 -20 6 -18 11 -52 11 -74 1 -38 2 -39 9 -10 l7 30 8 -30 c9 -36 36 -85 47
-85 4 0 5 6 3 13 -3 6 1 32 8 57 l13 45 22 -49 c12 -27 22 -56 23 -65 1 -21
29 78 29 104 0 15 -2 17 -9 6 -6 -10 -19 4 -46 50 -37 64 -37 64 -31 24z m45
-67 c18 -50 22 -68 13 -68 -5 0 -12 12 -15 28 -3 15 -9 35 -12 45 -4 9 -4 17
-1 17 4 0 10 -10 15 -22z"/>
<path d="M1951 1884 c0 -11 3 -14 6 -6 3 7 2 16 -1 19 -3 4 -6 -2 -5 -13z"/>
<path d="M1981 1874 c0 -11 3 -14 6 -6 3 7 2 16 -1 19 -3 4 -6 -2 -5 -13z"/>
<path d="M2041 1874 c0 -11 3 -14 6 -6 3 7 2 16 -1 19 -3 4 -6 -2 -5 -13z"/>
<path d="M4242 1865 c0 -11 3 -29 8 -40 11 -25 11 1 0 35 -6 20 -8 21 -8 5z"/>
<path d="M2661 1821 c-1 -42 2 -52 11 -43 8 8 8 23 1 54 l-11 43 -1 -54z"/>
<path d="M4290 1855 c0 -19 29 -90 34 -84 6 7 -18 99 -26 99 -5 0 -8 -7 -8
-15z"/>
<path d="M2051 1834 c0 -11 3 -14 6 -6 3 7 2 16 -1 19 -3 4 -6 -2 -5 -13z"/>
<path d="M4816 1806 c3 -22 0 -67 -6 -100 -12 -58 -11 -63 11 -101 19 -32 24
-36 27 -20 2 11 7 34 12 52 7 26 5 31 -7 26 -13 -5 -15 4 -11 60 2 37 1 67 -2
67 -3 0 -11 12 -18 28 -11 25 -11 25 -6 -12z m27 -157 c5 -4 7 -15 2 -25 -7
-18 -8 -18 -15 1 -5 11 -8 31 -8 45 0 20 1 21 5 5 3 -11 10 -23 16 -26z"/>
<path d="M2091 1814 c0 -11 3 -14 6 -6 3 7 2 16 -1 19 -3 4 -6 -2 -5 -13z"/>
<path d="M2908 1814 c-5 -4 -8 -21 -8 -38 0 -21 3 -27 11 -19 6 6 9 23 7 38
-2 15 -6 23 -10 19z"/>
<path d="M2548 1789 c-3 -9 -4 -46 -1 -82 5 -61 7 -65 18 -44 9 18 9 37 0 82
-6 33 -14 52 -17 44z"/>
<path d="M2101 1774 c0 -11 3 -14 6 -6 3 7 2 16 -1 19 -3 4 -6 -2 -5 -13z"/>
<path d="M4884 1675 c2 -62 0 -99 -4 -85 -8 24 -8 24 -9 -7 -1 -17 -4 -40 -7
-50 -7 -17 -6 -17 12 0 15 14 19 33 20 90 1 40 -2 92 -7 117 -6 33 -7 16 -5
-65z"/>
<path d="M2112 1715 c0 -16 2 -22 5 -12 2 9 2 23 0 30 -3 6 -5 -1 -5 -18z"/>
<path d="M2481 1670 c-7 -31 -7 -58 -1 -72 8 -21 9 -20 10 12 0 19 4 52 9 73
5 20 5 37 1 37 -5 0 -13 -22 -19 -50z"/>
<path d="M2082 1690 c0 -14 2 -19 5 -12 2 6 2 18 0 25 -3 6 -5 1 -5 -13z"/>
<path d="M2509 1665 c-5 -95 -4 -118 8 -133 12 -15 13 -13 8 13 -3 17 -2 24 1
18 3 -7 10 -13 16 -13 6 0 4 8 -5 18 -18 20 -24 77 -7 67 14 -9 12 5 -5 35
l-14 25 -2 -30z"/>
<path d="M4923 1635 c0 -27 2 -38 4 -22 2 15 2 37 0 50 -2 12 -4 0 -4 -28z"/>
<path d="M3680 1651 c0 -6 4 -13 10 -16 6 -3 7 1 4 9 -7 18 -14 21 -14 7z"/>
<path d="M4779 1615 c29 -80 31 -82 26 -35 -3 25 -15 54 -25 65 -19 19 -19 19
-1 -30z"/>
<path d="M5086 1475 c14 -58 24 -83 18 -40 -3 22 -10 47 -15 55 -6 10 -7 5 -3
-15z"/>
<path d="M2271 1423 c-11 -40 -15 -90 -6 -81 7 7 24 112 20 116 -2 2 -8 -13
-14 -35z"/>
<path d="M4367 1414 c-123 -48 -323 -99 -472 -119 -22 -3 -67 -10 -100 -15
-95 -15 -223 -12 -341 10 -103 18 -337 80 -433 114 -56 20 -67 20 -50 -1 10
-11 10 -14 2 -9 -21 12 -15 -9 10 -32 20 -18 159 -71 230 -86 22 -5 27 -12 27
-36 0 -23 6 -33 25 -40 14 -5 25 -16 25 -24 0 -13 -4 -13 -27 -1 -29 15 -51 6
-38 -15 4 -7 45 -30 91 -52 46 -21 84 -41 84 -43 0 -2 -21 2 -47 10 -43 13
-46 12 -28 -1 24 -18 138 -54 171 -54 17 0 27 -8 34 -25 12 -31 34 -34 25 -4
-5 16 -3 20 6 17 8 -3 13 -13 12 -23 -1 -17 8 -18 129 -12 72 3 135 10 140 15
5 5 -14 7 -47 5 -37 -2 -54 0 -50 7 4 6 14 10 23 9 31 -5 112 12 107 22 -4 5
-16 9 -28 9 -39 0 -4 17 63 30 84 17 101 25 66 34 -41 10 -34 40 13 56 22 7
38 18 36 24 -14 48 -15 66 0 66 10 0 15 -10 15 -31 0 -16 4 -28 8 -25 5 3 7
18 4 34 -4 28 -3 29 85 51 157 41 263 83 323 131 l25 19 -25 -5 -25 -5 25 15
c43 26 0 17 -93 -20z m-1077 -158 c0 -2 -3 -12 -6 -20 -5 -13 -9 -14 -20 -5
-16 13 -9 29 12 29 8 0 14 -2 14 -4z m40 -16 c0 -5 -7 -10 -15 -10 -8 0 -15 5
-15 10 0 6 7 10 15 10 8 0 15 -4 15 -10z m670 -17 c0 -20 -3 -24 -11 -16 -7 7
-9 19 -6 27 10 24 17 19 17 -11z m-42 -1 c-10 -2 -18 -8 -18 -13 0 -5 -4 -9
-10 -9 -5 0 -10 6 -10 14 0 16 28 26 45 17 6 -3 2 -7 -7 -9z m-338 -232 c0 -5
-4 -10 -10 -10 -5 0 -10 5 -10 10 0 6 5 10 10 10 6 0 10 -4 10 -10z"/>
<path d="M2336 1415 c-3 -9 -6 -24 -5 -33 0 -9 5 -4 10 12 9 32 6 48 -5 21z"/>
<path d="M5000 1322 c9 -38 23 -77 29 -88 11 -18 12 -18 6 3 -3 12 -8 30 -11
40 -2 10 -10 39 -16 66 -7 26 -16 47 -19 47 -4 0 1 -31 11 -68z"/>
<path d="M5047 1240 c3 -11 9 -20 15 -20 5 0 4 9 -2 20 -6 11 -12 20 -14 20
-2 0 -2 -9 1 -20z"/>
<path d="M4836 1230 c11 -43 24 -73 30 -67 3 3 -4 25 -15 49 -11 23 -18 32
-15 18z"/>
<path d="M2535 1199 c-10 -43 -1 -46 12 -4 6 19 7 35 3 35 -5 0 -11 -14 -15
-31z"/>
<path d="M4580 953 c1 -11 39 -80 40 -72 0 11 -30 79 -35 79 -3 0 -5 -3 -5 -7z"/>
<path d="M4456 937 c3 -10 9 -15 12 -12 3 3 0 11 -7 18 -10 9 -11 8 -5 -6z"/>
<path d="M4168 864 c-3 -5 1 -22 8 -39 13 -29 13 -29 13 -5 1 28 -14 57 -21
44z"/>
<path d="M4231 834 c0 -11 3 -14 6 -6 3 7 2 16 -1 19 -3 4 -6 -2 -5 -13z"/>
<path d="M3412 815 c-14 -31 -16 -53 -3 -39 9 9 24 64 18 64 -2 0 -9 -11 -15
-25z"/>
<path d="M3152 805 c0 -16 2 -22 5 -12 2 9 2 23 0 30 -3 6 -5 -1 -5 -18z"/>
<path d="M3639 815 c-6 -29 10 -178 22 -190 6 -6 7 7 3 35 -3 25 -9 74 -13
110 -4 36 -9 56 -12 45z"/>
<path d="M3286 799 c-10 -49 -14 -185 -7 -224 6 -29 9 -2 12 100 5 142 4 167
-5 124z"/>
<path d="M3374 806 c-3 -8 -4 -27 -2 -43 3 -23 5 -20 9 15 5 43 2 53 -7 28z"/>
<path d="M3750 805 c0 -25 22 -117 27 -112 8 8 -9 127 -18 127 -5 0 -9 -7 -9
-15z"/>
<path d="M3731 755 c-1 -11 4 -60 10 -110 13 -106 32 -153 23 -55 -7 74 -31
195 -33 165z"/>
<path d="M4182 710 c0 -8 4 -26 8 -40 6 -20 8 -21 8 -5 0 11 -3 29 -8 40 -5
12 -8 14 -8 5z"/>
<path d="M3715 603 c11 -63 38 -158 42 -146 3 7 -3 35 -11 64 -9 29 -16 68
-16 86 0 18 -5 33 -10 33 -7 0 -9 -14 -5 -37z"/>
<path d="M4121 594 c0 -11 3 -14 6 -6 3 7 2 16 -1 19 -3 4 -6 -2 -5 -13z"/>
<path d="M1192 4605 c0 -16 2 -22 5 -12 2 9 2 23 0 30 -3 6 -5 -1 -5 -18z"/>
<path d="M1201 4539 c0 -13 4 -33 9 -44 7 -14 8 -8 3 20 -7 46 -13 59 -12 24z"/>
<path d="M6698 2983 c16 -32 42 -91 57 -131 16 -39 30 -70 32 -68 7 6 -55 166
-82 212 -37 62 -40 54 -7 -13z"/>
<path d="M7175 4010 c-3 -6 1 -7 9 -4 18 7 21 14 7 14 -6 0 -13 -4 -16 -10z"/>
<path d="M528 3803 c7 -3 16 -2 19 1 4 3 -2 6 -13 5 -11 0 -14 -3 -6 -6z"/>
<path d="M2161 1164 c0 -11 3 -14 6 -6 3 7 2 16 -1 19 -3 4 -6 -2 -5 -13z"/>
<path d="M2510 801 c0 -5 5 -13 10 -16 6 -3 10 -2 10 4 0 5 -4 13 -10 16 -5 3
-10 2 -10 -4z"/>
<path d="M2217 659 c4 -13 8 -18 11 -10 2 7 -1 18 -6 23 -8 8 -9 4 -5 -13z"/>
<path d="M2320 355 c0 -5 5 -17 10 -25 5 -8 10 -10 10 -5 0 6 -5 17 -10 25 -5
8 -10 11 -10 5z"/>
<path d="M2460 284 c0 -6 7 -19 16 -30 14 -18 14 -18 3 6 -14 31 -19 36 -19
24z"/>
<path d="M2511 244 c0 -11 3 -14 6 -6 3 7 2 16 -1 19 -3 4 -6 -2 -5 -13z"/>
<path d="M2480 220 c1 -19 59 -221 60 -207 0 26 -41 190 -51 202 -5 5 -9 7 -9
5z"/>
<path d="M3065 60 c3 -5 8 -10 11 -10 2 0 4 5 4 10 0 6 -5 10 -11 10 -5 0 -7
-4 -4 -10z"/>
<path d="M3100 51 c0 -20 -1 -21 -35 -7 -19 8 -35 11 -35 5 0 -5 5 -9 11 -9 6
0 8 -9 4 -20 -7 -21 10 -28 18 -7 4 8 6 7 6 -3 1 -13 2 -13 12 0 8 11 12 12
16 3 3 -8 23 -13 49 -13 37 0 44 3 44 20 0 21 -16 28 -22 9 -2 -7 -17 0 -36
16 -31 26 -32 26 -32 6z m30 -21 c0 -5 -2 -10 -4 -10 -3 0 -8 5 -11 10 -3 6
-1 10 4 10 6 0 11 -4 11 -10z"/>
<path d="M3302 30 c0 -19 2 -27 5 -17 2 9 2 25 0 35 -3 9 -5 1 -5 -18z"/>
<path d="M3997 53 c-4 -3 -7 -18 -6 -32 1 -26 1 -25 10 3 9 31 7 41 -4 29z"/>
<path d="M4022 30 c0 -19 2 -27 5 -17 2 9 2 25 0 35 -3 9 -5 1 -5 -18z"/>
<path d="M4056 44 c-8 -22 -8 -44 2 -44 4 0 7 14 8 30 1 34 -1 37 -10 14z"/>
<path d="M3256 24 c-4 -10 -13 -13 -26 -9 -11 4 -20 2 -20 -4 0 -6 14 -11 30
-11 23 0 30 4 30 20 0 24 -6 26 -14 4z"/>
<path d="M3330 20 c0 -11 4 -20 9 -20 5 0 7 9 4 20 -3 11 -7 20 -9 20 -2 0 -4
-9 -4 -20z"/>
</g>
</svg>
