<?xml version="1.0" standalone="no"?>
<!DOCTYPE svg PUBLIC "-//W3C//DTD SVG 20010904//EN"
 "http://www.w3.org/TR/2001/REC-SVG-20010904/DTD/svg10.dtd">
<svg version="1.0" xmlns="http://www.w3.org/2000/svg"
 width="360.000000pt" height="360.000000pt" viewBox="0 0 360.000000 360.000000"
 preserveAspectRatio="xMidYMid meet">

<g transform="translate(0.000000,360.000000) scale(0.100000,-0.100000)"
fill="#ffffff" stroke="none">
<path d="M2001 2969 c-19 -8 -22 -14 -18 -37 4 -15 14 -61 23 -102 11 -50 16
-124 17 -225 0 -173 -19 -276 -78 -426 -38 -94 -39 -125 -6 -114 11 3 22 1 26
-5 23 -37 117 11 314 160 89 67 163 121 165 119 13 -14 26 -128 26 -223 0
-181 -45 -320 -145 -451 -68 -89 -185 -179 -279 -215 -24 -9 -24 -8 -20 48 6
76 -21 124 -91 161 -52 27 -145 39 -210 27 -47 -9 -100 -57 -120 -110 -22 -58
-8 -109 42 -158 47 -44 91 -59 184 -60 l72 0 -24 -20 c-77 -61 -226 -103 -430
-123 l-65 -6 4 66 c6 85 -15 140 -75 200 -84 82 -213 111 -363 81 -161 -33
-234 -93 -234 -193 -1 -50 2 -57 36 -88 56 -52 239 -98 439 -112 55 -3 99 -9
99 -13 0 -13 -84 -81 -130 -104 -130 -67 -354 -115 -566 -123 -223 -8 -328 15
-413 92 -43 39 -71 41 -71 6 0 -38 110 -108 213 -135 215 -56 668 6 873 119
56 31 154 122 154 143 0 5 46 12 103 16 225 14 407 76 490 165 31 34 58 51 98
63 133 42 300 181 377 313 102 174 135 404 88 606 l-12 55 161 12 c253 17 275
38 110 106 -233 97 -535 294 -675 441 -45 47 -60 55 -89 44z m93 -119 c16 -17
27 -31 25 -32 -53 -32 -53 -32 -63 25 -8 45 0 46 38 7z m102 -98 c-6 -5 -36
23 -36 34 0 4 9 -1 20 -11 11 -10 18 -20 16 -23z m104 -74 c0 -12 -18 -9 -26
3 -3 6 -15 9 -25 6 -21 -6 -25 3 -8 20 9 9 18 8 35 -5 13 -9 24 -20 24 -24z
m-181 -53 c-29 -49 -39 -52 -39 -11 0 24 5 36 18 39 39 10 41 7 21 -28z m279
-7 c30 -21 41 -33 31 -36 -7 -3 -22 -9 -32 -14 -16 -8 -18 -7 -13 10 9 28 -19
50 -45 34 -10 -7 -19 -10 -19 -7 0 7 24 45 28 45 2 0 24 -14 50 -32z m-182
-63 c-8 -9 -42 -31 -76 -50 l-60 -34 0 29 c0 20 4 28 13 24 7 -2 38 7 68 20
64 29 76 32 55 11z m431 -77 l88 -43 -72 -3 c-40 -2 -107 -2 -149 0 l-77 3 54
42 c30 23 57 42 61 42 3 1 46 -18 95 -41z m-297 -42 c0 -2 -35 -26 -77 -54
-92 -58 -243 -136 -243 -124 0 5 28 22 62 38 34 16 105 55 157 86 99 60 101
61 101 54z m-263 -33 c-9 -9 -19 -14 -23 -11 -10 10 6 28 24 28 15 0 15 -1 -1
-17z m308 -13 c3 -5 1 -10 -4 -10 -6 0 -11 5 -11 10 0 6 2 10 4 10 3 0 8 -4
11 -10z m-325 -40 c0 -5 -4 -10 -10 -10 -5 0 -10 5 -10 10 0 6 5 10 10 10 6 0
10 -4 10 -10z m245 -38 c-51 -45 -231 -170 -270 -188 -71 -34 -75 -32 -56 21
12 34 23 47 41 52 14 3 57 22 95 41 118 59 217 97 190 74z m-392 -708 c50 -36
63 -73 47 -133 -14 -52 -34 -61 -133 -61 -149 1 -230 84 -171 176 27 41 69 55
147 51 56 -4 77 -10 110 -33z m-798 -95 c157 -29 236 -131 208 -269 l-6 -33
-111 7 c-171 11 -381 57 -427 95 -28 22 -30 75 -4 114 22 34 94 67 180 82 90
17 91 17 160 4z"/>
</g>
</svg>
