<?xml version="1.0" standalone="no"?>
<!DOCTYPE svg PUBLIC "-//W3C//DTD SVG 20010904//EN"
 "http://www.w3.org/TR/2001/REC-SVG-20010904/DTD/svg10.dtd">
<svg version="1.0" xmlns="http://www.w3.org/2000/svg"
 width="360.000000pt" height="360.000000pt" viewBox="0 0 360.000000 360.000000"
 preserveAspectRatio="xMidYMid meet">

<g transform="translate(0.000000,360.000000) scale(0.100000,-0.100000)"
fill="#ffffff" stroke="none">
<path d="M965 2996 c-42 -18 -93 -63 -110 -97 -24 -46 -18 -94 29 -202 24 -56
89 -210 146 -342 56 -132 117 -274 135 -315 18 -41 72 -167 120 -280 48 -113
107 -250 131 -304 25 -54 43 -100 41 -102 -2 -2 -28 14 -57 35 -80 56 -242
148 -312 176 -170 69 -335 54 -400 -37 -36 -51 -33 -138 7 -200 17 -27 36 -48
43 -48 26 0 165 -52 221 -83 72 -39 98 -58 256 -191 252 -212 462 -325 601
-326 l41 0 -10 -49 c-9 -40 -7 -58 8 -97 20 -54 41 -84 60 -84 14 0 149 56
565 235 162 70 322 138 355 152 73 30 85 40 85 66 0 38 -60 152 -90 172 -17
11 -30 24 -30 28 0 4 11 29 24 55 35 70 49 154 43 252 -9 115 -33 204 -111
405 -158 406 -243 525 -373 525 -60 0 -103 -18 -149 -61 l-30 -29 -42 39 c-55
53 -108 69 -170 52 -70 -18 -103 -41 -128 -88 l-22 -42 -16 24 c-26 39 -88 75
-142 81 -55 7 -137 -21 -170 -57 -18 -20 -34 -25 -34 -10 0 25 -291 686 -312
708 -46 50 -137 68 -203 39z m141 -83 c18 -19 103 -206 254 -558 225 -526 227
-530 256 -530 19 0 30 6 32 17 2 10 -26 86 -62 170 l-66 152 22 23 c12 13 41
32 64 43 89 44 152 0 228 -158 64 -132 60 -127 87 -127 35 0 35 26 -1 112 -29
70 -31 80 -20 115 19 65 98 115 155 100 42 -12 103 -80 142 -160 33 -65 39
-73 62 -70 35 4 38 30 11 88 -21 45 -21 48 -5 74 24 37 76 66 119 66 82 0 163
-120 272 -403 106 -272 115 -301 130 -401 22 -145 -2 -271 -61 -326 -37 -35
-31 -55 26 -97 50 -37 97 -110 81 -125 -7 -6 -39 -20 -422 -183 -107 -46 -258
-110 -335 -144 l-139 -60 -13 31 c-11 25 -10 41 1 91 22 96 14 106 -95 106
-164 0 -320 92 -677 397 -69 59 -196 130 -294 165 -73 26 -94 39 -109 63 -27
45 -24 73 14 111 55 55 153 56 292 4 62 -23 237 -122 320 -181 81 -58 114 -72
141 -59 49 22 47 37 -28 212 -38 90 -108 252 -153 359 -160 375 -305 715 -321
750 -109 237 -117 275 -71 317 52 48 125 54 163 16z"/>
</g>
</svg>
