<?xml version="1.0" standalone="no"?>
<!DOCTYPE svg PUBLIC "-//W3C//DTD SVG 20010904//EN"
 "http://www.w3.org/TR/2001/REC-SVG-20010904/DTD/svg10.dtd">
<svg version="1.0" xmlns="http://www.w3.org/2000/svg"
 width="562.000000pt" height="1000.000000pt" viewBox="0 0 562.000000 1000.000000"
 preserveAspectRatio="xMidYMid meet">

<g transform="translate(0.000000,1000.000000) scale(0.100000,-0.100000)"
fill="#000000" stroke="none">
<path d="M590 9920 c-9 -6 -10 -10 -3 -10 6 0 15 5 18 10 8 12 4 12 -15 0z"/>
<path d="M870 9879 c0 -4 7 -12 15 -19 9 -7 15 -8 15 -2 0 5 9 8 20 5 11 -3
20 0 20 6 0 12 -2 13 -42 15 -16 1 -28 -1 -28 -5z"/>
<path d="M386 9842 c-13 -13 -20 -14 -34 -6 -12 8 -24 8 -39 1 -22 -10 -31
-26 -15 -28 52 -7 103 -4 131 7 18 8 42 14 52 14 11 0 19 4 19 9 0 14 -23 19
-42 9 -11 -5 -25 -5 -36 1 -14 7 -23 6 -36 -7z"/>
<path d="M4252 9839 c3 -8 13 -14 24 -15 35 -2 39 -5 19 -14 -19 -8 -19 -9 3
-9 16 -1 22 5 22 19 0 13 -7 20 -19 20 -11 0 -27 3 -37 7 -12 4 -15 2 -12 -8z"/>
<path d="M4428 9843 c-10 -3 -18 -8 -18 -13 0 -5 -13 -5 -29 0 -15 4 -35 4
-42 -1 -15 -9 -14 -10 16 -14 30 -3 98 -26 113 -38 9 -7 12 -2 12 19 0 18 -3
24 -8 17 -8 -13 -52 -7 -52 7 0 5 10 10 23 12 12 2 18 6 12 9 -5 3 -18 4 -27
2z"/>
<path d="M4556 9835 c4 -8 12 -15 20 -15 19 0 18 16 -2 24 -22 9 -24 8 -18 -9z"/>
<path d="M4760 9838 c-19 -5 -52 -14 -73 -20 -43 -13 -66 -34 -37 -34 10 0 16
4 14 8 -3 4 0 8 6 8 6 0 13 -6 16 -14 3 -8 12 -12 19 -9 8 2 26 -7 40 -21 16
-16 37 -26 55 -26 32 0 34 3 20 35 -7 16 -9 17 -9 3 -1 -11 -7 -15 -22 -11
-16 5 -18 8 -7 15 9 7 4 8 -14 4 -28 -6 -40 8 -15 17 9 4 8 6 -2 6 -21 1 7 31
30 31 11 0 19 5 19 10 0 6 -1 10 -2 9 -2 -1 -19 -5 -38 -11z"/>
<path d="M2005 9830 c3 -5 8 -10 11 -10 2 0 4 5 4 10 0 6 -5 10 -11 10 -5 0
-7 -4 -4 -10z"/>
<path d="M2460 9835 c0 -8 29 -12 39 -5 9 5 4 8 -13 8 -14 0 -26 -2 -26 -3z"/>
<path d="M2578 9833 c7 -3 16 -2 19 1 4 3 -2 6 -13 5 -11 0 -14 -3 -6 -6z"/>
<path d="M4612 9820 c7 -10 14 -18 15 -16 6 6 -9 36 -18 36 -5 0 -4 -9 3 -20z"/>
<path d="M2070 9810 l-35 -7 42 -2 c23 0 45 4 48 9 7 11 -3 11 -55 0z"/>
<path d="M4580 9800 c0 -5 5 -10 10 -10 6 0 10 5 10 10 0 6 -4 10 -10 10 -5 0
-10 -4 -10 -10z"/>
<path d="M4535 9790 c3 -5 10 -10 16 -10 5 0 9 5 9 10 0 6 -7 10 -16 10 -8 0
-12 -4 -9 -10z"/>
<path d="M4830 9773 c0 -6 5 -15 11 -18 6 -4 8 -13 5 -21 -3 -8 -1 -14 4 -14
6 0 10 6 10 13 0 17 -29 56 -30 40z"/>
<path d="M1430 9721 c0 -5 9 -7 20 -4 11 3 20 7 20 9 0 2 -9 4 -20 4 -11 0
-20 -4 -20 -9z"/>
<path d="M1578 9713 c7 -3 16 -2 19 1 4 3 -2 6 -13 5 -11 0 -14 -3 -6 -6z"/>
<path d="M1453 9693 c9 -2 23 -2 30 0 6 3 -1 5 -18 5 -16 0 -22 -2 -12 -5z"/>
<path d="M1596 9685 c-3 -8 -1 -15 4 -15 6 0 10 7 10 15 0 8 -2 15 -4 15 -2 0
-6 -7 -10 -15z"/>
<path d="M3367 9693 c-3 -5 8 -9 24 -10 17 -1 27 2 24 7 -7 12 -42 13 -48 3z"/>
<path d="M1495 9680 c-19 -8 -19 -9 3 -9 12 -1 22 4 22 9 0 6 -1 10 -2 9 -2 0
-12 -4 -23 -9z"/>
<path d="M1690 9675 c-11 -13 -10 -14 4 -9 9 3 16 10 16 15 0 13 -6 11 -20 -6z"/>
<path d="M2010 9680 c-17 -10 -17 -10 33 -33 20 -9 37 -13 37 -8 0 5 -13 15
-29 22 -16 7 -27 17 -25 21 7 10 2 10 -16 -2z"/>
<path d="M2230 9670 c-13 -8 -12 -10 3 -10 9 0 17 5 17 10 0 12 -1 12 -20 0z"/>
<path d="M2197 9640 c-3 -13 0 -20 9 -20 15 0 19 26 5 34 -5 3 -11 -3 -14 -14z"/>
<path d="M556 9614 c-5 -14 -4 -15 9 -4 17 14 19 20 6 20 -5 0 -12 -7 -15 -16z"/>
<path d="M708 9623 c6 -2 18 -2 25 0 6 3 1 5 -13 5 -14 0 -19 -2 -12 -5z"/>
<path d="M2237 9623 c-4 -3 -7 -11 -7 -17 0 -6 5 -5 12 2 6 6 9 14 7 17 -3 3
-9 2 -12 -2z"/>
<path d="M2277 9618 c4 -7 8 -17 8 -23 0 -5 12 -11 28 -13 22 -3 27 1 27 18 0
17 -4 19 -25 14 -15 -4 -25 -2 -25 5 0 6 -5 11 -11 11 -6 0 -7 -5 -2 -12z"/>
<path d="M2663 9603 c9 -2 23 -2 30 0 6 3 -1 5 -18 5 -16 0 -22 -2 -12 -5z"/>
<path d="M1435 9560 c3 -5 15 -10 25 -10 10 0 22 -4 25 -10 10 -16 35 -12 35
6 0 8 -4 13 -9 9 -5 -3 -12 -1 -16 5 -3 5 -20 10 -36 10 -18 0 -28 -4 -24 -10z"/>
<path d="M1420 9531 c0 -18 18 -21 30 -6 10 13 9 15 -9 15 -11 0 -21 -4 -21
-9z"/>
<path d="M4590 9516 c0 -2 14 -6 30 -8 17 -3 30 -1 30 4 0 4 -13 8 -30 8 -16
0 -30 -2 -30 -4z"/>
<path d="M1648 9503 c6 -2 18 -2 25 0 6 3 1 5 -13 5 -14 0 -19 -2 -12 -5z"/>
<path d="M3303 9500 c26 -66 47 -89 47 -50 0 11 5 20 11 20 6 0 8 -7 5 -15 -7
-20 24 -16 40 5 25 32 -7 52 -46 28 -16 -10 -23 -9 -41 7 -16 14 -21 15 -16 5z
m97 -20 c0 -5 -5 -10 -11 -10 -5 0 -7 5 -4 10 3 6 8 10 11 10 2 0 4 -4 4 -10z"/>
<path d="M5483 9502 c-16 -10 -21 -48 -5 -44 6 1 12 -2 12 -8 0 -19 18 -10 23
11 6 22 -1 49 -12 49 -3 0 -11 -4 -18 -8z"/>
<path d="M4330 9490 c0 -5 5 -10 10 -10 6 0 10 5 10 10 0 6 -4 10 -10 10 -5 0
-10 -4 -10 -10z"/>
<path d="M460 9480 c0 -13 11 -13 30 0 12 8 11 10 -7 10 -13 0 -23 -4 -23 -10z"/>
<path d="M4414 9481 c3 -5 15 -7 26 -4 28 7 25 13 -6 13 -14 0 -23 -4 -20 -9z"/>
<path d="M130 9469 c0 -5 5 -7 10 -4 6 3 10 8 10 11 0 2 -4 4 -10 4 -5 0 -10
-5 -10 -11z"/>
<path d="M3210 9471 c0 -5 10 -11 23 -15 36 -9 43 -6 23 9 -22 17 -46 20 -46
6z"/>
<path d="M2705 9460 c-3 -5 -1 -10 4 -10 6 0 11 5 11 10 0 6 -2 10 -4 10 -3 0
-8 -4 -11 -10z"/>
<path d="M2980 9460 c0 -5 5 -10 10 -10 6 0 10 5 10 10 0 6 -4 10 -10 10 -5 0
-10 -4 -10 -10z"/>
<path d="M3285 9449 c-11 -17 1 -21 15 -4 8 9 8 15 2 15 -6 0 -14 -5 -17 -11z"/>
<path d="M872 9394 c-7 -8 -8 -14 -3 -14 10 0 25 19 20 25 -2 1 -10 -3 -17
-11z"/>
<path d="M925 9390 c3 -5 11 -10 16 -10 6 0 7 5 4 10 -3 6 -11 10 -16 10 -6 0
-7 -4 -4 -10z"/>
<path d="M2985 9390 c-4 -6 7 -10 27 -9 27 0 30 2 13 9 -27 12 -33 12 -40 0z"/>
<path d="M3104 9386 c-10 -7 -34 -13 -51 -14 -18 0 -38 -4 -45 -8 -21 -13 42
-24 70 -12 15 6 31 10 35 10 9 -2 22 27 15 33 -2 3 -13 -1 -24 -9z"/>
<path d="M433 9379 c14 -8 22 -8 30 0 8 8 3 11 -18 11 -26 -1 -28 -2 -12 -11z"/>
<path d="M2950 9360 c0 -5 7 -7 15 -4 8 4 15 8 15 10 0 2 -7 4 -15 4 -8 0 -15
-4 -15 -10z"/>
<path d="M5045 9309 c-4 -5 3 -9 14 -9 11 0 22 4 25 8 2 4 -4 8 -14 9 -11 1
-22 -2 -25 -8z"/>
<path d="M2870 9270 c-8 -5 -12 -12 -9 -15 4 -3 12 1 19 10 14 17 11 19 -10 5z"/>
<path d="M1368 8956 c-10 -7 -18 -16 -18 -20 0 -11 21 -6 36 8 26 27 13 36
-18 12z"/>
<path d="M4795 8950 c-3 -6 1 -7 9 -4 18 7 21 14 7 14 -6 0 -13 -4 -16 -10z"/>
<path d="M355 8930 c-3 -5 -1 -10 4 -10 6 0 11 5 11 10 0 6 -2 10 -4 10 -3 0
-8 -4 -11 -10z"/>
<path d="M740 8930 c-24 -15 -7 -18 20 -3 14 7 18 13 10 13 -8 0 -22 -4 -30
-10z"/>
<path d="M1243 8912 c-18 -23 -28 -27 -70 -26 -61 2 -72 5 -95 27 -27 26 -51
7 -34 -28 11 -26 46 -35 46 -12 0 7 5 5 10 -5 6 -10 18 -14 30 -11 11 3 20 0
20 -6 0 -6 5 -11 11 -11 6 0 8 9 3 23 -6 21 -6 21 13 5 19 -18 63 -15 63 4 0
6 6 8 13 5 7 -3 21 1 32 9 18 13 18 14 -4 14 -18 0 -21 4 -16 20 8 27 4 25
-22 -8z"/>
<path d="M1300 8920 c0 -13 11 -13 30 0 12 8 11 10 -7 10 -13 0 -23 -4 -23
-10z"/>
<path d="M1470 8920 c0 -5 -9 -10 -20 -10 -11 0 -20 -2 -20 -5 0 -10 54 -54
66 -55 6 0 21 -11 34 -25 12 -13 27 -22 33 -18 6 3 7 2 4 -4 -4 -5 5 -20 18
-31 28 -24 33 -17 10 14 -19 25 -19 38 0 31 8 -4 17 -2 20 3 3 5 -4 12 -16 15
-12 4 -18 12 -15 21 3 9 -4 16 -22 20 -15 4 -30 12 -34 18 -5 8 -8 7 -8 -1 0
-7 -10 -13 -22 -13 -16 0 -19 3 -11 11 6 6 9 18 6 25 -6 16 -23 19 -23 4z"/>
<path d="M4840 8920 c0 -5 5 -10 11 -10 5 0 7 5 4 10 -3 6 -8 10 -11 10 -2 0
-4 -4 -4 -10z"/>
<path d="M1781 8893 c-9 -16 -12 -16 -21 -3 -6 9 -10 10 -10 3 0 -7 8 -17 18
-23 14 -9 13 -10 -8 -6 -72 13 -87 14 -99 7 -20 -13 80 -33 152 -32 54 1 76 3
121 10 4 0 5 8 2 17 -4 9 -1 23 6 31 10 12 7 12 -16 1 -16 -7 -23 -14 -17 -16
6 -2 11 -9 11 -16 0 -9 -16 -12 -57 -10 -56 3 -76 15 -66 41 7 19 -4 16 -16
-4z"/>
<path d="M1970 8894 c0 -8 5 -12 10 -9 6 4 8 11 5 16 -9 14 -15 11 -15 -7z"/>
<path d="M957 8870 c-3 -11 -1 -20 4 -20 5 0 9 2 9 4 0 2 3 11 6 20 3 9 2 16
-4 16 -5 0 -12 -9 -15 -20z"/>
<path d="M1848 8883 c7 -3 16 -2 19 1 4 3 -2 6 -13 5 -11 0 -14 -3 -6 -6z"/>
<path d="M2096 8855 c-3 -8 -15 -15 -28 -18 -20 -4 -20 -4 5 -6 15 0 27 4 27
10 0 6 7 9 15 6 8 -4 17 -2 20 2 2 5 -4 11 -14 14 -11 3 -22 -1 -25 -8z"/>
<path d="M4505 8850 c3 -5 8 -10 11 -10 2 0 4 5 4 10 0 6 -5 10 -11 10 -5 0
-7 -4 -4 -10z"/>
<path d="M4386 8828 c3 -4 10 -5 16 -2 8 5 9 1 5 -10 -5 -12 -3 -16 5 -14 22
8 14 33 -9 34 -12 1 -20 -3 -17 -8z"/>
<path d="M1000 8819 c0 -5 5 -7 10 -4 6 3 10 8 10 11 0 2 -4 4 -10 4 -5 0 -10
-5 -10 -11z"/>
<path d="M2123 8823 c4 -3 7 -11 7 -19 0 -8 5 -14 11 -14 6 0 9 -7 5 -15 -3
-9 0 -15 8 -15 8 0 16 -4 18 -9 5 -16 60 -17 66 -2 3 8 0 11 -7 7 -19 -12 -51
4 -51 25 0 12 7 19 20 19 11 0 20 5 20 10 0 6 -18 10 -39 10 -22 0 -45 2 -53
3 -7 2 -10 2 -5 0z"/>
<path d="M546 8811 c-4 -7 -5 -15 -2 -18 9 -9 19 4 14 18 -4 11 -6 11 -12 0z"/>
<path d="M2227 8806 c-6 -15 1 -26 15 -26 11 0 10 27 -1 34 -5 3 -11 0 -14 -8z"/>
<path d="M1430 8799 c0 -5 5 -7 10 -4 6 3 10 8 10 11 0 2 -4 4 -10 4 -5 0 -10
-5 -10 -11z"/>
<path d="M3987 8763 c-2 -5 -2 -14 -1 -20 1 -7 2 -17 3 -23 0 -5 5 -10 11 -10
5 0 7 7 4 15 -5 11 -2 13 10 9 9 -3 16 -1 16 5 0 13 -37 34 -43 24z"/>
<path d="M4106 8751 c-5 -7 -3 -18 3 -24 14 -14 20 -6 11 17 -5 15 -9 16 -14
7z"/>
<path d="M1665 8740 c-3 -5 -1 -10 4 -10 6 0 11 5 11 10 0 6 -2 10 -4 10 -3 0
-8 -4 -11 -10z"/>
<path d="M2111 8734 c0 -11 3 -14 6 -6 3 7 2 16 -1 19 -3 4 -6 -2 -5 -13z"/>
<path d="M5466 8728 c-3 -13 -4 -25 -3 -28 4 -8 37 -7 37 2 0 4 -5 8 -11 8 -6
0 -8 9 -4 20 3 11 2 20 -3 20 -5 0 -12 -10 -16 -22z"/>
<path d="M1330 8730 c0 -5 5 -10 11 -10 5 0 7 5 4 10 -3 6 -8 10 -11 10 -2 0
-4 -4 -4 -10z"/>
<path d="M1632 8719 c2 -7 10 -15 17 -17 8 -3 12 1 9 9 -2 7 -10 15 -17 17 -8
3 -12 -1 -9 -9z"/>
<path d="M2210 8673 c-14 -7 -18 -13 -10 -13 17 0 47 17 40 23 -3 2 -16 -2
-30 -10z"/>
<path d="M1330 8660 c-6 -11 -7 -20 -2 -20 6 0 12 9 15 20 3 11 3 20 1 20 -2
0 -8 -9 -14 -20z"/>
<path d="M1670 8670 c-8 -5 -11 -12 -7 -16 4 -4 13 -2 19 4 15 15 7 24 -12 12z"/>
<path d="M2115 8670 c3 -5 8 -10 11 -10 2 0 4 5 4 10 0 6 -5 10 -11 10 -5 0
-7 -4 -4 -10z"/>
<path d="M1193 8616 c-26 -27 -29 -38 -9 -30 11 4 42 54 33 54 -1 0 -12 -11
-24 -24z"/>
<path d="M1257 8540 c-17 -21 -15 -40 4 -40 6 0 7 4 4 10 -3 5 -1 19 5 30 14
26 9 25 -13 0z"/>
<path d="M1180 8540 c0 -5 5 -10 11 -10 5 0 7 5 4 10 -3 6 -8 10 -11 10 -2 0
-4 -4 -4 -10z"/>
<path d="M1025 8399 c-19 -7 -19 -8 3 -8 19 -1 22 -5 17 -22 -5 -15 -2 -22 14
-26 15 -4 18 -9 12 -17 -7 -8 -1 -11 20 -11 23 0 29 4 29 22 0 12 3 23 8 26 4
2 1 2 -5 1 -7 -2 -17 5 -23 14 -9 16 -11 16 -20 0 -14 -24 -29 -23 -23 1 6 23
-6 31 -32 20z"/>
<path d="M1172 8345 c-7 -9 -8 -15 -2 -15 5 0 10 -4 10 -10 0 -5 -6 -10 -14
-10 -8 0 -18 -5 -22 -12 -4 -7 -3 -8 4 -4 6 4 20 3 30 -3 30 -16 44 0 30 37
-14 36 -17 38 -36 17z"/>
<path d="M854 8342 c4 -7 2 -12 -4 -12 -7 0 -10 -5 -8 -11 2 -6 8 -10 13 -10
13 1 15 30 3 38 -7 3 -8 1 -4 -5z"/>
<path d="M4292 8338 c5 -15 28 -23 28 -10 0 5 -7 13 -16 16 -10 4 -14 1 -12
-6z"/>
<path d="M2190 8320 c0 -11 5 -20 10 -20 6 0 10 9 10 20 0 11 -4 20 -10 20 -5
0 -10 -9 -10 -20z"/>
<path d="M1043 8308 c1 -15 4 -26 7 -26 24 2 38 -5 46 -22 6 -14 13 -17 23
-11 11 7 9 14 -14 35 -15 14 -31 23 -36 21 -4 -3 -12 2 -17 12 -9 14 -10 13
-9 -9z"/>
<path d="M1270 8322 c0 -5 7 -9 15 -9 8 0 12 4 9 9 -3 4 -9 8 -15 8 -5 0 -9
-4 -9 -8z"/>
<path d="M1745 8310 c4 -6 11 -8 16 -5 14 9 11 15 -7 15 -8 0 -12 -5 -9 -10z"/>
<path d="M4348 8303 c7 -3 16 -2 19 1 4 3 -2 6 -13 5 -11 0 -14 -3 -6 -6z"/>
<path d="M1047 8253 c-16 -4 -15 -7 8 -19 15 -8 35 -14 44 -14 14 1 14 2 -1
14 -10 7 -15 16 -11 19 7 8 -12 7 -40 0z"/>
<path d="M1156 8254 c7 -3 10 -14 7 -24 -4 -14 0 -20 11 -20 21 0 21 36 0 44
-18 7 -35 7 -18 0z"/>
<path d="M1733 8215 c-13 -40 -4 -51 23 -29 10 9 13 13 7 9 -9 -4 -11 2 -7 25
9 42 -10 38 -23 -5z"/>
<path d="M500 8230 c0 -5 5 -10 11 -10 5 0 7 5 4 10 -3 6 -8 10 -11 10 -2 0
-4 -4 -4 -10z"/>
<path d="M1120 8229 c0 -5 5 -7 10 -4 6 3 10 8 10 11 0 2 -4 4 -10 4 -5 0 -10
-5 -10 -11z"/>
<path d="M1247 8229 c-17 -10 -25 -49 -9 -49 7 0 34 51 29 56 -1 1 -10 -2 -20
-7z"/>
<path d="M2130 8220 c-13 -8 -12 -10 3 -10 9 0 17 5 17 10 0 12 -1 12 -20 0z"/>
<path d="M550 8206 c0 -8 4 -17 9 -20 5 -4 7 3 4 14 -6 23 -13 26 -13 6z"/>
<path d="M1060 8200 c0 -5 5 -10 11 -10 5 0 7 5 4 10 -3 6 -8 10 -11 10 -2 0
-4 -4 -4 -10z"/>
<path d="M1175 8190 c-3 -5 -1 -10 4 -10 6 0 11 5 11 10 0 6 -2 10 -4 10 -3 0
-8 -4 -11 -10z"/>
<path d="M345 8180 c-3 -5 -1 -10 4 -10 6 0 11 5 11 10 0 6 -2 10 -4 10 -3 0
-8 -4 -11 -10z"/>
<path d="M2103 8152 c-8 -18 0 -23 41 -27 40 -4 60 13 27 22 -12 3 -21 9 -21
14 0 13 -42 6 -47 -9z"/>
<path d="M2010 8144 c0 -8 5 -12 10 -9 6 3 10 10 10 16 0 5 -4 9 -10 9 -5 0
-10 -7 -10 -16z"/>
<path d="M2070 8145 c0 -8 4 -15 10 -15 5 0 7 7 4 15 -4 8 -8 15 -10 15 -2 0
-4 -7 -4 -15z"/>
<path d="M1166 8135 c-4 -10 -14 -13 -36 -9 -20 5 -30 3 -30 -6 0 -8 -8 -10
-25 -6 -14 4 -25 2 -25 -4 0 -6 26 -9 65 -8 61 2 65 4 65 25 0 26 -5 30 -14 8z"/>
<path d="M1020 8080 c0 -5 -8 -10 -17 -11 -15 0 -15 -2 2 -9 18 -7 19 -8 3
-15 -23 -9 -23 -21 3 -53 21 -27 21 -27 14 -3 -6 21 -5 23 14 18 14 -3 21 0
21 9 0 8 -4 14 -10 14 -5 0 -10 9 -10 20 0 11 5 20 10 20 6 0 10 5 10 10 0 6
-9 10 -20 10 -11 0 -20 -4 -20 -10z"/>
<path d="M1120 8078 c0 -5 11 -8 25 -8 14 0 25 3 25 8 0 4 -11 7 -25 7 -14 0
-25 -3 -25 -7z"/>
<path d="M2170 8079 c0 -5 5 -7 10 -4 6 3 10 8 10 11 0 2 -4 4 -10 4 -5 0 -10
-5 -10 -11z"/>
<path d="M1405 8050 c-3 -5 -1 -10 4 -10 6 0 11 5 11 10 0 6 -2 10 -4 10 -3 0
-8 -4 -11 -10z"/>
<path d="M2108 8053 c7 -3 16 -2 19 1 4 3 -2 6 -13 5 -11 0 -14 -3 -6 -6z"/>
<path d="M2170 8040 c0 -5 5 -10 11 -10 5 0 7 5 4 10 -3 6 -8 10 -11 10 -2 0
-4 -4 -4 -10z"/>
<path d="M2210 8039 c0 -5 5 -7 10 -4 6 3 10 8 10 11 0 2 -4 4 -10 4 -5 0 -10
-5 -10 -11z"/>
<path d="M598 8033 c6 -2 18 -2 25 0 6 3 1 5 -13 5 -14 0 -19 -2 -12 -5z"/>
<path d="M1082 8023 c3 -19 22 -43 33 -43 3 0 4 4 1 9 -4 5 -1 11 6 13 19 7 1
38 -22 38 -14 0 -20 -6 -18 -17z"/>
<path d="M2070 8005 c0 -8 8 -11 20 -8 11 3 20 7 20 8 0 1 -9 5 -20 8 -12 3
-20 0 -20 -8z"/>
<path d="M1148 8003 c7 -3 16 -2 19 1 4 3 -2 6 -13 5 -11 0 -14 -3 -6 -6z"/>
<path d="M2150 8001 c13 -9 12 -11 -4 -11 -11 0 -16 -3 -12 -7 4 -5 13 -8 19
-8 5 0 12 -6 15 -13 2 -7 -2 -10 -12 -6 -23 9 -20 -9 4 -24 18 -11 20 -10 20
18 0 16 -4 30 -10 30 -5 0 -9 5 -7 11 1 6 -5 14 -13 16 -13 4 -13 3 0 -6z"/>
<path d="M390 7995 c0 -10 29 -24 34 -17 3 6 -3 12 -14 15 -11 3 -20 4 -20 2z"/>
<path d="M1135 7980 c3 -5 10 -10 16 -10 5 0 9 5 9 10 0 6 -7 10 -16 10 -8 0
-12 -4 -9 -10z"/>
<path d="M1235 7980 c3 -5 8 -10 11 -10 2 0 4 5 4 10 0 6 -5 10 -11 10 -5 0
-7 -4 -4 -10z"/>
<path d="M1550 7979 c0 -5 5 -7 10 -4 6 3 10 8 10 11 0 2 -4 4 -10 4 -5 0 -10
-5 -10 -11z"/>
<path d="M956 7953 c-4 -10 -1 -20 8 -25 15 -9 19 -68 4 -68 -4 0 -8 -4 -8
-10 0 -5 10 -10 23 -10 l22 0 -25 -21 -25 -20 29 3 c23 2 31 9 37 30 5 21 3
28 -10 31 -11 3 -9 5 7 6 15 1 22 -5 22 -18 0 -10 8 -21 18 -25 9 -3 23 -9 31
-12 8 -4 11 -2 7 4 -4 6 2 10 14 9 11 -1 20 -5 20 -9 0 -4 7 -8 15 -8 8 0 15
5 15 10 0 6 12 10 26 10 22 0 25 2 14 15 -8 10 -9 15 -2 15 6 0 9 6 6 14 -3 9
4 15 20 18 18 4 26 1 26 -9 0 -8 4 -12 9 -9 16 10 42 -6 52 -30 10 -28 18 -30
45 -8 18 14 18 15 -3 4 -19 -9 -23 -8 -23 5 0 9 -12 27 -27 40 -21 18 -36 22
-63 18 -19 -2 -53 -5 -75 -6 -25 -1 -40 -7 -39 -14 2 -30 5 -34 14 -28 6 3 10
1 10 -5 0 -7 -7 -9 -16 -6 -9 3 -18 6 -20 6 -14 0 0 42 18 54 12 9 17 16 11
16 -7 0 -15 -4 -18 -10 -3 -5 -20 -10 -36 -10 -17 0 -28 4 -24 9 3 5 0 11 -7
14 -7 2 -3 2 9 0 17 -2 21 1 17 12 -7 18 -35 20 -53 3 -11 -11 -12 -10 -6 1 6
11 1 12 -31 7 -25 -4 -34 -3 -25 2 8 6 9 12 3 16 -5 3 -13 -2 -16 -11z m79
-53 c-3 -5 -13 -10 -21 -10 -8 0 -14 5 -14 10 0 6 9 10 21 10 11 0 17 -4 14
-10z m30 -30 c3 -5 1 -10 -4 -10 -6 0 -11 5 -11 10 0 6 2 10 4 10 3 0 8 -4 11
-10z m115 -10 c0 -5 -5 -10 -11 -10 -5 0 -7 5 -4 10 3 6 8 10 11 10 2 0 4 -4
4 -10z"/>
<path d="M1110 7949 c0 -4 5 -11 10 -14 6 -3 10 -1 10 6 0 7 8 5 20 -6 18 -16
20 -16 20 -2 0 10 -3 18 -7 18 -33 6 -53 5 -53 -2z"/>
<path d="M430 7936 c0 -9 5 -16 10 -16 6 0 10 4 10 9 0 6 -4 13 -10 16 -5 3
-10 -1 -10 -9z"/>
<path d="M1230 7941 c0 -9 24 -21 43 -21 6 0 2 7 -9 15 -22 17 -34 19 -34 6z"/>
<path d="M907 7913 c-8 -8 -9 -43 -1 -43 3 0 12 6 19 14 12 12 12 16 1 25 -7
6 -16 8 -19 4z"/>
<path d="M1490 7890 c0 -6 7 -10 15 -10 8 0 15 2 15 4 0 2 -7 6 -15 10 -8 3
-15 1 -15 -4z"/>
<path d="M796 7864 c-5 -14 -4 -15 9 -4 17 14 19 20 6 20 -5 0 -12 -7 -15 -16z"/>
<path d="M105 7850 c-3 -5 1 -10 10 -10 9 0 13 5 10 10 -3 6 -8 10 -10 10 -2
0 -7 -4 -10 -10z"/>
<path d="M670 7849 c0 -5 5 -7 10 -4 6 3 10 8 10 11 0 2 -4 4 -10 4 -5 0 -10
-5 -10 -11z"/>
<path d="M2133 7833 c-3 -10 -8 -22 -11 -28 -3 -5 4 -1 16 9 24 20 28 36 12
36 -6 0 -13 -8 -17 -17z"/>
<path d="M1585 7820 c-3 -5 1 -10 9 -10 9 0 16 5 16 10 0 6 -4 10 -9 10 -6 0
-13 -4 -16 -10z"/>
<path d="M1186 7799 c4 -8 0 -9 -15 -4 -11 3 -29 2 -38 -4 -17 -10 -17 -10 0
-11 9 0 17 -5 17 -10 0 -7 7 -7 21 0 11 7 27 9 36 6 11 -5 13 -2 9 10 -3 8 -6
18 -6 20 0 2 -7 4 -16 4 -8 0 -12 -5 -8 -11z"/>
<path d="M900 7795 c0 -2 9 -9 20 -15 16 -9 20 -8 20 5 0 8 -9 15 -20 15 -11
0 -20 -2 -20 -5z"/>
<path d="M1377 7793 c-3 -5 17 -8 44 -9 27 0 49 3 49 8 0 10 -87 11 -93 1z"/>
<path d="M997 7773 c-2 -10 -8 -26 -12 -35 -5 -14 -2 -18 13 -18 21 0 35 14
38 37 1 6 -4 9 -12 6 -10 -4 -12 0 -8 11 3 9 2 16 -4 16 -5 0 -12 -8 -15 -17z"/>
<path d="M1310 7781 c0 -4 11 -6 25 -3 14 2 25 6 25 8 0 2 -11 4 -25 4 -14 0
-25 -4 -25 -9z"/>
<path d="M1495 7781 c-9 -16 9 -20 23 -5 10 12 10 14 -2 14 -8 0 -17 -4 -21
-9z"/>
<path d="M1613 7769 c14 -8 17 -18 12 -40 -4 -18 -3 -29 4 -29 6 0 11 6 11 13
0 8 4 7 10 -3 14 -21 12 -6 -2 25 -10 22 -9 28 3 36 10 6 4 9 -21 9 -29 -1
-32 -2 -17 -11z"/>
<path d="M1530 7755 c-9 -10 -9 -15 -1 -15 6 0 11 5 11 11 0 6 7 9 15 6 8 -4
17 -2 20 3 10 16 -32 11 -45 -5z"/>
<path d="M600 7750 c-13 -8 -12 -10 3 -10 9 0 17 5 17 10 0 12 -1 12 -20 0z"/>
<path d="M945 7750 c3 -5 8 -10 11 -10 2 0 4 5 4 10 0 6 -5 10 -11 10 -5 0 -7
-4 -4 -10z"/>
<path d="M1473 7727 c3 -10 3 -17 -2 -17 -4 0 -8 -7 -8 -15 0 -11 4 -12 14 -4
16 14 17 35 1 45 -8 5 -9 2 -5 -9z"/>
<path d="M2000 7718 c-12 -22 -12 -22 6 -6 10 10 15 20 12 24 -4 3 -12 -5 -18
-18z"/>
<path d="M3165 7730 c3 -5 11 -10 16 -10 6 0 7 5 4 10 -3 6 -11 10 -16 10 -6
0 -7 -4 -4 -10z"/>
<path d="M1197 7704 c6 -16 53 -19 53 -4 0 10 -2 11 -37 15 -14 1 -20 -2 -16
-11z"/>
<path d="M1430 7709 c0 -5 -4 -7 -10 -4 -5 3 -10 0 -10 -8 0 -8 8 -18 17 -21
10 -4 14 -4 11 0 -4 4 -3 15 3 25 6 13 6 19 -1 19 -5 0 -10 -5 -10 -11z"/>
<path d="M972 7695 c-8 -10 -9 -15 -2 -15 6 0 8 -4 5 -10 -3 -5 -1 -10 5 -10
7 0 10 7 6 15 -3 9 0 15 10 15 8 0 12 5 9 10 -8 14 -18 12 -33 -5z"/>
<path d="M1950 7700 c0 -5 7 -10 16 -10 8 0 12 5 9 10 -3 6 -10 10 -16 10 -5
0 -9 -4 -9 -10z"/>
<path d="M2011 7691 c-17 -13 -20 -20 -12 -26 7 -4 13 -5 14 -4 1 2 8 14 15
27 15 27 14 27 -17 3z"/>
<path d="M700 7690 c0 -5 7 -10 16 -10 8 0 12 5 9 10 -3 6 -10 10 -16 10 -5 0
-9 -4 -9 -10z"/>
<path d="M1378 7693 c7 -3 16 -2 19 1 4 3 -2 6 -13 5 -11 0 -14 -3 -6 -6z"/>
<path d="M1495 7680 c4 -6 11 -8 16 -5 14 9 11 15 -7 15 -8 0 -12 -5 -9 -10z"/>
<path d="M1195 7669 c-4 -6 -5 -12 -2 -15 2 -3 7 2 10 11 7 17 1 20 -8 4z"/>
<path d="M1578 7673 c7 -3 16 -2 19 1 4 3 -2 6 -13 5 -11 0 -14 -3 -6 -6z"/>
<path d="M1618 7673 c7 -3 16 -2 19 1 4 3 -2 6 -13 5 -11 0 -14 -3 -6 -6z"/>
<path d="M1420 7649 c0 -5 5 -7 10 -4 6 3 10 8 10 11 0 2 -4 4 -10 4 -5 0 -10
-5 -10 -11z"/>
<path d="M1920 7649 c0 -5 5 -7 10 -4 6 3 10 8 10 11 0 2 -4 4 -10 4 -5 0 -10
-5 -10 -11z"/>
<path d="M1608 7643 c7 -3 16 -2 19 1 4 3 -2 6 -13 5 -11 0 -14 -3 -6 -6z"/>
<path d="M1390 7630 c0 -5 5 -10 11 -10 5 0 7 5 4 10 -3 6 -8 10 -11 10 -2 0
-4 -4 -4 -10z"/>
<path d="M1604 7621 c3 -5 16 -11 28 -14 22 -6 22 -5 4 8 -22 17 -40 20 -32 6z"/>
<path d="M1940 7620 c0 -5 5 -10 11 -10 5 0 7 5 4 10 -3 6 -8 10 -11 10 -2 0
-4 -4 -4 -10z"/>
<path d="M1570 7609 c0 -5 5 -7 10 -4 6 3 10 8 10 11 0 2 -4 4 -10 4 -5 0 -10
-5 -10 -11z"/>
<path d="M1158 7603 c6 -2 18 -2 25 0 6 3 1 5 -13 5 -14 0 -19 -2 -12 -5z"/>
<path d="M1058 7543 c7 -3 16 -2 19 1 4 3 -2 6 -13 5 -11 0 -14 -3 -6 -6z"/>
<path d="M2980 7516 c0 -2 7 -7 16 -10 8 -3 12 -2 9 4 -6 10 -25 14 -25 6z"/>
<path d="M2856 7454 c-4 -10 -1 -14 6 -12 15 5 23 28 10 28 -5 0 -13 -7 -16
-16z"/>
<path d="M3293 7453 c-17 -6 -16 -20 1 -26 10 -4 14 0 13 14 -1 10 -1 19 -2
18 0 0 -6 -3 -12 -6z"/>
<path d="M2240 7425 c0 -8 5 -15 10 -15 6 0 10 7 10 15 0 8 -4 15 -10 15 -5 0
-10 -7 -10 -15z"/>
<path d="M3738 7263 c7 -3 16 -2 19 1 4 3 -2 6 -13 5 -11 0 -14 -3 -6 -6z"/>
<path d="M2070 7240 c0 -5 5 -10 10 -10 6 0 10 5 10 10 0 6 -4 10 -10 10 -5 0
-10 -4 -10 -10z"/>
<path d="M3788 7243 c6 -2 18 -2 25 0 6 3 1 5 -13 5 -14 0 -19 -2 -12 -5z"/>
<path d="M2035 7210 c-4 -6 3 -10 14 -10 25 0 27 6 6 13 -8 4 -17 2 -20 -3z"/>
<path d="M4995 7200 c-3 -5 -1 -10 4 -10 6 0 11 5 11 10 0 6 -2 10 -4 10 -3 0
-8 -4 -11 -10z"/>
<path d="M4690 7169 c0 -5 5 -7 10 -4 6 3 10 8 10 11 0 2 -4 4 -10 4 -5 0 -10
-5 -10 -11z"/>
<path d="M2010 7150 c0 -5 5 -10 11 -10 5 0 7 5 4 10 -3 6 -8 10 -11 10 -2 0
-4 -4 -4 -10z"/>
<path d="M3560 7109 c0 -5 5 -7 10 -4 6 3 10 8 10 11 0 2 -4 4 -10 4 -5 0 -10
-5 -10 -11z"/>
<path d="M3547 7033 c-12 -12 -7 -22 8 -17 8 4 15 10 15 15 0 11 -14 12 -23 2z"/>
<path d="M1846 6975 c4 -8 12 -15 20 -15 20 0 17 7 -6 20 -16 9 -18 8 -14 -5z"/>
<path d="M4488 6803 c6 -2 18 -2 25 0 6 3 1 5 -13 5 -14 0 -19 -2 -12 -5z"/>
<path d="M4525 6740 c-3 -5 1 -13 10 -16 22 -9 29 1 11 15 -10 8 -16 9 -21 1z"/>
<path d="M280 6650 c0 -5 5 -10 11 -10 5 0 7 5 4 10 -3 6 -8 10 -11 10 -2 0
-4 -4 -4 -10z"/>
<path d="M4530 6620 c0 -5 5 -10 10 -10 6 0 10 5 10 10 0 6 -4 10 -10 10 -5 0
-10 -4 -10 -10z"/>
<path d="M4530 6530 c0 -5 5 -10 10 -10 6 0 10 5 10 10 0 6 -4 10 -10 10 -5 0
-10 -4 -10 -10z"/>
<path d="M1410 6500 c0 -5 4 -10 9 -10 6 0 13 5 16 10 3 6 -1 10 -9 10 -9 0
-16 -4 -16 -10z"/>
<path d="M675 6490 c-3 -5 1 -10 10 -10 9 0 13 5 10 10 -3 6 -8 10 -10 10 -2
0 -7 -4 -10 -10z"/>
<path d="M1145 6440 c-3 -5 3 -10 15 -10 12 0 18 5 15 10 -3 6 -10 10 -15 10
-5 0 -12 -4 -15 -10z"/>
<path d="M1028 6423 c7 -3 16 -2 19 1 4 3 -2 6 -13 5 -11 0 -14 -3 -6 -6z"/>
<path d="M667 6378 c7 -37 10 -44 19 -35 9 8 -6 67 -17 67 -4 0 -6 -15 -2 -32z"/>
<path d="M1138 6403 c7 -3 16 -2 19 1 4 3 -2 6 -13 5 -11 0 -14 -3 -6 -6z"/>
<path d="M973 6382 c-35 -17 -43 -32 -18 -32 9 0 18 7 21 15 4 10 11 12 18 7
6 -5 20 -12 31 -15 17 -6 16 -3 -5 15 -24 21 -24 21 -3 15 13 -3 25 -2 27 2 9
13 -40 9 -71 -7z"/>
<path d="M595 6380 c-19 -8 -19 -9 2 -9 12 -1 25 4 28 9 7 12 -2 12 -30 0z"/>
<path d="M1066 6383 c-11 -11 -6 -23 9 -23 8 0 15 4 15 9 0 13 -16 22 -24 14z"/>
<path d="M1440 6359 c0 -5 5 -7 10 -4 6 3 10 8 10 11 0 2 -4 4 -10 4 -5 0 -10
-5 -10 -11z"/>
<path d="M510 6350 c0 -5 -9 -10 -20 -10 -11 0 -20 -4 -20 -10 0 -15 27 -12
44 6 19 18 20 24 6 24 -5 0 -10 -4 -10 -10z"/>
<path d="M568 6353 c7 -3 16 -2 19 1 4 3 -2 6 -13 5 -11 0 -14 -3 -6 -6z"/>
<path d="M624 6353 c4 -4 -9 -17 -29 -29 -31 -19 -34 -22 -18 -29 30 -13 74
-12 68 3 -2 6 0 12 6 12 6 0 7 5 3 11 -4 8 -9 8 -17 0 -6 -6 -15 -11 -20 -11
-5 0 -1 7 7 16 19 18 21 34 4 34 -6 0 -8 -3 -4 -7z"/>
<path d="M935 6330 c3 -5 11 -10 16 -10 6 0 7 5 4 10 -3 6 -11 10 -16 10 -6 0
-7 -4 -4 -10z"/>
<path d="M972 6315 c-11 -23 -10 -25 13 -25 14 0 29 8 36 21 10 19 9 20 -11
14 -15 -5 -20 -4 -16 4 4 6 3 11 -2 11 -5 0 -14 -11 -20 -25z"/>
<path d="M483 6313 c-13 -2 -23 -9 -23 -14 0 -11 39 -2 55 12 9 9 7 10 -32 2z"/>
<path d="M905 6310 c-3 -5 1 -10 10 -10 9 0 13 5 10 10 -3 6 -8 10 -10 10 -2
0 -7 -4 -10 -10z"/>
<path d="M840 6300 c0 -5 7 -10 16 -10 8 0 12 5 9 10 -3 6 -10 10 -16 10 -5 0
-9 -4 -9 -10z"/>
<path d="M537 6273 c-14 -13 -6 -20 18 -15 14 2 28 8 31 13 6 10 -39 12 -49 2z"/>
<path d="M870 6272 c0 -12 19 -26 26 -19 2 2 -2 10 -11 17 -9 8 -15 8 -15 2z"/>
<path d="M600 6260 c0 -5 4 -10 9 -10 6 0 13 5 16 10 3 6 -1 10 -9 10 -9 0
-16 -4 -16 -10z"/>
<path d="M4477 6249 c4 -13 8 -18 11 -10 2 7 -1 18 -6 23 -8 8 -9 4 -5 -13z"/>
<path d="M1810 6210 c0 -5 5 -10 10 -10 6 0 10 5 10 10 0 6 -4 10 -10 10 -5 0
-10 -4 -10 -10z"/>
<path d="M1410 6200 c0 -5 5 -10 10 -10 6 0 10 5 10 10 0 6 -4 10 -10 10 -5 0
-10 -4 -10 -10z"/>
<path d="M797 6189 c8 -8 16 -8 30 0 16 9 14 10 -11 11 -22 0 -27 -3 -19 -11z"/>
<path d="M3938 6183 c6 -2 18 -2 25 0 6 3 1 5 -13 5 -14 0 -19 -2 -12 -5z"/>
<path d="M4288 6023 c6 -2 18 -2 25 0 6 3 1 5 -13 5 -14 0 -19 -2 -12 -5z"/>
<path d="M4128 6003 c7 -3 16 -2 19 1 4 3 -2 6 -13 5 -11 0 -14 -3 -6 -6z"/>
<path d="M4368 6003 c6 -2 18 -2 25 0 6 3 1 5 -13 5 -14 0 -19 -2 -12 -5z"/>
<path d="M863 5986 c4 -9 -1 -17 -11 -19 -10 -3 -5 -5 11 -6 15 0 27 1 27 3 0
14 -14 36 -22 36 -6 0 -8 -6 -5 -14z"/>
<path d="M1790 5960 c0 -5 7 -7 15 -4 8 4 15 8 15 10 0 2 -7 4 -15 4 -8 0 -15
-4 -15 -10z"/>
<path d="M4503 5963 c-24 -3 -33 -9 -33 -23 0 -10 5 -22 12 -26 8 -5 9 -2 5 9
-5 14 0 17 23 17 20 0 30 5 30 15 0 8 -1 14 -2 13 -2 0 -18 -3 -35 -5z"/>
<path d="M908 5953 c7 -3 16 -2 19 1 4 3 -2 6 -13 5 -11 0 -14 -3 -6 -6z"/>
<path d="M5570 5950 c0 -5 7 -10 15 -10 8 0 15 5 15 10 0 6 -7 10 -15 10 -8 0
-15 -4 -15 -10z"/>
<path d="M800 5935 c-11 -13 -8 -15 19 -15 21 0 31 5 31 15 0 8 -8 15 -19 15
-10 0 -24 -7 -31 -15z"/>
<path d="M4658 5943 c7 -3 16 -2 19 1 4 3 -2 6 -13 5 -11 0 -14 -3 -6 -6z"/>
<path d="M3688 5913 c7 -3 16 -2 19 1 4 3 -2 6 -13 5 -11 0 -14 -3 -6 -6z"/>
<path d="M780 5906 c0 -2 7 -6 15 -10 8 -3 15 -1 15 4 0 6 -7 10 -15 10 -8 0
-15 -2 -15 -4z"/>
<path d="M1510 5899 c0 -5 5 -7 10 -4 6 3 10 8 10 11 0 2 -4 4 -10 4 -5 0 -10
-5 -10 -11z"/>
<path d="M5290 5900 c0 -5 -8 -7 -17 -3 -15 5 -14 3 2 -10 11 -8 23 -13 27
-11 12 7 10 34 -2 34 -5 0 -10 -4 -10 -10z"/>
<path d="M5322 5898 c2 -6 10 -14 16 -16 7 -2 10 2 6 12 -7 18 -28 22 -22 4z"/>
<path d="M5161 5896 c10 -8 89 -13 89 -5 0 5 -21 9 -47 9 -25 0 -44 -2 -42 -4z"/>
<path d="M760 5880 c0 -5 5 -10 10 -10 6 0 10 5 10 10 0 6 -4 10 -10 10 -5 0
-10 -4 -10 -10z"/>
<path d="M5365 5879 c-4 -6 2 -13 14 -16 12 -3 21 -10 21 -15 0 -5 4 -6 10 -3
6 4 5 13 -3 25 -13 22 -32 26 -42 9z"/>
<path d="M1517 5873 c-10 -9 -9 -23 1 -23 5 0 9 7 9 15 0 17 -1 18 -10 8z"/>
<path d="M1600 5854 c0 -8 5 -12 10 -9 6 4 8 11 5 16 -9 14 -15 11 -15 -7z"/>
<path d="M5550 5811 c0 -18 18 -21 30 -6 10 13 9 15 -9 15 -11 0 -21 -4 -21
-9z"/>
<path d="M1860 5739 c0 -5 5 -7 10 -4 6 3 10 8 10 11 0 2 -4 4 -10 4 -5 0 -10
-5 -10 -11z"/>
<path d="M2455 5720 c-3 -6 1 -7 9 -4 18 7 21 14 7 14 -6 0 -13 -4 -16 -10z"/>
<path d="M4500 5710 c0 -5 5 -10 10 -10 6 0 10 5 10 10 0 6 -4 10 -10 10 -5 0
-10 -4 -10 -10z"/>
<path d="M3920 5609 c0 -5 5 -7 10 -4 6 3 10 8 10 11 0 2 -4 4 -10 4 -5 0 -10
-5 -10 -11z"/>
<path d="M4470 5551 c13 -9 12 -11 -5 -12 -11 0 -15 -3 -8 -5 7 -3 9 -12 6
-20 -3 -8 1 -14 8 -14 12 0 12 -2 1 -9 -11 -7 -11 -9 2 -14 9 -4 16 -2 16 4 0
5 6 9 13 8 26 -3 36 2 31 15 -3 9 -13 12 -22 9 -14 -5 -15 -3 -4 8 19 21 14
34 -7 15 -18 -16 -19 -16 -17 0 0 9 -6 19 -14 21 -13 4 -13 3 0 -6z"/>
<path d="M1068 5528 c-25 -9 -30 -38 -6 -38 5 0 6 5 3 10 -8 13 44 2 63 -13
24 -19 35 8 12 28 -25 23 -37 25 -72 13z"/>
<path d="M1878 5522 c20 -22 25 -21 16 2 -3 9 -12 16 -20 16 -11 0 -10 -4 4
-18z"/>
<path d="M630 5520 c-8 -5 -10 -10 -5 -10 6 0 17 5 25 10 8 5 11 10 5 10 -5 0
-17 -5 -25 -10z"/>
<path d="M1183 5516 c-3 -4 1 -12 8 -17 8 -5 15 -4 17 1 2 6 12 10 22 10 10 0
21 4 24 8 3 5 -11 8 -30 8 -20 -1 -38 -5 -41 -10z"/>
<path d="M1315 5510 c3 -5 8 -10 11 -10 2 0 4 5 4 10 0 6 -5 10 -11 10 -5 0
-7 -4 -4 -10z"/>
<path d="M1240 5480 c20 -13 40 -13 40 0 0 6 -12 10 -27 10 -22 0 -25 -2 -13
-10z"/>
<path d="M5398 5463 c7 -3 16 -2 19 1 4 3 -2 6 -13 5 -11 0 -14 -3 -6 -6z"/>
<path d="M1220 5451 c0 -12 37 -24 50 -16 20 12 10 25 -20 25 -16 0 -30 -4
-30 -9z"/>
<path d="M5495 5450 c28 -12 37 -12 30 0 -3 6 -16 10 -28 9 -21 0 -21 -1 -2
-9z"/>
<path d="M5550 5449 c0 -6 9 -8 21 -4 14 5 19 3 15 -3 -4 -6 2 -8 14 -5 32 9
23 23 -15 23 -19 0 -35 -5 -35 -11z"/>
<path d="M2530 5430 c0 -5 5 -10 10 -10 6 0 10 5 10 10 0 6 -4 10 -10 10 -5 0
-10 -4 -10 -10z"/>
<path d="M1539 5403 c4 -15 16 -30 25 -31 13 -3 16 0 10 10 -5 7 -9 20 -9 28
0 8 -8 16 -17 18 -14 3 -15 -2 -9 -25z"/>
<path d="M4947 5363 c-10 -10 -17 -12 -17 -5 0 16 -27 4 -34 -15 -6 -13 -4
-14 10 -3 13 11 17 11 24 1 6 -10 10 -9 19 5 6 11 11 13 11 6 0 -18 20 -5 20
14 0 19 -12 18 -33 -3z"/>
<path d="M5018 5363 c7 -3 16 -2 19 1 4 3 -2 6 -13 5 -11 0 -14 -3 -6 -6z"/>
<path d="M5228 5348 c2 -10 8 -18 13 -18 4 0 7 8 6 18 0 10 -6 19 -13 19 -6 0
-9 -9 -6 -19z"/>
<path d="M5060 5351 c0 -6 4 -13 10 -16 6 -3 7 1 4 9 -7 18 -14 21 -14 7z"/>
<path d="M2590 5340 c0 -5 4 -10 10 -10 5 0 7 -7 4 -15 -4 -8 -1 -15 5 -15 12
0 14 11 5 34 -7 18 -24 22 -24 6z"/>
<path d="M4982 5339 c2 -6 8 -10 13 -10 5 0 11 4 13 10 2 6 -4 11 -13 11 -9 0
-15 -5 -13 -11z"/>
<path d="M5185 5340 c-19 -7 -19 -8 -2 -15 19 -8 31 -2 26 13 -2 5 -13 6 -24
2z"/>
<path d="M5075 5290 c-3 -5 1 -10 9 -10 9 0 16 5 16 10 0 6 -4 10 -9 10 -6 0
-13 -4 -16 -10z"/>
<path d="M5106 5285 c-3 -8 -13 -15 -23 -15 -15 0 -15 -2 -4 -9 17 -11 51 7
51 26 0 18 -17 16 -24 -2z"/>
<path d="M5170 5275 c0 -15 7 -21 28 -23 21 -1 23 0 12 8 -13 9 -13 10 0 11 8
1 19 1 23 0 5 -1 6 3 3 8 -8 13 -46 10 -46 -4 0 -5 -5 -3 -10 5 -8 12 -10 11
-10 -5z"/>
<path d="M5200 5226 c0 -9 5 -16 10 -16 6 0 10 4 10 9 0 6 -4 13 -10 16 -5 3
-10 -1 -10 -9z"/>
<path d="M330 5160 c0 -5 5 -10 10 -10 6 0 10 5 10 10 0 6 -4 10 -10 10 -5 0
-10 -4 -10 -10z"/>
<path d="M395 5161 c-10 -17 12 -21 25 -6 10 12 10 15 -3 15 -9 0 -18 -4 -22
-9z"/>
<path d="M694 5149 c-3 -5 6 -9 20 -9 31 0 34 6 6 13 -11 3 -23 1 -26 -4z"/>
<path d="M426 5139 c3 -6 0 -15 -7 -20 -11 -7 -9 -9 8 -9 16 0 20 5 16 20 -3
11 -10 20 -15 20 -5 0 -6 -5 -2 -11z"/>
<path d="M1540 5134 c0 -8 -4 -12 -10 -9 -5 3 -10 1 -10 -4 0 -17 49 -13 67 4
8 9 12 19 9 23 -4 3 -12 0 -17 -8 -8 -11 -12 -12 -16 -2 -7 17 -23 15 -23 -4z"/>
<path d="M336 5121 c-3 -5 1 -11 9 -14 9 -4 12 -1 8 9 -6 16 -10 17 -17 5z"/>
<path d="M476 5119 c15 -5 16 -7 4 -11 -10 -3 -9 -4 3 -3 19 3 24 -21 5 -28
-10 -4 -10 -6 -1 -6 6 -1 15 4 18 9 8 13 45 13 45 -1 0 -5 5 -7 12 -3 8 5 4
13 -11 25 -19 16 -20 18 -4 21 10 2 -6 4 -36 4 -30 0 -45 -3 -35 -7z"/>
<path d="M285 5110 c-8 -13 5 -13 25 0 13 8 13 10 -2 10 -9 0 -20 -4 -23 -10z"/>
<path d="M620 5100 c0 -5 5 -10 10 -10 6 0 10 5 10 10 0 6 -4 10 -10 10 -5 0
-10 -4 -10 -10z"/>
<path d="M788 5103 c7 -3 16 -2 19 1 4 3 -2 6 -13 5 -11 0 -14 -3 -6 -6z"/>
<path d="M1680 5100 c0 -5 -8 -10 -17 -10 -15 0 -16 -2 -3 -10 22 -14 27 -12
33 10 3 11 1 20 -4 20 -5 0 -9 -4 -9 -10z"/>
<path d="M3958 4998 c5 -5 16 -8 23 -6 8 3 3 7 -10 11 -17 4 -21 3 -13 -5z"/>
<path d="M5150 5000 c0 -5 5 -10 11 -10 5 0 7 5 4 10 -3 6 -8 10 -11 10 -2 0
-4 -4 -4 -10z"/>
<path d="M1865 4990 c-3 -5 -2 -10 4 -10 5 0 13 5 16 10 3 6 2 10 -4 10 -5 0
-13 -4 -16 -10z"/>
<path d="M5063 4993 c9 -2 23 -2 30 0 6 3 -1 5 -18 5 -16 0 -22 -2 -12 -5z"/>
<path d="M611 4986 c9 -8 99 -13 99 -5 0 5 -23 9 -52 9 -28 0 -49 -2 -47 -4z"/>
<path d="M1305 4970 c-3 -5 -1 -10 4 -10 6 0 11 5 11 10 0 6 -2 10 -4 10 -3 0
-8 -4 -11 -10z"/>
<path d="M5060 4970 c0 -5 5 -10 11 -10 5 0 7 5 4 10 -3 6 -8 10 -11 10 -2 0
-4 -4 -4 -10z"/>
<path d="M5225 4970 c-3 -5 2 -10 13 -10 10 0 29 -9 42 -20 17 -14 27 -17 36
-9 9 7 14 6 20 -2 5 -9 11 -7 21 6 7 11 13 14 13 8 0 -16 43 -24 52 -10 6 9
10 8 18 -3 7 -12 9 -10 7 8 -1 20 -5 22 -30 16 -23 -5 -28 -3 -22 7 5 8 5 11
0 7 -4 -4 -17 -3 -28 3 -14 8 -18 8 -12 0 6 -11 -34 -9 -102 5 -12 2 -25 0
-28 -6z"/>
<path d="M876 4958 c3 -4 9 -8 15 -8 5 0 9 4 9 8 0 5 -7 9 -15 9 -8 0 -12 -4
-9 -9z"/>
<path d="M1345 4960 c-8 -13 5 -13 25 0 13 8 13 10 -2 10 -9 0 -20 -4 -23 -10z"/>
<path d="M4940 4947 c0 -8 7 -17 15 -21 18 -7 45 3 45 16 0 6 -7 7 -16 4 -9
-4 -23 -1 -30 5 -11 9 -14 8 -14 -4z"/>
<path d="M5488 4923 c7 -3 16 -2 19 1 4 3 -2 6 -13 5 -11 0 -14 -3 -6 -6z"/>
<path d="M4471 4904 c0 -11 3 -14 6 -6 3 7 2 16 -1 19 -3 4 -6 -2 -5 -13z"/>
<path d="M5380 4910 c0 -5 5 -10 10 -10 6 0 10 5 10 10 0 6 -4 10 -10 10 -5 0
-10 -4 -10 -10z"/>
<path d="M5530 4900 c-24 -8 -23 -8 8 -9 20 -1 31 3 27 9 -3 6 -7 10 -8 9 -1
-1 -13 -5 -27 -9z"/>
<path d="M4440 4870 c0 -12 37 -14 44 -2 2 4 -6 9 -20 10 -13 1 -24 -3 -24 -8z"/>
<path d="M4455 4840 c-16 -7 -13 -9 18 -9 20 -1 37 4 37 9 0 12 -27 12 -55 0z"/>
<path d="M4447 4803 c-4 -3 -7 -19 -7 -34 0 -32 28 -46 60 -29 27 14 18 29
-15 22 -14 -2 -25 0 -25 6 0 12 29 24 41 16 5 -3 9 2 9 10 0 16 -49 23 -63 9z"/>
<path d="M2925 4760 c3 -5 8 -10 11 -10 2 0 4 5 4 10 0 6 -5 10 -11 10 -5 0
-7 -4 -4 -10z"/>
<path d="M988 4753 c7 -3 16 -2 19 1 4 3 -2 6 -13 5 -11 0 -14 -3 -6 -6z"/>
<path d="M4491 4721 c-7 -5 -22 -6 -34 -3 -14 3 -18 1 -13 -6 4 -7 14 -12 22
-12 8 0 13 -4 10 -8 -2 -4 4 -8 15 -8 24 0 25 13 2 19 -17 4 -17 5 0 6 9 0 17
6 17 11 0 12 -1 12 -19 1z"/>
<path d="M5585 4599 c-4 -6 -5 -12 -2 -15 2 -3 7 2 10 11 7 17 1 20 -8 4z"/>
<path d="M3800 4526 c0 -7 8 -16 18 -20 9 -3 24 -9 32 -12 8 -4 6 0 -4 8 -10
8 -16 20 -12 26 5 8 0 12 -13 12 -12 0 -21 -6 -21 -14z"/>
<path d="M3850 4520 c0 -5 5 -10 11 -10 5 0 7 5 4 10 -3 6 -8 10 -11 10 -2 0
-4 -4 -4 -10z"/>
<path d="M5500 4409 c0 -5 5 -7 10 -4 6 3 10 8 10 11 0 2 -4 4 -10 4 -5 0 -10
-5 -10 -11z"/>
<path d="M3880 4360 c0 -5 5 -10 10 -10 6 0 10 5 10 10 0 6 -4 10 -10 10 -5 0
-10 -4 -10 -10z"/>
<path d="M5168 4273 c7 -3 16 -2 19 1 4 3 -2 6 -13 5 -11 0 -14 -3 -6 -6z"/>
<path d="M4477 4249 c7 -7 15 -10 18 -7 3 3 -2 9 -12 12 -14 6 -15 5 -6 -5z"/>
<path d="M1850 4011 c0 -5 9 -11 21 -14 16 -4 18 -3 8 9 -13 16 -29 19 -29 5z"/>
<path d="M1980 4010 c-9 -6 -10 -10 -3 -10 6 0 15 5 18 10 8 12 4 12 -15 0z"/>
<path d="M1498 3993 c7 -3 16 -2 19 1 4 3 -2 6 -13 5 -11 0 -14 -3 -6 -6z"/>
<path d="M220 3982 c0 -5 7 -9 15 -9 8 0 15 4 15 9 0 4 -7 8 -15 8 -8 0 -15
-4 -15 -8z"/>
<path d="M90 3970 c0 -5 5 -10 10 -10 6 0 10 5 10 10 0 6 -4 10 -10 10 -5 0
-10 -4 -10 -10z"/>
<path d="M170 3970 c0 -5 5 -10 10 -10 6 0 10 5 10 10 0 6 -4 10 -10 10 -5 0
-10 -4 -10 -10z"/>
<path d="M2005 3969 c-4 -6 -13 -8 -21 -5 -13 5 -30 -11 -21 -20 6 -7 57 18
57 28 0 11 -8 10 -15 -3z"/>
<path d="M1178 3963 c6 -2 10 -9 6 -14 -7 -12 -61 -12 -69 1 -3 6 -14 10 -23
10 -13 0 -12 -3 6 -15 21 -15 112 -19 112 -5 0 10 -23 30 -34 29 -6 0 -5 -3 2
-6z"/>
<path d="M2025 3950 c-10 -11 -14 -20 -8 -20 5 0 18 9 28 20 10 11 14 20 8 20
-5 0 -18 -9 -28 -20z"/>
<path d="M155 3940 c-3 -5 1 -10 10 -10 9 0 13 5 10 10 -3 6 -8 10 -10 10 -2
0 -7 -4 -10 -10z"/>
<path d="M100 3930 c0 -5 5 -10 10 -10 6 0 10 5 10 10 0 6 -4 10 -10 10 -5 0
-10 -4 -10 -10z"/>
<path d="M230 3919 c0 -5 5 -7 10 -4 6 3 10 8 10 11 0 2 -4 4 -10 4 -5 0 -10
-5 -10 -11z"/>
<path d="M2040 3920 c0 -6 -7 -10 -16 -8 -10 2 -18 -3 -20 -10 -1 -7 0 -8 3
-2 2 5 9 8 14 5 5 -4 16 -2 25 3 11 6 13 11 5 16 -6 4 -11 2 -11 -4z"/>
<path d="M2625 3920 c3 -5 11 -10 16 -10 6 0 7 5 4 10 -3 6 -11 10 -16 10 -6
0 -7 -4 -4 -10z"/>
<path d="M124 3905 c-10 -8 -14 -14 -9 -14 6 0 19 6 29 14 11 8 15 15 10 15
-6 0 -19 -7 -30 -15z"/>
<path d="M1108 3893 c5 -21 7 -23 10 -9 2 10 0 22 -6 28 -6 6 -7 0 -4 -19z"/>
<path d="M1058 3903 c7 -3 16 -2 19 1 4 3 -2 6 -13 5 -11 0 -14 -3 -6 -6z"/>
<path d="M2080 3901 c0 -6 -7 -8 -15 -5 -8 4 -15 1 -15 -6 0 -6 4 -9 9 -6 4 3
17 -1 27 -9 15 -11 16 -15 4 -15 -12 0 -10 -4 4 -15 11 -8 16 -15 10 -15 -5 0
-2 -4 6 -10 9 -5 19 -5 27 2 15 12 17 38 3 38 -5 0 -10 -10 -10 -22 0 -21 0
-21 -14 -2 -8 11 -10 21 -5 22 6 2 4 11 -3 20 -7 8 -12 18 -10 21 2 3 -1 7 -7
9 -6 2 -11 -1 -11 -7z"/>
<path d="M160 3890 c-9 -6 -10 -10 -3 -10 6 0 15 5 18 10 8 12 4 12 -15 0z"/>
<path d="M2120 3890 c0 -5 5 -10 10 -10 6 0 10 5 10 10 0 6 -4 10 -10 10 -5 0
-10 -4 -10 -10z"/>
<path d="M1270 3873 c-13 -15 -12 -16 4 -10 10 4 20 7 22 7 2 0 4 5 4 10 0 15
-13 12 -30 -7z"/>
<path d="M4420 3870 c0 -5 5 -10 10 -10 6 0 10 5 10 10 0 6 -4 10 -10 10 -5 0
-10 -4 -10 -10z"/>
<path d="M100 3860 c0 -6 7 -10 15 -10 8 0 15 2 15 4 0 2 -7 6 -15 10 -8 3
-15 1 -15 -4z"/>
<path d="M755 3860 c-3 -5 1 -10 10 -10 9 0 13 5 10 10 -3 6 -8 10 -10 10 -2
0 -7 -4 -10 -10z"/>
<path d="M2975 3860 c3 -5 8 -10 11 -10 2 0 4 5 4 10 0 6 -5 10 -11 10 -5 0
-7 -4 -4 -10z"/>
<path d="M145 3840 c-3 -5 -1 -10 4 -10 6 0 11 5 11 10 0 6 -2 10 -4 10 -3 0
-8 -4 -11 -10z"/>
<path d="M195 3840 c3 -5 10 -10 16 -10 5 0 9 5 9 10 0 6 -7 10 -16 10 -8 0
-12 -4 -9 -10z"/>
<path d="M2345 3840 c-3 -5 -1 -10 4 -10 6 0 11 5 11 10 0 6 -2 10 -4 10 -3 0
-8 -4 -11 -10z"/>
<path d="M108 3833 c7 -3 16 -2 19 1 4 3 -2 6 -13 5 -11 0 -14 -3 -6 -6z"/>
<path d="M728 3833 c-16 -2 -28 -8 -28 -14 0 -5 -18 -20 -41 -34 -34 -22 -39
-29 -28 -41 7 -9 23 -14 36 -11 13 2 26 1 28 -3 3 -4 22 -4 42 1 52 12 53 11
54 -8 0 -10 3 -13 5 -7 8 18 -14 64 -31 64 -8 0 -15 4 -15 9 0 5 -10 12 -22
17 -19 6 -16 8 20 11 23 2 42 8 42 14 0 9 -12 9 -62 2z m33 -70 c10 -11 10
-14 2 -9 -7 4 -13 2 -13 -3 0 -6 -7 -11 -16 -11 -13 0 -14 3 -5 13 6 8 8 17 4
20 -3 4 -2 7 4 7 6 0 17 -8 24 -17z m-94 1 c-3 -3 -12 -4 -19 -1 -8 3 -5 6 6
6 11 1 17 -2 13 -5z"/>
<path d="M1050 3830 c0 -5 7 -7 15 -4 8 4 15 8 15 10 0 2 -7 4 -15 4 -8 0 -15
-4 -15 -10z"/>
<path d="M1311 3824 c0 -11 3 -14 6 -6 3 7 2 16 -1 19 -3 4 -6 -2 -5 -13z"/>
<path d="M1487 3833 c-4 -3 -7 -11 -7 -17 0 -6 5 -5 12 2 6 6 9 14 7 17 -3 3
-9 2 -12 -2z"/>
<path d="M2050 3810 c0 -5 5 -10 10 -10 6 0 10 5 10 10 0 6 -4 10 -10 10 -5 0
-10 -4 -10 -10z"/>
<path d="M1225 3801 c-10 -17 12 -21 25 -6 10 12 10 15 -3 15 -9 0 -18 -4 -22
-9z"/>
<path d="M113 3785 c0 -8 4 -15 9 -15 4 0 8 4 8 9 0 6 -4 12 -8 15 -5 3 -9 -1
-9 -9z"/>
<path d="M1245 3776 c-17 -12 -17 -13 7 -18 21 -4 24 -1 20 14 -5 22 -4 21
-27 4z"/>
<path d="M2463 3780 c-28 -12 -30 -24 -3 -17 11 3 20 1 20 -4 0 -5 8 -9 18 -9
13 0 14 2 3 9 -7 5 -10 14 -7 20 8 13 0 13 -31 1z"/>
<path d="M1465 3760 c3 -5 8 -10 11 -10 2 0 4 5 4 10 0 6 -5 10 -11 10 -5 0
-7 -4 -4 -10z"/>
<path d="M2120 3760 c0 -5 10 -10 23 -10 18 0 19 2 7 10 -19 13 -30 13 -30 0z"/>
<path d="M2275 3760 c-3 -5 -1 -10 4 -10 6 0 11 5 11 10 0 6 -2 10 -4 10 -3 0
-8 -4 -11 -10z"/>
<path d="M1290 3749 c0 -5 5 -7 10 -4 6 3 10 8 10 11 0 2 -4 4 -10 4 -5 0 -10
-5 -10 -11z"/>
<path d="M2530 3749 c0 -5 5 -7 10 -4 6 3 10 8 10 11 0 2 -4 4 -10 4 -5 0 -10
-5 -10 -11z"/>
<path d="M1220 3739 c0 -5 5 -7 10 -4 6 3 10 8 10 11 0 2 -4 4 -10 4 -5 0 -10
-5 -10 -11z"/>
<path d="M2290 3740 c-13 -8 -12 -10 3 -10 9 0 17 5 17 10 0 12 -1 12 -20 0z"/>
<path d="M2115 3730 c-8 -13 15 -13 35 0 12 8 11 10 -7 10 -12 0 -25 -4 -28
-10z"/>
<path d="M1394 3718 c-4 -7 -3 -8 5 -4 6 4 18 2 26 -4 9 -7 15 -8 15 -2 0 5
-7 13 -16 16 -21 8 -22 8 -30 -6z"/>
<path d="M1475 3720 c-3 -5 3 -10 15 -10 12 0 18 5 15 10 -3 6 -10 10 -15 10
-5 0 -12 -4 -15 -10z"/>
<path d="M1308 3713 c7 -3 16 -2 19 1 4 3 -2 6 -13 5 -11 0 -14 -3 -6 -6z"/>
<path d="M2490 3709 c0 -5 5 -7 10 -4 6 3 10 8 10 11 0 2 -4 4 -10 4 -5 0 -10
-5 -10 -11z"/>
<path d="M103 3693 c0 -7 4 -13 9 -13 5 0 6 -4 3 -10 -3 -5 0 -10 8 -10 25 0
26 25 3 36 -18 8 -23 7 -23 -3z"/>
<path d="M990 3700 c0 -5 5 -10 11 -10 5 0 7 5 4 10 -3 6 -8 10 -11 10 -2 0
-4 -4 -4 -10z"/>
<path d="M677 3685 c-4 -8 -2 -17 3 -20 6 -4 10 3 10 14 0 25 -6 27 -13 6z"/>
<path d="M775 3690 c-3 -5 1 -10 9 -10 9 0 16 5 16 10 0 6 -4 10 -9 10 -6 0
-13 -4 -16 -10z"/>
<path d="M0 3685 c0 -2 6 -8 13 -14 10 -8 14 -7 14 2 0 8 -6 14 -14 14 -7 0
-13 -1 -13 -2z"/>
<path d="M710 3681 c0 -6 4 -12 8 -15 5 -3 9 1 9 9 0 8 -4 15 -9 15 -4 0 -8
-4 -8 -9z"/>
<path d="M1456 3675 c4 -8 1 -15 -6 -15 -6 0 -8 -5 -3 -12 4 -7 -5 -5 -20 5
-34 22 -39 22 -35 -5 2 -19 8 -22 33 -20 17 2 32 8 33 13 5 13 49 11 58 -2 4
-8 0 -9 -15 -4 -12 4 -21 2 -21 -4 0 -6 6 -11 13 -11 9 0 8 -3 -2 -9 -7 -5
-22 -6 -32 -4 -10 3 -19 0 -19 -6 0 -6 7 -11 15 -11 8 0 15 -4 15 -10 0 -5 -7
-10 -16 -10 -12 0 -10 -5 9 -20 30 -24 56 -27 33 -4 -24 23 -19 37 9 32 16 -4
25 -1 25 7 0 8 -8 11 -22 8 l-23 -5 23 16 c12 10 22 21 22 26 0 16 -32 41 -46
36 -8 -3 -14 1 -14 9 0 8 -4 15 -10 15 -5 0 -7 -7 -4 -15z"/>
<path d="M2275 3680 c-4 -6 6 -10 22 -10 16 0 34 -5 40 -11 8 -8 13 -8 17 0 4
6 -4 15 -19 21 -33 13 -52 13 -60 0z"/>
<path d="M4460 3680 c-10 -6 -11 -10 -2 -10 6 0 12 -7 12 -15 0 -8 4 -15 9
-15 4 0 6 11 3 25 -2 14 -5 25 -6 25 0 0 -8 -5 -16 -10z"/>
<path d="M586 3666 c3 -7 -2 -16 -10 -19 -9 -4 -16 -11 -16 -16 0 -6 7 -8 15
-5 8 4 15 2 15 -4 0 -6 -6 -13 -12 -15 -9 -4 -7 -6 3 -6 15 -1 49 28 49 42 0
3 -7 4 -15 1 -19 -8 -19 0 1 20 14 15 13 16 -10 16 -17 0 -24 -4 -20 -14z"/>
<path d="M1325 3670 c-3 -5 -1 -10 4 -10 6 0 11 5 11 10 0 6 -2 10 -4 10 -3 0
-8 -4 -11 -10z"/>
<path d="M2010 3660 c0 -11 2 -20 4 -20 2 0 6 9 9 20 3 11 1 20 -4 20 -5 0 -9
-9 -9 -20z"/>
<path d="M2175 3663 c8 -28 -4 -51 -15 -32 -7 10 -38 14 -91 10 -8 -1 -8 -5 1
-16 7 -8 16 -12 21 -9 5 3 9 -4 9 -15 0 -21 11 -27 23 -14 4 3 2 12 -4 19 -14
18 2 23 29 9 23 -12 23 -13 3 -18 -12 -3 -21 -11 -21 -17 0 -7 7 -10 15 -6 9
3 19 -3 25 -14 6 -12 7 -20 1 -20 -5 0 -11 4 -13 9 -5 13 -48 24 -48 12 0 -6
-7 -11 -15 -11 -8 0 -15 -4 -15 -8 0 -9 189 -6 198 3 2 2 1 9 -3 15 -5 8 -11
8 -21 -1 -19 -16 -18 -1 2 18 12 13 18 13 24 4 5 -9 9 -10 14 -2 10 15 -15 39
-34 33 -11 -4 -10 -1 3 12 15 16 18 16 33 2 20 -20 28 -20 20 -1 -3 8 -1 15 5
15 6 0 7 5 3 11 -4 8 -9 7 -16 -2 -7 -11 -11 -11 -15 -1 -6 14 -33 16 -33 2 0
-5 -7 -7 -15 -4 -11 5 -15 -1 -15 -21 0 -23 -2 -26 -15 -15 -8 7 -15 18 -15
24 0 7 -7 21 -16 32 -15 18 -15 18 -9 -3z m45 -103 c0 -5 -4 -10 -10 -10 -5 0
-10 5 -10 10 0 6 5 10 10 10 6 0 10 -4 10 -10z"/>
<path d="M2470 3660 c0 -5 5 -10 11 -10 5 0 7 5 4 10 -3 6 -8 10 -11 10 -2 0
-4 -4 -4 -10z"/>
<path d="M1266 3651 c-3 -4 5 -13 17 -18 17 -8 28 -7 42 3 18 13 16 14 -14 8
-25 -5 -32 -4 -27 4 4 7 3 12 -3 12 -5 0 -12 -4 -15 -9z"/>
<path d="M1830 3650 c-9 -6 -10 -10 -3 -10 6 0 15 5 18 10 8 12 4 12 -15 0z"/>
<path d="M0 3627 c0 -8 7 -17 15 -21 8 -3 15 -2 15 3 0 5 -7 14 -15 21 -12 10
-15 10 -15 -3z"/>
<path d="M1260 3620 c0 -5 5 -10 11 -10 5 0 7 5 4 10 -3 6 -8 10 -11 10 -2 0
-4 -4 -4 -10z"/>
<path d="M2490 3610 c-9 -6 -10 -10 -3 -10 6 0 15 5 18 10 8 12 4 12 -15 0z"/>
<path d="M190 3600 c0 -6 7 -10 15 -10 8 0 15 2 15 4 0 2 -7 6 -15 10 -8 3
-15 1 -15 -4z"/>
<path d="M758 3603 c7 -3 16 -2 19 1 4 3 -2 6 -13 5 -11 0 -14 -3 -6 -6z"/>
<path d="M1395 3599 c-11 -16 -1 -19 13 -3 7 8 8 14 3 14 -5 0 -13 -5 -16 -11z"/>
<path d="M4440 3600 c0 -5 5 -10 11 -10 5 0 7 5 4 10 -3 6 -8 10 -11 10 -2 0
-4 -4 -4 -10z"/>
<path d="M982 3588 c-14 -14 -16 -28 -3 -28 5 0 11 9 14 20 6 23 5 24 -11 8z"/>
<path d="M2075 3580 c3 -5 8 -10 11 -10 2 0 4 5 4 10 0 6 -5 10 -11 10 -5 0
-7 -4 -4 -10z"/>
<path d="M550 3570 c0 -12 17 -12 45 0 17 7 15 9 -12 9 -18 1 -33 -3 -33 -9z"/>
<path d="M694 3566 c-10 -8 -17 -17 -14 -19 3 -3 16 3 29 14 27 22 15 26 -15
5z"/>
<path d="M3565 3570 c-8 -13 5 -13 25 0 13 8 13 10 -2 10 -9 0 -20 -4 -23 -10z"/>
<path d="M15 3560 c-3 -5 -1 -10 4 -10 6 0 11 5 11 10 0 6 -2 10 -4 10 -3 0
-8 -4 -11 -10z"/>
<path d="M150 3560 c0 -5 5 -10 10 -10 6 0 10 5 10 10 0 6 -4 10 -10 10 -5 0
-10 -4 -10 -10z"/>
<path d="M2293 3553 c-3 -10 -8 -21 -10 -25 -2 -4 3 -5 11 -2 9 3 13 11 10 16
-4 6 0 14 7 19 11 7 11 9 1 9 -7 0 -15 -8 -19 -17z"/>
<path d="M3368 3563 c7 -3 16 -2 19 1 4 3 -2 6 -13 5 -11 0 -14 -3 -6 -6z"/>
<path d="M563 3544 c-21 -15 -6 -17 37 -5 25 7 25 7 3 13 -12 3 -30 0 -40 -8z"/>
<path d="M2332 3548 c-6 -8 -9 -18 -5 -21 3 -4 -1 -7 -10 -7 -9 0 -17 -4 -17
-10 0 -5 4 -10 8 -10 14 0 44 38 40 51 -3 8 -7 7 -16 -3z"/>
<path d="M2420 3550 c0 -5 5 -10 10 -10 6 0 10 5 10 10 0 6 -4 10 -10 10 -5 0
-10 -4 -10 -10z"/>
<path d="M5093 3543 c9 -2 25 -2 35 0 9 3 1 5 -18 5 -19 0 -27 -2 -17 -5z"/>
<path d="M120 3510 c-8 -5 -11 -12 -7 -16 4 -4 15 0 24 9 18 18 8 23 -17 7z"/>
<path d="M168 3513 c7 -3 16 -2 19 1 4 3 -2 6 -13 5 -11 0 -14 -3 -6 -6z"/>
<path d="M552 3508 c3 -7 13 -15 23 -16 10 -2 15 0 11 6 -3 6 0 13 6 15 7 3 0
6 -15 6 -19 1 -27 -3 -25 -11z"/>
<path d="M797 3478 c-4 -15 -2 -17 8 -8 7 6 20 8 29 4 9 -3 16 -2 16 4 0 5
-11 12 -24 14 -18 4 -26 0 -29 -14z"/>
<path d="M3170 3489 c0 -5 5 -7 10 -4 6 3 10 8 10 11 0 2 -4 4 -10 4 -5 0 -10
-5 -10 -11z"/>
<path d="M2240 3477 c0 -10 8 -17 18 -17 9 0 13 4 7 8 -5 4 -13 11 -17 16 -5
5 -8 2 -8 -7z"/>
<path d="M2278 3483 c7 -3 16 -2 19 1 4 3 -2 6 -13 5 -11 0 -14 -3 -6 -6z"/>
<path d="M1460 3469 c0 -5 5 -7 10 -4 6 3 10 8 10 11 0 2 -4 4 -10 4 -5 0 -10
-5 -10 -11z"/>
<path d="M13 3455 c-6 -7 -11 -34 -10 -62 0 -44 3 -50 19 -45 10 2 18 11 18
19 0 10 7 12 23 8 l22 -6 -21 18 c-12 10 -21 27 -20 39 3 27 -16 45 -31 29z"/>
<path d="M123 3456 c5 -14 3 -17 -8 -12 -9 3 -15 0 -15 -9 0 -18 10 -19 31 -2
15 11 15 14 1 27 -14 13 -15 12 -9 -4z"/>
<path d="M928 3463 c7 -3 16 -2 19 1 4 3 -2 6 -13 5 -11 0 -14 -3 -6 -6z"/>
<path d="M218 3443 c7 -3 16 -2 19 1 4 3 -2 6 -13 5 -11 0 -14 -3 -6 -6z"/>
<path d="M1405 3421 c3 -11 1 -22 -5 -26 -18 -11 -11 -21 16 -23 24 -2 25 0
13 15 -12 15 -12 16 3 10 12 -4 15 -2 11 8 -3 8 -9 12 -14 9 -5 -3 -9 2 -9 10
0 9 -5 16 -11 16 -6 0 -8 -8 -4 -19z"/>
<path d="M150 3426 c0 -2 7 -7 16 -10 8 -3 12 -2 9 4 -6 10 -25 14 -25 6z"/>
<path d="M4418 3423 c6 -2 18 -2 25 0 6 3 1 5 -13 5 -14 0 -19 -2 -12 -5z"/>
<path d="M590 3404 c0 -8 5 -12 10 -9 6 4 8 11 5 16 -9 14 -15 11 -15 -7z"/>
<path d="M5357 3413 c-4 -3 -7 -11 -7 -17 0 -6 5 -5 12 2 6 6 9 14 7 17 -3 3
-9 2 -12 -2z"/>
<path d="M99 3400 c-13 -8 1 -50 17 -50 8 0 14 9 14 20 0 11 7 20 15 20 8 0
15 4 15 9 0 9 -46 10 -61 1z"/>
<path d="M625 3400 c3 -5 8 -10 11 -10 2 0 4 5 4 10 0 6 -5 10 -11 10 -5 0 -7
-4 -4 -10z"/>
<path d="M1290 3389 c0 -5 5 -7 10 -4 6 3 10 8 10 11 0 2 -4 4 -10 4 -5 0 -10
-5 -10 -11z"/>
<path d="M725 3370 c-3 -5 -1 -10 4 -10 6 0 11 5 11 10 0 6 -2 10 -4 10 -3 0
-8 -4 -11 -10z"/>
<path d="M1443 3365 c-12 -9 -28 -14 -34 -13 -7 2 -15 -5 -17 -14 -4 -21 34
-26 41 -5 3 9 7 9 20 -2 15 -12 17 -10 17 15 0 22 3 25 12 16 18 -18 48 -15
47 6 0 9 -3 12 -5 5 -4 -9 -13 -9 -30 -2 -31 11 -26 12 -51 -6z"/>
<path d="M2228 3373 c7 -3 16 -2 19 1 4 3 -2 6 -13 5 -11 0 -14 -3 -6 -6z"/>
<path d="M2297 3374 c7 -3 10 -16 7 -33 -4 -18 0 -32 10 -40 10 -9 16 -9 16
-3 0 6 7 9 15 6 11 -5 15 2 15 26 0 21 -4 30 -12 28 -7 -3 -19 1 -26 9 -7 7
-19 13 -25 12 -9 0 -9 -2 0 -5z"/>
<path d="M2425 3370 c3 -5 8 -10 11 -10 2 0 4 5 4 10 0 6 -5 10 -11 10 -5 0
-7 -4 -4 -10z"/>
<path d="M850 3350 c0 -5 5 -10 11 -10 5 0 7 5 4 10 -3 6 -8 10 -11 10 -2 0
-4 -4 -4 -10z"/>
<path d="M2241 3328 c11 -20 36 -34 45 -25 11 11 -14 41 -34 42 -17 1 -19 -2
-11 -17z"/>
<path d="M810 3336 c0 -2 7 -9 15 -16 12 -10 15 -10 15 4 0 9 -7 16 -15 16 -8
0 -15 -2 -15 -4z"/>
<path d="M1750 3311 c0 -6 4 -13 10 -16 6 -3 7 1 4 9 -7 18 -14 21 -14 7z"/>
<path d="M2205 3310 c-4 -6 3 -10 14 -10 25 0 27 6 6 13 -8 4 -17 2 -20 -3z"/>
<path d="M506 3291 c-6 -9 35 -24 43 -15 6 5 -18 24 -31 24 -4 0 -9 -4 -12 -9z"/>
<path d="M2445 3290 c-3 -5 -2 -10 4 -10 5 0 13 5 16 10 3 6 2 10 -4 10 -5 0
-13 -4 -16 -10z"/>
<path d="M2525 3290 c3 -5 10 -10 16 -10 5 0 9 5 9 10 0 6 -7 10 -16 10 -8 0
-12 -4 -9 -10z"/>
<path d="M120 3282 c8 -3 18 -10 22 -15 4 -7 12 -5 21 4 13 13 10 15 -22 16
-20 0 -29 -2 -21 -5z"/>
<path d="M835 3280 c-3 -5 -2 -10 4 -10 5 0 13 5 16 10 3 6 2 10 -4 10 -5 0
-13 -4 -16 -10z"/>
<path d="M2190 3264 c0 -8 5 -12 10 -9 6 4 8 11 5 16 -9 14 -15 11 -15 -7z"/>
<path d="M2227 3273 c-4 -3 -7 -11 -7 -17 0 -6 5 -5 12 2 6 6 9 14 7 17 -3 3
-9 2 -12 -2z"/>
<path d="M2270 3265 c-7 -9 -8 -15 -2 -15 5 0 12 7 16 15 3 8 4 15 2 15 -2 0
-9 -7 -16 -15z"/>
<path d="M2415 3260 c-3 -5 -2 -10 4 -10 5 0 13 5 16 10 3 6 2 10 -4 10 -5 0
-13 -4 -16 -10z"/>
<path d="M2471 3261 c-7 -5 -11 -13 -7 -19 3 -6 -1 -8 -12 -6 -12 4 -21 -4
-29 -27 -7 -18 -11 -34 -9 -36 1 -2 17 2 34 8 20 7 29 15 25 22 -4 7 0 6 10
-1 17 -15 87 -24 87 -12 0 4 -20 13 -45 19 -41 10 -45 14 -39 36 7 27 5 29
-15 16z"/>
<path d="M745 3250 c3 -5 8 -10 11 -10 2 0 4 5 4 10 0 6 -5 10 -11 10 -5 0 -7
-4 -4 -10z"/>
<path d="M798 3253 c7 -3 16 -2 19 1 4 3 -2 6 -13 5 -11 0 -14 -3 -6 -6z"/>
<path d="M862 3245 c-11 -12 -10 -15 3 -15 8 0 15 7 15 15 0 18 -2 18 -18 0z"/>
<path d="M2514 3238 c0 -21 9 -22 37 -8 11 6 19 7 19 1 0 -5 7 -11 15 -15 12
-4 13 -2 5 13 -13 26 -76 33 -76 9z"/>
<path d="M170 3242 c0 -5 8 -19 19 -30 21 -25 51 -27 101 -6 37 15 34 15 -50
-2 -20 -5 -29 0 -40 20 -13 25 -30 35 -30 18z"/>
<path d="M635 3230 c-3 -5 -1 -10 4 -10 6 0 11 5 11 10 0 6 -2 10 -4 10 -3 0
-8 -4 -11 -10z"/>
<path d="M2628 3220 c-14 -16 -14 -19 -2 -24 9 -3 12 -2 9 5 -4 6 2 13 14 16
11 3 18 9 15 14 -8 13 -17 10 -36 -11z"/>
<path d="M1538 3223 c-16 -2 -28 -11 -28 -18 0 -9 -6 -12 -17 -8 -15 5 -14 3
2 -10 17 -14 18 -16 3 -17 -9 0 -20 5 -23 10 -3 6 -11 10 -18 10 -23 0 29 -29
53 -30 19 0 21 -3 11 -9 -10 -6 3 -11 42 -16 31 -4 54 -11 51 -16 -3 -5 16 -9
43 -9 35 0 44 3 33 10 -12 8 -12 10 5 11 12 1 5 6 -20 15 l-40 14 38 -5 c26
-4 37 -2 37 7 0 18 -20 47 -20 31 0 -7 -6 -13 -14 -13 -8 0 -17 6 -20 13 -5
10 -7 10 -12 0 -3 -7 -21 -13 -40 -13 -19 0 -34 -5 -34 -11 0 -8 -7 -7 -21 2
-26 18 -25 34 3 34 12 0 23 6 26 13 2 6 0 11 -5 11 -4 -1 -20 -4 -35 -6z"/>
<path d="M805 3210 c-22 -4 -34 -8 -27 -9 7 0 11 -5 8 -10 -3 -4 -18 -6 -33
-4 -27 4 -27 4 -9 -11 20 -16 34 -16 75 1 19 8 28 6 43 -9 20 -20 34 -23 43
-8 3 6 -1 10 -10 10 -12 0 -14 4 -5 19 5 11 10 21 10 23 0 6 -55 5 -95 -2z"/>
<path d="M1270 3210 c0 -5 7 -10 15 -10 8 0 15 5 15 10 0 6 -7 10 -15 10 -8 0
-15 -4 -15 -10z"/>
<path d="M2250 3212 c-33 -15 -8 -55 28 -46 25 7 29 19 8 27 -9 4 -17 -1 -20
-11 -3 -9 -4 -5 -2 11 2 15 3 27 2 26 0 0 -8 -3 -16 -7z"/>
<path d="M2330 3196 c0 -2 7 -7 16 -10 8 -3 12 -2 9 4 -6 10 -25 14 -25 6z"/>
<path d="M4400 3182 c0 -5 16 -8 35 -8 46 1 46 16 0 16 -19 0 -35 -4 -35 -8z"/>
<path d="M535 3170 c-3 -5 1 -10 10 -10 9 0 13 5 10 10 -3 6 -8 10 -10 10 -2
0 -7 -4 -10 -10z"/>
<path d="M1750 3170 c0 -5 7 -7 15 -4 8 4 15 8 15 10 0 2 -7 4 -15 4 -8 0 -15
-4 -15 -10z"/>
<path d="M2028 3168 c-16 -5 -28 -13 -28 -18 0 -4 -9 -10 -21 -13 -12 -3 -18
-10 -15 -15 3 -6 0 -13 -6 -16 -7 -4 -2 -4 12 -1 14 2 48 5 75 6 34 0 44 3 31
8 -18 7 -18 8 -3 14 9 3 17 16 17 27 0 22 -18 25 -62 8z m32 -22 c0 -3 -4 -8
-10 -11 -5 -3 -10 -1 -10 4 0 6 5 11 10 11 6 0 10 -2 10 -4z"/>
<path d="M1790 3161 c0 -8 34 -21 55 -21 11 1 -35 29 -47 30 -5 0 -8 -4 -8 -9z"/>
<path d="M2325 3160 c-3 -5 -15 -10 -26 -10 -10 0 -19 -4 -19 -9 0 -4 18 -3
39 2 22 6 38 14 35 19 -7 11 -22 10 -29 -2z"/>
<path d="M2448 3162 c-16 -2 -28 -7 -28 -11 0 -9 87 2 97 12 6 7 -3 6 -69 -1z"/>
<path d="M2543 3154 c-16 -16 -17 -44 -2 -44 5 0 8 4 5 9 -4 5 -1 11 5 13 6 2
10 11 8 20 -3 13 -6 14 -16 2z"/>
<path d="M2601 3161 c-7 -5 -11 -13 -7 -19 3 -6 -2 -15 -11 -21 -15 -8 -13
-10 12 -9 27 1 31 4 30 29 0 31 -3 33 -24 20z"/>
<path d="M2683 3136 c-4 -8 -17 -16 -28 -19 -11 -2 -1 -5 23 -6 36 -1 42 2 42
19 0 23 -25 27 -37 6z"/>
<path d="M823 3126 c2 -6 21 -11 43 -12 21 0 33 1 26 3 -6 3 -10 8 -8 11 2 4
-11 7 -30 8 -20 0 -33 -4 -31 -10z"/>
<path d="M1740 3131 c0 -6 4 -13 10 -16 6 -3 7 1 4 9 -7 18 -14 21 -14 7z"/>
<path d="M2250 3130 c0 -5 5 -10 10 -10 6 0 10 5 10 10 0 6 -4 10 -10 10 -5 0
-10 -4 -10 -10z"/>
<path d="M2495 3130 c-3 -5 1 -10 10 -10 9 0 13 5 10 10 -3 6 -8 10 -10 10 -2
0 -7 -4 -10 -10z"/>
<path d="M4435 3130 c3 -5 11 -10 16 -10 6 0 7 5 4 10 -3 6 -11 10 -16 10 -6
0 -7 -4 -4 -10z"/>
<path d="M765 3120 c3 -5 12 -7 20 -3 21 7 19 13 -6 13 -11 0 -18 -4 -14 -10z"/>
<path d="M1440 3113 c0 -10 4 -14 8 -8 4 6 11 13 16 18 5 4 2 7 -7 7 -10 0
-17 -8 -17 -17z"/>
<path d="M2433 3119 c11 -7 23 -7 35 0 14 9 11 10 -18 10 -29 0 -32 -1 -17
-10z"/>
<path d="M5440 3069 c0 -5 5 -7 10 -4 6 3 10 8 10 11 0 2 -4 4 -10 4 -5 0 -10
-5 -10 -11z"/>
<path d="M5436 3017 c4 -14 3 -17 -6 -12 -7 4 -17 1 -22 -6 -5 -8 -11 -10 -14
-4 -14 33 -22 37 -40 25 -18 -11 -18 -11 1 -6 14 4 10 -2 -13 -21 -35 -30 -45
-68 -14 -59 57 17 75 19 67 6 -10 -17 66 -4 77 13 6 9 10 8 17 -2 7 -10 21
-12 58 -7 26 3 50 11 51 16 2 6 8 8 13 4 15 -9 10 46 -6 62 -8 9 -15 11 -15 5
0 -19 -52 -26 -65 -8 -7 11 -16 13 -26 6 -12 -7 -12 -9 1 -9 12 -1 11 -3 -3
-11 -19 -11 -37 -4 -37 15 0 7 -7 13 -15 13 -11 0 -13 -6 -9 -20z"/>
<path d="M5240 2940 c-9 -6 -10 -10 -3 -10 6 0 15 5 18 10 8 12 4 12 -15 0z"/>
<path d="M5465 2930 c-3 -5 1 -10 9 -10 9 0 16 5 16 10 0 6 -4 10 -9 10 -6 0
-13 -4 -16 -10z"/>
<path d="M5255 2923 c-11 -3 -36 -12 -55 -20 -94 -41 -93 -40 -73 -45 26 -6
187 25 177 35 -5 4 -1 5 9 1 27 -10 20 12 -8 24 -14 7 -27 11 -28 11 -1 -1
-11 -3 -22 -6z m-10 -24 c-8 -12 -56 -32 -62 -25 -5 5 46 35 60 36 5 0 5 -5 2
-11z"/>
<path d="M5036 2908 c7 -11 32 -10 39 2 3 6 -4 9 -19 8 -13 -1 -22 -6 -20 -10z"/>
<path d="M8 2898 c5 -5 16 -8 23 -6 8 3 3 7 -10 11 -17 4 -21 3 -13 -5z"/>
<path d="M1325 2890 c3 -5 -3 -10 -14 -10 -12 0 -21 -4 -21 -10 0 -16 16 -12
41 10 21 17 22 19 6 20 -10 0 -15 -4 -12 -10z"/>
<path d="M5358 2893 c7 -3 16 -2 19 1 4 3 -2 6 -13 5 -11 0 -14 -3 -6 -6z"/>
<path d="M1255 2868 c-11 -7 -36 -15 -55 -19 l-35 -7 41 -1 c29 -1 46 5 59 19
21 23 19 24 -10 8z"/>
<path d="M5051 2866 c-10 -12 -8 -13 8 -9 12 3 18 9 15 14 -7 12 -10 11 -23
-5z"/>
<path d="M1663 2856 c18 -14 53 -11 63 5 3 5 -14 9 -38 9 -38 -1 -41 -2 -25
-14z"/>
<path d="M1068 2837 c-42 -12 -48 -22 -17 -30 12 -3 22 0 26 9 6 16 43 19 43
4 0 -5 -5 -10 -12 -10 -6 0 -9 -2 -7 -5 3 -2 14 -2 26 1 14 4 19 11 16 25 -6
21 -19 22 -75 6z"/>
<path d="M678 2833 c7 -3 16 -2 19 1 4 3 -2 6 -13 5 -11 0 -14 -3 -6 -6z"/>
<path d="M1630 2830 c0 -5 4 -10 9 -10 6 0 13 5 16 10 3 6 -1 10 -9 10 -9 0
-16 -4 -16 -10z"/>
<path d="M4436 2825 c25 -19 35 -19 28 0 -4 8 -16 15 -27 15 -20 0 -20 0 -1
-15z"/>
<path d="M5098 2833 c7 -3 16 -2 19 1 4 3 -2 6 -13 5 -11 0 -14 -3 -6 -6z"/>
<path d="M4970 2779 c0 -5 5 -7 10 -4 6 3 10 8 10 11 0 2 -4 4 -10 4 -5 0 -10
-5 -10 -11z"/>
<path d="M3900 2730 c0 -5 -12 -10 -26 -10 -14 0 -23 -4 -19 -9 3 -6 17 -6 34
-1 16 4 32 6 35 2 3 -3 6 2 6 11 0 10 -7 17 -15 17 -8 0 -15 -4 -15 -10z"/>
<path d="M298 2686 c-17 -20 -18 -20 -31 -3 -8 9 -24 17 -36 17 -25 0 -28 -17
-3 -23 16 -4 16 -4 -1 -12 -12 -5 -24 -2 -36 9 -21 19 -27 13 -35 -27 -4 -23
-1 -27 27 -32 18 -4 58 -2 89 3 47 7 60 6 72 -7 15 -14 16 -11 15 24 0 22 -4
49 -8 59 -7 19 -8 19 -15 0 -7 -17 -9 -17 -15 -3 -5 15 -8 14 -23 -5z m11 -37
c-8 -5 -21 -9 -29 -9 -12 1 -11 4 4 15 10 8 23 12 29 8 5 -3 3 -9 -4 -14z"/>
<path d="M838 2693 c-10 -2 -15 -10 -11 -19 3 -9 -1 -14 -12 -14 -9 0 -22 -6
-28 -12 -11 -12 -12 -21 -8 -52 0 -5 10 -1 20 8 15 14 24 15 40 6 17 -9 21 -8
21 5 0 8 -6 15 -12 15 -7 0 -5 5 5 11 9 5 17 21 17 34 0 25 -2 26 -32 18z"/>
<path d="M5440 2609 c0 -5 5 -7 10 -4 6 3 10 8 10 11 0 2 -4 4 -10 4 -5 0 -10
-5 -10 -11z"/>
<path d="M5395 2590 c3 -5 8 -10 11 -10 2 0 4 5 4 10 0 6 -5 10 -11 10 -5 0
-7 -4 -4 -10z"/>
<path d="M2165 2580 c-3 -5 -2 -10 4 -10 5 0 13 5 16 10 3 6 2 10 -4 10 -5 0
-13 -4 -16 -10z"/>
<path d="M654 2572 c16 -7 17 -9 4 -14 -8 -4 -18 -15 -20 -26 -4 -15 -1 -19
16 -18 11 1 20 7 19 14 -2 6 4 9 13 5 12 -4 15 0 12 18 -2 19 -10 25 -33 26
-23 2 -26 1 -11 -5z"/>
<path d="M5335 2555 c-8 -12 -36 -15 -127 -17 -65 -1 -124 -6 -130 -11 -9 -6
-8 -7 4 -3 10 3 20 1 22 -3 3 -5 27 -6 53 -4 27 3 62 4 78 3 80 -4 80 -4 80
-30 0 -16 7 -26 19 -28 11 -3 16 0 12 7 -4 6 -3 11 2 11 6 0 8 9 5 20 -3 11
-10 20 -17 20 -6 0 -5 4 3 9 15 10 24 41 13 41 -4 0 -12 -7 -17 -15z"/>
<path d="M5390 2515 c0 -41 4 -57 15 -62 22 -8 27 0 29 44 1 33 -20 73 -39 73
-3 0 -5 -25 -5 -55z"/>
<path d="M4880 2539 c0 -5 9 -9 20 -9 11 0 20 2 20 4 0 2 -9 6 -20 9 -11 3
-20 1 -20 -4z"/>
<path d="M4970 2540 c-20 -6 -14 -8 25 -8 37 -1 45 2 30 8 -24 10 -23 10 -55
0z"/>
<path d="M5483 2523 c9 -2 23 -2 30 0 6 3 -1 5 -18 5 -16 0 -22 -2 -12 -5z"/>
<path d="M5538 2523 c6 -2 18 -2 25 0 6 3 1 5 -13 5 -14 0 -19 -2 -12 -5z"/>
<path d="M4420 2500 c0 -5 5 -10 10 -10 6 0 10 5 10 10 0 6 -4 10 -10 10 -5 0
-10 -4 -10 -10z"/>
<path d="M4388 2483 c7 -3 16 -2 19 1 4 3 -2 6 -13 5 -11 0 -14 -3 -6 -6z"/>
<path d="M990 2451 c0 -6 4 -12 8 -15 5 -3 9 1 9 9 0 8 -4 15 -9 15 -4 0 -8
-4 -8 -9z"/>
<path d="M1865 2440 c-3 -5 -2 -10 4 -10 5 0 13 5 16 10 3 6 2 10 -4 10 -5 0
-13 -4 -16 -10z"/>
<path d="M838 2433 c6 -2 18 -2 25 0 6 3 1 5 -13 5 -14 0 -19 -2 -12 -5z"/>
<path d="M1066 2431 c-5 -8 -3 -16 4 -21 16 -10 51 0 44 12 -3 5 -12 7 -19 4
-8 -3 -15 0 -18 7 -2 8 -6 7 -11 -2z"/>
<path d="M1238 2423 c-23 -11 -26 -17 -19 -36 5 -12 14 -21 20 -19 6 1 11 -2
11 -6 0 -4 9 -8 19 -8 15 0 19 7 18 26 -1 14 -9 28 -17 32 -12 5 -12 7 3 7 9
1 17 5 17 9 0 12 -21 10 -52 -5z"/>
<path d="M1344 2418 c3 -13 5 -24 5 -26 1 -2 8 4 17 12 8 9 22 16 30 16 8 0
14 5 14 10 0 14 -37 12 -43 -2 -4 -10 -6 -10 -6 0 -1 6 -5 12 -11 12 -5 0 -8
-10 -6 -22z"/>
<path d="M1490 2429 c0 -5 5 -7 10 -4 6 3 10 8 10 11 0 2 -4 4 -10 4 -5 0 -10
-5 -10 -11z"/>
<path d="M950 2420 c0 -5 15 -10 33 -9 27 0 29 2 12 9 -28 12 -45 12 -45 0z"/>
<path d="M1615 2420 c3 -5 8 -10 11 -10 2 0 4 5 4 10 0 6 -5 10 -11 10 -5 0
-7 -4 -4 -10z"/>
<path d="M5398 2423 c7 -3 16 -2 19 1 4 3 -2 6 -13 5 -11 0 -14 -3 -6 -6z"/>
<path d="M1037 2404 c-4 -4 2 -14 13 -21 11 -8 18 -18 15 -23 -3 -5 8 -8 25
-7 36 2 42 32 8 40 -13 2 -30 7 -39 11 -8 4 -18 4 -22 0z"/>
<path d="M4815 2391 c-9 -16 9 -20 23 -5 10 12 10 14 -2 14 -8 0 -17 -4 -21
-9z"/>
<path d="M4870 2389 c0 -5 5 -7 10 -4 6 3 10 8 10 11 0 2 -4 4 -10 4 -5 0 -10
-5 -10 -11z"/>
<path d="M663 2370 c-13 -5 -23 -15 -23 -22 0 -23 16 -39 32 -33 12 5 15 0 13
-19 -2 -15 0 -24 4 -21 11 6 12 75 2 75 -5 0 -12 -6 -14 -12 -4 -10 -6 -9 -6
1 -1 8 7 20 17 27 19 15 8 17 -25 4z"/>
<path d="M332 2358 c5 -15 28 -23 28 -10 0 5 -7 13 -16 16 -10 4 -14 1 -12 -6z"/>
<path d="M164 2340 c0 -11 6 -20 13 -20 7 0 13 4 13 10 0 5 7 7 16 3 12 -4 15
-2 12 8 -2 8 -16 15 -29 17 -19 2 -25 -2 -25 -18z"/>
<path d="M410 2340 c0 -11 4 -20 8 -20 4 0 8 9 9 20 1 11 -2 20 -8 20 -5 0 -9
-9 -9 -20z"/>
<path d="M1340 2356 c0 -10 28 -13 41 -5 10 6 7 9 -13 9 -16 0 -28 -2 -28 -4z"/>
<path d="M2466 2351 c-4 -7 -5 -15 -2 -18 9 -9 19 4 14 18 -4 11 -6 11 -12 0z"/>
<path d="M530 2340 c0 -5 5 -10 10 -10 6 0 10 5 10 10 0 6 -4 10 -10 10 -5 0
-10 -4 -10 -10z"/>
<path d="M300 2321 c0 -12 5 -21 10 -21 6 0 10 5 10 11 0 8 4 8 14 0 10 -9 16
-8 26 4 10 13 9 15 -8 15 -11 0 -27 3 -36 6 -12 4 -16 0 -16 -15z"/>
<path d="M2454 2295 c-26 -29 -22 -35 23 -35 37 0 37 -1 23 34 -12 32 -19 32
-46 1z"/>
<path d="M3576 2296 c3 -8 12 -12 20 -9 17 6 9 23 -11 23 -8 0 -12 -6 -9 -14z"/>
<path d="M4425 2290 c3 -5 8 -10 11 -10 2 0 4 5 4 10 0 6 -5 10 -11 10 -5 0
-7 -4 -4 -10z"/>
<path d="M440 2280 c0 -5 5 -10 10 -10 6 0 10 5 10 10 0 6 -4 10 -10 10 -5 0
-10 -4 -10 -10z"/>
<path d="M786 2238 c3 -4 9 -8 15 -8 5 0 9 4 9 8 0 5 -7 9 -15 9 -8 0 -12 -4
-9 -9z"/>
<path d="M2690 2240 c0 -5 7 -7 15 -4 8 4 15 8 15 10 0 2 -7 4 -15 4 -8 0 -15
-4 -15 -10z"/>
<path d="M5438 2233 c7 -3 16 -2 19 1 4 3 -2 6 -13 5 -11 0 -14 -3 -6 -6z"/>
<path d="M5410 2207 c0 -12 49 -43 55 -35 1 2 7 12 13 24 10 19 8 21 -29 22
-27 1 -39 -2 -39 -11z"/>
<path d="M5553 2213 c-14 -5 -18 -23 -5 -23 5 0 17 7 28 15 14 11 15 14 4 14
-8 0 -21 -3 -27 -6z"/>
<path d="M2560 2199 c0 -5 5 -7 10 -4 6 3 10 8 10 11 0 2 -4 4 -10 4 -5 0 -10
-5 -10 -11z"/>
<path d="M2810 2180 c0 -5 5 -10 10 -10 6 0 10 5 10 10 0 6 -4 10 -10 10 -5 0
-10 -4 -10 -10z"/>
<path d="M5377 2175 c6 -17 25 -15 31 3 2 7 -5 12 -17 12 -14 0 -19 -5 -14
-15z"/>
<path d="M5480 2175 c0 -8 4 -15 9 -15 5 0 14 7 21 15 10 13 9 15 -9 15 -12 0
-21 -6 -21 -15z"/>
<path d="M2678 2173 c7 -3 16 -2 19 1 4 3 -2 6 -13 5 -11 0 -14 -3 -6 -6z"/>
<path d="M1640 2160 c0 -5 5 -10 10 -10 6 0 10 5 10 10 0 6 -4 10 -10 10 -5 0
-10 -4 -10 -10z"/>
<path d="M3405 2160 c-8 -13 15 -13 35 0 12 8 11 10 -7 10 -12 0 -25 -4 -28
-10z"/>
<path d="M5150 2150 c0 -5 4 -10 9 -10 6 0 13 5 16 10 3 6 -1 10 -9 10 -9 0
-16 -4 -16 -10z"/>
<path d="M5177 2133 c-14 -14 -21 -15 -36 -6 -18 12 -31 8 -31 -9 0 -4 3 -7 8
-6 4 0 16 -3 26 -7 13 -6 21 -4 24 3 3 9 16 11 40 7 25 -5 33 -3 23 3 -7 5
-10 15 -7 21 4 6 2 11 -3 11 -6 0 -11 -8 -12 -17 0 -17 -1 -17 -7 0 -7 16 -8
16 -25 0z"/>
<path d="M4980 2112 c0 -11 7 -22 15 -26 8 -3 15 -1 15 5 0 6 -7 17 -15 25
-13 14 -15 13 -15 -4z"/>
<path d="M5578 2083 c7 -3 16 -2 19 1 4 3 -2 6 -13 5 -11 0 -14 -3 -6 -6z"/>
<path d="M5002 2071 c-10 -6 -9 -10 7 -14 14 -3 21 0 21 9 0 16 -9 18 -28 5z"/>
<path d="M5175 2070 c-3 -5 -1 -10 4 -10 6 0 11 5 11 10 0 6 -2 10 -4 10 -3 0
-8 -4 -11 -10z"/>
<path d="M5568 2053 c7 -3 16 -2 19 1 4 3 -2 6 -13 5 -11 0 -14 -3 -6 -6z"/>
<path d="M4988 1983 c7 -3 16 -2 19 1 4 3 -2 6 -13 5 -11 0 -14 -3 -6 -6z"/>
<path d="M4980 1956 c0 -2 14 -6 30 -8 17 -3 30 -1 30 4 0 4 -13 8 -30 8 -16
0 -30 -2 -30 -4z"/>
<path d="M5419 1931 c-19 -20 -20 -23 -6 -18 10 4 23 7 28 7 6 0 7 5 3 12 -4
6 -3 8 4 5 5 -4 21 -3 33 2 22 8 22 8 -8 13 -23 3 -36 -2 -54 -21z"/>
<path d="M2527 1933 c-12 -11 -8 -23 8 -23 8 0 15 7 15 15 0 16 -12 20 -23 8z"/>
<path d="M4405 1910 c-3 -5 1 -10 9 -10 9 0 16 5 16 10 0 6 -4 10 -9 10 -6 0
-13 -4 -16 -10z"/>
<path d="M5130 1906 c0 -2 7 -6 15 -10 8 -3 15 -1 15 4 0 6 -7 10 -15 10 -8 0
-15 -2 -15 -4z"/>
<path d="M3180 1820 c0 -5 5 -10 10 -10 6 0 10 5 10 10 0 6 -4 10 -10 10 -5 0
-10 -4 -10 -10z"/>
<path d="M5120 1800 c0 -5 5 -10 10 -10 6 0 10 5 10 10 0 6 -4 10 -10 10 -5 0
-10 -4 -10 -10z"/>
<path d="M5400 1800 c0 -5 5 -10 10 -10 6 0 10 5 10 10 0 6 -4 10 -10 10 -5 0
-10 -4 -10 -10z"/>
<path d="M2010 1740 c-8 -5 -26 -7 -40 -4 -19 4 -17 1 9 -11 52 -24 94 -17 70
12 -13 15 -19 16 -39 3z"/>
<path d="M2791 1736 c-1 -15 4 -17 26 -11 33 8 39 12 29 22 -4 4 -15 2 -26 -5
-14 -9 -20 -9 -23 1 -3 7 -6 4 -6 -7z"/>
<path d="M2090 1725 c5 -6 7 -15 3 -18 -3 -4 -2 -7 4 -7 6 0 16 6 22 14 9 11
6 15 -14 18 -19 4 -23 2 -15 -7z"/>
<path d="M2220 1725 c-1 -5 -3 -16 -4 -23 0 -7 -7 -16 -14 -21 -10 -6 -9 -9 7
-14 23 -6 30 9 20 43 -4 14 -8 21 -9 15z"/>
<path d="M2060 1705 c-8 -9 -8 -15 -2 -15 12 0 26 19 19 26 -2 2 -10 -2 -17
-11z"/>
<path d="M4400 1710 c0 -5 5 -10 11 -10 5 0 7 5 4 10 -3 6 -8 10 -11 10 -2 0
-4 -4 -4 -10z"/>
<path d="M2835 1700 c-3 -5 1 -10 9 -10 8 0 18 5 21 10 3 6 -1 10 -9 10 -8 0
-18 -4 -21 -10z"/>
<path d="M4336 1701 c-8 -13 22 -34 39 -27 8 3 15 11 15 19 0 14 -46 21 -54 8z"/>
<path d="M2265 1680 c-3 -5 -2 -10 4 -10 5 0 13 5 16 10 3 6 2 10 -4 10 -5 0
-13 -4 -16 -10z"/>
<path d="M2335 1680 c-3 -5 1 -10 9 -10 9 0 16 5 16 10 0 6 -4 10 -9 10 -6 0
-13 -4 -16 -10z"/>
<path d="M2400 1680 c0 -5 5 -10 10 -10 6 0 10 5 10 10 0 6 -4 10 -10 10 -5 0
-10 -4 -10 -10z"/>
<path d="M2471 1680 c9 -5 28 -6 45 0 27 8 26 8 -16 9 -32 0 -40 -2 -29 -9z"/>
<path d="M2100 1669 c0 -5 5 -7 10 -4 6 3 10 8 10 11 0 2 -4 4 -10 4 -5 0 -10
-5 -10 -11z"/>
<path d="M5050 1619 c0 -5 -5 -7 -12 -3 -7 4 -8 3 -4 -4 4 -6 13 -9 21 -5 17
6 20 23 5 23 -5 0 -10 -5 -10 -11z"/>
<path d="M2270 1610 c0 -5 7 -7 15 -4 8 4 15 8 15 10 0 2 -7 4 -15 4 -8 0 -15
-4 -15 -10z"/>
<path d="M2325 1610 c3 -5 10 -10 16 -10 5 0 9 5 9 10 0 6 -7 10 -16 10 -8 0
-12 -4 -9 -10z"/>
<path d="M610 1503 c0 -10 40 -19 60 -13 21 6 19 7 -17 11 -24 3 -43 3 -43 2z"/>
<path d="M750 1500 c-9 -6 -10 -10 -3 -10 6 0 15 5 18 10 8 12 4 12 -15 0z"/>
<path d="M470 1489 c0 -5 5 -7 10 -4 6 3 10 8 10 11 0 2 -4 4 -10 4 -5 0 -10
-5 -10 -11z"/>
<path d="M560 1496 c0 -2 7 -6 15 -10 8 -3 15 -1 15 4 0 6 -7 10 -15 10 -8 0
-15 -2 -15 -4z"/>
<path d="M3325 1490 c-3 -5 -1 -10 4 -10 6 0 11 5 11 10 0 6 -2 10 -4 10 -3 0
-8 -4 -11 -10z"/>
<path d="M4350 1489 c0 -5 5 -7 10 -4 6 3 10 8 10 11 0 2 -4 4 -10 4 -5 0 -10
-5 -10 -11z"/>
<path d="M2765 1480 c3 -5 8 -10 11 -10 2 0 4 5 4 10 0 6 -5 10 -11 10 -5 0
-7 -4 -4 -10z"/>
<path d="M716 1442 c-3 -6 -1 -14 5 -17 15 -10 25 3 12 16 -7 7 -13 7 -17 1z"/>
<path d="M5248 1443 c7 -3 16 -2 19 1 4 3 -2 6 -13 5 -11 0 -14 -3 -6 -6z"/>
<path d="M5280 1446 c0 -2 7 -7 16 -10 8 -3 12 -2 9 4 -6 10 -25 14 -25 6z"/>
<path d="M320 1429 c0 -5 11 -9 25 -9 14 0 25 2 25 4 0 2 -11 6 -25 8 -14 3
-25 1 -25 -3z"/>
<path d="M395 1430 c-17 -7 -14 -9 13 -9 20 -1 31 3 27 9 -7 12 -13 12 -40 0z"/>
<path d="M485 1431 c-7 -13 -8 -12 28 -15 15 -1 33 2 40 6 8 5 4 8 -10 8 -12
0 -28 3 -36 6 -8 3 -18 1 -22 -5z"/>
<path d="M656 1433 c-11 -11 -6 -23 9 -23 8 0 15 4 15 9 0 13 -16 22 -24 14z"/>
<path d="M760 1430 c0 -13 11 -13 30 0 12 8 11 10 -7 10 -13 0 -23 -4 -23 -10z"/>
<path d="M980 1430 c0 -5 5 -10 11 -10 5 0 7 5 4 10 -3 6 -8 10 -11 10 -2 0
-4 -4 -4 -10z"/>
<path d="M1033 1429 c14 -8 22 -8 30 0 8 8 3 11 -18 11 -26 -1 -28 -2 -12 -11z"/>
<path d="M1128 1433 c7 -3 16 -2 19 1 4 3 -2 6 -13 5 -11 0 -14 -3 -6 -6z"/>
<path d="M1088 1423 c7 -3 16 -2 19 1 4 3 -2 6 -13 5 -11 0 -14 -3 -6 -6z"/>
<path d="M3240 1410 c0 -5 5 -10 11 -10 5 0 7 5 4 10 -3 6 -8 10 -11 10 -2 0
-4 -4 -4 -10z"/>
<path d="M4373 1403 c9 -2 23 -2 30 0 6 3 -1 5 -18 5 -16 0 -22 -2 -12 -5z"/>
<path d="M4359 1388 c-7 -21 -3 -51 8 -60 7 -6 14 -9 16 -7 31 55 31 69 -4 69
-10 0 -19 -1 -20 -2z"/>
<path d="M1025 1370 c3 -5 8 -10 11 -10 2 0 4 5 4 10 0 6 -5 10 -11 10 -5 0
-7 -4 -4 -10z"/>
<path d="M1365 1370 c-3 -5 1 -10 9 -10 8 0 18 5 21 10 3 6 -1 10 -9 10 -8 0
-18 -4 -21 -10z"/>
<path d="M1466 1371 c5 -5 25 -12 44 -15 33 -7 34 -6 16 9 -21 16 -77 22 -60
6z"/>
<path d="M301 1356 c-12 -15 -11 -16 18 -14 17 1 31 6 31 11 0 5 -6 7 -14 4
-8 -3 -16 -1 -18 5 -2 6 -10 3 -17 -6z"/>
<path d="M390 1359 c0 -11 57 -12 64 -1 3 4 -11 9 -30 9 -19 1 -34 -3 -34 -8z"/>
<path d="M768 1363 c7 -3 16 -2 19 1 4 3 -2 6 -13 5 -11 0 -14 -3 -6 -6z"/>
<path d="M910 1360 c0 -5 5 -10 11 -10 5 0 7 5 4 10 -3 6 -8 10 -11 10 -2 0
-4 -4 -4 -10z"/>
<path d="M1108 1363 c7 -3 16 -2 19 1 4 3 -2 6 -13 5 -11 0 -14 -3 -6 -6z"/>
<path d="M1160 1366 c0 -2 7 -7 16 -10 8 -3 12 -2 9 4 -6 10 -25 14 -25 6z"/>
<path d="M1270 1366 c0 -2 7 -6 15 -10 8 -3 15 -1 15 4 0 6 -7 10 -15 10 -8 0
-15 -2 -15 -4z"/>
<path d="M5310 1355 c0 -8 2 -15 4 -15 2 0 6 7 10 15 3 8 1 15 -4 15 -6 0 -10
-7 -10 -15z"/>
<path d="M5518 1363 c7 -3 16 -2 19 1 4 3 -2 6 -13 5 -11 0 -14 -3 -6 -6z"/>
<path d="M5370 1340 c0 -5 7 -10 16 -10 8 0 12 5 9 10 -3 6 -10 10 -16 10 -5
0 -9 -4 -9 -10z"/>
<path d="M5430 1335 c-7 -9 -8 -15 -2 -15 5 0 12 7 16 15 3 8 4 15 2 15 -2 0
-9 -7 -16 -15z"/>
<path d="M5361 1311 c-8 -5 -11 -16 -7 -26 5 -14 9 -15 21 -5 16 13 21 40 8
40 -5 0 -14 -4 -22 -9z"/>
<path d="M1590 1298 c0 -10 9 -9 35 2 17 8 16 8 -7 7 -16 -1 -28 -5 -28 -9z"/>
<path d="M5290 1298 l-25 -10 24 -9 c31 -12 40 -8 32 12 -5 13 -11 15 -31 7z"/>
<path d="M1258 1293 c7 -3 16 -2 19 1 4 3 -2 6 -13 5 -11 0 -14 -3 -6 -6z"/>
<path d="M3550 1220 c0 -5 7 -10 16 -10 8 0 12 5 9 10 -3 6 -10 10 -16 10 -5
0 -9 -4 -9 -10z"/>
<path d="M3338 1213 c7 -3 16 -2 19 1 4 3 -2 6 -13 5 -11 0 -14 -3 -6 -6z"/>
<path d="M3488 1213 c6 -2 18 -2 25 0 6 3 1 5 -13 5 -14 0 -19 -2 -12 -5z"/>
<path d="M3730 1212 c0 -10 22 -32 32 -32 5 0 3 9 -4 20 -13 20 -28 27 -28 12z"/>
<path d="M1910 1179 c0 -5 5 -7 10 -4 6 3 10 8 10 11 0 2 -4 4 -10 4 -5 0 -10
-5 -10 -11z"/>
<path d="M3470 1150 c0 -5 7 -10 15 -10 8 0 15 5 15 10 0 6 -7 10 -15 10 -8 0
-15 -4 -15 -10z"/>
<path d="M3520 1150 c0 -5 4 -10 9 -10 6 0 13 5 16 10 3 6 -1 10 -9 10 -9 0
-16 -4 -16 -10z"/>
<path d="M4375 1140 c-3 -5 1 -10 10 -10 9 0 13 5 10 10 -3 6 -8 10 -10 10 -2
0 -7 -4 -10 -10z"/>
<path d="M5280 1120 c-30 -10 -50 -19 -45 -20 6 -1 15 -1 20 0 6 1 27 2 47 1
39 -1 51 7 40 26 -5 7 -24 5 -62 -7z"/>
<path d="M1990 1110 c-13 -8 -12 -10 3 -10 9 0 17 5 17 10 0 12 -1 12 -20 0z"/>
<path d="M5410 1103 c0 -11 10 -14 38 -12 21 2 43 0 49 -4 6 -4 18 -4 26 -1 8
3 18 1 22 -5 3 -6 2 -11 -3 -11 -6 0 -12 -7 -15 -15 -5 -11 4 -14 43 -12 39 2
50 6 50 19 0 9 -6 19 -12 21 -10 4 -10 6 0 6 6 1 12 5 12 10 0 5 -22 11 -49
13 -27 1 -47 0 -45 -4 4 -6 -56 -2 -98 7 -11 2 -18 -3 -18 -12z"/>
<path d="M2220 1099 c0 -5 5 -7 10 -4 6 3 10 8 10 11 0 2 -4 4 -10 4 -5 0 -10
-5 -10 -11z"/>
<path d="M4845 1100 c-3 -5 -1 -10 4 -10 6 0 11 5 11 10 0 6 -2 10 -4 10 -3 0
-8 -4 -11 -10z"/>
<path d="M4970 1099 c0 -5 16 -9 35 -9 19 0 35 4 35 9 0 5 -16 9 -35 9 -19 0
-35 -4 -35 -9z"/>
<path d="M5080 1106 c0 -2 9 -6 20 -9 11 -3 18 -1 14 4 -5 9 -34 13 -34 5z"/>
<path d="M5138 1103 c6 -2 18 -2 25 0 6 3 1 5 -13 5 -14 0 -19 -2 -12 -5z"/>
<path d="M3160 1069 c-14 -16 -33 -29 -42 -29 -9 0 -19 -4 -22 -8 -2 -4 11 -6
30 -4 20 3 31 8 27 15 -4 6 0 8 10 4 11 -4 14 -2 10 9 -3 7 -1 14 5 14 5 0 12
7 16 15 9 23 -7 16 -34 -16z"/>
<path d="M3400 1080 c0 -5 5 -10 10 -10 6 0 10 5 10 10 0 6 -4 10 -10 10 -5 0
-10 -4 -10 -10z"/>
<path d="M2210 1060 c-13 -8 -13 -10 2 -10 9 0 20 5 23 10 8 13 -5 13 -25 0z"/>
<path d="M2538 1063 c7 -3 16 -2 19 1 4 3 -2 6 -13 5 -11 0 -14 -3 -6 -6z"/>
<path d="M3275 1049 c-4 -6 -4 -13 -1 -16 3 -4 6 -1 6 5 0 6 8 13 18 15 15 4
15 5 0 6 -9 0 -20 -4 -23 -10z"/>
<path d="M3440 1045 c0 -8 7 -15 16 -15 14 0 14 3 4 15 -7 8 -14 15 -16 15 -2
0 -4 -7 -4 -15z"/>
<path d="M2160 1040 c-9 -6 -10 -10 -3 -10 6 0 15 5 18 10 8 12 4 12 -15 0z"/>
<path d="M1516 1032 c-3 -5 1 -9 9 -9 8 0 12 4 9 9 -3 4 -7 8 -9 8 -2 0 -6 -4
-9 -8z"/>
<path d="M420 1014 c0 -14 3 -14 15 -4 8 7 15 14 15 16 0 2 -7 4 -15 4 -8 0
-15 -7 -15 -16z"/>
<path d="M1960 1010 c0 -5 9 -10 20 -10 11 0 20 5 20 10 0 6 -9 10 -20 10 -11
0 -20 -4 -20 -10z"/>
<path d="M373 988 c-31 -10 -45 -28 -23 -28 16 0 60 23 60 32 0 4 -1 8 -2 7
-2 -1 -18 -6 -35 -11z"/>
<path d="M1950 980 c0 -5 5 -10 11 -10 5 0 7 5 4 10 -3 6 -8 10 -11 10 -2 0
-4 -4 -4 -10z"/>
<path d="M1985 980 c-8 -13 5 -13 25 0 13 8 13 10 -2 10 -9 0 -20 -4 -23 -10z"/>
<path d="M4675 929 c-4 -6 -5 -13 -2 -16 7 -7 27 6 27 18 0 12 -17 12 -25 -2z"/>
<path d="M4413 845 c15 -14 32 -25 38 -25 17 0 9 8 -28 29 l-38 22 28 -26z"/>
<path d="M5519 753 c-13 -17 -13 -17 6 -3 11 8 22 16 24 17 2 2 0 3 -6 3 -6 0
-17 -8 -24 -17z"/>
<path d="M5468 733 c6 -2 18 -2 25 0 6 3 1 5 -13 5 -14 0 -19 -2 -12 -5z"/>
<path d="M5436 709 c6 -11 35 -11 51 -1 8 5 -1 8 -22 9 -19 1 -32 -3 -29 -8z"/>
<path d="M5090 630 c0 -5 5 -10 10 -10 6 0 10 5 10 10 0 6 -4 10 -10 10 -5 0
-10 -4 -10 -10z"/>
<path d="M5135 630 c-11 -5 -15 -9 -8 -9 6 -1 18 -4 27 -7 11 -4 16 -1 16 10
0 18 -6 19 -35 6z"/>
<path d="M830 610 c-9 -6 -10 -10 -3 -10 6 0 15 5 18 10 8 12 4 12 -15 0z"/>
<path d="M875 609 c-9 -14 -2 -20 14 -10 8 6 9 11 3 15 -6 3 -14 1 -17 -5z"/>
<path d="M756 564 c-4 -10 -1 -14 6 -12 15 5 23 28 10 28 -5 0 -13 -7 -16 -16z"/>
<path d="M776 541 c-3 -5 3 -11 15 -14 16 -4 18 -3 8 9 -13 16 -16 17 -23 5z"/>
<path d="M290 531 c0 -10 19 -25 25 -20 1 2 -3 10 -11 17 -8 7 -14 8 -14 3z"/>
<path d="M1580 530 c-12 -8 -11 -10 8 -10 12 0 22 5 22 10 0 13 -11 13 -30 0z"/>
<path d="M1494 519 c-4 -6 1 -9 12 -8 11 2 25 0 32 -4 8 -5 12 -3 12 7 0 18
-45 22 -56 5z"/>
<path d="M1620 520 c0 -5 4 -10 9 -10 6 0 13 5 16 10 3 6 -1 10 -9 10 -9 0
-16 -4 -16 -10z"/>
<path d="M1065 509 c-4 -6 -5 -12 -2 -15 2 -3 7 2 10 11 7 17 1 20 -8 4z"/>
<path d="M730 500 c-18 -12 -2 -12 25 0 13 6 15 9 5 9 -8 0 -22 -4 -30 -9z"/>
<path d="M1596 491 c-4 -6 -2 -11 4 -11 6 0 9 -4 6 -9 -3 -5 -16 -7 -29 -4
-17 4 -19 2 -7 -5 26 -19 89 3 90 31 0 12 -28 8 -33 -5 -4 -10 -8 -10 -15 1
-7 9 -12 10 -16 2z"/>
<path d="M5480 490 c0 -5 7 -10 16 -10 8 0 12 5 9 10 -3 6 -10 10 -16 10 -5 0
-9 -4 -9 -10z"/>
<path d="M1088 473 c7 -3 16 -2 19 1 4 3 -2 6 -13 5 -11 0 -14 -3 -6 -6z"/>
<path d="M1135 360 c-3 -5 1 -10 10 -10 9 0 13 5 10 10 -3 6 -8 10 -10 10 -2
0 -7 -4 -10 -10z"/>
<path d="M5048 363 c6 -2 18 -2 25 0 6 3 1 5 -13 5 -14 0 -19 -2 -12 -5z"/>
<path d="M4990 340 c0 -5 5 -10 10 -10 6 0 10 5 10 10 0 6 -4 10 -10 10 -5 0
-10 -4 -10 -10z"/>
<path d="M1157 320 c-3 -11 -1 -20 4 -20 5 0 9 2 9 4 0 2 3 11 6 20 3 9 2 16
-4 16 -5 0 -12 -9 -15 -20z"/>
<path d="M5548 263 c7 -3 16 -2 19 1 4 3 -2 6 -13 5 -11 0 -14 -3 -6 -6z"/>
<path d="M5585 260 c3 -5 8 -10 11 -10 2 0 4 5 4 10 0 6 -5 10 -11 10 -5 0 -7
-4 -4 -10z"/>
<path d="M4855 230 c3 -5 8 -10 11 -10 2 0 4 5 4 10 0 6 -5 10 -11 10 -5 0 -7
-4 -4 -10z"/>
<path d="M3090 180 c-6 -11 -8 -20 -6 -20 3 0 10 9 16 20 6 11 8 20 6 20 -3 0
-10 -9 -16 -20z"/>
<path d="M380 170 c-9 -6 -10 -10 -3 -10 6 0 15 5 18 10 8 12 4 12 -15 0z"/>
<path d="M310 145 c-10 -12 -10 -15 4 -15 9 0 16 7 16 15 0 8 -2 15 -4 15 -2
0 -9 -7 -16 -15z"/>
<path d="M352 138 c-16 -16 -15 -28 2 -28 8 0 18 -5 22 -11 7 -12 -20 -8 -59
7 -11 4 -13 -1 -9 -22 3 -15 13 -29 23 -31 11 -3 19 -12 19 -19 0 -8 5 -14 11
-14 6 0 8 9 4 20 -5 15 -3 18 10 14 11 -4 14 -13 9 -27 -6 -19 -5 -20 9 -6 16
17 23 119 7 119 -4 0 -14 2 -22 5 -7 3 -19 0 -26 -7z m-2 -68 c-8 -5 -19 -10
-25 -10 -5 0 -3 5 5 10 8 5 20 10 25 10 6 0 3 -5 -5 -10z"/>
<path d="M4960 60 c0 -5 5 -10 10 -10 6 0 10 5 10 10 0 6 -4 10 -10 10 -5 0
-10 -4 -10 -10z"/>
<path d="M5060 51 c0 -6 5 -13 10 -16 6 -3 10 1 10 9 0 9 -4 16 -10 16 -5 0
-10 -4 -10 -9z"/>
</g>
</svg>
