<?xml version="1.0" standalone="no"?>
<!DOCTYPE svg PUBLIC "-//W3C//DTD SVG 20010904//EN"
 "http://www.w3.org/TR/2001/REC-SVG-20010904/DTD/svg10.dtd">
<svg version="1.0" xmlns="http://www.w3.org/2000/svg"
 width="500.000000pt" height="374.000000pt" viewBox="0 0 500.000000 374.000000"
 preserveAspectRatio="xMidYMid meet">

<g transform="translate(0.000000,374.000000) scale(0.100000,-0.100000)"
fill="#000000" stroke="none">
<path d="M1410 3737 c0 -3 7 -23 15 -47 44 -123 68 -472 46 -669 -13 -123 -47
-293 -66 -336 -7 -16 -21 -54 -30 -83 -19 -60 -23 -51 62 -141 29 -30 51 -56
50 -57 -5 -5 -141 47 -151 57 -21 20 -47 6 -116 -65 -40 -41 -91 -87 -114
-102 -22 -16 -50 -36 -61 -45 -18 -15 -63 -36 -215 -100 -55 -23 -184 -49
-243 -49 -127 0 -313 69 -411 153 -33 29 -68 61 -77 72 -10 11 -30 34 -44 50
-24 27 -25 27 -14 5 25 -53 162 -174 239 -212 155 -77 263 -97 396 -74 49 9
103 20 119 25 60 18 240 103 268 127 16 13 32 24 37 24 5 0 50 41 101 90 51
50 94 90 97 90 10 0 258 -92 267 -99 5 -5 20 -12 33 -15 31 -10 28 12 -4 24
-60 23 -214 166 -214 200 0 10 11 47 24 82 14 36 37 120 51 189 51 232 45 637
-12 842 -9 32 -20 60 -24 63 -5 3 -9 3 -9 1z"/>
<path d="M2355 3730 c-3 -6 1 -7 9 -4 18 7 21 14 7 14 -6 0 -13 -4 -16 -10z"/>
<path d="M2462 3725 c-23 -7 -49 -18 -57 -25 -21 -17 -154 -80 -170 -80 -8 0
-20 -8 -27 -18 -7 -10 -34 -32 -59 -50 -26 -17 -60 -46 -75 -63 -16 -18 -38
-41 -50 -53 -11 -12 -38 -50 -59 -86 -22 -36 -46 -73 -54 -83 -8 -9 -12 -20
-8 -23 6 -6 15 8 61 89 33 58 135 173 182 205 49 33 42 17 -22 -50 -30 -32
-53 -62 -49 -68 7 -11 -14 -55 -22 -46 -3 3 0 12 7 21 7 9 11 18 8 21 -12 12
-124 -156 -188 -281 -23 -44 -45 -79 -50 -78 -14 4 -40 -62 -45 -114 l-5 -48
15 40 c8 22 18 48 21 58 4 9 12 17 18 17 6 0 12 9 13 19 4 49 142 293 186 330
26 21 20 0 -7 -28 -13 -15 -43 -63 -65 -108 -23 -45 -45 -85 -50 -87 -5 -3
-28 -54 -51 -113 -24 -59 -49 -113 -56 -120 -7 -7 -17 -37 -22 -66 -5 -28 -18
-95 -27 -147 -23 -122 -31 -362 -16 -460 16 -100 50 -239 67 -270 7 -14 27
-54 43 -90 16 -36 39 -75 52 -87 97 -87 118 -103 130 -103 8 -1 27 -19 42 -41
16 -23 31 -38 35 -34 3 3 2 9 -4 13 -10 8 -44 58 -44 67 0 5 70 -22 79 -31 3
-3 -1 -9 -9 -14 -12 -7 -11 -10 5 -16 63 -21 105 -49 127 -82 24 -36 24 -38 7
-66 -29 -48 -40 -141 -29 -237 16 -133 33 -164 110 -205 25 -14 63 -36 85 -49
22 -14 58 -35 80 -46 22 -12 54 -32 71 -45 34 -26 114 -54 156 -54 15 0 36 10
48 22 l21 23 67 -23 c123 -43 202 -84 202 -107 0 -18 -7 -20 -63 -22 -94 -4
-185 -23 -254 -54 -71 -32 -77 -44 -89 -182 -4 -43 -11 -80 -16 -83 -4 -3 -6
-9 -3 -14 7 -11 -14 -54 -22 -47 -12 13 -62 -17 -73 -42 -14 -34 -51 -63 -124
-95 -31 -14 -56 -29 -56 -34 0 -5 -35 -28 -79 -51 -43 -24 -98 -63 -122 -87
l-43 -44 31 0 c18 0 35 4 38 10 4 6 -1 7 -12 4 -12 -4 -9 3 10 20 27 25 65 37
52 16 -3 -5 -1 -10 5 -10 6 0 8 11 6 25 -6 33 2 32 14 -1 7 -18 7 -31 0 -39
-8 -10 -8 -15 1 -21 8 -4 9 -3 5 5 -4 6 0 14 9 17 10 4 12 11 7 18 -25 32 -21
46 17 66 34 17 40 17 45 4 3 -8 14 -14 23 -12 14 2 18 -4 17 -24 -1 -18 4 -28
12 -28 17 0 18 17 2 23 -9 3 -10 8 -3 15 6 7 16 8 24 3 10 -7 11 -13 2 -30
-14 -24 -4 -52 10 -30 7 11 9 10 9 -3 0 -12 -8 -18 -22 -18 -12 0 -19 -3 -15
-6 3 -4 17 -4 31 0 17 4 24 12 23 26 -1 11 -7 20 -13 20 -7 0 -12 10 -11 23 0
12 -3 31 -7 42 -8 20 -8 20 8 0 9 -11 22 -37 28 -57 12 -40 32 -54 23 -15 -4
18 2 25 30 38 19 9 35 12 35 7 0 -5 5 -6 12 -2 8 5 9 2 4 -12 -15 -39 -19 -74
-7 -74 6 0 14 7 17 15 4 8 17 15 30 15 13 0 24 5 24 10 0 6 -9 10 -19 10 -15
0 -19 5 -15 22 2 13 7 37 10 54 4 20 15 36 30 43 14 6 22 16 19 22 -5 7 -12 6
-23 -3 -14 -12 -14 -10 -3 10 14 27 26 28 40 5 6 -11 11 -13 11 -5 0 7 5 10
10 7 19 -12 10 -25 -30 -42 -24 -11 -38 -23 -35 -30 2 -7 0 -13 -5 -13 -6 0
-10 -6 -10 -14 0 -9 7 -12 20 -9 11 3 20 9 20 14 0 5 8 9 18 8 10 0 12 -3 5
-6 -14 -5 -18 -25 -5 -20 4 1 8 -1 10 -5 1 -5 1 -7 -1 -5 -7 5 -37 -32 -37
-45 0 -8 -5 -19 -12 -26 -9 -9 -8 -12 4 -12 9 0 18 12 22 32 3 17 9 28 12 25
12 -12 37 23 26 36 -10 12 -12 18 -12 37 0 5 -8 6 -17 3 -16 -6 -16 -5 -4 10
9 12 17 14 25 8 13 -11 34 -10 54 3 7 4 14 6 15 5 1 -2 8 -14 15 -27 7 -12 8
-22 3 -22 -5 0 -17 -13 -28 -29 -10 -16 -22 -31 -28 -33 -5 -2 -9 -7 -7 -12 2
-5 -3 -13 -10 -17 -7 -4 -9 -11 -5 -15 7 -8 53 13 75 34 7 6 21 13 30 14 51 4
82 3 82 -4 0 -4 -7 -8 -15 -8 -8 0 -15 -5 -15 -11 0 -6 7 -8 16 -5 9 3 18 6
20 6 2 0 4 6 4 14 0 16 40 10 52 -8 14 -21 7 -31 -7 -12 -8 11 -18 16 -22 11
-5 -4 -2 -10 5 -12 6 -3 10 -8 7 -12 -2 -5 6 -8 18 -7 12 0 23 7 23 14 3 23 4
24 19 12 8 -7 15 -9 15 -6 0 4 10 0 22 -8 12 -9 31 -16 43 -16 15 0 11 6 -18
25 -38 26 -51 43 -19 26 9 -5 22 -10 27 -11 15 -3 45 -26 41 -31 -2 -2 11 -5
30 -6 19 -2 34 2 34 7 0 6 7 10 16 10 8 0 13 -3 11 -7 -3 -5 6 -9 19 -9 20 -2
23 2 19 16 -3 10 -1 21 5 25 5 3 10 -1 10 -11 0 -11 6 -15 20 -11 11 3 20 1
20 -4 0 -5 -8 -9 -17 -10 -11 0 -13 -2 -5 -6 7 -3 24 2 37 11 22 15 28 14 27
-4 0 -3 11 -6 24 -6 29 -2 30 5 4 48 -10 18 -26 62 -35 96 l-16 63 45 50 c30
33 43 56 39 66 -4 11 -2 14 5 9 7 -4 10 -2 6 7 -3 8 2 20 11 27 8 7 15 20 15
30 0 9 11 34 25 54 14 20 25 40 25 44 1 22 135 205 184 251 137 127 294 298
358 391 16 24 17 21 17 -92 0 -131 16 -214 62 -308 16 -33 26 -65 23 -72 -3
-7 -37 -40 -77 -73 -39 -33 -92 -79 -117 -103 -26 -23 -51 -42 -57 -42 -26 0
-111 -120 -151 -214 -19 -45 -51 -90 -102 -146 -41 -45 -76 -82 -77 -83 -1 -2
7 -3 17 -3 10 0 17 2 15 5 -6 6 15 31 27 31 5 0 4 -9 -2 -20 -7 -13 -7 -20 -1
-20 6 0 13 16 17 36 4 23 10 32 16 26 13 -13 48 -3 48 15 0 12 -3 12 -16 -1
-28 -29 -35 -5 -7 25 30 32 44 39 22 12 -10 -11 -10 -14 -1 -9 8 5 12 1 12
-13 0 -11 4 -23 10 -26 5 -3 8 0 5 7 -17 48 -11 81 15 83 16 1 44 25 37 31 -4
4 -14 -1 -22 -12 -21 -28 -18 -12 9 51 17 38 31 55 43 55 15 0 14 -4 -7 -21
l-25 -21 32 18 c26 14 34 15 47 5 9 -7 13 -18 9 -25 -4 -6 -8 -13 -8 -16 -3
-21 -41 -110 -47 -110 -5 0 -8 -7 -8 -16 0 -14 -3 -14 -15 -4 -12 10 -15 10
-15 -1 -1 -9 -5 -8 -15 5 -8 11 -15 15 -15 10 0 -6 5 -15 12 -22 9 -9 9 -12
-3 -12 -10 -1 -10 -3 4 -11 18 -11 24 -39 7 -39 -5 0 -10 8 -10 17 0 9 -3 14
-6 10 -3 -3 -3 -14 0 -25 10 -30 74 -28 78 1 2 12 9 23 16 23 6 1 17 2 23 3 6
0 8 9 4 20 -3 12 0 21 9 24 10 4 13 1 10 -8 -3 -8 1 -22 10 -30 18 -18 21 -12
7 14 -11 20 -4 34 26 50 14 7 24 8 28 1 3 -5 14 -10 23 -9 12 0 10 3 -6 10
-13 5 -20 13 -17 19 3 5 -10 1 -29 -11 -20 -12 -36 -18 -36 -13 0 4 -9 -1 -20
-11 -12 -10 -18 -25 -16 -32 3 -7 1 -15 -4 -18 -17 -10 -11 23 11 65 16 31 27
40 40 37 11 -3 19 -2 19 2 0 13 45 7 58 -8 11 -14 11 -14 6 2 -4 12 -1 17 11
17 9 0 13 -4 10 -10 -9 -15 8 -12 33 6 13 9 26 14 29 11 2 -3 -7 -11 -21 -19
-14 -7 -25 -16 -25 -20 -1 -5 -1 -12 -1 -17 0 -5 -11 -12 -25 -15 -14 -4 -25
-11 -25 -16 0 -5 8 -7 18 -3 9 4 3 -8 -15 -25 -18 -18 -33 -38 -33 -45 0 -8
-3 -7 -10 3 -5 8 -12 11 -17 7 -4 -5 -1 -12 7 -17 17 -11 90 -9 83 3 -2 4 0 7
5 7 5 0 15 11 22 25 8 15 20 23 27 20 8 -3 11 0 7 6 -6 11 64 89 80 89 6 0 1
-8 -10 -19 -10 -10 -26 -29 -34 -42 -8 -13 -30 -39 -48 -58 -18 -18 -30 -36
-27 -39 3 -3 11 0 17 6 15 15 52 16 42 1 -5 -8 -1 -8 14 0 11 6 30 11 41 11
12 0 21 6 22 13 0 6 2 20 4 29 2 10 -1 18 -7 18 -6 0 -8 -6 -5 -14 3 -8 0 -19
-7 -25 -17 -15 -50 -18 -53 -6 -2 6 4 10 12 10 8 0 20 7 27 15 11 12 11 12 -4
2 -11 -9 -18 -10 -23 -2 -3 5 1 13 9 16 9 3 16 12 16 18 0 7 11 22 25 34 14
13 31 35 37 50 6 16 12 22 15 14 3 -7 -1 -20 -9 -29 -11 -15 -11 -16 4 -10 23
8 32 -8 18 -33 -9 -16 -8 -18 5 -14 10 4 15 0 15 -11 0 -14 3 -15 14 -6 10 9
16 8 25 -3 7 -8 19 -12 27 -9 9 3 14 -1 14 -12 0 -11 -5 -15 -14 -12 -8 3 -17
-1 -20 -9 -3 -7 -2 -13 2 -13 19 3 32 -2 29 -12 -1 -6 4 -13 11 -15 7 -1 8 0
2 3 -15 7 -2 23 15 17 8 -4 12 -11 8 -18 -4 -6 0 -6 9 2 11 9 18 10 23 2 3 -5
11 -10 17 -10 6 0 6 6 -2 15 -7 9 -19 14 -26 11 -7 -3 -16 -1 -20 5 -3 6 -12
8 -20 5 -8 -3 -14 -1 -14 5 0 15 29 22 44 10 10 -8 17 -6 31 9 10 11 13 20 7
20 -6 0 -14 -5 -17 -10 -10 -16 -28 -12 -21 5 7 18 -5 20 -22 3 -9 -9 -12 -8
-12 5 0 19 -15 23 -25 7 -4 -6 -11 -8 -16 -4 -5 3 -6 10 -3 16 5 7 0 9 -14 6
-25 -7 -30 7 -6 16 9 4 22 2 29 -4 9 -8 15 -8 20 0 3 5 -1 10 -11 10 -14 0
-15 2 -3 17 13 15 12 15 -8 5 -24 -13 -73 -1 -73 19 0 8 4 8 14 0 8 -7 29 -10
46 -7 29 4 68 -4 115 -24 11 -5 39 -14 63 -20 37 -10 59 -30 31 -30 -5 0 -10
-8 -9 -17 3 -27 -11 -64 -21 -57 -5 3 -7 10 -4 15 4 5 1 9 -4 9 -6 0 -11 -4
-11 -10 0 -5 -4 -10 -10 -10 -5 0 -7 7 -4 15 6 15 -11 21 -20 7 -10 -16 21
-37 57 -39 31 -1 36 1 27 12 -9 11 -7 16 10 25 11 6 24 9 28 7 4 -2 15 4 24
14 21 23 4 37 -18 15 -17 -18 -30 -20 -38 -7 -3 5 4 11 17 15 19 5 20 8 7 17
-13 9 -12 10 3 5 10 -3 37 -9 59 -12 25 -5 35 -10 27 -15 -7 -4 -17 -5 -21 -3
-4 3 -5 -2 -1 -11 4 -12 8 -13 13 -5 8 13 61 17 80 5 7 -4 16 -2 20 6 7 11 13
11 36 -1 20 -11 23 -16 11 -18 -17 -4 -24 -22 -8 -22 15 0 32 27 26 42 -4 9 1
18 11 22 12 5 15 14 10 36 -4 22 -2 30 9 30 17 0 20 26 5 35 -13 8 -13 35 1
35 5 0 7 -5 3 -11 -5 -9 1 -10 21 -5 25 6 27 5 16 -8 -7 -9 -11 -22 -8 -30 3
-8 -1 -17 -9 -20 -9 -3 -13 -10 -10 -15 4 -5 1 -11 -6 -13 -13 -5 -3 -58 12
-58 6 0 10 5 10 10 0 6 -4 10 -10 10 -5 0 -10 7 -10 15 0 8 5 15 10 15 6 0 10
-7 10 -16 0 -12 6 -15 26 -10 17 5 23 3 19 -4 -3 -5 -2 -10 4 -10 5 0 8 -9 6
-20 -2 -11 0 -18 5 -15 4 3 7 13 5 23 -2 9 -4 21 -4 25 -1 4 -11 12 -23 17
-13 5 -17 9 -10 9 7 1 10 6 7 11 -3 6 -3 10 2 10 13 -1 53 -88 47 -103 -3 -8
-13 -13 -23 -10 -9 2 -23 -3 -30 -11 -15 -18 -8 -20 19 -6 13 7 21 7 25 0 11
-18 23 -11 18 10 -4 16 -2 19 11 14 10 -4 15 -13 12 -20 -3 -8 -1 -14 4 -14 6
0 10 5 10 11 0 8 5 7 15 -1 13 -11 18 -11 28 0 9 10 9 11 0 6 -7 -4 -13 -3
-13 3 0 5 6 11 13 14 6 2 9 7 5 11 -3 4 -16 3 -27 -4 -24 -12 -41 -6 -41 16 0
8 5 12 10 9 6 -4 8 -11 5 -16 -7 -10 24 -1 42 13 13 11 15 98 2 98 -4 0 -12
-8 -18 -18 -9 -16 -10 -16 -16 1 -6 13 -11 15 -21 6 -7 -6 -17 -8 -22 -5 -5 3
-9 -2 -8 -12 0 -9 -3 -18 -9 -19 -5 -2 -10 3 -11 10 -1 19 17 37 36 37 10 0
20 7 24 15 3 8 13 15 21 15 9 0 13 -5 10 -10 -4 -6 -11 -8 -16 -5 -5 3 -6 -1
-3 -10 6 -14 8 -14 24 2 18 19 20 80 5 117 -5 12 -5 17 2 13 6 -4 10 18 11 57
l1 62 -97 46 c-53 25 -136 58 -184 72 -72 22 -92 33 -121 66 -30 34 -41 40
-75 40 l-40 0 -31 78 c-17 42 -34 93 -38 112 -3 19 -18 50 -32 69 l-25 34 -81
-6 c-61 -4 -91 -11 -126 -31 -59 -33 -65 -27 -79 89 -14 116 -5 201 25 237 13
15 38 53 56 85 46 81 64 98 105 99 59 2 74 23 191 258 24 49 54 103 67 120 41
53 76 134 76 171 0 36 -38 202 -65 282 -19 56 -78 136 -110 151 -14 7 -37 12
-50 12 -14 0 -25 2 -25 4 0 21 54 168 65 180 21 20 20 193 -1 266 -8 30 -26
102 -40 160 -30 126 -51 196 -68 230 -8 14 -16 42 -20 62 -4 21 -12 40 -18 44
-7 5 -8 2 -3 -7 5 -10 5 -11 -2 -4 -6 6 -14 21 -18 35 -5 19 -4 21 4 10 22
-31 11 14 -17 67 -60 116 -155 200 -247 219 -21 4 -35 15 -45 37 -8 18 -24 33
-35 35 -18 2 -18 2 -3 -8 10 -6 23 -21 29 -33 l12 -22 -24 21 c-13 12 -34 27
-46 33 -34 17 -1344 14 -1401 -4z m1561 -91 c50 -26 115 -83 139 -123 12 -20
30 -45 40 -55 10 -11 18 -25 18 -30 0 -14 -48 41 -66 75 -18 35 -101 104 -155
129 -24 11 -36 20 -26 20 10 0 32 -7 50 -16z m-1287 -107 c-10 -7 -36 -27 -58
-44 -22 -18 -43 -33 -47 -33 -4 0 -29 -21 -56 -47 -33 -33 -42 -38 -27 -18 36
52 136 143 162 148 41 7 46 6 26 -6z m-112 -19 c-34 -39 -277 -280 -268 -266
30 49 66 96 88 117 14 14 26 30 26 37 0 22 137 134 164 134 5 0 1 -10 -10 -22z
m204 -23 c-21 -19 -43 -35 -49 -35 -13 0 29 42 58 59 32 18 29 11 -9 -24z m57
-15 c-11 -17 -65 -51 -65 -41 0 6 15 20 33 31 36 23 41 24 32 10z m-445 -4 c0
-2 -7 -7 -16 -10 -8 -3 -12 -2 -9 4 6 10 25 14 25 6z m-102 -67 c-18 -22 -48
-61 -65 -86 -18 -24 -45 -61 -61 -81 -15 -21 -37 -54 -47 -75 -19 -37 -55 -78
-55 -63 0 4 11 22 25 40 14 18 25 37 25 42 0 21 146 226 178 250 33 26 33 13
0 -27z m384 -14 c-50 -50 -68 -60 -32 -17 33 37 61 62 70 62 4 0 -13 -20 -38
-45z m-568 -3 c-9 -15 -24 -36 -34 -47 -9 -11 -43 -65 -75 -120 -60 -103 -85
-138 -85 -118 0 10 49 104 59 113 4 3 18 23 32 45 14 22 39 60 55 85 16 25 32
53 36 63 4 10 13 15 18 12 8 -5 5 -16 -6 -33z m83 -40 c-20 -21 -37 -41 -37
-44 0 -8 -60 -98 -65 -98 -1 0 15 36 36 80 36 74 58 97 94 99 5 1 -8 -16 -28
-37z m394 -18 c-28 -30 -51 -59 -51 -63 0 -7 -44 -31 -57 -31 -3 0 29 34 71
75 42 41 79 75 82 75 3 0 -17 -25 -45 -56z m536 28 c-15 -15 -27 -34 -27 -41
0 -7 -4 -9 -10 -6 -5 3 -10 2 -10 -3 0 -4 -8 -17 -18 -28 -28 -31 -86 -107
-99 -131 -25 -45 -12 -47 14 -3 15 25 29 47 33 50 3 3 23 27 43 54 20 27 37
45 37 41 0 -8 -70 -127 -80 -135 -17 -14 -49 -70 -55 -96 l-7 -29 19 30 c33
51 198 211 272 263 30 22 32 22 22 4 -6 -11 -27 -35 -46 -54 -20 -18 -47 -53
-61 -77 -24 -43 -24 -44 -2 -25 l22 19 -23 -37 c-32 -54 -12 -47 22 7 32 50
38 55 30 25 -4 -16 -2 -19 11 -14 9 3 16 10 16 14 0 13 91 122 97 116 3 -3 -4
-17 -15 -31 -22 -27 -68 -153 -59 -161 2 -3 42 43 88 101 82 105 99 123 79 85
-6 -11 -8 -26 -4 -32 4 -6 3 -8 -4 -4 -11 7 -52 -52 -52 -75 1 -8 8 -2 16 14
8 15 17 27 20 27 3 0 2 -4 -1 -10 -12 -20 11 -10 48 21 l37 31 -10 -28 c-17
-43 -1 -42 37 1 20 22 31 33 26 25 -5 -8 -13 -24 -17 -35 -6 -17 -4 -17 18 4
15 14 26 28 26 32 0 12 42 80 47 76 3 -4 -6 -52 -33 -167 -3 -14 -2 -22 2 -18
4 4 15 40 25 80 17 70 18 71 18 28 0 -25 -4 -66 -8 -92 -4 -27 -6 -50 -3 -53
6 -6 34 31 61 80 19 36 20 37 15 10 -4 -16 -15 -52 -25 -78 -22 -56 -23 -61
-7 -51 8 5 9 2 5 -9 -3 -10 -2 -17 3 -17 6 0 10 6 10 13 0 16 44 160 68 227
l17 45 7 -50 c3 -27 7 -95 9 -150 l3 -100 5 89 6 88 25 -73 c13 -41 27 -76 31
-79 14 -10 38 -100 35 -127 -2 -16 -1 -22 1 -15 2 6 9 12 14 12 5 0 9 35 10
78 1 75 16 159 18 104 1 -13 8 -37 17 -53 15 -30 27 -83 41 -177 3 -24 9 -39
13 -33 3 7 17 -12 31 -41 13 -29 26 -55 30 -58 10 -9 58 -153 54 -161 -3 -4 0
-20 6 -36 22 -56 41 -160 49 -268 6 -80 13 -112 24 -121 9 -6 13 -14 9 -17 -3
-4 -2 -7 4 -7 6 0 13 8 16 18 4 9 14 28 23 42 13 20 11 19 -9 -4 l-25 -29 5
49 c6 56 25 97 62 137 28 29 47 33 83 16 25 -11 88 -95 88 -117 0 -7 6 -23 14
-35 14 -22 76 -251 76 -281 0 -23 -47 -121 -65 -136 -9 -7 -37 -56 -62 -109
-25 -53 -49 -98 -52 -101 -3 -3 -21 -36 -40 -73 -39 -78 -69 -101 -100 -73
-14 13 -18 27 -15 64 l4 47 -16 -54 c-16 -58 -78 -170 -129 -236 -17 -22 -48
-67 -70 -100 -21 -33 -41 -62 -44 -65 -3 -3 -24 -27 -45 -54 -65 -80 -207
-216 -268 -256 -45 -29 -74 -40 -136 -50 -74 -11 -86 -10 -227 19 -83 18 -170
40 -195 51 -25 11 -85 33 -135 50 -146 50 -293 111 -306 126 -6 8 -18 14 -25
14 -8 0 -14 4 -14 9 0 5 -25 26 -55 46 -30 21 -58 48 -61 59 -10 33 -75 170
-84 176 -4 3 -17 37 -30 75 -20 63 -56 142 -71 155 -3 3 -11 21 -19 40 -23 58
-70 164 -80 180 -27 42 -90 175 -90 190 0 10 -6 33 -14 51 -8 19 -16 56 -18
82 -4 38 -2 50 11 55 12 6 16 23 17 79 2 95 40 213 123 380 28 57 51 104 51
106 0 7 87 139 142 216 63 88 252 290 322 344 28 20 52 41 55 45 4 4 18 13 32
19 l27 12 -15 -30 c-8 -16 -19 -29 -24 -29 -5 0 -29 -31 -53 -69 -25 -38 -49
-72 -54 -75 -18 -11 -100 -186 -87 -186 2 0 12 12 20 28 14 22 15 23 11 5 -3
-13 -8 -33 -11 -45 -3 -13 3 -5 15 18 39 77 359 378 455 428 45 24 52 19 22
-12z m-1104 -24 c-69 -110 -91 -147 -118 -205 -27 -60 -45 -79 -45 -49 0 7 6
19 13 25 8 6 22 30 32 53 32 74 119 218 133 218 8 0 2 -16 -15 -42z m101 -15
c-15 -26 -35 -57 -44 -68 -10 -11 -43 -69 -74 -130 -61 -117 -76 -140 -76
-112 0 21 40 106 88 183 48 80 124 185 130 180 2 -3 -9 -26 -24 -53z m586 52
c0 -2 -18 -23 -40 -47 -48 -51 -54 -41 -7 12 29 35 47 48 47 35z m186 -36
c-14 -11 -33 -33 -40 -47 -8 -15 -24 -37 -35 -49 -26 -27 -125 -172 -147 -214
-8 -17 -18 -29 -21 -26 -6 7 38 89 53 99 6 4 26 33 45 64 19 31 43 66 55 78
11 12 35 42 54 69 18 26 40 47 48 47 9 0 5 -8 -12 -21z m913 -108 c11 -41 19
-76 17 -79 -4 -3 -27 70 -42 133 -14 59 5 18 25 -54z m-590 17 c-8 -7 -23 -22
-33 -33 -10 -11 -15 -13 -11 -5 13 25 37 50 48 50 6 0 4 -6 -4 -12z m-1129
-58 c0 -5 -5 -10 -11 -10 -5 0 -7 5 -4 10 3 6 8 10 11 10 2 0 4 -4 4 -10z
m1906 -235 c13 -43 10 -45 -11 -5 -17 33 -18 40 -7 40 4 0 12 -16 18 -35z
m-1634 -87 c-7 -7 -12 -8 -12 -2 0 14 12 26 19 19 2 -3 -1 -11 -7 -17z m-39
-56 c-23 -35 -36 -56 -73 -117 -16 -27 -30 -46 -30 -41 0 22 103 186 117 186
2 0 -4 -12 -14 -28z m-129 -224 c-28 -56 -65 -151 -90 -231 -9 -27 -17 -47
-20 -44 -8 8 67 222 96 275 39 67 48 67 14 0z m-475 -188 c11 -126 37 -277 51
-295 4 -5 26 -66 50 -135 23 -69 53 -140 66 -159 13 -19 21 -37 18 -40 -13
-13 -64 65 -93 142 -18 45 -36 91 -41 102 -12 27 -26 83 -45 180 -15 81 -33
344 -22 335 3 -3 11 -62 16 -130z m2562 3 c-8 -15 -10 -15 -11 -2 0 17 10 32
18 25 2 -3 -1 -13 -7 -23z m-1990 -935 c28 -31 24 -56 -8 -60 l-28 -3 1 -101
c1 -59 6 -108 13 -120 10 -16 11 -14 7 16 -13 83 -16 166 -7 180 15 22 23 6
28 -52 3 -29 9 -65 15 -80 7 -18 6 -33 -2 -47 -6 -12 -7 -21 -3 -21 4 0 19 20
32 45 13 25 27 45 30 45 18 0 80 -117 86 -162 5 -36 13 -53 31 -65 52 -33 20
-30 -50 6 -41 21 -72 33 -70 27 10 -26 192 -105 242 -106 32 0 154 -69 146
-82 -9 -14 -93 -5 -129 15 -17 8 -70 36 -120 62 -235 119 -241 123 -258 163
-50 117 -44 362 9 362 9 0 25 -10 35 -22z m32 -163 c3 -42 2 -62 -3 -50 -8 19
-14 133 -6 124 2 -2 6 -35 9 -74z m182 -245 c10 -11 16 -20 13 -20 -3 0 -13 9
-23 20 -10 11 -16 20 -13 20 3 0 13 -9 23 -20z m1782 -143 c4 -4 -3 -10 -15
-14 -17 -4 -20 -9 -12 -18 7 -9 8 -15 1 -19 -6 -4 -17 7 -25 23 -15 27 -14 30
2 33 23 6 40 4 49 -5z m-66 -27 c6 0 7 -5 3 -11 -5 -8 -10 -6 -16 5 -5 9 -14
16 -20 16 -6 0 -3 -9 7 -20 10 -11 20 -18 23 -15 3 2 12 0 21 -5 20 -10 47 3
37 18 -4 6 2 16 13 21 21 12 34 2 45 -36 8 -24 -7 -32 -20 -11 -5 7 -3 8 5 3
10 -5 9 -2 0 13 -7 12 -17 18 -22 15 -5 -3 -4 -9 3 -13 6 -4 11 -10 11 -14 -4
-27 1 -34 20 -29 18 5 20 3 11 -13 -11 -22 3 -58 19 -49 5 4 9 2 9 -4 0 -18
-19 -22 -28 -5 -6 11 -14 14 -22 9 -10 -6 -8 -10 8 -16 25 -10 20 -34 -10 -50
-16 -9 -19 -7 -16 8 2 14 -3 18 -27 16 -21 -2 -26 0 -15 7 8 5 18 6 24 3 5 -3
6 -1 2 6 -4 6 -12 8 -18 5 -6 -4 -14 0 -19 7 -4 7 -11 10 -16 6 -4 -5 -1 -12
7 -17 8 -6 13 -10 10 -11 -3 0 -14 -3 -25 -5 -11 -3 -25 -6 -31 -6 -6 -1 -11
-6 -10 -12 1 -6 -3 -13 -9 -14 -5 -2 -18 -8 -28 -14 -18 -9 -18 -11 2 -29 26
-25 26 -29 0 -29 -11 0 -17 5 -14 10 3 6 -1 10 -10 10 -10 0 -13 -5 -9 -12 5
-7 2 -8 -7 -3 -8 5 -11 4 -6 -1 5 -5 14 -9 20 -9 7 0 13 -11 13 -24 1 -23 1
-24 -12 -6 -8 10 -14 14 -14 8 0 -7 5 -15 10 -18 6 -4 8 -11 4 -16 -3 -5 -10
-7 -15 -3 -5 3 -17 0 -25 -7 -12 -10 -20 -10 -34 -2 -13 9 -22 8 -39 -3 -11
-8 -21 -13 -21 -10 0 3 -9 -2 -20 -11 -27 -23 -17 -28 14 -8 26 17 36 9 15
-12 -9 -9 -8 -15 2 -26 15 -15 39 -12 39 5 0 6 -7 8 -15 4 -22 -8 -18 7 6 22
18 12 21 11 26 -7 6 -23 23 -29 23 -8 0 6 8 -4 18 -23 17 -34 17 -36 -1 -62
-12 -16 -16 -31 -11 -39 6 -10 10 -7 16 11 7 24 8 24 4 -2 -2 -19 1 -28 10
-28 8 0 14 -5 14 -12 0 -6 -3 -8 -7 -5 -3 4 -13 1 -21 -6 -13 -10 -15 -9 -9 6
5 13 1 17 -16 17 -18 0 -19 2 -7 11 12 8 12 9 -5 7 -11 -1 -33 9 -48 22 -16
14 -39 25 -53 25 -13 0 -23 5 -22 10 1 6 8 9 15 7 7 -2 13 2 13 9 0 7 -9 9
-22 6 -22 -6 -22 -6 -4 9 13 9 23 11 30 4 5 -5 15 -10 21 -10 5 0 2 5 -8 11
-9 6 -15 14 -12 20 10 16 -10 10 -31 -9 -11 -10 -24 -17 -31 -15 -6 2 -17 -3
-26 -11 -8 -8 -17 -13 -20 -10 -3 3 -7 1 -10 -3 -3 -5 5 -9 19 -9 13 0 24 6
24 13 0 7 5 13 10 13 9 0 12 -14 9 -37 -1 -5 -5 -7 -10 -5 -5 1 -9 -4 -9 -10
0 -9 -3 -10 -8 -2 -4 6 -20 14 -37 17 -16 3 -24 4 -17 1 6 -3 12 -14 12 -24 0
-14 -5 -17 -22 -12 -14 3 -19 1 -14 -6 3 -6 2 -13 -4 -17 -18 -11 -10 -23 15
-21 14 0 25 4 25 7 0 4 8 10 17 13 15 6 15 4 -2 -14 -10 -11 -24 -20 -31 -20
-7 0 -16 -5 -20 -12 -5 -8 -2 -9 10 -5 14 6 15 3 6 -13 -14 -27 -19 -25 -31
10 -6 17 -16 30 -21 30 -7 0 -6 -5 1 -14 8 -10 9 -16 1 -21 -5 -3 -10 -1 -10
5 0 6 -4 8 -10 5 -15 -9 -12 7 9 40 27 45 102 116 134 127 15 6 27 14 27 19 0
14 71 74 88 74 9 0 17 6 20 13 3 10 7 10 18 1 8 -6 11 -16 7 -23 -4 -6 2 -4
13 4 29 22 30 24 11 17 -12 -4 -20 -1 -24 10 -4 9 -1 19 5 21 7 2 10 8 6 13
-3 5 -1 9 5 9 16 0 90 77 103 107 9 22 12 24 15 11 3 -10 9 -18 15 -18 5 0 8
6 5 14 -3 8 -1 17 6 20 9 3 8 7 -3 15 -8 5 -11 13 -6 18 4 4 12 0 18 -10 6
-12 14 -15 21 -9 19 14 58 22 50 10 -3 -7 -1 -8 5 -4 14 8 4 36 -13 36 -7 0
-18 -7 -25 -15 -8 -10 -17 -12 -23 -6 -14 14 1 31 29 31 24 0 32 14 14 25 -5
3 -10 1 -10 -4 0 -6 -9 -11 -19 -11 -11 0 -21 -6 -24 -12 -3 -10 -8 -10 -18 1
-9 9 -9 11 -1 7 6 -4 12 -2 12 4 0 7 -7 9 -16 6 -11 -4 -18 1 -21 14 -3 11 -9
17 -15 14 -5 -4 -5 -10 1 -18 7 -8 0 -11 -26 -10 -33 2 -35 0 -30 -24 5 -25 4
-25 -9 -8 -11 16 -11 22 -1 35 10 12 9 14 -6 8 -10 -4 -20 -7 -22 -7 -2 0 -1
-10 1 -22 4 -22 4 -22 -6 1 -9 20 -7 26 12 40 13 8 23 13 24 11 0 -3 8 1 17 8
9 8 21 11 27 7 5 -3 10 -2 10 4 0 15 35 18 38 4 2 -7 8 -13 13 -13z m-21 -70
c0 -24 -26 -45 -36 -29 -4 8 -3 9 4 5 8 -5 12 1 12 15 0 18 -3 19 -15 9 -8 -6
-20 -8 -27 -4 -9 6 -5 10 12 14 40 10 50 8 50 -10z m-93 -26 c-3 -3 -12 -4
-19 -1 -8 3 -5 6 6 6 11 1 17 -2 13 -5z m258 -4 c3 -6 -1 -7 -9 -4 -18 7 -21
14 -7 14 6 0 13 -4 16 -10z m-222 -17 c-5 -12 -2 -15 10 -10 11 4 14 2 10 -8
-3 -8 -9 -13 -13 -10 -11 7 -31 -20 -22 -31 4 -4 -1 -2 -10 5 -10 7 -15 18
-12 23 4 6 0 14 -7 19 -9 6 -10 9 -2 9 6 0 15 -4 18 -10 3 -5 11 -10 17 -10 7
0 7 4 -1 13 -11 14 -6 27 10 27 5 0 5 -8 2 -17z m-1063 -13 c0 -5 -2 -10 -4
-10 -3 0 -8 5 -11 10 -3 6 -1 10 4 10 6 0 11 -4 11 -10z m68 -40 c-7 -10 -14
-17 -17 -15 -4 4 18 35 25 35 2 0 -1 -9 -8 -20z m1234 8 c0 -7 2 -19 2 -26 1
-7 7 -17 14 -21 11 -7 11 -9 -2 -14 -9 -4 -15 -1 -13 5 1 7 -7 14 -18 16 -16
3 -18 1 -7 -9 17 -18 15 -26 -8 -32 -13 -3 -20 0 -20 10 0 8 -5 11 -11 8 -6
-4 -8 -13 -5 -21 3 -8 1 -14 -4 -14 -6 0 -10 7 -10 15 0 12 -4 14 -19 5 -13
-7 -22 -7 -26 0 -6 9 25 15 50 10 6 -1 6 2 2 7 -5 4 -13 9 -18 9 -19 3 -20 4
-14 14 5 8 11 7 21 0 10 -9 21 -9 44 1 30 14 40 29 19 29 -5 0 -7 5 -4 10 9
14 25 12 27 -2z m-1362 -12 c0 -3 -4 -8 -10 -11 -5 -3 -10 -1 -10 4 0 6 5 11
10 11 6 0 10 -2 10 -4z m135 -35 c-21 -43 -29 -39 -8 4 9 19 18 33 21 31 2 -2
-4 -18 -13 -35z m1104 13 c-6 -8 -8 -14 -5 -14 4 0 4 -5 0 -11 -4 -7 -11 -2
-18 13 -13 25 -3 40 21 31 10 -4 11 -9 2 -19z m-1226 1 c-3 -9 -8 -14 -10 -11
-3 3 -2 9 2 15 9 16 15 13 8 -4z m1203 -35 c16 -24 33 -39 41 -36 7 3 13 -1
13 -10 0 -8 5 -12 10 -9 6 3 10 3 11 -2 0 -4 2 -16 4 -25 2 -10 -2 -21 -7 -25
-7 -4 -9 2 -6 15 4 12 3 22 -1 22 -16 0 -20 -14 -9 -34 7 -11 12 -23 11 -26
-1 -3 6 -16 16 -29 l18 -23 28 26 c15 14 31 24 35 21 11 -7 43 32 35 44 -3 6
-1 11 4 11 6 0 11 -7 11 -15 0 -8 4 -15 9 -15 5 0 15 -17 22 -37 6 -21 20 -49
30 -62 20 -25 26 -56 9 -46 -6 4 -8 11 -5 16 4 5 -1 9 -9 9 -10 0 -13 6 -9 18
5 13 3 14 -7 5 -7 -6 -19 -9 -26 -6 -8 3 -14 0 -14 -5 0 -6 10 -12 22 -14 14
-2 24 -11 26 -23 2 -18 1 -18 -10 -4 -7 9 -19 14 -25 12 -7 -3 -13 0 -13 6 0
6 -8 11 -17 11 -16 1 -16 2 1 15 11 8 28 15 38 15 18 0 18 2 2 31 -12 24 -18
29 -25 18 -5 -9 -3 -17 8 -23 13 -7 10 -11 -16 -22 -17 -7 -31 -18 -31 -24 0
-6 -4 -8 -10 -5 -17 11 -11 23 16 29 18 5 24 11 20 23 -4 9 1 24 10 34 14 16
15 19 2 19 -8 0 -25 -12 -39 -26 -16 -17 -19 -25 -9 -22 9 1 17 -1 18 -7 1 -5
-1 -10 -5 -11 -5 0 -16 -4 -26 -9 -10 -4 -21 -5 -24 -1 -4 3 -1 6 5 6 7 0 12
6 12 14 0 11 -12 8 -47 -11 -57 -30 -57 -29 -44 -37 5 -3 17 1 25 10 13 13 20
13 31 4 8 -6 19 -9 24 -6 5 4 12 2 16 -4 3 -5 -1 -10 -10 -10 -9 0 -13 -4 -10
-10 3 -5 0 -10 -7 -11 -10 0 -10 -2 0 -6 8 -3 4 -11 -13 -25 -14 -11 -23 -23
-20 -28 3 -5 1 -11 -5 -15 -5 -3 -10 -2 -10 4 0 5 -3 16 -6 25 -4 10 -1 16 9
16 18 0 26 11 32 40 3 13 -2 20 -12 20 -9 0 -13 -6 -10 -14 6 -14 -27 -48 -37
-39 -3 4 -6 2 -6 -3 0 -6 5 -15 11 -21 14 -14 5 -43 -13 -42 -10 0 -10 2 -1 6
10 4 10 9 1 26 -18 32 -16 41 12 54 l25 12 -27 -4 c-15 -2 -32 -6 -38 -10 -15
-9 -12 -35 5 -41 8 -4 15 -11 15 -16 0 -6 -7 -7 -16 -4 -9 3 -12 2 -9 -4 4 -6
-7 -16 -23 -23 -23 -10 -28 -16 -21 -32 12 -32 10 -38 -7 -21 -8 9 -24 16 -35
16 -21 0 -27 37 -9 58 6 6 7 10 3 7 -13 -10 -30 39 -19 54 8 11 8 13 -1 8 -6
-4 -14 -3 -18 2 -3 5 3 14 12 20 14 8 15 11 3 11 -9 1 -5 5 8 11 13 5 20 14
17 20 -4 6 -13 8 -20 5 -8 -3 -19 2 -26 10 -10 12 -8 18 7 30 19 15 19 15 -1
11 -11 -3 -28 -8 -37 -12 -11 -4 -18 -3 -18 4 0 6 8 11 18 11 10 0 27 7 38 15
10 8 24 15 31 15 16 0 93 52 93 62 0 4 -18 -3 -40 -17 -30 -19 -40 -22 -40
-11 0 8 5 18 11 21 7 5 5 15 -6 31 -8 13 -13 25 -10 25 3 1 9 2 15 3 5 0 15 7
22 14 16 16 14 17 44 -28z m-1070 -12 c-9 -12 -16 -19 -16 -15 0 11 24 47 28
42 2 -2 -3 -14 -12 -27z m22 -8 c-7 -10 -14 -17 -17 -15 -4 4 18 35 25 35 2 0
-1 -9 -8 -20z m57 -14 c-17 -25 -52 -46 -39 -23 13 22 37 47 46 47 5 0 1 -11
-7 -24z m1135 5 c-13 -26 -13 -51 1 -51 6 0 9 9 6 20 -3 13 0 20 9 20 8 0 11
6 8 15 -4 8 -2 15 4 15 16 0 22 -28 6 -34 -8 -3 -14 -11 -14 -17 0 -8 4 -8 15
1 8 7 15 10 15 6 0 -3 0 -9 0 -13 0 -4 -7 -8 -16 -9 -9 -2 -21 -9 -26 -16 -8
-10 -11 -10 -15 0 -2 6 -14 12 -26 13 -16 0 -18 2 -7 7 20 9 24 32 6 32 -8 0
-17 -6 -19 -12 -4 -10 -6 -10 -6 -1 -1 7 11 19 27 27 37 20 45 20 32 -3z
m-1090 -21 c-6 -11 -13 -20 -16 -20 -2 0 0 9 6 20 6 11 13 20 16 20 2 0 0 -9
-6 -20z m1219 -16 c-8 -10 -9 -15 -2 -11 6 4 15 2 19 -4 4 -8 3 -9 -4 -5 -7 4
-12 1 -12 -6 -1 -8 -6 -6 -15 6 -16 21 -11 41 7 30 8 -5 9 -1 4 12 -6 15 -5
16 5 7 10 -10 9 -16 -2 -29z m-1199 -9 c-13 -14 -26 -23 -28 -20 -3 3 5 16 18
30 13 14 26 23 28 20 3 -3 -5 -16 -18 -30z m76 7 c-17 -16 -18 -16 -5 5 7 12
15 20 18 17 3 -2 -3 -12 -13 -22z m54 20 c0 -4 -9 -13 -20 -20 -19 -12 -20
-11 -8 8 13 20 28 27 28 12z m-180 -6 c0 -2 -8 -10 -17 -17 -16 -13 -17 -12
-4 4 13 16 21 21 21 13z m-102 -26 c-7 -11 -17 -20 -22 -20 -5 0 -1 9 9 20 10
11 20 20 22 20 2 0 -2 -9 -9 -20z m-417 -33 c-10 -9 -11 -8 -5 6 3 10 9 15 12
12 3 -3 0 -11 -7 -18z m1656 8 c13 9 27 14 31 11 3 -3 3 -7 1 -8 -29 -18 -69
-38 -74 -38 -4 0 -4 7 -1 16 4 10 1 14 -6 11 -7 -2 -12 -12 -12 -21 2 -21 -3
-20 -16 4 -9 17 -7 22 12 29 17 6 25 5 31 -6 7 -12 12 -12 34 2z m170 -14 c12
-11 23 -17 27 -14 3 3 12 0 21 -7 8 -7 15 -9 15 -4 0 5 7 1 14 -9 8 -10 18
-17 22 -16 5 1 17 -1 27 -4 9 -4 25 -10 35 -14 21 -8 29 -10 42 -12 6 0 10 -8
10 -16 0 -8 9 -15 19 -15 22 0 36 -29 21 -44 -11 -11 -14 -8 -40 34 -7 12 -11
13 -21 3 -11 -11 -10 -13 0 -13 11 0 11 -3 1 -15 -14 -17 -30 -20 -30 -4 0 5
5 7 10 4 6 -3 10 -2 10 4 0 16 -18 22 -26 9 -26 -41 -4 -56 44 -30 18 11 22
10 22 -3 0 -8 8 -15 18 -16 15 0 15 -1 -2 -8 -14 -5 -16 -10 -8 -15 7 -4 10
-12 6 -17 -9 -15 -23 0 -19 21 3 13 -2 20 -12 20 -9 0 -13 -6 -9 -15 3 -9 0
-15 -8 -15 -9 0 -12 -7 -9 -20 3 -12 0 -20 -6 -20 -7 0 -10 -4 -7 -9 4 -5 14
-8 24 -6 9 2 19 4 22 4 3 1 -2 6 -10 11 -11 7 -12 12 -3 21 8 8 14 5 24 -12 7
-13 11 -25 10 -27 -1 -1 3 -10 9 -20 9 -13 10 -8 6 23 -5 34 -4 36 5 15 8 -20
12 -22 19 -10 6 9 6 16 0 18 -6 2 -10 8 -10 14 0 6 9 3 20 -7 11 -10 20 -13
20 -8 0 14 -25 34 -38 31 -20 -6 -9 36 16 62 13 12 14 11 7 -10 -11 -38 -11
-45 3 -43 6 2 12 -4 12 -12 0 -18 1 -18 36 -5 24 9 25 12 11 23 -8 7 -17 21
-19 32 -2 11 -10 19 -17 17 -7 -1 -10 2 -6 8 3 5 13 10 22 10 9 0 14 -3 10 -6
-9 -10 22 -66 33 -59 6 3 7 -1 4 -9 -3 -9 -10 -16 -16 -16 -5 0 -7 -4 -3 -9 3
-6 -4 -8 -15 -6 -13 2 -20 -1 -20 -11 0 -8 -6 -13 -12 -12 -8 2 -12 -5 -10
-17 5 -28 9 -30 34 -18 33 15 43 15 44 1 1 -23 -17 -38 -34 -28 -40 21 -78 27
-90 15 -2 -2 4 -17 12 -33 15 -30 15 -31 -7 -38 -12 -4 -25 -12 -29 -18 -4 -6
-10 -7 -15 -3 -4 5 -2 11 4 15 6 4 14 25 18 46 7 37 6 39 -14 33 -11 -3 -21
-1 -21 4 0 5 5 9 10 9 6 0 10 4 10 9 0 10 -39 3 -56 -11 -13 -10 -7 -48 7 -48
5 0 9 -5 9 -11 0 -6 -6 -9 -14 -6 -8 3 -17 3 -19 -1 -2 -4 -2 -2 -1 5 2 7 -1
15 -7 18 -5 4 -7 10 -5 14 3 4 1 13 -5 21 -7 12 -9 11 -9 -4 0 -17 -2 -16 -19
5 -22 29 -44 70 -39 74 2 1 13 5 24 9 25 8 42 -20 24 -38 -8 -8 -10 -7 -5 5 4
10 0 16 -10 16 -11 0 -13 -6 -9 -21 9 -29 28 -39 36 -18 6 16 7 16 7 0 1 -10
8 -18 17 -18 14 0 15 2 3 17 -11 13 -11 17 -1 20 6 3 12 9 12 15 0 6 -6 8 -13
5 -17 -6 -52 49 -37 58 5 3 10 1 10 -4 0 -6 4 -11 8 -11 4 0 8 8 8 18 0 10 -6
19 -13 19 -7 0 -13 -4 -13 -8 0 -5 -7 -6 -15 -3 -8 4 -12 10 -9 15 3 5 10 7
15 4 5 -4 9 5 9 19 0 32 -18 37 -55 14 -36 -21 -51 -23 -33 -4 7 8 15 14 18
13 3 0 18 6 34 14 23 11 30 11 34 1 2 -6 8 -12 14 -12 7 0 7 5 -1 13 -6 8 -7
17 -3 22 4 4 -5 5 -20 1 -21 -5 -30 -2 -38 14 -11 21 -50 28 -50 9 0 -6 7 -9
15 -6 8 4 17 1 21 -5 5 -7 2 -8 -6 -3 -9 6 -11 4 -5 -5 6 -9 4 -11 -6 -5 -11
7 -12 6 -2 -6 10 -12 8 -17 -8 -27 -10 -7 -19 -8 -19 -3 0 5 5 11 11 13 5 2 7
11 4 21 -4 9 -10 15 -15 12 -4 -2 -6 7 -5 20 3 24 -12 30 -28 10 -5 -5 -6 0
-2 12 5 18 3 20 -16 16 -15 -4 -20 -3 -15 5 11 18 40 14 63 -7z m-1393 -21
c-17 -33 -37 -51 -27 -23 6 17 32 53 39 53 1 0 -4 -13 -12 -30z m15 -24 c-12
-20 -23 -35 -26 -33 -2 3 6 21 18 41 12 20 23 35 26 33 2 -3 -6 -21 -18 -41z
m116 15 c-8 -17 -20 -33 -26 -37 -11 -7 5 29 24 54 17 21 18 13 2 -17z m740
19 c-3 -5 -10 -10 -16 -10 -5 0 -9 5 -9 10 0 6 7 10 16 10 8 0 12 -4 9 -10z
m-705 -19 c-11 -21 -30 -37 -30 -25 0 8 30 44 37 44 2 0 -1 -9 -7 -19z m-520
-11 c0 -5 -5 -10 -11 -10 -5 0 -7 5 -4 10 3 6 8 10 11 10 2 0 4 -4 4 -10z
m281 -7 c-15 -28 -40 -59 -41 -50 0 8 41 67 47 67 2 0 -1 -8 -6 -17z m129 14
c0 -2 -10 -12 -21 -23 -22 -19 -22 -19 -8 4 12 19 29 30 29 19z m1 -40 c-19
-18 -30 -25 -26 -17 13 25 48 60 54 55 3 -3 -10 -20 -28 -38z m1403 -8 c-3 -5
-10 -7 -15 -3 -5 3 -7 10 -3 15 3 5 10 7 15 3 5 -3 7 -10 3 -15z m-69 1 c-3
-5 -11 -10 -16 -10 -6 0 -7 5 -4 10 3 6 11 10 16 10 6 0 7 -4 4 -10z m-1229
-28 c-17 -16 -18 -16 -5 5 7 12 15 20 18 17 3 -2 -3 -12 -13 -22z m-516 15 c0
-2 -10 -12 -21 -23 -22 -19 -22 -19 -8 4 12 19 29 30 29 19z m420 -46 c-12
-17 -26 -31 -31 -31 -12 0 -3 17 24 47 29 32 34 20 7 -16z m-136 4 c-9 -14
-18 -25 -20 -25 -2 0 2 11 8 25 6 14 15 25 20 25 5 0 1 -11 -8 -25z m246 6
c-5 -11 -15 -23 -22 -27 -7 -5 -8 -2 -3 7 21 37 44 55 25 20z m1078 6 c13 -9
7 -27 -10 -27 -5 0 -7 8 -4 17 6 15 5 15 -13 -1 -19 -17 -19 -17 -16 1 2 10 4
19 4 20 2 3 27 -3 39 -10z m232 4 c0 -13 -29 -35 -37 -28 -7 8 15 37 28 37 5
0 9 -4 9 -9z m210 -1 c-20 -13 -33 -13 -25 0 3 6 14 10 23 10 15 0 15 -2 2
-10z m-1600 -19 c-11 -21 -30 -37 -30 -25 0 8 30 44 37 44 2 0 -1 -9 -7 -19z
m-144 -16 c-3 -8 -1 -15 4 -15 6 0 10 -5 10 -10 0 -7 -7 -7 -21 0 -16 9 -18
14 -8 26 15 18 23 18 15 -1z m1310 -8 c8 3 14 0 14 -6 0 -6 -3 -10 -7 -10 -20
3 -24 -2 -14 -15 7 -9 8 -17 3 -20 -6 -3 -13 5 -16 19 -4 14 -11 25 -16 25 -5
0 -7 -6 -4 -14 3 -7 -3 -16 -13 -20 -14 -6 -15 -9 -4 -15 9 -6 10 -11 2 -15
-6 -4 -11 -2 -11 3 0 6 -4 11 -10 11 -14 0 -12 -13 6 -36 8 -10 12 -13 8 -5
-5 10 -3 12 5 7 9 -6 9 -11 0 -22 -9 -11 -8 -14 7 -14 16 0 16 -2 4 -9 -8 -6
-18 -7 -22 -5 -4 3 -8 0 -8 -5 0 -6 -7 -11 -16 -11 -14 0 -15 2 -3 17 9 10 9
14 2 10 -14 -9 -33 22 -25 42 3 8 0 11 -7 7 -7 -5 -11 1 -11 16 l1 23 18 -22
c11 -13 23 -23 27 -23 4 0 -1 9 -11 20 -10 11 -13 20 -7 20 6 0 23 5 37 10 24
9 26 12 14 27 -8 10 -9 14 -2 10 6 -4 15 -2 18 4 5 7 11 7 17 1 6 -6 17 -8 24
-5z m79 4 c29 11 43 10 23 -2 -10 -5 -18 -19 -18 -29 0 -13 -7 -20 -20 -20
-11 0 -20 -5 -20 -11 0 -6 7 -8 15 -5 9 3 18 -1 22 -10 3 -8 12 -13 19 -10 7
3 22 -8 34 -23 24 -35 25 -41 5 -41 -13 0 -14 -4 -5 -20 8 -16 8 -20 -4 -20
-8 0 -23 -3 -33 -6 -17 -5 -17 -5 0 9 10 8 15 21 11 31 -4 11 -1 16 10 16 9 0
16 5 16 10 0 6 -5 10 -11 10 -5 0 -8 4 -5 9 3 4 -4 8 -17 7 -24 -1 -36 -34
-17 -46 9 -5 9 -9 1 -14 -6 -4 -13 0 -16 8 -3 9 -7 23 -10 32 -3 8 -9 12 -15
9 -6 -4 -8 -11 -5 -16 7 -10 -25 -12 -49 -3 -9 3 -16 10 -16 15 0 14 28 11 34
-3 3 -9 9 -7 20 6 20 25 20 42 0 50 -13 5 -15 1 -10 -19 4 -14 2 -25 -4 -25
-5 0 -10 7 -10 16 0 14 -3 14 -15 4 -8 -7 -15 -9 -15 -5 0 4 11 16 25 27 14
11 23 23 20 28 -3 4 2 13 10 20 8 7 12 17 8 24 -5 8 -3 8 8 0 8 -7 22 -8 34
-3z m426 -4 c-1 -12 -15 -9 -19 4 -3 6 1 10 8 8 6 -3 11 -8 11 -12z m-291 -8
c0 -5 4 -8 9 -5 5 4 7 -3 4 -14 -6 -23 -23 -27 -23 -5 0 8 -3 14 -7 14 -20 -3
-26 2 -13 11 20 13 30 12 30 -1z m-1585 -19 c14 -5 25 -12 25 -15 0 -4 -4 -3
-10 0 -5 3 -10 1 -10 -4 0 -14 13 -14 26 -1 13 13 67 -8 58 -22 -3 -5 -16 -1
-27 9 -12 9 -16 11 -9 3 17 -19 15 -40 -3 -40 -9 0 -15 -7 -13 -17 2 -10 -7
-22 -20 -28 -33 -17 -37 -24 -10 -18 12 3 20 3 16 -2 -4 -4 9 -23 28 -43 32
-33 39 -45 35 -66 -1 -5 5 -6 13 -3 21 8 29 -8 11 -23 -12 -10 -17 -7 -27 16
-15 33 -32 54 -46 54 -5 0 -15 6 -21 14 -9 11 -9 15 1 19 9 4 8 6 -3 6 -9 1
-24 10 -34 21 -18 20 -18 21 13 32 18 7 32 16 32 21 0 4 -5 5 -11 1 -7 -4 -10
-1 -7 7 3 8 10 14 16 14 22 0 17 20 -5 23 -16 2 -23 -2 -23 -12 0 -18 -4 -19
-37 -10 -27 7 -30 26 -8 44 11 9 13 16 6 23 -7 7 -15 6 -26 -3 -8 -7 -15 -8
-15 -3 0 26 23 26 85 3z m265 -15 c-13 -14 -26 -23 -28 -20 -3 3 5 16 18 30
13 14 26 23 28 20 3 -3 -5 -16 -18 -30z m1035 25 c3 -5 -1 -10 -10 -10 -9 0
-13 5 -10 10 3 6 8 10 10 10 2 0 7 -4 10 -10z m189 -5 c-4 -8 -10 -12 -15 -9
-11 6 -2 24 11 24 5 0 7 -7 4 -15z m336 3 c0 -4 -4 -8 -9 -8 -6 0 -12 4 -15 8
-3 5 1 9 9 9 8 0 15 -4 15 -9z m-1617 -23 c-3 -9 -8 -14 -10 -11 -3 3 -2 9 2
15 9 16 15 13 8 -4z m1317 0 c11 -13 10 -14 -4 -9 -12 5 -15 2 -10 -10 4 -11
1 -16 -10 -16 -14 0 -16 16 -7 48 3 7 20 0 31 -13z m-1709 -28 c-10 -9 -11 -8
-5 6 3 10 9 15 12 12 3 -3 0 -11 -7 -18z m1663 8 c-4 -8 -10 -12 -15 -9 -11 6
-2 24 11 24 5 0 7 -7 4 -15z m-1626 -25 c-7 -11 -17 -20 -22 -20 -5 0 -1 9 9
20 10 11 20 20 22 20 2 0 -2 -9 -9 -20z m279 8 c-2 -7 -10 -12 -16 -10 -7 1
-19 -4 -27 -13 -9 -8 -21 -15 -27 -15 -18 1 41 50 59 50 9 0 14 -6 11 -12z
m1068 2 c4 -6 10 -8 15 -5 5 3 14 -4 20 -15 12 -22 1 -27 -18 -8 -10 10 -16 7
-28 -10 -22 -31 -37 -17 -18 16 15 25 15 25 0 8 -9 -11 -19 -17 -22 -13 -9 9
15 37 32 37 7 0 16 -5 19 -10z m-1028 -16 c-3 -4 -2 -15 4 -25 5 -11 6 -26 2
-34 -8 -13 -11 -13 -31 1 -12 8 -20 19 -17 24 3 4 -5 6 -17 4 -13 -2 -17 -2
-10 2 6 3 10 10 7 14 -3 5 3 7 13 5 10 -2 25 1 33 6 16 10 25 12 16 3z m60
-19 c-23 -22 -33 -18 -12 5 10 11 20 18 23 16 2 -3 -3 -12 -11 -21z m1311 13
c-2 -3 8 -18 22 -33 21 -22 22 -25 5 -19 -17 7 -18 6 -7 -8 8 -9 9 -19 4 -22
-6 -3 -13 4 -17 17 -6 19 -8 20 -12 4 -6 -22 3 -47 16 -47 5 0 16 6 24 14 13
13 18 11 39 -12 14 -15 28 -36 32 -47 6 -19 5 -19 -8 -2 -12 15 -14 16 -20 2
-3 -8 -17 -15 -31 -15 -18 0 -28 8 -36 27 -7 16 -13 23 -16 16 -3 -7 -9 -13
-15 -13 -7 0 -6 5 1 14 8 9 8 22 2 39 -6 16 -6 28 1 35 7 7 6 16 -1 30 -6 10
-7 22 -4 26 8 8 26 3 21 -6z m327 2 c-3 -5 -10 -10 -16 -10 -5 0 -9 5 -9 10 0
6 7 10 16 10 8 0 12 -4 9 -10z m-2065 -21 c0 -6 9 -8 20 -5 11 3 30 9 43 12
l22 6 -23 -17 c-12 -9 -26 -14 -31 -11 -5 3 -24 -11 -42 -31 -17 -21 -30 -31
-27 -23 2 8 -1 20 -8 27 -17 18 -27 16 -20 -2 3 -8 1 -15 -4 -15 -6 0 -10 -5
-10 -11 0 -6 7 -9 15 -5 27 10 16 -9 -16 -27 -31 -17 -57 -15 -29 3 13 8 13
10 -1 10 -9 0 -19 7 -23 15 -3 8 -10 15 -15 15 -6 0 -8 -7 -5 -15 5 -11 -1
-15 -22 -15 -27 0 -27 1 -8 15 19 15 19 15 -1 27 -11 6 -20 10 -21 7 0 -2 -8
2 -17 9 -9 8 -21 11 -27 7 -5 -3 -10 0 -10 7 0 8 9 14 19 14 11 0 18 -3 15 -7
-8 -14 36 -17 47 -3 13 16 44 13 62 -6 10 -10 9 -12 -4 -7 -9 3 -16 0 -16 -9
0 -8 4 -14 9 -14 4 0 8 -7 8 -16 0 -8 5 -12 10 -9 6 4 8 9 6 13 -6 10 16 37
37 45 9 3 17 2 17 -4 0 -6 5 -7 12 -3 6 4 8 3 4 -4 -3 -6 -2 -13 4 -17 5 -3
10 1 10 9 0 9 5 16 11 16 8 0 8 5 -1 15 -9 10 -9 15 -1 15 6 0 11 -5 11 -11z
m1671 -12 c-13 -13 -26 -3 -16 12 3 6 11 8 17 5 6 -4 6 -10 -1 -17z m-235 -6
c23 4 26 -2 8 -15 -17 -13 -21 -12 -38 2 -11 9 -16 11 -12 5 4 -7 2 -13 -3
-13 -15 0 -14 27 2 33 6 2 17 0 23 -5 7 -5 16 -8 20 -7z m-1140 -23 c33 -38
50 -62 37 -55 -6 4 -14 3 -18 -3 -3 -5 1 -10 10 -10 9 0 13 -5 10 -10 -7 -11
-63 28 -64 44 -1 5 5 4 12 -2 10 -8 13 -6 13 9 0 13 -5 17 -16 14 -8 -3 -21 4
-28 15 -10 17 -10 20 6 20 10 0 27 -10 38 -22z m1254 6 c0 -8 -5 -12 -10 -9
-6 4 -8 11 -5 16 9 14 15 11 15 -7z m-1846 -6 c-7 -11 -11 -31 -17 -84 -2 -18
-8 -22 -36 -21 -19 1 -36 -4 -39 -11 -5 -17 -42 -15 -42 2 0 17 -28 41 -49 41
-9 0 -15 7 -13 15 2 8 0 11 -4 7 -11 -11 -14 -38 -4 -32 5 3 11 1 15 -4 3 -6
-7 -9 -25 -8 -47 3 -38 23 32 66 33 19 37 20 31 5 -5 -13 -3 -16 10 -11 11 4
17 1 17 -7 0 -15 -31 -16 -42 -1 -4 5 -10 6 -14 2 -10 -10 -1 -17 29 -22 26
-5 53 17 42 35 -10 16 23 24 40 10 10 -9 15 -9 15 -1 0 6 9 11 20 11 11 0 20
5 20 10 0 6 5 10 11 10 5 0 7 -5 3 -12z m1852 -9 c5 5 20 11 35 14 20 5 28 1
42 -22 20 -33 21 -41 7 -41 -5 0 -10 10 -10 22 0 21 -1 21 -13 3 -10 -12 -16
-14 -21 -7 -4 7 -4 17 -1 22 3 6 1 10 -5 10 -6 0 -13 -7 -15 -15 -16 -52 -14
-49 -34 -31 -9 9 -21 13 -26 9 -4 -5 -2 2 4 15 12 22 11 23 -8 12 -12 -6 -21
-7 -21 -3 0 4 -4 3 -8 -3 -5 -8 -13 -5 -26 7 -11 11 -14 19 -8 19 6 0 13 -4
16 -9 8 -12 46 -2 46 12 0 5 8 3 18 -6 10 -10 22 -13 28 -8z m434 11 c0 -5 -5
-10 -11 -10 -5 0 -7 5 -4 10 3 6 8 10 11 10 2 0 4 -4 4 -10z m-1603 -26 c-3
-16 0 -28 9 -31 8 -3 11 -9 8 -14 -3 -6 -1 -16 6 -24 8 -10 7 -16 -6 -23 -11
-6 -13 -11 -5 -16 6 -4 11 -2 11 5 0 17 13 1 28 -34 10 -23 10 -27 0 -20 -7 4
-22 6 -32 4 -13 -2 -17 2 -13 12 3 9 -1 21 -9 28 -12 10 -20 7 -42 -14 -26
-25 -28 -25 -29 -7 -1 11 4 20 13 20 8 0 14 4 14 9 0 5 11 12 25 15 14 4 25
11 25 17 0 7 -6 6 -17 -2 -16 -13 -16 -11 1 15 10 16 14 26 8 22 -14 -8 -21
41 -9 53 17 17 20 13 14 -15z m1628 0 c-9 -9 -19 -13 -23 -10 -3 4 0 11 8 16
24 15 33 11 15 -6z m-1845 -17 c0 -2 -11 -14 -25 -27 -14 -13 -25 -21 -25 -17
0 3 10 15 22 27 21 19 28 24 28 17z m1020 -1 c0 -2 -12 -12 -27 -21 l-28 -18
19 21 c17 20 36 29 36 18z m524 -17 c-3 -5 -10 -7 -15 -3 -5 3 -7 10 -3 15 3
5 10 7 15 3 5 -3 7 -10 3 -15z m-24 -9 c11 -11 27 -20 35 -20 8 0 15 -4 15
-10 0 -13 -17 -13 -25 0 -3 5 -12 7 -20 3 -9 -3 -15 1 -15 10 0 11 -7 13 -22
9 -21 -5 -22 -4 -9 11 17 21 17 21 41 -3z m-355 -10 c-3 -5 -11 -10 -16 -10
-6 0 -7 5 -4 10 3 6 11 10 16 10 6 0 7 -4 4 -10z m699 -11 c-3 -5 -10 -7 -15
-3 -5 3 -7 10 -3 15 3 5 10 7 15 3 5 -3 7 -10 3 -15z m-1873 -12 c-10 -9 -11
-8 -5 6 3 10 9 15 12 12 3 -3 0 -11 -7 -18z m979 9 c0 -2 -8 -10 -17 -17 -16
-13 -17 -12 -4 4 13 16 21 21 21 13z m937 -29 c4 -21 3 -21 -11 -2 -15 19 -15
19 -9 -4 4 -18 2 -22 -8 -19 -8 3 -13 14 -11 24 2 18 2 18 -12 0 -16 -20 -38
-14 -29 9 3 9 14 13 29 11 13 -3 26 0 30 5 8 14 17 4 21 -24z m-1987 19 c0 -3
-4 -8 -10 -11 -5 -3 -10 -1 -10 4 0 6 5 11 10 11 6 0 10 -2 10 -4z m105 -16
c-3 -5 -11 -10 -16 -10 -6 0 -7 5 -4 10 3 6 11 10 16 10 6 0 7 -4 4 -10z m32
-7 c0 -10 -4 -21 -9 -24 -6 -4 2 -9 16 -13 14 -3 26 -13 26 -21 0 -21 -11 -18
-36 8 -16 16 -19 28 -13 45 10 26 16 28 16 5z m-182 -3 c3 -5 1 -10 -4 -10 -6
0 -11 5 -11 10 0 6 2 10 4 10 3 0 8 -4 11 -10z m60 0 c-3 -5 -12 -10 -18 -10
-7 0 -6 4 3 10 19 12 23 12 15 0z m759 -21 c-3 -5 -10 -7 -15 -3 -5 3 -7 10
-3 15 3 5 10 7 15 3 5 -3 7 -10 3 -15z m-584 -23 c0 -4 -9 -1 -19 6 -11 7 -17
16 -15 20 5 8 34 -15 34 -26z m110 19 c0 -2 -6 -8 -13 -14 -10 -8 -14 -7 -14
2 0 8 6 14 14 14 7 0 13 -1 13 -2z"/>
<path d="M3526 2940 c-97 -34 -235 -139 -252 -192 -3 -10 -9 -18 -14 -18 -8 0
-40 -72 -40 -92 0 -13 35 22 105 104 22 26 46 48 54 50 8 2 28 18 44 36 16 17
38 32 48 32 10 0 19 4 19 8 0 13 67 39 128 52 49 9 58 8 103 -15 55 -27 62
-33 103 -88 19 -24 35 -36 44 -32 8 3 21 0 28 -6 8 -6 14 -8 14 -3 0 5 5 2 10
-6 9 -13 10 -13 10 0 0 42 -102 142 -158 155 -9 2 -35 11 -57 18 -75 26 -106
26 -189 -3z m304 -70 c0 18 80 -59 80 -77 0 -8 -18 5 -40 29 -22 24 -40 38
-40 31 0 -6 4 -15 10 -18 11 -7 33 -45 26 -45 -7 0 -66 87 -66 96 0 4 7 -1 15
-12 10 -14 14 -15 15 -4z m-520 -108 c0 -5 -7 -17 -15 -28 -14 -18 -14 -17 -4
9 12 27 19 34 19 19z"/>
<path d="M4031 2814 c0 -11 3 -14 6 -6 3 7 2 16 -1 19 -3 4 -6 -2 -5 -13z"/>
<path d="M3593 2603 c-18 -2 -33 -9 -33 -14 0 -11 50 -1 65 12 5 5 7 8 5 7 -3
0 -20 -3 -37 -5z"/>
<path d="M3540 2591 c0 -8 -8 -23 -17 -34 -17 -19 -17 -20 4 -8 29 15 34 24
22 41 -7 13 -9 13 -9 1z"/>
<path d="M3719 2584 c18 -8 40 -22 48 -30 8 -7 18 -14 22 -14 5 0 20 -12 35
-26 14 -15 26 -22 26 -17 0 27 -115 105 -152 102 -7 0 2 -7 21 -15z"/>
<path d="M3504 2575 c-10 -8 -14 -15 -8 -15 6 0 17 7 24 15 16 19 9 19 -16 0z"/>
<path d="M2387 2529 c-21 -5 -47 -14 -58 -19 -13 -7 -19 -7 -19 0 0 17 -15 11
-56 -21 -22 -16 -45 -44 -52 -62 -20 -47 -32 -132 -22 -164 8 -28 8 -28 10 -3
1 14 4 19 7 13 11 -28 19 -10 20 41 2 68 38 150 72 166 51 23 355 5 390 -23
11 -9 15 -9 18 1 3 6 9 10 14 6 14 -8 11 12 -3 24 -39 30 -250 57 -321 41z"/>
<path d="M3431 2497 c-13 -21 -12 -21 5 -5 10 10 16 20 13 22 -3 3 -11 -5 -18
-17z"/>
<path d="M3305 2459 c-4 -6 -5 -12 -2 -15 2 -3 7 2 10 11 7 17 1 20 -8 4z"/>
<path d="M3425 2459 c-4 -6 -5 -12 -2 -15 2 -3 7 2 10 11 7 17 1 20 -8 4z"/>
<path d="M3555 2396 c-52 -16 -98 -41 -114 -60 -19 -22 -10 -20 62 14 35 17
77 29 93 29 16 -1 22 -3 12 -6 -9 -2 -19 -15 -22 -29 -5 -18 -14 -24 -34 -25
-15 -1 -20 -3 -12 -5 8 -3 40 0 70 5 47 7 50 9 20 11 l-35 2 30 9 c17 5 40 7
53 4 25 -6 27 -2 12 26 -10 17 -7 19 32 19 41 0 133 -19 172 -35 14 -6 17 -4
14 5 -2 8 -27 22 -54 32 -59 21 -238 23 -299 4z"/>
<path d="M2690 2386 c0 -2 9 -6 20 -9 11 -3 18 -1 14 4 -5 9 -34 13 -34 5z"/>
<path d="M2759 2362 c37 -26 109 -66 86 -48 -11 9 -28 23 -37 30 -21 18 -54
36 -65 35 -4 0 3 -8 16 -17z"/>
<path d="M2788 2305 c63 -35 93 -46 57 -21 -37 25 -96 56 -108 56 -7 0 16 -16
51 -35z"/>
<path d="M4316 2268 c-14 -18 -23 -35 -20 -38 3 -2 13 5 22 16 27 34 47 35 75
6 30 -32 57 -84 57 -109 0 -10 5 -25 11 -33 17 -24 0 79 -21 127 -31 70 -83
83 -124 31z"/>
<path d="M2672 2280 c31 -4 75 -17 98 -29 24 -12 44 -20 47 -18 2 3 -20 16
-48 31 -38 19 -67 26 -103 25 l-51 -2 57 -7z"/>
<path d="M2578 2263 c-16 -2 -28 -9 -28 -14 0 -5 -8 -9 -17 -9 -10 0 -27 -7
-37 -15 -11 -8 -18 -15 -15 -15 11 1 110 38 116 44 10 10 54 7 90 -6 28 -10
55 -6 42 6 -7 7 -122 14 -151 9z"/>
<path d="M2750 2230 c8 -5 20 -10 25 -10 6 0 3 5 -5 10 -8 5 -19 10 -25 10 -5
0 -3 -5 5 -10z"/>
<path d="M3495 2220 c15 -6 8 -9 -30 -12 l-50 -4 53 -2 c29 -1 52 2 52 8 0 6
5 10 11 10 6 0 8 -9 4 -22 -7 -23 -7 -23 8 -3 20 27 13 35 -31 34 -29 0 -33
-2 -17 -9z"/>
<path d="M3584 2198 l-19 -23 23 19 c12 11 22 21 22 23 0 8 -8 2 -26 -19z"/>
<path d="M3630 2205 c-7 -9 -8 -15 -2 -15 5 0 12 7 16 15 3 8 4 15 2 15 -2 0
-9 -7 -16 -15z"/>
<path d="M2433 2155 c-8 -9 -9 -16 -3 -20 6 -3 13 1 16 10 9 21 2 26 -13 10z"/>
<path d="M2720 2116 c-75 -22 -133 -52 -177 -92 -42 -40 -98 -136 -90 -157 3
-7 8 -3 13 8 9 24 56 89 67 94 5 2 28 22 51 46 56 56 113 77 69 26 -16 -20
-28 -61 -17 -61 14 0 74 48 64 52 -6 2 -8 11 -5 21 8 18 25 23 25 7 0 -14 47
-13 56 1 4 7 0 9 -13 5 -21 -7 -52 19 -39 31 4 4 34 7 66 8 59 0 75 7 44 19
-24 9 -64 6 -114 -8z m-40 -96 c-20 -13 -33 -13 -25 0 3 6 14 10 23 10 15 0
15 -2 2 -10z"/>
<path d="M4330 2100 c0 -7 48 -20 78 -20 25 0 9 8 -36 18 -23 6 -42 6 -42 2z"/>
<path d="M2855 2060 c-3 -5 -1 -10 4 -10 6 0 11 5 11 10 0 6 -2 10 -4 10 -3 0
-8 -4 -11 -10z"/>
<path d="M3400 2049 c0 -4 -7 -6 -15 -3 -8 4 -15 2 -15 -3 0 -8 115 -53 135
-53 15 1 -35 40 -51 40 -8 0 -14 4 -14 9 0 5 -9 11 -20 14 -11 3 -20 1 -20 -4z"/>
<path d="M4260 2034 c-8 -20 -6 -36 9 -70 11 -24 24 -44 29 -44 5 0 14 -11 20
-25 14 -30 3 -64 -33 -103 -39 -42 -29 -51 11 -11 28 28 37 47 41 80 3 39 0
48 -32 84 -40 45 -46 97 -11 103 21 4 79 -23 113 -52 30 -25 41 -14 12 12 -31
30 -82 52 -118 52 -25 0 -34 -6 -41 -26z"/>
<path d="M2870 2020 c0 -5 -6 -7 -14 -4 -8 3 -16 1 -20 -4 -3 -5 5 -8 16 -7
19 1 41 25 24 25 -3 0 -6 -4 -6 -10z"/>
<path d="M3008 1963 c-28 -32 -40 -64 -33 -90 4 -17 2 -23 -6 -18 -8 6 -8 2 0
-14 18 -32 35 -25 55 20 10 23 27 50 37 60 27 27 23 39 -13 40 l-33 2 35 7 35
7 -31 2 c-18 0 -37 -6 -46 -16z m7 -57 c-10 -14 -22 -26 -29 -25 -7 0 -6 2 2
6 6 2 12 10 12 17 0 13 21 38 28 32 2 -2 -4 -16 -13 -30z"/>
<path d="M3340 1884 c-18 -45 -12 -55 16 -29 21 20 30 22 46 14 30 -16 36 0 9
22 -33 27 -60 24 -71 -7z"/>
<path d="M3102 1798 c-7 -7 -11 -26 -11 -42 1 -24 3 -26 6 -8 4 18 11 22 44
22 44 0 51 16 13 30 -33 13 -37 13 -52 -2z"/>
<path d="M4394 1796 c-7 -7 -23 -30 -36 -52 -14 -21 -40 -54 -58 -71 -33 -32
-31 -46 2 -20 16 12 118 144 118 153 0 8 -15 3 -26 -10z"/>
<path d="M3700 1539 c-23 -10 -81 -26 -280 -79 -41 -11 -87 -29 -101 -40 -26
-19 -144 -70 -161 -70 -5 0 -24 -11 -42 -25 -18 -14 -38 -25 -45 -25 -7 0 -10
-4 -7 -9 8 -12 40 -3 63 19 11 10 30 21 44 25 13 4 76 32 140 61 64 30 123 54
131 54 9 0 35 7 59 16 24 8 78 22 119 29 83 16 130 33 130 46 0 11 -18 10 -50
-2z"/>
<path d="M3475 1328 c-44 -16 -118 -41 -164 -55 -77 -22 -110 -42 -111 -67 0
-5 15 -5 33 -1 43 10 69 8 77 -4 6 -11 74 3 95 19 6 4 46 20 90 35 44 15 84
32 90 36 16 15 -14 10 -47 -7 -18 -9 -59 -24 -93 -34 -34 -10 -72 -24 -84 -31
-18 -11 -25 -11 -28 -2 -2 7 -12 9 -21 6 -13 -5 -14 -3 -5 7 6 6 28 12 48 12
26 0 34 3 24 9 -12 7 -12 9 1 9 34 0 90 22 84 32 -4 6 1 8 15 3 16 -5 78 8 99
21 6 4 -9 44 -16 43 -4 0 -43 -14 -87 -31z m70 -7 c-6 -5 -21 -12 -35 -16 -24
-7 -24 -7 -5 9 21 16 56 23 40 7z"/>
<path d="M3222 1178 c7 -4 22 -8 33 -8 11 0 26 4 33 8 8 5 -5 9 -33 9 -28 0
-41 -4 -33 -9z"/>
<path d="M4195 873 c-26 -6 -39 -19 -27 -27 5 -3 21 3 33 14 13 11 22 19 19
19 -3 -1 -14 -3 -25 -6z"/>
<path d="M4305 760 c-3 -6 1 -7 9 -4 10 4 16 1 16 -8 0 -8 8 -22 18 -31 15
-14 19 -15 19 -2 0 8 -4 12 -8 10 -11 -7 -19 21 -8 32 5 5 -1 9 -16 11 -13 1
-27 -3 -30 -8z"/>
<path d="M4120 595 c-8 -9 -8 -15 -2 -15 12 0 26 19 19 26 -2 2 -10 -2 -17
-11z"/>
<path d="M4085 450 c-3 -5 -3 -14 0 -20 3 -5 2 -10 -4 -10 -5 0 -11 6 -14 13
-2 6 -4 -1 -4 -16 -1 -47 54 -61 60 -16 2 8 6 19 9 24 4 6 3 17 -3 25 -7 12
-9 10 -9 -7 0 -13 -4 -23 -9 -23 -5 0 -7 9 -4 20 5 21 -11 28 -22 10z m21 -47
c-10 -11 -37 -12 -30 -2 3 5 12 9 21 9 9 0 13 -3 9 -7z"/>
<path d="M4016 422 c-2 -4 4 -9 15 -9 10 -1 19 2 19 8 0 11 -27 12 -34 1z"/>
<path d="M3825 350 c-3 -5 -1 -10 4 -10 6 0 11 5 11 10 0 6 -2 10 -4 10 -3 0
-8 -4 -11 -10z"/>
<path d="M4375 660 c3 -5 11 -10 16 -10 6 0 7 5 4 10 -3 6 -11 10 -16 10 -6 0
-7 -4 -4 -10z"/>
<path d="M4226 661 c-18 -19 -18 -21 -2 -21 9 0 15 4 11 9 -3 5 -1 12 4 15 10
7 9 -20 -2 -30 -10 -11 -9 -24 3 -24 6 0 10 6 10 14 0 8 5 16 10 18 7 2 6 10
-3 21 -12 18 -14 17 -31 -2z"/>
<path d="M4300 591 c-9 -3 -15 -13 -15 -21 1 -21 -17 -38 -34 -32 -10 4 -10 7
3 14 9 5 13 14 10 20 -5 7 -12 5 -21 -7 -7 -11 -13 -15 -13 -11 0 5 -7 3 -15
-4 -12 -10 -13 -16 -4 -26 16 -20 -1 -17 -23 3 -11 9 -18 11 -18 5 0 -7 5 -12
11 -12 7 0 5 -9 -5 -24 l-16 -25 31 17 c24 13 33 14 36 5 7 -18 30 -16 41 3 7
12 11 13 16 5 4 -7 2 -18 -4 -26 -7 -8 -9 -15 -5 -15 4 0 2 -7 -5 -15 -6 -8
-9 -19 -5 -25 3 -5 2 -10 -4 -10 -6 0 -18 16 -27 35 -9 20 -20 37 -24 40 -12
7 -10 -68 2 -82 13 -16 1 -34 -17 -26 -8 3 -15 0 -15 -5 0 -6 9 -9 20 -7 12 2
23 -2 27 -10 9 -24 25 -17 19 8 -6 22 -6 22 6 -1 9 -19 9 -25 -3 -33 -8 -5 -9
-9 -3 -9 23 0 36 27 24 51 -13 22 -1 38 28 39 16 0 15 11 -3 37 -14 20 -14 23
4 33 25 13 44 13 36 0 -4 -6 -10 -8 -14 -6 -4 3 -8 -1 -8 -9 0 -18 3 -18 28
-5 29 16 4 53 -31 46 -14 -3 -19 -3 -12 0 10 5 9 9 -4 18 -15 12 -15 13 -1 19
9 3 16 2 14 -2 -1 -5 1 -9 6 -10 4 -1 7 1 7 4 0 3 0 10 0 15 0 6 -8 10 -17 10
-14 1 -13 4 6 14 25 14 17 28 -9 17z m-65 -60 c-2 -5 7 -7 20 -5 14 1 28 -3
32 -9 3 -7 3 -9 -2 -5 -4 4 -17 2 -28 -3 -15 -8 -22 -8 -28 2 -12 19 -11 42 1
34 6 -4 8 -10 5 -14z m55 -101 c0 -5 -4 -10 -10 -10 -5 0 -10 5 -10 10 0 6 5
10 10 10 6 0 10 -4 10 -10z"/>
<path d="M4240 460 c0 -5 5 -10 10 -10 6 0 10 5 10 10 0 6 -4 10 -10 10 -5 0
-10 -4 -10 -10z"/>
<path d="M4751 439 c11 -21 49 -21 49 -1 0 12 -3 12 -15 2 -13 -11 -19 -8 -17
11 1 3 -5 6 -13 6 -10 0 -11 -5 -4 -18z"/>
<path d="M4730 405 c0 -9 5 -15 11 -13 6 2 11 8 11 13 0 5 -5 11 -11 13 -6 2
-11 -4 -11 -13z"/>
<path d="M4840 401 c0 -5 5 -13 10 -16 6 -3 10 -2 10 4 0 5 -4 13 -10 16 -5 3
-10 2 -10 -4z"/>
<path d="M4757 339 c-23 -13 -22 -25 4 -32 17 -5 18 -3 7 11 -8 10 -9 13 -1 9
6 -4 14 -3 17 2 9 15 -7 21 -27 10z"/>
<path d="M4875 250 c-3 -5 -2 -10 4 -10 5 0 13 5 16 10 3 6 2 10 -4 10 -5 0
-13 -4 -16 -10z"/>
<path d="M4956 232 c-3 -5 1 -9 9 -9 8 0 12 4 9 9 -3 4 -7 8 -9 8 -2 0 -6 -4
-9 -8z"/>
<path d="M4850 176 c0 -9 5 -16 10 -16 6 0 10 4 10 9 0 6 -4 13 -10 16 -5 3
-10 -1 -10 -9z"/>
<path d="M4375 260 c3 -5 8 -10 11 -10 2 0 4 5 4 10 0 6 -5 10 -11 10 -5 0 -7
-4 -4 -10z"/>
<path d="M4512 346 c-16 -26 -9 -35 14 -18 13 9 24 20 24 23 0 10 -31 6 -38
-5z"/>
<path d="M4536 281 c-4 -7 -5 -15 -2 -18 9 -9 19 4 14 18 -4 11 -6 11 -12 0z"/>
<path d="M3083 326 c5 -13 3 -17 -7 -13 -10 4 -12 0 -9 -14 4 -15 8 -17 19 -8
17 14 18 35 2 45 -8 5 -9 2 -5 -10z"/>
<path d="M3253 239 c-1 -10 5 -19 13 -19 17 0 18 14 1 28 -10 8 -13 6 -14 -9z"/>
<path d="M4696 156 c3 -8 1 -17 -5 -21 -6 -3 -11 1 -11 10 0 9 -4 13 -10 10
-6 -4 -5 -13 3 -26 10 -17 13 -17 23 -4 6 8 13 13 16 10 2 -3 5 2 5 10 0 8 -6
16 -13 19 -8 3 -11 0 -8 -8z"/>
<path d="M2730 222 c0 -5 7 -13 16 -16 10 -4 14 -1 12 6 -5 15 -28 23 -28 10z"/>
<path d="M2523 169 c3 -12 0 -22 -9 -26 -18 -7 -8 -23 14 -23 15 0 15 2 2 10
-13 8 -11 11 7 16 19 5 20 9 10 25 -16 25 -31 24 -24 -2z"/>
<path d="M2570 165 c0 -14 4 -25 10 -25 5 0 7 7 4 15 -4 8 -1 15 6 15 6 0 8 5
5 10 -11 18 -25 10 -25 -15z"/>
<path d="M2495 100 c3 -5 8 -10 11 -10 2 0 4 5 4 10 0 6 -5 10 -11 10 -5 0 -7
-4 -4 -10z"/>
<path d="M4455 170 c-3 -5 -1 -10 4 -10 6 0 11 5 11 10 0 6 -2 10 -4 10 -3 0
-8 -4 -11 -10z"/>
<path d="M2301 3689 c-18 -17 -31 -33 -29 -35 3 -2 20 12 38 31 42 43 35 46
-9 4z"/>
<path d="M1885 3219 c-4 -6 -5 -12 -2 -15 2 -3 7 2 10 11 7 17 1 20 -8 4z"/>
<path d="M450 3213 c-40 -5 -66 -23 -32 -23 19 0 21 -6 25 -57 l3 -58 2 56 c2
54 3 57 33 63 17 3 28 10 24 16 -3 5 -9 9 -13 8 -4 0 -23 -3 -42 -5z"/>
<path d="M563 3210 c-27 -11 -55 -63 -51 -93 2 -17 11 -23 39 -25 30 -3 41 2
58 24 25 32 27 67 5 88 -17 18 -20 18 -51 6z m47 -24 c20 -26 -8 -70 -48 -74
-30 -3 -32 -1 -32 27 0 46 54 78 80 47z"/>
<path d="M817 3202 c-9 -10 -17 -22 -17 -26 0 -4 -9 -19 -20 -33 -11 -14 -20
-37 -20 -50 0 -22 2 -23 15 -9 27 26 57 30 73 10 12 -17 13 -13 6 31 -4 27
-10 60 -13 73 -6 23 -7 23 -24 4z m21 -55 c2 -12 -3 -17 -17 -17 -23 0 -24 1
-15 25 8 19 28 15 32 -8z"/>
<path d="M945 3190 c-19 -37 -28 -38 -44 -4 -6 15 -14 24 -17 21 -3 -3 2 -19
11 -37 10 -20 14 -42 10 -61 -11 -49 8 -32 41 37 30 64 30 103 -1 44z"/>
<path d="M648 3153 c2 -32 6 -60 8 -62 11 -12 60 18 77 46 29 51 16 73 -42 73
l-48 0 5 -57z m82 18 c0 -22 -45 -65 -60 -56 -6 3 -8 19 -6 33 2 15 5 30 5 34
1 8 42 16 54 10 4 -2 7 -11 7 -21z"/>
<path d="M1862 3165 c-17 -37 -14 -45 4 -12 9 16 14 31 11 33 -2 2 -9 -7 -15
-21z"/>
<path d="M996 3104 c-9 -23 -7 -46 3 -40 12 8 21 45 11 51 -4 3 -11 -2 -14
-11z"/>
<path d="M330 2980 c-15 -37 -23 -38 -39 -4 -6 15 -14 24 -17 21 -3 -3 2 -19
10 -36 10 -18 14 -41 10 -56 -11 -44 10 -26 36 30 14 30 28 55 32 55 5 0 8 5
8 10 0 22 -28 8 -40 -20z"/>
<path d="M408 2993 c-27 -30 -39 -72 -28 -94 14 -24 37 -24 78 1 30 19 33 24
30 63 -3 39 -5 42 -34 45 -19 2 -36 -3 -46 -15z m72 -27 c0 -28 -45 -68 -69
-64 -23 4 -26 46 -5 69 9 10 30 19 46 19 23 0 28 -4 28 -24z"/>
<path d="M516 2953 c-8 -67 2 -82 40 -64 20 9 30 9 40 0 12 -10 14 -1 14 55 0
37 -4 66 -10 66 -5 0 -10 -20 -10 -44 0 -44 -10 -56 -47 -56 -13 0 -15 9 -11
45 3 25 2 47 -2 50 -4 2 -10 -21 -14 -52z"/>
<path d="M727 3004 c-11 -11 -8 -112 3 -119 6 -4 25 2 43 12 37 22 57 65 41
91 -11 17 -74 29 -87 16z m75 -39 c-3 -20 -37 -55 -53 -55 -11 0 -12 63 -2 74
4 4 19 6 33 4 19 -2 24 -8 22 -23z"/>
<path d="M840 2943 c0 -36 2 -64 4 -62 9 11 15 129 6 129 -6 0 -10 -30 -10
-67z"/>
<path d="M903 3003 c-9 -3 -13 -26 -13 -64 0 -65 11 -73 60 -43 l25 15 -32 -5
c-25 -4 -33 -2 -33 9 0 8 4 15 8 15 5 0 17 7 28 16 18 15 18 15 -8 11 -22 -3
-28 0 -28 14 0 12 7 19 19 19 11 0 23 5 26 10 6 10 -30 13 -52 3z"/>
<path d="M1014 3002 c-10 -6 -11 -34 -5 -104 2 -26 15 -22 56 13 42 38 49 83
13 93 -30 8 -51 7 -64 -2z m66 -27 c0 -23 -30 -65 -46 -65 -14 0 -20 60 -7 73
13 14 53 7 53 -8z"/>
<path d="M1130 2894 c0 -8 5 -12 10 -9 6 3 10 10 10 16 0 5 -4 9 -10 9 -5 0
-10 -7 -10 -16z"/>
<path d="M1771 2874 c0 -11 3 -14 6 -6 3 7 2 16 -1 19 -3 4 -6 -2 -5 -13z"/>
<path d="M1746 2784 c-4 -20 -5 -38 -3 -40 3 -3 8 11 11 32 4 20 5 38 3 40 -3
3 -8 -11 -11 -32z"/>
<path d="M1711 2632 c-40 -171 -38 -425 4 -539 19 -52 18 -37 -2 55 -25 115
-23 308 5 456 13 65 21 120 19 122 -2 2 -13 -40 -26 -94z"/>
<path d="M616 1673 c-30 -3 -36 -7 -25 -14 10 -7 4 -8 -21 -4 -27 5 -32 4 -20
-5 12 -9 10 -11 -12 -7 -19 3 -28 0 -28 -9 0 -7 -16 -15 -37 -19 -21 -3 -58
-12 -83 -21 -153 -54 -167 -63 -307 -200 l-83 -80 0 -218 c0 -201 1 -218 17
-212 16 6 16 6 0 -12 -9 -10 -17 -23 -17 -28 1 -5 14 7 30 26 17 19 30 30 30
25 0 -6 -14 -25 -31 -43 -17 -18 -29 -37 -27 -41 4 -11 98 96 98 111 0 6 -7 5
-18 -3 -15 -13 -16 -12 -4 3 8 10 19 16 24 15 12 -2 50 59 112 178 41 80 106
155 161 187 17 10 50 31 75 48 133 89 237 120 401 120 120 0 209 -30 389 -132
l35 -20 -25 21 c-14 12 -51 35 -84 52 -77 40 -64 50 16 12 80 -38 185 -141
194 -190 3 -18 10 -33 15 -33 11 0 11 3 -1 36 -9 24 -9 25 5 14 8 -7 15 -19
15 -26 0 -8 5 -14 10 -14 13 0 3 47 -16 78 -8 12 -10 22 -5 22 15 0 28 -23 40
-67 13 -48 31 -66 31 -31 0 18 2 20 10 8 5 -8 10 -24 10 -36 0 -11 12 -30 26
-43 15 -13 23 -28 20 -37 -4 -9 3 -18 17 -24 17 -7 18 -9 5 -9 -18 -1 -26 -21
-9 -21 13 0 64 -50 57 -57 -3 -3 -12 0 -20 6 -9 7 -16 8 -20 2 -4 -5 7 -19 24
-31 29 -21 60 -67 60 -90 0 -6 -11 2 -24 17 -14 16 -28 24 -33 19 -4 -5 -2
-11 5 -13 7 -3 17 -14 23 -25 8 -15 8 -19 0 -14 -15 10 -14 -2 7 -65 16 -46
18 -83 16 -259 -1 -135 -7 -228 -17 -273 -8 -37 -11 -67 -6 -67 13 0 11 -16
-8 -58 -21 -48 -43 -105 -43 -114 0 -5 9 -8 19 -8 12 0 23 11 30 30 13 39 38
39 46 0 5 -23 12 -30 31 -30 l25 0 -27 35 c-14 19 -30 35 -35 35 -21 0 -7 40
24 67 34 30 76 83 96 121 7 14 14 91 18 200 5 179 -3 282 -31 362 -7 22 -10
37 -5 34 12 -7 11 -2 -7 42 -18 42 -60 106 -111 168 -18 22 -33 51 -33 65 -1
36 -35 136 -62 179 -20 33 -68 82 -183 187 -71 65 -204 114 -292 106 -17 -1
-46 6 -65 16 -18 10 -46 24 -63 30 l-30 13 35 -6 c19 -4 54 -15 77 -25 51 -23
65 -24 36 -4 -46 33 -170 55 -292 53 -64 -1 -134 -3 -155 -5z m-61 -163 c-3
-5 -14 -10 -23 -10 -10 0 -26 -6 -37 -13 -54 -36 -98 -60 -91 -49 14 23 111
82 134 82 13 0 20 -4 17 -10z m-275 -18 c-14 -9 -48 -38 -76 -64 -60 -57 -75
-62 -38 -13 31 42 102 95 123 94 11 0 8 -5 -9 -17z m74 -5 c-21 -11 -35 -23
-162 -129 -31 -26 -58 -45 -61 -42 -4 4 78 81 159 149 23 19 52 35 63 35 l22
-1 -21 -12z m-228 -74 c-24 -27 -61 -66 -82 -88 -20 -22 -30 -30 -22 -18 19
29 135 153 143 153 4 0 -14 -21 -39 -47z m249 37 c-3 -5 -12 -10 -18 -10 -7 0
-6 4 3 10 19 12 23 12 15 0z m-65 -55 c-7 -8 -17 -15 -22 -15 -6 0 -5 7 2 15
7 8 17 15 22 15 6 0 5 -7 -2 -15z m1042 -82 c8 -10 18 -27 22 -38 4 -11 3 -15
-1 -10 -5 6 -19 22 -32 38 -14 15 -20 27 -14 27 5 0 17 -8 25 -17z m302 -515
c9 -17 16 -41 16 -52 -1 -17 -3 -15 -14 10 -31 71 -32 104 -2 42z m13 -210
c-3 -7 -5 -2 -5 12 0 14 2 19 5 13 2 -7 2 -19 0 -25z m0 -100 c-2 -13 -4 -5
-4 17 -1 22 1 32 4 23 2 -10 2 -28 0 -40z"/>
<path d="M460 1630 c0 -5 5 -10 10 -10 6 0 10 5 10 10 0 6 -4 10 -10 10 -5 0
-10 -4 -10 -10z"/>
<path d="M356 1100 c-22 -11 -46 -26 -55 -34 -24 -22 -54 -76 -42 -76 6 0 11
7 11 15 0 13 24 32 43 34 4 0 22 8 40 16 28 14 30 14 13 0 -11 -8 -24 -15 -29
-15 -5 0 -6 -8 -3 -17 4 -10 4 -14 0 -11 -3 4 -17 -5 -29 -20 -38 -43 -12 -47
45 -7 32 23 51 31 47 21 -8 -20 6 -21 23 -1 21 25 79 36 122 23 21 -6 38 -15
38 -19 0 -14 39 -5 45 9 7 20 -16 35 -108 71 -91 36 -108 37 -161 11z m89 -60
c-3 -5 -12 -10 -18 -10 -7 0 -6 4 3 10 19 12 23 12 15 0z m-75 -30 c0 -5 -4
-10 -10 -10 -5 0 -10 5 -10 10 0 6 5 10 10 10 6 0 10 -4 10 -10z"/>
<path d="M290 1015 c-7 -9 -10 -18 -7 -21 3 -3 10 4 17 15 13 25 8 27 -10 6z"/>
<path d="M556 818 c4 -13 10 -25 14 -28 4 -3 12 -16 19 -30 l12 -25 -20 25
c-24 30 -28 20 -5 -15 9 -14 20 -23 24 -20 4 3 11 -2 14 -11 3 -8 2 -12 -4 -9
-18 11 -10 -25 10 -45 12 -12 15 -20 8 -20 -9 0 -8 -4 2 -10 25 -16 32 -11 25
18 -4 15 -9 35 -11 46 -5 29 -28 76 -36 76 -5 0 -7 3 -7 8 3 20 -3 31 -21 37
-11 4 -18 11 -15 16 4 5 1 9 -5 9 -7 0 -9 -8 -4 -22z"/>
<path d="M1325 767 c39 -23 115 -107 115 -127 0 -11 5 -20 10 -20 6 0 10 -7
10 -15 0 -8 5 -15 11 -15 6 0 8 -9 4 -20 -4 -11 -2 -20 4 -20 6 0 11 12 11 26
0 16 4 23 11 18 6 -3 9 -22 7 -40 -5 -39 15 -47 33 -13 18 34 5 102 -27 145
-50 64 -99 94 -158 93 -44 0 -48 -2 -31 -12z m185 -107 c0 -5 -2 -10 -4 -10
-3 0 -8 5 -11 10 -3 6 -1 10 4 10 6 0 11 -4 11 -10z"/>
<path d="M434 637 c15 -19 26 -38 26 -43 0 -5 8 -18 17 -29 15 -19 15 -19 8
10 -7 33 -50 95 -66 95 -6 0 1 -15 15 -33z"/>
<path d="M243 618 c-22 -11 -39 -38 -24 -38 5 0 14 6 20 14 26 31 69 30 120
-4 54 -34 75 -61 88 -111 11 -39 33 -51 33 -17 0 21 -34 83 -73 130 -28 35
-116 49 -164 26z"/>
<path d="M637 604 c3 -7 9 -14 14 -14 14 0 10 17 -5 23 -10 4 -13 1 -9 -9z"/>
<path d="M492 530 c0 -8 4 -26 8 -40 6 -20 8 -21 8 -5 0 11 -3 29 -8 40 -5 12
-8 14 -8 5z"/>
<path d="M1070 530 c-8 -5 -10 -10 -5 -10 6 0 17 5 25 10 8 5 11 10 5 10 -5 0
-17 -5 -25 -10z"/>
<path d="M1095 518 c-27 -14 -40 -17 -43 -9 -5 14 -32 -5 -32 -21 0 -6 6 -6
14 1 11 9 15 9 19 -1 3 -10 8 -9 23 3 10 9 33 24 49 32 17 9 26 16 20 16 -5 0
-28 -9 -50 -21z"/>
<path d="M376 515 c4 -9 0 -15 -10 -15 -9 0 -16 5 -16 10 0 16 -17 12 -24 -6
-9 -24 13 -46 41 -39 17 4 23 1 23 -10 0 -9 5 -13 10 -10 14 9 13 58 -2 73
-17 17 -29 15 -22 -3z"/>
<path d="M254 482 c3 -6 -2 -13 -11 -16 -11 -3 -8 -4 7 -3 30 2 109 -35 151
-70 29 -25 29 -25 21 -2 -5 12 -34 36 -68 54 -67 37 -110 53 -100 37z"/>
<path d="M1211 439 c-35 -14 -93 -50 -88 -55 2 -2 25 7 51 22 25 14 62 26 81
27 19 1 35 5 35 9 0 11 -49 9 -79 -3z"/>
<path d="M1183 346 c-76 -24 -142 -76 -98 -76 8 0 15 5 15 11 0 5 25 22 56 36
90 41 159 21 200 -58 18 -37 28 -32 19 9 -15 70 -104 106 -192 78z"/>
<path d="M370 330 c20 -13 113 -13 105 0 -3 6 -32 10 -63 10 -41 0 -53 -3 -42
-10z"/>
<path d="M413 303 c9 -2 23 -2 30 0 6 3 -1 5 -18 5 -16 0 -22 -2 -12 -5z"/>
<path d="M1200 274 c0 -12 -6 -15 -25 -10 -21 5 -25 3 -25 -15 0 -19 4 -21 31
-15 22 4 29 2 27 -7 -3 -6 -22 -13 -44 -15 -21 -1 -49 -5 -62 -7 -20 -5 -21
-7 -8 -20 8 -8 23 -15 33 -15 10 0 45 -7 77 -15 66 -17 88 -13 29 5 -21 6 -47
15 -58 20 -11 5 -31 11 -45 13 -14 2 -2 5 26 6 31 0 58 -5 70 -14 22 -17 34
-19 34 -6 0 5 -9 13 -20 16 -15 5 -19 12 -15 25 7 22 -4 70 -16 70 -5 0 -9 -7
-9 -16z"/>
<path d="M546 239 c-34 -21 -66 -52 -66 -66 0 -8 5 -11 10 -8 6 3 10 -1 10 -9
0 -24 20 -29 39 -12 10 9 41 19 68 23 45 5 51 8 51 30 0 36 -74 64 -112 42z
m64 -30 c19 -1 15 -3 -14 -10 -21 -5 -45 -17 -52 -27 -11 -15 -12 -13 -9 13 2
17 4 32 4 34 1 2 11 1 24 -3 12 -3 33 -6 47 -7z"/>
<path d="M548 203 c7 -3 16 -2 19 1 4 3 -2 6 -13 5 -11 0 -14 -3 -6 -6z"/>
<path d="M3793 204 c-13 -28 -8 -31 14 -8 9 9 12 19 7 24 -5 5 -14 -1 -21 -16z"/>
<path d="M1030 161 c0 -5 -8 -12 -17 -14 -11 -3 -6 -5 12 -7 17 -1 24 -4 18
-7 -24 -9 -13 -20 15 -16 l27 4 -25 -15 c-25 -15 -25 -15 20 -17 25 -1 35 -4
23 -6 -34 -6 -28 -20 6 -15 16 2 32 -1 35 -7 4 -6 12 -11 18 -11 16 0 -9 27
-74 76 -32 24 -58 40 -58 35z"/>
<path d="M3776 161 c-15 -6 -16 -10 -7 -15 8 -5 20 -2 29 8 17 17 9 19 -22 7z"/>
<path d="M2734 125 c-18 -14 -18 -14 4 -8 22 5 31 -10 12 -22 -5 -3 -10 -11
-10 -18 0 -18 29 26 30 46 0 21 -10 22 -36 2z"/>
<path d="M3875 130 c4 -6 11 -8 16 -5 14 9 11 15 -7 15 -8 0 -12 -5 -9 -10z"/>
<path d="M4169 138 c-6 -12 -5 -48 1 -48 8 0 20 25 20 41 0 8 -18 13 -21 7z"/>
<path d="M4325 128 c-10 -24 3 -42 20 -28 9 8 14 6 19 -6 5 -13 9 -15 18 -6 9
9 15 7 26 -10 l13 -23 -4 22 c-4 20 -2 22 19 17 15 -4 24 -2 24 5 0 6 -10 11
-23 11 -13 0 -32 6 -42 14 -13 9 -25 11 -37 5 -11 -6 -18 -5 -21 4 -3 8 -7 7
-12 -5z m59 -19 c-3 -5 -10 -7 -15 -3 -5 3 -7 10 -3 15 3 5 10 7 15 3 5 -3 7
-10 3 -15z"/>
<path d="M3765 120 c-8 -13 5 -13 25 0 13 8 13 10 -2 10 -9 0 -20 -4 -23 -10z"/>
<path d="M3923 103 c-7 -3 -13 -9 -13 -14 0 -4 7 -6 16 -2 12 4 15 2 12 -8 -3
-8 -11 -13 -17 -11 -6 1 -11 -3 -11 -8 0 -11 7 -12 32 -2 14 6 14 11 5 28 -7
12 -18 19 -24 17z"/>
<path d="M2343 79 c4 -15 2 -19 -10 -15 -8 3 -17 6 -19 6 -3 0 -2 6 2 13 5 9
4 9 -6 1 -9 -10 -8 -16 8 -32 11 -11 24 -17 30 -13 12 7 11 61 -2 61 -4 0 -6
-9 -3 -21z"/>
<path d="M574 69 c-19 -21 -19 -22 4 -15 14 5 29 3 38 -5 19 -15 28 -6 19 20
-8 27 -37 27 -61 0z"/>
<path d="M2370 75 c0 -8 7 -15 15 -15 9 0 12 6 9 15 -4 8 -10 15 -15 15 -5 0
-9 -7 -9 -15z"/>
<path d="M2637 83 c-12 -11 -8 -23 8 -23 8 0 15 7 15 15 0 16 -12 20 -23 8z"/>
<path d="M4200 86 c0 -2 7 -9 15 -16 13 -11 14 -10 9 4 -5 14 -24 23 -24 12z"/>
<path d="M4447 73 c-10 -9 -9 -23 1 -23 5 0 9 7 9 15 0 17 -1 18 -10 8z"/>
<path d="M4760 74 c0 -1 7 -10 16 -18 21 -22 54 -21 54 2 0 14 2 15 9 2 11
-17 -22 -45 -41 -34 -7 5 -8 3 -3 -6 5 -8 3 -11 -6 -8 -8 3 -13 11 -11 17 1 6
-2 11 -8 11 -5 0 -10 -4 -10 -9 0 -11 -30 -19 -48 -14 -6 3 -10 8 -7 13 3 4
-5 6 -17 2 -14 -3 -19 -2 -14 6 4 7 1 12 -8 12 -9 0 -16 -4 -16 -9 0 -12 -39
-21 -46 -10 -3 5 -14 9 -25 9 -11 0 -17 5 -14 10 3 6 0 10 -8 10 -8 0 -17 -7
-21 -15 -3 -8 -2 -14 2 -14 24 4 23 -4 -3 -15 -30 -12 -29 -13 20 -12 28 1 56
5 64 10 10 6 16 5 19 -3 3 -9 8 -9 20 1 12 10 14 10 8 1 -4 -7 -3 -13 3 -13 5
0 11 5 13 12 3 7 9 8 19 2 8 -4 36 -9 63 -10 59 -2 96 18 96 52 0 27 -21 32
-40 9 -15 -19 -30 -19 -30 -2 0 8 -7 14 -15 14 -8 0 -15 -2 -15 -3z m-150 -59
c0 -2 -9 -3 -19 -2 -11 0 -18 5 -15 9 4 6 34 0 34 -7z"/>
<path d="M4170 60 c0 -4 7 -13 15 -20 9 -7 14 -19 11 -27 -3 -7 1 -13 10 -13
10 0 14 6 11 15 -4 8 -2 17 3 20 5 3 11 -3 14 -13 3 -10 17 -19 31 -20 28 -2
34 12 9 22 -10 4 -14 14 -11 26 3 13 0 20 -9 20 -18 0 -18 -10 2 -40 l16 -25
-21 24 c-12 13 -27 21 -36 17 -9 -3 -15 0 -15 8 0 7 -7 13 -15 13 -8 0 -15 -4
-15 -7z"/>
<path d="M4695 60 c-3 -5 1 -10 9 -10 9 0 16 5 16 10 0 6 -4 10 -9 10 -6 0
-13 -4 -16 -10z"/>
<path d="M2520 47 c0 -9 6 -18 13 -20 7 -3 5 -6 -5 -6 -17 -1 -27 -21 -10 -21
18 1 34 19 30 35 -4 23 -28 32 -28 12z"/>
<path d="M4610 50 c0 -5 4 -10 9 -10 6 0 13 5 16 10 3 6 -1 10 -9 10 -9 0 -16
-4 -16 -10z"/>
<path d="M1118 43 c7 -3 16 -2 19 1 4 3 -2 6 -13 5 -11 0 -14 -3 -6 -6z"/>
<path d="M2356 35 c-16 -12 -17 -18 -8 -27 9 -9 12 -8 12 4 0 9 6 18 14 21 22
9 28 -5 8 -19 -9 -7 -12 -13 -7 -13 6 0 19 6 30 15 17 13 18 16 5 24 -20 13
-32 12 -54 -5z"/>
<path d="M2818 34 c-32 -17 -34 -20 -12 -28 8 -3 12 -2 9 4 -3 6 5 14 19 20
14 5 26 12 26 15 0 8 -13 5 -42 -11z"/>
<path d="M3694 30 c5 -23 4 -23 -8 -7 -13 17 -46 14 -46 -5 0 -5 5 -6 11 -2 6
3 15 1 19 -6 5 -8 16 -9 30 -5 12 4 18 10 13 14 -6 3 -13 13 -17 21 -3 8 -4 4
-2 -10z"/>
<path d="M2232 27 c10 -8 14 -18 10 -22 -4 -5 -1 -5 6 -1 17 10 15 14 -10 26
-21 10 -21 10 -6 -3z"/>
<path d="M2685 30 c-3 -5 -2 -10 4 -10 5 0 13 5 16 10 3 6 2 10 -4 10 -5 0
-13 -4 -16 -10z"/>
<path d="M3840 30 c-10 -6 -11 -12 -5 -18 6 -5 17 -2 28 10 18 19 4 25 -23 8z"/>
<path d="M4160 24 c0 -8 5 -12 10 -9 6 4 8 11 5 16 -9 14 -15 11 -15 -7z"/>
<path d="M4495 30 c-3 -5 1 -10 9 -10 9 0 16 5 16 10 0 6 -4 10 -9 10 -6 0
-13 -4 -16 -10z"/>
<path d="M785 10 c-4 -6 8 -10 30 -10 22 0 34 4 30 10 -8 13 -52 13 -60 0z"/>
<path d="M2310 10 c-13 -8 -12 -10 3 -10 9 0 17 5 17 10 0 12 -1 12 -20 0z"/>
<path d="M2610 10 c0 -5 5 -10 11 -10 5 0 7 5 4 10 -3 6 -8 10 -11 10 -2 0 -4
-4 -4 -10z"/>
<path d="M2845 10 c-3 -5 -1 -10 4 -10 6 0 11 5 11 10 0 6 -2 10 -4 10 -3 0
-8 -4 -11 -10z"/>
<path d="M2885 10 c-17 -8 -16 -8 8 -7 15 1 27 5 27 9 0 10 -9 9 -35 -2z"/>
<path d="M3868 3 c7 -3 16 -2 19 1 4 3 -2 6 -13 5 -11 0 -14 -3 -6 -6z"/>
<path d="M4128 3 c7 -3 16 -2 19 1 4 3 -2 6 -13 5 -11 0 -14 -3 -6 -6z"/>
</g>
</svg>
