<?xml version="1.0" standalone="no"?>
<!DOCTYPE svg PUBLIC "-//W3C//DTD SVG 20010904//EN"
 "http://www.w3.org/TR/2001/REC-SVG-20010904/DTD/svg10.dtd">
<svg version="1.0" xmlns="http://www.w3.org/2000/svg"
 width="656.000000pt" height="245.000000pt" viewBox="0 0 656.000000 245.000000"
 preserveAspectRatio="xMidYMid meet">

<g transform="translate(0.000000,245.000000) scale(0.100000,-0.100000)"
fill="#000000" stroke="none">
<path d="M111 2418 c6 -18 13 -40 17 -48 3 -8 6 -19 7 -25 0 -5 3 -14 6 -20 5
-8 30 -77 34 -95 1 -3 7 -18 13 -33 7 -16 12 -33 12 -38 0 -5 4 -17 9 -27 5
-9 38 -98 75 -196 61 -167 64 -181 49 -198 -8 -9 -24 -20 -34 -23 -11 -4 -16
-11 -13 -17 4 -5 18 1 34 17 25 24 28 25 33 8 3 -10 12 -36 20 -58 13 -35 13
-42 -1 -63 -8 -12 -29 -30 -46 -39 -17 -8 -46 -29 -64 -47 -33 -30 -34 -30
-48 -11 -13 17 -12 21 13 41 20 16 25 26 17 34 -8 8 -14 7 -24 -5 -16 -19 -26
-19 -34 2 -4 10 3 26 20 44 33 35 23 61 -12 28 -13 -12 -26 -20 -29 -17 -12
12 -75 205 -75 229 0 15 -7 32 -15 39 -11 9 -14 22 -9 46 5 26 3 34 -9 34 -10
0 -14 11 -14 38 0 21 -3 44 -7 50 -4 7 -3 18 3 25 7 9 5 16 -9 24 -12 8 -16
19 -13 33 3 11 0 20 -6 20 -17 0 -13 -193 6 -260 8 -30 16 -62 18 -70 2 -8 4
-17 6 -20 1 -3 3 -9 4 -15 2 -5 4 -13 5 -17 1 -5 4 -12 5 -18 1 -5 3 -11 5
-12 1 -2 3 -12 4 -23 4 -26 30 -129 72 -285 19 -69 36 -134 38 -145 2 -11 10
-33 17 -50 7 -16 11 -35 10 -42 -1 -7 8 -17 19 -23 11 -6 20 -16 20 -22 0 -7
-6 -6 -17 3 -15 11 -16 11 -6 0 6 -7 9 -20 6 -27 -3 -8 0 -14 7 -14 6 0 8 5 4
12 -4 7 -3 8 4 4 6 -4 8 -14 5 -23 -5 -12 -3 -14 8 -8 11 7 12 6 2 -6 -7 -9
-8 -20 -3 -29 5 -8 7 -17 5 -20 -2 -4 9 -20 25 -35 28 -27 31 -28 47 -13 13
13 14 20 5 31 -7 8 -9 16 -7 19 11 11 14 48 4 48 -6 0 -8 4 -5 9 3 5 15 7 26
4 23 -6 23 10 0 62 -7 17 -13 47 -12 69 2 31 0 37 -11 28 -10 -9 -21 7 -50 76
-20 48 -38 92 -39 98 -2 6 24 33 57 60 33 27 67 57 76 68 17 21 39 14 39 -12
0 -17 -63 -77 -81 -77 -5 0 -8 -4 -6 -10 1 -5 11 -9 22 -7 11 1 25 3 32 4 6 1
9 6 7 13 -3 6 4 19 15 30 18 15 23 16 38 4 11 -9 14 -10 9 -1 -4 6 -3 12 2 12
8 0 17 -20 27 -60 0 -3 8 -27 18 -55 9 -27 16 -53 14 -56 -1 -3 4 -13 11 -22
8 -9 11 -21 7 -27 -3 -5 -1 -10 4 -10 6 0 11 -6 11 -14 0 -8 5 -27 12 -43 7
-15 13 -32 13 -38 1 -5 5 -17 8 -25 4 -8 13 -37 21 -64 14 -45 14 -51 -2 -62
-9 -8 -22 -14 -28 -14 -6 0 -19 -9 -29 -20 -9 -10 -20 -19 -24 -18 -20 2 -31
-3 -26 -12 19 -32 -59 -52 -94 -26 -12 9 -13 8 -6 -4 7 -12 6 -13 -6 -3 -8 6
-22 11 -31 10 -21 -4 -65 -45 -83 -79 -20 -37 -18 -48 4 -21 18 21 19 22 24 3
3 -10 -1 -31 -9 -46 -8 -14 -14 -33 -14 -40 0 -33 -18 -10 -23 29 -3 23 -21
98 -41 166 -39 135 -112 455 -147 646 -22 118 -58 240 -59 199 0 -12 7 -38 15
-58 14 -32 14 -39 0 -66 -19 -36 -19 -64 -1 -31 16 29 16 28 36 -79 29 -160
115 -532 147 -638 22 -76 34 -136 34 -170 -1 -42 2 -54 16 -59 21 -8 33 -22
33 -42 0 -7 -6 -11 -15 -8 -8 4 -17 2 -20 -3 -7 -11 15 -60 27 -60 4 0 17 -9
28 -20 23 -23 60 -27 60 -6 0 7 7 19 15 26 8 7 14 18 13 24 -2 7 8 25 22 42
18 22 33 29 55 28 17 0 32 -2 35 -3 19 -10 82 -6 88 4 4 7 17 15 28 19 19 6
22 2 27 -26 5 -39 -20 -72 -44 -57 -11 7 -9 10 9 15 12 4 22 11 22 16 0 11
-54 -18 -89 -47 -21 -17 -23 -18 -18 -3 4 12 1 18 -7 18 -9 0 -12 -7 -9 -18 2
-10 0 -34 -5 -53 l-10 -34 -1 34 c-1 26 -4 32 -12 24 -8 -8 3 -64 45 -212 31
-111 59 -216 61 -233 3 -18 11 -59 20 -91 8 -32 15 -60 15 -62 0 -3 17 -5 38
-5 23 0 51 9 74 25 l38 25 6 -25 c5 -22 12 -25 46 -25 l41 0 -7 43 c-3 23 -10
69 -16 102 -31 198 -30 189 -15 201 8 6 15 15 15 19 0 4 -7 1 -17 -6 -15 -13
-16 -11 -11 13 3 17 0 29 -8 32 -8 3 -14 17 -14 31 0 30 -19 113 -31 137 -5
10 -9 31 -9 47 0 17 -4 32 -9 35 -4 3 -11 31 -15 63 -4 31 -11 62 -17 69 -8 9
7 22 58 50 37 20 93 51 123 69 86 49 524 263 554 271 22 5 26 3 26 -17 0 -18
-3 -20 -12 -11 -33 33 -43 -18 -18 -88 18 -48 18 -64 9 -189 -5 -75 -14 -161
-20 -191 -17 -90 -59 -264 -70 -285 -8 -18 -34 -99 -60 -195 -6 -19 -17 -64
-25 -100 -8 -36 -17 -73 -20 -82 -5 -16 4 -18 94 -18 96 0 99 1 110 25 7 14
12 39 12 56 0 17 6 32 15 35 8 4 15 15 15 25 0 12 -5 16 -15 13 -8 -4 -15 -2
-15 4 0 5 7 12 15 16 23 8 18 28 -5 21 -11 -3 -20 -2 -20 2 0 5 -18 19 -40 32
-33 19 -38 25 -31 44 5 12 21 92 36 177 15 85 31 163 36 172 5 10 6 24 3 31
-3 9 8 22 30 35 31 18 36 27 36 57 0 56 -28 42 -49 -25 l-11 -35 6 40 c16 103
30 243 28 269 -1 18 1 24 6 16 4 -7 6 35 3 94 -4 73 -2 106 5 106 13 0 27 -84
17 -100 -4 -6 -1 -18 6 -26 9 -11 9 -18 1 -26 -15 -15 -16 -38 -2 -38 6 0 10
6 10 13 0 20 104 167 118 167 7 0 11 4 7 9 -3 5 6 18 20 29 14 11 25 24 25 30
0 25 164 112 239 127 12 2 53 27 91 55 38 27 73 50 77 50 9 0 -99 -84 -166
-128 -29 -20 -48 -38 -42 -40 7 -2 26 8 44 22 18 14 59 47 92 73 33 26 74 62
91 80 32 33 57 42 69 23 3 -5 11 -10 16 -10 6 0 7 5 4 10 -9 15 24 85 48 99
16 10 21 10 28 -1 23 -35 5 13 -31 84 -46 93 -52 144 -19 174 21 19 22 19 33
-1 6 -11 26 -33 45 -50 103 -91 114 -105 107 -136 -3 -16 -21 -64 -41 -106
-19 -42 -35 -85 -35 -97 0 -35 -23 -70 -50 -76 -16 -4 -26 -14 -28 -28 -2 -12
-16 -29 -33 -37 -16 -9 -54 -49 -85 -91 -34 -45 -62 -73 -70 -70 -7 3 -16 1
-19 -5 -11 -16 -27 2 -21 25 5 21 5 21 -9 1 -39 -55 -57 -58 -30 -5 9 18 14
34 12 36 -3 3 -13 -12 -23 -33 -11 -21 -27 -40 -37 -41 -16 -3 -14 5 13 57 16
34 27 61 22 61 -4 0 -22 -29 -40 -65 -31 -63 -33 -65 -70 -65 -40 0 -67 14
-74 40 -3 9 -7 10 -11 3 -4 -6 0 -18 8 -27 18 -18 91 -40 104 -31 5 3 7 -5 3
-17 -3 -14 -2 -19 6 -14 7 4 12 13 12 21 0 7 7 15 15 19 18 6 19 2 4 -25 -6
-11 -8 -25 -6 -32 2 -7 11 5 20 26 19 45 41 51 25 7 -5 -17 -14 -33 -19 -36
-5 -3 -9 -13 -9 -22 0 -13 2 -13 15 4 11 15 14 16 15 3 0 -25 -24 -69 -38 -69
-27 0 -72 -60 -72 -95 0 -40 47 -99 72 -90 12 5 15 -4 16 -42 3 -64 21 -210
32 -253 5 -19 9 -88 10 -153 0 -64 3 -124 6 -132 8 -20 -32 -149 -51 -165 -8
-7 -15 -21 -15 -31 0 -10 -9 -19 -22 -21 -12 -2 -23 -9 -26 -15 -2 -9 10 -13
41 -13 44 0 45 1 65 48 39 90 52 139 46 170 -6 29 -3 33 39 53 43 21 47 21 71
6 14 -10 34 -17 45 -17 14 0 21 -10 26 -37 11 -60 31 -89 86 -123 28 -17 49
-34 45 -37 -3 -3 2 -19 11 -34 33 -56 123 -23 123 44 0 42 17 32 41 -23 l21
-49 325 0 324 -1 -33 39 c-18 22 -42 61 -52 88 -11 26 -23 51 -28 54 -12 8 69
110 85 108 7 -1 48 15 92 36 44 21 123 53 175 71 52 18 88 33 79 33 -24 1
-158 -44 -235 -79 -37 -16 -75 -30 -86 -30 -11 0 -43 -25 -73 -56 -43 -46 -54
-53 -57 -38 -6 25 24 70 81 121 25 23 43 44 39 48 -8 9 -70 -47 -99 -90 -26
-38 -39 -44 -39 -19 0 24 84 119 148 167 30 23 49 43 43 45 -6 2 -9 8 -5 13 3
5 1 9 -3 9 -16 0 -58 -33 -119 -92 -61 -60 -61 -60 -68 -34 -4 15 -11 24 -16
21 -6 -4 -8 -12 -5 -18 3 -7 -2 -2 -11 11 -9 12 -23 22 -30 22 -19 0 -18 16 3
40 24 28 31 25 36 -12 l4 -33 1 31 c2 31 2 31 51 26 43 -4 53 -1 75 21 15 16
23 32 20 41 -5 12 0 16 19 16 14 0 39 11 56 25 l30 26 51 -26 c74 -38 180 -73
218 -72 50 1 38 17 -15 19 -37 1 -40 2 -15 5 17 2 32 9 32 15 0 7 4 7 13 0 15
-13 83 -19 94 -9 4 4 -3 11 -16 14 l-24 6 24 19 24 19 -33 -16 c-40 -19 -46
-18 -187 48 -99 47 -117 52 -180 52 -38 0 -81 -3 -95 -8 -32 -9 -63 8 -40 22
25 17 6 21 -24 6 -16 -8 -36 -15 -45 -15 -25 0 -79 -56 -102 -106 -21 -44 -36
-61 -45 -51 -7 7 22 63 53 105 13 17 20 32 14 32 -5 0 -24 -25 -41 -55 -17
-30 -36 -52 -41 -49 -6 3 -8 12 -5 19 3 8 0 15 -6 17 -16 6 39 84 99 139 27
25 47 51 45 58 -2 6 4 11 14 11 9 0 29 14 44 30 39 44 96 70 155 71 l50 2 -40
6 c-38 6 -39 7 -15 15 27 10 70 10 135 0 32 -5 38 -4 28 6 -34 36 -309 13
-380 -31 -35 -22 -36 -22 -49 -4 -8 10 -14 22 -14 25 0 3 23 15 52 26 29 10
56 20 60 22 4 2 8 0 8 -5 0 -5 -15 -14 -33 -21 -18 -6 -42 -19 -52 -27 -11 -8
15 1 58 20 43 19 83 35 90 35 7 0 23 10 37 21 14 11 20 18 14 15 -14 -7 -26
31 -13 40 5 3 9 -2 9 -10 0 -10 9 -16 23 -16 18 0 19 -2 7 -10 -8 -5 -10 -10
-4 -10 5 0 14 4 20 9 5 5 25 11 44 14 27 3 23 4 -17 5 -53 2 -60 6 -45 29 9
15 137 20 217 9 41 -6 47 -5 31 5 -11 7 -57 12 -103 13 -56 1 -83 5 -83 13 0
6 10 14 23 16 12 2 5 3 -15 2 -21 -2 -38 0 -38 4 0 12 24 38 40 44 10 4 8 6
-6 6 -15 1 -27 -9 -38 -33 -12 -26 -25 -36 -56 -44 -44 -11 -50 -4 -20 23 11
10 20 23 20 29 -1 6 -14 -4 -30 -23 -16 -19 -38 -36 -47 -37 -10 -2 -31 -18
-46 -36 -17 -20 -35 -32 -46 -30 -11 2 -22 -2 -26 -7 -4 -7 1 -8 12 -4 13 4
15 3 7 -6 -11 -12 -44 -5 -44 10 0 5 27 22 59 39 55 27 84 50 64 50 -4 0 -34
-16 -66 -35 -32 -19 -62 -35 -68 -35 -23 0 -5 21 39 46 60 35 59 34 43 44 -17
10 -43 2 -35 -12 6 -9 -23 -37 -38 -38 -18 0 35 69 57 74 29 7 57 -2 48 -17
-4 -6 4 -7 23 -3 39 10 77 29 75 39 -1 4 13 24 31 43 18 20 32 41 30 45 -1 5
10 14 25 20 16 6 35 16 43 24 18 16 49 21 73 10 10 -4 21 -5 24 -1 4 3 -1 6
-10 6 -9 0 -17 5 -17 11 0 8 23 9 78 4 42 -4 78 -8 80 -10 2 -1 -6 -23 -18
-48 -24 -51 -57 -65 -102 -42 -16 7 -28 9 -28 4 0 -5 5 -9 10 -9 6 0 10 -4 10
-8 0 -4 -23 -7 -52 -5 -29 1 -59 -2 -68 -7 -12 -7 -12 -9 5 -8 11 0 44 -3 74
-6 36 -4 57 -2 62 5 4 8 10 5 18 -9 8 -16 6 -25 -10 -46 -12 -15 -19 -29 -16
-32 3 -3 18 13 33 35 24 33 35 41 62 41 20 0 31 4 27 10 -4 6 -16 8 -27 4 -16
-5 -20 -3 -15 9 10 27 100 146 107 142 3 -2 2 -41 -3 -87 -7 -70 -12 -86 -33
-101 -13 -10 -24 -23 -24 -29 0 -6 10 -3 21 8 l22 19 -7 -90 c-6 -94 -4 -98
14 -26 19 71 22 40 6 -58 -15 -91 -35 -149 -36 -106 -1 20 -1 20 -12 1 -8 -15
-8 -21 0 -24 7 -2 9 -15 5 -34 -9 -47 13 -26 25 24 6 24 26 67 45 97 l34 53 6
-68 c4 -38 7 -94 7 -123 0 -83 15 -50 34 74 9 61 19 116 22 124 3 9 18 -1 44
-30 21 -24 39 -47 40 -52 0 -4 -11 -25 -25 -46 -49 -74 -42 -189 15 -254 16
-19 34 -54 39 -78 10 -45 8 -137 -4 -174 -4 -15 4 -29 30 -55 27 -26 42 -55
62 -117 15 -51 22 -90 18 -100 -5 -10 -7 -21 -7 -25 1 -5 0 -8 -3 -8 -11 0
-39 69 -51 126 -15 74 -46 137 -85 177 -40 40 -36 26 13 -46 36 -52 43 -70 43
-112 1 -37 9 -64 33 -105 17 -30 34 -67 38 -82 6 -32 34 -38 34 -8 0 11 5 20
10 20 6 0 10 -9 10 -20 0 -19 7 -20 153 -20 108 1 147 4 135 11 -10 5 -18 20
-18 32 0 15 -3 18 -8 9 -13 -20 -51 -1 -81 40 -14 20 -46 63 -71 96 -58 78
-99 144 -126 207 -35 78 -46 325 -15 325 9 0 47 -90 43 -103 -1 -5 2 -6 7 -3
5 4 19 -9 30 -28 24 -38 28 -59 6 -30 -21 28 -18 13 10 -48 21 -47 28 -80 38
-198 1 -14 4 -27 7 -30 10 -10 57 -115 64 -142 3 -16 11 -28 16 -28 5 0 2 23
-6 51 -8 28 -13 56 -11 62 2 7 14 -21 26 -62 12 -40 24 -71 27 -68 6 6 -28
129 -50 179 -9 21 -16 47 -16 58 0 11 -7 32 -16 45 -9 13 -17 30 -18 37 -1 7
-10 26 -20 41 -10 15 -16 30 -13 34 4 3 10 -2 14 -12 3 -11 26 -37 50 -60 24
-23 43 -49 43 -57 0 -9 7 -18 15 -21 8 -4 25 -28 39 -54 27 -52 73 -89 121
-97 17 -2 30 -5 30 -6 0 -2 21 -4 46 -5 l46 -2 -5 48 c-3 37 -1 49 9 50 8 0
22 2 32 4 22 4 34 -22 18 -38 -8 -8 -11 -6 -12 9 -1 15 -3 14 -9 -6 l-8 -25
-2 25 c-2 22 -3 21 -12 -9 -7 -26 -6 -36 4 -42 21 -14 25 -12 70 54 60 85 66
96 40 73 -12 -11 -22 -15 -22 -11 0 16 51 74 63 71 6 -1 9 -1 4 1 -13 8 -7 23
11 24 18 0 157 180 157 204 0 8 16 31 35 51 22 23 28 35 17 31 -14 -5 -17 -3
-13 11 3 9 8 34 12 55 3 20 9 37 13 37 9 0 35 -43 37 -61 3 -43 16 -89 24 -89
6 0 10 6 11 13 0 6 4 3 9 -8 7 -16 9 -11 9 20 0 29 -2 35 -8 20 -6 -14 -10 3
-15 54 -4 40 -5 75 -2 79 3 3 6 -6 6 -21 0 -17 7 -28 21 -32 20 -7 20 -11 13
-123 -7 -126 -25 -194 -74 -293 -80 -161 -160 -248 -295 -317 l-60 -31 668 -1
c367 0 667 4 667 8 0 16 -48 54 -59 47 -6 -3 -9 -10 -6 -15 3 -5 0 -12 -6 -16
-7 -4 -9 -3 -5 4 10 17 -13 25 -32 10 -16 -12 -16 -11 0 14 14 21 15 28 4 37
-9 7 -16 7 -24 -1 -8 -8 -16 -8 -28 3 -12 9 -15 10 -10 1 14 -24 -7 -12 -39
23 -25 26 -30 37 -21 44 9 7 16 7 24 -1 8 -8 15 -8 25 0 8 7 16 10 19 7 2 -3
5 2 5 10 0 8 -3 13 -5 10 -3 -3 -12 1 -21 8 -14 11 -14 10 -2 -5 15 -21 2 -24
-18 -5 -11 10 -12 9 -6 -2 5 -10 4 -12 -4 -7 -6 4 -9 11 -6 16 3 5 1 11 -5 15
-5 3 -10 11 -10 16 0 6 6 7 13 2 18 -11 38 -13 31 -2 -3 5 -9 7 -13 4 -5 -2
-18 6 -30 19 -31 33 -8 45 27 15 19 -17 22 -18 11 -4 -9 11 -15 29 -12 40 2
11 5 26 5 33 1 7 6 11 12 9 6 -3 10 -9 9 -14 -1 -5 5 -10 13 -10 12 0 11 5 -4
20 -13 13 -25 16 -33 11 -16 -10 -69 -13 -69 -4 0 3 5 11 12 18 7 7 8 12 4 12
-5 0 -2 8 5 17 13 16 12 17 -3 4 -16 -12 -18 -11 -18 5 -1 17 -2 17 -13 4 -7
-8 -21 -16 -32 -18 -17 -2 -16 1 8 23 20 18 35 24 49 19 11 -3 26 -7 34 -8 16
-2 56 -37 49 -44 -9 -9 17 -43 30 -38 7 2 19 -3 27 -12 8 -9 8 -13 1 -9 -11 7
-11 -3 -4 -65 1 -5 6 -8 12 -8 8 0 7 6 -2 17 -13 15 -12 15 6 3 25 -16 96 -97
75 -85 -12 6 -13 5 -2 -6 14 -15 16 -33 3 -25 -11 7 -8 -21 4 -31 4 -5 5 -1 0
7 -5 9 -5 12 1 7 5 -5 9 -13 9 -17 0 -5 17 -27 38 -49 20 -21 37 -44 37 -50 0
-6 18 -11 40 -11 35 0 40 3 40 23 0 12 -26 63 -58 112 -83 129 -89 147 -63
184 12 16 21 41 21 55 0 24 2 25 48 19 43 -5 52 -2 92 29 67 50 90 103 90 209
0 87 0 88 45 155 25 37 56 74 68 83 57 39 130 120 151 166 36 77 43 212 16
289 -25 72 -25 94 -2 119 13 15 17 38 17 111 0 96 -5 114 -66 239 -16 32 -27
68 -25 80 1 12 1 16 -1 10 -3 -7 -7 -13 -10 -13 -9 0 -42 45 -43 59 0 14 -37
51 -52 51 -4 0 -8 5 -8 11 0 5 4 8 9 5 5 -3 11 5 13 19 6 28 -3 32 -22 10 -7
-8 -16 -15 -20 -15 -12 0 -50 37 -50 48 0 6 -7 9 -15 6 -8 -3 -22 2 -32 11
-16 16 -18 16 -35 -6 l-19 -23 -26 28 c-21 23 -32 27 -59 23 -19 -3 -36 -1
-40 4 -3 5 -14 7 -25 4 -11 -4 -19 -2 -19 4 0 6 5 11 10 11 6 0 10 7 10 16 0
14 -2 15 -17 3 -15 -13 -16 -11 -11 14 3 15 2 27 -2 27 -16 0 -17 -27 -4 -65
17 -48 16 -48 4 -40 -6 3 -10 1 -10 -4 0 -6 -5 -11 -11 -11 -5 0 -7 5 -4 10 3
6 -3 10 -14 10 -20 0 -61 43 -61 64 0 7 9 22 20 33 15 16 16 22 6 26 -16 7
-36 -33 -36 -72 0 -22 8 -34 33 -50 34 -22 26 -25 -40 -12 -45 9 -53 2 -53
-43 0 -12 -10 -30 -22 -40 -17 -15 -20 -16 -15 -2 5 11 -1 18 -21 23 -30 7
-52 26 -52 43 0 6 -5 8 -11 5 -7 -5 -5 -13 5 -24 21 -23 20 -37 -1 -45 -15 -6
-15 -8 -3 -16 11 -7 6 -10 -18 -10 -21 0 -31 -4 -26 -11 3 -6 17 -8 33 -4 20
5 23 4 14 -6 -13 -13 -87 -4 -78 10 2 5 -4 11 -15 14 -25 7 -25 -1 1 -29 18
-19 19 -23 5 -37 -9 -9 -16 -20 -16 -26 0 -6 -7 -11 -17 -11 -9 0 -13 3 -10 7
4 3 -1 12 -11 19 -27 21 -38 16 -14 -6 28 -27 28 -38 -2 -46 -13 -3 -29 -16
-36 -29 -7 -14 -16 -22 -20 -20 -4 3 -14 -2 -21 -11 -7 -8 -25 -22 -41 -30
-15 -8 -28 -22 -28 -30 0 -13 -3 -14 -15 -4 -8 6 -18 9 -24 6 -5 -3 -43 -1
-85 6 l-76 12 -26 55 c-14 31 -30 65 -34 76 -19 47 -38 101 -39 110 -2 21 -43
140 -63 182 -11 24 -29 48 -39 53 -17 10 -17 8 -4 -25 19 -44 19 -43 -11 -37
-23 4 -25 2 -16 -14 11 -22 38 -138 48 -204 8 -57 -5 -44 -36 35 -35 89 -79
175 -90 175 -6 0 -4 -10 4 -22 15 -25 50 -207 42 -216 -3 -3 -9 4 -12 14 -13
37 -66 160 -87 203 -31 61 -53 73 -146 75 -75 3 -83 5 -126 38 -51 40 -174 75
-226 64 -39 -7 -130 -66 -206 -132 -33 -30 -65 -54 -70 -54 -5 0 -22 -13 -38
-30 -43 -45 -43 -28 0 24 21 26 33 46 27 46 -11 0 -114 -108 -139 -146 -8 -13
-19 -24 -24 -24 -10 0 45 96 74 129 l22 24 -27 -17 c-15 -10 -76 -68 -135
-129 -85 -88 -124 -121 -183 -152 -98 -52 -102 -53 -55 -11 22 19 48 35 58 36
10 0 20 7 23 15 4 8 12 15 19 15 7 0 49 42 94 93 45 51 93 101 108 112 15 11
48 38 73 60 62 56 277 195 300 195 5 0 12 5 16 11 8 14 -27 4 -79 -22 -45 -23
-45 -23 -44 -6 0 6 -1 36 -1 65 l-2 52 -407 0 c-400 0 -410 -1 -488 -24 -155
-46 -360 -121 -377 -138 -25 -25 -48 -23 -48 3 0 28 -27 48 -64 49 -32 0 -52
15 -117 90 l-21 25 16 -27 c20 -33 20 -38 2 -38 -8 0 -23 13 -32 30 -13 20
-20 26 -26 17 -6 -9 -10 -9 -20 1 -6 6 -29 12 -50 12 -36 0 -37 -1 -32 -29 5
-23 1 -32 -18 -45 -20 -13 -30 -14 -63 -4 -22 7 -42 15 -45 18 -9 11 -41 20
-35 10 14 -22 -35 0 -69 31 -11 11 -29 19 -39 19 -18 0 -16 -3 9 -25 16 -13
52 -35 81 -47 29 -13 53 -27 53 -32 0 -4 -8 -5 -17 -1 -35 14 -57 16 -28 2
l30 -15 -25 -9 c-53 -21 -70 -24 -70 -13 0 6 -5 8 -10 5 -6 -4 -8 -10 -5 -15
6 -10 -23 -22 -36 -15 -5 3 -29 -1 -55 -10 -25 -8 -60 -15 -78 -14 -17 1 -35
1 -41 -1 -5 -1 -47 -2 -93 -1 -79 1 -83 2 -77 21 4 11 2 20 -4 20 -6 0 -11 -4
-11 -10 0 -5 -4 -10 -10 -10 -5 0 -10 9 -10 20 0 11 5 20 10 20 6 0 10 9 10
20 0 11 4 29 10 40 5 11 14 29 20 40 13 26 13 30 -3 30 -14 0 -37 -40 -37 -65
0 -8 -4 -15 -9 -15 -5 0 -11 -10 -13 -22 -2 -15 -11 -24 -26 -26 -20 -3 -23
-8 -18 -28 5 -19 3 -22 -11 -18 -15 5 -15 3 2 -11 11 -9 19 -22 17 -28 -3 -9
0 -9 9 0 9 9 19 9 42 -4 25 -13 39 -13 85 -4 72 14 72 14 72 -9 0 -11 5 -20
11 -20 6 0 9 -6 6 -14 -3 -7 -1 -18 5 -24 7 -7 0 -16 -23 -28 -42 -21 -75 -46
-76 -58 -1 -10 -23 -26 -37 -26 -5 0 -2 8 5 18 7 9 1 6 -15 -8 -27 -24 -27
-25 -6 -28 11 -2 32 4 45 12 33 22 43 20 17 -3 -13 -10 -22 -30 -22 -45 0 -18
-4 -25 -12 -20 -6 4 -39 8 -72 10 -54 2 -62 0 -83 -24 -13 -15 -23 -34 -23
-43 0 -20 -31 -49 -52 -49 -27 0 -118 -82 -126 -114 -5 -19 -19 -37 -38 -46
-35 -18 -46 -32 -34 -44 4 -4 26 2 50 15 41 24 42 24 56 4 8 -11 23 -46 32
-77 18 -60 35 -76 58 -57 20 16 17 47 -6 76 -21 27 -23 25 -21 -17 1 -23 0
-23 -8 -5 -5 11 -10 30 -10 43 -1 12 -6 22 -12 22 -5 0 -17 16 -24 35 -18 41
-7 78 27 96 13 6 27 18 31 25 13 23 23 16 57 -36 31 -49 53 -64 30 -21 -7 15
-8 27 -1 39 12 19 11 24 17 -78 4 -62 20 -126 51 -197 7 -17 13 -40 13 -52 0
-25 -59 -91 -66 -74 -3 7 -11 10 -18 7 -12 -5 -26 23 -26 53 0 15 40 53 56 53
7 0 16 -9 19 -20 8 -27 25 -26 18 1 -8 30 -31 35 -70 13 -33 -17 -35 -21 -30
-61 2 -24 1 -43 -4 -43 -12 0 -29 35 -29 59 0 11 -5 23 -11 26 -7 5 -8 -4 -4
-28 6 -31 5 -35 -12 -33 -10 2 -12 1 -5 -1 17 -6 15 -21 -9 -59 -26 -42 -40
-43 -73 -3 -31 36 -34 54 -8 40 11 -6 24 -6 33 0 10 6 10 9 2 9 -7 0 -13 9
-13 19 0 11 -5 23 -11 27 -8 4 -9 -1 -4 -16 5 -15 4 -20 -4 -16 -6 4 -11 21
-11 37 0 18 -4 28 -10 24 -6 -3 -13 1 -16 9 -3 9 -10 14 -14 11 -5 -3 -11 4
-15 15 -3 11 -14 27 -23 36 -10 11 -15 30 -13 55 1 22 -1 39 -4 39 -15 0 -36
-77 -33 -118 l3 -46 -66 -35 c-64 -34 -66 -36 -52 -57 11 -18 11 -23 1 -26
-11 -4 -11 -12 0 -42 19 -51 9 -55 -13 -6 -10 22 -23 40 -29 39 -6 -1 -20 -1
-31 0 -17 1 -15 5 13 22 39 25 41 32 7 19 -51 -19 -215 -122 -210 -130 6 -9
-53 -51 -103 -73 -15 -6 -33 -17 -40 -24 -7 -7 -34 -25 -60 -40 -26 -14 -55
-33 -64 -41 -10 -8 -18 -11 -18 -6 0 5 -4 3 -9 -5 -15 -23 -38 -5 -45 33 -8
40 -62 219 -76 251 -5 11 -16 40 -24 65 -8 25 -20 59 -26 75 -7 17 -17 41 -22
55 -6 14 -14 33 -19 42 -13 26 -11 42 9 54 40 26 131 260 178 456 8 38 13 74
11 80 -3 7 -6 1 -6 -14 -1 -15 -6 -30 -11 -33 -5 -3 -10 -15 -10 -27 0 -21
-26 -109 -41 -140 -5 -10 -9 -27 -9 -38 0 -11 -4 -20 -10 -20 -5 0 -10 -11
-10 -25 0 -14 -4 -25 -10 -25 -5 0 -10 -7 -10 -15 0 -8 -4 -15 -10 -15 -5 0
-10 -6 -10 -12 0 -7 -12 -35 -26 -63 -15 -27 -32 -60 -38 -72 -14 -28 -18 -28
-35 -2 -9 15 -9 24 -2 28 12 8 6 34 -35 162 -13 42 -24 84 -24 93 0 9 -4 16
-10 16 -5 0 -10 7 -10 15 0 8 -4 23 -9 33 -6 9 -20 44 -31 77 -12 33 -27 74
-35 90 -7 17 -17 44 -23 60 -56 161 -63 175 -92 175 -28 0 -29 -1 -19 -32z
m2409 -8 c0 -5 -5 -10 -11 -10 -5 0 -8 -4 -4 -9 3 -6 -7 -9 -21 -8 -15 1 -29
8 -32 15 -3 9 3 11 22 6 16 -4 26 -2 26 5 0 6 5 11 10 11 6 0 10 -4 10 -10z
m797 -21 c12 -24 19 -26 69 -27 31 0 60 -4 65 -9 10 -10 0 -83 -12 -83 -5 0
-9 6 -9 14 0 17 -18 25 -42 18 -11 -3 -18 -14 -18 -28 0 -17 -8 -28 -26 -35
-15 -5 -24 -12 -21 -15 3 -3 14 -1 25 5 30 16 40 13 18 -4 -25 -19 -12 -19 49
0 27 8 51 12 54 10 6 -7 2 -9 -54 -28 -49 -16 -50 -17 -10 -12 40 5 40 5 15
-10 -25 -16 -24 -16 15 -10 73 12 24 -12 -95 -45 -204 -58 -311 -92 -306 -97
2 -3 44 8 93 22 119 37 297 84 302 80 1 -2 -32 -15 -75 -29 -44 -13 -69 -25
-57 -25 12 -1 44 7 70 18 61 24 117 36 110 24 -3 -5 -42 -20 -87 -33 -49 -14
-76 -27 -68 -31 14 -9 4 -13 -47 -23 l-30 -5 30 14 c48 23 15 17 -61 -10 -38
-14 -57 -23 -42 -20 14 3 34 8 43 11 15 6 16 4 7 -12 -6 -12 -35 -27 -67 -38
-31 -10 -54 -20 -52 -23 3 -3 30 4 59 14 53 20 60 19 107 -11 12 -8 11 -11 -5
-17 -10 -4 -29 -5 -41 -2 -14 3 -23 0 -23 -7 0 -6 -4 -9 -9 -5 -5 3 -44 -6
-86 -20 -113 -38 -102 -24 15 20 55 21 99 40 97 42 -9 8 -332 -115 -329 -125
1 -7 -2 -12 -8 -12 -14 0 -12 26 3 38 6 6 55 25 107 42 103 35 106 37 97 46
-4 4 -13 2 -20 -4 -8 -7 -29 -14 -48 -16 -19 -3 -61 -16 -94 -30 -33 -13 -64
-22 -69 -19 -13 9 17 22 152 69 68 23 126 45 130 48 13 14 -24 3 -145 -39 -70
-25 -130 -45 -134 -45 -4 0 -10 21 -14 46 -3 25 -9 43 -12 40 -3 -3 0 -41 7
-85 11 -74 11 -84 -7 -123 -11 -24 -26 -65 -33 -93 -7 -27 -19 -57 -26 -66 -8
-8 -15 -39 -18 -68 -3 -48 -7 -56 -37 -74 -19 -11 -58 -35 -86 -54 -29 -18
-53 -31 -53 -29 0 29 28 60 85 91 36 21 64 39 61 42 -2 3 -44 -18 -91 -46 -48
-28 -89 -51 -91 -51 -3 0 0 8 5 18 5 9 39 33 75 52 72 38 86 54 31 37 -41 -12
-51 -6 -35 22 6 12 7 21 2 21 -5 0 -14 -11 -20 -25 -10 -22 -18 -25 -67 -25
l-55 0 21 43 c12 23 28 50 37 60 8 9 13 20 9 23 -3 3 -17 -12 -31 -33 -14 -20
-26 -35 -26 -32 0 3 13 46 30 95 34 102 33 97 20 89 -5 -3 -14 -24 -20 -45 -6
-22 -14 -40 -19 -40 -4 0 -8 -14 -8 -30 0 -17 -5 -36 -11 -42 -19 -19 -22 -4
-7 25 9 19 10 27 2 27 -8 0 -8 3 1 12 19 19 14 45 -10 62 -24 17 -24 17 17 39
l30 16 -32 -6 c-26 -4 -33 -2 -33 10 0 15 34 33 56 29 6 -1 19 9 27 22 15 22
15 25 1 30 -9 3 -25 6 -37 6 -18 0 -19 -2 -7 -11 11 -7 6 -8 -20 -3 -36 7 -50
19 -50 43 0 9 6 11 18 6 9 -4 37 -9 62 -11 l45 -3 -49 9 c-59 11 -74 23 -56
45 20 24 4 30 -26 10 -25 -16 -27 -16 -48 5 -21 21 -21 21 -2 35 22 17 18 25
-13 28 -33 2 -36 34 -7 72 14 18 26 36 26 38 0 3 -24 -7 -52 -21 -29 -14 -57
-25 -61 -24 -4 1 -17 -7 -29 -18 -27 -25 -45 -26 -27 -2 20 26 53 52 67 52 7
0 39 21 70 48 32 26 76 54 100 61 23 8 42 18 42 22 0 5 -12 4 -26 -1 -22 -9
-25 -8 -20 6 3 8 6 20 6 26 0 6 15 8 34 6 21 -2 32 0 29 6 -4 5 1 7 9 3 9 -3
20 -1 25 4 11 11 55 -12 127 -63 26 -19 46 -26 60 -22 20 6 20 5 -1 -10 -13
-10 -20 -23 -17 -31 5 -11 -2 -15 -27 -16 -22 -1 -27 -3 -14 -6 62 -15 12 -53
-103 -78 -50 -11 -71 -20 -64 -27 7 -7 34 -3 84 12 41 12 85 20 99 18 21 -4
18 -7 -23 -26 -26 -12 -76 -27 -110 -33 -71 -14 -97 -29 -52 -29 43 0 132 28
182 56 44 26 47 44 9 44 -22 1 -22 1 -2 16 11 8 20 22 20 31 0 9 6 18 13 21
16 5 43 -58 36 -85 -4 -13 3 -28 20 -44 14 -13 26 -31 26 -40 0 -19 -34 -51
-77 -73 -31 -15 -32 -15 -26 1 6 16 4 16 -15 -1 -24 -21 -21 -36 7 -36 19 0
91 44 103 63 4 6 9 9 12 6 14 -14 -95 -126 -139 -142 -13 -6 -15 -11 -7 -19 8
-8 15 -8 25 0 8 7 17 9 20 5 4 -3 7 0 7 8 0 8 18 33 40 54 44 43 52 39 19 -9
-27 -39 -123 -118 -127 -105 -4 10 -52 -30 -52 -43 0 -20 40 -5 80 29 23 20
57 44 73 52 45 23 70 72 71 141 l1 59 110 37 c60 21 125 47 145 58 l35 21 -30
5 c-20 4 -26 8 -17 13 6 5 12 13 12 18 0 6 -4 7 -10 4 -5 -3 -10 1 -10 9 0 9
6 16 13 16 9 0 9 2 0 8 -19 12 -7 71 19 92 33 27 -1 20 -36 -8 -32 -24 -94
-45 -109 -35 -6 3 -7 1 -3 -5 3 -6 -3 -16 -15 -23 -19 -10 -25 -9 -36 7 -8 11
-9 22 -4 27 10 10 31 1 31 -14 0 -6 -5 -7 -12 -3 -7 5 -8 3 -3 -5 5 -9 10 -10
18 -2 7 7 7 14 -1 24 -12 14 -7 27 10 27 5 0 6 -5 2 -12 -8 -12 9 -4 36 17 8
6 44 22 79 35 58 21 64 22 73 7 9 -18 53 -23 62 -8 3 4 28 11 55 13 52 5 85
23 75 40 -8 13 -92 2 -110 -13 -11 -9 -14 -8 -14 3 0 15 82 48 110 45 8 -1 20
-14 27 -28z m-917 -59 c0 -5 -3 -10 -7 -10 -5 0 -18 -3 -30 -6 -13 -4 -23 -2
-23 4 0 10 19 18 48 21 6 0 12 -3 12 -9z m635 -89 c-4 -15 -31 -27 -108 -51
-56 -18 -104 -33 -107 -33 -3 -1 -7 3 -9 8 -2 6 -12 22 -22 37 -19 27 -19 27
2 38 11 7 30 10 40 7 10 -3 17 -1 13 4 -3 5 -1 9 5 9 9 0 31 -31 31 -43 0 -3
-14 -10 -32 -16 -44 -15 -30 -23 18 -9 21 6 48 11 59 12 11 1 19 7 18 12 -1 7
8 9 23 6 18 -3 23 -1 19 10 -4 9 4 18 22 24 34 13 37 11 28 -15z m445 19 c0
-5 -7 -10 -16 -10 -8 0 -12 5 -9 10 3 6 10 10 16 10 5 0 9 -4 9 -10z m-1385
-29 c-3 -5 -1 -12 5 -16 11 -7 14 -36 3 -33 -9 3 -103 -32 -118 -43 -20 -15
-66 -29 -60 -19 3 6 13 10 21 10 8 0 14 4 14 9 0 5 14 14 30 20 34 11 42 36 9
26 -15 -5 -19 -4 -15 4 4 6 14 11 21 11 8 0 29 9 47 20 35 21 53 26 43 11z
m1382 -27 c-3 -3 -12 -4 -19 -1 -8 3 -5 6 6 6 11 1 17 -2 13 -5z m-452 -13
c-3 -5 0 -13 5 -16 7 -5 5 -12 -7 -22 -17 -14 -17 -14 0 -9 11 4 16 2 12 -5
-4 -5 -14 -7 -23 -5 -10 3 -53 -7 -96 -24 -74 -27 -96 -30 -96 -11 0 8 164 61
188 61 6 0 12 5 12 10 0 16 -16 12 -112 -21 -49 -17 -92 -29 -95 -25 -10 10 0
15 98 45 104 32 123 35 114 22z m-868 -18 c-4 -3 -1 -13 5 -21 10 -11 7 -18
-12 -33 -14 -10 -41 -23 -60 -29 -59 -17 -67 -25 -46 -49 11 -12 25 -21 31
-21 20 0 25 -25 31 -134 3 -56 10 -102 15 -104 11 -4 12 -36 2 -46 -5 -4 -9
-24 -9 -44 -3 -77 -37 -117 -108 -129 -41 -6 -62 7 -82 52 l-13 30 -1 -32 c0
-42 -17 -51 -25 -13 -6 26 -11 30 -38 29 -30 -2 -30 -2 -5 -6 23 -4 28 -10 34
-49 3 -24 10 -44 15 -44 17 0 9 -29 -13 -44 -42 -30 -118 -10 -118 30 0 7 -11
25 -25 40 -14 16 -25 37 -23 48 1 12 -3 30 -10 42 -10 20 -9 21 23 18 33 -2
33 -2 28 34 -4 21 -12 42 -19 47 -7 6 -18 21 -24 35 -8 20 -9 13 -5 -35 7 -78
-9 -61 -24 25 -6 36 -15 66 -20 68 -6 2 -8 9 -6 15 2 7 6 24 9 39 12 55 105
90 155 57 13 -9 13 -9 -3 -4 -18 5 -19 4 -5 -12 9 -10 28 -40 42 -67 23 -41
27 -61 27 -127 0 -64 3 -79 15 -79 11 0 15 12 15 49 0 45 2 50 30 60 31 10 35
17 24 46 -5 13 -8 14 -15 3 -6 -9 -9 -7 -9 9 0 12 -5 23 -12 25 -7 3 -12 21
-12 41 0 20 -4 37 -8 37 -4 0 -8 -10 -8 -22 0 -27 -13 -15 -15 15 -1 12 -5 34
-9 48 -9 33 34 89 69 89 13 0 27 5 30 11 4 5 18 15 32 20 14 5 23 12 20 15 -3
3 -14 1 -25 -5 -26 -14 -70 -15 -56 -2 16 17 168 80 193 80 13 1 21 -2 18 -6z
m158 -53 c-10 -11 -25 -20 -34 -20 -12 0 -9 6 9 20 33 26 48 26 25 0z m745 6
c0 -7 -212 -87 -218 -82 -20 21 40 48 163 75 51 11 55 12 55 7z m440 -25 c-8
-5 -33 -12 -55 -15 l-40 -6 35 14 c40 17 85 21 60 7z m-1570 -15 c0 -7 -11
-16 -25 -18 -14 -3 -25 -2 -25 1 0 5 9 11 48 30 1 0 2 -5 2 -13z m1616 -1 c19
-19 29 -19 49 1 8 9 23 13 32 10 9 -4 14 -8 12 -11 -5 -4 -205 -77 -269 -98
-19 -6 -41 -17 -48 -24 -7 -7 -18 -13 -23 -13 -5 0 4 13 20 29 27 26 122 70
154 71 12 1 67 29 56 30 -3 0 -29 -7 -58 -16 -29 -8 -55 -13 -58 -11 -3 4 84
39 115 46 2 1 10 -6 18 -14z m-1226 -26 c0 -8 -52 -31 -57 -25 -10 9 9 27 24
22 8 -3 11 -1 8 4 -3 6 -3 15 1 21 4 8 9 7 15 -2 5 -8 9 -17 9 -20z m-98 -27
c-71 -62 -45 -110 38 -67 18 9 31 11 35 5 3 -6 0 -12 -7 -14 -63 -20 -119 -45
-103 -46 15 -1 11 -5 -14 -15 -35 -16 -48 -19 -39 -10 3 3 -3 35 -13 72 -10
36 -16 70 -13 74 8 13 45 -14 39 -28 -7 -20 10 -15 31 8 18 21 73 59 84 59 3
0 -14 -17 -38 -38z m1522 29 c3 -4 -3 -16 -14 -26 -10 -9 -17 -22 -14 -29 3
-7 -4 -21 -16 -31 -22 -20 -28 -8 -8 16 7 7 -12 -9 -42 -37 -104 -98 -115
-107 -150 -123 -60 -28 -110 -62 -110 -76 0 -7 -13 -19 -30 -27 -30 -13 -43
-35 -14 -24 9 3 28 9 42 13 33 7 174 74 224 105 20 13 40 19 45 14 4 -5 2 -11
-4 -13 -7 -3 -13 -13 -13 -22 0 -29 -109 -301 -121 -301 -3 0 -19 -11 -35 -25
-16 -14 -45 -28 -64 -31 -19 -4 -43 -16 -52 -27 -12 -16 -28 -22 -60 -22 -27
0 -43 -5 -43 -12 0 -15 -22 -37 -38 -39 -7 0 -23 -2 -37 -3 -20 -1 -22 -3 -10
-11 12 -7 10 -12 -9 -29 -13 -12 -28 -21 -34 -21 -5 0 -7 -6 -4 -14 3 -7 0
-19 -6 -25 -8 -8 -8 -11 0 -11 7 0 15 5 18 10 3 6 16 10 28 10 18 0 19 -2 7
-10 -17 -11 -10 -13 14 -4 9 3 14 10 11 14 -3 5 -1 11 5 15 5 3 10 1 10 -5 0
-7 7 -10 15 -6 8 3 15 1 15 -5 0 -16 -44 -28 -91 -24 -56 3 -54 2 -39 20 27
32 -8 13 -49 -27 -104 -103 -164 -229 -177 -368 -7 -68 -11 -78 -46 -116 -29
-32 -65 -53 -148 -89 -61 -26 -130 -60 -155 -76 -31 -20 -67 -31 -125 -39 -88
-12 -189 -49 -269 -98 -28 -18 -60 -32 -71 -32 -11 0 -20 -4 -20 -10 0 -5 -4
-10 -10 -10 -5 0 -10 12 -10 26 0 14 4 23 10 19 13 -8 12 12 -5 110 -9 52 -13
147 -12 270 2 178 3 193 26 238 15 31 29 47 40 45 21 -3 41 10 37 25 -1 7 -1
9 1 5 6 -9 31 1 67 25 l28 20 -27 -43 c-24 -38 -25 -44 -12 -58 14 -14 18 -13
42 2 22 15 28 15 46 2 24 -16 59 -10 59 11 0 8 5 11 10 8 6 -3 10 0 10 7 1 18
50 54 50 35 0 -7 -9 -23 -20 -35 -19 -21 -26 -42 -14 -42 11 0 45 43 65 83 11
20 24 37 30 37 6 0 6 -6 -1 -19 -5 -11 -10 -31 -10 -45 0 -13 -7 -31 -15 -40
-8 -8 -15 -19 -15 -25 0 -6 -6 -21 -12 -32 -11 -18 -10 -23 0 -26 8 -3 10 -9
4 -16 -5 -7 -12 -26 -15 -44 -5 -24 -2 -35 11 -43 10 -7 13 -13 6 -16 -11 -5
-3 -81 17 -156 10 -39 37 -62 57 -49 14 8 -1 158 -18 175 -6 6 -5 15 4 25 22
25 116 213 116 232 0 30 -16 30 -45 -1 -16 -17 -26 -30 -22 -30 4 0 0 -15 -10
-32 l-17 -33 -7 25 c-13 47 -7 65 31 98 37 32 40 33 62 18 12 -9 35 -16 50
-16 25 0 28 -3 28 -35 0 -29 -4 -35 -22 -35 -17 0 -19 -3 -10 -12 16 -16 42 7
42 38 0 12 5 26 10 29 6 3 10 15 10 27 0 21 29 80 43 86 4 2 7 12 7 23 0 10 4
19 9 19 5 0 11 12 13 28 2 19 8 26 21 24 19 -3 22 9 6 25 -14 14 -5 56 17 77
10 11 12 21 6 32 -15 27 10 218 29 230 5 3 9 14 9 25 0 11 6 26 13 33 10 12
15 12 31 -2 18 -16 19 -16 14 5 -6 23 17 52 30 38 4 -4 1 -10 -5 -12 -7 -3
-13 -11 -13 -19 0 -9 17 -1 46 21 51 39 104 69 104 59 0 -4 6 -1 13 5 21 17
28 1 10 -25 -8 -13 -13 -24 -10 -24 2 0 16 18 30 39 28 42 61 60 191 105 41
14 96 35 123 47 175 76 294 111 307 90z m2241 -27 c-8 -6 -15 -20 -15 -30 -1
-18 -1 -18 -15 1 -16 21 -14 41 3 38 7 -2 9 4 5 13 -5 14 -3 14 16 2 18 -11
19 -14 6 -24z m-145 10 c0 -2 -13 -10 -29 -18 -30 -16 -41 -13 -41 14 0 12 8
15 35 12 19 -2 35 -6 35 -8z m250 -10 c31 -8 39 -20 33 -45 -5 -16 -14 -19
-54 -18 -27 1 -49 6 -49 11 0 5 5 6 12 2 8 -5 9 -2 5 9 -6 16 -4 16 23 2 34
-18 40 -18 40 -5 0 6 -7 10 -15 10 -9 0 -18 6 -21 14 -3 8 -12 12 -20 9 -9 -3
-14 1 -14 12 0 11 6 15 18 11 9 -2 28 -8 42 -12z m-171 -30 l1 29 21 -27 c11
-14 25 -23 30 -20 6 3 16 -1 22 -10 14 -18 88 -58 95 -51 3 3 0 5 -6 5 -7 0
-12 4 -12 8 0 14 66 8 84 -7 23 -19 20 -5 -4 19 -29 29 -26 50 9 50 17 0 33
-4 36 -10 3 -5 -1 -10 -10 -10 -14 0 -16 -6 -10 -27 3 -15 12 -31 18 -36 8 -5
5 -7 -8 -5 -14 2 -21 -3 -23 -20 -5 -33 -49 -48 -74 -25 -10 9 -16 23 -14 30
9 23 -18 13 -57 -20 -20 -18 -39 -41 -41 -52 -6 -30 -26 -78 -30 -74 -5 5 10
98 19 122 4 10 3 17 -4 17 -6 0 -11 -3 -11 -7 0 -5 -5 -39 -10 -76 -12 -79 -6
-97 19 -66 l18 22 -1 -24 c-1 -20 10 -29 69 -58 39 -18 78 -38 88 -42 10 -6
17 -5 17 1 0 5 3 9 8 9 4 -1 17 -1 30 0 20 1 22 5 16 24 -12 37 -11 107 1 107
14 0 95 89 95 105 0 6 -5 16 -11 22 -7 7 -6 12 6 17 12 4 20 -3 30 -27 8 -19
20 -39 28 -46 21 -17 67 -117 67 -146 0 -13 6 -30 14 -37 7 -8 17 -24 20 -36
6 -19 3 -23 -23 -28 -36 -8 -44 -16 -62 -69 -8 -24 -14 -33 -17 -23 -2 9 4 31
13 48 9 18 13 35 9 38 -4 4 -8 3 -11 -3 -2 -5 -12 -28 -23 -50 l-19 -40 6 48
c4 32 2 47 -6 47 -10 0 -16 -21 -12 -44 1 -4 -4 -15 -11 -24 -10 -12 -10 -14
0 -8 6 4 12 3 12 -3 0 -6 -10 -16 -22 -22 -13 -6 -33 -20 -44 -31 -14 -13 -24
-16 -29 -9 -3 6 -1 11 4 11 6 0 11 8 11 18 0 22 33 55 44 45 4 -5 6 -1 4 7 -1
8 2 14 7 13 17 -3 15 37 -1 44 -19 7 -87 -56 -80 -74 3 -7 0 -13 -6 -13 -7 0
-7 -4 1 -13 6 -8 8 -17 4 -20 -3 -4 0 -13 7 -22 10 -13 10 -18 -3 -33 -12 -13
-13 -22 -5 -37 11 -20 11 -20 -10 -1 -12 11 -25 16 -29 13 -4 -4 2 -13 12 -21
10 -7 15 -18 11 -24 -5 -8 -2 -10 8 -6 12 5 16 -1 16 -25 0 -34 -2 -36 -30
-21 -15 8 -21 6 -30 -10 -9 -17 -8 -20 12 -20 13 0 33 -7 44 -15 12 -8 25 -11
29 -7 3 4 6 3 5 -3 -5 -21 1 -31 18 -33 9 -1 36 -5 58 -8 33 -5 49 -1 77 18
20 12 36 28 36 33 -2 17 13 55 21 55 23 0 25 -99 5 -183 -22 -96 -69 -163
-142 -204 -62 -34 -91 -59 -56 -47 15 6 15 4 -2 -9 -11 -9 -32 -17 -47 -17
-15 0 -30 -4 -33 -10 -3 -6 -17 -10 -30 -10 -26 0 -41 -15 -26 -24 5 -4 -2
-26 -16 -51 -24 -44 -38 -59 -27 -30 14 34 -6 11 -31 -37 -31 -60 -46 -81 -53
-74 -2 3 6 19 18 35 12 17 18 31 13 31 -8 0 -60 -78 -74 -110 -9 -21 -39 -45
-39 -32 0 6 6 17 13 24 17 20 48 80 43 85 -2 2 -14 -12 -26 -31 -27 -44 -47
-48 -25 -5 9 17 14 33 11 36 -3 3 -13 -11 -22 -30 -18 -37 -53 -64 -39 -30 17
42 14 55 -5 21 -20 -38 -46 -48 -66 -28 -6 6 -18 8 -28 4 -23 -9 -1 -34 30
-34 13 0 24 -5 24 -11 0 -7 -10 -9 -25 -7 -14 3 -28 2 -31 -3 -7 -11 35 -21
66 -15 14 2 28 5 33 5 4 1 7 5 7 10 0 5 -10 7 -22 3 -15 -4 -19 -2 -13 7 4 7
16 11 26 8 10 -3 20 0 22 7 2 6 8 8 12 3 5 -4 3 -13 -3 -19 -17 -17 -15 -33 1
-19 8 6 17 8 20 5 8 -8 41 18 45 36 5 19 23 42 30 35 3 -2 -1 -11 -8 -20 -7
-9 -10 -18 -7 -21 8 -8 67 35 67 48 0 6 -9 3 -20 -7 -11 -10 -20 -13 -20 -7 0
6 8 17 19 24 10 7 40 46 66 86 26 40 49 71 52 68 3 -2 -9 -25 -26 -50 -17 -25
-34 -60 -38 -78 -17 -89 -81 -167 -177 -213 -40 -19 -77 -35 -82 -35 -5 0 -22
21 -38 46 -16 25 -42 55 -58 67 -16 12 -45 47 -63 77 -19 30 -50 71 -69 89
-20 19 -36 41 -36 49 0 7 -13 24 -29 38 -32 27 -65 89 -56 104 4 6 -4 6 -21 0
-22 -9 -29 -8 -36 3 -4 8 -29 18 -54 22 -53 8 -94 42 -94 78 0 51 13 85 36 98
24 12 28 36 5 32 -10 -3 -15 10 -12 30 1 5 -3 6 -8 3 -11 -7 -65 42 -110 101
-31 41 -57 103 -43 103 4 0 32 -27 61 -61 29 -33 55 -58 58 -56 2 3 -12 34
-32 70 -35 66 -40 91 -29 135 l7 23 26 -24 c14 -13 40 -33 56 -43 l30 -19 -30
40 c-44 58 -58 90 -50 114 6 21 6 21 31 2 27 -21 49 -19 58 6 5 13 4 14 -9 3
-8 -7 -15 -10 -15 -7 0 9 52 97 61 102 5 4 9 11 9 18 0 6 -16 -4 -35 -23 -19
-19 -35 -30 -35 -26 0 5 -7 3 -15 -4 -8 -7 -15 -8 -15 -2 0 5 7 15 15 22 12
10 15 10 15 -1 0 -8 23 11 51 41 28 30 46 47 39 37 -8 -11 -12 -45 -11 -93 2
-74 1 -76 -34 -116 -20 -22 -34 -42 -31 -46 7 -7 46 33 46 48 0 5 4 10 9 10 5
0 9 -12 9 -28 -1 -15 2 -37 6 -49 5 -17 -3 -38 -34 -83 -23 -34 -39 -64 -36
-67 7 -7 4 -11 44 53 35 56 58 62 86 22 8 -11 17 -15 20 -10 3 5 -1 15 -10 23
-32 26 -36 48 -14 78 28 41 25 52 -5 16 -13 -16 -24 -24 -25 -16 0 7 23 40 50
72 46 52 49 58 28 57 -13 -1 -38 -15 -55 -31 -18 -17 -36 -27 -40 -24 -9 9
100 113 139 133 17 9 27 18 24 21 -8 8 -75 -39 -116 -82 -19 -19 -37 -35 -41
-35 -7 0 4 59 15 81 4 8 0 5 -8 -5 -15 -19 -16 -19 -16 8 0 35 17 66 35 66 18
0 19 -12 3 -28 -9 -9 -8 -12 5 -12 10 0 17 8 17 18 0 10 22 43 48 73 26 29 58
68 70 86 13 18 36 40 52 50 17 9 30 23 30 29 0 6 7 18 16 25 15 12 16 11 11
-6 -5 -14 -1 -24 13 -33 21 -13 27 -3 9 15 -8 8 -8 13 0 17 6 4 11 2 11 -3 0
-6 5 -11 11 -11 5 0 7 5 4 10 -3 6 2 10 12 10 10 0 25 5 33 10 12 7 10 11 -10
18 l-25 10 28 7 c21 6 39 2 69 -15 21 -12 42 -19 45 -16 3 3 -2 8 -11 12 -19
7 -21 30 -3 37 9 4 9 6 0 6 -6 1 -15 -3 -18 -9 -7 -12 -25 -13 -25 -2 0 4 15
13 33 20 17 7 39 17 47 21 11 6 17 2 21 -18 l7 -26 1 29z m-3565 -13 c16 -18
16 -19 -11 -24 -35 -7 -51 7 -33 28 16 20 23 19 44 -4z m3870 -26 c-6 -16 -24
-21 -24 -7 0 11 11 22 21 22 5 0 6 -7 3 -15z m36 -5 c0 -5 -4 -10 -10 -10 -5
0 -10 5 -10 10 0 6 5 10 10 10 6 0 10 -4 10 -10z m-1600 -25 c0 -8 16 -66 35
-131 20 -64 33 -119 30 -122 -3 -3 -11 9 -17 26 -17 45 -32 40 -25 -9 4 -32 2
-39 -9 -35 -11 4 -14 -4 -14 -35 0 -24 -4 -38 -10 -34 -5 3 -10 21 -10 40 0
39 -17 56 -23 23 -2 -13 -4 2 -5 32 -1 30 -12 97 -25 148 -32 126 -10 113 27
-16 17 -56 34 -102 39 -102 4 0 6 4 3 8 -3 5 -8 59 -12 122 -5 84 -4 111 5
106 6 -4 11 -13 11 -21z m-673 -3 c8 -5 3 -20 -18 -52 -17 -25 -53 -88 -81
-140 -58 -107 -56 -105 -63 -99 -10 10 34 128 92 247 25 50 42 62 70 44z m158
-19 c-14 -36 -34 -107 -31 -111 2 -1 13 12 24 30 22 35 82 97 82 84 0 -10
-113 -236 -117 -232 -2 1 3 24 11 50 20 65 0 55 -37 -18 -16 -31 -31 -55 -34
-53 -2 3 3 29 11 58 9 29 14 55 11 58 -8 7 -84 -69 -91 -91 -3 -10 -10 -18
-16 -18 -6 0 -7 7 -3 18 4 9 19 52 34 94 32 90 46 110 36 53 -7 -45 -14 -50
69 49 39 47 64 61 51 29z m630 -110 c6 -59 9 -111 5 -116 -3 -4 -17 40 -29 98
-18 85 -20 109 -10 121 6 8 14 12 16 10 3 -3 11 -53 18 -113z m-2537 82 c-6
-14 -15 -25 -20 -25 -13 0 -9 38 5 43 24 10 26 7 15 -18z m124 -9 c4 -6 8 -17
8 -25 0 -10 -6 -8 -20 7 -12 12 -25 22 -30 22 -6 0 -10 4 -10 9 0 12 43 1 52
-13z m113 4 c3 -5 -3 -10 -14 -10 -12 0 -21 5 -21 10 0 6 6 10 14 10 8 0 18
-4 21 -10z m-575 -32 c0 -16 -3 -19 -11 -11 -6 6 -8 16 -5 22 11 17 16 13 16
-11z m3626 -42 c-3 -23 -59 -91 -64 -77 -3 8 -8 6 -18 -6 -7 -10 -14 -13 -14
-7 0 12 82 104 92 104 4 0 5 -6 4 -14z m-2674 -28 c-7 -7 -12 -8 -12 -2 0 14
12 26 19 19 2 -3 -1 -11 -7 -17z m628 12 c0 -5 -4 -10 -10 -10 -5 0 -10 5 -10
10 0 6 5 10 10 10 6 0 10 -4 10 -10z m-646 -67 c-8 -33 -23 -63 -24 -47 0 27
13 74 21 74 5 0 6 -12 3 -27z m3196 -13 c0 -5 -4 -10 -10 -10 -5 0 -10 5 -10
10 0 6 5 10 10 10 6 0 10 -4 10 -10z m-5889 -54 c17 -39 29 -80 79 -259 6 -21
19 -41 28 -45 9 -4 18 -14 18 -22 1 -8 3 -24 5 -35 3 -16 -2 -20 -24 -21 -35
-1 -49 17 -58 74 -4 26 -15 72 -24 102 -29 97 -62 235 -58 243 8 14 14 7 34
-37z m5957 32 c19 -19 14 -30 -8 -18 -11 6 -20 15 -20 20 0 14 14 12 28 -2z
m49 -8 c-1 -11 -5 -20 -9 -20 -10 0 -10 4 -2 24 8 22 13 20 11 -4z m-927 -9
c0 -4 -5 -12 -12 -19 -9 -9 -9 -12 0 -12 7 0 12 4 12 9 0 14 32 23 44 11 7 -7
1 -19 -19 -38 -27 -25 -28 -25 -7 -1 30 35 28 48 -4 19 -21 -21 -27 -22 -35
-10 -21 33 -28 48 -23 53 7 7 44 -3 44 -12z m-20 -125 c0 -28 -19 -17 -40 24
-29 56 -25 66 10 27 17 -19 30 -42 30 -51z m-2424 -14 c-13 -12 -16 8 -9 49
l8 44 3 -44 c2 -23 1 -46 -2 -49z m-306 38 c-6 -11 -15 -20 -20 -20 -6 0 -5 9
2 20 7 11 16 20 21 20 4 0 3 -9 -3 -20z m3820 10 c0 -5 -4 -10 -10 -10 -5 0
-21 -12 -35 -27 -14 -15 -25 -22 -25 -15 0 15 45 62 60 62 5 0 10 -4 10 -10z
m-4916 -36 c9 -22 8 -24 -9 -24 -8 0 -15 9 -15 20 0 24 15 27 24 4z m2266 1
c0 -8 -4 -15 -10 -15 -5 0 -10 7 -10 15 0 8 5 15 10 15 6 0 10 -7 10 -15z
m1647 -12 c-12 -27 -22 -29 -31 -7 -10 25 -7 29 18 29 21 0 22 -3 13 -22z
m1110 -10 c-5 -26 -4 -26 9 -8 13 18 14 17 14 -12 0 -18 5 -35 10 -38 6 -4 8
-11 4 -17 -4 -5 -18 1 -33 16 -21 20 -26 33 -23 56 2 17 9 30 14 30 6 0 8 -12
5 -27z m-3937 2 c0 -8 -7 -15 -15 -15 -9 0 -12 6 -9 15 4 8 10 15 15 15 5 0 9
-7 9 -15z m150 0 c-16 -9 -26 -10 -29 -3 -2 6 -13 -1 -25 -15 -26 -30 -96 -73
-96 -58 0 5 17 27 38 49 32 33 43 38 87 40 48 1 49 0 25 -13z m2829 -33 c-19
-20 -35 -39 -36 -41 -2 -2 -6 -1 -10 3 -4 3 11 24 32 46 48 50 61 43 14 -8z
m1019 10 c2 -7 -2 -10 -12 -6 -9 3 -16 11 -16 16 0 13 23 5 28 -10z m-3681
-24 c-3 -7 -5 -2 -5 12 0 14 2 19 5 13 2 -7 2 -19 0 -25z m2396 -34 c-8 -23
-20 -16 -32 17 -16 48 -14 53 13 24 14 -15 22 -33 19 -41z m-2745 32 c0 -14
-7 -27 -15 -30 -8 -3 -12 -10 -8 -15 6 -10 -32 -51 -47 -51 -15 0 -8 20 12 32
11 7 20 18 20 25 0 7 8 17 18 22 9 6 12 11 5 11 -7 0 -10 7 -7 15 9 23 22 18
22 -9z m327 -3 c-4 -16 -7 -29 -8 -29 -42 -30 -171 -104 -182 -104 -18 0 -18
2 -4 32 9 20 170 127 193 128 4 0 5 -12 1 -27z m865 7 c0 -5 -4 -10 -10 -10
-5 0 -10 5 -10 10 0 6 5 10 10 10 6 0 10 -4 10 -10z m2760 -10 c14 -10 22 -22
18 -26 -4 -4 2 -18 12 -32 11 -13 20 -36 20 -49 0 -23 -4 -21 -48 26 -46 49
-50 51 -95 47 -48 -3 -50 0 -19 37 20 23 80 22 112 -3z m-2770 -31 c0 -4 -5
-11 -10 -14 -6 -4 -8 -10 -6 -14 3 -4 1 -13 -4 -21 -7 -11 -11 -11 -24 -1 -12
10 -19 11 -30 2 -9 -8 -16 -8 -20 -2 -4 6 10 13 30 17 l37 7 -23 17 c-17 13
-19 19 -9 22 18 6 59 -2 59 -13z m-2347 4 c-7 -2 -13 -12 -13 -21 0 -15 -2
-15 -10 -2 -9 15 4 30 25 29 6 0 4 -3 -2 -6z m1235 -13 c-13 -20 -37 -34 -45
-26 -5 5 38 46 49 46 4 0 3 -9 -4 -20z m291 -20 c0 -10 -3 -8 -9 5 -12 27 -12
43 0 25 5 -8 9 -22 9 -30z m1431 -51 c-5 -46 -10 -130 -10 -187 0 -103 0 -104
-22 -98 -13 3 -26 6 -29 6 -15 0 21 224 53 333 17 57 20 38 8 -54z m351 -33
c32 -87 105 -214 115 -203 3 3 -3 32 -14 64 -17 49 -36 120 -58 221 -3 15 -1
21 6 17 5 -3 10 -12 10 -18 0 -7 9 -30 19 -51 27 -51 93 -217 89 -221 -6 -5
-134 -62 -155 -69 -18 -6 -22 -2 -27 21 -12 57 -36 270 -35 318 0 56 -1 58 50
-79z m-2027 68 c-39 -31 -44 -21 -8 17 18 19 30 25 33 18 2 -7 -9 -23 -25 -35z
m3844 -32 c17 -19 32 -40 32 -46 0 -18 -17 -39 -27 -33 -16 10 -37 -11 -38
-39 0 -30 -24 -46 -26 -17 -1 16 -2 16 -6 1 -7 -27 -23 -22 -23 7 0 17 6 25
18 25 11 0 6 6 -13 16 -32 15 -85 82 -85 106 0 8 15 21 33 30 29 14 35 14 67
-1 19 -8 50 -31 68 -49z m-3659 22 c-11 -26 -116 -108 -186 -143 -28 -14 -28
-12 -2 36 15 28 42 51 107 90 47 29 87 51 89 50 1 -2 -2 -17 -8 -33z m1416
-212 c-9 -85 -18 -71 -17 25 l0 78 -9 -73 c-6 -48 -5 -81 2 -93 6 -13 6 -19 0
-19 -6 0 -15 10 -22 21 -12 23 4 166 22 201 5 10 9 31 9 47 0 16 3 38 8 48 10
24 15 -155 7 -235z m-1721 203 c-11 -8 -23 -13 -29 -11 -5 1 -18 -8 -29 -21
-10 -13 -24 -22 -31 -19 -8 3 -45 -22 -84 -55 -79 -66 -95 -66 -28 0 46 47 92
75 107 66 6 -3 10 1 10 9 0 13 35 32 51 28 4 0 15 8 25 19 11 13 20 16 22 9 2
-6 -4 -18 -14 -25z m348 -22 c-2 -13 -8 -26 -13 -29 -11 -6 -12 69 -2 80 10
10 20 -23 15 -51z m1533 -187 c6 -37 5 -47 -4 -41 -7 4 -3 -12 9 -35 32 -62
25 -71 -36 -48 l-51 19 4 97 c5 109 16 183 34 227 11 28 13 24 24 -70 7 -55
16 -122 20 -149z m69 97 c3 -29 10 -63 17 -75 7 -13 11 -25 10 -28 -3 -8 21
-103 36 -138 7 -18 11 -37 8 -42 -4 -6 -1 -10 4 -10 6 0 11 -6 11 -14 0 -19
30 -89 36 -83 2 2 0 17 -6 32 -7 19 -7 31 1 41 13 15 3 37 -13 28 -7 -5 -9 2
-4 20 4 16 2 26 -5 26 -6 0 -9 6 -6 13 2 6 0 22 -4 34 -17 45 -34 352 -19 337
5 -5 11 -33 14 -62 2 -29 6 -56 9 -59 3 -3 3 -11 1 -18 -3 -7 -1 -16 5 -20 14
-8 14 -82 1 -90 -5 -3 -10 -12 -10 -18 0 -7 7 -3 15 7 14 18 15 18 25 -10 6
-16 16 -42 22 -57 13 -33 8 -39 -27 -39 -23 0 -24 -2 -12 -17 8 -9 12 -22 10
-28 -3 -7 3 -13 12 -13 11 0 15 6 10 19 -4 15 -1 18 20 16 14 -2 25 1 25 6 0
5 10 9 23 9 21 -1 20 -2 -6 -16 -31 -17 -26 -39 6 -30 12 3 26 1 31 -3 6 -5
34 -10 61 -12 38 -2 58 2 85 19 22 14 37 18 41 11 3 -6 10 -9 14 -7 21 8 42
-169 24 -204 -11 -22 -11 -22 7 -6 12 12 20 40 24 90 7 67 14 46 10 -28 -1
-17 -2 -53 -4 -80 -3 -85 -95 -226 -247 -380 -60 -61 -79 -74 -128 -88 -116
-33 -154 -20 -237 78 -32 38 -73 86 -91 105 -37 41 -51 91 -34 127 6 15 7 24
1 24 -6 0 -10 -6 -11 -12 0 -7 -4 -4 -8 7 -5 11 -9 68 -10 127 -2 82 2 113 14
131 8 13 13 27 10 30 -3 4 -2 5 1 2 4 -2 16 2 28 10 11 8 30 15 43 15 12 0 25
5 28 10 3 6 17 7 30 4 22 -6 49 16 28 23 -6 2 -19 11 -29 19 -18 15 -18 15 1
8 11 -4 29 -8 41 -9 25 -2 44 -13 44 -26 0 -6 -6 -7 -12 -3 -9 5 -9 2 1 -9 7
-9 17 -17 22 -17 13 0 11 37 -1 45 -7 4 -7 12 -2 18 11 16 7 56 -7 70 -12 12
-16 252 -4 308 7 34 7 34 15 -16 4 -27 9 -73 12 -102z m-869 117 c3 -5 22 -10
41 -10 19 0 34 -5 34 -11 0 -6 -8 -8 -17 -5 -10 2 -33 7 -50 11 -18 4 -33 11
-33 16 0 12 17 12 25 -1z m-60 -19 c-3 -6 -11 -8 -17 -5 -6 4 -5 9 3 15 16 10
23 4 14 -10z m-921 -33 c-16 -32 -27 -43 -49 -49 -5 -1 -16 -9 -23 -16 -21
-20 -34 -16 -22 7 6 11 15 20 20 20 6 0 10 6 10 14 0 12 71 67 78 61 2 -2 -4
-18 -14 -37z m796 32 c0 -5 -4 -10 -10 -10 -5 0 -10 5 -10 10 0 6 5 10 10 10
6 0 10 -4 10 -10z m-1905 -32 c-14 -67 -55 -69 -55 -3 1 29 1 29 15 11 15 -19
15 -19 15 2 0 13 6 22 16 22 12 0 14 -7 9 -32z m1009 7 c-9 -14 -22 -24 -28
-22 -6 3 -23 -7 -37 -20 -15 -13 -33 -25 -40 -26 -8 -2 -34 -22 -58 -45 -60
-58 -74 -53 -20 7 38 42 91 80 96 69 1 -1 13 8 27 21 14 14 26 21 26 17 0 -4
7 0 16 8 24 25 36 19 18 -9z m-1303 -42 c11 -25 18 -51 16 -57 -3 -6 -12 8
-22 32 -9 23 -21 42 -26 42 -12 0 31 -103 50 -118 13 -11 13 -14 -7 -27 -13
-10 -19 -21 -15 -32 4 -11 2 -14 -5 -9 -6 4 -14 22 -18 41 -3 19 -13 40 -21
47 -8 7 -19 22 -24 35 -11 29 -26 30 -32 1 -3 -22 -4 -21 -11 5 -9 31 7 59 29
51 8 -3 19 -21 25 -39 6 -18 17 -36 25 -39 10 -4 8 7 -7 39 -12 25 -27 45 -32
45 -12 1 34 29 47 30 4 0 17 -21 28 -47z m219 1 c24 -55 24 -55 6 -48 -29 11
-55 94 -30 94 3 0 14 -21 24 -46z m1374 9 c-9 -50 -14 -54 -48 -33 l-28 18 38
26 c22 13 40 25 42 25 2 1 0 -16 -4 -36z m526 17 c0 -4 -6 -10 -13 -13 -7 -3
-13 3 -13 13 0 10 6 16 13 13 7 -3 13 -9 13 -13z m806 -78 c-13 -12 -16 7 -9
54 l8 49 3 -49 c2 -26 1 -51 -2 -54z m1002 73 l33 -20 -3 -80 c-3 -73 -7 -85
-42 -139 -22 -33 -55 -80 -74 -105 l-35 -46 6 106 c4 59 11 131 17 160 12 57
50 152 59 146 3 -1 21 -11 39 -22z m1200 -20 c-3 -3 -9 2 -12 12 -6 14 -5 15
5 6 7 -7 10 -15 7 -18z m-2959 1 c-2 -2 -15 -7 -29 -10 l-25 -7 25 15 c21 12
42 14 29 2z m-1579 -14 c0 -5 -9 -17 -20 -27 -19 -18 -20 -17 -20 3 0 18 11
29 33 31 4 1 7 -3 7 -7z m1030 -11 c0 -11 -4 -23 -10 -26 -6 -4 -9 5 -8 19 3
30 18 35 18 7z m-1455 -21 c9 -16 11 -30 6 -30 -12 0 -24 19 -28 43 -4 26 5
21 22 -13z m1875 20 c0 -5 -5 -10 -11 -10 -5 0 -7 5 -4 10 3 6 8 10 11 10 2 0
4 -4 4 -10z m1614 -54 c19 -58 19 -56 7 -56 -8 0 -41 93 -41 116 0 19 19 -15
34 -60z m1496 37 c0 -20 -3 -24 -11 -16 -7 7 -9 19 -6 27 10 24 17 19 17 -11z
m-5967 0 c-7 -3 -10 -10 -7 -18 3 -7 1 -15 -4 -19 -5 -3 -7 5 -6 17 1 12 3 26
3 30 1 5 6 5 13 1 9 -6 9 -9 1 -11z m1357 -6 c0 -13 -15 -42 -32 -66 l-33 -42
-3 32 c-4 39 6 82 17 75 5 -3 7 -18 5 -33 l-4 -28 11 30 c6 17 12 36 14 43 7
21 25 13 25 -11z m4732 -9 c-15 -15 -26 -4 -18 18 5 13 9 15 18 6 9 -9 9 -15
0 -24z m-5388 -43 c16 -36 26 -69 22 -72 -3 -3 -19 24 -36 61 -33 75 -33 76
-22 76 4 0 20 -29 36 -65z m1339 40 c-19 -26 -33 -32 -33 -14 0 12 29 38 43
39 4 0 0 -11 -10 -25z m3944 -7 c-3 -7 -5 -2 -5 12 0 14 2 19 5 13 2 -7 2 -19
0 -25z m-3887 12 c0 -5 -10 -15 -22 -21 -23 -12 -23 -12 -4 10 21 23 26 26 26
11z m-1390 -152 c5 -16 6 -28 4 -28 -3 0 -10 12 -17 28 -28 62 -69 134 -73
129 -3 -3 8 -33 25 -67 35 -69 35 -70 21 -70 -5 0 -25 31 -44 68 -34 68 -34
68 -13 78 20 8 25 3 55 -51 19 -33 38 -72 42 -87z m1434 130 c-41 -48 -105
-108 -114 -108 -6 0 -10 8 -10 17 0 14 -3 13 -23 -5 -38 -36 -44 -25 -7 13 37
38 52 44 44 18 -3 -10 2 -6 12 8 16 24 88 77 108 78 5 1 1 -9 -10 -21z m-869
-106 c-9 -38 -22 -14 -27 50 -4 46 -2 58 11 60 12 3 17 -7 19 -41 2 -25 0 -56
-3 -69z m980 79 c0 -30 -6 -44 -26 -60 l-26 -20 -1 39 c-1 29 4 45 20 60 30
28 33 26 33 -19z m-2295 13 c0 -8 -5 -12 -10 -9 -6 4 -8 11 -5 16 9 14 15 11
15 -7z m988 -21 l11 -38 -19 25 c-20 26 -26 50 -12 50 5 0 14 -17 20 -37z
m1880 18 c10 -6 8 -10 -10 -14 -41 -12 -55 -8 -34 8 23 17 26 18 44 6z m927
-63 c3 -29 0 -52 -9 -64 -13 -16 -14 -10 -15 55 -1 82 16 88 24 9z m-2878 40
c0 -7 4 -22 8 -33 7 -20 6 -20 -9 -1 -17 21 -21 46 -8 46 5 0 9 -6 9 -12z
m322 -65 c0 -53 -3 -72 -9 -58 -12 28 -12 135 0 135 6 0 10 -32 9 -77z m1661
58 c-19 -9 -42 -15 -50 -12 -17 6 34 30 65 30 14 0 10 -5 -15 -18z m651 -12
c6 -12 9 -38 5 -60 -3 -20 -2 -39 3 -41 4 -2 5 -12 1 -23 -7 -18 -9 -16 -23
14 -12 29 -16 31 -24 17 -9 -16 -11 -16 -23 -1 -9 11 -10 22 -3 37 9 20 10 20
26 3 10 -10 21 -15 24 -11 3 3 -3 13 -15 23 -16 14 -18 23 -12 41 12 28 26 28
41 1z m-3501 1 c0 -5 -5 -10 -11 -10 -5 0 -7 5 -4 10 3 6 8 10 11 10 2 0 4 -4
4 -10z m1738 -17 c-14 -34 -28 -51 -28 -36 0 22 19 63 30 63 6 0 5 -10 -2 -27z
m-988 3 c0 -8 3 -23 6 -33 5 -12 4 -15 -3 -8 -16 15 -26 55 -14 55 6 0 11 -6
11 -14z m-260 -17 c0 -6 -4 -7 -10 -4 -5 3 -10 11 -10 16 0 6 5 7 10 4 6 -3
10 -11 10 -16z m-503 -21 c-3 -7 -5 -2 -5 12 0 14 2 19 5 13 2 -7 2 -19 0 -25z
m4503 7 c0 -14 -2 -25 -4 -25 -2 0 -6 11 -8 25 -3 14 -1 25 3 25 5 0 9 -11 9
-25z m-4005 -42 c16 -32 31 -61 33 -65 2 -5 0 -8 -5 -8 -4 0 -21 26 -38 57
-38 71 -39 73 -28 73 5 0 22 -26 38 -57z m-30 -12 c13 -27 29 -52 35 -56 13
-8 13 -25 0 -25 -11 0 -70 99 -70 118 0 23 9 12 35 -37z m2525 39 c0 -5 -7
-10 -16 -10 -8 0 -12 5 -9 10 3 6 10 10 16 10 5 0 9 -4 9 -10z m-3015 -9 c3
-5 1 -12 -4 -15 -5 -3 -11 1 -15 9 -6 16 9 21 19 6z m2294 -47 c-27 -61 -69
-128 -75 -121 -3 3 6 29 20 59 54 111 100 164 55 62z m661 36 c-19 -12 -30
-12 -30 -1 0 10 31 20 40 14 2 -2 -2 -8 -10 -13z m1527 13 c-4 -3 -37 -17 -74
-30 -37 -13 -62 -18 -55 -11 7 7 34 21 60 30 50 17 80 22 69 11z m-4018 -69
c44 -70 52 -101 9 -37 -53 80 -65 103 -54 103 2 0 22 -30 45 -66z m226 18 c-8
-8 -35 20 -35 37 1 12 5 11 21 -8 11 -13 17 -26 14 -29z m-288 7 c0 -29 -2
-30 -13 -14 -10 14 -11 22 -3 32 15 18 16 17 16 -18z m4138 22 c3 -5 1 -12 -5
-16 -5 -3 -10 1 -10 9 0 18 6 21 15 7z m-25 -32 c0 -5 -15 -18 -32 -29 -25
-15 -47 -20 -88 -18 -77 4 -75 27 5 48 33 9 67 19 75 22 16 6 40 -8 40 -23z
m-4150 -40 c0 -17 -30 -17 -39 0 -15 26 9 48 26 24 7 -9 13 -20 13 -24z m3510
13 c107 -21 104 -20 91 -36 -7 -8 -34 -17 -62 -21 -40 -6 -56 -3 -84 14 -19
11 -41 19 -48 17 -6 -1 -8 -1 -4 2 4 2 3 10 -3 18 -15 18 -2 37 19 28 9 -4 50
-14 91 -22z m50 18 c13 -9 13 -10 0 -10 -8 0 -22 5 -30 10 -13 9 -13 10 0 10
8 0 22 -5 30 -10z m833 -10 c-3 -12 -8 -19 -11 -16 -5 6 5 36 12 36 2 0 2 -9
-1 -20z m-1050 -85 c3 -33 11 -61 16 -63 5 -2 8 -9 5 -17 -3 -7 -1 -16 5 -20
12 -7 16 26 12 84 -1 20 3 38 11 42 22 14 30 10 13 -7 -8 -9 -13 -24 -11 -33
3 -9 7 -31 8 -48 1 -18 6 -33 10 -33 4 0 8 -45 8 -99 0 -56 4 -103 10 -106 6
-3 10 -11 10 -17 0 -6 -11 -1 -25 12 -14 13 -25 34 -25 46 0 13 -4 25 -9 29
-14 8 -40 94 -45 150 -2 28 -7 77 -11 110 -4 38 -3 55 3 45 5 -8 12 -42 15
-75z m-3390 43 c9 -18 28 -45 42 -60 14 -16 22 -28 18 -28 -4 0 -1 -4 7 -10
21 -13 5 -23 -26 -16 -22 6 -25 11 -20 32 4 14 3 23 -2 20 -10 -6 -32 36 -32
59 0 8 -4 15 -10 15 -5 0 -10 5 -10 10 0 21 18 9 33 -22z m2494 15 c2 -6 -7
-13 -21 -17 -13 -3 -32 -9 -43 -12 -12 -4 -9 2 11 21 28 26 46 29 53 8z
m-2550 -76 c10 -47 7 -82 -5 -48 -3 9 -7 10 -11 2 -4 -6 -7 12 -6 39 1 28 -3
50 -8 50 -4 0 -5 5 -2 11 11 16 19 2 32 -54z m947 36 c-10 -40 -14 -41 -14 -5
0 18 5 32 10 32 6 0 8 -11 4 -27z m1009 12 c-3 -9 -8 -14 -10 -11 -3 3 -2 9 2
15 9 16 15 13 8 -4z m-1742 -12 c13 -16 12 -17 -3 -4 -10 7 -18 15 -18 17 0 8
8 3 21 -13z m-204 -15 c-3 -8 -6 -5 -6 6 -1 11 2 17 5 13 3 -3 4 -12 1 -19z
m129 -5 c-7 -7 -26 7 -26 19 0 6 6 6 15 -2 9 -7 13 -15 11 -17z m1794 20 c0
-5 -5 -15 -10 -23 -8 -12 -10 -11 -10 8 0 12 5 22 10 22 6 0 10 -3 10 -7z
m1417 -25 c-3 -8 -6 -5 -6 6 -1 11 2 17 5 13 3 -3 4 -12 1 -19z m-682 -3 c-22
-7 -51 -11 -64 -8 -14 4 -22 2 -18 -4 6 -10 -53 -43 -78 -43 -29 0 -14 17 33
38 47 21 80 29 137 29 28 1 27 0 -10 -12z m-25 -23 c0 -5 -17 -14 -37 -21 -21
-7 -45 -15 -53 -18 -35 -13 5 13 43 29 51 21 47 20 47 10z m-2810 -7 c0 -11
-24 -55 -30 -55 -4 0 -12 -11 -18 -25 -6 -14 -16 -25 -21 -25 -10 0 -4 13 35
77 16 28 34 43 34 28z m3550 -72 c0 -13 -3 -13 -15 -3 -8 7 -15 28 -15 49 l1
36 14 -34 c8 -18 15 -40 15 -48z m1035 38 c-8 -17 -20 -31 -26 -31 -6 0 -8 -4
-4 -9 3 -5 1 -12 -5 -16 -5 -3 -10 3 -10 13 0 11 7 22 15 26 8 3 20 17 25 32
6 15 13 24 16 21 3 -3 -2 -19 -11 -36z m-4555 -11 c-7 -16 -16 -30 -21 -30
-12 0 -11 6 7 41 20 39 31 30 14 -11z m3690 -42 c0 -45 -2 -79 -4 -77 -10 10
-16 159 -6 159 6 0 10 -32 10 -82z m-1115 14 c-23 -21 -41 -47 -42 -61 -1 -13
-9 -31 -18 -40 -13 -14 -15 -12 -15 16 0 17 7 44 15 59 8 16 15 25 15 20 0 -4
16 6 36 24 50 43 58 27 9 -18z m2375 21 c0 -12 -2 -12 -15 1 -8 8 -15 17 -15
20 0 3 7 3 15 0 8 -4 15 -13 15 -21z m-2330 -13 c-33 -26 -48 -26 -25 0 10 11
25 20 34 20 12 0 9 -6 -9 -20z m-2674 -76 c-3 -8 -17 -14 -32 -14 -22 0 -24
-2 -14 -15 6 -8 10 -20 7 -27 -3 -8 -9 -1 -16 15 -17 44 -14 57 14 57 18 0 25
5 25 18 0 10 3 22 8 26 9 10 16 -40 8 -60z m3624 19 c0 -13 -20 -19 -20 -5 0
4 -3 18 -6 32 -5 24 -5 24 10 6 9 -11 16 -26 16 -33z m2260 44 c0 -2 -10 -12
-21 -23 -22 -19 -22 -19 -10 4 10 18 31 31 31 19z m-50 -26 c-5 -11 -15 -23
-22 -27 -7 -5 -8 -2 -3 7 21 37 44 55 25 20z m-3179 -16 c5 3 6 -1 3 -10 -4
-9 -12 -14 -18 -12 -6 2 -20 0 -30 -6 -17 -8 -16 -5 5 20 15 19 25 25 27 16 2
-7 8 -11 13 -8z m-2561 -3 c0 -5 -16 -14 -36 -20 -26 -8 -34 -8 -31 1 2 6 14
14 28 18 34 10 39 10 39 1z m268 -58 c6 -32 14 -72 17 -89 13 -93 17 -129 11
-124 -7 7 -12 28 -21 89 -3 20 -14 68 -25 106 -23 81 -24 87 -7 82 6 -3 18
-31 25 -64z m749 4 c-3 -7 -5 -2 -5 12 0 14 2 19 5 13 2 -7 2 -19 0 -25z
m1496 -32 c-56 -64 -70 -66 -22 -4 25 33 27 38 8 21 -34 -31 -48 -29 -19 2 13
14 30 23 37 21 7 -3 15 -1 18 4 4 6 11 10 16 10 6 0 -11 -24 -38 -54z m3221
27 c-4 -24 -18 -120 -28 -189 -3 -28 -16 -45 -27 -39 -5 4 -9 -2 -9 -12 0 -19
-51 -53 -78 -53 -9 0 -25 7 -35 15 -18 13 -18 14 1 24 30 16 63 75 82 148 10
37 29 79 45 99 35 42 57 45 49 7z m-5776 5 c-5 -15 -78 -24 -78 -10 0 14 6 17
45 20 26 1 35 -2 33 -10z m-58 -58 c11 -7 1 -9 -32 -8 -27 1 -48 6 -48 10 0
11 62 10 80 -2z m3045 -10 c11 -4 37 -22 59 -39 21 -17 48 -31 60 -31 32 0 66
-11 66 -21 0 -5 -23 -9 -52 -9 -39 0 -72 9 -133 37 -81 38 -95 48 -95 71 0 13
49 9 95 -8z m-2730 -11 c-1 -12 -12 -27 -26 -35 -41 -23 -44 -15 -9 21 19 19
35 35 35 35 1 0 1 -10 0 -21z m-80 -38 c-38 -37 -40 -38 -46 -18 -4 18 1 25
30 39 56 26 59 21 16 -21z m-235 19 c0 -13 -11 -13 -30 0 -12 8 -11 10 8 10
12 0 22 -4 22 -10z m3170 -28 c-7 -3 -19 3 -28 13 -16 15 -15 16 12 4 15 -7
23 -15 16 -17z m-2843 -6 c-3 -8 -3 -17 1 -20 3 -4 7 -12 8 -19 1 -7 4 -29 8
-50 6 -35 4 -38 -24 -43 -37 -8 -62 -33 -28 -28 13 2 33 6 46 10 28 8 31 -20
5 -49 -17 -19 -17 -19 5 -13 28 9 31 -18 5 -47 -17 -19 -17 -20 5 -15 21 6 27
-4 23 -39 -1 -6 3 -14 9 -18 5 -3 10 -21 10 -38 0 -18 6 -55 14 -84 16 -60 12
-70 -48 -103 -30 -16 -37 -18 -33 -6 3 9 2 18 -3 21 -15 9 -12 25 3 25 8 0 25
10 38 21 l24 21 -25 -7 c-67 -20 -70 -23 -65 -57 2 -18 -1 -13 -6 12 -6 25
-24 88 -39 140 -15 52 -27 116 -26 142 1 25 -2 44 -6 42 -6 -4 -21 66 -20 93
0 5 -4 16 -9 25 -7 13 -4 23 11 38 11 11 20 22 19 25 -2 19 9 27 25 18 17 -9
15 -12 -13 -32 -17 -12 -31 -27 -31 -33 0 -5 23 11 51 36 51 46 76 58 66 32z
m2351 -55 l21 -29 -25 -23 c-24 -22 -24 -22 -39 -3 -18 23 -18 27 -3 59 14 32
19 31 46 -4z m-590 -44 c3 -16 -1 -18 -25 -13 -15 3 -34 2 -42 -3 -19 -12 -3
-34 20 -28 11 3 19 1 19 -4 0 -13 -50 -23 -61 -12 -5 5 -11 23 -12 39 -2 24 2
29 28 35 46 11 69 6 73 -14z m802 -14 c-40 -31 -81 -72 -128 -127 -18 -21 -35
-37 -36 -35 -2 2 -6 16 -10 32 -7 28 10 39 20 12 4 -10 16 -3 42 28 42 49 122
117 137 117 5 0 -6 -12 -25 -27z m-2470 -25 c0 -5 -4 -8 -10 -8 -5 0 -10 10
-10 23 0 18 2 19 10 7 5 -8 10 -18 10 -22z m3435 -37 c-7 -7 -44 43 -38 52 3
5 14 -4 24 -19 10 -16 16 -30 14 -33z m1366 36 c-13 -13 -26 -3 -16 12 3 6 11
8 17 5 6 -4 6 -10 -1 -17z m-3121 3 c0 -5 -4 -10 -10 -10 -5 0 -10 5 -10 10 0
6 5 10 10 10 6 0 10 -4 10 -10z m-1673 -50 c1 -11 -2 -18 -8 -15 -11 7 -12 35
-1 35 4 0 8 -9 9 -20z m2048 9 c11 -17 -1 -21 -15 -4 -8 9 -8 15 -2 15 6 0 14
-5 17 -11z m1317 -54 c-6 -32 -8 -30 -16 20 -6 35 -5 38 7 22 8 -9 12 -28 9
-42z m118 -12 c-1 -10 -39 39 -40 51 0 5 9 -3 20 -17 11 -14 20 -29 20 -34z
m1690 39 c0 -5 -14 -21 -31 -38 l-31 -29 -19 24 c-23 29 -16 38 31 44 19 2 38
5 43 5 4 1 7 -2 7 -6z m-290 -12 c0 -4 -7 -11 -16 -14 -8 -3 -13 -10 -10 -14
3 -5 -6 -20 -19 -32 -14 -13 -25 -18 -25 -12 0 7 9 17 19 24 10 6 17 18 14 25
-4 11 -11 9 -29 -8 -13 -12 -24 -18 -24 -12 0 6 12 20 26 30 27 20 64 28 64
13z m-2840 -9 c0 -16 -29 -33 -51 -29 -31 4 -35 25 -7 31 41 8 58 7 58 -2z
m28 -3 c-2 -6 -10 -14 -16 -16 -7 -2 -10 2 -6 12 7 18 28 22 22 4z m-2058 -20
c0 -18 -2 -20 -9 -8 -6 8 -7 18 -5 22 9 14 14 9 14 -14z m3389 -55 c1 -7 -3
-13 -9 -13 -5 0 -10 17 -9 38 1 33 2 34 9 12 4 -14 8 -31 9 -37z m111 19 c0
-15 -2 -15 -10 -2 -13 20 -13 33 0 25 6 -3 10 -14 10 -23z m1430 7 c-5 -9 -6
-20 -2 -25 4 -5 -4 0 -17 11 -13 11 -25 19 -27 18 -2 -2 -10 -3 -16 -3 -28 0
11 15 40 15 25 1 29 -2 22 -16z m-4906 -94 c17 -95 19 -122 11 -113 -5 4 -14
51 -30 146 -7 45 -8 46 -6 56 3 22 11 -5 25 -89z m3506 74 c0 -5 4 -8 9 -5 5
3 11 -8 13 -24 3 -17 1 -30 -4 -30 -4 0 -8 9 -8 20 0 22 -15 27 -23 8 -3 -7
-6 -1 -6 15 -1 15 4 27 9 27 6 0 10 -5 10 -11z m295 -9 c-3 -5 -11 -10 -16
-10 -6 0 -7 5 -4 10 3 6 11 10 16 10 6 0 7 -4 4 -10z m-235 -29 c0 -11 -4 -23
-10 -26 -6 -4 -10 5 -10 19 0 14 5 26 10 26 6 0 10 -9 10 -19z m50 -16 l8 30
1 -32 c0 -18 -1 -33 -3 -33 -18 0 -36 15 -36 29 0 31 15 34 19 4 l4 -28 7 30z
m46 -9 c-1 -41 -20 -38 -23 4 -1 19 3 30 11 30 8 0 12 -13 12 -34z m21 -3 c-3
-10 -5 -4 -5 12 0 17 2 24 5 18 2 -7 2 -21 0 -30z m63 -17 c0 -3 -4 -8 -10
-11 -5 -3 -10 -1 -10 4 0 6 5 11 10 11 6 0 10 -2 10 -4z m1446 -133 c-7 -7
-26 7 -26 19 0 6 6 6 15 -2 9 -7 13 -15 11 -17z m-5166 7 c0 -5 -4 -10 -10
-10 -5 0 -10 5 -10 10 0 6 5 10 10 10 6 0 10 -4 10 -10z m4970 -15 c-16 -19
-26 -19 -33 -1 -4 10 -1 13 7 10 8 -3 17 0 21 6 4 6 9 9 12 6 3 -3 0 -12 -7
-21z"/>
<path d="M2588 2283 c6 -2 18 -2 25 0 6 3 1 5 -13 5 -14 0 -19 -2 -12 -5z"/>
<path d="M2957 2283 c-4 -3 -7 -11 -7 -17 0 -6 5 -5 12 2 6 6 9 14 7 17 -3 3
-9 2 -12 -2z"/>
<path d="M2538 2273 c7 -3 16 -2 19 1 4 3 -2 6 -13 5 -11 0 -14 -3 -6 -6z"/>
<path d="M2475 2260 c-4 -6 -10 -8 -15 -5 -5 3 -21 -5 -36 -18 -18 -16 -24
-26 -16 -31 7 -4 12 -2 12 4 0 6 24 22 53 35 35 16 45 24 30 24 -12 1 -25 -4
-28 -9z"/>
<path d="M2550 2190 c-8 -5 -24 -12 -35 -16 -32 -11 6 -17 45 -7 26 7 30 11
19 20 -8 6 -20 7 -29 3z"/>
<path d="M3195 2140 c-226 -78 -316 -112 -311 -117 5 -5 158 42 236 72 19 8
60 21 90 31 67 21 160 63 140 63 -8 0 -78 -22 -155 -49z"/>
<path d="M3085 2025 c-190 -63 -219 -74 -213 -80 2 -2 94 27 204 65 109 38
192 69 184 69 -8 0 -87 -24 -175 -54z"/>
<path d="M2955 2024 c-22 -8 -46 -17 -54 -19 -8 -3 -12 -8 -9 -11 8 -7 128 28
128 38 0 11 -18 9 -65 -8z"/>
<path d="M2555 1930 c-8 -13 5 -13 25 0 13 8 13 10 -2 10 -9 0 -20 -4 -23 -10z"/>
<path d="M2709 1719 c-46 -50 -86 -93 -89 -96 -3 -3 2 -4 11 -2 18 4 185 189
171 189 -5 0 -46 -41 -93 -91z"/>
<path d="M2064 2124 c-18 -14 -18 -14 6 -3 31 14 36 19 24 19 -6 0 -19 -7 -30
-16z"/>
<path d="M1965 1715 c-22 -7 -32 -14 -22 -14 14 -1 17 -10 17 -50 0 -57 21
-86 54 -77 12 3 24 6 29 6 4 0 7 4 7 10 0 5 -13 7 -31 3 -39 -7 -49 6 -49 70
0 47 0 47 35 49 19 0 41 1 48 2 7 1 14 -18 17 -49 l6 -50 8 48 c5 26 6 50 3
53 -12 13 -85 12 -122 -1z"/>
<path d="M1778 1609 c-19 -11 -24 -54 -9 -78 6 -10 8 -1 4 25 -4 35 -2 41 18
51 13 7 20 12 14 12 -5 0 -18 -4 -27 -10z"/>
<path d="M1840 1509 c-14 -6 -33 -8 -42 -5 -10 2 -16 0 -12 -5 8 -13 45 -10
74 6 29 16 17 19 -20 4z"/>
<path d="M2880 1703 c0 -13 5 -23 10 -23 13 0 13 11 0 30 -8 12 -10 11 -10 -7z"/>
<path d="M3482 1535 c0 -16 2 -22 5 -12 2 9 2 23 0 30 -3 6 -5 -1 -5 -18z"/>
<path d="M3020 1525 c-7 -14 -17 -25 -22 -25 -4 0 -8 -8 -8 -17 0 -11 9 -4 26
20 14 21 24 40 22 43 -3 2 -11 -7 -18 -21z"/>
<path d="M2887 1410 c-29 -57 -33 -80 -17 -80 6 0 10 11 10 25 0 14 5 25 10
25 6 0 10 8 10 18 0 10 5 23 11 29 6 6 9 17 7 24 -2 7 -16 -11 -31 -41z"/>
<path d="M2935 1408 c-10 -18 -25 -39 -32 -47 -15 -14 -14 -31 2 -34 11 -2 58
90 53 105 -2 5 -12 -6 -23 -24z"/>
<path d="M3152 1360 c0 -14 2 -19 5 -12 2 6 2 18 0 25 -3 6 -5 1 -5 -13z"/>
<path d="M5800 1920 c0 -24 15 -27 24 -4 9 22 8 24 -9 24 -8 0 -15 -9 -15 -20z"/>
<path d="M6095 1891 c-3 -5 -1 -12 4 -15 12 -8 41 3 41 15 0 12 -37 12 -45 0z"/>
<path d="M6283 1819 c-26 -9 -40 -63 -23 -84 6 -8 30 -18 53 -22 33 -7 43 -14
45 -31 2 -12 7 -22 11 -22 8 0 -2 78 -16 124 -10 33 -38 47 -70 35z"/>
<path d="M5491 1695 c-35 -41 -61 -80 -59 -86 2 -6 16 7 31 30 16 23 44 60 64
82 20 22 34 42 31 44 -3 3 -33 -29 -67 -70z"/>
<path d="M5734 1705 c-16 -35 -34 -54 -34 -38 0 5 5 14 12 21 6 6 9 15 5 18
-4 4 -20 -22 -36 -57 -34 -75 -40 -67 -11 16 23 66 24 73 10 59 -11 -11 -50
-120 -50 -139 0 -7 7 -16 16 -19 19 -7 43 19 45 49 1 17 2 17 6 3 2 -10 8 -18
13 -18 12 0 20 28 9 32 -5 2 -2 13 6 26 20 27 40 30 26 3 -10 -18 -6 -31 10
-31 4 0 7 6 6 13 -1 33 5 47 25 58 22 12 22 13 1 -38 -3 -8 2 -13 12 -13 9 0
13 5 10 10 -4 6 0 21 9 34 18 28 11 39 -17 24 -17 -9 -19 -8 -13 8 6 17 6 17
-12 1 -23 -21 -33 -22 -26 -2 12 30 -5 14 -22 -20z"/>
<path d="M6390 1702 c0 -22 4 -43 9 -46 5 -4 7 12 4 36 -8 57 -13 61 -13 10z"/>
<path d="M5840 1696 c0 -12 91 -57 107 -53 16 4 16 5 -2 11 -17 6 -48 21 -97
44 -5 2 -8 1 -8 -2z"/>
<path d="M6220 1679 c7 -11 14 -19 16 -16 7 7 -7 37 -17 37 -6 0 -5 -9 1 -21z"/>
<path d="M5992 1603 c17 -30 19 -35 5 -24 -20 16 -21 5 -3 -28 8 -14 12 -31 9
-38 -9 -23 -19 -14 -21 20 -3 34 -29 78 -52 85 -8 3 -3 -9 12 -26 26 -31 38
-102 17 -102 -5 0 -9 5 -9 11 0 32 -162 54 -211 28 -11 -6 -23 -8 -27 -5 -8 9
38 55 78 77 26 15 29 18 10 13 -38 -10 -89 -43 -101 -66 -26 -48 -29 -81 -11
-101 12 -15 14 -21 5 -24 -7 -3 -13 -12 -13 -21 0 -28 -12 -4 -17 35 -5 34
-31 69 -43 56 -3 -2 4 -11 14 -19 23 -16 4 -19 -25 -4 -11 6 -19 7 -19 1 0 -5
11 -11 24 -15 16 -4 28 -19 40 -49 9 -23 16 -48 16 -55 0 -7 3 -11 8 -10 4 0
25 -7 47 -16 33 -15 47 -16 93 -7 60 12 113 41 153 82 14 15 44 32 67 38 45
13 63 34 61 78 l-1 28 -8 -25 c-6 -20 -8 -14 -9 27 -1 28 -6 55 -12 59 -8 4
-9 -3 -5 -22 10 -50 10 -114 0 -123 -5 -5 -27 -12 -49 -16 l-40 -6 25 20 c14
11 21 21 15 21 -6 0 -6 3 0 8 22 15 42 58 36 75 -6 17 -8 17 -20 3 -7 -8 -9
-21 -5 -27 5 -8 3 -9 -5 -5 -7 5 -10 15 -7 23 7 17 -21 83 -35 83 -4 0 1 -17
13 -37z m-66 -104 c19 -11 34 -25 34 -31 0 -6 -15 -25 -34 -43 -49 -46 -131
-60 -175 -29 -19 14 -25 14 -32 3 -5 -8 -9 -20 -9 -26 0 -7 -4 -13 -10 -13
-13 0 -13 26 1 51 7 14 7 29 0 49 -12 35 -6 40 59 57 59 15 124 8 166 -18z
m44 -68 c0 -31 -128 -117 -146 -98 -14 14 6 35 39 41 19 4 48 19 64 35 29 30
43 37 43 22z m-239 -94 c-8 -8 -11 -4 -11 14 0 33 14 47 18 19 2 -12 -1 -27
-7 -33z m30 6 c-10 -17 -10 -16 -11 3 0 23 13 41 18 25 2 -6 -1 -18 -7 -28z
m42 -3 c-3 -11 -9 -18 -13 -15 -7 4 -7 18 -1 43 1 2 5 1 10 -2 5 -3 7 -15 4
-26z"/>
<path d="M5873 1623 c9 -2 23 -2 30 0 6 3 -1 5 -18 5 -16 0 -22 -2 -12 -5z"/>
<path d="M5331 1414 c-12 -15 -21 -32 -21 -38 1 -11 24 15 41 47 14 25 3 21
-20 -9z"/>
<path d="M6070 1430 c0 -5 -6 -7 -14 -4 -25 10 -76 -24 -76 -50 0 -24 0 -24
47 -10 26 8 52 19 58 26 7 8 5 9 -10 3 -40 -15 -75 -23 -75 -19 0 14 30 33 55
36 27 3 49 28 26 28 -6 0 -11 -4 -11 -10z"/>
<path d="M5326 1354 c-32 -42 -43 -64 -32 -64 8 0 77 102 73 107 -3 2 -21 -17
-41 -43z"/>
<path d="M5527 1377 c-22 -33 -78 -169 -73 -175 5 -4 41 71 67 137 5 13 12 22
14 19 2 -2 -13 -47 -35 -98 -42 -100 -51 -140 -25 -106 8 11 15 28 15 38 0 9
12 43 26 75 22 47 40 133 29 133 -1 0 -9 -10 -18 -23z"/>
<path d="M5970 1334 c0 -7 9 -22 19 -35 17 -20 23 -22 39 -12 16 9 24 9 38 -2
29 -22 34 -18 17 18 -9 17 -17 33 -18 35 -5 6 -55 -11 -55 -19 0 -5 8 -5 18
-2 15 6 15 5 2 -11 -13 -17 -15 -17 -37 10 -13 16 -23 24 -23 18z"/>
<path d="M5901 1317 c-15 -18 -5 -41 14 -33 7 2 15 -4 18 -15 8 -31 -4 -90
-20 -96 -10 -4 -11 -9 -3 -18 8 -10 7 -20 -5 -39 -16 -24 -44 -39 -30 -17 3 6
-16 3 -42 -6 -52 -17 -74 -30 -33 -19 14 3 36 9 50 12 l25 7 -25 -24 c-13 -13
-40 -32 -60 -42 -51 -27 -62 -41 -25 -33 32 8 95 51 95 65 0 13 48 19 59 8 6
-6 11 -18 11 -27 0 -15 79 -84 87 -76 2 2 -11 18 -28 37 -56 60 -83 100 -72
107 5 4 13 21 17 37 l8 30 13 -30 c18 -43 59 -83 92 -90 56 -13 59 -15 43 -26
-11 -8 -4 -9 25 -4 25 4 46 14 55 28 8 12 26 34 40 48 14 15 24 31 22 38 -2 6
0 11 5 11 5 0 9 9 10 20 1 11 -4 20 -11 20 -8 0 -35 12 -61 26 -43 25 -47 25
-41 7 8 -26 -16 -58 -39 -50 -11 5 -15 13 -11 23 6 15 4 15 -11 3 -18 -15 -18
-16 3 36 7 18 -26 27 -84 21 l-44 -4 4 34 c3 22 -1 35 -10 39 -7 2 -10 0 -7
-5 3 -6 2 -10 -4 -10 -5 0 -11 5 -13 11 -2 7 -9 5 -17 -4z m138 -84 c6 -10 11
-12 11 -5 0 6 5 12 10 12 7 0 7 -7 -1 -21 -7 -14 -17 -19 -30 -16 -10 3 -19 0
-19 -6 0 -6 -2 -8 -5 -5 -8 8 6 58 16 58 4 0 13 -8 18 -17z m125 -41 c3 -5 -1
-9 -9 -9 -8 0 -15 4 -15 9 0 4 4 8 9 8 6 0 12 -4 15 -8z m-184 -32 c0 -5 -2
-10 -4 -10 -3 0 -8 5 -11 10 -3 6 -1 10 4 10 6 0 11 -4 11 -10z m70 -52 c0
-10 2 -10 9 1 7 11 11 10 20 -5 6 -11 11 -13 11 -6 0 13 40 17 40 4 0 -16 -50
-32 -81 -25 -27 5 -30 9 -25 32 6 25 6 25 -10 6 -16 -20 -16 -20 -9 4 5 15 3
21 -3 17 -6 -3 -9 1 -7 11 2 10 4 20 4 23 2 10 51 -50 51 -62z m150 42 c0 -5
-5 -10 -11 -10 -5 0 -7 5 -4 10 3 6 8 10 11 10 2 0 4 -4 4 -10z m-40 -46 c0
-8 -5 -14 -11 -14 -5 0 -7 -4 -4 -10 3 -5 2 -10 -4 -10 -5 0 -18 -3 -28 -6
-13 -5 -12 -2 5 10 12 10 22 26 22 37 0 11 5 17 10 14 6 -3 10 -13 10 -21z"/>
<path d="M5543 1274 c-6 -16 -20 -54 -31 -84 -11 -30 -23 -63 -27 -72 -4 -11
-3 -18 3 -18 6 0 16 15 21 33 6 17 19 59 31 92 21 60 23 103 3 49z"/>
<path d="M5382 1268 c-16 -20 -63 -130 -57 -136 2 -3 19 26 36 64 17 38 33 72
36 77 7 12 -4 8 -15 -5z"/>
<path d="M5904 1252 c3 -5 0 -13 -6 -15 -8 -3 -6 -6 5 -6 19 -1 23 14 5 25 -6
4 -8 3 -4 -4z"/>
<path d="M5400 1228 c0 -15 23 -72 51 -128 46 -89 50 -103 40 -127 -13 -31
-22 -133 -12 -133 3 0 31 52 62 115 31 63 53 112 48 110 -15 -10 -38 7 -32 23
4 13 3 14 -5 3 -7 -9 -12 -10 -16 -2 -11 17 2 30 24 24 15 -4 19 -11 14 -25
-4 -14 -2 -18 5 -14 18 11 14 57 -4 50 -23 -9 -28 20 -10 62 9 22 12 41 6 47
-5 5 -11 -6 -15 -28 -4 -19 -11 -33 -17 -30 -5 4 -9 -10 -9 -30 0 -22 -4 -34
-10 -30 -15 9 -12 -7 5 -31 12 -18 12 -24 1 -39 -11 -16 -16 -12 -48 37 -20
30 -46 81 -57 113 -14 43 -20 52 -21 33z m165 -178 c6 -10 -53 -135 -61 -127
-3 3 4 22 15 43 23 42 26 59 11 49 -6 -4 -5 5 2 19 12 27 23 33 33 16z"/>
<path d="M5546 1033 c-6 -14 -5 -15 5 -6 7 7 10 15 7 18 -3 3 -9 -2 -12 -12z"/>
<path d="M6200 1236 c0 -2 8 -10 18 -17 15 -13 16 -12 3 4 -13 16 -21 21 -21
13z"/>
<path d="M5832 1133 c-24 -8 -42 -17 -40 -19 7 -6 88 19 88 27 0 5 -1 9 -2 8
-2 0 -22 -7 -46 -16z"/>
<path d="M5926 1103 c-12 -12 58 -73 97 -84 48 -13 60 -5 15 10 -35 11 -88 55
-88 71 0 12 -14 13 -24 3z"/>
<path d="M6364 1091 c3 -5 15 -7 26 -4 28 7 25 13 -6 13 -14 0 -23 -4 -20 -9z"/>
<path d="M6380 1070 c-21 -7 -21 -8 -5 -9 11 0 27 4 35 9 18 11 5 11 -30 0z"/>
<path d="M5299 1043 c-13 -16 -12 -17 4 -4 16 13 21 21 13 21 -2 0 -10 -8 -17
-17z"/>
<path d="M5556 950 c-32 -61 -56 -113 -53 -116 3 -3 15 16 28 41 13 26 25 42
27 37 2 -6 -6 -29 -17 -51 -23 -45 -25 -51 -12 -51 5 0 11 14 15 31 3 17 10
28 16 24 7 -4 7 -13 -1 -26 -5 -11 -8 -25 -5 -32 2 -7 8 -2 11 10 4 13 11 20
16 17 5 -3 2 -18 -6 -35 -9 -16 -11 -29 -5 -29 5 0 10 3 10 8 1 18 18 32 33
27 10 -4 13 -13 9 -23 -5 -15 -4 -15 11 -3 9 7 17 19 17 25 0 6 12 29 26 49
14 21 24 41 21 43 -3 3 -15 -11 -27 -31 -12 -20 -25 -34 -27 -31 -3 3 9 28 26
57 37 59 36 78 -1 22 -46 -70 -52 -85 -37 -94 8 -5 9 -9 3 -9 -18 0 -57 47
-45 55 6 3 11 -1 11 -9 0 -9 5 -16 10 -16 13 0 13 11 -1 66 -9 34 -9 52 0 72
10 24 10 25 -2 10 -20 -26 -28 -22 -15 7 8 18 17 24 30 19 10 -3 18 -1 18 5 0
6 -4 11 -9 11 -5 0 -11 7 -13 16 -2 9 -29 -34 -62 -96z m24 -73 c-10 -10 -11
-6 -8 15 3 15 0 29 -5 31 -7 2 -7 11 -2 23 7 16 9 13 18 -19 7 -29 6 -42 -3
-50z"/>
<path d="M5775 1050 c-7 -12 12 -12 40 0 18 8 17 9 -7 9 -15 1 -30 -3 -33 -9z"/>
<path d="M6360 1040 c-12 -8 -11 -10 7 -10 12 0 25 5 28 10 8 13 -15 13 -35 0z"/>
<path d="M5297 1015 c-10 -7 -14 -16 -9 -19 5 -3 15 1 22 9 17 21 9 27 -13 10z"/>
<path d="M6165 1019 c-4 -5 -10 -7 -14 -4 -14 8 -46 -36 -47 -66 -2 -35 -4
-36 41 27 19 27 35 42 35 34 0 -8 -7 -24 -15 -34 -10 -13 -11 -22 -5 -26 7 -4
5 -11 -5 -20 -13 -11 -15 -10 -9 6 5 18 5 18 -10 0 -22 -27 -3 -46 21 -23 13
11 23 13 33 7 8 -5 22 -9 30 -9 9 0 6 4 -6 9 -27 11 -38 27 -24 35 5 3 10 1
10 -4 0 -6 4 -11 9 -11 6 0 4 12 -4 26 -7 15 -11 32 -9 39 6 15 -23 28 -31 14z
m-27 -34 c-6 -14 -15 -25 -20 -25 -5 0 -1 11 8 25 9 14 18 25 20 25 2 0 -2
-11 -8 -25z m52 -15 c0 -5 -5 -10 -11 -10 -5 0 -7 5 -4 10 3 6 8 10 11 10 2 0
4 -4 4 -10z"/>
<path d="M5631 972 c-12 -24 -20 -46 -18 -48 7 -8 48 67 44 80 -2 6 -14 -9
-26 -32z"/>
<path d="M5647 933 c-15 -25 -26 -47 -24 -50 3 -2 17 17 32 42 35 60 28 67 -8
8z"/>
<path d="M5813 918 c-26 -32 -53 -101 -48 -118 9 -28 -3 -44 -21 -29 -10 8
-11 16 -4 29 18 34 10 35 -11 2 -27 -41 -35 -36 -13 7 9 18 14 35 10 38 -3 3
-13 -11 -22 -31 -10 -20 -21 -36 -26 -36 -5 0 1 18 12 41 29 55 19 60 -13 7
-28 -48 -25 -58 21 -61 18 -1 32 -5 32 -9 0 -5 8 -8 18 -8 12 0 31 22 55 65
48 87 58 127 11 47 -45 -78 -58 -75 -15 4 29 54 36 80 14 52z"/>
<path d="M5839 796 c-12 -25 -25 -49 -30 -52 -5 -3 -9 -10 -9 -15 0 -6 5 -7
10 -4 14 9 63 106 56 112 -3 3 -15 -16 -27 -41z"/>
<path d="M5795 775 c-16 -30 -26 -57 -23 -60 3 -3 18 19 33 50 37 72 28 80
-10 10z"/>
<path d="M6043 787 c-24 -11 -43 -27 -43 -34 0 -22 19 -15 57 22 20 19 34 35
32 34 -2 0 -23 -10 -46 -22z"/>
<path d="M5597 793 c-4 -3 -7 -11 -7 -17 0 -6 5 -5 12 2 6 6 9 14 7 17 -3 3
-9 2 -12 -2z"/>
<path d="M5700 566 c0 -4 7 -20 15 -37 15 -28 61 -56 73 -44 8 7 -3 16 -25 20
-10 1 -17 7 -16 13 1 5 -9 20 -22 32 -14 13 -25 20 -25 16z"/>
<path d="M5484 1768 l-29 -33 33 29 c17 17 32 31 32 33 0 8 -8 1 -36 -29z"/>
<path d="M4540 966 c0 -3 20 -15 45 -27 37 -19 48 -20 58 -10 10 11 9 13 -3 9
-8 -3 -22 0 -30 7 -15 13 -70 29 -70 21z"/>
<path d="M4280 939 c-14 -6 -29 -17 -33 -25 -5 -8 -14 -11 -20 -8 -9 5 -9 3 0
-6 10 -11 16 -11 30 2 10 8 26 18 36 21 9 4 17 11 17 17 0 5 -1 10 -2 9 -2 0
-14 -5 -28 -10z"/>
<path d="M4320 923 c0 -13 24 -39 41 -45 6 -2 13 -33 16 -70 5 -62 4 -68 -21
-93 l-26 -26 -37 35 -37 35 17 36 c24 51 21 54 -13 17 -29 -32 -29 -34 -13
-59 17 -25 17 -26 -6 -18 -16 5 -21 4 -17 -4 4 -6 14 -11 23 -11 8 0 28 -11
45 -25 33 -28 52 -24 86 20 16 21 19 35 14 97 -2 40 -11 84 -18 98 -10 19 -13
21 -14 8 0 -10 -3 -18 -6 -18 -4 0 -13 8 -20 18 -7 9 -14 12 -14 5z"/>
<path d="M4520 911 c0 -5 11 -12 25 -15 14 -4 25 -11 25 -17 0 -6 -7 -6 -21 1
-11 7 -23 9 -26 7 -3 -3 13 -15 35 -26 25 -13 43 -17 47 -11 3 6 1 10 -4 10
-6 0 -11 6 -11 13 0 7 -16 21 -35 30 -19 9 -35 13 -35 8z"/>
<path d="M4751 701 c-10 -6 -10 -10 -1 -16 13 -8 24 -1 19 14 -3 6 -10 7 -18
2z"/>
<path d="M4783 690 c-1 -11 2 -20 8 -20 5 0 9 9 9 20 0 11 -4 20 -8 20 -4 0
-8 -9 -9 -20z"/>
<path d="M4256 639 c-3 -8 -7 -27 -9 -43 -4 -37 -20 -43 -44 -17 -12 13 -23
17 -32 11 -12 -7 -12 -10 0 -22 8 -8 27 -18 42 -22 18 -4 27 -13 27 -26 0 -23
10 -26 28 -8 10 10 12 8 9 -9 -2 -13 -7 -26 -12 -30 -4 -5 -5 -2 -1 5 4 6 2
12 -3 12 -13 0 -14 -10 -1 -30 5 -9 5 -19 -2 -27 -15 -19 -2 -29 17 -13 9 7
15 29 15 52 0 28 4 39 13 35 66 -24 118 -29 193 -18 66 9 88 18 134 51 30 22
74 52 97 67 23 16 42 31 43 36 0 13 -21 7 -47 -13 -14 -11 -36 -20 -49 -20
-12 0 -24 -5 -26 -11 -5 -16 -70 -27 -219 -34 -141 -8 -145 -7 -140 27 0 4 -6
19 -14 34 -10 20 -16 24 -19 13z m19 -79 c-3 -5 -11 -10 -16 -10 -6 0 -7 5 -4
10 3 6 11 10 16 10 6 0 7 -4 4 -10z m329 -15 c-6 -14 -18 -19 -38 -16 -5 1
-13 -4 -17 -11 -7 -11 -12 -11 -29 0 -17 10 -20 10 -20 -3 0 -21 -95 -25 -150
-6 -66 23 -63 25 55 37 180 17 205 17 199 -1z"/>
<path d="M4160 619 c0 -5 5 -7 10 -4 6 3 10 8 10 11 0 2 -4 4 -10 4 -5 0 -10
-5 -10 -11z"/>
<path d="M5000 1237 c-7 -12 -14 -42 -15 -67 -1 -38 2 -46 17 -46 19 0 25 12
9 18 -5 2 -12 18 -16 37 -5 26 -4 32 6 29 8 -3 14 -14 13 -26 -1 -30 13 -17
21 19 5 21 3 36 -7 45 -11 12 -16 10 -28 -9z"/>
<path d="M4978 1101 c11 -7 11 -9 -2 -14 -11 -4 -16 -18 -15 -44 1 -36 2 -36
8 -9 3 17 11 29 16 28 6 -2 11 9 13 23 3 19 -1 25 -15 25 -14 0 -15 -2 -5 -9z"/>
<path d="M372 2438 c-7 -7 -12 -20 -12 -29 0 -10 -4 -21 -10 -24 -5 -3 -10
-14 -10 -23 0 -10 -8 -33 -18 -52 -11 -19 -22 -51 -26 -70 l-6 -35 17 25 c9
14 20 27 23 30 10 7 60 88 60 96 0 4 -7 1 -15 -6 -16 -13 -21 0 -6 16 12 12
31 84 22 84 -4 0 -12 -5 -19 -12z"/>
<path d="M683 2407 c-7 -26 -13 -58 -13 -72 0 -13 -4 -27 -10 -30 -5 -3 -9
-18 -9 -33 1 -21 2 -22 6 -7 3 11 9 24 14 30 5 5 9 23 9 40 0 17 5 36 11 42 6
6 9 26 7 44 -3 33 -3 33 -15 -14z"/>
<path d="M1021 2422 c-8 -15 -17 -35 -22 -44 -5 -10 -9 -27 -9 -37 0 -11 -4
-23 -10 -26 -5 -3 -10 -15 -10 -26 0 -10 -4 -27 -9 -37 -15 -28 -41 -122 -41
-148 0 -12 -4 -25 -9 -28 -5 -3 -11 -20 -14 -38 -3 -18 -11 -53 -17 -78 -12
-48 -13 -55 -30 -140 -6 -30 -16 -77 -21 -105 -6 -27 -13 -103 -16 -167 -4
-100 -2 -118 10 -118 8 0 18 7 21 16 10 25 7 92 -4 96 -10 3 0 124 20 243 6
33 13 77 16 98 4 20 10 40 15 43 5 3 9 20 9 38 0 18 3 36 8 40 4 4 12 33 19
64 6 31 15 71 18 87 4 17 10 39 14 50 5 11 14 38 20 60 7 22 16 49 21 60 36
88 53 167 21 97z"/>
<path d="M1292 2430 c-6 -11 -12 -27 -12 -35 0 -8 -4 -15 -10 -15 -5 0 -10 -6
-10 -13 0 -14 -31 -97 -80 -212 -7 -16 -17 -41 -23 -55 -5 -14 -13 -32 -17
-40 -4 -9 -11 -31 -15 -50 -4 -19 -12 -43 -18 -55 -24 -47 -27 -56 -27 -75 0
-11 -4 -20 -10 -20 -5 0 -10 -13 -10 -29 0 -17 -4 -32 -9 -36 -6 -3 -13 -26
-17 -50 -3 -25 -10 -48 -15 -51 -5 -3 -9 -16 -9 -29 0 -13 -4 -27 -10 -30 -5
-3 -10 -16 -10 -28 0 -48 23 13 96 253 14 47 30 96 36 110 6 14 15 36 21 50 5
14 13 33 18 42 5 10 9 23 9 29 0 6 7 27 16 47 9 21 19 46 24 57 4 11 21 49 39
84 17 35 31 68 31 73 0 6 7 25 16 44 18 38 15 65 -4 34z"/>
<path d="M1703 2438 c-5 -7 -18 -35 -28 -63 -10 -27 -22 -55 -26 -61 -5 -6 -6
-14 -2 -17 11 -12 23 -8 23 8 0 8 4 23 9 33 5 9 17 35 26 57 10 22 20 43 22
48 7 12 -14 8 -24 -5z"/>
<path d="M2128 2410 c22 -22 46 -40 53 -40 8 0 1 11 -16 25 -16 13 -37 31 -46
40 -9 8 -19 15 -24 15 -4 0 11 -18 33 -40z"/>
<path d="M4108 2425 c-8 -19 -8 -28 2 -40 18 -22 36 -19 59 11 16 21 18 30 10
40 -19 23 -58 17 -71 -11z"/>
<path d="M4446 2415 c14 -35 14 -35 -9 -30 -51 13 -176 10 -189 -4 -11 -12
-10 -13 7 -7 21 8 218 -21 252 -37 12 -5 28 -7 35 -4 8 2 31 -8 53 -24 21 -16
41 -26 44 -23 3 3 -3 10 -13 16 -34 19 91 64 332 119 50 11 92 22 92 24 0 2
-91 4 -202 5 l-201 0 19 -23 c10 -12 23 -25 29 -29 13 -10 7 -14 -56 -36 -54
-19 -56 -19 -78 -1 -13 11 -27 16 -32 13 -5 -3 -9 0 -9 5 0 12 11 14 48 11 14
-1 22 4 22 13 0 9 3 22 6 31 5 14 -6 16 -79 16 l-86 0 15 -35z"/>
<path d="M28 2402 c-16 -10 -28 -23 -28 -30 0 -9 9 -7 30 8 17 12 30 26 30 31
0 11 2 11 -32 -9z"/>
<path d="M1800 2324 c0 -8 5 -12 10 -9 6 4 8 11 5 16 -9 14 -15 11 -15 -7z"/>
<path d="M18 2313 c-10 -2 -18 -11 -18 -19 0 -12 3 -12 20 -2 11 7 20 16 20
20 0 5 -1 7 -2 7 -2 -1 -11 -3 -20 -6z"/>
<path d="M1622 2268 c0 -16 -5 -35 -11 -42 -6 -6 -13 -32 -17 -56 -6 -40 -5
-44 8 -32 9 7 19 31 22 54 4 24 13 50 21 58 13 14 12 18 -4 32 -17 14 -18 13
-19 -14z"/>
<path d="M38 2257 c-21 -12 -38 -28 -38 -35 0 -13 26 0 79 40 33 25 4 22 -41
-5z"/>
<path d="M4697 2270 c5 -4 37 -13 73 -20 35 -6 77 -20 91 -31 33 -23 39 -24
39 -4 0 8 -16 22 -36 30 -38 15 -180 37 -167 25z"/>
<path d="M90 2225 c-13 -14 -19 -25 -13 -25 5 0 20 11 33 25 13 14 19 25 13
25 -5 0 -20 -11 -33 -25z"/>
<path d="M1692 2208 c-7 -7 -12 -16 -12 -21 0 -5 7 -1 16 8 9 9 14 18 12 20
-2 3 -10 -1 -16 -7z"/>
<path d="M1632 2139 c-18 -16 -28 -29 -22 -29 12 0 64 49 59 55 -2 2 -19 -10
-37 -26z"/>
<path d="M797 2083 c-4 -3 -7 -13 -7 -22 1 -13 3 -13 11 2 11 19 8 33 -4 20z"/>
<path d="M782 2010 c0 -14 2 -19 5 -12 2 6 2 18 0 25 -3 6 -5 1 -5 -13z"/>
<path d="M762 1898 c-1 -25 -5 -55 -8 -65 -5 -14 -4 -15 5 -7 8 7 11 31 8 65
l-3 54 -2 -47z"/>
<path d="M245 1890 c-11 -4 -33 -22 -49 -39 -24 -25 -27 -31 -12 -31 10 0 20
9 23 20 3 11 10 20 15 20 5 0 21 9 35 20 27 21 22 25 -12 10z"/>
<path d="M256 1847 c-11 -7 -29 -20 -40 -29 -11 -10 -25 -18 -30 -18 -18 -1
-61 -38 -54 -46 4 -4 23 5 42 20 19 14 38 26 43 26 4 0 24 14 43 30 35 29 32
39 -4 17z"/>
<path d="M744 1590 c0 -107 2 -151 3 -97 2 53 2 141 0 195 -1 53 -3 9 -3 -98z"/>
<path d="M256 1763 c-4 -5 -13 -8 -19 -8 -7 0 -12 -5 -12 -12 0 -6 -4 -15 -9
-20 -5 -5 -6 -3 -2 5 12 21 -9 13 -33 -12 -29 -30 -19 -53 11 -28 52 42 92 81
82 82 -6 0 -14 -3 -18 -7z"/>
<path d="M2375 1690 c-3 -5 -1 -10 4 -10 6 0 11 5 11 10 0 6 -2 10 -4 10 -3 0
-8 -4 -11 -10z"/>
<path d="M2337 1663 c-15 -14 -6 -22 16 -14 12 5 25 8 29 7 3 0 10 2 14 7 4 4
-6 7 -23 7 -16 0 -33 -3 -36 -7z"/>
<path d="M10 1579 c-6 -11 -10 -25 -7 -32 2 -6 9 3 15 21 12 36 8 42 -8 11z"/>
<path d="M4 1505 c-9 -37 0 -40 13 -5 6 17 7 30 2 30 -5 0 -11 -11 -15 -25z"/>
<path d="M2255 1519 c-60 -14 -86 -30 -83 -52 5 -36 30 -41 82 -18 39 17 47
25 43 41 -4 16 2 22 26 29 l32 9 -30 0 c-16 0 -48 -4 -70 -9z"/>
<path d="M16 1448 c-20 -29 -21 -48 -1 -22 13 16 13 12 -1 -24 -9 -24 -14 -45
-11 -48 4 -5 19 30 37 89 10 33 -3 36 -24 5z"/>
<path d="M429 1438 c-5 -9 -5 -48 -1 -43 6 6 11 45 5 45 -2 0 -4 -1 -4 -2z"/>
<path d="M812 1370 c0 -14 2 -19 5 -12 2 6 2 18 0 25 -3 6 -5 1 -5 -13z"/>
<path d="M1490 1382 c0 -12 19 -26 26 -19 2 2 -2 10 -11 17 -9 8 -15 8 -15 2z"/>
<path d="M21 1331 c-27 -38 -27 -50 0 -20 23 26 23 31 -8 -59 -8 -24 -13 -45
-10 -48 4 -4 19 37 52 144 8 22 -13 12 -34 -17z"/>
<path d="M800 1333 c0 -6 -7 -19 -16 -27 -11 -11 -14 -25 -9 -46 12 -53 45
-32 45 28 0 26 -20 70 -20 45z"/>
<path d="M3449 1325 c0 0 -2 -8 -4 -17 -2 -12 3 -18 16 -18 10 0 19 6 19 13 0
8 4 7 10 -3 6 -9 10 -10 10 -3 0 6 8 13 18 15 9 3 -2 6 -25 9 -24 2 -43 4 -44
4z"/>
<path d="M423 1305 c0 -8 4 -12 9 -9 5 3 6 10 3 15 -9 13 -12 11 -12 -6z"/>
<path d="M3373 1283 c9 -2 23 -2 30 0 6 3 -1 5 -18 5 -16 0 -22 -2 -12 -5z"/>
<path d="M3318 1273 c6 -2 18 -2 25 0 6 3 1 5 -13 5 -14 0 -19 -2 -12 -5z"/>
<path d="M516 1262 c-3 -5 1 -9 9 -9 8 0 12 4 9 9 -3 4 -7 8 -9 8 -2 0 -6 -4
-9 -8z"/>
<path d="M3380 1260 c0 -5 5 -10 10 -10 6 0 10 5 10 10 0 6 -4 10 -10 10 -5 0
-10 -4 -10 -10z"/>
<path d="M1872 1205 c21 -19 43 -35 50 -35 6 0 -6 16 -28 35 -51 45 -70 45
-22 0z"/>
<path d="M3235 1200 c-3 -5 1 -10 9 -10 9 0 16 5 16 10 0 6 -4 10 -9 10 -6 0
-13 -4 -16 -10z"/>
<path d="M25 1180 c-3 -11 -11 -20 -16 -20 -27 0 9 -249 72 -487 36 -138 108
-348 161 -467 21 -49 37 -90 35 -92 -6 -6 -65 119 -113 239 -53 132 -107 303
-139 440 -14 61 -24 89 -24 69 -2 -86 138 -542 213 -697 48 -96 98 -165 122
-165 20 0 18 6 -25 90 -56 109 -145 347 -197 526 -45 160 -63 240 -91 422 -14
91 -14 105 -1 120 23 27 30 42 19 42 -5 0 -13 -9 -16 -20z"/>
<path d="M1688 1128 c-15 -16 -25 -34 -22 -39 3 -5 0 -9 -6 -9 -6 0 -15 -10
-20 -22 -5 -13 -18 -36 -29 -53 -12 -16 -21 -34 -21 -40 0 -5 18 16 41 48 22
31 54 64 71 73 29 15 28 13 -21 -58 -28 -40 -62 -86 -75 -102 l-23 -30 -7 57
c-4 31 -12 57 -18 57 -5 0 -8 -6 -5 -14 3 -8 9 -47 13 -87 4 -41 10 -65 12
-54 2 11 19 38 37 60 57 71 145 206 145 222 0 13 -6 11 -28 -10 -37 -36 -49
-34 -22 3 28 39 13 38 -22 -2z"/>
<path d="M3378 1153 c7 -3 16 -2 19 1 4 3 -2 6 -13 5 -11 0 -14 -3 -6 -6z"/>
<path d="M3418 1143 c7 -3 16 -2 19 1 4 3 -2 6 -13 5 -11 0 -14 -3 -6 -6z"/>
<path d="M354 1105 c-10 -8 -15 -15 -11 -15 4 0 3 -8 -2 -18 -7 -13 -7 -22 1
-30 8 -8 8 -15 -2 -27 -7 -8 -11 -15 -9 -16 24 -5 67 -4 63 3 -3 4 1 8 8 8 9
0 9 3 -2 10 -13 9 -13 11 0 20 8 5 10 10 4 10 -6 0 -10 11 -9 25 4 34 -16 49
-41 30z m31 -51 c-1 -42 -4 -48 -24 -49 -23 -2 -23 -1 -5 12 18 13 18 15 2 24
-10 5 -15 16 -12 24 4 8 10 12 15 9 5 -3 9 0 9 5 0 6 -6 11 -12 11 -9 0 -8 3
2 9 21 14 26 7 25 -45z"/>
<path d="M362 1061 c-11 -7 -11 -9 0 -14 9 -3 15 1 15 9 0 8 -1 14 -1 14 -1 0
-7 -4 -14 -9z"/>
<path d="M1759 1085 c-2 -25 -5 -43 -9 -47 -1 -2 -3 -27 -3 -56 -1 -29 -7 -56
-13 -60 -6 -4 -25 -29 -44 -56 -18 -27 -53 -73 -77 -103 -25 -30 -43 -57 -40
-59 7 -7 71 70 120 143 23 34 45 63 48 63 3 0 4 -12 1 -27 -6 -33 -49 -106
-109 -186 -24 -32 -42 -64 -40 -70 3 -11 121 156 134 191 4 9 12 22 19 27 11
10 30 265 19 265 -3 0 -6 -11 -6 -25z"/>
<path d="M1610 1091 c0 -5 9 -7 20 -4 11 3 20 7 20 9 0 2 -9 4 -20 4 -11 0
-20 -4 -20 -9z"/>
<path d="M1605 1050 c-3 -6 1 -7 9 -4 18 7 21 14 7 14 -6 0 -13 -4 -16 -10z"/>
<path d="M3390 1013 c0 -9 111 -36 118 -29 2 3 -16 10 -39 16 -24 6 -52 13
-61 16 -10 3 -18 1 -18 -3z"/>
<path d="M1704 970 c-16 -23 -53 -72 -82 -110 -28 -39 -48 -70 -44 -70 7 0 62
70 155 198 6 7 8 15 5 17 -2 3 -18 -13 -34 -35z"/>
<path d="M1787 983 c-10 -51 -20 -158 -14 -152 10 8 35 179 27 179 -4 0 -10
-12 -13 -27z"/>
<path d="M3779 933 c-36 -91 -68 -222 -56 -226 6 -2 5 -22 -3 -56 -7 -29 -10
-69 -7 -89 5 -40 74 -165 86 -158 4 3 20 -1 34 -9 l27 -14 -26 35 c-15 18 -32
51 -40 71 -10 29 -13 32 -14 15 0 -13 5 -33 11 -44 17 -32 -9 -12 -30 23 -16
25 -16 36 -5 101 15 85 18 168 5 168 -10 0 7 89 20 105 4 6 12 30 17 53 11 49
-3 67 -19 25z m-24 -292 c-4 -28 -11 -51 -16 -51 -11 0 -11 -2 2 60 14 65 23
58 14 -9z"/>
<path d="M1113 913 c-18 -38 -16 -54 2 -19 9 16 14 33 13 37 -2 5 -9 -4 -15
-18z"/>
<path d="M3591 924 c0 -11 3 -14 6 -6 3 7 2 16 -1 19 -3 4 -6 -2 -5 -13z"/>
<path d="M3343 923 c9 -2 23 -2 30 0 6 3 -1 5 -18 5 -16 0 -22 -2 -12 -5z"/>
<path d="M70 873 c10 -23 47 -53 64 -53 5 0 -4 10 -20 22 -16 13 -35 29 -42
38 -11 13 -11 12 -2 -7z"/>
<path d="M1072 828 c-7 -18 -17 -40 -21 -48 -5 -9 -12 -30 -15 -48 -4 -17 -12
-34 -17 -37 -5 -4 -9 -17 -9 -30 0 -13 -4 -27 -10 -30 -14 -9 -13 -56 1 -52 7
1 23 -20 38 -48 14 -27 29 -51 33 -53 5 -2 8 -10 8 -17 0 -7 3 -15 8 -17 9 -4
51 -76 59 -100 3 -10 9 -18 14 -18 14 0 10 13 -11 40 -11 14 -20 30 -20 37 0
6 -3 13 -7 15 -9 4 -41 58 -83 144 -31 61 -31 62 -14 105 26 70 53 138 65 161
11 22 11 28 1 28 -4 0 -13 -15 -20 -32z"/>
<path d="M3233 791 c-57 -16 -113 -44 -113 -56 0 -3 13 1 29 10 16 8 64 24
108 36 43 12 80 23 82 25 10 10 -49 1 -106 -15z"/>
<path d="M1121 763 c-1 -12 -5 -25 -11 -28 -5 -3 -10 -17 -10 -30 0 -13 -4
-26 -9 -29 -11 -7 -22 -87 -14 -114 10 -39 18 -23 17 36 0 54 7 91 29 139 5
11 7 27 4 35 -3 7 -6 4 -6 -9z"/>
<path d="M2987 691 c-19 -22 -41 -50 -47 -63 -7 -12 3 -5 21 17 19 22 42 48
52 58 10 10 17 21 14 23 -2 3 -20 -13 -40 -35z"/>
<path d="M1704 700 c-12 -40 -74 -154 -92 -167 -8 -7 -12 -16 -8 -20 4 -5 17
3 28 17 30 36 91 167 85 182 -4 8 -9 3 -13 -12z"/>
<path d="M1535 699 c-10 -15 3 -25 16 -12 7 7 7 13 1 17 -6 3 -14 1 -17 -5z"/>
<path d="M3669 690 c-17 -14 -20 -19 -9 -20 10 0 7 -7 -10 -20 -37 -29 -15
-24 28 6 29 21 32 24 12 19 -25 -8 -25 -8 -6 14 24 26 16 27 -15 1z"/>
<path d="M3651 614 c-19 -13 -30 -24 -26 -24 9 0 75 40 75 46 0 9 -16 1 -49
-22z"/>
<path d="M1756 481 c-64 -83 -116 -155 -116 -161 0 -7 26 21 57 61 31 41 85
109 120 152 55 67 73 97 59 97 -2 0 -56 -67 -120 -149z"/>
<path d="M1956 585 c-10 -7 -16 -19 -14 -25 2 -6 14 0 27 14 26 28 18 35 -13
11z"/>
<path d="M978 564 c-5 -4 -8 -18 -8 -30 0 -13 -4 -26 -10 -29 -5 -3 -10 -17
-10 -31 0 -13 5 -24 10 -24 6 0 10 13 10 28 0 15 5 33 11 39 6 6 9 21 7 33 -1
12 -6 18 -10 14z"/>
<path d="M4834 527 c-52 -57 -80 -92 -61 -78 26 21 20 1 -10 -33 -16 -17 -19
-23 -7 -13 24 20 39 22 27 5 -4 -7 -6 -21 -4 -32 1 -10 -10 -31 -26 -48 -22
-23 -24 -28 -8 -22 19 7 19 7 -1 -17 -38 -43 -38 -55 -1 -20 56 53 44 22 -13
-34 -27 -27 -50 -54 -50 -60 0 -5 17 7 36 28 56 60 51 36 -7 -34 -30 -37 -39
-52 -21 -35 18 17 32 26 32 22 0 -10 -41 -69 -55 -78 -6 -5 -6 -8 2 -8 7 0 23
15 36 33 27 36 42 71 27 62 -18 -11 -11 6 16 37 14 17 23 36 20 43 -2 7 4 21
15 31 12 11 16 20 9 24 -7 4 -3 17 12 36 l22 29 -32 -29 c-18 -17 -32 -25 -32
-20 0 6 11 21 25 34 19 18 22 26 14 37 -9 9 -8 17 1 28 6 8 9 19 5 24 -3 7 0
8 9 5 11 -4 14 -15 11 -37 l-5 -32 9 30 c16 53 40 150 37 152 -1 2 -16 -12
-32 -30z m1 -27 c-11 -12 -13 -20 -6 -20 7 0 9 -5 5 -11 -4 -8 -9 -7 -15 2 -6
10 -9 11 -9 2 0 -7 -5 -13 -11 -13 -5 0 2 16 17 35 15 20 29 33 32 30 3 -3 -3
-14 -13 -25z"/>
<path d="M1461 504 c0 -11 3 -14 6 -6 3 7 2 16 -1 19 -3 4 -6 -2 -5 -13z"/>
<path d="M3986 508 c12 -22 47 -58 55 -58 5 0 6 7 3 15 -4 8 -12 15 -19 15 -8
0 -17 9 -20 20 -3 11 -11 20 -16 20 -6 0 -7 -6 -3 -12z"/>
<path d="M1760 413 c-35 -49 -68 -89 -72 -91 -4 -2 -8 -8 -8 -13 0 -5 -18 -32
-40 -61 -25 -33 -36 -56 -30 -62 12 -12 53 23 46 39 -2 6 36 67 85 136 78 109
97 139 86 139 -1 0 -31 -39 -67 -87z"/>
<path d="M350 442 c0 -23 46 -143 107 -283 56 -127 72 -155 91 -157 l22 -3
-16 43 c-10 24 -24 52 -32 63 -13 19 -14 19 -8 -5 7 -32 -67 122 -104 215 -15
39 -31 85 -35 103 -6 28 -25 46 -25 24z"/>
<path d="M940 413 c0 -21 2 -24 15 -13 8 7 15 16 15 20 0 4 -7 10 -15 14 -11
4 -15 -2 -15 -21z"/>
<path d="M1030 436 c0 -4 11 -27 25 -52 14 -25 25 -53 25 -64 0 -10 5 -22 10
-25 6 -3 10 -22 10 -41 0 -24 5 -34 15 -34 17 0 20 31 6 58 -17 31 -41 90 -41
99 0 4 -11 21 -25 37 -14 16 -25 26 -25 22z"/>
<path d="M4036 418 c12 -42 23 -55 19 -23 -2 17 -4 33 -4 38 -1 4 -6 7 -12 7
-6 0 -8 -9 -3 -22z"/>
<path d="M4069 425 c-3 -11 3 -42 12 -70 21 -60 23 -42 5 35 -8 35 -14 48 -17
35z"/>
<path d="M3517 357 c-82 -40 -146 -75 -142 -79 6 -6 305 138 305 147 0 10 -17
3 -163 -68z"/>
<path d="M3525 390 c-3 -5 -1 -10 4 -10 6 0 11 5 11 10 0 6 -2 10 -4 10 -3 0
-8 -4 -11 -10z"/>
<path d="M3600 344 c-63 -30 -132 -62 -152 -72 -21 -9 -38 -20 -38 -25 0 -4 3
-6 8 -4 39 20 216 103 247 115 50 19 86 42 65 41 -8 0 -67 -25 -130 -55z"/>
<path d="M5695 391 c-3 -5 -1 -12 5 -16 6 -4 7 -12 3 -18 -4 -7 1 -6 10 2 13
10 15 17 6 27 -14 17 -16 17 -24 5z"/>
<path d="M4750 375 c-7 -9 -11 -18 -8 -20 3 -3 11 1 18 10 7 9 11 18 8 20 -3
3 -11 -1 -18 -10z"/>
<path d="M3410 338 c-96 -45 -153 -78 -147 -85 4 -3 234 111 246 122 12 12
-22 0 -99 -37z"/>
<path d="M3293 307 c-24 -11 -43 -25 -43 -29 0 -5 23 3 50 17 28 14 50 28 50
30 0 9 -14 4 -57 -18z"/>
<path d="M5747 278 c20 -22 18 -22 20 1 1 14 -4 19 -17 18 -18 -1 -18 -3 -3
-19z"/>
<path d="M1410 280 c0 -5 5 -10 11 -10 5 0 7 5 4 10 -3 6 -8 10 -11 10 -2 0
-4 -4 -4 -10z"/>
<path d="M1610 259 c0 -5 5 -7 10 -4 6 3 10 8 10 11 0 2 -4 4 -10 4 -5 0 -10
-5 -10 -11z"/>
<path d="M3465 236 c-22 -12 -68 -42 -103 -65 -35 -24 -66 -41 -68 -38 -3 3
18 20 45 38 54 34 63 51 14 25 -47 -25 -90 -66 -75 -73 10 -4 6 -13 -14 -34
-24 -25 -25 -29 -10 -35 12 -5 14 -10 6 -19 -9 -10 -6 -16 8 -24 16 -9 29 -2
78 40 75 65 100 89 92 89 -3 0 -39 -27 -78 -60 -70 -58 -90 -70 -90 -51 0 11
85 80 152 123 26 17 46 34 43 36 -5 5 -59 -31 -152 -100 -24 -17 -45 -29 -49
-26 -9 10 47 57 156 129 101 67 127 93 45 45z"/>
<path d="M5753 213 c0 -9 4 -10 13 -2 27 22 42 -14 21 -48 -5 -8 -3 -13 4 -13
9 0 9 -3 0 -14 -8 -10 -9 -16 -1 -21 5 -3 10 -3 10 1 0 4 13 -5 29 -20 18 -17
31 -24 35 -17 7 10 1 15 -16 13 -3 -1 -12 5 -19 14 -11 13 -8 14 15 10 22 -4
25 -2 17 8 -6 7 -7 17 -3 21 4 5 2 5 -4 2 -7 -4 -18 0 -25 9 -11 13 -10 15 5
12 22 -4 33 36 13 49 -21 14 -94 11 -94 -4z m93 -20 c1 -12 -3 -20 -7 -17 -22
13 -29 -9 -10 -30 l20 -21 -29 0 c-18 -1 -26 3 -22 10 5 5 8 26 7 46 0 30 3
36 20 35 13 -1 20 -8 21 -23z"/>
<path d="M3710 173 c-98 -53 -95 -51 -87 -59 3 -4 23 4 44 16 21 13 63 36 93
53 66 36 67 37 49 37 -8 0 -52 -21 -99 -47z"/>
<path d="M4259 196 c6 -8 10 -19 9 -26 -2 -7 5 -14 15 -15 15 -3 15 0 -4 26
-11 16 -23 29 -26 29 -3 0 0 -6 6 -14z"/>
<path d="M1537 173 c-3 -16 -8 -35 -12 -44 -4 -10 0 -19 11 -23 12 -4 15 -2
11 9 -4 8 -2 17 4 21 6 3 8 12 5 19 -2 7 2 16 10 19 17 7 9 26 -10 26 -8 0
-16 -12 -19 -27z"/>
<path d="M3795 164 c-28 -14 -88 -41 -135 -61 -86 -37 -114 -53 -92 -53 13 0
243 102 272 120 33 21 1 17 -45 -6z"/>
<path d="M5754 136 c1 -8 5 -18 8 -22 4 -3 5 1 4 10 -1 8 -5 18 -8 22 -4 3 -5
-1 -4 -10z"/>
<path d="M4290 135 c0 -4 11 -21 25 -37 17 -20 22 -34 16 -42 -9 -11 8 -46 24
-46 4 0 2 6 -4 14 -9 11 -9 15 0 18 8 3 7 12 -4 33 -15 31 -57 74 -57 60z"/>
<path d="M1590 104 c0 -17 22 -14 28 4 2 7 -3 12 -12 12 -9 0 -16 -7 -16 -16z"/>
<path d="M1560 100 c0 -5 5 -10 10 -10 6 0 10 5 10 10 0 6 -4 10 -10 10 -5 0
-10 -4 -10 -10z"/>
<path d="M3647 57 c-92 -43 -111 -49 -128 -39 -26 17 -74 15 -89 -3 -11 -13
-4 -15 56 -15 59 0 81 6 151 38 71 34 138 72 123 71 -3 -1 -54 -24 -113 -52z"/>
<path d="M3391 66 c-53 -45 -74 -66 -64 -66 10 1 121 99 111 100 -3 0 -24 -15
-47 -34z"/>
<path d="M4290 96 c0 -2 8 -10 18 -17 15 -13 16 -12 3 4 -13 16 -21 21 -21 13z"/>
<path d="M5884 83 c2 -10 6 -17 10 -16 15 3 16 11 2 22 -12 10 -14 9 -12 -6z"/>
<path d="M2202 30 c-18 -17 -29 -30 -25 -30 12 1 79 60 68 60 -6 0 -25 -14
-43 -30z"/>
<path d="M3394 28 l-29 -33 33 29 c17 17 32 31 32 33 0 8 -8 1 -36 -29z"/>
<path d="M3657 33 c-27 -13 -46 -27 -44 -30 5 -5 107 44 107 52 0 9 -14 4 -63
-22z"/>
<path d="M5923 53 c4 -6 3 -13 -3 -15 -6 -2 -1 -9 9 -15 28 -18 35 1 9 23 -12
11 -18 14 -15 7z"/>
<path d="M480 43 c0 -19 11 -43 21 -43 13 0 11 14 -6 36 -8 10 -15 14 -15 7z"/>
<path d="M2110 25 c-7 -9 -11 -18 -8 -20 3 -3 11 1 18 10 7 9 11 18 8 20 -3 3
-11 -1 -18 -10z"/>
<path d="M2293 26 c-44 -16 -50 -24 -16 -22 15 1 39 9 53 19 28 19 11 21 -37
3z"/>
<path d="M1715 16 c-18 -14 -12 -15 78 -16 53 0 97 4 97 9 0 23 -146 29 -175
7z"/>
</g>
</svg>
