<svg xmlns="http://www.w3.org/2000/svg" width="201" height="107" viewBox="0 0 201 107" version="1.1"><path d="M 4.200 1.200 C 2.470 2.930, 2.470 102.070, 4.200 103.800 C 5.940 105.540, 196.060 105.540, 197.800 103.800 C 199.530 102.070, 199.530 2.930, 197.800 1.200 C 196.060 -0.540, 5.940 -0.540, 4.200 1.200 M 4.458 2.250 C 4.195 2.938, 4.097 26, 4.240 53.500 L 4.500 103.500 77.675 103.756 C 146.752 103.999, 150.877 103.915, 151.309 102.256 C 151.744 100.591, 151.774 100.590, 151.884 102.250 C 151.948 103.213, 152.450 104, 153 104 C 153.588 104, 154 100.500, 154 95.500 C 154 87.112, 154.303 86.412, 157.418 87.607 C 159.146 88.270, 159.614 91, 158 91 C 157.436 91, 157 93.833, 157 97.500 C 157 102.611, 157.321 104, 158.500 104 C 159.715 104, 160 102.392, 160 95.531 C 160 88.415, 160.239 87.155, 161.500 87.638 C 163.167 88.278, 163.572 91, 162 91 C 161.436 91, 161 93.833, 161 97.500 L 161 104 164 104 L 167 104 167 97.583 C 167 93.386, 166.568 90.992, 165.750 90.662 C 164.750 90.259, 164.750 90.142, 165.750 90.079 C 166.438 90.036, 167 89.297, 167 88.437 C 167 87.390, 167.743 86.978, 169.250 87.187 C 171.330 87.476, 171.542 88.143, 172.061 96 L 172.622 104.500 172.811 95.750 C 173.058 84.301, 175 84.080, 175 95.500 C 175 100.500, 175.412 104, 176 104 C 176.588 104, 177 100.503, 177 95.509 L 177 87.018 181.750 87.259 L 186.500 87.500 187.061 96 L 187.622 104.500 187.811 95.750 C 187.963 88.723, 188.295 87, 189.500 87 C 190.705 87, 191.037 88.723, 191.189 95.750 L 191.378 104.500 192 95.500 L 192.622 86.500 192.811 95.320 C 192.994 103.848, 193.074 104.129, 195.250 103.820 L 197.500 103.500 197.500 52.500 L 197.500 1.500 188.750 1.211 L 180 0.922 180 42.711 L 180.001 84.500 172.250 84.296 C 167.988 84.184, 161.912 84.072, 158.750 84.046 L 153 84 153 43.500 L 153 3 159 3 C 162.333 3, 165 2.556, 165 2 C 165 1.437, 162.191 1, 158.573 1 C 153.294 1, 152.065 1.312, 151.689 2.750 C 151.254 4.417, 151.226 4.417, 151.116 2.750 C 151.007 1.100, 146.811 1, 77.969 1 C 20.466 1, 4.835 1.266, 4.458 2.250 M 166 21 L 166 41 172.500 41 L 179 41 179 21 L 179 1 172.500 1 L 166 1 166 21 M 6 9 L 6 14 77 14 L 148 14 148 9 L 148 4 77 4 L 6 4 6 9 M 7.168 9.250 L 7.336 13.500 7.728 9.750 L 8.121 6 77 6 L 145.879 6 146.272 9.750 L 146.664 13.500 146.832 9.250 L 147 5 77 5 L 7 5 7.168 9.250 M 151.079 7.583 C 151.127 8.748, 151.364 8.985, 151.683 8.188 C 151.972 7.466, 151.936 6.603, 151.604 6.271 C 151.272 5.939, 151.036 6.529, 151.079 7.583 M 13 10 C 13 10.550, 13.450 11, 14 11 C 14.550 11, 15 10.550, 15 10 C 15 9.450, 14.550 9, 14 9 C 13.450 9, 13 9.450, 13 10 M 16 10 C 16 10.550, 16.675 11, 17.500 11 C 18.325 11, 19 10.550, 19 10 C 19 9.450, 18.325 9, 17.500 9 C 16.675 9, 16 9.450, 16 10 M 21 10 C 21 10.550, 21.450 11, 22 11 C 22.550 11, 23 10.550, 23 10 C 23 9.450, 22.550 9, 22 9 C 21.450 9, 21 9.450, 21 10 M 25 10.059 C 25 10.641, 25.450 10.840, 26 10.500 C 26.550 10.160, 27 9.684, 27 9.441 C 27 9.198, 26.550 9, 26 9 C 25.450 9, 25 9.477, 25 10.059 M 28 10 C 28 10.550, 28.675 11, 29.500 11 C 30.325 11, 31 10.550, 31 10 C 31 9.450, 30.325 9, 29.500 9 C 28.675 9, 28 9.450, 28 10 M 33 10 C 33 10.550, 33.450 11, 34 11 C 34.550 11, 35 10.550, 35 10 C 35 9.450, 34.550 9, 34 9 C 33.450 9, 33 9.450, 33 10 M 39 10.059 C 39 10.641, 39.450 10.840, 40 10.500 C 40.550 10.160, 41 9.684, 41 9.441 C 41 9.198, 40.550 9, 40 9 C 39.450 9, 39 9.477, 39 10.059 M 43 10 C 43 10.550, 43.450 11, 44 11 C 44.550 11, 45 10.550, 45 10 C 45 9.450, 44.550 9, 44 9 C 43.450 9, 43 9.450, 43 10 M 47 10 C 47 10.550, 47.450 11, 48 11 C 48.550 11, 49 10.550, 49 10 C 49 9.450, 48.550 9, 48 9 C 47.450 9, 47 9.450, 47 10 M 53 10 C 53 10.550, 53.450 11, 54 11 C 54.550 11, 55 10.550, 55 10 C 55 9.450, 54.550 9, 54 9 C 53.450 9, 53 9.450, 53 10 M 56.500 10 C 56.160 10.550, 56.584 11, 57.441 11 C 58.298 11, 59 10.550, 59 10 C 59 9.450, 58.577 9, 58.059 9 C 57.541 9, 56.840 9.450, 56.500 10 M 63 10 C 63 10.550, 63.450 11, 64 11 C 64.550 11, 65 10.550, 65 10 C 65 9.450, 64.550 9, 64 9 C 63.450 9, 63 9.450, 63 10 M 67 10 C 67 10.550, 67.450 11, 68 11 C 68.550 11, 69 10.550, 69 10 C 69 9.450, 68.550 9, 68 9 C 67.450 9, 67 9.450, 67 10 M 71 10 C 71 10.550, 71.450 11, 72 11 C 72.550 11, 73 10.550, 73 10 C 73 9.450, 72.550 9, 72 9 C 71.450 9, 71 9.450, 71 10 M 75 10 C 75 10.550, 75.477 11, 76.059 11 C 76.641 11, 76.840 10.550, 76.500 10 C 76.160 9.450, 75.684 9, 75.441 9 C 75.198 9, 75 9.450, 75 10 M 78 10 C 78 10.550, 78.450 11, 79 11 C 79.550 11, 80 10.550, 80 10 C 80 9.450, 79.550 9, 79 9 C 78.450 9, 78 9.450, 78 10 M 151.079 12.583 C 151.127 13.748, 151.364 13.985, 151.683 13.188 C 151.972 12.466, 151.936 11.603, 151.604 11.271 C 151.272 10.939, 151.036 11.529, 151.079 12.583 M 5.199 44.750 L 5 74 57 74 L 109 74 109 52.500 L 109 31 129 31 L 149 31 148.801 23.250 L 148.603 15.500 148.257 22.750 L 147.912 30 77 30 L 6.088 30 5.743 22.750 C 5.553 18.762, 5.308 28.663, 5.199 44.750 M 151.079 17.583 C 151.127 18.748, 151.364 18.985, 151.683 18.188 C 151.972 17.466, 151.936 16.603, 151.604 16.271 C 151.272 15.939, 151.036 16.529, 151.079 17.583 M 11 22 C 11 22.550, 11.450 23, 12 23 C 12.550 23, 13 22.550, 13 22 C 13 21.450, 12.550 21, 12 21 C 11.450 21, 11 21.450, 11 22 M 18.079 22.583 C 18.127 23.748, 18.364 23.985, 18.683 23.188 C 18.972 22.466, 18.936 21.603, 18.604 21.271 C 18.272 20.939, 18.036 21.529, 18.079 22.583 M 24 22.559 C 24 23.416, 24.457 23.835, 25.016 23.490 C 25.575 23.144, 25.774 22.443, 25.457 21.931 C 24.600 20.544, 24 20.802, 24 22.559 M 27.583 21.866 C 27.152 22.563, 27.070 23.403, 27.400 23.733 C 28.295 24.628, 29.271 23.312, 28.787 21.862 C 28.449 20.846, 28.213 20.846, 27.583 21.866 M 30 22.500 C 30 23.325, 30.450 24, 31 24 C 31.550 24, 32 23.325, 32 22.500 C 32 21.675, 31.550 21, 31 21 C 30.450 21, 30 21.675, 30 22.500 M 33.350 22.050 C 33.629 23.587, 35.377 23.427, 35.801 21.825 C 36.078 20.779, 35.951 20.787, 35.197 21.863 C 34.524 22.824, 34.081 22.891, 33.696 22.088 C 33.343 21.352, 33.221 21.339, 33.350 22.050 M 151.079 22.583 C 151.127 23.748, 151.364 23.985, 151.683 23.188 C 151.972 22.466, 151.936 21.603, 151.604 21.271 C 151.272 20.939, 151.036 21.529, 151.079 22.583 M 171 24.500 C 171 26.425, 171.377 28, 171.838 28 C 172.299 28, 172.735 26.425, 172.808 24.500 C 172.880 22.575, 172.503 21, 171.970 21 C 171.436 21, 171 22.575, 171 24.500 M 151.079 27.583 C 151.127 28.748, 151.364 28.985, 151.683 28.188 C 151.972 27.466, 151.936 26.603, 151.604 26.271 C 151.272 25.939, 151.036 26.529, 151.079 27.583 M 171 30 C 171 30.550, 171.450 31, 172 31 C 172.550 31, 173 30.550, 173 30 C 173 29.450, 172.550 29, 172 29 C 171.450 29, 171 29.450, 171 30 M 6 52 L 6 73 32.500 73 L 59 73 59 52 L 59 31 32.500 31 L 6 31 6 52 M 60 52 L 60 73 84 73 L 108 73 108 52 L 108 31 84 31 L 60 31 60 52 M 151.079 32.583 C 151.127 33.748, 151.364 33.985, 151.683 33.188 C 151.972 32.466, 151.936 31.603, 151.604 31.271 C 151.272 30.939, 151.036 31.529, 151.079 32.583 M 171 33 C 171 33.550, 171.450 34, 172 34 C 172.550 34, 173 33.550, 173 33 C 173 32.450, 172.550 32, 172 32 C 171.450 32, 171 32.450, 171 33 M 171 37 C 171 38.100, 171.450 39, 172 39 C 172.550 39, 173 38.100, 173 37 C 173 35.900, 172.550 35, 172 35 C 171.450 35, 171 35.900, 171 37 M 9.333 37.456 C 9.333 38.257, 9.716 38.676, 10.183 38.387 C 10.650 38.098, 10.774 37.443, 10.457 36.931 C 9.649 35.623, 9.333 35.770, 9.333 37.456 M 15 36.882 C 15 37.432, 15.450 38.160, 16 38.500 C 16.550 38.840, 17 38.668, 17 38.118 C 17 37.568, 16.550 36.840, 16 36.500 C 15.450 36.160, 15 36.332, 15 36.882 M 21 37.500 C 21 38.325, 21.436 39, 21.969 39 C 22.501 39, 22.678 38.325, 22.362 37.500 C 22.045 36.675, 21.609 36, 21.393 36 C 21.177 36, 21 36.675, 21 37.500 M 24.667 36.667 C 23.735 37.599, 23.835 39, 24.833 39 C 25.292 39, 25.667 38.325, 25.667 37.500 C 25.667 35.801, 25.594 35.740, 24.667 36.667 M 27.079 37.583 C 27.127 38.748, 27.364 38.985, 27.683 38.188 C 27.972 37.466, 27.936 36.603, 27.604 36.271 C 27.272 35.939, 27.036 36.529, 27.079 37.583 M 29.613 37.183 C 29.902 37.650, 30.557 37.774, 31.069 37.457 C 32.377 36.649, 32.230 36.333, 30.544 36.333 C 29.743 36.333, 29.324 36.716, 29.613 37.183 M 34.667 36.667 C 33.735 37.599, 33.835 39, 34.833 39 C 35.292 39, 35.667 38.325, 35.667 37.500 C 35.667 35.801, 35.594 35.740, 34.667 36.667 M 37 37.500 C 37 38.325, 37.436 39, 37.969 39 C 38.501 39, 38.678 38.325, 38.362 37.500 C 38.045 36.675, 37.609 36, 37.393 36 C 37.177 36, 37 36.675, 37 37.500 M 40 37.500 C 40 38.325, 40.450 39, 41 39 C 41.550 39, 42 38.325, 42 37.500 C 42 36.675, 41.550 36, 41 36 C 40.450 36, 40 36.675, 40 37.500 M 51.079 37.583 C 51.127 38.748, 51.364 38.985, 51.683 38.188 C 51.972 37.466, 51.936 36.603, 51.604 36.271 C 51.272 35.939, 51.036 36.529, 51.079 37.583 M 53.079 37.583 C 53.127 38.748, 53.364 38.985, 53.683 38.188 C 53.972 37.466, 53.936 36.603, 53.604 36.271 C 53.272 35.939, 53.036 36.529, 53.079 37.583 M 55 37.559 C 55 38.416, 55.450 38.840, 56 38.500 C 56.550 38.160, 57 37.459, 57 36.941 C 57 36.423, 56.550 36, 56 36 C 55.450 36, 55 36.702, 55 37.559 M 62 36.822 C 62 37.275, 65.824 37.612, 70.499 37.572 C 75.173 37.533, 78.998 37.163, 78.999 36.750 C 78.999 36.337, 75.175 36, 70.500 36 C 65.825 36, 62 36.370, 62 36.822 M 98 37 C 98 37.550, 98.450 38, 99 38 C 99.550 38, 100 37.550, 100 37 C 100 36.450, 99.550 36, 99 36 C 98.450 36, 98 36.450, 98 37 M 104 37 C 104 37.550, 104.450 38, 105 38 C 105.550 38, 106 37.550, 106 37 C 106 36.450, 105.550 36, 105 36 C 104.450 36, 104 36.450, 104 37 M 113 40 C 113 43.905, 113.083 44, 116.500 44 C 119.917 44, 120 43.905, 120 40 C 120 36.095, 119.917 36, 116.500 36 C 113.083 36, 113 36.095, 113 40 M 122.753 36.750 C 122.552 37.163, 122.257 39.075, 122.098 41 C 121.939 42.925, 121.673 44.642, 121.506 44.815 C 121.340 44.988, 119.387 45.201, 117.166 45.289 C 114.015 45.413, 113.360 45.729, 114.186 46.724 C 114.938 47.630, 114.919 48, 114.122 48 C 113.505 48, 113 48.661, 113 49.469 C 113 50.396, 113.582 50.714, 114.581 50.331 C 115.550 49.959, 115.967 48.982, 115.659 47.805 C 115.345 46.605, 115.596 46.048, 116.329 46.318 C 116.973 46.556, 117.388 47.256, 117.250 47.875 C 117.112 48.494, 116.888 49.563, 116.750 50.250 C 116.598 51.008, 117.350 51.383, 118.661 51.202 C 119.850 51.038, 121.119 51.383, 121.481 51.968 C 121.842 52.554, 122.627 52.731, 123.224 52.362 C 123.871 51.961, 124.021 52.156, 123.595 52.845 C 123.203 53.480, 123.344 54, 123.910 54 C 124.475 54, 124.684 54.788, 124.374 55.750 C 123.899 57.227, 123.980 57.266, 124.890 56 C 125.624 54.980, 125.974 54.900, 125.985 55.750 C 125.993 56.438, 125.924 57.112, 125.831 57.250 C 125.738 57.388, 126.262 58.625, 126.995 60 C 128.190 62.243, 128.165 62.366, 126.753 61.201 C 125.829 60.440, 124.937 60.293, 124.595 60.847 C 124.005 61.801, 126.779 63.481, 128.355 63.124 C 128.826 63.017, 129.726 63.350, 130.355 63.865 C 131.084 64.460, 131.863 64.368, 132.500 63.611 C 134.322 61.444, 133.964 60.208, 131.322 59.545 C 129.361 59.053, 128.996 58.604, 129.855 57.745 C 130.485 57.115, 131 55.849, 131 54.931 C 131 53.666, 130.274 53.347, 128 53.612 C 125.302 53.926, 125 53.681, 125 51.180 C 125 49.651, 124.438 47.805, 123.750 47.078 C 122.718 45.985, 122.900 45.961, 124.798 46.938 C 126.442 47.785, 126.921 48.674, 126.481 50.061 C 125.976 51.652, 126.348 52, 128.555 52 C 130.514 52, 131.004 51.660, 130.357 50.750 C 129.868 50.063, 129.488 48.600, 129.511 47.500 C 129.557 45.319, 127.046 42.854, 125.654 43.714 C 125.177 44.009, 125.397 44.637, 126.143 45.110 C 126.944 45.617, 127.038 45.976, 126.372 45.985 C 125.752 45.993, 124.711 45.356, 124.058 44.570 C 123.115 43.433, 123.243 42.944, 124.685 42.188 C 126.828 41.064, 131.433 42.491, 130.505 43.992 C 130.162 44.546, 130.262 45, 130.727 45 C 131.191 45, 131.633 45.788, 131.708 46.750 C 131.784 47.712, 131.949 49.962, 132.075 51.750 C 132.201 53.538, 132.742 55, 133.277 55 C 133.845 55, 133.971 53.649, 133.580 51.750 C 133.212 49.962, 132.731 46.700, 132.512 44.500 C 132.138 40.736, 132.187 40.789, 133.342 45.410 C 134.188 48.794, 135.126 50.401, 136.363 50.583 C 139.329 51.018, 141 51.878, 141 52.969 C 141 53.536, 140.235 54, 139.300 54 C 137.978 54, 137.867 54.267, 138.800 55.200 C 140.560 56.960, 140.263 59.002, 138.250 58.985 C 136.791 58.972, 136.743 58.816, 137.960 58.046 C 139.220 57.249, 139.185 56.862, 137.708 55.230 C 136.766 54.189, 136.297 53.037, 136.664 52.669 C 137.032 52.301, 136.820 52, 136.192 52 C 135.467 52, 135.260 53.052, 135.626 54.879 C 135.943 56.464, 135.727 58.051, 135.144 58.411 C 134.563 58.770, 134.327 59.689, 134.621 60.454 C 134.914 61.218, 134.631 62.821, 133.991 64.016 C 132.924 66.010, 133.021 66.135, 135.164 65.529 C 136.800 65.067, 137.087 65.155, 136.122 65.823 C 135.356 66.352, 135.079 67.318, 135.497 67.995 C 136.021 68.842, 136.454 68.884, 136.918 68.132 C 137.522 67.155, 140.451 66.272, 143.739 66.074 C 144.423 66.033, 144.888 64.914, 144.777 63.572 C 144.666 62.237, 144.241 61.351, 143.832 61.604 C 143.422 61.857, 143.378 62.822, 143.734 63.749 C 144.307 65.242, 144.200 65.267, 142.797 63.967 C 140.950 62.256, 142.279 58.451, 144.300 59.664 C 145.114 60.152, 145.084 59.870, 144.208 58.789 C 143.319 57.692, 143.259 57.080, 144.015 56.828 C 144.620 56.627, 144.817 55.686, 144.452 54.737 C 144.088 53.788, 143.388 53.260, 142.895 53.565 C 142.403 53.869, 142 53.247, 142 52.181 C 142 51.116, 141.352 49.707, 140.559 49.049 C 139.767 48.392, 139.365 47.212, 139.666 46.427 C 140.046 45.438, 139.491 45.005, 137.857 45.015 C 136.154 45.026, 135.876 45.269, 136.857 45.890 C 137.803 46.490, 137.878 46.957, 137.107 47.434 C 135.890 48.186, 135.721 47.335, 135.980 41.750 C 136.138 38.321, 135.927 38, 133.517 38 C 132.015 38, 131.148 37.570, 131.500 37 C 131.840 36.450, 131.611 36, 130.992 36 C 130.320 36, 130.122 36.808, 130.500 38 C 130.950 39.419, 130.680 40, 129.567 40 C 128.667 40, 128 39.149, 128 38 C 128 35.891, 126.545 35.309, 125.500 37 C 125.160 37.550, 124.346 37.993, 123.691 37.985 C 122.975 37.975, 123.099 37.582, 124 37 C 124.901 36.418, 125.025 36.025, 124.309 36.015 C 123.654 36.007, 122.954 36.337, 122.753 36.750 M 138 40 C 138 43.905, 138.083 44, 141.500 44 C 144.917 44, 145 43.905, 145 40 C 145 36.095, 144.917 36, 141.500 36 C 138.083 36, 138 36.095, 138 40 M 151.079 37.583 C 151.127 38.748, 151.364 38.985, 151.683 38.188 C 151.972 37.466, 151.936 36.603, 151.604 36.271 C 151.272 35.939, 151.036 36.529, 151.079 37.583 M 114 40 C 114 42.533, 114.389 43, 116.500 43 C 118.611 43, 119 42.533, 119 40 C 119 37.467, 118.611 37, 116.500 37 C 114.389 37, 114 37.467, 114 40 M 139 40 C 139 42.533, 139.389 43, 141.500 43 C 143.611 43, 144 42.533, 144 40 C 144 37.467, 143.611 37, 141.500 37 C 139.389 37, 139 37.467, 139 40 M 115 40 C 115 41.111, 115.667 42, 116.500 42 C 117.333 42, 118 41.111, 118 40 C 118 38.889, 117.333 38, 116.500 38 C 115.667 38, 115 38.889, 115 40 M 140 40 C 140 41.111, 140.667 42, 141.500 42 C 142.333 42, 143 41.111, 143 40 C 143 38.889, 142.333 38, 141.500 38 C 140.667 38, 140 38.889, 140 40 M 123.813 39.683 C 124.534 39.972, 125.397 39.936, 125.729 39.604 C 126.061 39.272, 125.471 39.036, 124.417 39.079 C 123.252 39.127, 123.015 39.364, 123.813 39.683 M 77.500 42 C 77.840 42.550, 78.316 43, 78.559 43 C 78.802 43, 79 42.550, 79 42 C 79 41.450, 78.523 41, 77.941 41 C 77.359 41, 77.160 41.450, 77.500 42 M 97 42 C 97 42.550, 97.450 43, 98 43 C 98.550 43, 99 42.550, 99 42 C 99 41.450, 98.550 41, 98 41 C 97.450 41, 97 41.450, 97 42 M 151.079 42.583 C 151.127 43.748, 151.364 43.985, 151.683 43.188 C 151.972 42.466, 151.936 41.603, 151.604 41.271 C 151.272 40.939, 151.036 41.529, 151.079 42.583 M 166 62.500 L 166 83 172.500 83 L 179 83 179 62.500 L 179 42 172.500 42 L 166 42 166 62.500 M 141.777 47.612 C 142.357 50.650, 145.268 50.868, 144.820 47.841 C 144.644 46.653, 143.785 45.578, 142.910 45.452 C 141.735 45.284, 141.439 45.848, 141.777 47.612 M 77 47 C 77 47.550, 77.450 48, 78 48 C 78.550 48, 79 47.550, 79 47 C 79 46.450, 78.550 46, 78 46 C 77.450 46, 77 46.450, 77 47 M 83 47 C 83 47.550, 83.450 48, 84 48 C 84.550 48, 85 47.550, 85 47 C 85 46.450, 84.550 46, 84 46 C 83.450 46, 83 46.450, 83 47 M 94 47 C 94 47.550, 94.450 48, 95 48 C 95.550 48, 96 47.550, 96 47 C 96 46.450, 95.550 46, 95 46 C 94.450 46, 94 46.450, 94 47 M 151.079 47.583 C 151.127 48.748, 151.364 48.985, 151.683 48.188 C 151.972 47.466, 151.936 46.603, 151.604 46.271 C 151.272 45.939, 151.036 46.529, 151.079 47.583 M 77 51 C 77 51.550, 77.450 52, 78 52 C 78.550 52, 79 51.550, 79 51 C 79 50.450, 78.550 50, 78 50 C 77.450 50, 77 50.450, 77 51 M 82 51 C 82 51.550, 82.450 52, 83 52 C 83.550 52, 84 51.550, 84 51 C 84 50.450, 83.550 50, 83 50 C 82.450 50, 82 50.450, 82 51 M 115.116 51.809 C 115.052 52.529, 114.625 52.886, 114.167 52.603 C 113.708 52.320, 113.333 52.763, 113.333 53.587 C 113.333 54.443, 113.919 54.861, 114.699 54.562 C 115.526 54.245, 116.450 55.053, 117.044 56.616 C 117.583 58.034, 118.895 59.421, 119.958 59.699 C 121.022 59.978, 122.029 60.828, 122.196 61.590 C 122.384 62.446, 122.926 62.057, 123.617 60.569 C 124.500 58.668, 124.462 58.269, 123.436 58.663 C 122.570 58.995, 122.033 58.080, 121.819 55.907 C 121.639 54.069, 120.848 52.479, 120 52.251 C 118.667 51.893, 118.667 51.966, 120 52.909 C 121.213 53.766, 120.988 53.972, 118.823 53.985 C 117.106 53.995, 115.983 53.373, 115.689 52.250 C 115.438 51.288, 115.180 51.089, 115.116 51.809 M 151.079 52.583 C 151.127 53.748, 151.364 53.985, 151.683 53.188 C 151.972 52.466, 151.936 51.603, 151.604 51.271 C 151.272 50.939, 151.036 51.529, 151.079 52.583 M 114 56 C 113.207 56.490, 112.890 57.223, 113.296 57.629 C 113.701 58.035, 114.558 57.842, 115.200 57.200 C 116.711 55.689, 115.868 54.846, 114 56 M 132.443 56.418 C 131.376 57.198, 130.776 58.109, 131.108 58.442 C 132.096 59.430, 135 57.901, 135 56.393 C 135 54.663, 134.841 54.664, 132.443 56.418 M 151.079 57.583 C 151.127 58.748, 151.364 58.985, 151.683 58.188 C 151.972 57.466, 151.936 56.603, 151.604 56.271 C 151.272 55.939, 151.036 56.529, 151.079 57.583 M 158 59 C 158 60.100, 158.450 61, 159 61 C 159.550 61, 160 60.100, 160 59 C 160 57.900, 159.550 57, 159 57 C 158.450 57, 158 57.900, 158 59 M 114.500 59 C 114.160 59.550, 114.584 60, 115.441 60 C 116.298 60, 117 59.550, 117 59 C 117 58.450, 116.577 58, 116.059 58 C 115.541 58, 114.840 58.450, 114.500 59 M 136 61.573 C 136 62.505, 136.680 63.015, 137.667 62.823 C 140.176 62.337, 140.520 60, 138.083 60 C 136.855 60, 136 60.646, 136 61.573 M 113 65 C 113 68.905, 113.083 69, 116.500 69 C 119.917 69, 120 68.905, 120 65 C 120 61.095, 119.917 61, 116.500 61 C 113.083 61, 113 61.095, 113 65 M 130.500 62 C 130.840 62.550, 131.316 63, 131.559 63 C 131.802 63, 132 62.550, 132 62 C 132 61.450, 131.523 61, 130.941 61 C 130.359 61, 130.160 61.450, 130.500 62 M 151.079 62.583 C 151.127 63.748, 151.364 63.985, 151.683 63.188 C 151.972 62.466, 151.936 61.603, 151.604 61.271 C 151.272 60.939, 151.036 61.529, 151.079 62.583 M 114 65 C 114 67.533, 114.389 68, 116.500 68 C 118.611 68, 119 67.533, 119 65 C 119 62.467, 118.611 62, 116.500 62 C 114.389 62, 114 62.467, 114 65 M 115 65 C 115 66.111, 115.667 67, 116.500 67 C 117.333 67, 118 66.111, 118 65 C 118 63.889, 117.333 63, 116.500 63 C 115.667 63, 115 63.889, 115 65 M 171 65.941 C 171 67.623, 171.450 69, 172 69 C 172.550 69, 173 67.902, 173 66.559 C 173 65.216, 172.550 63.840, 172 63.500 C 171.417 63.139, 171 64.156, 171 65.941 M 122 65.559 C 122 66.416, 122.457 66.835, 123.016 66.490 C 123.575 66.144, 123.774 65.443, 123.457 64.931 C 122.600 63.544, 122 63.802, 122 65.559 M 158 67.500 C 158 69.425, 158.450 71, 159 71 C 159.550 71, 160 69.425, 160 67.500 C 160 65.575, 159.550 64, 159 64 C 158.450 64, 158 65.575, 158 67.500 M 123.557 67.582 C 122.491 68.362, 122.041 68.993, 122.559 68.985 C 123.941 68.962, 126.520 67.186, 125.969 66.636 C 125.710 66.376, 124.624 66.802, 123.557 67.582 M 151.079 67.583 C 151.127 68.748, 151.364 68.985, 151.683 68.188 C 151.972 67.466, 151.936 66.603, 151.604 66.271 C 151.272 65.939, 151.036 66.529, 151.079 67.583 M 127.500 68 C 127.840 68.550, 129.441 69, 131.059 69 C 132.677 69, 134 68.550, 134 68 C 134 67.450, 132.398 67, 130.441 67 C 128.323 67, 127.132 67.405, 127.500 68 M 142 68 C 141.175 68.533, 140.950 68.969, 141.500 68.969 C 142.050 68.969, 143.175 68.533, 144 68 C 144.825 67.467, 145.050 67.031, 144.500 67.031 C 143.950 67.031, 142.825 67.467, 142 68 M 171 71.441 C 171 72.298, 171.450 73, 172 73 C 172.550 73, 173 72.577, 173 72.059 C 173 71.541, 172.550 70.840, 172 70.500 C 171.450 70.160, 171 70.584, 171 71.441 M 151.079 72.583 C 151.127 73.748, 151.364 73.985, 151.683 73.188 C 151.972 72.466, 151.936 71.603, 151.604 71.271 C 151.272 70.939, 151.036 71.529, 151.079 72.583 M 158 73 C 158 73.550, 158.450 74, 159 74 C 159.550 74, 160 73.550, 160 73 C 160 72.450, 159.550 72, 159 72 C 158.450 72, 158 72.450, 158 73 M 171 76 C 171 77.100, 171.450 78, 172 78 C 172.550 78, 173 77.100, 173 76 C 173 74.900, 172.550 74, 172 74 C 171.450 74, 171 74.900, 171 76 M 151.079 77.583 C 151.127 78.748, 151.364 78.985, 151.683 78.188 C 151.972 77.466, 151.936 76.603, 151.604 76.271 C 151.272 75.939, 151.036 76.529, 151.079 77.583 M 158 80 C 158 81.100, 158.450 82, 159 82 C 159.550 82, 160 81.100, 160 80 C 160 78.900, 159.550 78, 159 78 C 158.450 78, 158 78.900, 158 80 M 171 80 C 171 80.550, 171.450 81, 172 81 C 172.550 81, 173 80.550, 173 80 C 173 79.450, 172.550 79, 172 79 C 171.450 79, 171 79.450, 171 80 M 151.079 82.583 C 151.127 83.748, 151.364 83.985, 151.683 83.188 C 151.972 82.466, 151.936 81.603, 151.604 81.271 C 151.272 80.939, 151.036 81.529, 151.079 82.583 M 7.632 86.214 C 7.900 86.646, 7.566 87, 6.892 87 C 6.218 87, 5.956 87.289, 6.309 87.643 C 6.663 87.996, 7.594 87.752, 8.379 87.101 C 9.389 86.263, 9.913 86.238, 10.172 87.015 C 10.373 87.620, 11.317 87.816, 12.269 87.450 C 15.062 86.379, 14.265 85.429, 10.573 85.429 C 8.689 85.429, 7.365 85.782, 7.632 86.214 M 15 86.667 C 15 87.400, 15.402 88, 15.893 88 C 16.384 88, 17.016 87.400, 17.298 86.667 C 17.579 85.933, 17.177 85.333, 16.405 85.333 C 15.632 85.333, 15 85.933, 15 86.667 M 19.079 86.583 C 19.127 87.748, 19.364 87.985, 19.683 87.188 C 19.972 86.466, 19.936 85.603, 19.604 85.271 C 19.272 84.939, 19.036 85.529, 19.079 86.583 M 21 86.482 C 21 87.077, 22.050 87.651, 23.333 87.757 C 24.659 87.867, 25.667 87.399, 25.667 86.675 C 25.667 85.974, 24.617 85.400, 23.333 85.400 C 22.050 85.400, 21 85.887, 21 86.482 M 29 86.667 C 29 87.400, 29.402 88, 29.893 88 C 30.384 88, 31.016 87.400, 31.298 86.667 C 31.579 85.933, 31.177 85.333, 30.405 85.333 C 29.632 85.333, 29 85.933, 29 86.667 M 33 86.449 C 33 87.062, 34.125 87.657, 35.500 87.771 C 37.292 87.919, 37.996 87.485, 37.985 86.239 C 37.972 84.751, 37.830 84.716, 37 86 C 36.467 86.825, 36.024 87.013, 36.015 86.417 C 36.007 85.821, 35.325 85.333, 34.500 85.333 C 33.675 85.333, 33 85.835, 33 86.449 M 39 86.534 C 39 87.359, 41.341 87.739, 46.500 87.750 C 52.784 87.763, 53.998 87.501, 53.985 86.133 C 53.971 84.713, 53.843 84.696, 53 86 C 52.467 86.825, 52.024 87.023, 52.015 86.440 C 51.996 85.093, 43.750 85.138, 42.765 86.491 C 42.283 87.153, 42.025 87.128, 42.015 86.417 C 42.007 85.821, 41.325 85.333, 40.500 85.333 C 39.675 85.333, 39 85.873, 39 86.534 M 151.079 87.583 C 151.127 88.748, 151.364 88.985, 151.683 88.188 C 151.972 87.466, 151.936 86.603, 151.604 86.271 C 151.272 85.939, 151.036 86.529, 151.079 87.583 M 181.343 96.500 C 181.346 100.900, 181.522 102.576, 181.733 100.224 C 181.945 97.872, 181.942 94.272, 181.727 92.224 C 181.512 90.176, 181.339 92.100, 181.343 96.500 M 151.079 92.583 C 151.127 93.748, 151.364 93.985, 151.683 93.188 C 151.972 92.466, 151.936 91.603, 151.604 91.271 C 151.272 90.939, 151.036 91.529, 151.079 92.583 M 170.328 97.500 C 170.333 101.350, 170.513 102.802, 170.730 100.728 C 170.946 98.653, 170.943 95.503, 170.722 93.728 C 170.501 91.952, 170.324 93.650, 170.328 97.500 M 185.328 97.500 C 185.333 101.350, 185.513 102.802, 185.730 100.728 C 185.946 98.653, 185.943 95.503, 185.722 93.728 C 185.501 91.952, 185.324 93.650, 185.328 97.500 M 151.079 97.583 C 151.127 98.748, 151.364 98.985, 151.683 98.188 C 151.972 97.466, 151.936 96.603, 151.604 96.271 C 151.272 95.939, 151.036 96.529, 151.079 97.583" stroke="none" fill="#1c1f19" fill-rule="evenodd"/><path d="M 0 53.374 L 0 107.010 100.750 106.755 L 201.500 106.500 201.759 53.118 L 202.018 -0.265 198.259 0.357 C 196.191 0.698, 191.238 0.983, 187.250 0.989 L 180 1 180 42.750 L 180.001 84.500 172.250 84.296 C 167.988 84.184, 161.912 84.072, 158.750 84.046 L 153 84 153 43.500 L 153 3 159 3 C 162.333 3, 165 2.556, 165 2 C 165 1.437, 162.191 1, 158.573 1 C 153.294 1, 152.065 1.312, 151.689 2.750 C 151.254 4.417, 151.226 4.417, 151.116 2.750 C 151.007 1.101, 146.868 0.999, 79.250 0.989 C 39.787 0.983, 5.813 0.699, 3.750 0.358 L 0 -0.262 0 53.374 M 0.466 54 C 0.466 83.425, 0.593 95.463, 0.749 80.750 C 0.905 66.037, 0.905 41.962, 0.749 27.250 C 0.593 12.537, 0.466 24.575, 0.466 54 M 3.667 1.667 C 3.300 2.033, 3 24.893, 3 52.467 C 3 90.126, 3.299 102.899, 4.200 103.800 C 5.940 105.540, 196.060 105.540, 197.800 103.800 C 198.701 102.899, 199 90.102, 199 52.359 C 199 24.726, 198.662 1.909, 198.250 1.654 C 197.838 1.399, 197.500 24.210, 197.500 52.345 L 197.500 103.500 195.250 103.820 C 193.074 104.129, 192.994 103.848, 192.811 95.320 L 192.622 86.500 192 95.500 L 191.378 104.500 191.189 95.750 C 191.037 88.723, 190.705 87, 189.500 87 C 188.295 87, 187.963 88.723, 187.811 95.750 L 187.622 104.500 187.061 96 L 186.500 87.500 181.750 87.259 L 177 87.018 177 95.509 C 177 100.503, 176.588 104, 176 104 C 175.412 104, 175 100.500, 175 95.500 C 175 84.080, 173.058 84.301, 172.811 95.750 L 172.622 104.500 172.061 96 C 171.542 88.143, 171.330 87.476, 169.250 87.187 C 167.790 86.984, 167 87.393, 167 88.354 C 167 89.168, 166.437 90.060, 165.750 90.338 C 164.750 90.741, 164.750 90.858, 165.750 90.921 C 166.614 90.976, 167 93.009, 167 97.500 L 167 104 164 104 L 161 104 161 97.500 C 161 93.833, 161.436 91, 162 91 C 163.572 91, 163.167 88.278, 161.500 87.638 C 160.239 87.155, 160 88.415, 160 95.531 C 160 102.392, 159.715 104, 158.500 104 C 157.321 104, 157 102.611, 157 97.500 C 157 93.833, 157.436 91, 158 91 C 159.614 91, 159.146 88.270, 157.418 87.607 C 154.303 86.412, 154 87.112, 154 95.500 C 154 103.237, 152.836 106.638, 151.689 102.250 C 151.255 100.589, 151.226 100.589, 151.116 102.256 C 151.006 103.917, 147.008 103.999, 77.750 103.756 L 4.500 103.500 4.500 52.250 C 4.500 24.062, 4.463 1, 4.417 1 C 4.371 1, 4.033 1.300, 3.667 1.667 M 166 21 L 166 41 172.500 41 L 179 41 179 21 L 179 1 172.500 1 L 166 1 166 21 M 6 9 L 6 14 77 14 L 148 14 148 9 L 148 4 77 4 L 6 4 6 9 M 7.168 9.250 L 7.336 13.500 7.728 9.750 L 8.121 6 77 6 L 145.879 6 146.272 9.750 L 146.664 13.500 146.832 9.250 L 147 5 77 5 L 7 5 7.168 9.250 M 151.079 7.583 C 151.127 8.748, 151.364 8.985, 151.683 8.188 C 151.972 7.466, 151.936 6.603, 151.604 6.271 C 151.272 5.939, 151.036 6.529, 151.079 7.583 M 13 10 C 13 10.550, 13.450 11, 14 11 C 14.550 11, 15 10.550, 15 10 C 15 9.450, 14.550 9, 14 9 C 13.450 9, 13 9.450, 13 10 M 16 10 C 16 10.550, 16.675 11, 17.500 11 C 18.325 11, 19 10.550, 19 10 C 19 9.450, 18.325 9, 17.500 9 C 16.675 9, 16 9.450, 16 10 M 21 10 C 21 10.550, 21.450 11, 22 11 C 22.550 11, 23 10.550, 23 10 C 23 9.450, 22.550 9, 22 9 C 21.450 9, 21 9.450, 21 10 M 25 10.059 C 25 10.641, 25.450 10.840, 26 10.500 C 26.550 10.160, 27 9.684, 27 9.441 C 27 9.198, 26.550 9, 26 9 C 25.450 9, 25 9.477, 25 10.059 M 28 10 C 28 10.550, 28.675 11, 29.500 11 C 30.325 11, 31 10.550, 31 10 C 31 9.450, 30.325 9, 29.500 9 C 28.675 9, 28 9.450, 28 10 M 33 10 C 33 10.550, 33.450 11, 34 11 C 34.550 11, 35 10.550, 35 10 C 35 9.450, 34.550 9, 34 9 C 33.450 9, 33 9.450, 33 10 M 39 10.059 C 39 10.641, 39.450 10.840, 40 10.500 C 40.550 10.160, 41 9.684, 41 9.441 C 41 9.198, 40.550 9, 40 9 C 39.450 9, 39 9.477, 39 10.059 M 43 10 C 43 10.550, 43.450 11, 44 11 C 44.550 11, 45 10.550, 45 10 C 45 9.450, 44.550 9, 44 9 C 43.450 9, 43 9.450, 43 10 M 47 10 C 47 10.550, 47.450 11, 48 11 C 48.550 11, 49 10.550, 49 10 C 49 9.450, 48.550 9, 48 9 C 47.450 9, 47 9.450, 47 10 M 53 10 C 53 10.550, 53.450 11, 54 11 C 54.550 11, 55 10.550, 55 10 C 55 9.450, 54.550 9, 54 9 C 53.450 9, 53 9.450, 53 10 M 56.500 10 C 56.160 10.550, 56.584 11, 57.441 11 C 58.298 11, 59 10.550, 59 10 C 59 9.450, 58.577 9, 58.059 9 C 57.541 9, 56.840 9.450, 56.500 10 M 63 10 C 63 10.550, 63.450 11, 64 11 C 64.550 11, 65 10.550, 65 10 C 65 9.450, 64.550 9, 64 9 C 63.450 9, 63 9.450, 63 10 M 67 10 C 67 10.550, 67.450 11, 68 11 C 68.550 11, 69 10.550, 69 10 C 69 9.450, 68.550 9, 68 9 C 67.450 9, 67 9.450, 67 10 M 71 10 C 71 10.550, 71.450 11, 72 11 C 72.550 11, 73 10.550, 73 10 C 73 9.450, 72.550 9, 72 9 C 71.450 9, 71 9.450, 71 10 M 75 10 C 75 10.550, 75.477 11, 76.059 11 C 76.641 11, 76.840 10.550, 76.500 10 C 76.160 9.450, 75.684 9, 75.441 9 C 75.198 9, 75 9.450, 75 10 M 78 10 C 78 10.550, 78.450 11, 79 11 C 79.550 11, 80 10.550, 80 10 C 80 9.450, 79.550 9, 79 9 C 78.450 9, 78 9.450, 78 10 M 151.079 12.583 C 151.127 13.748, 151.364 13.985, 151.683 13.188 C 151.972 12.466, 151.936 11.603, 151.604 11.271 C 151.272 10.939, 151.036 11.529, 151.079 12.583 M 5.199 44.750 L 5 74 57 74 L 109 74 109 52.500 L 109 31 129 31 L 149 31 148.801 23.250 L 148.603 15.500 148.257 22.750 L 147.912 30 77 30 L 6.088 30 5.743 22.750 C 5.553 18.762, 5.308 28.663, 5.199 44.750 M 151.079 17.583 C 151.127 18.748, 151.364 18.985, 151.683 18.188 C 151.972 17.466, 151.936 16.603, 151.604 16.271 C 151.272 15.939, 151.036 16.529, 151.079 17.583 M 11 22 C 11 22.550, 11.450 23, 12 23 C 12.550 23, 13 22.550, 13 22 C 13 21.450, 12.550 21, 12 21 C 11.450 21, 11 21.450, 11 22 M 18.079 22.583 C 18.127 23.748, 18.364 23.985, 18.683 23.188 C 18.972 22.466, 18.936 21.603, 18.604 21.271 C 18.272 20.939, 18.036 21.529, 18.079 22.583 M 24 22.559 C 24 23.416, 24.457 23.835, 25.016 23.490 C 25.575 23.144, 25.774 22.443, 25.457 21.931 C 24.600 20.544, 24 20.802, 24 22.559 M 27.583 21.866 C 27.152 22.563, 27.070 23.403, 27.400 23.733 C 28.295 24.628, 29.271 23.312, 28.787 21.862 C 28.449 20.846, 28.213 20.846, 27.583 21.866 M 30 22.500 C 30 23.325, 30.450 24, 31 24 C 31.550 24, 32 23.325, 32 22.500 C 32 21.675, 31.550 21, 31 21 C 30.450 21, 30 21.675, 30 22.500 M 33.350 22.050 C 33.629 23.587, 35.377 23.427, 35.801 21.825 C 36.078 20.779, 35.951 20.787, 35.197 21.863 C 34.524 22.824, 34.081 22.891, 33.696 22.088 C 33.343 21.352, 33.221 21.339, 33.350 22.050 M 151.079 22.583 C 151.127 23.748, 151.364 23.985, 151.683 23.188 C 151.972 22.466, 151.936 21.603, 151.604 21.271 C 151.272 20.939, 151.036 21.529, 151.079 22.583 M 171 24.500 C 171 26.425, 171.377 28, 171.838 28 C 172.299 28, 172.735 26.425, 172.808 24.500 C 172.880 22.575, 172.503 21, 171.970 21 C 171.436 21, 171 22.575, 171 24.500 M 151.079 27.583 C 151.127 28.748, 151.364 28.985, 151.683 28.188 C 151.972 27.466, 151.936 26.603, 151.604 26.271 C 151.272 25.939, 151.036 26.529, 151.079 27.583 M 171 30 C 171 30.550, 171.450 31, 172 31 C 172.550 31, 173 30.550, 173 30 C 173 29.450, 172.550 29, 172 29 C 171.450 29, 171 29.450, 171 30 M 6 52 L 6 73 32.500 73 L 59 73 59 52 L 59 31 32.500 31 L 6 31 6 52 M 60 52 L 60 73 84 73 L 108 73 108 52 L 108 31 84 31 L 60 31 60 52 M 151.079 32.583 C 151.127 33.748, 151.364 33.985, 151.683 33.188 C 151.972 32.466, 151.936 31.603, 151.604 31.271 C 151.272 30.939, 151.036 31.529, 151.079 32.583 M 171 33 C 171 33.550, 171.450 34, 172 34 C 172.550 34, 173 33.550, 173 33 C 173 32.450, 172.550 32, 172 32 C 171.450 32, 171 32.450, 171 33 M 171 37 C 171 38.100, 171.450 39, 172 39 C 172.550 39, 173 38.100, 173 37 C 173 35.900, 172.550 35, 172 35 C 171.450 35, 171 35.900, 171 37 M 9.333 37.456 C 9.333 38.257, 9.716 38.676, 10.183 38.387 C 10.650 38.098, 10.774 37.443, 10.457 36.931 C 9.649 35.623, 9.333 35.770, 9.333 37.456 M 15 36.882 C 15 37.432, 15.450 38.160, 16 38.500 C 16.550 38.840, 17 38.668, 17 38.118 C 17 37.568, 16.550 36.840, 16 36.500 C 15.450 36.160, 15 36.332, 15 36.882 M 21 37.500 C 21 38.325, 21.436 39, 21.969 39 C 22.501 39, 22.678 38.325, 22.362 37.500 C 22.045 36.675, 21.609 36, 21.393 36 C 21.177 36, 21 36.675, 21 37.500 M 24.667 36.667 C 23.735 37.599, 23.835 39, 24.833 39 C 25.292 39, 25.667 38.325, 25.667 37.500 C 25.667 35.801, 25.594 35.740, 24.667 36.667 M 27.079 37.583 C 27.127 38.748, 27.364 38.985, 27.683 38.188 C 27.972 37.466, 27.936 36.603, 27.604 36.271 C 27.272 35.939, 27.036 36.529, 27.079 37.583 M 29.613 37.183 C 29.902 37.650, 30.557 37.774, 31.069 37.457 C 32.377 36.649, 32.230 36.333, 30.544 36.333 C 29.743 36.333, 29.324 36.716, 29.613 37.183 M 34.667 36.667 C 33.735 37.599, 33.835 39, 34.833 39 C 35.292 39, 35.667 38.325, 35.667 37.500 C 35.667 35.801, 35.594 35.740, 34.667 36.667 M 37 37.500 C 37 38.325, 37.436 39, 37.969 39 C 38.501 39, 38.678 38.325, 38.362 37.500 C 38.045 36.675, 37.609 36, 37.393 36 C 37.177 36, 37 36.675, 37 37.500 M 40 37.500 C 40 38.325, 40.450 39, 41 39 C 41.550 39, 42 38.325, 42 37.500 C 42 36.675, 41.550 36, 41 36 C 40.450 36, 40 36.675, 40 37.500 M 51.079 37.583 C 51.127 38.748, 51.364 38.985, 51.683 38.188 C 51.972 37.466, 51.936 36.603, 51.604 36.271 C 51.272 35.939, 51.036 36.529, 51.079 37.583 M 53.079 37.583 C 53.127 38.748, 53.364 38.985, 53.683 38.188 C 53.972 37.466, 53.936 36.603, 53.604 36.271 C 53.272 35.939, 53.036 36.529, 53.079 37.583 M 55 37.559 C 55 38.416, 55.450 38.840, 56 38.500 C 56.550 38.160, 57 37.459, 57 36.941 C 57 36.423, 56.550 36, 56 36 C 55.450 36, 55 36.702, 55 37.559 M 62 36.822 C 62 37.275, 65.824 37.612, 70.499 37.572 C 75.173 37.533, 78.998 37.163, 78.999 36.750 C 78.999 36.337, 75.175 36, 70.500 36 C 65.825 36, 62 36.370, 62 36.822 M 98 37 C 98 37.550, 98.450 38, 99 38 C 99.550 38, 100 37.550, 100 37 C 100 36.450, 99.550 36, 99 36 C 98.450 36, 98 36.450, 98 37 M 104 37 C 104 37.550, 104.450 38, 105 38 C 105.550 38, 106 37.550, 106 37 C 106 36.450, 105.550 36, 105 36 C 104.450 36, 104 36.450, 104 37 M 113 40 C 113 43.905, 113.083 44, 116.500 44 C 119.917 44, 120 43.905, 120 40 C 120 36.095, 119.917 36, 116.500 36 C 113.083 36, 113 36.095, 113 40 M 122.753 36.750 C 122.552 37.163, 122.257 39.075, 122.098 41 C 121.939 42.925, 121.673 44.642, 121.506 44.815 C 121.340 44.988, 119.387 45.201, 117.166 45.289 C 114.015 45.413, 113.360 45.729, 114.186 46.724 C 114.938 47.630, 114.919 48, 114.122 48 C 113.505 48, 113 48.661, 113 49.469 C 113 50.396, 113.582 50.714, 114.581 50.331 C 115.550 49.959, 115.967 48.982, 115.659 47.805 C 115.345 46.605, 115.596 46.048, 116.329 46.318 C 116.973 46.556, 117.388 47.256, 117.250 47.875 C 117.112 48.494, 116.888 49.563, 116.750 50.250 C 116.598 51.008, 117.350 51.383, 118.661 51.202 C 119.850 51.038, 121.119 51.383, 121.481 51.968 C 121.842 52.554, 122.627 52.731, 123.224 52.362 C 123.871 51.961, 124.021 52.156, 123.595 52.845 C 123.203 53.480, 123.344 54, 123.910 54 C 124.475 54, 124.684 54.788, 124.374 55.750 C 123.899 57.227, 123.980 57.266, 124.890 56 C 125.624 54.980, 125.974 54.900, 125.985 55.750 C 125.993 56.438, 125.924 57.112, 125.831 57.250 C 125.738 57.388, 126.262 58.625, 126.995 60 C 128.190 62.243, 128.165 62.366, 126.753 61.201 C 125.829 60.440, 124.937 60.293, 124.595 60.847 C 124.005 61.801, 126.779 63.481, 128.355 63.124 C 128.826 63.017, 129.726 63.350, 130.355 63.865 C 131.084 64.460, 131.863 64.368, 132.500 63.611 C 134.322 61.444, 133.964 60.208, 131.322 59.545 C 129.361 59.053, 128.996 58.604, 129.855 57.745 C 130.485 57.115, 131 55.849, 131 54.931 C 131 53.666, 130.274 53.347, 128 53.612 C 125.302 53.926, 125 53.681, 125 51.180 C 125 49.651, 124.438 47.805, 123.750 47.078 C 122.718 45.985, 122.900 45.961, 124.798 46.938 C 126.442 47.785, 126.921 48.674, 126.481 50.061 C 125.976 51.652, 126.348 52, 128.555 52 C 130.514 52, 131.004 51.660, 130.357 50.750 C 129.868 50.063, 129.488 48.600, 129.511 47.500 C 129.557 45.319, 127.046 42.854, 125.654 43.714 C 125.177 44.009, 125.397 44.637, 126.143 45.110 C 126.944 45.617, 127.038 45.976, 126.372 45.985 C 125.752 45.993, 124.711 45.356, 124.058 44.570 C 123.115 43.433, 123.243 42.944, 124.685 42.188 C 126.828 41.064, 131.433 42.491, 130.505 43.992 C 130.162 44.546, 130.262 45, 130.727 45 C 131.191 45, 131.633 45.788, 131.708 46.750 C 131.784 47.712, 131.949 49.962, 132.075 51.750 C 132.201 53.538, 132.742 55, 133.277 55 C 133.845 55, 133.971 53.649, 133.580 51.750 C 133.212 49.962, 132.731 46.700, 132.512 44.500 C 132.138 40.736, 132.187 40.789, 133.342 45.410 C 134.188 48.794, 135.126 50.401, 136.363 50.583 C 139.329 51.018, 141 51.878, 141 52.969 C 141 53.536, 140.235 54, 139.300 54 C 137.978 54, 137.867 54.267, 138.800 55.200 C 140.560 56.960, 140.263 59.002, 138.250 58.985 C 136.791 58.972, 136.743 58.816, 137.960 58.046 C 139.220 57.249, 139.185 56.862, 137.708 55.230 C 136.766 54.189, 136.297 53.037, 136.664 52.669 C 137.032 52.301, 136.820 52, 136.192 52 C 135.467 52, 135.260 53.052, 135.626 54.879 C 135.943 56.464, 135.727 58.051, 135.144 58.411 C 134.563 58.770, 134.327 59.689, 134.621 60.454 C 134.914 61.218, 134.631 62.821, 133.991 64.016 C 132.924 66.010, 133.021 66.135, 135.164 65.529 C 136.800 65.067, 137.087 65.155, 136.122 65.823 C 135.356 66.352, 135.079 67.318, 135.497 67.995 C 136.021 68.842, 136.454 68.884, 136.918 68.132 C 137.522 67.155, 140.451 66.272, 143.739 66.074 C 144.423 66.033, 144.888 64.914, 144.777 63.572 C 144.666 62.237, 144.241 61.351, 143.832 61.604 C 143.422 61.857, 143.378 62.822, 143.734 63.749 C 144.307 65.242, 144.200 65.267, 142.797 63.967 C 140.950 62.256, 142.279 58.451, 144.300 59.664 C 145.114 60.152, 145.084 59.870, 144.208 58.789 C 143.319 57.692, 143.259 57.080, 144.015 56.828 C 144.620 56.627, 144.817 55.686, 144.452 54.737 C 144.088 53.788, 143.388 53.260, 142.895 53.565 C 142.403 53.869, 142 53.247, 142 52.181 C 142 51.116, 141.352 49.707, 140.559 49.049 C 139.767 48.392, 139.365 47.212, 139.666 46.427 C 140.046 45.438, 139.491 45.005, 137.857 45.015 C 136.154 45.026, 135.876 45.269, 136.857 45.890 C 137.803 46.490, 137.878 46.957, 137.107 47.434 C 135.890 48.186, 135.721 47.335, 135.980 41.750 C 136.138 38.321, 135.927 38, 133.517 38 C 132.015 38, 131.148 37.570, 131.500 37 C 131.840 36.450, 131.611 36, 130.992 36 C 130.320 36, 130.122 36.808, 130.500 38 C 130.950 39.419, 130.680 40, 129.567 40 C 128.667 40, 128 39.149, 128 38 C 128 35.891, 126.545 35.309, 125.500 37 C 125.160 37.550, 124.346 37.993, 123.691 37.985 C 122.975 37.975, 123.099 37.582, 124 37 C 124.901 36.418, 125.025 36.025, 124.309 36.015 C 123.654 36.007, 122.954 36.337, 122.753 36.750 M 138 40 C 138 43.905, 138.083 44, 141.500 44 C 144.917 44, 145 43.905, 145 40 C 145 36.095, 144.917 36, 141.500 36 C 138.083 36, 138 36.095, 138 40 M 151.079 37.583 C 151.127 38.748, 151.364 38.985, 151.683 38.188 C 151.972 37.466, 151.936 36.603, 151.604 36.271 C 151.272 35.939, 151.036 36.529, 151.079 37.583 M 114 40 C 114 42.533, 114.389 43, 116.500 43 C 118.611 43, 119 42.533, 119 40 C 119 37.467, 118.611 37, 116.500 37 C 114.389 37, 114 37.467, 114 40 M 139 40 C 139 42.533, 139.389 43, 141.500 43 C 143.611 43, 144 42.533, 144 40 C 144 37.467, 143.611 37, 141.500 37 C 139.389 37, 139 37.467, 139 40 M 115 40 C 115 41.111, 115.667 42, 116.500 42 C 117.333 42, 118 41.111, 118 40 C 118 38.889, 117.333 38, 116.500 38 C 115.667 38, 115 38.889, 115 40 M 140 40 C 140 41.111, 140.667 42, 141.500 42 C 142.333 42, 143 41.111, 143 40 C 143 38.889, 142.333 38, 141.500 38 C 140.667 38, 140 38.889, 140 40 M 123.813 39.683 C 124.534 39.972, 125.397 39.936, 125.729 39.604 C 126.061 39.272, 125.471 39.036, 124.417 39.079 C 123.252 39.127, 123.015 39.364, 123.813 39.683 M 77.500 42 C 77.840 42.550, 78.316 43, 78.559 43 C 78.802 43, 79 42.550, 79 42 C 79 41.450, 78.523 41, 77.941 41 C 77.359 41, 77.160 41.450, 77.500 42 M 97 42 C 97 42.550, 97.450 43, 98 43 C 98.550 43, 99 42.550, 99 42 C 99 41.450, 98.550 41, 98 41 C 97.450 41, 97 41.450, 97 42 M 151.079 42.583 C 151.127 43.748, 151.364 43.985, 151.683 43.188 C 151.972 42.466, 151.936 41.603, 151.604 41.271 C 151.272 40.939, 151.036 41.529, 151.079 42.583 M 166 62.500 L 166 83 172.500 83 L 179 83 179 62.500 L 179 42 172.500 42 L 166 42 166 62.500 M 141.777 47.612 C 142.357 50.650, 145.268 50.868, 144.820 47.841 C 144.644 46.653, 143.785 45.578, 142.910 45.452 C 141.735 45.284, 141.439 45.848, 141.777 47.612 M 77 47 C 77 47.550, 77.450 48, 78 48 C 78.550 48, 79 47.550, 79 47 C 79 46.450, 78.550 46, 78 46 C 77.450 46, 77 46.450, 77 47 M 83 47 C 83 47.550, 83.450 48, 84 48 C 84.550 48, 85 47.550, 85 47 C 85 46.450, 84.550 46, 84 46 C 83.450 46, 83 46.450, 83 47 M 94 47 C 94 47.550, 94.450 48, 95 48 C 95.550 48, 96 47.550, 96 47 C 96 46.450, 95.550 46, 95 46 C 94.450 46, 94 46.450, 94 47 M 151.079 47.583 C 151.127 48.748, 151.364 48.985, 151.683 48.188 C 151.972 47.466, 151.936 46.603, 151.604 46.271 C 151.272 45.939, 151.036 46.529, 151.079 47.583 M 77 51 C 77 51.550, 77.450 52, 78 52 C 78.550 52, 79 51.550, 79 51 C 79 50.450, 78.550 50, 78 50 C 77.450 50, 77 50.450, 77 51 M 82 51 C 82 51.550, 82.450 52, 83 52 C 83.550 52, 84 51.550, 84 51 C 84 50.450, 83.550 50, 83 50 C 82.450 50, 82 50.450, 82 51 M 115.116 51.809 C 115.052 52.529, 114.625 52.886, 114.167 52.603 C 113.708 52.320, 113.333 52.763, 113.333 53.587 C 113.333 54.443, 113.919 54.861, 114.699 54.562 C 115.526 54.245, 116.450 55.053, 117.044 56.616 C 117.583 58.034, 118.895 59.421, 119.958 59.699 C 121.022 59.978, 122.029 60.828, 122.196 61.590 C 122.384 62.446, 122.926 62.057, 123.617 60.569 C 124.500 58.668, 124.462 58.269, 123.436 58.663 C 122.570 58.995, 122.033 58.080, 121.819 55.907 C 121.639 54.069, 120.848 52.479, 120 52.251 C 118.667 51.893, 118.667 51.966, 120 52.909 C 121.213 53.766, 120.988 53.972, 118.823 53.985 C 117.106 53.995, 115.983 53.373, 115.689 52.250 C 115.438 51.288, 115.180 51.089, 115.116 51.809 M 151.079 52.583 C 151.127 53.748, 151.364 53.985, 151.683 53.188 C 151.972 52.466, 151.936 51.603, 151.604 51.271 C 151.272 50.939, 151.036 51.529, 151.079 52.583 M 114 56 C 113.207 56.490, 112.890 57.223, 113.296 57.629 C 113.701 58.035, 114.558 57.842, 115.200 57.200 C 116.711 55.689, 115.868 54.846, 114 56 M 132.443 56.418 C 131.376 57.198, 130.776 58.109, 131.108 58.442 C 132.096 59.430, 135 57.901, 135 56.393 C 135 54.663, 134.841 54.664, 132.443 56.418 M 151.079 57.583 C 151.127 58.748, 151.364 58.985, 151.683 58.188 C 151.972 57.466, 151.936 56.603, 151.604 56.271 C 151.272 55.939, 151.036 56.529, 151.079 57.583 M 158 59 C 158 60.100, 158.450 61, 159 61 C 159.550 61, 160 60.100, 160 59 C 160 57.900, 159.550 57, 159 57 C 158.450 57, 158 57.900, 158 59 M 114.500 59 C 114.160 59.550, 114.584 60, 115.441 60 C 116.298 60, 117 59.550, 117 59 C 117 58.450, 116.577 58, 116.059 58 C 115.541 58, 114.840 58.450, 114.500 59 M 136 61.573 C 136 62.505, 136.680 63.015, 137.667 62.823 C 140.176 62.337, 140.520 60, 138.083 60 C 136.855 60, 136 60.646, 136 61.573 M 113 65 C 113 68.905, 113.083 69, 116.500 69 C 119.917 69, 120 68.905, 120 65 C 120 61.095, 119.917 61, 116.500 61 C 113.083 61, 113 61.095, 113 65 M 130.500 62 C 130.840 62.550, 131.316 63, 131.559 63 C 131.802 63, 132 62.550, 132 62 C 132 61.450, 131.523 61, 130.941 61 C 130.359 61, 130.160 61.450, 130.500 62 M 151.079 62.583 C 151.127 63.748, 151.364 63.985, 151.683 63.188 C 151.972 62.466, 151.936 61.603, 151.604 61.271 C 151.272 60.939, 151.036 61.529, 151.079 62.583 M 114 65 C 114 67.533, 114.389 68, 116.500 68 C 118.611 68, 119 67.533, 119 65 C 119 62.467, 118.611 62, 116.500 62 C 114.389 62, 114 62.467, 114 65 M 115 65 C 115 66.111, 115.667 67, 116.500 67 C 117.333 67, 118 66.111, 118 65 C 118 63.889, 117.333 63, 116.500 63 C 115.667 63, 115 63.889, 115 65 M 171 65.941 C 171 67.623, 171.450 69, 172 69 C 172.550 69, 173 67.902, 173 66.559 C 173 65.216, 172.550 63.840, 172 63.500 C 171.417 63.139, 171 64.156, 171 65.941 M 122 65.559 C 122 66.416, 122.457 66.835, 123.016 66.490 C 123.575 66.144, 123.774 65.443, 123.457 64.931 C 122.600 63.544, 122 63.802, 122 65.559 M 158 67.500 C 158 69.425, 158.450 71, 159 71 C 159.550 71, 160 69.425, 160 67.500 C 160 65.575, 159.550 64, 159 64 C 158.450 64, 158 65.575, 158 67.500 M 123.557 67.582 C 122.491 68.362, 122.041 68.993, 122.559 68.985 C 123.941 68.962, 126.520 67.186, 125.969 66.636 C 125.710 66.376, 124.624 66.802, 123.557 67.582 M 151.079 67.583 C 151.127 68.748, 151.364 68.985, 151.683 68.188 C 151.972 67.466, 151.936 66.603, 151.604 66.271 C 151.272 65.939, 151.036 66.529, 151.079 67.583 M 127.500 68 C 127.840 68.550, 129.441 69, 131.059 69 C 132.677 69, 134 68.550, 134 68 C 134 67.450, 132.398 67, 130.441 67 C 128.323 67, 127.132 67.405, 127.500 68 M 142 68 C 141.175 68.533, 140.950 68.969, 141.500 68.969 C 142.050 68.969, 143.175 68.533, 144 68 C 144.825 67.467, 145.050 67.031, 144.500 67.031 C 143.950 67.031, 142.825 67.467, 142 68 M 171 71.441 C 171 72.298, 171.450 73, 172 73 C 172.550 73, 173 72.577, 173 72.059 C 173 71.541, 172.550 70.840, 172 70.500 C 171.450 70.160, 171 70.584, 171 71.441 M 151.079 72.583 C 151.127 73.748, 151.364 73.985, 151.683 73.188 C 151.972 72.466, 151.936 71.603, 151.604 71.271 C 151.272 70.939, 151.036 71.529, 151.079 72.583 M 158 73 C 158 73.550, 158.450 74, 159 74 C 159.550 74, 160 73.550, 160 73 C 160 72.450, 159.550 72, 159 72 C 158.450 72, 158 72.450, 158 73 M 171 76 C 171 77.100, 171.450 78, 172 78 C 172.550 78, 173 77.100, 173 76 C 173 74.900, 172.550 74, 172 74 C 171.450 74, 171 74.900, 171 76 M 151.079 77.583 C 151.127 78.748, 151.364 78.985, 151.683 78.188 C 151.972 77.466, 151.936 76.603, 151.604 76.271 C 151.272 75.939, 151.036 76.529, 151.079 77.583 M 158 80 C 158 81.100, 158.450 82, 159 82 C 159.550 82, 160 81.100, 160 80 C 160 78.900, 159.550 78, 159 78 C 158.450 78, 158 78.900, 158 80 M 171 80 C 171 80.550, 171.450 81, 172 81 C 172.550 81, 173 80.550, 173 80 C 173 79.450, 172.550 79, 172 79 C 171.450 79, 171 79.450, 171 80 M 151.079 82.583 C 151.127 83.748, 151.364 83.985, 151.683 83.188 C 151.972 82.466, 151.936 81.603, 151.604 81.271 C 151.272 80.939, 151.036 81.529, 151.079 82.583 M 7.632 86.214 C 7.900 86.646, 7.566 87, 6.892 87 C 6.218 87, 5.956 87.289, 6.309 87.643 C 6.663 87.996, 7.594 87.752, 8.379 87.101 C 9.389 86.263, 9.913 86.238, 10.172 87.015 C 10.373 87.620, 11.317 87.816, 12.269 87.450 C 15.062 86.379, 14.265 85.429, 10.573 85.429 C 8.689 85.429, 7.365 85.782, 7.632 86.214 M 15 86.667 C 15 87.400, 15.402 88, 15.893 88 C 16.384 88, 17.016 87.400, 17.298 86.667 C 17.579 85.933, 17.177 85.333, 16.405 85.333 C 15.632 85.333, 15 85.933, 15 86.667 M 19.079 86.583 C 19.127 87.748, 19.364 87.985, 19.683 87.188 C 19.972 86.466, 19.936 85.603, 19.604 85.271 C 19.272 84.939, 19.036 85.529, 19.079 86.583 M 21 86.482 C 21 87.077, 22.050 87.651, 23.333 87.757 C 24.659 87.867, 25.667 87.399, 25.667 86.675 C 25.667 85.974, 24.617 85.400, 23.333 85.400 C 22.050 85.400, 21 85.887, 21 86.482 M 29 86.667 C 29 87.400, 29.402 88, 29.893 88 C 30.384 88, 31.016 87.400, 31.298 86.667 C 31.579 85.933, 31.177 85.333, 30.405 85.333 C 29.632 85.333, 29 85.933, 29 86.667 M 33 86.449 C 33 87.062, 34.125 87.657, 35.500 87.771 C 37.292 87.919, 37.996 87.485, 37.985 86.239 C 37.972 84.751, 37.830 84.716, 37 86 C 36.467 86.825, 36.024 87.013, 36.015 86.417 C 36.007 85.821, 35.325 85.333, 34.500 85.333 C 33.675 85.333, 33 85.835, 33 86.449 M 39 86.534 C 39 87.359, 41.341 87.739, 46.500 87.750 C 52.784 87.763, 53.998 87.501, 53.985 86.133 C 53.971 84.713, 53.843 84.696, 53 86 C 52.467 86.825, 52.024 87.023, 52.015 86.440 C 51.996 85.093, 43.750 85.138, 42.765 86.491 C 42.283 87.153, 42.025 87.128, 42.015 86.417 C 42.007 85.821, 41.325 85.333, 40.500 85.333 C 39.675 85.333, 39 85.873, 39 86.534 M 151.079 87.583 C 151.127 88.748, 151.364 88.985, 151.683 88.188 C 151.972 87.466, 151.936 86.603, 151.604 86.271 C 151.272 85.939, 151.036 86.529, 151.079 87.583 M 181.343 96.500 C 181.346 100.900, 181.522 102.576, 181.733 100.224 C 181.945 97.872, 181.942 94.272, 181.727 92.224 C 181.512 90.176, 181.339 92.100, 181.343 96.500 M 151.079 92.583 C 151.127 93.748, 151.364 93.985, 151.683 93.188 C 151.972 92.466, 151.936 91.603, 151.604 91.271 C 151.272 90.939, 151.036 91.529, 151.079 92.583 M 170.328 97.500 C 170.333 101.350, 170.513 102.802, 170.730 100.728 C 170.946 98.653, 170.943 95.503, 170.722 93.728 C 170.501 91.952, 170.324 93.650, 170.328 97.500 M 185.328 97.500 C 185.333 101.350, 185.513 102.802, 185.730 100.728 C 185.946 98.653, 185.943 95.503, 185.722 93.728 C 185.501 91.952, 185.324 93.650, 185.328 97.500 M 151.079 97.583 C 151.127 98.748, 151.364 98.985, 151.683 98.188 C 151.972 97.466, 151.936 96.603, 151.604 96.271 C 151.272 95.939, 151.036 96.529, 151.079 97.583" stroke="none" fill="#f3ef1d" fill-rule="evenodd"/></svg>