<?xml version="1.0" standalone="no"?>
<!DOCTYPE svg PUBLIC "-//W3C//DTD SVG 20010904//EN"
 "http://www.w3.org/TR/2001/REC-SVG-20010904/DTD/svg10.dtd">
<svg version="1.0" xmlns="http://www.w3.org/2000/svg"
 width="734.000000pt" height="280.000000pt" viewBox="0 0 734.000000 280.000000"
 preserveAspectRatio="xMidYMid meet">

<g transform="translate(0.000000,280.000000) scale(0.100000,-0.100000)"
fill="#000000" stroke="none">
<path d="M415 2768 c-4 -18 -11 -37 -15 -43 -4 -5 -25 -41 -45 -80 -21 -38
-41 -72 -45 -75 -4 -3 -15 -21 -25 -40 -10 -19 -26 -46 -36 -59 -11 -13 -19
-30 -19 -38 0 -8 -9 -28 -20 -43 -11 -16 -43 -73 -71 -127 -28 -54 -55 -102
-60 -107 -5 -6 -9 -19 -9 -31 0 -11 -6 -29 -13 -40 -31 -46 -57 -143 -57 -211
l0 -69 33 80 c61 152 89 180 128 131 28 -36 67 -34 153 8 39 19 111 53 159 76
49 22 112 52 140 65 29 14 79 48 112 76 33 28 84 62 113 76 29 13 50 28 48 32
-3 4 -23 16 -45 26 -39 17 -42 17 -98 -3 -32 -11 -71 -23 -88 -27 -101 -21
-350 -131 -447 -196 -62 -42 -80 -49 -56 -21 9 9 23 33 33 52 21 42 329 508
380 574 l35 46 -89 0 -89 0 -7 -32z m-185 -429 c-7 -11 -14 -18 -17 -15 -3 3
0 12 7 21 18 21 23 19 10 -6z"/>
<path d="M656 2735 c-27 -36 -51 -65 -54 -65 -2 0 1 7 8 15 7 9 11 18 8 20 -7
7 -25 -16 -30 -35 -2 -8 -37 -60 -79 -115 -42 -55 -82 -111 -89 -125 -7 -14
-26 -38 -42 -54 -33 -35 -35 -47 -10 -69 34 -31 68 -21 126 36 30 28 74 70 98
91 23 22 79 74 123 115 44 42 94 86 110 98 17 12 63 46 104 75 41 29 76 59 79
66 3 9 -31 12 -150 12 l-153 0 -49 -65z"/>
<path d="M1054 2738 c-61 -64 -95 -104 -149 -174 -16 -21 -42 -51 -57 -65 -27
-26 -27 -27 -8 -44 21 -19 26 -18 94 39 27 22 63 52 81 66 19 14 84 69 145
123 62 53 120 97 129 97 9 0 23 5 31 10 10 7 -20 10 -95 10 l-111 0 -60 -62z"/>
<path d="M1354 2768 c-9 -18 -29 -46 -44 -63 -38 -40 -155 -217 -155 -232 0
-7 -4 -14 -10 -15 -12 -2 -45 -43 -45 -55 0 -4 5 -1 11 7 9 13 10 13 6 0 -2
-8 -8 -15 -14 -15 -6 0 -27 -24 -47 -54 -38 -57 -43 -66 -24 -55 7 4 8 3 4 -5
-4 -6 -11 -9 -15 -6 -7 4 -27 -29 -29 -48 0 -4 -18 -31 -38 -60 -20 -28 -64
-103 -97 -167 -33 -63 -69 -128 -80 -144 -20 -28 -20 -29 -2 -42 28 -20 42
-17 62 13 10 16 23 35 30 43 34 42 117 151 152 201 22 30 57 70 78 88 21 17
50 43 64 57 23 23 29 25 48 14 19 -10 43 -5 149 31 70 23 145 42 166 42 29 0
51 8 84 34 59 45 143 87 267 134 197 74 199 76 124 118 -40 23 -58 23 -119 5
-44 -12 133 116 183 134 26 9 60 29 74 45 l27 27 -143 0 -142 0 -25 -27 c-13
-16 -56 -71 -95 -124 -63 -88 -73 -97 -107 -101 -20 -3 -45 -8 -56 -13 -47
-20 109 157 214 244 l25 20 -95 0 -95 0 -60 -76 c-131 -165 -144 -187 -118
-201 17 -10 10 -32 -11 -32 -12 0 -101 -29 -139 -45 -24 -10 34 86 78 130 29
30 155 207 155 219 0 3 -40 6 -90 6 l-89 0 -17 -32z m369 -285 c-7 -2 -19 -2
-25 0 -7 3 -2 5 12 5 14 0 19 -2 13 -5z m-649 -197 c-3 -9 -10 -16 -15 -16 -5
0 -4 9 3 20 14 22 21 20 12 -4z"/>
<path d="M2236 2792 c-2 -4 -10 -38 -17 -76 l-11 -67 -52 -24 c-28 -12 -66
-26 -84 -30 -18 -4 -30 -11 -27 -16 4 -5 22 -2 43 7 20 8 56 17 80 19 51 4 49
3 56 38 2 15 7 35 10 45 21 67 23 137 2 104z"/>
<path d="M2276 2783 c-3 -10 -8 -40 -11 -66 -3 -27 -10 -58 -16 -69 -6 -11 -8
-22 -5 -25 9 -9 26 8 26 25 0 9 5 24 10 32 8 11 9 7 5 -17 l-5 -32 72 20 c40
11 76 24 80 28 4 3 23 32 42 64 l35 57 -114 0 c-100 0 -114 -2 -119 -17z"/>
<path d="M2493 2730 c-32 -49 -54 -72 -72 -76 -60 -13 -214 -66 -284 -99 -64
-30 -78 -41 -96 -77 -15 -30 -17 -46 -10 -60 5 -10 13 -18 17 -18 25 0 178 43
190 53 12 10 14 9 10 -3 -15 -46 -189 -80 -228 -45 -16 14 -24 14 -96 -10 -44
-14 -87 -30 -97 -36 -10 -5 -23 -7 -29 -3 -6 4 -8 3 -5 -2 3 -6 -47 -36 -111
-68 -64 -32 -132 -67 -150 -77 -18 -11 -39 -16 -45 -13 -7 4 -9 4 -5 -1 5 -5
-8 -19 -28 -33 -33 -22 -37 -23 -52 -8 -10 10 -12 16 -4 16 6 0 26 13 44 28
18 16 56 39 83 51 28 13 84 40 125 60 41 20 77 36 80 36 3 0 11 4 18 8 6 5 17
5 22 2 6 -3 10 -2 10 4 0 10 17 17 62 27 40 9 42 10 73 26 17 9 45 19 63 23
17 3 32 11 32 16 0 5 -10 7 -23 4 -13 -4 -30 -8 -38 -9 -8 -2 -21 -6 -29 -9
-71 -29 -130 -43 -141 -33 -9 8 -10 8 -5 -1 10 -17 -68 -55 -84 -40 -10 9 -11
9 -6 0 5 -9 -6 -18 -31 -29 -21 -9 -45 -20 -53 -25 -23 -13 -65 -31 -66 -27 0
2 -17 -9 -37 -24 -19 -16 -38 -28 -41 -28 -3 0 -15 -8 -26 -17 -41 -36 -90
-20 -68 21 10 19 10 20 -6 7 -11 -9 -16 -24 -13 -38 6 -32 -46 -71 -68 -53 -8
7 -15 21 -15 31 0 11 -4 19 -10 19 -21 0 -9 -44 22 -79 33 -37 56 -52 198
-129 47 -25 112 -63 145 -86 33 -22 127 -73 210 -113 82 -41 151 -80 153 -87
5 -22 -130 -228 -184 -281 -17 -16 -58 -52 -93 -78 -59 -46 -67 -49 -151 -60
-79 -10 -94 -9 -125 6 -44 21 -45 21 -45 2 0 -21 36 -33 126 -41 l77 -7 -39
-14 c-97 -35 -133 -52 -182 -84 -61 -40 -67 -52 -14 -33 46 16 119 18 177 3
l43 -11 -54 -29 c-30 -15 -74 -44 -97 -63 -34 -28 -57 -37 -111 -46 -61 -10
-75 -8 -132 10 -35 12 -74 20 -86 18 -19 -2 -9 -12 53 -53 41 -27 108 -72 148
-99 l73 -48 -72 -39 c-39 -22 -75 -39 -79 -39 -5 0 -14 -7 -21 -15 -8 -9 -9
-15 -2 -15 6 0 14 5 17 10 13 22 194 5 270 -25 18 -7 19 -6 5 9 -18 18 -153
50 -187 43 -43 -8 -23 10 46 41 38 18 76 30 83 27 29 -9 129 -14 123 -6 -3 5
-44 12 -91 16 -100 9 -131 23 -220 103 -52 47 -55 52 -30 46 38 -9 69 -11 80
-5 5 2 27 6 48 7 25 2 52 13 73 31 93 78 168 117 196 103 10 -6 19 -7 19 -3 0
5 -24 19 -52 32 -38 18 -71 25 -119 25 -64 1 -65 1 -43 18 26 21 201 81 213
73 5 -2 12 2 15 11 3 8 9 13 14 10 4 -2 14 0 22 5 10 6 -10 7 -54 3 -44 -4
-67 -3 -63 3 3 5 24 10 46 11 33 2 55 14 130 74 50 39 91 75 91 80 0 4 5 8 11
8 5 0 7 -6 3 -12 -5 -9 -3 -9 9 1 9 7 15 17 12 21 -6 11 40 81 49 75 3 -3 4
-2 1 1 -6 9 24 64 35 64 5 0 16 12 25 28 15 26 16 26 9 2 -3 -14 -12 -31 -18
-39 -6 -8 -18 -32 -27 -55 -9 -25 -21 -40 -30 -38 -9 1 -8 -2 4 -12 16 -13 12
-19 -53 -79 -72 -66 -96 -100 -37 -52 17 14 58 46 91 70 68 52 120 117 112
142 -3 10 1 42 8 71 11 39 11 52 3 49 -7 -2 -13 -15 -13 -28 -3 -55 -36 -134
-65 -157 -31 -25 -40 -15 -11 14 9 10 16 19 15 21 -4 6 27 72 37 78 5 3 10 17
10 31 0 14 -4 22 -10 19 -5 -3 -7 0 -5 7 11 28 39 35 74 18 21 -11 30 -20 23
-24 -7 -4 -12 -2 -12 3 0 26 -17 7 -33 -38 -21 -59 -21 -67 -2 -51 12 10 13 8
10 -10 -2 -12 -10 -29 -17 -38 -7 -8 -12 -17 -10 -19 1 -1 2 -6 2 -11 0 -12
-112 -127 -121 -125 -5 2 -8 -3 -6 -10 1 -6 -6 -11 -15 -9 -10 2 -18 -1 -18
-6 0 -5 -8 -12 -17 -16 -10 -3 -33 -15 -51 -26 -18 -11 -38 -19 -44 -17 -15 3
-17 -25 -3 -35 5 -4 -15 -18 -45 -32 -30 -14 -47 -25 -37 -25 9 -1 47 17 84
39 36 22 68 38 70 36 3 -2 18 8 35 22 17 15 34 26 39 25 5 -2 8 1 6 5 -1 4 13
25 31 47 34 43 44 40 14 -3 -10 -15 -22 -34 -25 -42 -4 -8 -14 -25 -23 -37 -9
-13 -12 -23 -6 -23 9 0 76 101 111 167 10 20 15 23 23 12 8 -11 8 -10 4 4 -3
10 1 31 9 48 9 16 15 32 14 35 0 4 3 10 8 13 14 9 54 83 49 88 -2 3 -11 -4
-18 -16 -22 -35 -29 -23 -7 13 l20 35 37 -16 c20 -8 51 -21 67 -28 17 -7 44
-17 60 -22 27 -9 30 -13 25 -44 -3 -19 -4 -69 -3 -111 1 -44 -2 -78 -8 -78 -5
0 -9 18 -9 39 0 30 -4 39 -15 37 -9 -1 -16 -5 -17 -9 -17 -89 -13 -111 17
-112 6 0 11 -9 12 -20 1 -11 8 -42 16 -70 9 -35 11 -64 5 -98 -11 -58 -4 -86
8 -39 5 18 8 133 7 255 -1 121 0 224 3 228 2 4 27 -2 54 -13 27 -11 48 -24 45
-28 -2 -4 6 -5 18 -3 21 4 22 1 24 -49 2 -89 2 -88 18 -82 8 4 15 1 15 -6 0
-6 -4 -9 -9 -6 -5 3 -15 -2 -22 -11 -8 -10 -9 -14 -2 -10 21 13 26 -14 6 -36
-14 -17 -14 -19 -1 -9 15 12 18 9 24 -22 3 -20 10 -36 16 -36 5 0 6 5 3 10 -3
6 -4 10 -1 10 3 0 21 -29 41 -64 20 -35 43 -67 52 -70 9 -4 13 -9 10 -12 -3
-4 -19 3 -35 15 -17 12 -34 21 -38 21 -5 0 -26 17 -47 37 -36 36 -38 37 -28
11 17 -44 2 -32 -18 15 -30 69 -35 91 -21 82 9 -6 11 -4 5 4 -5 9 -10 10 -18
2 -9 -9 -4 -34 24 -96 34 -77 30 -104 -8 -58 -16 20 -22 24 -23 12 0 -9 7 -22
15 -29 9 -7 13 -20 10 -29 -3 -8 -3 -12 1 -8 10 10 37 -31 29 -43 -4 -6 -1 -9
5 -8 6 2 22 -28 34 -67 13 -38 27 -79 30 -90 4 -11 -2 -4 -12 15 -11 19 -31
45 -44 57 l-24 23 0 -108 c0 -59 -3 -116 -8 -127 -5 -11 -10 -37 -12 -59 -2
-21 -8 -44 -15 -52 -9 -11 -8 -14 3 -14 8 0 15 6 16 13 0 6 3 23 7 37 3 14 9
42 12 63 3 20 10 37 15 37 6 0 8 -9 5 -20 -3 -11 -1 -18 3 -15 5 3 11 1 14 -4
4 -5 2 -12 -3 -16 -5 -3 -9 -15 -8 -26 1 -18 3 -19 13 -4 11 14 14 13 27 -13
20 -41 16 -80 -13 -127 -34 -55 -36 -63 -12 -42 23 21 58 86 54 102 -1 6 7 -1
18 -15 11 -14 20 -27 20 -30 0 -7 -105 -75 -107 -69 -1 2 -12 -5 -25 -17 -29
-26 -83 -48 -102 -41 -7 3 -18 1 -24 -5 -6 -6 -16 -7 -22 -3 -8 5 0 13 21 22
19 8 41 19 49 24 8 5 31 18 51 28 37 21 68 51 51 51 -5 0 -15 -7 -22 -15 -7
-8 -18 -15 -25 -15 -6 0 -20 -9 -30 -20 -10 -11 -23 -20 -29 -20 -6 0 8 17 30
38 23 21 49 57 58 81 15 39 15 43 2 32 -9 -8 -16 -20 -16 -28 0 -8 -4 -12 -9
-9 -5 4 -7 -2 -4 -12 8 -32 -152 -163 -179 -146 -4 3 -5 10 -2 16 6 10 -24 6
-81 -9 -14 -4 -7 9 25 42 l45 47 -40 -25 c-60 -38 -124 -62 -137 -49 -6 6 -6
12 3 17 8 5 10 4 5 -3 -4 -7 20 6 53 28 61 41 82 73 61 94 -6 6 -11 7 -10 1 2
-5 2 -15 1 -21 -1 -11 -63 -41 -101 -48 -14 -2 -25 -5 -25 -6 0 -2 -58 -13
-75 -13 -83 -3 -122 16 -44 21 20 2 45 7 55 13 11 5 19 8 19 6 0 -3 19 13 42
34 24 22 46 39 50 39 14 0 98 62 98 71 0 6 -15 0 -32 -13 -69 -48 -182 -99
-242 -107 -69 -10 -157 -6 -200 9 -45 16 -65 11 -26 -6 42 -19 181 -26 245
-12 26 6 49 7 52 4 10 -10 0 -13 -54 -19 -28 -3 -60 -10 -71 -16 -29 -15 -95
-14 -127 3 -17 9 -44 12 -73 9 -26 -3 -56 -5 -67 -4 -21 0 -45 -16 -45 -31 0
-6 6 -6 14 1 20 17 138 26 163 12 12 -6 54 -14 95 -17 40 -4 75 -10 78 -14 3
-4 28 -4 55 0 28 4 52 6 54 4 8 -8 -95 -47 -136 -52 -60 -7 -43 -22 25 -23 48
0 54 -2 38 -12 -11 -7 -56 -36 -100 -66 -45 -30 -106 -65 -136 -79 -109 -49
-122 -52 -645 -191 -104 -28 -215 -59 -245 -70 l-55 -20 561 0 561 -1 45 92
45 92 43 -67 c24 -37 48 -67 53 -67 6 0 6 5 0 13 -6 6 -27 38 -48 70 -41 64
-38 77 15 71 16 -2 77 -6 136 -8 59 -3 107 -7 108 -8 0 -2 12 -23 25 -48 13
-25 35 -66 49 -93 13 -26 28 -47 33 -47 7 0 -22 60 -81 165 -19 34 -16 45 46
150 19 33 40 72 45 88 6 15 15 27 21 27 6 0 7 -7 4 -16 -3 -8 -2 -13 3 -10 7
5 33 -45 56 -109 4 -12 9 -15 12 -8 2 7 -1 22 -8 35 -8 13 -14 25 -14 28 -1 3
-9 23 -18 44 -20 45 -16 54 16 38 18 -9 56 -22 77 -27 50 -12 116 -39 127 -52
8 -10 11 -12 7 -4 -4 9 -2 12 7 9 17 -5 62 -136 55 -160 -2 -10 1 -16 6 -15 6
1 24 -36 40 -83 32 -91 59 -137 32 -55 -8 28 -19 59 -24 70 -17 43 -30 81 -33
100 -2 11 -9 30 -15 43 -7 12 -10 22 -7 22 2 0 -2 18 -11 40 -15 38 -15 40 7
72 13 18 47 58 75 89 28 31 56 64 62 75 6 10 13 17 15 14 3 -3 17 -54 31 -115
14 -60 27 -115 29 -122 2 -7 7 -16 11 -20 8 -8 2 50 -7 64 -3 5 -8 27 -11 49
-4 23 -11 56 -17 75 -25 82 -26 80 35 51 30 -15 52 -31 48 -36 -3 -5 0 -6 6
-2 6 4 26 -1 44 -11 18 -9 35 -18 38 -18 23 -4 70 -39 71 -53 0 -9 2 -24 4
-32 8 -33 36 -176 40 -200 8 -62 38 -200 42 -196 3 3 0 38 -7 78 -6 40 -14 87
-16 103 -3 17 -7 37 -9 45 -2 8 -7 31 -10 50 -3 19 -8 42 -10 50 -2 8 -6 33
-10 55 -3 22 -8 48 -11 57 -5 16 31 45 49 40 5 -1 6 2 3 7 -3 5 20 31 52 57
31 27 70 62 87 78 l29 29 12 -28 c10 -26 11 -26 17 -6 3 11 1 21 -4 21 -5 0
-9 5 -9 11 0 7 9 5 23 -5 12 -9 38 -27 57 -41 151 -108 155 -111 157 -146 1
-19 2 -130 3 -248 1 -117 4 -211 7 -207 3 3 7 112 9 242 2 151 7 240 14 249 6
7 25 20 43 29 18 9 69 41 115 71 l83 55 -6 -32 c-5 -30 -10 -97 -19 -241 -2
-26 -1 -45 2 -42 3 3 6 18 7 33 4 65 26 266 29 269 2 3 64 -50 143 -121 23
-21 41 -41 39 -45 -3 -3 -7 -27 -11 -51 -3 -25 -12 -83 -20 -130 -8 -47 -16
-101 -19 -120 -3 -19 -10 -59 -16 -89 -11 -57 -12 -96 -3 -73 4 10 8 10 21 0
15 -12 15 -11 4 4 -8 10 -11 30 -8 50 2 18 10 70 16 115 7 46 16 81 20 78 5
-3 12 0 16 6 5 8 3 9 -6 4 -9 -6 -11 2 -7 36 3 24 8 55 11 69 3 13 8 42 12 65
3 22 8 42 10 45 11 10 209 117 213 114 2 -1 -2 -25 -8 -51 -17 -72 -22 -95
-26 -128 -2 -16 -1 -22 1 -12 3 10 10 14 17 10 8 -5 8 -2 0 9 -7 8 -10 17 -7
20 3 4 8 20 10 38 3 17 12 49 19 70 7 21 11 41 8 44 -4 3 -4 6 -1 6 5 0 137
-163 151 -186 3 -6 -10 -60 -29 -120 -40 -125 -38 -119 -58 -199 -8 -33 -18
-69 -22 -80 -5 -13 -4 -17 3 -10 5 6 18 42 28 80 10 39 22 76 28 83 5 6 7 12
3 12 -3 0 0 16 8 35 9 20 15 36 15 38 -1 1 9 34 21 74 21 69 27 77 70 88 3 1
12 5 20 8 29 12 152 57 157 57 2 0 1 -6 -4 -12 -4 -7 -8 -17 -9 -23 -1 -5 -14
-41 -29 -80 -14 -38 -22 -65 -17 -60 5 6 15 26 22 45 7 19 18 41 23 48 6 7 12
25 13 38 2 14 8 32 15 40 9 11 8 18 -5 32 -9 10 -14 22 -11 25 3 4 2 5 -2 2
-14 -11 -42 53 -36 87 6 40 75 198 83 193 4 -2 13 -22 20 -45 7 -22 19 -45 27
-52 11 -9 12 -7 7 8 -8 20 -6 19 16 -9 10 -14 11 -17 0 -15 -7 2 -13 -6 -14
-18 -2 -11 3 -21 11 -21 7 0 13 5 14 11 0 6 8 -9 18 -33 10 -24 21 -40 24 -35
3 6 2 16 -3 24 -5 9 -5 19 1 26 7 8 6 15 -2 20 -8 4 -9 3 -5 -4 4 -7 5 -12 2
-12 -7 0 -56 98 -62 125 -18 74 -24 144 -12 151 4 3 10 -11 13 -30 4 -19 18
-44 31 -57 13 -12 24 -28 24 -34 0 -7 22 -33 50 -58 38 -35 51 -42 60 -32 7 9
6 16 -5 25 -9 7 -14 19 -11 27 3 8 2 12 -3 9 -8 -5 -32 27 -68 93 -7 12 -10
28 -6 34 3 6 1 7 -5 3 -7 -4 -11 3 -11 21 0 15 -2 87 -5 158 -2 80 0 135 7
143 7 9 6 11 -7 6 -9 -3 -16 -17 -16 -32 0 -14 -7 -52 -16 -84 -14 -50 -19
-56 -32 -46 -13 12 -14 10 -2 -9 25 -39 -13 -91 -146 -197 -20 -16 -40 -41
-45 -54 -5 -14 -12 -22 -16 -18 -8 8 46 145 66 169 9 11 16 24 16 30 2 23 17
47 26 41 5 -3 7 -10 4 -15 -10 -15 2 -10 16 8 8 10 9 14 2 10 -27 -17 -21 16
12 65 32 48 33 50 6 19 -33 -38 -57 -36 -25 1 l19 23 -24 -20 -23 -20 3 25 c2
14 6 23 9 21 8 -7 50 19 50 31 0 6 -8 4 -18 -5 -21 -20 -35 -12 -23 12 5 9 9
19 10 24 1 4 1 8 1 10 1 1 3 25 5 52 2 28 8 64 15 80 6 17 11 31 11 33 -4 14
1 42 7 39 4 -3 7 24 7 59 0 35 -3 64 -7 64 -9 0 -9 -2 -12 -40 -7 -86 -19
-159 -26 -155 -4 2 -4 22 0 43 3 21 6 66 5 100 -1 34 2 63 7 63 13 2 28 6 31
9 1 1 11 3 22 4 19 2 20 -4 20 -107 0 -60 3 -114 7 -120 9 -15 12 30 9 151
l-2 93 28 -3 c22 -2 29 -10 38 -40 5 -20 14 -40 18 -45 10 -10 -2 44 -15 70
-5 10 -7 22 -3 25 7 8 24 -17 26 -38 0 -8 2 -24 4 -34 2 -11 1 -25 -3 -30 -12
-19 -10 -33 4 -33 7 0 12 3 12 6 -1 3 2 13 6 23 4 9 3 33 -3 55 -6 21 -11 44
-11 51 0 14 39 17 41 2 8 -58 78 -229 104 -250 9 -7 14 -19 11 -27 -3 -8 -2
-11 4 -8 5 3 16 -8 25 -25 16 -31 29 -41 19 -15 -4 8 -15 32 -25 52 -13 25
-15 39 -8 44 8 4 7 13 -2 30 -7 13 -14 29 -14 34 -1 6 -7 9 -14 7 -10 -2 -10
4 3 23 17 26 17 26 -4 15 -20 -11 -21 -10 -10 9 6 12 8 26 4 32 -18 29 -33
113 -22 126 15 18 28 16 28 -5 0 -10 4 -22 8 -27 4 -6 16 -35 26 -65 11 -30
23 -59 29 -65 12 -13 3 19 -33 113 -19 49 -24 74 -17 79 6 4 13 1 15 -5 2 -7
7 -10 11 -7 5 2 6 -6 4 -18 -2 -12 5 -53 16 -92 11 -38 16 -74 11 -79 -6 -6
25 -76 35 -76 1 0 -4 26 -12 58 -7 31 -18 79 -23 105 -5 27 -12 53 -16 58 -3
6 -1 15 5 22 6 8 6 18 1 27 -15 23 -13 26 28 43 46 20 71 25 70 13 0 -5 4 -12
9 -15 18 -11 42 -128 29 -141 -8 -8 -7 -11 3 -8 8 2 15 -8 18 -27 2 -16 5 -37
6 -45 2 -8 6 -21 11 -28 5 -8 4 -18 -3 -25 -8 -8 -11 -6 -11 6 0 10 -4 25 -9
35 -26 48 -103 207 -101 210 1 2 -1 6 -4 9 -3 3 -3 -5 0 -18 3 -13 6 -28 7
-34 2 -5 7 -17 12 -25 23 -36 32 -57 30 -77 -1 -12 2 -21 6 -20 4 1 24 -29 44
-68 19 -38 34 -59 33 -46 -5 38 17 35 32 -4 15 -38 119 -145 141 -145 7 0 -5
18 -26 41 l-40 41 60 -42 c33 -22 71 -48 85 -58 14 -9 45 -36 69 -60 24 -24
49 -41 56 -38 7 2 17 0 22 -5 5 -5 25 -11 44 -14 19 -2 58 -7 87 -11 67 -8 59
-18 -18 -20 -43 -2 -58 1 -54 9 5 8 2 7 -7 0 -7 -7 -25 -13 -40 -13 -28 0 -46
-24 -27 -36 7 -4 8 -3 4 4 -5 8 2 12 21 13 15 0 48 2 73 4 40 4 42 3 20 -7
-14 -6 -33 -12 -42 -13 -20 -2 -37 -14 -22 -16 5 0 23 -2 39 -3 24 -2 65 -10
105 -21 3 -1 34 -16 70 -34 41 -21 54 -30 35 -27 -16 4 -46 9 -65 12 -19 3
-41 7 -47 9 -7 3 -13 1 -13 -3 0 -4 42 -18 93 -31 50 -13 103 -29 117 -34 14
-6 28 -11 32 -11 24 -3 13 -14 -14 -14 -49 0 -158 -22 -188 -37 -15 -8 -33
-22 -41 -31 -12 -16 -12 -17 3 -11 10 3 20 2 23 -2 3 -5 -3 -12 -12 -15 -14
-6 -15 -9 -4 -15 11 -7 9 -11 -8 -20 -11 -7 -21 -19 -21 -27 0 -14 -58 -46
-77 -43 -5 1 -17 1 -27 0 -14 -1 -17 -4 -9 -12 6 -6 44 -11 84 -11 72 0 72 -6
-3 -23 -9 -2 -25 -8 -36 -14 -11 -6 -22 -7 -26 -4 -3 3 -6 1 -6 -6 0 -14 21
-9 140 30 46 16 86 27 87 25 7 -7 -117 -56 -182 -72 -38 -9 -80 -21 -92 -27
-11 -5 -50 -11 -85 -12 -67 -3 -155 -19 -165 -29 -4 -3 38 -5 93 -5 54 1 113
1 129 0 28 -2 27 -3 -15 -17 -25 -7 -58 -15 -75 -17 -16 -2 -77 -19 -134 -36
-83 -26 -113 -31 -150 -26 -25 4 -50 10 -56 15 -5 4 -26 11 -45 15 -33 7 -34
6 -18 -10 9 -10 38 -23 65 -30 29 -8 47 -18 45 -26 -3 -10 0 -10 12 0 16 13
49 12 196 -6 54 -6 54 -7 20 -14 -44 -10 -137 -12 -172 -4 -16 3 -28 1 -28 -5
0 -5 -5 -10 -11 -10 -5 0 -8 3 -6 7 3 5 -38 8 -91 9 -91 1 -100 3 -152 34 -30
18 -65 42 -77 53 -18 16 -21 17 -19 3 1 -10 17 -26 34 -36 18 -11 32 -21 32
-23 0 -9 -102 32 -120 48 -11 10 -39 56 -62 102 -23 46 -45 83 -50 83 -12 0
-10 -18 3 -25 6 -4 8 -14 5 -22 -3 -8 -2 -12 3 -9 5 3 23 -21 40 -53 26 -51
28 -60 13 -59 -9 1 -27 -2 -39 -6 -12 -4 -24 -2 -28 4 -8 13 -45 13 -45 1 0
-6 5 -13 11 -16 6 -4 8 -13 5 -21 -3 -8 -1 -13 3 -11 5 1 31 -31 59 -72 l49
-73 -30 -62 c-17 -33 -31 -63 -32 -66 -6 -21 -20 -52 -41 -94 -14 -26 -23 -51
-20 -54 8 -7 7 -9 55 93 68 145 83 175 90 176 3 0 15 2 26 4 11 3 54 7 95 9
41 3 85 7 98 10 20 4 22 2 16 -17 -3 -12 -12 -29 -19 -37 -12 -16 -31 -59 -20
-48 3 3 21 29 39 58 l33 52 34 -69 c32 -64 36 -82 16 -75 -5 1 -6 -2 -2 -7 3
-6 12 -8 19 -5 9 3 17 -4 21 -18 4 -13 14 -31 23 -40 13 -16 13 -20 0 -35 -8
-10 -18 -27 -22 -38 -4 -13 3 -9 21 13 25 29 33 32 82 32 39 0 57 -5 67 -17
11 -14 13 -15 9 -2 -5 13 0 15 27 12 75 -9 79 -12 67 -36 -11 -21 -10 -21 17
3 16 14 26 21 22 16 -4 -5 -3 -15 3 -23 9 -10 96 -13 458 -12 l446 0 -100 30
c-129 39 -105 33 -295 75 -201 43 -354 90 -570 174 -57 22 -111 40 -120 40 -9
0 -25 7 -36 15 -17 13 -14 14 41 15 62 0 185 29 237 56 44 23 28 27 -18 5 -38
-18 -42 -18 -128 -2 l-89 17 89 27 c200 60 329 78 417 58 21 -5 37 -5 37 0 0
5 -3 9 -7 9 -5 1 -55 7 -113 14 -58 7 -115 12 -128 9 -15 -2 -21 0 -17 7 3 5
14 10 25 10 59 0 306 103 293 123 -3 6 -1 7 6 3 6 -4 19 -2 28 6 9 7 28 18 42
25 38 17 5 16 -64 -2 -32 -9 -86 -18 -119 -21 -59 -6 -60 -6 -38 10 12 10 22
23 22 31 0 7 23 28 52 45 28 18 57 38 65 45 16 16 112 30 143 20 15 -5 20 -4
16 4 -15 24 -193 1 -233 -31 -7 -5 -14 -5 -17 1 -11 18 33 33 134 47 92 12
118 12 155 4 22 -5 41 -7 43 -6 1 2 -28 18 -65 36 -37 18 -85 46 -106 62 -45
36 -145 85 -195 97 -30 7 -20 9 58 11 86 2 90 3 47 10 -61 11 -72 20 -24 20
20 0 37 4 37 9 0 5 -8 7 -18 4 -10 -2 -47 5 -83 17 -35 13 -82 23 -104 25 -57
4 -110 29 -191 94 -161 127 -195 152 -209 158 -9 3 -22 17 -30 32 -15 29 -98
311 -93 316 10 10 136 61 212 86 48 16 134 52 190 79 93 45 275 120 290 120
14 0 96 43 96 50 0 4 -7 11 -16 14 -8 3 -12 2 -9 -4 3 -5 -7 -2 -24 7 -22 13
-27 21 -19 30 6 8 -1 7 -21 -3 -30 -15 -44 -31 -18 -21 16 6 63 -31 52 -41 -4
-4 -10 -1 -12 6 -3 6 -8 10 -13 7 -5 -3 -22 9 -39 26 -17 17 -31 28 -31 24 0
-3 -12 0 -27 8 -36 18 -162 77 -188 87 -11 4 -40 17 -65 28 -25 10 -63 25 -85
32 -22 7 -49 18 -60 23 -11 6 -22 12 -25 12 -24 4 -49 18 -45 25 3 5 0 12 -6
16 -8 4 -9 3 -5 -4 8 -13 -6 -16 -18 -4 -4 4 -11 8 -14 8 -31 7 -51 18 -45 27
4 6 1 7 -6 3 -13 -9 -111 33 -111 47 0 4 -4 5 -10 2 -5 -3 -16 -3 -22 2 -7 4
-19 9 -25 10 -33 7 -39 10 -60 21 -12 7 -31 12 -42 12 -23 0 -38 22 -46 71 -3
19 -8 41 -10 49 -2 8 -7 29 -10 47 -3 18 -10 44 -15 58 -5 14 -9 29 -9 33 1 4
-2 17 -6 30 -7 21 -11 22 -151 22 l-144 0 4 -22 c14 -67 16 -99 8 -94 -5 3
-13 31 -17 61 -4 34 -11 55 -19 55 -21 0 -27 -12 -13 -28 10 -13 9 -14 -1 -8
-11 7 -11 2 1 -20 17 -34 27 -91 33 -194 3 -41 9 -91 14 -110 5 -19 11 -47 14
-63 3 -15 7 -35 10 -45 5 -13 -4 -22 -34 -35 -22 -9 -45 -17 -50 -17 -6 0 -10
-5 -10 -12 0 -19 -43 28 -46 49 -1 10 -5 32 -9 48 -3 17 -8 64 -10 105 -2 41
-6 86 -9 99 -3 14 0 31 7 40 10 12 9 13 -2 6 -11 -6 -13 -2 -9 19 3 14 1 29
-3 32 -5 3 -9 19 -9 35 0 17 4 28 9 24 5 -3 12 -1 16 4 3 6 -3 8 -15 6 -17 -3
-20 1 -20 31 0 22 -5 34 -13 34 -15 0 -15 -1 3 -150 5 -47 12 -123 15 -170 3
-47 9 -96 12 -110 3 -14 6 -41 7 -62 1 -20 4 -34 9 -31 4 2 7 -5 7 -15 0 -15
-5 -19 -20 -15 -11 3 -20 13 -21 22 -2 41 -10 110 -18 154 -5 27 -5 50 0 53 5
3 5 13 -1 23 -6 12 -5 22 3 31 9 10 9 11 0 6 -15 -9 -18 10 -3 19 6 4 7 12 3
18 -4 7 -9 39 -10 72 -1 33 -4 76 -7 95 -2 19 -5 41 -5 48 -1 10 -36 12 -158
10 -140 -3 -156 -5 -159 -20 -1 -10 1 -18 6 -18 4 0 8 -10 7 -22 0 -13 3 -45
8 -73 4 -27 9 -81 11 -120 1 -38 3 -70 4 -70 1 0 3 -45 5 -100 3 -55 7 -140 9
-190 5 -104 -11 -85 -19 23 -3 37 -8 85 -12 107 -3 22 -7 69 -9 105 -6 105
-10 146 -18 158 -4 7 -7 54 -7 105 0 87 -9 130 -25 114 -11 -11 -7 -186 6
-257 6 -36 14 -96 16 -135 6 -91 10 -127 17 -145 3 -8 6 -28 6 -45 -1 -36 4
-62 14 -71 4 -4 7 -17 7 -30 0 -21 -18 -29 -111 -48 -8 -2 -21 -5 -29 -8 -60
-21 -100 -25 -112 -11 -14 17 -17 124 -4 120 5 -2 11 -11 13 -20 1 -9 4 -23 6
-31 1 -7 10 -24 19 -37 21 -29 23 -9 4 42 -7 20 -14 70 -15 110 -1 41 -4 89
-8 108 -5 27 -3 32 8 26 8 -5 6 1 -4 12 -15 17 -19 52 -27 219 -5 109 -9 200
-10 202 0 1 -4 2 -9 2 -6 0 -9 -41 -7 -95 1 -52 -1 -92 -5 -87 -4 4 -9 45 -11
92 l-3 85 -222 3 -223 2 -1 -47 c-1 -27 -3 -64 -5 -83 -3 -27 -4 -268 -2 -335
0 -5 -3 -57 -7 -115 -6 -83 -11 -109 -26 -125 -19 -19 -19 -19 -19 2 0 12 5
25 10 28 6 4 8 11 4 16 -3 5 -1 16 6 24 6 7 7 15 3 18 -5 3 -7 56 -5 119 4
176 1 282 -7 291 -9 9 -8 29 -16 -248 -3 -126 -10 -234 -15 -240 -10 -12 -142
13 -135 25 3 4 -6 5 -18 3 -13 -3 -28 2 -35 9 -15 18 0 74 19 70 10 -3 9 1 -3
15 -9 10 -15 31 -13 48 18 197 25 267 31 287 10 33 15 64 19 108 2 25 6 64 10
88 6 34 4 42 -9 42 -9 0 -16 -8 -17 -17 0 -10 -2 -27 -5 -38 -2 -11 -5 -30 -6
-43 -2 -15 -7 -21 -17 -17 -11 4 -11 3 -2 -9 17 -20 10 -82 -8 -78 -11 2 -12
0 -3 -11 6 -7 10 -22 8 -33 -11 -59 -30 -324 -28 -386 0 -10 -5 -18 -12 -18
-13 0 -13 53 0 195 4 39 8 120 10 180 5 150 16 221 34 217 11 -2 11 0 1 11 -6
8 -10 21 -9 28 2 11 -30 14 -165 16 -158 2 -166 1 -157 -16 5 -10 8 -20 6 -22
-2 -2 -7 -28 -10 -58 -4 -29 -9 -58 -12 -62 -9 -15 22 -10 73 12 86 37 98 42
116 46 15 2 16 0 8 -14 -7 -14 -5 -23 10 -39 l20 -21 -49 -50 c-27 -28 -79
-69 -116 -93 -36 -24 -66 -50 -67 -59 0 -9 -2 -34 -3 -56 -2 -22 -4 -60 -5
-84 -1 -42 -2 -43 -28 -37 -42 10 -47 11 -58 17 -5 3 -31 12 -57 19 -26 7 -46
16 -43 20 3 4 -1 8 -8 7 -35 -1 -48 4 -40 15 10 17 10 229 0 219 -13 -13 -21
-68 -21 -148 -1 -63 -3 -70 -18 -62 -13 7 -15 15 -7 41 5 18 9 61 9 95 0 70
-3 72 -69 53 -76 -22 -12 6 106 47 70 23 131 47 136 52 5 5 -6 20 -27 36 -33
25 -41 27 -93 21 l-58 -7 68 66 67 65 -60 0 -60 0 -47 -70z m2487 -174 c6 -32
9 -60 7 -63 -4 -4 -22 59 -32 113 -2 11 -4 19 -6 19 -2 0 -7 26 -14 75 -7 53
33 -73 45 -144z m-1310 146 c0 -20 -66 -122 -80 -122 -14 0 -50 51 -50 71 0
13 12 22 38 29 20 6 46 17 56 25 26 20 36 19 36 -3z m1030 -189 c0 -45 -8 -40
-13 10 -2 20 0 34 4 31 5 -3 9 -21 9 -41z m-2276 -25 c-4 -7 -15 -24 -25 -38
-9 -14 -32 -53 -50 -85 -47 -88 -67 -108 -120 -119 -53 -12 -168 -59 -173 -72
-4 -11 0 -11 27 1 87 37 139 56 148 53 5 -2 -49 -28 -119 -57 -70 -30 -164
-77 -210 -103 -46 -26 -87 -48 -91 -48 -4 0 -20 -13 -36 -30 -27 -28 -29 -29
-58 -13 l-31 15 30 16 c16 9 35 17 42 18 8 1 21 9 30 18 10 8 20 15 25 15 4 1
24 8 45 17 20 9 43 18 50 20 7 1 20 8 28 15 13 10 11 17 -17 45 l-31 32 20 29
c35 48 76 82 157 128 43 25 80 43 82 41 5 -4 -75 -58 -110 -73 -38 -17 -117
-93 -117 -113 0 -9 11 -27 24 -40 25 -22 25 -22 60 -4 20 11 82 62 138 115
122 113 137 124 115 83 -27 -51 -38 -94 -23 -94 24 0 69 54 126 148 30 51 59
92 63 92 5 0 5 -6 1 -12z m2669 -34 c56 -26 53 -26 -35 2 -32 11 -58 23 -58
27 0 10 28 2 93 -29z m205 -79 c39 -16 70 -30 67 -33 -2 -3 -44 11 -92 30 -49
20 -96 38 -105 42 -10 3 -18 10 -18 16 0 6 16 2 38 -8 20 -11 70 -32 110 -47z
m-575 -12 c3 -16 2 -32 -3 -36 -4 -5 -10 7 -12 27 -5 42 7 49 15 9z m-804
-115 c1 -38 -2 -68 -7 -68 -5 0 -10 39 -10 88 -1 101 14 84 17 -20z m-1404 64
c-6 -5 -37 -17 -70 -27 -33 -10 -84 -26 -113 -37 -29 -10 -60 -18 -69 -18 -30
0 0 18 57 34 30 8 80 24 110 35 56 21 102 28 85 13z m2270 -1 c3 -6 -4 -8 -16
-6 -30 6 -37 15 -11 15 11 0 23 -4 27 -9z m10 -32 c33 -11 76 -24 95 -30 65
-20 101 -40 93 -52 -4 -7 0 -6 10 2 14 11 20 11 32 1 8 -7 15 -9 15 -5 0 4 6
3 13 -2 6 -6 25 -13 42 -17 16 -4 36 -13 43 -19 7 -6 25 -12 39 -13 14 -2 34
-11 44 -20 11 -10 29 -18 42 -20 12 -1 49 -15 82 -30 33 -16 63 -29 66 -29 3
0 26 -11 52 -24 49 -25 60 -41 30 -41 -10 0 -31 -7 -47 -15 -16 -9 -36 -13
-43 -11 -7 3 -12 0 -10 -6 1 -6 -4 -13 -12 -16 -8 -2 -11 0 -7 6 3 6 2 13 -3
16 -5 4 -12 2 -15 -3 -4 -5 -1 -13 5 -17 8 -5 7 -9 -2 -15 -15 -9 -42 9 -33
22 3 5 2 9 -3 8 -22 -5 -158 66 -158 83 0 8 -9 12 -22 10 -12 -2 -39 5 -60 14
-21 10 -40 18 -43 19 -35 9 -58 20 -74 34 -10 9 -21 15 -25 13 -9 -5 -90 31
-86 38 2 3 -4 6 -14 7 -32 3 -93 32 -86 43 3 5 0 8 -7 5 -7 -3 -42 6 -77 19
l-64 23 49 25 c27 14 56 24 64 21 8 -3 42 -14 75 -24z m-2216 6 c16 -8 39 -16
52 -19 31 -5 79 -24 79 -30 0 -3 -39 -23 -87 -46 -49 -23 -97 -47 -108 -53
-11 -6 -60 -32 -110 -58 -49 -25 -116 -61 -149 -78 -64 -34 -70 -36 -60 -19 4
7 3 8 -5 4 -6 -4 -9 -11 -6 -16 4 -7 -36 -37 -80 -60 -33 -17 -95 -64 -95 -72
0 -5 12 -1 28 9 43 29 64 40 117 68 54 27 67 35 133 78 24 16 50 30 57 31 8 1
22 10 33 19 10 9 25 17 33 17 8 0 19 4 25 10 20 20 307 160 316 154 9 -6 -33
-29 -122 -68 -88 -39 -453 -251 -580 -338 -11 -7 -26 -5 -55 8 -22 9 -42 18
-45 18 -3 1 -25 15 -50 32 -25 17 -58 38 -75 47 -60 33 -62 35 -40 52 25 20
100 59 101 54 1 -2 10 3 20 12 37 33 230 113 246 103 6 -4 8 -2 5 3 -7 10 82
53 110 53 7 0 32 9 53 20 22 11 40 18 40 14 0 -4 7 -1 15 6 12 10 18 10 30 0
13 -11 14 -10 10 2 -4 11 8 18 50 28 31 7 58 17 61 22 7 12 21 10 53 -7z
m2248 9 c-3 -3 -12 -4 -19 -1 -8 3 -5 6 6 6 11 1 17 -2 13 -5z m-252 -24 c3
-5 1 -10 -4 -10 -6 0 -11 5 -11 10 0 6 2 10 4 10 3 0 8 -4 11 -10z m325 0 c0
-5 -2 -10 -4 -10 -3 0 -8 5 -11 10 -3 6 -1 10 4 10 6 0 11 -4 11 -10z m660
-12 c0 -6 -6 -5 -15 2 -8 7 -15 14 -15 16 0 2 7 1 15 -2 8 -4 15 -11 15 -16z
m-620 2 c0 -5 -4 -10 -9 -10 -6 0 -13 5 -16 10 -3 6 1 10 9 10 9 0 16 -4 16
-10z m35 -10 c3 -5 2 -10 -4 -10 -5 0 -13 5 -16 10 -3 6 -2 10 4 10 5 0 13 -4
16 -10z m620 0 c3 -6 -1 -7 -9 -4 -18 7 -21 14 -7 14 6 0 13 -4 16 -10z m-907
-44 c25 -13 138 -66 187 -87 11 -4 46 -20 79 -34 32 -14 64 -25 71 -25 7 0 18
-7 25 -15 7 -8 18 -14 24 -14 13 3 46 -10 65 -25 7 -5 19 -11 25 -12 7 -1 31
-14 54 -28 23 -14 47 -26 53 -26 16 0 61 -38 52 -43 -13 -7 -44 0 -61 16 -22
18 -123 79 -137 81 -5 2 -27 10 -49 19 -21 9 -40 17 -41 17 -1 0 -20 8 -41 17
-22 9 -41 17 -44 18 -3 1 -57 26 -120 57 -63 31 -148 69 -187 84 -40 16 -73
32 -73 36 0 8 82 -17 118 -36z m432 -1 c0 2 21 -5 48 -16 26 -11 56 -24 67
-28 11 -5 31 -13 45 -19 14 -6 43 -18 65 -28 22 -9 69 -30 105 -48 36 -17 67
-31 70 -31 3 0 14 -6 25 -13 17 -10 18 -13 5 -21 -11 -8 -22 -4 -40 13 -22 20
-73 47 -145 76 -11 4 -47 20 -80 35 -33 15 -82 35 -110 45 -27 9 -80 28 -117
41 -38 12 -68 26 -68 30 0 3 29 -4 65 -16 36 -13 65 -22 65 -20z m525 25 c3
-5 1 -10 -4 -10 -6 0 -11 5 -11 10 0 6 2 10 4 10 3 0 8 -4 11 -10z m122 -54
c37 -18 86 -39 108 -46 33 -11 37 -14 20 -20 -13 -5 -29 -1 -45 10 -31 21
-154 80 -168 80 -6 0 -14 5 -18 11 -9 15 19 6 103 -35z m-4367 -41 c0 -2 -11
-15 -25 -29 -19 -19 -26 -21 -34 -12 -6 7 -7 16 -3 20 4 4 3 7 -3 6 -28 -6
-38 0 -25 15 7 8 15 13 19 11 4 -3 13 -1 21 4 12 8 50 -4 50 -15z m1683 -2 c7
-6 3 -9 -85 -57 -29 -15 -60 -34 -69 -42 -8 -8 -20 -14 -26 -14 -6 0 -16 -7
-24 -16 -7 -8 -29 -24 -48 -35 -20 -11 -56 -35 -81 -54 -25 -19 -72 -48 -104
-65 -33 -17 -62 -34 -65 -38 -4 -4 -17 -13 -31 -20 -78 -40 -115 -63 -140 -87
-27 -26 -30 -26 -51 -11 -13 9 -18 16 -11 16 8 0 28 10 45 23 39 27 58 39 122
73 28 14 58 33 68 42 9 8 20 12 23 9 4 -3 17 7 31 24 14 16 30 29 37 29 7 0
23 11 35 24 21 22 65 42 83 38 5 -1 7 3 5 10 -1 6 9 18 23 25 14 8 43 25 65
38 54 31 177 95 185 95 4 0 10 -3 13 -7z m107 -29 c66 -18 82 -22 95 -24 6 0
-11 -11 -37 -24 -26 -12 -53 -27 -60 -33 -7 -5 -29 -16 -48 -24 -19 -7 -57
-28 -84 -46 -27 -18 -53 -30 -57 -28 -4 3 -9 -1 -12 -9 -3 -7 -50 -41 -105
-74 -101 -61 -195 -132 -244 -184 -26 -28 -76 -41 -62 -15 5 9 4 9 -5 1 -10
-9 -30 -7 -84 8 -40 11 -74 22 -77 25 -6 5 52 52 66 53 6 0 46 23 88 50 42 28
82 50 89 50 7 0 35 17 63 38 70 52 93 64 106 56 6 -4 8 -3 5 3 -6 10 26 43 43
43 6 0 10 5 10 10 0 6 8 13 18 17 9 3 30 16 47 27 37 26 167 95 180 95 6 1 35
-6 65 -15z m1087 -20 c26 -8 54 -17 61 -19 7 -3 16 -5 20 -6 4 0 13 -6 21 -12
11 -10 58 -30 96 -41 6 -2 28 -11 50 -21 22 -9 50 -21 63 -26 13 -5 20 -13 17
-19 -3 -5 0 -7 9 -4 8 3 32 -6 55 -20 22 -14 45 -26 50 -26 20 0 60 -23 55
-31 -3 -5 2 -6 11 -3 8 3 35 -3 60 -15 25 -12 48 -21 52 -21 3 0 15 -8 25 -17
11 -9 27 -18 36 -20 42 -9 72 -23 72 -35 0 -5 -10 -8 -22 -7 -13 2 -29 0 -35
-4 -16 -10 -35 1 -27 15 4 6 2 8 -3 5 -6 -4 -21 1 -34 11 -24 17 -192 102
-203 102 -18 0 -136 62 -136 72 0 6 -3 8 -7 5 -3 -4 -17 0 -31 9 -13 9 -49 24
-79 35 -31 10 -61 23 -67 28 -6 4 -29 14 -51 20 -22 7 -47 15 -55 18 -8 4 -17
7 -20 8 -24 8 -40 19 -40 26 0 12 1 12 57 -7z m-45 -26 c24 -13 49 -23 57 -25
25 -3 176 -68 183 -78 4 -5 8 -7 8 -3 0 4 26 -8 58 -26 31 -18 68 -37 82 -41
14 -4 63 -26 110 -48 47 -23 88 -41 92 -41 4 -1 13 -7 20 -13 6 -7 17 -13 22
-13 11 -1 56 -35 56 -43 0 -5 -153 -25 -250 -31 -39 -3 -50 1 -80 29 -19 18
-73 59 -120 90 -47 31 -96 67 -110 79 -14 12 -36 27 -50 33 -14 6 -59 27 -102
47 -42 20 -84 38 -95 40 -10 3 -31 10 -48 16 l-30 12 65 18 c87 23 83 23 132
-2z m-921 -1 c-6 -8 -41 -29 -78 -48 -38 -18 -87 -46 -110 -61 -23 -15 -46
-28 -51 -28 -5 0 -15 -7 -22 -15 -7 -8 -16 -13 -20 -10 -5 3 -10 1 -12 -3 -1
-5 -25 -24 -53 -43 -87 -59 -128 -92 -213 -168 -70 -63 -86 -72 -103 -65 -20
9 -17 14 38 65 64 59 134 107 228 158 33 18 71 43 85 55 35 31 68 51 195 117
114 60 135 68 116 46z m746 -42 c20 -8 33 -18 30 -21 -3 -3 -12 -2 -19 2 -7 5
-29 14 -48 20 -19 7 -27 12 -17 13 10 1 34 -6 54 -14z m73 -31 c0 -2 -7 -4
-15 -4 -8 0 -15 4 -15 10 0 5 7 7 15 4 8 -4 15 -8 15 -10z m1504 1 c10 -8 22
-12 26 -10 10 6 35 -24 26 -32 -3 -3 -28 6 -54 20 -27 15 -53 23 -57 19 -5 -4
-5 -1 -1 6 9 16 36 15 60 -3z m-74 -4 c0 -5 14 -14 31 -20 17 -6 28 -15 24
-21 -4 -6 1 -7 10 -3 13 4 16 1 13 -13 -2 -10 -8 -19 -13 -20 -6 0 -17 -3 -25
-7 -8 -3 -37 -12 -64 -21 -45 -15 -50 -15 -65 2 -16 17 -28 22 -71 28 -20 3
-19 1 9 -12 18 -8 39 -21 47 -28 10 -11 9 -15 -11 -24 -18 -8 -26 -8 -34 2 -6
7 -7 16 -3 20 4 4 3 7 -3 5 -5 -1 -22 4 -37 11 -26 12 -27 14 -9 24 64 36 85
45 95 39 6 -3 7 -2 3 3 -5 5 13 16 40 25 58 21 63 22 63 10z m-3872 -10 c10
-6 10 -10 -3 -21 -17 -14 -20 -30 -5 -30 6 0 10 7 10 16 0 12 7 15 33 11 39
-6 148 -59 166 -81 7 -9 19 -16 26 -16 26 0 34 -24 15 -48 -14 -17 -23 -21
-37 -14 -10 5 -54 28 -98 50 -174 87 -186 98 -147 128 20 16 23 16 40 5z
m2487 -11 c3 -5 2 -10 -4 -10 -5 0 -13 5 -16 10 -3 6 -2 10 4 10 5 0 13 -4 16
-10z m60 -31 c17 -10 41 -24 55 -30 14 -6 33 -18 42 -26 10 -9 18 -13 18 -9 0
5 15 -5 34 -20 32 -28 94 -67 108 -68 4 -1 25 -18 47 -38 21 -21 44 -38 50
-38 6 0 11 -4 11 -10 0 -19 -20 -10 -81 38 -34 26 -93 64 -131 85 -68 36 -126
74 -178 116 -32 26 -15 26 25 0z m-524 -34 c31 -10 22 -24 -10 -15 -19 5 -33
4 -40 -3 -13 -13 -208 -119 -261 -142 -19 -8 -42 -19 -50 -24 -52 -34 -132
-81 -136 -81 -3 0 -2 6 2 13 4 7 3 9 -2 4 -5 -5 -9 -12 -9 -17 0 -9 -71 -60
-82 -60 -4 0 -16 -9 -28 -20 -14 -13 -28 -18 -39 -14 -16 6 -16 8 0 25 30 33
174 120 186 113 7 -4 8 -3 4 4 -6 11 41 36 244 131 71 33 91 45 132 78 27 21
44 22 89 8z m124 -45 c79 -26 98 -37 88 -54 -4 -7 -2 -7 7 1 10 9 21 8 50 -7
20 -10 42 -26 49 -34 7 -9 16 -14 20 -12 3 3 33 -13 65 -35 32 -21 60 -39 63
-39 3 0 18 -11 35 -25 16 -14 36 -25 44 -25 8 0 14 -4 14 -8 0 -6 -148 -57
-157 -54 -2 0 -17 -4 -35 -9 -36 -11 -172 -47 -202 -54 -11 -3 -27 1 -35 8
-14 11 -14 10 -2 -5 12 -16 11 -18 -5 -18 -11 0 -25 -4 -32 -9 -10 -6 -7 -10
12 -13 14 -3 23 -2 21 2 -3 4 41 20 98 35 56 15 127 34 157 43 65 18 56 16
100 26 19 5 41 13 48 19 10 8 20 7 35 -3 21 -12 21 -12 7 5 -13 17 -13 18 1
13 9 -4 22 -1 28 5 9 9 11 8 5 -6 -4 -12 2 -25 21 -42 28 -27 29 -48 2 -53
-12 -2 -17 4 -17 20 -1 17 -11 28 -37 40 -36 17 -61 16 -34 -1 7 -5 11 -13 7
-19 -3 -6 2 -8 13 -5 13 3 20 -2 24 -18 8 -29 9 -28 -110 -63 -54 -15 -105
-31 -113 -34 -17 -6 -34 -11 -52 -15 -7 -1 -18 -6 -24 -9 -6 -4 -58 -18 -115
-32 -74 -17 -125 -24 -179 -21 -95 3 -223 25 -232 39 -5 8 -8 7 -8 -1 0 -7 -6
-11 -12 -8 -7 2 -31 6 -53 9 -22 3 -67 10 -100 17 -33 6 -71 12 -85 14 -14 2
-27 4 -30 6 -3 1 -9 3 -15 4 -130 21 -135 23 -135 40 0 8 8 19 18 24 16 10 16
10 -1 11 -11 0 -15 4 -11 12 4 7 3 8 -5 4 -6 -4 -9 -12 -6 -17 4 -5 0 -16 -9
-24 -16 -17 -30 -20 -21 -6 3 5 0 13 -6 17 -7 4 -9 3 -5 -4 8 -13 -10 -26 -24
-17 -13 8 -3 28 21 43 17 11 20 11 13 0 -4 -7 1 -5 12 4 20 18 64 15 64 -4 0
-7 5 -6 13 1 8 6 16 9 19 6 3 -3 36 -8 74 -10 197 -15 216 -17 334 -40 39 -8
131 -23 173 -29 21 -4 37 -2 37 4 0 6 -12 10 -26 10 -17 0 -23 4 -18 13 6 9 4
9 -8 -1 -8 -7 -22 -10 -29 -7 -18 6 -53 12 -171 32 -61 10 -95 19 -91 26 4 6
1 7 -8 2 -16 -11 -100 -6 -114 5 -6 5 -17 5 -24 0 -14 -8 -23 -7 -101 6 l-35
6 37 22 c21 12 47 31 58 41 11 10 20 15 20 10 0 -4 15 4 33 18 19 14 72 45
118 70 46 24 102 54 124 66 22 13 65 37 95 54 30 16 62 36 71 44 20 17 48 8
189 -63 128 -64 212 -118 202 -129 -4 -5 -2 -5 5 -1 6 3 27 -3 45 -14 18 -11
44 -25 58 -31 13 -5 28 -15 32 -22 4 -6 11 -8 15 -3 4 4 -2 15 -14 24 -44 34
-78 57 -83 57 -3 0 -30 16 -60 35 -62 40 -93 57 -215 119 -47 24 -85 45 -85
48 0 3 6 3 13 0 6 -2 44 -15 82 -27z m1465 16 c0 -2 -7 -7 -16 -10 -8 -3 -12
-2 -9 4 6 10 25 14 25 6z m-3300 -66 c0 -3 -9 -16 -20 -30 -18 -24 -20 -24
-37 -7 -17 17 -17 19 -2 30 17 13 59 18 59 7z m115 -40 c3 -5 2 -10 -4 -10 -5
0 -13 5 -16 10 -3 6 -2 10 4 10 5 0 13 -4 16 -10z m2974 -39 c24 -13 24 -14 6
-27 -16 -12 -21 -12 -35 1 -9 8 -28 16 -43 17 -15 1 -28 7 -30 13 -6 15 73 12
102 -4z m-122 -7 c13 -4 21 -10 18 -14 -3 -5 0 -12 6 -16 8 -4 9 -3 5 4 -10
17 25 14 48 -3 11 -8 17 -16 13 -16 -18 -4 -24 -6 -44 -17 -13 -7 -23 -10 -23
-6 0 3 -6 2 -12 -4 -7 -5 -29 -13 -48 -16 -33 -5 -100 -18 -162 -32 -21 -5
-28 -2 -28 8 0 8 -9 23 -20 33 -11 10 -17 21 -15 25 4 7 -9 7 -33 1 -2 -1 8
-16 22 -34 32 -41 32 -49 4 -45 -13 2 -24 11 -26 22 -2 10 -16 29 -30 41 -15
13 -25 25 -22 28 3 2 46 7 95 11 50 3 101 9 115 12 40 8 105 22 110 23 3 0 15
-2 27 -5z m-2621 -35 c3 -5 -2 -9 -10 -9 -8 0 -24 -12 -35 -26 -16 -20 -26
-25 -46 -20 -33 8 -32 19 6 49 30 23 72 26 85 6z m104 -31 c34 -10 97 -26 124
-33 l29 -6 -22 -23 c-11 -12 -21 -30 -21 -39 0 -9 -5 -17 -11 -17 -12 0 -143
36 -169 47 -19 8 -20 8 -52 17 -16 5 -28 11 -28 16 0 14 39 42 49 35 6 -3 11
-1 11 5 0 11 48 10 90 -2z m2591 -30 c2 -31 5 -61 9 -73 1 -5 2 -13 1 -17 0
-3 8 -33 19 -64 33 -101 13 -76 -33 41 -34 87 -40 117 -26 126 22 14 29 11 30
-13z m-2393 -14 l23 -7 -21 -22 c-12 -12 -22 -32 -23 -43 0 -11 -5 -18 -9 -16
-5 3 -5 11 -2 17 5 8 3 8 -7 0 -32 -30 -40 1 -12 48 19 32 18 31 51 23z m1862
-54 c0 -5 -5 -10 -11 -10 -5 0 -7 5 -4 10 3 6 8 10 11 10 2 0 4 -4 4 -10z m40
6 c0 -2 -7 -6 -15 -10 -8 -3 -15 -1 -15 4 0 6 7 10 15 10 8 0 15 -2 15 -4z
m-76 -16 c-5 -5 -25 -12 -44 -15 -35 -5 -35 -5 5 9 50 18 51 18 39 6z m-1994
-43 c0 -18 -2 -19 -10 -7 -13 20 -13 43 0 35 6 -3 10 -16 10 -28z m2095 4 c3
-5 0 -13 -6 -16 -5 -4 -8 -13 -5 -20 3 -8 -2 -19 -9 -25 -8 -7 -12 -17 -8 -24
3 -6 0 -6 -7 1 -12 11 -11 15 6 28 10 8 15 15 10 15 -6 0 -20 -10 -32 -21 -46
-43 -162 -97 -209 -97 -20 0 -38 -2 -41 -5 -3 -2 -26 0 -52 5 -26 5 -65 11
-87 14 -22 2 -57 10 -79 16 l-38 12 37 13 c44 15 62 8 43 -15 -12 -15 -11 -16
4 -3 10 7 16 17 13 21 -2 4 6 12 19 18 20 9 27 7 40 -7 9 -10 13 -22 9 -27 -4
-5 -2 -4 6 3 8 7 23 8 40 3 14 -4 38 -6 52 -4 28 2 99 60 99 80 0 13 23 20
104 30 37 5 47 3 41 -7 -5 -8 -4 -10 4 -5 6 4 9 12 6 17 -4 5 3 9 14 9 11 0
22 -4 26 -9z m-2595 -4 c0 -2 -17 -19 -37 -38 -24 -21 -30 -25 -18 -9 26 33
55 58 55 47z m957 -23 c-3 -3 -12 -4 -19 -1 -8 3 -5 6 6 6 11 1 17 -2 13 -5z
m1414 -23 c-15 -26 -56 -51 -87 -51 -22 0 -25 2 -14 15 7 8 19 15 26 15 8 0
14 6 14 14 0 14 18 23 53 25 14 1 16 -3 8 -18z m-2367 -26 c-9 -14 -19 -23
-22 -20 -5 4 26 45 35 45 2 0 -4 -11 -13 -25z m2286 20 c0 -11 -64 -33 -79
-27 -11 4 -3 10 24 18 47 15 55 16 55 9z m-2014 -64 c-5 -35 -3 -39 14 -36 16
3 20 -2 20 -22 l0 -26 -25 23 c-15 14 -23 31 -20 44 2 12 4 29 4 39 1 9 4 17
7 17 3 0 3 -18 0 -39z m1739 -29 c-3 -3 -11 0 -18 7 -9 10 -8 11 6 5 10 -3 15
-9 12 -12z m-1501 -17 c3 -8 1 -15 -4 -15 -6 0 -10 7 -10 15 0 8 2 15 4 15 2
0 6 -7 10 -15z m1026 -2 c0 -22 -42 -83 -53 -76 -6 3 -7 1 -3 -6 4 -6 2 -18
-4 -26 -10 -12 -9 -15 4 -15 10 0 15 4 12 8 -2 4 4 18 13 31 16 20 19 21 24 7
5 -12 3 -15 -6 -10 -6 4 -9 4 -5 -1 4 -4 3 -14 -4 -22 -6 -7 -9 -16 -6 -18 5
-5 58 69 58 79 0 3 -8 3 -17 -1 -14 -5 -15 -3 -6 7 6 7 9 18 7 25 -7 18 15 30
29 16 8 -8 7 -11 -2 -11 -11 0 -11 -3 0 -17 12 -14 12 -16 0 -8 -9 5 -12 4 -7
-3 3 -6 -5 -35 -19 -63 -14 -29 -25 -60 -24 -68 0 -9 11 7 24 34 31 65 48 108
46 118 -2 13 30 20 40 10 12 -12 -23 -77 -36 -65 -5 4 -5 2 -1 -5 7 -13 -8
-45 -38 -80 -11 -13 -15 -23 -10 -23 14 0 44 44 79 113 l28 57 63 0 c62 0 63
0 58 -26 -3 -15 -1 -23 5 -20 5 4 12 2 15 -3 4 -5 -2 -8 -11 -7 -10 2 -23 12
-29 24 -6 12 -14 19 -17 16 -10 -11 23 -65 35 -58 6 4 8 3 5 -3 -4 -6 2 -28
13 -49 21 -42 26 -30 11 24 -6 19 -6 32 0 32 5 0 11 -11 15 -24 3 -14 14 -32
24 -41 18 -17 19 -16 14 11 -3 15 -7 31 -10 36 -3 4 -7 16 -9 25 -2 10 -6 30
-10 46 -6 21 -4 27 9 27 11 0 15 -7 12 -22 -1 -12 10 -44 26 -71 15 -26 28
-52 28 -57 0 -17 53 -59 82 -65 15 -4 30 -10 33 -15 5 -9 -52 -3 -104 10 -19
5 -37 7 -40 4 -3 -2 16 -26 41 -52 47 -48 98 -134 98 -164 0 -9 5 -20 11 -24
30 -18 -34 138 -77 187 -13 14 -9 16 28 15 59 0 91 7 106 22 11 10 17 9 30 -6
9 -10 13 -12 8 -5 -9 14 5 18 18 6 4 -5 11 -8 14 -9 4 0 14 -3 22 -6 8 -3 38
-14 65 -24 54 -20 135 -26 174 -12 15 6 29 4 40 -4 14 -11 14 -11 4 3 -11 14
-8 17 25 27 21 7 66 30 100 52 34 22 81 49 103 61 l42 21 -7 -29 c-12 -52 -13
-73 -5 -73 4 0 9 6 11 12 3 7 7 2 10 -10 7 -26 -35 -84 -55 -76 -7 2 -36 -28
-66 -68 -52 -70 -52 -72 -15 -38 78 71 107 95 102 85 -20 -37 -70 -151 -73
-165 -2 -10 -8 -34 -14 -55 -6 -22 -6 -45 -1 -58 8 -21 9 -20 9 6 1 15 5 27
10 27 5 0 12 11 15 24 7 28 82 108 117 125 13 7 -4 -15 -39 -48 -34 -34 -60
-61 -57 -61 3 0 30 18 60 40 30 22 55 38 55 36 0 -11 -49 -135 -66 -167 -10
-19 -19 -39 -20 -45 -4 -22 -38 -90 -73 -144 -20 -31 -41 -64 -47 -74 -22 -41
-46 -28 -124 71 -41 52 -79 97 -85 99 -11 5 -43 -11 -165 -84 -66 -39 -100
-47 -84 -20 4 6 2 8 -3 5 -6 -4 -50 29 -97 73 -95 88 -89 87 -161 36 l-30 -21
22 29 c13 15 20 32 17 37 -6 10 -73 -15 -89 -33 -7 -7 -7 -9 0 -6 43 21 77 30
69 17 -3 -5 -9 -7 -14 -4 -5 3 -23 -15 -41 -39 -17 -25 -49 -56 -69 -70 l-38
-25 10 37 c6 20 15 46 20 56 6 11 10 105 10 224 l0 205 28 -44 c36 -57 80 -99
80 -76 0 9 -4 19 -10 22 -5 3 -10 14 -10 24 0 10 -7 24 -15 31 -12 10 -15 10
-15 0 0 -10 -3 -10 -14 -1 -16 13 -49 101 -41 109 4 5 20 -29 38 -81 4 -10 11
-16 17 -12 11 7 28 -3 118 -63 36 -24 66 -41 68 -39 4 4 -117 101 -126 102
-17 1 -80 47 -80 59 0 8 -7 22 -16 31 -13 12 -14 19 -4 30 7 8 10 15 6 15 -3
0 -9 0 -13 0 -5 0 -8 -3 -8 -7 -1 -5 -11 -26 -22 -49 -16 -30 -40 -52 -91 -83
-37 -22 -73 -41 -79 -41 -5 0 -18 -9 -28 -20 -15 -17 -16 -20 -3 -20 9 0 21 7
28 15 7 8 37 27 67 42 30 16 70 43 89 62 19 19 34 30 34 24 0 -5 -2 -12 -5
-15 -3 -2 -6 -92 -7 -200 -2 -156 -6 -199 -18 -213 -12 -15 -12 -17 -1 -10 11
6 13 4 7 -11 -4 -10 -11 -38 -16 -62 -4 -24 -10 -46 -14 -49 -6 -7 -8 -5 -146
99 -56 43 -105 78 -110 78 -5 0 -27 -18 -51 -40 -23 -21 -47 -36 -52 -33 -6 3
-7 1 -4 -4 4 -6 -26 -40 -66 -76 l-73 -65 -60 31 c-33 18 -89 45 -124 62 -36
16 -74 36 -85 44 -11 9 -17 12 -12 7 9 -12 -33 -57 -46 -49 -6 3 -7 1 -4 -4 4
-6 -3 -21 -16 -35 -12 -13 -35 -41 -51 -62 l-28 -38 -32 50 c-17 27 -43 68
-58 91 -31 45 -34 56 -15 45 6 -4 9 -4 5 0 -3 4 -9 7 -13 6 -19 -3 -133 178
-127 202 1 4 -6 22 -16 40 -10 18 -19 49 -20 68 -2 30 -1 33 11 20 19 -20 127
-198 127 -208 0 -4 6 -17 14 -28 13 -17 14 -15 9 21 -2 22 -9 58 -15 80 -5 22
-11 52 -12 67 -1 14 -7 32 -13 40 -13 15 -53 94 -53 103 0 4 21 -12 47 -34 33
-28 51 -37 58 -30 7 7 5 14 -5 22 -14 11 -41 49 -84 120 -18 29 -18 29 6 22
12 -4 27 -11 33 -16 5 -5 16 -9 25 -9 8 0 28 -7 43 -15 15 -8 25 -10 22 -5 -4
6 -2 10 4 10 5 0 13 -5 16 -10 4 -6 17 -9 30 -7 41 5 38 14 -6 21 -32 5 -53
18 -86 51 -47 49 -60 75 -15 32 21 -21 108 -68 132 -72 3 0 37 -11 77 -24 55
-17 90 -21 151 -19 44 2 78 6 76 10 -2 3 17 11 43 17 68 16 67 16 78 22 10 6
79 30 103 36 26 6 38 10 65 21 61 25 71 2 25 -58 -12 -15 -15 -26 -9 -28 6 -2
11 -8 11 -14 0 -6 -6 -8 -14 -5 -19 8 -49 -36 -34 -51 6 -6 6 -12 -3 -17 -8
-5 -10 -4 -5 3 4 7 3 12 -2 12 -14 0 -33 -48 -21 -55 5 -4 6 -11 3 -17 -4 -7
-2 -8 5 -4 6 4 8 12 5 18 -4 6 -1 16 7 22 8 6 25 27 38 46 37 54 73 90 84 83
6 -3 7 -1 4 4 -4 6 0 13 8 17 8 3 15 10 15 16 0 6 -20 -5 -45 -26 -25 -20 -45
-32 -45 -26 0 17 51 73 61 67 5 -4 6 1 3 9 -9 23 35 148 49 140 9 -5 8 -3 0 6
-17 18 1 49 27 47 11 -1 20 -7 20 -14z m-1646 -4 c-8 -14 -115 -82 -120 -76
-3 3 113 84 124 86 2 1 0 -4 -4 -10z m1934 -64 c-3 -3 -9 2 -12 12 -6 14 -5
15 5 6 7 -7 10 -15 7 -18z m-1315 -135 c-6 -6 -33 30 -33 44 0 6 9 0 20 -14
10 -14 16 -27 13 -30z m93 -17 c-6 -6 -76 28 -76 36 0 5 18 0 39 -12 22 -12
38 -23 37 -24z m-66 -48 c1 -5 -3 -11 -8 -13 -13 -4 -75 75 -67 87 6 10 71
-55 75 -74z m1527 39 c-6 -7 -57 18 -57 27 0 4 14 1 31 -8 16 -8 28 -17 26
-19z m836 -89 c4 -60 4 -65 -6 -35 -9 30 -11 32 -15 12 -4 -26 53 -145 105
-217 l35 -50 -50 55 c-28 30 -69 90 -90 132 -38 72 -39 78 -23 95 17 20 20 29
23 68 4 45 15 11 21 -60z m-2321 3 l23 -33 -33 23 c-31 23 -42 42 -23 42 5 0
20 -15 33 -32z m-27 -73 c15 -38 31 -79 36 -90 16 -39 28 -95 18 -90 -5 4 -9
12 -9 20 0 7 -9 30 -20 52 -18 36 -70 177 -70 191 0 16 20 -20 45 -83z m2281
-68 c1 -87 0 -90 -13 -59 -14 33 -17 65 -11 92 6 23 19 60 21 60 1 0 2 -42 3
-93z m1174 -51 c0 -5 -69 -46 -76 -46 -14 0 11 22 39 34 39 18 37 17 37 12z
m-1155 -56 c3 -5 1 -10 -4 -10 -6 0 -11 5 -11 10 0 6 2 10 4 10 3 0 8 -4 11
-10z m-2825 -170 c0 -5 -8 -10 -17 -10 -15 0 -16 2 -3 10 19 12 20 12 20 0z
m110 -56 c0 -8 -111 -57 -116 -51 -6 6 27 26 71 43 36 14 45 16 45 8z m2603
-28 c15 -22 15 -24 -2 -29 -14 -3 -18 2 -19 24 -1 35 1 36 21 5z m-2108 -53
c-1 -13 4 -28 11 -34 18 -15 19 -56 2 -42 -7 6 -26 13 -41 17 -19 4 -25 11
-20 19 4 7 8 17 8 22 1 6 5 28 9 49 9 38 9 38 21 15 7 -12 12 -33 10 -46z
m2026 4 l-20 -21 17 38 c12 26 18 33 20 21 2 -10 -5 -27 -17 -38z m46 33 c1
-11 -2 -22 -8 -25 -10 -7 -13 28 -2 38 9 9 9 10 10 -13z m-2134 -17 c-3 -10
-10 -24 -16 -30 -6 -9 -6 -13 2 -13 6 0 11 -4 11 -10 0 -5 -9 -10 -19 -10 -11
0 -23 5 -26 10 -3 6 -2 10 4 10 6 0 17 14 26 30 17 33 28 40 18 13z m-564 -17
c-2 -2 -22 -7 -43 -10 -47 -8 -42 3 6 13 31 7 46 6 37 -3z m671 -31 c-3 0 3
-11 13 -25 9 -13 17 -28 17 -33 0 -11 -25 -3 -26 9 0 5 -6 22 -12 37 -15 36
-15 58 0 32 7 -11 10 -20 8 -20z m2198 -15 c7 0 12 -5 12 -11 0 -5 -5 -7 -12
-3 -7 5 -8 3 -4 -5 5 -7 14 -10 22 -7 12 5 12 2 3 -15 -12 -23 -7 -35 10 -24
6 3 9 11 6 16 -4 5 -1 9 4 9 6 0 11 -4 11 -10 0 -5 14 -25 31 -45 l31 -35 -26
0 c-14 0 -29 -1 -33 -1 -8 -2 -17 12 -58 80 -11 18 -30 46 -42 61 -32 39 -29
49 5 17 15 -15 33 -27 40 -27z"/>
<path d="M3597 2673 c-41 -21 -46 -26 -37 -43 17 -32 29 -32 55 -3 23 26 41
62 33 67 -1 1 -24 -9 -51 -21z"/>
<path d="M4896 2162 c-3 -5 1 -9 9 -9 8 0 12 4 9 9 -3 4 -7 8 -9 8 -2 0 -6 -4
-9 -8z"/>
<path d="M4980 2167 c0 -2 6 -10 14 -16 11 -9 16 -9 22 1 4 7 4 10 -1 6 -4 -4
-14 -3 -22 3 -7 6 -13 9 -13 6z"/>
<path d="M5195 2111 c-3 -5 -2 -12 3 -15 5 -3 9 1 9 9 0 17 -3 19 -12 6z"/>
<path d="M2556 2201 c-4 -5 -2 -12 3 -15 5 -4 12 -2 15 3 4 5 2 12 -3 15 -5 4
-12 2 -15 -3z"/>
<path d="M2145 2111 c-3 -5 -2 -12 3 -15 5 -3 9 1 9 9 0 17 -3 19 -12 6z"/>
<path d="M1936 1938 c3 -5 10 -6 15 -3 13 9 11 12 -6 12 -8 0 -12 -4 -9 -9z"/>
<path d="M2989 1973 c-13 -16 -12 -17 4 -4 16 13 21 21 13 21 -2 0 -10 -8 -17
-17z"/>
<path d="M3025 1979 c-3 -4 2 -6 10 -5 21 3 28 13 10 13 -9 0 -18 -4 -20 -8z"/>
<path d="M2823 1885 c0 -8 4 -12 9 -9 5 3 6 10 3 15 -9 13 -12 11 -12 -6z"/>
<path d="M4306 1962 c-3 -5 1 -9 9 -9 8 0 12 4 9 9 -3 4 -7 8 -9 8 -2 0 -6 -4
-9 -8z"/>
<path d="M4513 1905 c0 -8 4 -12 9 -9 5 3 6 10 3 15 -9 13 -12 11 -12 -6z"/>
<path d="M4831 1747 c-8 -10 -7 -14 2 -14 8 0 14 6 14 14 0 7 -1 13 -2 13 -2
0 -8 -6 -14 -13z"/>
<path d="M3825 1749 c-3 -4 2 -6 10 -5 21 3 28 13 10 13 -9 0 -18 -4 -20 -8z"/>
<path d="M3666 1718 c3 -5 10 -6 15 -3 13 9 11 12 -6 12 -8 0 -12 -4 -9 -9z"/>
<path d="M4136 1498 c3 -5 10 -6 15 -3 13 9 11 12 -6 12 -8 0 -12 -4 -9 -9z"/>
<path d="M4256 1498 c3 -5 10 -6 15 -3 13 9 11 12 -6 12 -8 0 -12 -4 -9 -9z"/>
<path d="M3193 1465 c0 -8 4 -12 9 -9 5 3 6 10 3 15 -9 13 -12 11 -12 -6z"/>
<path d="M3246 1468 c3 -5 10 -6 15 -3 13 9 11 12 -6 12 -8 0 -12 -4 -9 -9z"/>
<path d="M4770 1656 c0 -2 8 -10 18 -17 15 -13 16 -12 3 4 -13 16 -21 21 -21
13z"/>
<path d="M3246 1098 c3 -5 10 -6 15 -3 13 9 11 12 -6 12 -8 0 -12 -4 -9 -9z"/>
<path d="M4677 1071 c-9 -12 -9 -13 1 -7 6 4 12 3 12 -1 0 -5 -6 -15 -12 -23
-11 -12 -10 -12 5 0 10 7 22 21 27 30 12 22 -15 23 -33 1z"/>
<path d="M3203 1055 c0 -8 4 -12 9 -9 5 3 6 10 3 15 -9 13 -12 11 -12 -6z"/>
<path d="M3245 1061 c-3 -5 -2 -12 3 -15 5 -3 9 1 9 9 0 17 -3 19 -12 6z"/>
<path d="M3416 1062 c-3 -5 1 -9 9 -9 8 0 12 4 9 9 -3 4 -7 8 -9 8 -2 0 -6 -4
-9 -8z"/>
<path d="M3547 1040 c-19 -16 -40 -30 -46 -30 -6 0 -19 -4 -29 -9 -9 -5 -43
-22 -75 -37 -32 -15 -76 -47 -98 -71 -38 -41 -58 -56 -43 -31 4 7 3 8 -4 4 -6
-4 -9 -13 -5 -21 3 -8 0 -15 -6 -15 -6 0 -11 -12 -11 -27 0 -27 1 -26 28 15
16 23 32 39 37 35 4 -5 5 -3 2 4 -8 13 71 85 84 77 5 -3 9 -1 9 4 0 9 93 52
113 52 6 0 -3 -15 -20 -32 -32 -36 -83 -102 -83 -110 0 -2 6 -5 14 -5 8 0 12
6 10 12 -7 16 22 38 38 29 7 -4 10 -4 6 1 -4 4 -3 14 3 22 6 7 8 13 4 13 -11
0 62 90 99 122 17 15 26 28 19 28 -7 0 -28 -13 -46 -30z"/>
<path d="M4516 1038 c3 -5 10 -6 15 -3 13 9 11 12 -6 12 -8 0 -12 -4 -9 -9z"/>
<path d="M2985 901 c-3 -5 -2 -12 3 -15 5 -3 9 1 9 9 0 17 -3 19 -12 6z"/>
<path d="M3255 901 c-6 -11 9 -23 19 -14 9 9 7 23 -3 23 -6 0 -12 -4 -16 -9z"/>
<path d="M3835 891 c-3 -5 -2 -12 3 -15 5 -3 9 1 9 9 0 17 -3 19 -12 6z"/>
<path d="M3970 900 c0 -3 14 -32 30 -64 17 -32 30 -69 30 -82 0 -12 5 -26 10
-29 26 -16 -13 111 -46 152 -13 15 -23 26 -24 23z"/>
<path d="M3203 855 c0 -8 4 -12 9 -9 5 3 6 10 3 15 -9 13 -12 11 -12 -6z"/>
<path d="M4096 838 c3 -5 10 -6 15 -3 13 9 11 12 -6 12 -8 0 -12 -4 -9 -9z"/>
<path d="M4524 676 c1 -8 5 -18 8 -22 4 -3 5 1 4 10 -1 8 -5 18 -8 22 -4 3 -5
-1 -4 -10z"/>
<path d="M3505 631 c-3 -6 5 -15 17 -22 13 -7 45 -30 71 -52 26 -22 50 -38 52
-35 9 9 -81 85 -108 92 -15 4 -25 11 -22 16 3 6 4 10 1 10 -3 0 -7 -4 -11 -9z"/>
<path d="M4565 631 c-3 -5 -2 -12 3 -15 5 -3 9 1 9 9 0 17 -3 19 -12 6z"/>
<path d="M3719 573 c-13 -16 -12 -17 4 -4 16 13 21 21 13 21 -2 0 -10 -8 -17
-17z"/>
<path d="M2790 2775 c-5 -14 -12 -25 -15 -25 -4 0 -3 5 1 12 4 7 3 8 -5 4 -9
-6 -9 -11 -1 -21 11 -13 10 -31 -5 -117 -3 -16 -2 -28 2 -28 22 1 30 20 32 75
1 33 4 75 7 93 6 38 -3 42 -16 7z"/>
<path d="M3369 2773 c-5 -39 6 -131 13 -113 8 19 21 88 22 115 1 32 -31 31
-35 -2z"/>
<path d="M4984 2778 c3 -13 5 -23 6 -23 1 0 4 -11 5 -25 2 -14 9 -38 16 -55
15 -38 17 -44 25 -79 6 -23 4 -27 -7 -21 -11 7 -12 6 -2 -6 10 -12 10 -18 1
-27 -9 -9 -9 -15 1 -24 10 -11 11 -10 6 3 -3 9 0 21 8 27 19 16 111 -23 100
-41 -4 -8 -1 -7 10 1 9 8 21 10 29 6 7 -5 15 -9 18 -10 3 0 21 -8 41 -17 19
-8 48 -19 65 -23 16 -4 35 -12 43 -18 7 -5 23 -11 35 -11 32 -2 78 -24 71 -34
-3 -5 0 -13 6 -17 8 -4 9 -3 5 4 -9 15 18 14 64 -2 19 -7 35 -18 35 -24 0 -14
14 -17 23 -6 4 4 1 4 -7 -1 -9 -5 -12 -4 -7 3 7 11 25 5 131 -43 45 -20 87
-36 108 -41 4 -1 8 -2 10 -4 3 -2 19 -6 95 -22 34 -8 60 -17 57 -21 -2 -4 1
-3 7 3 7 5 25 10 41 10 29 0 29 0 13 -24 -9 -14 -12 -27 -7 -31 5 -3 15 11 22
30 8 20 20 35 29 35 17 0 70 -50 70 -66 0 -5 -18 -29 -40 -52 -45 -46 -40 -59
5 -14 51 51 58 67 42 99 -8 15 -23 35 -33 44 -30 27 -117 67 -160 74 -21 4
-82 27 -134 52 -52 24 -129 57 -170 73 -41 16 -194 74 -340 129 l-265 100 -9
55 c-8 56 -25 77 -27 34 l0 -23 -9 23 c-5 12 -14 22 -20 22 -5 0 -8 -10 -6
-22z m86 -197 c0 -5 -7 -12 -16 -15 -14 -5 -15 -4 -4 9 14 17 20 19 20 6z m41
-12 c11 -6 28 -12 37 -14 30 -6 75 -25 70 -30 -6 -6 -120 33 -132 45 -13 13 0
13 25 -1z m312 -100 c26 -6 47 -14 47 -19 0 -4 13 -10 29 -13 15 -3 53 -17 84
-31 31 -15 58 -26 61 -26 3 0 30 -11 60 -25 59 -27 105 -46 121 -51 87 -25
134 -34 190 -35 43 -1 53 -3 35 -8 -67 -20 -181 5 -338 75 -29 13 -54 24 -56
24 -2 0 -21 8 -42 17 -22 9 -41 17 -44 18 -14 3 -89 30 -120 43 -19 9 -39 17
-45 18 -5 2 -19 5 -30 8 -60 16 -145 49 -145 56 0 4 33 -3 73 -17 39 -13 93
-29 120 -34z"/>
<path d="M7335 1400 c0 -773 1 -1089 2 -703 2 387 2 1019 0 1405 -1 387 -2 71
-2 -702z"/>
<path d="M4513 2775 c0 -8 4 -12 9 -9 5 3 6 10 3 15 -9 13 -12 11 -12 -6z"/>
<path d="M4563 2775 c0 -8 4 -12 9 -9 5 3 6 10 3 15 -9 13 -12 11 -12 -6z"/>
<path d="M2980 2682 c0 -5 -31 -21 -70 -36 -83 -33 -190 -100 -190 -120 0 -8
-5 -16 -12 -18 -16 -6 7 -64 28 -72 29 -11 168 71 247 145 l42 40 -23 18 c-13
12 -20 25 -16 35 3 9 3 16 0 16 -3 0 -6 -4 -6 -8z"/>
<path d="M3261 2628 c-41 -24 -51 -35 -49 -52 4 -29 31 -25 101 16 41 23 54
35 46 44 -19 23 -47 21 -98 -8z"/>
<path d="M4550 2576 c0 -2 8 -10 18 -17 15 -13 16 -12 3 4 -13 16 -21 21 -21
13z"/>
<path d="M4606 2568 c3 -5 10 -6 15 -3 13 9 11 12 -6 12 -8 0 -12 -4 -9 -9z"/>
<path d="M4046 2528 c3 -5 10 -6 15 -3 13 9 11 12 -6 12 -8 0 -12 -4 -9 -9z"/>
<path d="M5096 2511 c-3 -5 2 -15 12 -22 15 -12 16 -12 5 2 -7 9 -10 19 -6 22
3 4 4 7 0 7 -3 0 -8 -4 -11 -9z"/>
<path d="M5190 2481 c0 -6 4 -13 10 -16 6 -3 7 1 4 9 -7 18 -14 21 -14 7z"/>
<path d="M3243 2435 c0 -8 4 -12 9 -9 5 3 6 10 3 15 -9 13 -12 11 -12 -6z"/>
<path d="M3289 2423 c-13 -16 -12 -17 4 -4 9 7 17 15 17 17 0 8 -8 3 -21 -13z"/>
<path d="M4091 2417 c-8 -10 -7 -14 2 -14 8 0 14 6 14 14 0 7 -1 13 -2 13 -2
0 -8 -6 -14 -13z"/>
<path d="M2748 2383 c-2 -25 -8 -37 -16 -35 -8 1 -11 -2 -7 -8 3 -6 11 -8 16
-5 5 4 9 -12 9 -34 0 -22 5 -43 10 -46 6 -4 10 7 10 25 0 22 4 29 13 24 10 -6
10 -4 0 7 -15 15 -18 33 -5 25 5 -3 9 1 9 9 0 8 -4 12 -9 9 -4 -3 -8 -1 -8 5
0 5 4 13 10 16 10 6 -9 45 -22 45 -4 0 -8 -17 -10 -37z"/>
<path d="M2606 2388 c3 -5 10 -6 15 -3 13 9 11 12 -6 12 -8 0 -12 -4 -9 -9z"/>
<path d="M3236 2391 c-4 -5 -2 -12 3 -15 5 -4 12 -2 15 3 4 5 2 12 -3 15 -5 4
-12 2 -15 -3z"/>
<path d="M3196 2382 c-3 -5 1 -9 9 -9 8 0 12 4 9 9 -3 4 -7 8 -9 8 -2 0 -6 -4
-9 -8z"/>
<path d="M4039 2388 c-8 -27 -6 -38 5 -29 7 6 17 7 22 3 4 -4 2 1 -5 11 -12
16 -20 21 -22 15z"/>
<path d="M5446 2361 c-4 -5 -2 -12 3 -15 5 -4 12 -2 15 3 4 5 2 12 -3 15 -5 4
-12 2 -15 -3z"/>
<path d="M5516 2348 c3 -5 10 -6 15 -3 13 9 11 12 -6 12 -8 0 -12 -4 -9 -9z"/>
<path d="M3196 2338 c3 -5 10 -6 15 -3 13 9 11 12 -6 12 -8 0 -12 -4 -9 -9z"/>
<path d="M5566 2312 c-3 -5 1 -9 9 -9 8 0 12 4 9 9 -3 4 -7 8 -9 8 -2 0 -6 -4
-9 -8z"/>
<path d="M5609 2303 c-13 -16 -12 -17 4 -4 16 13 21 21 13 21 -2 0 -10 -8 -17
-17z"/>
<path d="M6073 2185 c0 -8 4 -12 9 -9 5 3 6 10 3 15 -9 13 -12 11 -12 -6z"/>
<path d="M3295 2181 c-3 -5 -2 -12 3 -15 5 -3 9 1 9 9 0 17 -3 19 -12 6z"/>
<path d="M4089 2163 c-13 -16 -12 -17 4 -4 9 7 17 15 17 17 0 8 -8 3 -21 -13z"/>
<path d="M6033 2145 c0 -8 4 -12 9 -9 5 3 6 10 3 15 -9 13 -12 11 -12 -6z"/>
<path d="M4095 2121 c-3 -5 -2 -12 3 -15 5 -3 9 1 9 9 0 17 -3 19 -12 6z"/>
<path d="M6625 1910 c-9 -18 -14 -34 -12 -37 3 -2 12 10 21 28 9 18 14 34 12
37 -3 2 -12 -10 -21 -28z"/>
<path d="M760 1765 c-14 -8 -32 -14 -41 -15 -9 0 -41 -26 -70 -58 -90 -97
-210 -370 -188 -427 4 -11 8 -39 8 -62 1 -24 6 -43 11 -43 6 0 10 6 10 13 0 8
10 19 23 26 13 7 32 27 42 44 10 18 39 64 65 103 72 111 150 278 121 260 -6
-4 -11 -2 -11 3 0 6 6 11 14 11 10 0 19 20 26 58 6 31 14 67 17 80 6 26 6 26
-27 7z m-36 -98 c-20 -36 -53 -87 -73 -114 -20 -26 -37 -51 -36 -54 0 -4 -27
-44 -60 -90 -55 -76 -60 -81 -63 -56 -2 16 15 66 43 129 55 119 93 180 108
171 6 -3 7 -1 3 5 -9 15 44 72 73 77 13 2 26 7 30 10 3 4 7 2 9 -3 1 -4 -14
-38 -34 -75z m-20 -100 c-5 -7 -1 -4 9 6 21 23 21 17 3 -28 -14 -33 -34 -51
-22 -20 3 8 1 15 -4 15 -14 0 -12 24 2 38 15 15 24 7 12 -11z m-36 -124 c-17
-32 -37 -65 -46 -73 -8 -8 -6 1 6 20 11 20 27 47 34 60 18 35 28 50 33 50 2 0
-10 -26 -27 -57z m-30 5 c-18 -32 -50 -68 -60 -68 -11 0 11 38 41 72 29 32 38
30 19 -4z m-102 -136 c-22 -55 -67 -133 -53 -90 4 10 2 20 -3 23 -6 4 -10 15
-10 26 0 11 5 17 10 14 6 -3 10 -1 10 5 0 12 61 92 67 87 1 -2 -8 -31 -21 -65z
m33 -19 c-12 -21 -33 -49 -46 -63 l-25 -25 23 40 c21 38 58 85 67 85 2 0 -6
-17 -19 -37z"/>
<path d="M487 1274 c-3 -3 -3 -13 0 -21 5 -12 7 -12 14 -1 15 23 4 40 -14 22z"/>
<path d="M5165 1689 c2 -11 7 -30 11 -42 6 -20 5 -20 -10 -8 -15 13 -16 12 -7
-13 6 -14 17 -39 25 -55 9 -16 13 -31 11 -35 -3 -3 -2 -4 2 -1 9 7 44 -75 37
-86 -3 -5 0 -8 6 -7 7 2 20 -21 31 -49 10 -29 16 -53 14 -53 -2 0 -16 17 -30
37 -27 41 -33 41 -12 0 17 -32 97 -137 106 -137 3 0 17 -16 30 -35 13 -20 26
-33 29 -31 5 6 -19 46 -43 70 -16 16 -12 41 5 31 5 -3 11 -1 14 4 7 10 -20 9
-30 -2 -10 -9 -25 -9 -21 1 1 4 -2 7 -6 7 -13 0 -30 37 -34 70 -3 27 -13 57
-49 140 -34 79 -39 95 -48 132 -2 12 -9 30 -14 40 -5 10 -7 24 -5 31 3 6 0 12
-6 12 -5 0 -8 -9 -6 -21z"/>
<path d="M6750 1660 c-15 -27 -23 -190 -8 -190 4 0 8 19 9 43 2 64 5 90 13
109 4 9 6 27 4 40 l-3 23 -15 -25z m7 -32 c-3 -8 -6 -5 -6 6 -1 11 2 17 5 13
3 -3 4 -12 1 -19z"/>
<path d="M2143 1593 c-6 -16 -14 -44 -18 -63 -4 -19 -12 -41 -17 -47 -6 -7 -8
-13 -4 -13 4 0 -14 -41 -40 -91 -25 -49 -44 -93 -41 -96 4 -4 76 124 82 147 1
3 5 13 8 23 4 9 10 25 14 35 3 9 8 28 10 41 2 13 10 39 18 58 8 18 11 33 7 33
-4 0 -12 -12 -19 -27z"/>
<path d="M2195 1563 c-8 -21 -21 -50 -29 -65 -10 -19 -11 -29 -3 -37 8 -8 8
-14 -2 -23 -10 -11 -11 -9 -6 7 5 15 4 17 -3 6 -6 -8 -8 -23 -6 -34 2 -11 -1
-26 -7 -33 -7 -8 -7 -14 1 -19 7 -4 7 -12 -1 -26 -6 -12 -8 -23 -5 -26 8 -8
27 7 21 17 -3 5 3 30 13 57 21 53 31 81 32 88 1 2 9 26 19 53 15 40 16 50 4
61 -11 10 -16 6 -28 -26z m9 -37 c-9 -26 -19 -45 -21 -42 -3 3 -1 18 5 33 5
15 13 37 16 47 4 10 9 17 11 14 3 -2 -2 -26 -11 -52z"/>
<path d="M4870 1585 c-6 -26 -4 -233 2 -227 10 10 15 182 7 212 -4 14 -8 21
-9 15z"/>
<path d="M2253 1542 c-1 -21 -3 -48 -5 -62 -2 -14 2 -27 7 -30 6 -3 11 20 12
57 2 66 -11 97 -14 35z"/>
<path d="M4971 1471 c0 -9 5 -25 10 -36 8 -18 9 -17 5 4 -3 14 -1 30 4 36 7 8
5 12 -5 12 -8 0 -15 -7 -14 -16z"/>
<path d="M4943 1445 c0 -8 4 -12 9 -9 5 3 6 10 3 15 -9 13 -12 11 -12 -6z"/>
<path d="M4989 1408 c-10 -32 2 -61 15 -39 4 5 2 12 -4 16 -6 4 -8 11 -5 16 4
5 4 9 1 9 -3 0 -6 -1 -7 -2z"/>
<path d="M1994 1388 c-20 -29 -34 -54 -43 -74 -5 -12 -24 -39 -42 -60 l-33
-39 33 30 c35 32 107 143 98 151 -3 3 -9 -1 -13 -8z"/>
<path d="M4945 1371 c-3 -5 -1 -12 5 -16 5 -3 10 1 10 9 0 18 -6 21 -15 7z"/>
<path d="M2103 1328 c-23 -33 -22 -48 3 -48 24 0 -28 -68 -82 -106 -26 -19
-43 -34 -37 -34 6 0 21 8 34 18 13 9 33 22 44 28 11 6 31 33 44 59 23 43 24
48 8 59 -15 12 -15 14 0 29 9 9 15 19 12 21 -2 2 -14 -9 -26 -26z"/>
<path d="M5380 1344 c0 -14 69 -94 82 -94 5 0 1 10 -10 23 -12 12 -32 36 -46
52 -14 17 -26 25 -26 19z"/>
<path d="M5236 1332 c-3 -5 1 -9 9 -9 8 0 12 4 9 9 -3 4 -7 8 -9 8 -2 0 -6 -4
-9 -8z"/>
<path d="M2215 1283 c-4 -21 -13 -60 -21 -86 -7 -26 -9 -45 -4 -42 10 6 43
100 47 132 3 39 -16 35 -22 -4z"/>
<path d="M2059 1263 c-10 -11 -10 -14 -1 -9 17 10 15 -4 -5 -28 -12 -14 -9
-13 10 4 16 13 23 26 18 28 -6 2 -9 8 -5 13 9 15 -3 10 -17 -8z"/>
<path d="M5566 1108 c3 -5 10 -6 15 -3 13 9 11 12 -6 12 -8 0 -12 -4 -9 -9z"/>
<path d="M5193 1075 c0 -8 4 -12 9 -9 5 3 6 10 3 15 -9 13 -12 11 -12 -6z"/>
<path d="M2395 1071 c-3 -5 -2 -12 3 -15 5 -3 9 1 9 9 0 17 -3 19 -12 6z"/>
<path d="M4945 1041 c-3 -5 -2 -12 3 -15 5 -3 9 1 9 9 0 17 -3 19 -12 6z"/>
<path d="M4943 875 c0 -8 4 -12 9 -9 5 3 6 10 3 15 -9 13 -12 11 -12 -6z"/>
<path d="M4993 825 c0 -8 4 -12 9 -9 5 3 6 10 3 15 -9 13 -12 11 -12 -6z"/>
<path d="M5356 818 c3 -5 10 -6 15 -3 13 9 11 12 -6 12 -8 0 -12 -4 -9 -9z"/>
<path d="M5406 818 c3 -5 10 -6 15 -3 13 9 11 12 -6 12 -8 0 -12 -4 -9 -9z"/>
<path d="M5573 815 c0 -8 4 -12 9 -9 5 3 6 10 3 15 -9 13 -12 11 -12 -6z"/>
<path d="M471 768 c-17 -23 -31 -47 -31 -52 1 -17 70 62 70 79 0 23 -5 19 -39
-27z"/>
<path d="M1725 739 c-33 -10 -76 -19 -95 -20 -19 -2 -41 -7 -49 -13 -11 -8
-13 -8 -7 2 5 8 0 12 -17 12 -13 0 -53 2 -88 5 l-64 5 40 -14 c22 -7 55 -12
73 -11 39 2 41 -7 5 -23 l-28 -11 34 3 c31 3 32 2 16 -11 -11 -7 -26 -13 -34
-13 -43 0 -133 -76 -162 -134 -25 -52 -24 -56 6 -23 14 15 38 33 53 41 29 14
150 39 173 35 8 -1 21 1 29 4 8 3 24 8 35 11 11 2 -16 2 -59 -1 -44 -3 -89 -7
-100 -10 -12 -2 -25 -5 -31 -6 -5 -2 -25 -10 -44 -20 -19 -9 -36 -15 -38 -13
-8 8 100 96 118 96 11 0 27 4 37 8 52 26 77 42 75 50 -1 5 11 10 28 11 66 4
77 6 73 12 -4 7 66 29 109 33 40 5 42 12 4 13 -18 0 -59 -8 -92 -18z"/>
<path d="M1865 750 c-3 -5 -2 -10 4 -10 5 0 13 5 16 10 3 6 2 10 -4 10 -5 0
-13 -4 -16 -10z"/>
<path d="M4770 665 c-10 -12 -10 -18 0 -30 7 -8 9 -15 5 -15 -4 0 0 -11 9 -25
9 -14 14 -25 10 -25 -4 0 -2 -6 4 -12 5 -7 13 -28 17 -45 4 -23 12 -33 25 -33
21 0 21 21 -2 47 -21 24 -50 83 -41 83 4 0 2 5 -5 12 -7 7 -12 21 -12 31 0 17
2 18 18 6 15 -13 16 -12 3 4 -16 21 -16 21 -31 2z m71 -152 c13 -16 12 -17 -3
-4 -17 13 -22 21 -14 21 2 0 10 -8 17 -17z"/>
<path d="M2356 661 c-4 -5 -2 -12 3 -15 5 -4 12 -2 15 3 4 5 2 12 -3 15 -5 4
-12 2 -15 -3z"/>
<path d="M4736 618 c3 -5 10 -6 15 -3 13 9 11 12 -6 12 -8 0 -12 -4 -9 -9z"/>
<path d="M5300 626 c0 -2 8 -10 18 -17 15 -13 16 -12 3 4 -13 16 -21 21 -21
13z"/>
<path d="M2130 610 c-9 -6 -10 -10 -3 -10 6 0 15 5 18 10 8 12 4 12 -15 0z"/>
<path d="M7072 573 c-38 -33 -64 -68 -93 -124 -21 -44 -38 -79 -36 -79 8 0 73
67 103 105 37 47 88 134 83 140 -2 2 -28 -17 -57 -42z"/>
<path d="M5220 603 c0 -6 7 -14 16 -17 8 -3 12 -11 8 -17 -4 -8 -3 -9 4 -5 7
4 26 0 44 -8 18 -8 51 -18 73 -22 22 -4 46 -8 52 -10 7 -1 15 2 19 7 3 5 -3
10 -13 10 -42 3 -77 9 -92 15 -9 4 -19 8 -23 8 -3 1 -10 4 -14 9 -4 4 -14 7
-22 7 -9 0 -24 7 -34 17 -10 9 -18 11 -18 6z"/>
<path d="M3401 548 c2 -26 6 -45 10 -43 7 5 1 76 -8 85 -2 2 -3 -17 -2 -42z"/>
<path d="M136 533 c-3 -3 -5 -29 -4 -57 l1 -51 7 45 c5 29 6 14 3 -41 -3 -56
0 -89 6 -94 8 -4 11 26 11 94 0 91 -7 121 -24 104z"/>
<path d="M5280 531 c0 -5 9 -11 21 -14 12 -3 18 -10 15 -16 -4 -5 -1 -13 5
-17 7 -4 9 -3 6 3 -5 8 22 10 83 8 50 -1 93 1 96 6 3 5 11 6 17 3 7 -4 9 -4 5
0 -4 5 -44 8 -90 8 -49 0 -97 6 -117 14 -39 16 -41 17 -41 5z"/>
<path d="M5106 462 c-3 -5 1 -9 9 -9 8 0 12 4 9 9 -3 4 -7 8 -9 8 -2 0 -6 -4
-9 -8z"/>
<path d="M2823 445 c0 -8 4 -12 9 -9 5 3 6 10 3 15 -9 13 -12 11 -12 -6z"/>
<path d="M5130 437 c0 -11 71 -48 83 -44 6 2 -6 12 -28 23 -22 10 -43 20 -47
22 -5 2 -8 1 -8 -1z"/>
<path d="M3246 392 c-3 -5 1 -9 9 -9 8 0 12 4 9 9 -3 4 -7 8 -9 8 -2 0 -6 -4
-9 -8z"/>
<path d="M3415 391 c-3 -5 -2 -12 3 -15 5 -3 9 1 9 9 0 17 -3 19 -12 6z"/>
<path d="M4275 300 c-3 -5 -1 -10 4 -10 6 0 11 5 11 10 0 6 -2 10 -4 10 -3 0
-8 -4 -11 -10z"/>
<path d="M2946 291 c-3 -5 2 -15 12 -22 15 -12 16 -12 5 2 -7 9 -10 19 -6 22
3 4 4 7 0 7 -3 0 -8 -4 -11 -9z"/>
<path d="M3879 293 c0 -5 -2 -16 -4 -26 -2 -11 -1 -16 3 -13 8 8 14 46 7 46
-3 0 -5 -3 -6 -7z"/>
<path d="M4265 261 c-3 -5 -2 -12 3 -15 5 -3 9 1 9 9 0 17 -3 19 -12 6z"/>
<path d="M2986 231 c-4 -5 -2 -12 3 -15 5 -4 12 -2 15 3 4 5 2 12 -3 15 -5 4
-12 2 -15 -3z"/>
<path d="M4693 205 c0 -8 4 -12 9 -9 5 3 6 10 3 15 -9 13 -12 11 -12 -6z"/>
<path d="M4899 203 c-13 -16 -12 -17 4 -4 9 7 17 15 17 17 0 8 -8 3 -21 -13z"/>
<path d="M1943 35 c0 -8 4 -12 9 -9 5 3 6 10 3 15 -9 13 -12 11 -12 -6z"/>
</g>
</svg>
