<?xml version="1.0" standalone="no"?>
<!DOCTYPE svg PUBLIC "-//W3C//DTD SVG 20010904//EN"
 "http://www.w3.org/TR/2001/REC-SVG-20010904/DTD/svg10.dtd">
<svg version="1.0" xmlns="http://www.w3.org/2000/svg"
 width="460.000000pt" height="680.000000pt" viewBox="0 0 460.000000 680.000000"
 preserveAspectRatio="xMidYMid meet">

<g transform="translate(0.000000,680.000000) scale(0.100000,-0.100000)"
fill="#000000" stroke="none">
<path d="M120 5945 l0 -855 2140 0 2140 0 0 855 c0 560 -3 855 -10 855 -6 0
-11 -282 -12 -811 l-3 -811 -48 76 c-27 42 -71 101 -99 131 l-50 55 67 101
c60 89 67 102 56 122 -9 17 -9 67 -1 202 8 148 24 519 33 793 l2 57 -68 3 -67
3 -20 39 c-26 50 -46 53 -25 3 24 -57 32 -62 103 -65 65 -3 67 -4 64 -28 -7
-55 -29 -500 -47 -927 -4 -115 -1 -108 -103 -261 -64 -97 -77 -112 -96 -106
-32 9 -284 109 -346 136 -51 23 -57 29 -69 69 -7 24 -26 80 -42 124 -16 44
-45 125 -65 180 -33 94 -63 174 -120 324 l-25 64 26 -17 c25 -16 25 -16 37 11
7 15 18 34 24 40 7 7 22 45 34 85 12 40 28 91 35 113 56 178 85 318 60 293 -3
-3 -35 -97 -70 -209 -36 -112 -69 -213 -74 -224 -6 -11 -13 -35 -16 -52 -7
-37 -15 -40 -51 -17 -34 23 -38 14 -18 -35 9 -23 14 -45 10 -48 -6 -7 -132
-17 -196 -16 -53 0 -114 27 -124 55 -7 19 -3 34 19 67 21 34 25 51 20 75 -3
17 -7 56 -8 86 -4 88 -58 156 -162 205 -54 25 -164 26 -227 2 -45 -17 -113
-73 -113 -93 0 -5 -15 -46 -32 -92 -26 -65 -30 -87 -23 -108 6 -14 10 -27 10
-30 0 -2 -119 -4 -265 -4 l-264 0 -16 30 c-24 45 -20 60 18 61 30 2 30 2 5 6
-23 4 -28 9 -28 34 0 22 -5 29 -20 29 -13 0 -24 10 -30 26 -22 56 -32 53 263
57 l272 2 -278 3 c-218 1 -278 5 -275 15 3 8 44 14 139 17 l134 6 -133 2 c-86
1 -131 6 -127 12 3 6 2 10 -3 10 -5 0 -12 13 -15 29 -4 20 -16 33 -39 42 -29
12 10 15 322 19 l355 5 -382 3 c-239 1 -384 6 -388 12 -4 6 180 11 532 13 314
1 134 3 -433 5 l-971 2 99 -151 c55 -83 102 -148 105 -145 13 13 30 -29 22
-53 -15 -50 -20 -150 -26 -593 l-5 -448 36 0 c20 0 36 -3 36 -6 0 -5 -59 -91
-175 -256 -25 -35 -30 -38 -78 -39 -283 -3 -639 -1 -643 4 -6 6 -142 463 -164
552 -12 48 -11 54 33 183 53 150 56 203 17 304 l-21 57 56 173 c31 95 68 208
82 252 16 51 28 74 33 65 12 -18 38 -3 89 54 l44 47 -182 0 -181 0 0 -855z
m305 835 c-4 -6 -63 -10 -146 -10 -86 0 -139 4 -139 10 0 6 55 10 146 10 94 0
143 -4 139 -10z m1190 0 c4 -7 -103 -10 -314 -10 -207 0 -321 4 -321 10 0 6
111 10 314 10 199 0 317 -4 321 -10z m-1225 -32 c0 -4 -57 -8 -126 -8 -85 0
-123 3 -119 11 8 12 245 9 245 -3z m1120 2 c0 -5 -13 -10 -30 -10 -324 -2
-475 1 -478 10 -3 7 79 10 252 10 164 0 256 -4 256 -10z m-1190 -50 c-9 -18
-21 -20 -95 -20 -78 0 -85 2 -85 20 0 19 7 20 95 20 93 0 95 -1 85 -20z m1125
10 c-3 -5 -1 -10 6 -10 10 0 10 -3 2 -11 -8 -8 -74 -11 -205 -10 -177 2 -195
3 -213 21 -19 20 -18 20 198 20 143 0 216 -3 212 -10z m-1183 -57 c-23 -2 -61
-2 -85 0 -23 2 -4 4 43 4 47 0 66 -2 42 -4z m1066 0 c-49 -2 -127 -2 -175 0
-49 1 -9 3 87 3 96 0 136 -2 88 -3z m-1045 -28 c1 -6 -29 -11 -70 -13 -87 -3
-101 15 -15 21 75 5 83 4 85 -8z m1077 5 c0 -15 -58 -21 -164 -18 -62 2 -101
7 -103 14 -3 8 36 12 132 12 75 1 135 -3 135 -8z m560 0 c10 -5 21 -22 24 -37
4 -16 9 -37 13 -47 5 -17 1 -18 -38 -13 -42 5 -43 5 -11 -5 18 -6 31 -16 29
-22 -5 -15 -147 -21 -147 -6 0 6 7 13 16 17 13 5 15 15 9 49 -5 37 -3 44 17
58 25 18 61 21 88 6z m-1648 -35 c7 -8 -25 -112 -39 -126 -6 -6 -28 -9 -49 -7
l-39 3 -3 54 c-5 78 -2 81 66 81 32 0 61 -2 64 -5z m1078 -8 c0 -7 -5 -18 -12
-25 -7 -7 -9 -12 -5 -12 3 0 2 -11 -3 -24 -5 -15 -5 -27 2 -34 20 -20 -4 -32
-62 -32 l-59 0 -45 64 c-26 35 -46 66 -46 70 0 3 52 6 115 6 88 0 115 -3 115
-13z m1572 -13 c23 -7 28 -26 16 -73 -10 -38 -8 -43 18 -75 41 -49 52 -44 15
6 -26 35 -29 44 -16 50 9 6 21 2 35 -12 11 -11 29 -20 39 -20 11 0 23 -4 26
-10 3 -5 0 -10 -8 -10 -8 0 -17 -7 -21 -15 -7 -19 5 -19 30 0 27 20 41 19 54
-6 9 -15 9 -28 0 -50 -14 -32 -85 -95 -115 -100 -14 -3 -21 -15 -25 -41 -4
-31 -16 -47 -65 -88 -32 -27 -63 -50 -67 -50 -4 0 -8 10 -9 23 l0 22 -10 -23
c-5 -13 -22 -29 -39 -35 -16 -6 -30 -15 -30 -20 0 -5 -7 -1 -15 7 -14 14 -23
10 -92 -45 -42 -34 -86 -64 -97 -69 -13 -4 -35 -37 -56 -79 l-34 -72 -71 3
c-56 2 -69 6 -66 18 2 8 10 34 17 58 7 23 9 42 5 42 -5 0 -14 -21 -21 -46 -7
-25 -20 -48 -29 -51 -9 -2 -24 -9 -33 -14 -30 -16 -62 -9 -81 16 -13 18 -14
25 -5 25 10 0 10 2 -1 9 -7 5 -13 20 -13 35 0 14 -6 30 -12 35 -11 9 -203 65
-256 75 -37 7 -38 8 -5 16 l30 8 -36 1 c-48 1 -109 27 -109 46 0 13 35 15 238
17 l237 3 -232 2 c-229 3 -233 4 -233 24 0 18 4 20 28 15 79 -18 135 -19 147
-3 8 11 31 17 76 20 l64 3 -67 2 c-64 2 -68 4 -68 25 0 12 7 33 16 45 8 12 10
22 5 22 -6 0 -11 5 -11 10 0 6 42 11 103 12 l102 2 -89 5 c-83 6 -89 8 -92 29
-3 19 1 22 26 22 19 0 29 5 28 13 -4 18 512 23 524 5 16 -25 8 -38 -23 -38
-17 0 -38 -7 -47 -16 -13 -14 -33 -16 -122 -11 -58 2 -117 10 -132 17 -40 19
-70 -9 -66 -59 3 -35 5 -36 58 -48 30 -7 72 -15 93 -18 41 -6 48 -26 23 -60
-9 -13 -11 -27 -5 -42 5 -13 6 -36 4 -51 -16 -96 -17 -98 -4 -78 7 11 14 51
16 90 4 69 19 126 32 126 3 0 23 -5 44 -11 33 -9 37 -13 32 -37 l-5 -27 10 26
11 27 52 -14 c28 -7 53 -18 55 -23 5 -16 64 -1 90 22 13 13 22 32 22 51 0 21
3 27 11 19 18 -18 29 -86 17 -101 -7 -7 2 -5 20 5 21 12 27 19 17 21 -21 5
-19 15 5 30 39 24 14 82 -36 82 -16 0 -24 6 -24 18 0 9 -16 29 -35 45 -30 24
-33 30 -25 53 21 53 6 81 -33 63 -15 -7 -27 -16 -27 -20 0 -15 22 -22 30 -9 4
7 13 9 19 6 7 -5 5 -19 -9 -47 -24 -46 -40 -50 -40 -11 0 15 -8 43 -18 62 -17
34 -17 37 6 105 28 83 34 90 59 77 14 -8 41 -5 98 8 72 17 127 18 177 4z
m-1334 -101 c2 -7 -3 -13 -11 -13 -9 0 -14 -9 -13 -24 0 -13 6 -24 11 -23 6 1
9 -7 7 -19 -1 -12 5 -27 14 -34 14 -13 15 -9 13 35 -3 41 0 50 14 53 15 3 17
-1 11 -25 -7 -26 -6 -27 11 -13 10 9 20 11 22 5 14 -41 53 -45 53 -6 0 11 5
32 12 46 10 22 17 25 65 25 34 0 63 -6 80 -17 15 -10 24 -12 20 -5 -6 8 -2 12
12 12 17 0 20 -8 23 -47 3 -54 17 -61 36 -20 l13 28 22 -28 c11 -15 25 -33 29
-40 6 -8 0 -16 -19 -25 -15 -7 -33 -24 -39 -37 -7 -13 -18 -27 -25 -32 -10 -6
-10 -10 0 -23 9 -11 10 -20 2 -35 -6 -11 -11 -34 -11 -51 0 -40 -16 -45 -86
-27 -32 8 -63 13 -70 10 -19 -7 -34 -60 -34 -118 0 -48 32 -231 46 -270 8 -20
-2 -19 -42 6 -27 16 -35 29 -40 61 -5 30 -13 43 -33 51 -14 7 -42 26 -61 43
-19 17 -64 57 -100 89 -36 32 -64 63 -63 69 2 6 11 50 21 98 14 72 20 85 32
78 25 -16 42 -12 35 9 -12 39 55 34 110 -8 14 -11 13 -8 -4 12 -14 15 -31 27
-38 27 -7 0 -34 19 -58 41 -36 33 -45 48 -44 73 1 17 3 24 6 14 8 -32 29 -27
29 8 0 26 -3 31 -13 22 -19 -15 -16 2 4 24 18 20 44 21 51 1z m379 -34 c-3
-22 -8 -43 -11 -46 -13 -13 -18 8 -11 46 9 54 29 54 22 0z m-1737 -3 c0 -7 -5
-27 -11 -45 -10 -28 -15 -32 -43 -29 -29 3 -31 6 -34 46 l-3 42 45 0 c32 0 46
-4 46 -14z m1134 -2 c3 -9 6 -24 6 -34 0 -10 7 -17 16 -16 9 0 19 -5 21 -11 4
-10 -21 -13 -101 -13 l-106 0 0 45 0 45 79 0 c63 0 80 -3 85 -16z m-187 -96
c-3 -8 -6 -5 -6 6 -1 11 2 17 5 13 3 -3 4 -12 1 -19z m-977 2 c0 -5 -11 -10
-24 -10 -14 0 -28 5 -31 10 -4 6 7 10 24 10 17 0 31 -4 31 -10z m1240 0 c0 -6
-47 -10 -120 -10 -73 0 -120 4 -120 10 0 6 47 10 120 10 73 0 120 -4 120 -10z
m-1257 -27 c-7 -2 -21 -2 -30 0 -10 3 -4 5 12 5 17 0 24 -2 18 -5z m1259 -5
c-6 -7 -10 -17 -9 -23 3 -14 -223 -19 -237 -5 -7 7 27 10 109 10 65 0 116 2
113 5 -3 3 -53 5 -111 6 -59 0 -107 5 -107 10 0 5 55 9 126 9 100 0 124 -3
116 -12z m-1257 -28 c-3 -5 -12 -10 -20 -10 -8 0 -17 5 -20 10 -4 6 5 10 20
10 15 0 24 -4 20 -10z m2355 -5 c0 -9 -9 -15 -22 -15 -22 1 -23 1 -4 15 25 19
26 19 26 0z m60 -6 c0 -5 -4 -9 -10 -9 -5 0 -10 7 -10 16 0 8 5 12 10 9 6 -3
10 -10 10 -16z m64 -3 c-3 -8 -13 -12 -25 -9 -27 7 -24 23 6 23 17 0 23 -4 19
-14z m451 -167 c17 -91 17 -103 1 -215 -9 -66 -16 -129 -16 -141 0 -13 -2 -23
-5 -23 -6 0 -111 68 -152 99 -18 14 -33 30 -33 35 0 6 -13 39 -30 74 -16 35
-25 60 -19 56 8 -4 8 0 0 14 -16 31 -13 52 7 52 10 0 23 5 30 12 9 9 12 9 12
-1 0 -11 3 -11 15 -1 8 7 15 16 15 20 0 5 9 29 20 55 16 37 23 45 34 36 10 -8
15 -5 24 14 6 14 9 32 6 40 -4 9 2 25 12 36 18 20 18 20 40 -23 12 -24 29 -86
39 -139z m-714 145 c68 -14 131 -28 139 -31 8 -3 25 -5 38 -4 18 2 22 -3 22
-24 0 -26 -26 -46 -39 -29 -3 5 -19 10 -36 11 -161 8 -208 12 -256 23 l-56 13
10 33 c13 42 16 42 178 8z m-2231 6 c0 -5 -4 -10 -9 -10 -6 0 -13 5 -16 10 -3
6 1 10 9 10 9 0 16 -4 16 -10z m1290 0 c0 -6 -52 -10 -135 -10 -83 0 -135 4
-135 10 0 6 52 10 135 10 83 0 135 -4 135 -10z m1115 -8 c-3 -3 -11 0 -18 7
-9 10 -8 11 6 5 10 -3 15 -9 12 -12z m133 0 c2 -7 -2 -10 -12 -6 -9 3 -16 11
-16 16 0 13 23 5 28 -10z m-78 -12 c0 -13 -11 -13 -30 0 -12 8 -11 10 8 10 12
0 22 -4 22 -10z m-2460 -10 c0 -5 -7 -10 -15 -10 -8 0 -15 5 -15 10 0 6 7 10
15 10 8 0 15 -4 15 -10z m1300 0 c0 -6 -53 -10 -140 -10 -87 0 -140 4 -140 10
0 6 53 10 140 10 87 0 140 -4 140 -10z m-8 -26 c3 -3 4 -14 1 -25 -5 -18 -15
-19 -139 -19 l-134 0 0 25 0 25 133 0 c74 0 136 -3 139 -6z m-1302 -25 c0 -11
-4 -17 -10 -14 -5 3 -10 13 -10 21 0 8 5 14 10 14 6 0 10 -9 10 -21z m3298
-142 c39 -77 71 -142 69 -143 -5 -5 -102 168 -122 216 -21 51 -35 71 -35 51 0
-23 105 -231 154 -306 25 -38 46 -74 46 -79 0 -28 -117 164 -171 280 -94 200
-46 185 59 -19z m-673 143 c3 -6 -1 -13 -10 -16 -19 -8 -30 0 -20 15 8 14 22
14 30 1z m515 0 c-8 -5 -11 -13 -6 -17 4 -4 13 0 20 9 11 15 13 13 24 -14 9
-25 9 -29 -4 -24 -9 3 -12 1 -9 -4 3 -6 13 -10 21 -10 8 0 14 -7 14 -15 0 -12
-12 -7 -42 17 -24 18 -45 35 -48 38 -3 3 -16 10 -28 16 -21 8 -17 10 25 12 33
1 43 -1 33 -8z m-3122 -58 c3 -19 -1 -23 -15 -20 -10 2 -19 14 -21 26 -3 19 1
23 15 20 10 -2 19 -14 21 -26z m1276 19 c15 -23 -31 -36 -142 -39 -116 -4
-140 2 -129 32 5 13 28 16 136 16 71 0 132 -4 135 -9z m-1259 -72 c8 -25 -6
-42 -31 -37 -12 2 -20 13 -22 31 -3 23 0 27 22 27 16 0 27 -7 31 -21z m1205 3
c0 -35 -21 -42 -122 -42 l-98 0 0 30 0 30 110 0 c99 0 110 -2 110 -18z m79
-43 c22 -23 41 -46 41 -53 0 -6 -9 0 -20 14 -13 16 -20 20 -19 10 0 -22 22
-47 37 -43 7 3 10 -1 6 -11 -7 -18 -34 -22 -34 -4 0 6 -3 8 -6 5 -4 -4 -1 -13
6 -22 10 -12 16 -13 26 -4 17 14 19 -2 2 -19 -8 -8 -8 -15 2 -27 11 -14 14
-13 26 2 10 14 13 14 14 4 0 -8 3 -12 6 -8 4 3 -3 18 -15 33 -16 20 -18 29 -9
35 9 6 9 11 -1 23 -20 24 -7 19 24 -10 15 -14 24 -28 21 -32 -4 -3 -11 0 -16
8 -5 8 -11 12 -14 9 -3 -3 3 -15 14 -27 17 -18 19 -26 10 -42 -6 -11 -15 -18
-21 -15 -5 4 -9 2 -9 -4 0 -5 5 -11 10 -13 6 -2 8 -16 4 -35 -7 -38 -31 -35
-41 6 -3 14 -13 32 -20 39 -8 8 -11 22 -8 32 4 11 -1 23 -13 32 -17 12 -37 55
-46 104 -3 10 -7 27 -11 37 -12 29 11 19 54 -24z m1290 -1 c29 4 33 2 28 -12
-4 -10 -7 -33 -7 -51 0 -19 -6 -40 -14 -48 -8 -7 -24 -38 -37 -68 -24 -58 -88
-128 -141 -155 -18 -9 -41 -23 -50 -31 -16 -14 -16 -18 3 -54 l19 -39 -51 0
c-48 0 -51 1 -45 23 3 12 6 28 6 35 0 6 10 13 23 13 18 1 18 2 4 6 -16 4 -17
11 -11 46 10 53 8 96 -6 112 -11 13 -4 45 9 45 5 0 14 18 21 40 7 22 17 40 21
40 4 0 38 24 75 54 57 44 73 52 94 46 14 -4 41 -5 59 -2z m-949 -18 c19 -11
29 -19 23 -20 -7 0 -13 -10 -13 -22 0 -15 -3 -19 -8 -11 -5 8 -13 9 -22 3 -12
-8 -12 -10 3 -16 9 -3 17 -16 16 -28 0 -20 -1 -20 -9 -1 -5 12 -9 14 -9 6 -2
-26 -15 0 -17 32 -2 18 -6 42 -9 55 -9 27 -1 27 45 2z m-1620 4 c0 -3 -5 -25
-11 -50 -8 -32 -16 -44 -30 -44 -16 0 -19 8 -19 50 0 49 1 50 30 50 17 0 30
-3 30 -6z m1164 -4 c-12 -5 -30 -27 -40 -49 -11 -22 -26 -41 -34 -42 -67 -5
-112 -4 -116 3 -3 4 -2 28 2 53 l6 45 102 -1 c67 0 94 -3 80 -9z m2063 -92
c-9 -5 -7 -8 4 -8 17 0 55 -48 45 -57 -2 -3 4 -15 15 -26 14 -16 16 -23 7 -29
-10 -6 -10 -8 1 -8 7 0 11 -6 7 -15 -3 -8 -1 -15 4 -15 19 0 10 -16 -9 -17
-14 -1 -20 6 -23 27 -3 16 0 34 6 40 7 7 3 10 -11 10 -13 0 -25 10 -33 30 -19
45 -37 56 -43 25 -3 -19 -1 -25 9 -21 8 3 14 -1 14 -8 0 -7 7 -19 16 -27 9 -8
13 -21 10 -35 -4 -13 -2 -26 4 -29 5 -3 10 -15 10 -26 0 -13 -4 -18 -12 -13
-6 4 -8 3 -5 -3 4 -6 -2 -18 -12 -27 -12 -11 -18 -12 -19 -4 -2 31 -24 163
-27 166 -2 2 0 16 5 31 5 17 3 36 -5 51 -7 13 -11 30 -8 36 3 8 -2 11 -15 7
-23 -6 -35 8 -26 32 6 14 16 8 55 -31 34 -34 45 -50 36 -56z m-17 80 c0 -6 -6
-5 -15 2 -8 7 -15 14 -15 16 0 2 7 1 15 -2 8 -4 15 -11 15 -16z m-1975 -95
c25 -36 56 -86 69 -111 13 -26 35 -56 48 -67 13 -12 33 -34 44 -49 20 -28 22
-28 70 -17 27 6 84 13 127 17 l78 6 -3 36 c-1 22 3 37 11 40 8 3 9 7 3 11 -7
4 -6 15 4 31 13 23 13 22 8 -25 -2 -27 -7 -57 -10 -67 -8 -27 11 -30 79 -12
48 13 66 23 75 42 9 20 9 27 -2 36 -31 25 -142 163 -154 191 -19 45 100 -82
164 -175 71 -104 126 -256 117 -328 -3 -29 -10 -52 -14 -52 -5 0 -6 -8 -2 -17
3 -11 -9 -4 -30 16 -21 19 -37 30 -37 25 0 -6 16 -25 35 -44 25 -24 35 -43 35
-64 0 -17 4 -37 9 -45 7 -11 12 -6 19 20 7 26 13 33 28 31 28 -6 28 -7 16 -63
-14 -60 -10 -69 28 -69 31 0 42 13 54 63 6 25 3 28 -24 33 -17 4 -33 11 -36
15 -9 16 24 21 59 10 33 -11 35 -15 43 -74 5 -34 8 -70 8 -79 0 -9 3 -15 8
-12 13 8 9 -13 -5 -24 -17 -15 -250 -18 -255 -4 -2 6 8 28 21 49 14 21 28 49
32 63 4 16 -3 9 -19 -18 -32 -55 -60 -77 -113 -92 -114 -33 -195 41 -199 179
-1 49 -5 66 -19 74 -13 7 -16 6 -10 -3 9 -15 17 -70 10 -70 -12 0 -35 63 -30
81 6 17 13 20 38 16 20 -2 43 3 64 16 21 12 51 19 78 19 35 -1 46 3 59 23 8
13 26 25 38 28 21 3 22 4 4 12 -15 6 -25 2 -42 -18 -18 -22 -32 -27 -66 -27
-24 0 -56 -8 -74 -19 -18 -11 -41 -17 -56 -14 -32 6 -68 -12 -68 -34 0 -9 13
-40 29 -68 16 -29 34 -71 41 -94 6 -22 24 -56 40 -75 17 -18 30 -36 30 -40 0
-8 -32 5 -55 23 -18 15 -19 15 -6 -2 13 -17 10 -18 -54 -15 l-67 3 -43 120
c-23 66 -59 149 -80 185 -64 112 -255 486 -255 501 0 8 7 25 16 37 20 29 28
22 89 -65z m1885 56 c0 -14 -17 -10 -23 5 -4 10 -1 13 9 9 7 -3 14 -9 14 -14z
m24 -49 c-1 -17 2 -33 8 -36 5 -3 1 -12 -9 -20 -16 -13 -16 -14 0 -8 10 4 17
1 18 -7 0 -8 6 -49 13 -92 7 -42 10 -79 8 -82 -10 -10 -33 -5 -27 5 4 6 11 8
16 5 5 -3 6 1 3 10 -6 14 -10 12 -24 -10 -12 -19 -19 -23 -23 -13 -4 9 -6 7
-6 -5 -1 -28 -18 -11 -18 18 0 20 2 23 12 15 11 -9 12 -7 8 9 -3 12 -8 21 -12
21 -12 0 -11 104 2 113 9 7 9 10 0 14 -8 3 -13 23 -13 50 0 36 3 44 15 39 8
-3 14 -2 14 2 -3 18 2 26 9 15 5 -7 7 -26 6 -43z m-1474 -10 c0 -5 -4 -12 -10
-15 -5 -3 -10 -4 -10 -1 0 2 -3 12 -6 20 -5 12 -2 15 10 10 9 -3 16 -10 16
-14z m-333 -12 c-3 -8 -6 -5 -6 6 -1 11 2 17 5 13 3 -3 4 -12 1 -19z m-1370 6
c-3 -3 -12 -4 -19 -1 -8 3 -5 6 6 6 11 1 17 -2 13 -5z m1091 -1 c-15 -2 -42
-2 -60 0 -18 2 -6 4 27 4 33 0 48 -2 33 -4z m232 -3 c0 -5 -2 -10 -4 -10 -3 0
-8 5 -11 10 -3 6 -1 10 4 10 6 0 11 -4 11 -10z m-243 -23 c3 -4 -13 -7 -36 -7
-23 0 -40 3 -38 8 6 9 64 8 74 -1z m603 -29 c0 -16 -20 -7 -30 12 -10 19 -10
20 9 8 12 -7 21 -16 21 -20z m-232 -17 c-15 -5 -21 7 -13 26 7 17 8 17 15 -2
4 -11 3 -22 -2 -24z m59 22 c0 -7 -5 -12 -11 -10 -15 5 -18 24 -3 24 8 0 14
-6 14 -14z m-453 -5 c-19 -33 -49 -68 -56 -68 -9 0 -11 41 -2 64 4 10 18 16
36 16 21 0 27 -4 22 -12z m583 -10 c-3 -8 -6 -5 -6 6 -1 11 2 17 5 13 3 -3 4
-12 1 -19z m-136 -16 c-7 -2 -18 1 -23 6 -8 8 -4 9 13 5 13 -4 18 -8 10 -11z
m160 -23 c-5 -13 -10 -19 -10 -12 -1 15 10 45 15 40 3 -2 0 -15 -5 -28z m-202
2 c7 -5 12 -14 10 -20 -3 -7 -11 -3 -21 9 -18 21 -13 26 11 11z m734 -18 c-7
-2 -21 -2 -30 0 -10 3 -4 5 12 5 17 0 24 -2 18 -5z m90 0 c-7 -2 -19 -2 -25 0
-7 3 -2 5 12 5 14 0 19 -2 13 -5z m300 -25 c-6 -42 -7 -43 -23 -12 -12 22 -12
27 0 34 24 16 29 12 23 -22z m-1036 2 c1 -11 -2 -18 -8 -15 -11 7 -12 35 -1
35 4 0 8 -9 9 -20z m63 -22 c0 -16 -19 -17 -34 -2 -24 23 -19 34 9 21 14 -7
25 -15 25 -19z m1788 9 c2 -11 -1 -15 -11 -12 -16 7 -19 37 -3 32 6 -2 12 -11
14 -20z m-837 -41 c11 -26 15 -44 9 -41 -14 9 -13 4 15 -72 15 -38 22 -63 16
-58 -16 16 -90 208 -84 217 10 18 26 1 44 -46z m-796 34 c-3 -5 -1 -10 5 -10
6 0 8 -4 5 -10 -10 -17 -25 -11 -25 10 0 11 5 20 11 20 5 0 7 -4 4 -10z m1341
-58 c-1 -31 -16 -47 -16 -18 0 21 -20 30 -33 17 -6 -6 -17 -11 -25 -11 -10 0
-9 7 4 30 10 16 20 27 22 25 3 -3 1 -11 -4 -18 -5 -7 0 -3 10 9 24 29 44 13
42 -34z m244 48 c0 -5 -7 -7 -15 -4 -11 5 -14 2 -9 -12 6 -15 4 -16 -6 -7 -7
6 -9 16 -6 22 9 14 36 15 36 1z m-1710 -20 c0 -5 -7 -7 -15 -4 -8 4 -15 8 -15
10 0 2 7 4 15 4 8 0 15 -4 15 -10z m-80 -10 c0 -5 -7 -7 -15 -4 -8 4 -15 8
-15 10 0 2 7 4 15 4 8 0 15 -4 15 -10z m1270 0 c0 -5 -4 -10 -9 -10 -6 0 -13
5 -16 10 -3 6 1 10 9 10 9 0 16 -4 16 -10z m26 -5 c-3 -8 -1 -15 3 -15 5 0 11
5 13 10 2 7 9 6 20 -2 12 -8 15 -18 9 -26 -12 -20 -73 12 -65 33 4 8 11 15 16
15 6 0 8 -7 4 -15z m567 -30 c15 -14 27 -28 27 -31 0 -10 -36 16 -65 46 -35
38 -6 26 38 -15z m-719 29 c9 -3 16 -15 16 -27 0 -11 3 -18 6 -15 3 4 22 -12
42 -34 20 -22 46 -44 57 -48 19 -9 19 -9 -2 -9 -12 -1 -25 -6 -29 -13 -4 -7
-3 -8 4 -4 6 4 22 1 34 -6 13 -7 48 -13 78 -13 48 0 55 -2 52 -18 -2 -13 2
-18 14 -15 25 4 26 48 2 48 -11 0 -17 4 -13 9 3 5 0 13 -6 17 -8 4 -9 3 -5 -4
4 -7 2 -12 -4 -12 -7 0 -10 6 -7 13 2 6 14 11 26 10 11 -2 21 1 21 5 0 4 24 6
52 5 124 -5 146 -5 166 1 15 5 24 1 32 -14 6 -11 8 -24 6 -29 -3 -5 1 -11 9
-15 8 -3 15 -15 15 -26 0 -14 4 -19 12 -14 7 5 9 2 5 -9 -4 -12 -2 -14 10 -10
12 5 14 3 8 -7 -5 -8 -4 -11 3 -6 13 8 6 30 -19 67 -37 53 -40 75 -15 98 13
12 32 23 44 24 12 0 18 6 15 14 -3 7 2 13 12 13 10 0 13 -5 9 -12 -4 -7 -3 -8
4 -4 12 7 18 3 74 -49 31 -28 52 -85 26 -69 -6 4 -8 3 -4 -4 8 -13 -11 -64
-27 -74 -9 -6 -9 -8 1 -8 27 0 -2 -23 -71 -56 -77 -37 -123 -44 -113 -19 3 8
1 15 -4 15 -6 0 -10 -6 -10 -14 0 -21 -23 -25 -38 -7 -11 14 -11 14 -5 -3 4
-12 2 -17 -3 -13 -6 3 -16 -3 -24 -13 -11 -15 -17 -17 -34 -8 -19 10 -20 10
-7 -5 12 -15 10 -17 -23 -17 -20 0 -36 -5 -36 -11 0 -5 -5 -7 -11 -3 -7 4 -7
9 -2 13 11 7 58 141 55 154 -1 5 6 6 17 2 11 -3 22 -1 26 5 4 6 -4 10 -18 10
-20 0 -23 4 -19 25 3 18 0 25 -12 25 -9 0 -16 -8 -16 -17 0 -9 -8 -25 -17 -36
-11 -12 -12 -17 -4 -12 10 6 12 4 6 -5 -4 -7 -9 -23 -11 -34 -5 -35 -12 -59
-25 -91 -7 -16 -11 -34 -10 -39 1 -5 -12 -6 -29 -2 -22 4 -29 2 -24 -6 5 -8
-2 -9 -25 -5 -18 4 -30 3 -27 -1 2 -4 -20 -5 -49 -4 -44 3 -57 8 -70 28 -8 13
-13 24 -9 24 3 0 -6 14 -21 31 -14 18 -24 38 -21 46 4 9 2 11 -6 7 -8 -5 -9
-2 -5 10 5 11 3 15 -5 10 -8 -5 -9 -1 -4 12 4 10 4 15 0 11 -4 -4 -29 30 -56
75 -40 70 -45 85 -33 94 8 6 12 14 9 17 -4 3 -4 18 0 32 6 25 27 32 60 19z
m593 -14 c-1 -11 -7 -20 -15 -20 -7 0 -11 -4 -8 -9 9 -13 -15 -28 -57 -36 -34
-7 -39 -5 -35 11 2 10 17 21 37 26 18 5 42 18 54 29 26 24 26 24 24 -1z m-358
-32 c1 6 5 12 11 12 5 0 7 -7 4 -15 -7 -17 -13 -18 -33 -6 -8 5 -10 14 -6 22
6 9 10 8 16 -7 4 -10 8 -13 8 -6z m-309 -8 c0 -5 -4 -10 -10 -10 -5 0 -10 5
-10 10 0 6 5 10 10 10 6 0 10 -4 10 -10z m374 -6 c3 -8 10 -12 16 -9 5 3 10 1
10 -4 0 -6 -9 -11 -20 -11 -11 0 -20 4 -20 10 0 5 -7 7 -15 4 -8 -4 -15 -2
-15 3 0 26 35 31 44 7z m99 -12 c3 10 8 11 26 1 26 -16 34 -16 25 -1 -5 7 -3
8 5 3 28 -16 -16 -29 -92 -26 -16 1 -26 5 -22 11 4 6 11 8 16 5 5 -4 9 -1 9 6
0 9 3 9 14 0 11 -9 15 -9 19 1z m-201 -18 c-21 -17 -50 -17 -80 -1 -20 12 -16
13 38 13 51 1 57 -1 42 -12z m78 -16 c0 -5 -9 -4 -20 2 -15 8 -23 6 -40 -12
-21 -23 -70 -36 -70 -18 0 5 8 10 18 10 9 0 30 9 45 19 28 18 67 18 67 -1z
m-608 -35 c3 -39 -4 -59 -29 -85 -14 -15 -29 -25 -33 -23 -9 6 0 54 11 61 5 3
2 18 -6 35 l-16 29 36 0 c26 0 35 -4 37 -17z m1134 -58 c-3 -20 -16 -32 -16
-15 0 9 -5 7 -15 -6 -14 -18 -14 -17 -4 9 13 28 39 38 35 12z m-3511 -15 c7
-23 -2 -43 -16 -35 -12 8 -12 55 0 55 5 0 12 -9 16 -20z m2690 -20 c9 -16 13
-30 11 -30 -3 0 -12 14 -21 30 -9 17 -13 30 -11 30 3 0 12 -13 21 -30z m-2659
-82 c9 -29 19 -59 22 -65 3 -9 -8 -13 -37 -13 l-41 0 0 65 c0 57 2 65 19 65
14 0 24 -13 37 -52z m2698 -53 c20 -37 22 -44 6 -25 -22 26 -70 114 -70 127 0
9 20 -23 64 -102z m1269 74 c-4 -15 -8 -17 -14 -8 -6 11 4 28 18 29 0 0 -1 -9
-4 -21z m-1938 -39 c-5 -8 -11 -8 -17 -2 -6 6 -7 16 -3 22 5 8 11 8 17 2 6 -6
7 -16 3 -22z m1980 -10 c3 -5 1 -10 -4 -10 -6 0 -11 5 -11 10 0 6 2 10 4 10 3
0 8 -4 11 -10z m87 -83 c18 -29 38 -58 45 -65 16 -17 17 -26 1 -16 -7 4 -8 3
-4 -5 12 -19 -13 -41 -46 -41 -27 0 -30 2 -24 26 6 21 4 25 -11 22 -13 -3 -17
-12 -16 -33 1 -17 -1 -25 -5 -19 -8 11 -56 13 -67 2 -4 -3 -19 -3 -34 2 -16 4
-34 4 -41 0 -7 -4 -21 -5 -32 -2 -19 5 -18 7 13 34 18 16 38 27 45 24 6 -2 11
3 10 11 0 9 5 18 13 21 9 3 11 0 6 -8 -5 -9 -4 -11 4 -6 6 4 9 12 6 17 -4 5
-1 9 4 9 15 0 14 37 -1 46 -8 5 -9 2 -5 -9 3 -9 3 -18 -1 -21 -5 -3 -9 11 -10
30 -3 32 10 45 23 24 10 -16 25 -12 25 8 0 14 2 15 10 2 6 -9 5 -17 -2 -21
-12 -8 -3 -14 34 -23 18 -4 30 -15 34 -30 4 -16 11 -23 20 -19 11 4 11 7 -1
20 -8 8 -15 19 -15 24 0 5 -7 9 -16 9 -11 0 -15 6 -11 20 3 11 1 20 -4 20 -5
0 -9 5 -9 11 0 19 26 -8 62 -64z m-1320 -6 c87 -6 137 -5 195 5 l77 14 34 -33
c53 -51 58 -65 25 -78 -15 -6 -35 -17 -43 -24 -11 -10 -60 -14 -188 -17 -94
-2 -172 0 -172 4 0 4 15 19 34 33 30 23 61 65 37 51 -8 -6 -186 30 -203 40 -4
3 -8 11 -8 18 0 10 11 11 48 4 26 -4 100 -12 164 -17z m-2747 9 c-3 -5 -21
-10 -40 -10 -19 0 -37 5 -40 10 -4 6 12 10 40 10 28 0 44 -4 40 -10z m2052
-23 c-13 -29 -44 -39 -33 -11 3 9 6 19 6 24 0 7 30 19 37 15 2 -1 -3 -13 -10
-28z m-2047 -7 c0 -5 -18 -10 -40 -10 -22 0 -40 5 -40 10 0 6 18 10 40 10 22
0 40 -4 40 -10z m2535 0 c3 -5 -3 -10 -15 -10 -12 0 -18 5 -15 10 3 6 10 10
15 10 5 0 12 -4 15 -10z m-2515 -30 c0 -5 -25 -10 -55 -10 -30 0 -55 5 -55 10
0 6 25 10 55 10 30 0 55 -4 55 -10z m2643 -7 c18 -10 34 -19 36 -20 2 -2 -8
-14 -22 -27 -29 -27 -42 -29 -217 -26 -96 1 -111 3 -90 13 14 6 31 17 38 24 6
6 21 15 32 18 11 4 18 10 15 15 -8 14 16 18 98 19 58 1 87 -4 110 -16z m-2633
-33 c0 -6 -27 -10 -60 -10 -33 0 -60 4 -60 10 0 6 27 10 60 10 33 0 60 -4 60
-10z m4089 -31 c-19 -12 -24 -2 -8 17 9 11 14 13 17 4 3 -7 -2 -16 -9 -21z
m-989 6 c11 -13 6 -15 -36 -15 -45 1 -48 2 -30 15 25 19 50 19 66 0z m-3090
-4 c0 -13 -29 -18 -82 -13 -27 2 -45 8 -42 13 7 12 124 12 124 0z m795 -1 c3
-5 -1 -10 -10 -10 -9 0 -13 5 -10 10 3 6 8 10 10 10 2 0 7 -4 10 -10z"/>
<path d="M2630 6436 c0 -8 -6 -17 -12 -19 -8 -3 -6 -6 5 -6 11 -1 17 6 17 19
0 11 -2 20 -5 20 -3 0 -5 -6 -5 -14z"/>
<path d="M2711 6435 c15 -15 94 -24 106 -12 3 4 -17 7 -45 7 -29 0 -52 5 -52
10 0 6 -5 10 -12 10 -8 0 -7 -5 3 -15z"/>
<path d="M2784 6389 c-7 -11 4 -29 17 -29 6 0 17 6 24 14 12 12 11 15 -11 19
-13 2 -27 0 -30 -4z"/>
<path d="M3048 6389 c-10 -5 -18 -20 -18 -33 0 -13 -7 -29 -15 -36 -21 -17
-12 -24 14 -10 13 7 21 21 21 38 1 26 1 26 16 7 l16 -20 -3 20 c-2 11 0 26 4
33 10 15 -11 16 -35 1z"/>
<path d="M2985 6369 c-4 -6 -5 -12 -2 -15 2 -3 7 2 10 11 7 17 1 20 -8 4z"/>
<path d="M2113 6323 c9 -2 25 -2 35 0 9 3 1 5 -18 5 -19 0 -27 -2 -17 -5z"/>
<path d="M2910 6196 c0 -8 4 -17 9 -20 5 -4 7 3 4 14 -6 23 -13 26 -13 6z"/>
<path d="M2500 6055 c-16 -9 -19 -14 -9 -15 8 0 24 7 35 15 24 18 7 19 -26 0z"/>
<path d="M1998 6013 c6 -2 18 -2 25 0 6 3 1 5 -13 5 -14 0 -19 -2 -12 -5z"/>
<path d="M1560 6361 c0 -5 7 -11 15 -15 8 -3 15 -1 15 3 0 5 -7 11 -15 15 -8
3 -15 1 -15 -3z"/>
<path d="M1444 6033 c14 -17 16 -23 5 -23 -10 0 -10 -3 -3 -8 7 -4 14 -18 17
-32 3 -16 4 -11 4 13 -1 25 -8 43 -22 55 -20 17 -20 17 -1 -5z"/>
<path d="M1970 5469 c0 -5 5 -7 10 -4 6 3 10 8 10 11 0 2 -4 4 -10 4 -5 0 -10
-5 -10 -11z"/>
<path d="M2037 5457 c-3 -9 1 -18 9 -21 16 -6 18 2 5 22 -7 11 -9 11 -14 -1z"/>
<path d="M1739 5423 c-13 -17 -13 -17 6 -3 11 8 22 16 24 17 2 2 0 3 -6 3 -6
0 -17 -8 -24 -17z"/>
<path d="M1993 5395 c-3 -9 -13 -15 -22 -13 -19 3 -100 -21 -118 -35 -21 -15
-15 -52 14 -97 27 -40 28 -41 78 -36 27 2 58 7 68 11 9 4 24 2 32 -5 19 -15
35 -4 34 23 -1 17 -2 18 -6 5 -5 -18 -28 -24 -37 -10 -6 10 19 43 27 35 4 -3
7 -2 7 4 0 6 -7 16 -15 23 -11 9 -13 16 -5 24 5 5 10 22 10 37 0 22 -4 26 -24
22 -13 -3 -27 1 -31 8 -6 9 -2 11 13 7 12 -4 20 -2 16 3 -9 14 -34 10 -41 -6z
m21 -56 c14 -17 26 -34 26 -39 0 -25 -15 -40 -41 -40 -18 0 -32 -7 -39 -20
-12 -22 -49 -27 -68 -8 -12 12 -17 80 -6 91 3 3 17 1 30 -5 28 -13 54 3 54 33
0 27 15 23 44 -12z m6 20 c0 -6 7 -9 15 -5 8 3 15 1 15 -4 0 -15 -26 -12 -40
5 -9 10 -9 15 -1 15 6 0 11 -5 11 -11z m-140 -13 c0 -2 -7 -9 -15 -16 -13 -11
-14 -10 -9 4 5 14 24 23 24 12z m-10 -56 c0 -5 -4 -10 -10 -10 -5 0 -10 5 -10
10 0 6 5 10 10 10 6 0 10 -4 10 -10z m140 -50 c0 -5 -9 -10 -21 -10 -11 0 -17
5 -14 10 3 6 13 10 21 10 8 0 14 -4 14 -10z"/>
<path d="M3335 5700 c-3 -5 -1 -10 4 -10 6 0 11 5 11 10 0 6 -2 10 -4 10 -3 0
-8 -4 -11 -10z"/>
<path d="M2880 5609 c0 -5 -4 -8 -8 -5 -4 2 -8 -4 -9 -14 -2 -17 0 -17 17 -3
11 9 17 20 14 25 -7 11 -14 10 -14 -3z"/>
<path d="M3590 5568 c0 -9 7 -19 16 -22 25 -10 27 -1 4 19 -17 15 -20 16 -20
3z"/>
<path d="M3225 5540 c-3 -5 -1 -10 4 -10 6 0 11 5 11 10 0 6 -2 10 -4 10 -3 0
-8 -4 -11 -10z"/>
<path d="M2860 5526 c0 -2 7 -6 15 -10 8 -3 15 -1 15 4 0 6 -7 10 -15 10 -8 0
-15 -2 -15 -4z"/>
<path d="M3025 5477 c-4 -9 -2 -24 4 -31 9 -11 9 -15 -1 -19 -9 -4 -7 -6 4 -6
9 -1 20 -6 24 -13 5 -8 -2 -9 -25 -5 -20 4 -30 3 -26 -3 3 -6 22 -10 40 -10
33 0 34 1 23 26 -9 20 -9 30 1 47 10 17 11 19 1 10 -11 -10 -16 -9 -26 5 -12
16 -13 16 -19 -1z"/>
<path d="M3353 5470 c2 -8 12 -16 23 -17 13 -2 15 -1 4 4 -8 3 -19 11 -23 17
-6 7 -7 6 -4 -4z"/>
<path d="M3378 5473 c7 -3 16 -2 19 1 4 3 -2 6 -13 5 -11 0 -14 -3 -6 -6z"/>
<path d="M3555 5450 c3 -5 8 -10 11 -10 2 0 4 5 4 10 0 6 -5 10 -11 10 -5 0
-7 -4 -4 -10z"/>
<path d="M3520 5419 c0 -5 5 -7 10 -4 6 3 10 8 10 11 0 2 -4 4 -10 4 -5 0 -10
-5 -10 -11z"/>
<path d="M2930 5411 c0 -6 4 -13 10 -16 6 -3 7 1 4 9 -7 18 -14 21 -14 7z"/>
<path d="M3430 5410 c0 -5 7 -7 15 -4 8 4 15 8 15 10 0 2 -7 4 -15 4 -8 0 -15
-4 -15 -10z"/>
<path d="M3465 5400 c-16 -7 -17 -9 -3 -9 9 -1 20 4 23 9 7 11 7 11 -20 0z"/>
<path d="M3124 5370 c-1 -17 2 -30 6 -30 10 0 21 41 14 52 -10 16 -19 7 -20
-22z"/>
<path d="M3163 5375 c0 -8 4 -12 9 -9 4 3 8 9 8 15 0 5 -4 9 -8 9 -5 0 -9 -7
-9 -15z"/>
<path d="M2976 5347 c3 -10 9 -15 12 -12 3 3 0 11 -7 18 -10 9 -11 8 -5 -6z"/>
<path d="M3085 5320 c3 -5 8 -10 11 -10 2 0 4 5 4 10 0 6 -5 10 -11 10 -5 0
-7 -4 -4 -10z"/>
<path d="M2983 5291 c0 -11 5 -18 9 -15 4 3 5 11 1 19 -7 21 -12 19 -10 -4z"/>
<path d="M3010 5285 c0 -8 4 -15 10 -15 5 0 7 7 4 15 -4 8 -8 15 -10 15 -2 0
-4 -7 -4 -15z"/>
<path d="M4230 5208 c0 -12 3 -18 7 -14 11 10 12 36 2 36 -5 0 -9 -10 -9 -22z"/>
<path d="M4153 5173 c-7 -2 -13 -11 -13 -18 0 -7 -6 -16 -12 -19 -7 -2 -2 -4
11 -2 14 2 28 12 32 24 8 22 5 25 -18 15z"/>
<path d="M4210 5170 c0 -5 5 -10 10 -10 6 0 10 5 10 10 0 6 -4 10 -10 10 -5 0
-10 -4 -10 -10z"/>
<path d="M2948 6793 c12 -2 30 -2 40 0 9 3 -1 5 -23 4 -22 0 -30 -2 -17 -4z"/>
<path d="M2618 6763 c6 -2 18 -2 25 0 6 3 1 5 -13 5 -14 0 -19 -2 -12 -5z"/>
<path d="M2728 6763 c7 -3 16 -2 19 1 4 3 -2 6 -13 5 -11 0 -14 -3 -6 -6z"/>
<path d="M2108 6663 c7 -3 16 -2 19 1 4 3 -2 6 -13 5 -11 0 -14 -3 -6 -6z"/>
<path d="M2288 6643 c6 -2 18 -2 25 0 6 3 1 5 -13 5 -14 0 -19 -2 -12 -5z"/>
<path d="M3922 6553 c-14 -5 -45 -73 -37 -81 2 -3 7 2 11 11 3 9 19 19 35 22
16 4 29 11 29 17 0 6 -9 8 -20 5 -11 -3 -18 -1 -14 4 3 5 14 9 25 9 10 0 19 5
19 10 0 10 -26 12 -48 3z"/>
<path d="M3865 6520 c-9 -17 -14 -37 -12 -43 2 -7 12 6 21 27 20 48 14 60 -9
16z"/>
<path d="M2142 6453 c37 -2 100 -2 140 0 40 1 10 3 -67 3 -77 0 -110 -1 -73
-3z"/>
<path d="M3746 6433 c-13 -13 -20 -15 -23 -5 -9 23 -25 12 -19 -12 3 -14 2
-28 -4 -31 -5 -3 -10 -11 -10 -18 0 -6 16 5 36 24 l35 34 -6 -27 c-5 -21 -3
-29 9 -34 26 -10 65 5 82 32 16 23 16 26 1 42 -14 13 -22 14 -47 5 -17 -6 -30
-7 -32 -2 -2 5 -12 2 -22 -8z m89 -13 c10 -16 -15 -40 -41 -40 -26 0 -31 19
-12 38 15 15 45 16 53 2z"/>
<path d="M3917 6423 c-25 -47 -41 -53 -32 -12 8 38 -4 31 -23 -14 -10 -23 -9
-29 3 -33 23 -9 44 3 55 31 6 15 17 25 30 25 12 0 20 7 20 16 0 13 -3 14 -14
5 -11 -9 -15 -9 -18 1 -3 8 -12 0 -21 -19z"/>
<path d="M3980 6418 c-27 -44 -25 -53 10 -54 18 -1 29 4 28 10 -2 6 7 21 20
34 26 26 21 42 -14 42 -17 0 -30 -10 -44 -32z m50 3 c0 -10 -30 -24 -37 -17
-3 3 -2 9 2 15 8 13 35 15 35 2z"/>
<path d="M4076 6443 c-8 -8 -36 -71 -36 -80 0 -2 15 -3 33 -1 17 2 30 8 27 13
-2 6 -11 8 -20 7 -10 -3 -12 0 -5 6 6 6 21 12 35 14 l25 5 -25 11 -25 11 28 0
c16 1 26 5 22 11 -7 12 -48 13 -59 3z"/>
<path d="M710 6380 c-12 -23 -35 -27 -26 -5 11 30 -12 14 -28 -19 -19 -40 -21
-55 -4 -38 14 14 42 16 33 2 -3 -5 -2 -10 3 -10 5 0 15 14 22 30 7 17 16 30
20 30 14 0 19 -27 7 -39 -6 -6 -8 -14 -4 -17 4 -4 23 10 42 32 37 42 47 68 15
39 -18 -16 -20 -16 -35 -1 -22 21 -32 20 -45 -4z"/>
<path d="M557 6353 c-8 -47 -1 -54 25 -23 19 24 20 25 15 3 -7 -33 10 -28 33
10 23 37 26 61 5 33 -13 -17 -15 -18 -15 -3 0 20 -11 22 -28 5 -9 -9 -12 -9
-12 0 0 28 -18 9 -23 -25z"/>
<path d="M3616 6329 c-13 -8 -15 -13 -6 -19 9 -6 9 -12 0 -30 -20 -37 -4 -33
18 5 12 19 26 35 32 35 5 0 10 5 10 10 0 13 -30 12 -54 -1z"/>
<path d="M3690 6321 c-10 -9 -26 -29 -36 -46 -10 -18 -12 -25 -4 -17 8 6 24
12 36 12 12 0 24 -6 27 -12 2 -7 9 4 16 25 7 20 16 37 20 37 16 0 20 -13 10
-32 -6 -10 -8 -24 -6 -31 2 -7 12 5 22 26 19 38 38 50 33 20 -2 -14 3 -17 22
-15 28 3 16 -14 -15 -20 -18 -5 -18 -6 -2 -13 20 -9 67 18 67 40 0 7 -10 16
-22 18 l-23 4 23 2 c12 0 22 5 22 10 0 5 -39 8 -86 8 -64 0 -90 -4 -104 -16z
m30 -11 c0 -5 -8 -10 -17 -10 -15 0 -16 2 -3 10 19 12 20 12 20 0z"/>
<path d="M3897 6304 c-19 -39 -15 -54 13 -54 13 0 27 14 40 41 12 23 19 43 16
46 -2 3 -12 -9 -21 -26 -20 -40 -39 -41 -30 -1 9 40 2 38 -18 -6z"/>
<path d="M4029 6338 c-1 -2 -3 -14 -4 -28 -1 -14 -6 -33 -10 -42 -14 -34 11
-18 28 17 9 19 22 35 28 35 10 0 8 -13 -9 -60 -4 -11 0 -10 15 3 21 18 21 18
25 0 3 -13 10 -7 27 25 23 45 23 70 -1 33 -14 -24 -33 -29 -25 -7 4 9 -3 16
-16 20 -23 6 -56 8 -58 4z"/>
<path d="M4150 6300 c-26 -51 -26 -52 13 -48 17 2 30 8 27 13 -2 6 -11 9 -20
7 -13 -2 -13 -2 0 7 8 6 23 11 33 11 25 0 21 18 -5 23 -19 4 -18 4 5 6 34 1
26 21 -8 21 -19 0 -30 -10 -45 -40z"/>
<path d="M512 6283 c-11 -4 -52 -73 -52 -88 0 -13 41 -3 73 19 l36 25 3 -22
c4 -31 47 -34 82 -6 52 41 7 92 -53 60 -11 -7 -21 -7 -23 -2 -4 11 -47 20 -66
14z m148 -39 c0 -17 -37 -37 -56 -30 -22 8 -17 36 9 45 27 10 47 4 47 -15z
m-110 6 c0 -12 -47 -36 -55 -28 -3 3 -3 13 1 22 7 17 54 23 54 6z"/>
<path d="M692 6240 c-11 -22 -15 -40 -10 -40 5 0 11 7 14 15 9 22 24 18 24 -5
0 -33 15 -23 38 25 12 25 18 45 13 45 -6 0 -13 -9 -16 -20 -3 -11 -11 -20 -16
-20 -5 0 -9 9 -9 20 0 32 -16 23 -38 -20z"/>
<path d="M786 6264 c-4 -12 -1 -14 14 -9 32 10 43 -4 26 -31 -18 -27 -20 -34
-7 -34 5 0 13 10 16 22 4 11 19 32 33 45 l25 23 -50 0 c-37 0 -53 -4 -57 -16z"/>
<path d="M3596 6202 c-9 -18 -15 -39 -13 -45 2 -7 12 3 21 21 9 18 15 39 13
45 -2 7 -12 -3 -21 -21z"/>
<path d="M3631 6196 c-25 -39 -27 -53 -6 -36 12 10 15 9 15 -5 0 -17 1 -17 22
1 12 10 18 13 14 7 -4 -7 -3 -13 2 -13 13 0 42 74 31 78 -5 2 -19 -7 -30 -20
-15 -16 -19 -18 -15 -6 10 32 -12 28 -33 -6z"/>
<path d="M3728 6198 c-31 -40 -36 -57 -13 -38 12 10 15 10 15 -4 0 -21 16 -21
24 1 6 15 8 15 16 3 7 -11 13 -6 25 24 19 46 11 60 -15 26 l-18 -24 -4 24 c-3
23 -4 22 -30 -12z"/>
<path d="M3832 6214 c-31 -21 -27 -68 5 -72 27 -4 76 41 71 66 -4 23 -47 27
-76 6z m58 -19 c0 -22 -47 -42 -62 -27 -8 8 -8 15 2 27 16 20 60 20 60 0z"/>
<path d="M3933 6217 c-5 -7 -15 -25 -21 -40 -11 -26 -11 -28 7 -22 11 3 22 1
26 -5 3 -6 11 -8 16 -4 5 3 7 9 4 13 -2 5 6 18 19 30 27 26 43 13 26 -20 -7
-11 -9 -23 -6 -26 3 -3 13 11 22 31 10 20 24 36 31 36 7 0 13 4 13 9 0 14
-127 12 -137 -2z m33 -22 c-26 -19 -42 -19 -26 0 7 8 20 15 29 15 13 -1 13 -3
-3 -15z"/>
<path d="M4071 6195 c-38 -44 -40 -58 -3 -40 16 9 28 11 30 5 6 -17 18 -11 30
15 29 63 -8 76 -57 20z m49 5 c0 -5 -7 -10 -16 -10 -8 0 -12 5 -9 10 3 6 10
10 16 10 5 0 9 -4 9 -10z"/>
<path d="M4152 6193 c-12 -23 -22 -45 -22 -48 0 -8 24 -6 40 5 13 9 13 11 1
19 -12 8 -12 12 -2 25 7 8 11 21 9 28 -3 7 -15 -6 -26 -29z"/>
<path d="M383 6150 c-12 -11 -17 -12 -20 -2 -8 21 -25 13 -22 -10 2 -13 0 -29
-5 -36 -19 -30 8 -24 35 8 28 34 29 34 23 8 -4 -20 -1 -29 14 -37 39 -21 96
18 90 61 -3 20 -9 23 -51 23 -29 0 -54 -6 -64 -15z m95 -22 c-3 -26 -43 -37
-62 -18 -8 8 -6 15 8 26 31 22 58 18 54 -8z"/>
<path d="M562 6135 c-26 -43 -49 -48 -27 -5 10 18 11 30 5 30 -15 0 -43 -71
-33 -81 17 -17 51 4 68 42 23 51 14 60 -13 14z"/>
<path d="M639 6129 c-33 -66 4 -75 69 -16 35 32 29 57 -13 57 -30 0 -37 -5
-56 -41z m71 12 c0 -11 -39 -41 -52 -41 -12 0 -9 25 4 38 14 14 48 16 48 3z"/>
<path d="M756 6163 c-6 -7 -36 -70 -36 -77 0 -1 16 -2 35 -3 20 -1 32 3 29 8
-7 11 14 39 28 39 6 0 8 -6 5 -14 -3 -8 0 -21 6 -30 17 -22 65 -8 90 27 17 22
18 29 7 42 -16 19 -44 19 -75 -1 -23 -15 -25 -15 -25 0 0 17 -49 23 -64 9z
m44 -22 c0 -9 -24 -21 -42 -21 -6 0 -6 6 2 15 14 16 40 20 40 6z m105 -1 c10
-16 -14 -40 -41 -40 -31 0 -41 20 -19 37 22 16 51 17 60 3z"/>
<path d="M940 6130 c-23 -45 -27 -75 -6 -47 7 9 20 17 28 17 9 0 26 8 39 18
28 23 20 52 -15 52 -20 0 -30 -9 -46 -40z m60 11 c0 -10 -30 -24 -37 -17 -3 3
-2 9 2 15 8 13 35 15 35 2z"/>
<path d="M4190 6150 c-8 -16 -8 -18 4 -14 17 6 30 34 16 34 -5 0 -14 -9 -20
-20z"/>
<path d="M3652 6086 c-14 -47 -9 -55 17 -32 19 17 20 17 23 -5 3 -22 6 -20 37
19 35 45 37 73 2 31 l-20 -24 -1 24 c0 23 -1 23 -19 7 -18 -17 -19 -17 -23 1
-3 12 -8 5 -16 -21z"/>
<path d="M3757 6085 c-21 -45 -21 -66 -1 -40 11 14 18 16 21 8 8 -21 20 -15
33 17 15 36 34 29 25 -9 -6 -25 -4 -24 34 13 40 39 50 66 11 31 -18 -16 -20
-16 -26 -1 -8 20 -40 21 -48 1 -3 -8 -10 -15 -15 -15 -6 0 -8 7 -5 15 12 31
-13 14 -29 -20z"/>
<path d="M3949 6120 c0 -3 -2 -22 -3 -43 l-3 -38 29 28 28 27 0 -26 c0 -14 7
-28 15 -32 33 -12 85 24 85 61 0 21 -4 23 -51 21 -27 -1 -55 -8 -61 -15 -9
-11 -13 -10 -24 4 -7 10 -14 16 -15 13z m122 -51 c-29 -23 -40 -24 -48 -3 -9
25 24 46 50 32 21 -11 21 -11 -2 -29z"/>
<path d="M4116 6091 c-22 -41 -20 -61 4 -61 21 0 60 53 59 80 0 8 -8 0 -16
-17 -9 -18 -23 -33 -30 -33 -16 0 -16 5 -2 32 6 11 8 22 6 25 -3 3 -13 -9 -21
-26z"/>
<path d="M462 6033 c-25 -22 -57 -73 -46 -73 5 0 18 7 28 15 25 19 36 19 36 0
0 -26 18 -16 29 16 6 18 11 38 11 45 0 20 -34 17 -58 -3z m38 -13 c0 -5 -7
-10 -16 -10 -8 0 -12 5 -9 10 3 6 10 10 16 10 5 0 9 -4 9 -10z"/>
<path d="M575 6010 c-10 -22 -15 -43 -12 -46 20 -20 107 35 107 67 0 15 -7 19
-38 19 -36 0 -40 -3 -57 -40z m75 10 c0 -5 -13 -16 -30 -25 -28 -15 -30 -14
-30 3 0 10 3 22 7 25 10 11 53 8 53 -3z"/>
<path d="M687 6029 c-8 -13 -18 -35 -21 -49 -7 -24 -6 -24 8 -6 9 11 16 24 16
29 0 5 6 4 14 -2 7 -6 21 -9 30 -5 9 3 16 1 16 -4 0 -6 -12 -12 -27 -14 -23
-4 -25 -6 -10 -12 11 -5 27 -2 45 10 28 19 97 30 87 13 -4 -5 -17 -9 -31 -9
-14 0 -22 -4 -19 -10 10 -16 40 -11 63 11 26 23 21 39 -11 39 -17 0 -19 2 -8
9 8 5 20 7 28 4 7 -3 13 0 13 6 0 18 -42 12 -65 -9 -17 -16 -27 -18 -50 -11
-24 8 -26 9 -8 10 12 1 25 6 28 11 9 15 -39 12 -53 -2 -10 -10 -15 -10 -21 1
-7 11 -12 9 -24 -10z"/>
<path d="M3694 5986 c-41 -41 -45 -61 -8 -44 20 10 27 9 34 -2 6 -10 13 -3 24
25 19 46 19 42 0 49 -10 4 -28 -6 -50 -28z m36 -6 c0 -5 -4 -10 -10 -10 -5 0
-10 5 -10 10 0 6 5 10 10 10 6 0 10 -4 10 -10z"/>
<path d="M3765 5970 c-10 -22 -16 -42 -14 -44 2 -2 15 1 29 6 19 7 21 11 10
18 -11 7 -12 14 -2 34 6 14 8 26 3 26 -4 0 -16 -18 -26 -40z"/>
<path d="M3828 6005 c-13 -22 -19 -75 -8 -75 6 0 13 7 16 15 4 8 11 15 16 15
6 0 8 -7 5 -15 -13 -33 13 -22 42 17 33 44 33 70 1 28 l-20 -25 0 24 c0 23 -1
23 -19 7 -18 -17 -19 -17 -23 1 -2 10 -6 14 -10 8z"/>
<path d="M3930 5974 c-34 -39 -34 -52 0 -34 15 8 25 8 34 1 10 -9 16 -4 26 20
11 26 15 28 22 14 6 -10 5 -21 -2 -31 -21 -24 2 -15 33 14 17 15 27 21 23 15
-5 -9 1 -13 21 -13 21 0 24 -3 13 -9 -8 -6 -18 -7 -22 -5 -4 3 -8 -2 -8 -11 0
-12 6 -15 23 -9 47 14 67 54 26 54 -12 0 -17 4 -14 11 4 6 13 8 21 5 7 -3 16
-1 20 5 9 15 -71 6 -90 -10 -13 -11 -17 -11 -22 3 -4 10 -18 16 -39 16 -25 0
-40 -8 -65 -36z m50 6 c0 -5 -7 -10 -16 -10 -8 0 -12 5 -9 10 3 6 10 10 16 10
5 0 9 -4 9 -10z"/>
<path d="M872 5970 c-7 -11 -9 -20 -4 -20 10 0 32 22 32 32 0 15 -15 8 -28
-12z"/>
<path d="M396 5933 c-9 -10 -36 -72 -36 -84 0 -16 25 -9 63 16 48 33 53 75 9
75 -16 0 -32 -3 -36 -7z m48 -22 c7 -10 -41 -44 -55 -39 -13 4 19 48 36 48 8
0 16 -4 19 -9z"/>
<path d="M487 5933 c-3 -5 -11 -24 -20 -43 l-14 -36 34 0 c18 0 32 4 30 10 -2
5 8 20 21 33 12 13 20 28 17 33 -7 12 -62 14 -68 3z m43 -22 c0 -10 -30 -24
-37 -17 -3 3 -2 9 2 15 8 13 35 15 35 2z"/>
<path d="M571 5905 c-38 -44 -40 -58 -4 -42 21 9 27 9 31 -1 6 -19 18 -14 30
13 32 69 -6 88 -57 30z m49 1 c0 -2 -7 -6 -15 -10 -8 -3 -15 -1 -15 4 0 6 7
10 15 10 8 0 15 -2 15 -4z"/>
<path d="M665 5915 c-28 -27 -31 -47 -11 -64 16 -13 76 4 76 22 0 6 7 1 16
-12 13 -18 22 -21 43 -16 14 4 34 14 44 22 21 20 22 62 1 70 -17 6 -84 -21
-84 -35 0 -4 -16 -6 -35 -4 -36 4 -50 -13 -17 -21 10 -3 6 -5 -10 -6 -19 -1
-28 4 -28 14 0 17 30 35 59 35 12 0 21 5 21 10 0 20 -51 10 -75 -15z m168 -1
c9 -9 -9 -41 -28 -48 -20 -7 -45 3 -45 20 0 23 56 45 73 28z"/>
<path d="M866 5894 c-19 -41 -15 -59 5 -22 l13 23 5 -23 c9 -35 20 -31 41 16
10 23 15 42 10 42 -5 0 -12 -10 -16 -22 l-7 -23 -8 23 c-12 31 -23 28 -43 -14z"/>
<path d="M3723 5895 c-31 -13 -50 -46 -38 -65 13 -20 63 -11 84 16 26 33 26
41 3 53 -11 6 -28 5 -49 -4z m42 -15 c10 -16 -15 -40 -41 -40 -28 0 -32 24 -6
39 22 13 39 14 47 1z"/>
<path d="M3952 5902 c-18 -3 -21 -8 -16 -27 3 -12 1 -26 -5 -29 -13 -9 -15
-26 -2 -26 5 0 14 13 21 29 13 32 40 49 40 26 0 -7 -4 -17 -10 -20 -5 -3 -10
-13 -10 -22 0 -14 2 -14 19 1 18 17 19 17 23 -1 3 -13 10 -7 26 25 12 23 18
42 13 42 -5 0 -11 -7 -15 -15 -3 -8 -10 -15 -17 -15 -6 0 -9 6 -6 14 6 15 -22
24 -61 18z"/>
<path d="M4088 5903 c-10 -2 -18 -6 -18 -8 0 -1 -7 -19 -15 -39 l-15 -36 35 0
c38 0 49 19 13 21 -18 1 -17 3 6 8 28 6 35 28 9 25 -7 -1 -10 3 -7 8 3 5 12 7
20 4 7 -3 16 -1 19 3 4 7 -21 25 -28 20 -1 -1 -10 -3 -19 -6z"/>
<path d="M3796 5864 c-9 -20 -14 -39 -11 -42 3 -4 8 4 12 16 7 27 23 29 23 2
0 -32 18 -23 40 20 11 22 16 40 11 40 -5 0 -11 -7 -15 -15 -3 -8 -10 -15 -16
-15 -5 0 -10 7 -10 15 0 26 -16 16 -34 -21z"/>
<path d="M931 5858 c-17 -27 -9 -33 13 -9 10 10 13 21 9 24 -5 3 -15 -3 -22
-15z"/>
<path d="M585 5810 c-3 -11 -13 -20 -20 -20 -9 0 -12 6 -9 15 5 12 -3 15 -39
15 -44 0 -71 -14 -45 -22 10 -4 10 -10 0 -33 -7 -15 -11 -30 -8 -33 3 -2 13
12 22 32 18 36 53 53 39 19 -4 -10 -10 -27 -13 -38 -5 -19 -4 -19 15 -2 24 21
34 22 27 2 -4 -8 -2 -15 2 -15 13 0 54 89 44 95 -5 3 -11 -4 -15 -15z"/>
<path d="M845 5814 c-21 -11 -30 -12 -36 -3 -4 8 -15 -4 -29 -30 -22 -45 -21
-69 2 -32 16 26 30 27 26 4 -4 -26 33 -28 60 -3 29 28 28 40 -5 40 -21 0 -24
3 -14 9 8 5 20 7 28 4 7 -3 13 0 13 5 0 19 -16 21 -45 6z m5 -54 c-20 -13 -33
-13 -25 0 3 6 14 10 23 10 15 0 15 -2 2 -10z"/>
<path d="M605 5780 c-21 -46 -14 -66 8 -24 8 15 17 22 21 16 3 -5 16 -8 29 -5
15 4 19 2 12 -5 -5 -5 -19 -12 -30 -14 -19 -5 -19 -5 -2 -13 12 -5 27 -1 44
11 31 23 31 37 1 44 -16 4 -19 8 -10 14 6 4 16 5 21 1 5 -3 12 -1 16 5 10 16
-33 12 -61 -6 -22 -15 -24 -15 -18 0 13 35 -14 14 -31 -24z"/>
<path d="M3795 5792 c-11 -7 -55 -67 -55 -74 0 -2 16 -4 35 -5 22 -1 35 4 35
11 0 7 9 21 20 31 11 10 20 24 20 32 0 14 -38 18 -55 5z m15 -32 c-24 -15 -37
-11 -16 5 11 8 22 12 25 9 3 -3 -1 -9 -9 -14z"/>
<path d="M3905 5772 c-10 -17 -25 -34 -32 -36 -17 -7 -16 0 3 29 9 14 12 25 6
25 -10 0 -52 -60 -52 -74 0 -3 13 -6 29 -6 23 0 34 8 50 36 12 20 20 41 18 47
-2 6 -12 -3 -22 -21z"/>
<path d="M4025 5793 c-11 -3 -28 -12 -37 -21 -16 -14 -18 -14 -18 1 0 26 -16
20 -39 -12 -23 -32 -30 -68 -7 -38 16 21 26 22 26 2 0 -25 17 -17 40 21 25 40
36 40 20 -1 -13 -35 -4 -45 16 -17 8 12 21 22 29 22 7 0 21 7 30 16 26 27 -5
40 -60 27z"/>
<path d="M366 5703 c-12 -13 -37 -76 -31 -81 2 -3 7 2 11 11 3 9 19 19 35 22
16 4 29 11 29 17 0 6 -9 8 -20 5 -11 -3 -18 -1 -14 4 3 5 14 9 25 9 10 0 19 5
19 10 0 12 -43 14 -54 3z"/>
<path d="M425 5674 c-20 -48 -20 -49 16 -50 20 -1 29 3 25 11 -2 7 4 21 15 31
28 26 24 44 -11 44 -25 0 -32 -6 -45 -36z m42 -1 c-9 -9 -19 -14 -23 -11 -10
10 6 28 24 28 15 0 15 -1 -1 -17z"/>
<path d="M510 5678 c-29 -48 -26 -65 10 -60 33 5 40 18 13 25 -14 3 -11 6 10
11 33 10 35 23 5 29 -20 4 -19 4 5 6 34 1 36 21 2 21 -18 0 -31 -10 -45 -32z"/>
<path d="M590 5678 c-29 -48 -26 -65 10 -60 37 5 50 22 18 22 -19 1 -20 2 -7
10 10 6 34 6 60 1 33 -7 37 -9 16 -10 -18 -1 -27 -6 -24 -13 5 -16 37 -11 60
9 24 22 21 33 -9 33 -14 0 -23 4 -19 10 3 6 15 10 26 10 10 0 19 5 19 10 0 17
-33 11 -55 -10 -17 -16 -27 -19 -46 -11 -24 10 -24 10 -1 10 31 1 28 21 -3 21
-18 0 -31 -10 -45 -32z"/>
<path d="M754 5699 c-3 -6 -1 -15 7 -19 10 -7 10 -11 0 -24 -7 -8 -11 -21 -9
-27 2 -7 14 4 26 24 12 21 26 37 31 37 16 0 24 -40 11 -55 -7 -8 -9 -15 -4
-15 5 0 22 16 37 36 34 42 45 39 22 -5 -8 -17 -14 -31 -13 -32 5 -1 73 -2 96
0 12 0 22 5 22 10 0 5 -10 12 -22 14 -16 3 -13 5 10 6 22 1 32 5 29 14 -2 6
-12 11 -21 11 -9 -1 -16 2 -16 7 0 5 11 9 25 9 14 0 25 5 25 10 0 6 -11 10
-25 10 -19 0 -31 -10 -46 -35 -12 -19 -27 -35 -35 -35 -17 0 -17 5 -3 32 15
29 -9 43 -34 20 -17 -16 -19 -15 -28 1 -11 19 -74 24 -85 6z"/>
<path d="M560 5588 c-37 -14 -60 -38 -60 -65 0 -27 18 -30 60 -8 25 13 29 13
34 0 15 -41 116 7 116 55 0 16 -6 20 -34 20 -18 0 -44 -8 -57 -18 -17 -13 -31
-16 -49 -11 -23 6 -23 7 -3 8 23 1 39 16 26 24 -5 3 -19 0 -33 -5z m130 -25
c0 -14 -34 -43 -50 -43 -24 0 -31 10 -19 31 9 18 69 28 69 12z m-145 -33 c-3
-5 -12 -10 -18 -10 -7 0 -6 4 3 10 19 12 23 12 15 0z"/>
<path d="M835 5573 c-14 -15 -25 -32 -25 -36 0 -13 59 37 59 51 1 18 -5 15
-34 -15z"/>
<path d="M723 5555 c-28 -43 -30 -70 -3 -35 l20 25 0 -22 c0 -33 16 -28 45 14
29 43 33 69 6 36 -18 -22 -19 -22 -24 -3 -7 29 -19 25 -44 -15z"/>
<path d="M785 5510 c-3 -5 -2 -10 4 -10 5 0 13 5 16 10 3 6 2 10 -4 10 -5 0
-13 -4 -16 -10z"/>
<path d="M120 3795 l0 -1195 2140 0 2140 0 0 1195 0 1195 -2140 0 -2140 0 0
-1195z m290 1170 c0 -2 -16 -12 -35 -21 -58 -27 -33 -26 29 1 53 23 68 25 172
23 l114 -3 -135 -59 c-74 -33 -133 -61 -131 -63 2 -2 73 26 158 62 l155 66 99
-3 99 -3 -90 -37 c-242 -98 -415 -171 -412 -175 2 -2 94 33 203 77 316 128
352 142 381 138 19 -2 -35 -28 -193 -92 -289 -117 -315 -128 -311 -133 2 -2
134 48 293 112 159 63 293 115 298 115 5 0 -3 -13 -18 -29 -21 -22 -88 -54
-248 -117 -120 -47 -217 -88 -215 -90 2 -3 57 16 122 41 65 25 130 45 144 43
23 -3 20 -5 -19 -20 l-45 -16 35 -1 c19 0 53 6 75 14 21 8 40 13 42 12 1 -2
-14 -23 -33 -47 -20 -25 -45 -62 -56 -83 -21 -42 -80 -76 -131 -77 -16 0 -26
-4 -22 -10 3 -5 28 -10 56 -10 27 0 49 -2 49 -5 0 -22 -29 -56 -59 -68 -92
-38 -91 -36 -22 -36 63 -1 63 -1 49 -23 -17 -27 -13 -58 8 -58 18 0 18 -19 0
-26 -8 -3 -17 -17 -21 -32 -3 -14 -14 -31 -23 -38 -16 -12 -16 -13 0 -19 9 -4
26 -1 37 5 18 9 22 8 27 -7 4 -10 17 -42 30 -72 30 -67 30 -75 -1 -99 -29 -23
-32 -32 -10 -32 20 0 19 -13 -5 -40 -24 -28 -20 -36 11 -20 21 12 22 11 15
-21 -4 -19 -9 -43 -11 -54 -1 -11 -30 -75 -64 -143 l-62 -122 -52 6 -53 6 -51
-56 -51 -56 -144 -30 c-79 -16 -159 -34 -178 -40 -19 -5 -43 -10 -52 -10 -17
0 -18 41 -18 740 l0 740 135 0 c74 0 135 -2 135 -5z m1547 -19 c26 -13 68 -34
93 -46 61 -29 153 -101 165 -128 5 -12 15 -22 21 -22 19 0 43 -62 50 -133 6
-62 5 -70 -16 -92 -24 -26 -49 -32 -65 -16 -6 5 -65 37 -133 71 -94 47 -121
65 -113 74 16 19 2 27 -34 20 -25 -4 -50 3 -116 37 -175 88 -320 107 -390 50
-12 -10 -31 -16 -41 -13 -22 5 -22 7 -4 35 8 12 17 42 21 67 7 47 37 105 58
114 7 2 112 5 234 5 214 1 223 0 270 -23z m451 19 c-11 -11 -68 -23 -68 -15 0
5 8 11 18 13 25 7 56 8 50 2z m141 1 c-5 -5 -193 -66 -203 -66 -3 0 -6 4 -6 9
0 13 138 59 179 60 19 1 32 -1 30 -3z m156 -5 c-6 -5 -85 -32 -176 -59 -91
-28 -173 -54 -183 -58 -14 -5 -17 -3 -14 11 2 14 38 30 148 66 130 43 250 64
225 40z m-185 -238 c-133 -137 -245 -249 -251 -251 -5 -2 -9 2 -9 8 0 14 480
489 493 490 5 0 -100 -111 -233 -247z m545 230 c-1 -10 -7 -17 -13 -16 -9 2
-125 -119 -271 -282 -20 -22 -62 -69 -94 -103 -33 -37 -54 -68 -51 -75 4 -7 3
-9 -1 -4 -5 4 -21 -5 -36 -19 -26 -25 -29 -25 -44 -10 -39 38 -135 4 -135 -48
0 -17 4 -15 20 11 33 54 99 54 134 1 8 -13 33 -84 55 -158 30 -102 38 -145 34
-177 -4 -31 0 -53 16 -85 11 -25 21 -60 21 -79 0 -28 4 -35 20 -35 11 0 20 1
20 2 0 1 -7 18 -15 38 -8 19 -14 39 -13 43 1 5 -8 27 -20 50 -27 52 -21 102
12 104 38 2 48 -2 74 -34 15 -18 43 -48 63 -67 20 -19 48 -58 63 -87 14 -29
31 -56 38 -60 12 -7 58 -92 58 -106 0 -3 27 -69 60 -147 l60 -141 -10 -62 c-5
-34 -20 -83 -33 -109 -13 -26 -18 -43 -10 -37 10 9 12 6 7 -19 -5 -24 6 -53
56 -148 80 -152 157 -271 183 -286 20 -10 20 -11 1 -25 -63 -48 -198 -85 -285
-78 -237 19 -223 15 -254 76 -13 27 -58 94 -99 149 -41 55 -69 100 -63 100 7
1 -4 9 -23 19 -19 9 -83 49 -142 88 -59 40 -116 74 -125 77 -10 4 -25 20 -33
36 -8 17 -46 82 -84 146 -46 76 -72 110 -77 102 -5 -7 -57 -20 -121 -30 -107
-16 -92 -17 67 -2 l70 6 23 -47 c13 -26 22 -49 20 -50 -2 -2 -77 -11 -168 -21
-91 -10 -154 -20 -141 -22 12 -2 91 4 173 13 125 14 152 15 159 4 4 -7 7 -15
5 -16 -1 -1 -84 -12 -184 -23 -147 -17 -186 -19 -204 -9 l-23 13 25 7 c23 6
22 7 -8 8 -36 1 -142 68 -223 140 -34 32 -53 40 -97 46 -101 13 -166 34 -190
63 -28 33 -222 307 -239 338 -10 17 -9 39 2 105 8 46 15 95 14 109 -1 32 -6
17 -14 -42 l-6 -48 -40 0 c-45 0 -65 17 -114 96 -37 60 -61 113 -75 164 -9 32
-8 46 6 72 37 74 78 128 96 128 25 0 78 -28 78 -40 0 -13 -7 -13 -31 1 -29 15
-57 2 -86 -42 -33 -50 -22 -64 16 -19 27 33 28 34 35 12 5 -13 16 -22 29 -23
55 -3 62 -5 65 -21 2 -11 -8 -23 -27 -32 -32 -17 -47 -47 -34 -69 17 -30 64
-79 70 -74 3 3 -4 18 -16 33 -26 33 -26 40 2 81 25 38 37 42 37 13 0 -11 3
-20 8 -20 6 0 56 92 58 109 3 23 17 61 23 61 4 0 22 34 40 75 32 72 91 142
111 130 5 -3 11 -1 15 5 3 5 10 10 14 10 4 0 -4 -33 -17 -72 -22 -65 -24 -80
-15 -133 17 -99 35 -130 95 -164 43 -25 64 -31 113 -31 78 0 176 24 237 57 64
35 176 152 157 164 -25 16 8 10 55 -10 40 -18 44 -23 40 -47 -3 -15 -7 -31
-10 -35 -2 -4 2 -27 10 -50 8 -24 14 -44 13 -44 -1 -1 -23 -9 -48 -19 -26 -9
-55 -26 -64 -36 -10 -11 -26 -20 -36 -20 -10 0 -21 -5 -24 -10 -4 -7 -14 -5
-28 5 -51 36 -108 11 -107 -47 1 -20 2 -19 14 8 16 35 40 48 65 35 40 -22 42
-35 16 -99 -14 -36 -25 -80 -24 -104 l1 -43 13 55 c16 67 35 120 44 120 3 0
12 -13 19 -28 6 -15 38 -59 69 -97 32 -39 56 -77 55 -87 -2 -9 2 -19 9 -23 8
-5 9 -1 4 14 -7 24 12 30 21 6 7 -16 -20 -48 -31 -37 -7 7 -12 8 -41 11 -8 0
-13 5 -10 10 4 5 -2 7 -13 4 -10 -3 -22 0 -25 6 -9 14 -46 14 -46 0 0 -5 -4
-8 -9 -5 -5 3 -11 -1 -15 -9 -3 -9 -18 -15 -36 -15 -26 0 -33 7 -59 58 -27 53
-29 64 -22 116 4 31 5 59 1 61 -8 5 -20 -54 -20 -102 l0 -31 -57 5 c-81 7
-132 -9 -187 -61 -47 -43 -47 -44 -41 -92 4 -27 11 -63 16 -81 11 -35 94 -118
136 -134 108 -42 237 -62 290 -45 10 3 28 22 41 41 12 19 29 35 37 35 13 0 55
-54 55 -70 0 -3 -17 -23 -38 -45 -78 -81 -172 -195 -172 -207 0 -7 19 6 41 30
22 23 47 42 55 42 8 0 14 5 14 11 0 6 13 28 30 49 27 35 35 38 94 45 52 5 70
3 93 -10 15 -10 -7 16 -49 56 -42 41 -86 93 -97 116 -22 44 -58 76 -74 66 -6
-3 -7 -1 -3 5 8 13 -50 50 -93 58 -44 9 -49 23 -16 52 28 23 34 24 111 18 46
-3 95 -11 110 -17 16 -5 100 -83 189 -172 88 -89 179 -173 202 -185 54 -29 49
-6 -5 31 -53 36 -97 78 -95 88 2 5 -4 9 -13 9 -15 0 -101 77 -93 83 2 2 30 16
62 32 42 21 62 38 74 62 8 19 28 46 42 62 15 16 25 33 24 38 -2 5 0 27 5 48
l8 39 23 -33 c22 -31 23 -33 5 -46 -11 -8 -14 -15 -7 -15 6 0 15 5 18 10 3 6
17 7 30 4 28 -7 37 5 29 44 -5 26 -10 30 -36 28 -17 0 -33 5 -35 12 -3 8 6 12
26 12 17 0 31 5 31 11 0 7 -11 8 -30 4 -18 -4 -30 -3 -30 4 0 10 26 28 45 30
24 4 -14 241 -38 241 -6 0 -23 12 -39 27 l-27 26 25 31 c14 17 47 53 72 80 26
27 51 57 57 67 5 10 39 51 75 91 83 94 74 87 -102 -90 -96 -95 -151 -143 -157
-137 -7 7 29 50 101 125 62 63 159 163 215 221 63 64 101 112 98 120 -3 8 5
20 17 28 23 14 23 14 4 -8 -11 -11 -17 -21 -14 -21 2 0 15 12 29 27 13 14 18
23 12 19 -16 -9 -17 6 -1 22 8 8 55 12 144 12 120 0 132 -2 129 -17z m19 -70
c-148 -169 -466 -523 -470 -523 -2 0 -4 6 -4 14 0 16 9 26 305 349 116 126
212 233 213 238 2 5 10 9 18 9 8 0 -19 -39 -62 -87z m174 51 c-3 -37 -3 -37
-83 -61 -44 -13 -83 -22 -87 -21 -4 2 15 29 43 61 46 51 55 57 90 57 40 0 40
0 37 -36z m807 6 c37 -16 72 -30 78 -30 35 -1 38 -17 12 -69 -76 -150 -44
-353 80 -516 l37 -47 -40 -42 c-62 -64 -80 -114 -97 -266 -13 -110 27 -246 93
-321 l31 -36 -44 -33 c-25 -19 -45 -36 -45 -39 0 -3 -14 -22 -32 -41 l-30 -35
27 40 c16 22 38 52 49 66 12 14 -4 -1 -36 -32 -35 -37 -70 -86 -95 -135 -37
-75 -38 -82 -38 -181 0 -57 -1 -103 -1 -103 -1 0 -22 9 -46 20 -137 60 -405
36 -538 -48 l-45 -28 4 84 c6 142 -24 242 -105 353 -31 42 -154 157 -192 178
-15 9 -13 14 20 48 51 52 88 132 99 211 12 81 2 240 -18 302 -21 63 -70 146
-109 186 l-34 34 38 24 c57 36 101 92 143 181 46 97 58 149 59 238 l0 67 354
0 354 0 67 -30z m48 23 c-7 -2 -19 -2 -25 0 -7 3 -2 5 12 5 14 0 19 -2 13 -5z
m186 3 c-2 -2 -32 -12 -67 -20 -68 -18 -106 -11 -57 10 27 12 134 20 124 10z
m81 -25 c0 -26 -106 -53 -120 -31 -11 19 -10 19 47 35 66 18 73 18 73 -4z
m-1720 -30 c0 -5 -59 -66 -131 -135 -123 -117 -176 -152 -197 -131 -4 4 -7 37
-7 73 0 37 -4 73 -8 80 -10 14 -22 9 173 71 175 55 170 54 170 42z m1720 -64
l0 -53 -98 -22 c-53 -12 -100 -22 -104 -22 -12 0 11 52 37 86 18 24 39 36 82
47 86 22 83 23 83 -36z m-186 3 c-31 -47 -37 -50 -23 -13 12 32 28 53 40 53 5
0 -3 -18 -17 -40z m-3214 6 c-14 -7 -36 -16 -50 -20 -14 -3 -7 3 15 14 45 22
74 27 35 6z m2275 -25 c0 -22 -3 -37 -7 -34 -5 2 -8 -2 -8 -10 0 -9 -19 -19
-47 -27 -27 -7 -86 -23 -133 -36 -126 -36 -131 -34 -70 34 49 54 58 59 144 84
123 35 121 36 121 -11z m-1668 -57 c-3 -3 -12 -4 -19 -1 -8 3 -5 6 6 6 11 1
17 -2 13 -5z m2793 -19 c0 -8 -4 -15 -9 -15 -5 0 -55 -11 -111 -24 -87 -21
-101 -22 -98 -8 2 10 32 22 93 37 111 28 125 29 125 10z m-1152 -17 c-2 -6
-67 -28 -144 -48 -76 -20 -150 -40 -163 -44 -17 -6 -22 -5 -19 5 3 8 61 29
139 50 74 19 141 38 149 41 25 10 42 9 38 -4z m-1828 -17 c0 -4 -16 -7 -35 -7
-41 1 -43 4 -12 15 23 9 47 4 47 -8z m2978 -13 c-5 -14 -215 -64 -225 -54 -4
3 -4 8 -1 11 7 7 153 43 221 54 5 0 7 -5 5 -11z m-1168 -18 c0 -5 -17 -14 -37
-19 -21 -5 -100 -26 -176 -45 -154 -41 -156 -41 -139 -23 12 11 296 93 335 96
9 0 17 -3 17 -9z m-1844 -47 c-8 -15 -15 -25 -16 -21 0 12 23 58 27 54 3 -2
-2 -17 -11 -33z m3014 -31 l0 -59 -87 -17 c-49 -10 -94 -19 -102 -19 -16 -2
-28 31 -30 79 -1 31 -1 31 87 51 136 32 132 33 132 -35z m-1190 33 c0 -8 -8
-18 -17 -23 -31 -16 -363 -95 -370 -88 -15 15 24 30 188 72 96 25 176 47 178
50 9 9 21 3 21 -11z m-1800 -25 c-7 -14 -7 -20 0 -20 5 0 10 5 10 10 0 6 7 10
15 10 8 0 15 -4 15 -8 0 -5 17 -9 38 -10 65 -1 135 -12 149 -24 9 -7 20 -8 36
-1 27 12 47 6 47 -13 0 -14 16 -17 102 -17 30 0 45 -4 41 -10 -4 -6 0 -8 10
-4 44 17 8 -76 -45 -116 -81 -61 -187 -96 -296 -98 -79 -2 -108 11 -141 61
-15 24 -15 24 3 10 17 -13 16 -10 -4 29 -18 36 -21 57 -18 106 2 36 11 73 21
89 20 30 33 35 17 6z m604 -31 c44 -22 85 -44 90 -49 5 -5 -3 -19 -18 -33
l-27 -25 -59 26 c-40 18 -60 33 -60 44 0 9 -5 20 -12 24 -8 5 -9 0 -6 -14 4
-13 2 -20 -4 -16 -5 3 -7 17 -4 29 3 13 1 27 -5 31 -8 4 -7 9 2 15 19 12 12
14 103 -32z m356 16 c-7 -9 -15 -13 -17 -11 -7 7 7 26 19 26 6 0 6 -6 -2 -15z
m791 -44 c-47 -65 -71 -77 -268 -125 -104 -25 -192 -46 -197 -46 -4 0 12 24
37 53 l45 52 179 46 c98 26 188 47 201 48 l23 1 -20 -29z m-2031 -22 c-30 -26
-84 -62 -70 -46 10 11 95 76 100 76 3 0 -11 -13 -30 -30z m3270 -23 c0 -17 -8
-20 -98 -36 -54 -10 -76 -10 -84 -2 -14 14 -5 18 87 36 91 18 95 18 95 2z
m-2196 -42 c6 -15 4 -15 -11 -3 -10 7 -20 15 -22 16 -2 2 3 3 11 3 9 0 19 -7
22 -16z m2196 -13 c0 -16 -12 -21 -70 -31 -85 -14 -84 -14 -88 2 -2 12 77 36
151 47 4 1 7 -8 7 -18z m-2231 -8 l22 -18 -51 -57 c-81 -91 -57 -87 31 6 45
47 85 86 91 86 5 0 11 -7 14 -15 4 -9 -23 -46 -72 -99 -65 -70 -81 -83 -93
-73 -10 8 -8 3 3 -15 10 -16 14 -28 9 -28 -6 0 -15 -10 -22 -22 l-12 -23 5 23
c2 12 0 22 -5 22 -14 0 -11 -37 4 -52 8 -7 12 -20 10 -28 -3 -10 -1 -10 7 2 6
9 17 15 25 12 8 -4 15 -1 15 6 0 6 -3 9 -7 7 -5 -3 -16 -2 -26 2 -15 5 -16 9
-5 24 16 22 50 13 41 -10 -4 -11 -2 -14 5 -9 7 4 12 2 12 -3 0 -6 6 -11 14
-11 22 0 28 -17 15 -41 -9 -17 -8 -24 6 -38 12 -11 19 -13 22 -4 5 13 33 6 33
-9 0 -5 -5 -6 -11 -2 -6 3 -15 1 -19 -6 -7 -11 -12 -10 -25 3 -9 10 -20 17
-24 17 -4 0 -8 13 -8 29 0 22 4 28 16 24 10 -4 9 0 -4 10 -17 14 -20 14 -23 1
-2 -9 -10 -13 -22 -9 -11 3 -20 0 -23 -10 -4 -8 -13 -12 -21 -9 -8 3 -12 12
-9 20 3 8 0 14 -7 14 -6 0 -9 4 -5 9 3 6 -3 9 -13 8 -13 -1 -18 -7 -14 -19 2
-10 8 -15 13 -12 5 3 6 -3 2 -12 -4 -12 -3 -15 5 -10 16 9 15 -7 0 -22 -8 -8
-8 -12 -1 -12 6 0 14 7 17 16 3 8 11 12 17 9 5 -4 16 0 22 9 11 14 14 14 32
-1 20 -15 20 -15 -2 -10 -28 6 -31 -9 -4 -18 21 -6 61 -39 61 -49 0 -4 -10 -4
-22 -1 -18 5 -19 4 -8 -4 18 -13 8 -24 -14 -15 -11 4 -15 13 -11 25 4 13 -2
22 -24 33 -35 19 -41 19 -41 5 0 -5 4 -8 8 -5 14 8 52 -23 46 -38 -3 -8 7 -23
22 -35 15 -12 24 -24 21 -28 -4 -3 -17 2 -28 13 -22 19 -22 19 -14 -5 5 -17 4
-22 -6 -19 -8 3 -14 15 -14 28 0 13 -7 25 -15 27 -13 4 -13 3 0 -6 13 -10 13
-12 0 -20 -12 -8 -9 -14 13 -31 15 -12 34 -28 42 -36 10 -10 15 -11 15 -4 0 7
7 10 15 6 13 -4 13 -2 5 14 -12 23 -13 30 -2 30 5 0 14 -11 20 -24 12 -26 34
-28 55 -6 10 12 9 12 -5 1 -12 -9 -18 -10 -18 -2 0 6 -5 10 -11 9 -6 -2 -13 2
-16 9 -3 8 8 10 35 8 27 -2 39 1 39 10 0 8 -11 13 -26 13 -43 -1 -52 2 -46 12
3 5 13 6 22 3 15 -6 16 -5 3 9 -10 11 -17 12 -22 5 -4 -6 -10 -8 -14 -4 -13
13 16 34 46 32 23 -1 29 2 26 12 -4 10 -1 11 13 4 10 -6 23 -16 29 -23 9 -11
5 -14 -19 -13 -16 0 -29 4 -29 8 0 5 -4 6 -10 2 -18 -11 1 -33 28 -32 15 0 37
-3 50 -7 14 -5 22 -3 22 4 0 6 4 8 10 5 24 -15 -32 -169 -66 -182 -7 -3 -33 5
-58 16 -36 15 -45 24 -40 38 5 14 4 15 -4 4 -9 -12 -21 -7 -67 29 -91 70 -201
195 -220 249 l-16 46 33 28 c32 27 107 67 127 67 5 0 0 17 -12 39 -18 33 -19
43 -9 65 20 45 83 59 121 29z m461 -18 c-7 -8 -18 -15 -24 -15 -6 0 -2 7 8 15
25 19 32 19 16 0z m425 5 c3 -5 5 -10 3 -10 -2 0 -90 -20 -196 -45 -105 -25
-199 -45 -209 -45 -15 0 -15 2 3 14 18 13 335 93 376 95 9 1 20 -3 23 -9z
m1345 -39 c0 -15 -10 -20 -57 -26 -32 -4 -60 -8 -63 -9 -3 0 -6 6 -8 15 -2 11
9 19 40 26 69 17 88 15 88 -6z m-1320 1 c0 -5 -26 -14 -57 -20 -32 -6 -127
-27 -212 -47 -138 -32 -176 -37 -159 -19 9 8 368 92 401 93 15 1 27 -3 27 -7z
m48 -64 c15 -28 19 -44 11 -48 -6 -4 -102 -26 -213 -49 -111 -23 -212 -44
-223 -47 -18 -5 -24 0 -34 35 -7 25 -9 45 -3 50 5 5 95 28 199 51 105 23 192
44 194 46 2 2 14 4 25 4 14 0 28 -14 44 -42z m-677 -49 c5 -11 7 -25 3 -32
-18 -29 -128 -152 -139 -155 -7 -2 -37 19 -66 47 l-54 50 84 85 84 85 39 -31
c21 -16 43 -39 49 -49z m1949 61 c0 -10 -25 -18 -69 -23 -34 -3 -38 21 -4 26
53 8 73 7 73 -3z m-2 -97 l-3 -58 -50 -7 c-27 -4 -60 -10 -74 -13 -20 -5 -22
-3 -17 12 13 34 51 83 64 83 7 0 10 5 6 11 -9 15 14 29 49 29 28 0 28 0 25
-57z m-1230 5 c-3 -7 -99 -32 -229 -59 -255 -54 -249 -53 -249 -36 0 8 75 28
223 59 247 51 260 53 255 36z m12 -42 c0 -18 2 -18 -215 -60 -122 -24 -194
-33 -220 -29 -32 5 -2 14 191 54 126 26 232 48 237 48 4 1 7 -5 7 -13z m-1198
-153 c66 -84 176 -176 257 -216 65 -32 71 -50 7 -23 -129 54 -332 260 -361
366 -4 15 4 8 19 -19 15 -24 49 -72 78 -108z m463 28 c-39 -53 -54 -61 -75
-36 -11 13 -8 19 14 40 14 13 26 27 26 31 0 5 12 21 27 36 l28 29 8 -25 c7
-20 1 -34 -28 -75z m745 75 c0 -10 -18 -18 -52 -25 -29 -5 -113 -21 -187 -36
-92 -18 -137 -23 -144 -16 -6 6 -9 13 -6 15 6 6 337 74 367 75 13 1 22 -5 22
-13z m1208 -23 c-3 -26 -8 -28 -73 -40 -96 -16 -105 -16 -105 5 0 31 15 41 70
51 101 16 112 15 108 -16z m-2176 -25 c-7 -7 -12 -8 -12 -2 0 14 12 26 19 19
2 -3 -1 -11 -7 -17z m978 3 c0 -8 -304 -71 -342 -71 -10 0 -18 4 -18 8 0 5 66
21 148 36 81 15 152 29 157 31 20 7 55 5 55 -4z m0 -75 c0 -25 -6 -48 -12 -53
-19 -11 -246 -50 -256 -44 -11 8 -65 81 -61 82 33 8 290 57 307 58 20 1 22 -4
22 -43z m1200 -56 l0 -99 -32 -6 c-113 -19 -154 -22 -162 -14 -13 11 -10 154
3 177 9 16 94 38 164 41 l27 1 0 -100z m-3401 34 c31 -16 33 -19 28 -63 -2
-25 -10 -74 -17 -109 -10 -49 -10 -65 0 -77 16 -19 34 -19 27 -1 -7 18 69 -33
102 -68 14 -14 28 -26 33 -26 5 0 27 -17 49 -37 23 -21 50 -43 62 -50 33 -18
7 -15 -59 7 -62 21 -72 25 -145 58 -63 28 -141 23 -242 -17 -43 -17 -80 -31
-82 -31 -3 0 6 15 19 34 13 19 51 99 86 178 65 148 98 218 104 218 1 0 18 -7
35 -16z m1215 -10 c9 -24 7 -28 -9 -14 -17 14 -20 30 -6 30 5 0 12 -7 15 -16z
m-515 -10 c29 -6 61 -44 61 -72 0 -8 -128 26 -210 55 -41 15 88 29 149 17z
m801 -14 c0 -5 -7 -10 -15 -10 -8 0 -15 5 -15 10 0 6 7 10 15 10 8 0 15 -4 15
-10z m-322 -28 c2 -7 -2 -10 -12 -6 -9 3 -16 11 -16 16 0 13 23 5 28 -10z
m-638 -2 c0 -5 -6 -10 -14 -10 -8 0 -18 5 -21 10 -3 6 3 10 14 10 12 0 21 -4
21 -10z m1650 -9 c0 -10 -6 -23 -12 -29 -21 -16 -201 -41 -215 -30 -23 18 -14
37 20 43 222 40 207 39 207 16z m-1692 -10 c11 -7 10 -10 -3 -15 -20 -7 -38 1
-30 15 7 11 16 11 33 0z m584 -24 c7 -7 26 -20 41 -30 23 -15 26 -21 16 -33
-16 -20 -3 -30 17 -13 16 13 16 12 5 -10 -9 -16 -10 -21 -1 -16 6 4 18 -1 25
-11 17 -23 19 -34 5 -34 -22 0 -140 129 -140 153 0 11 17 8 32 -6z m-337 -17
c3 -5 2 -10 -4 -10 -5 0 -13 5 -16 10 -3 6 -2 10 4 10 5 0 13 -4 16 -10z
m1400 -69 c-15 -27 -42 -63 -60 -81 l-32 -31 -16 39 c-9 22 -21 43 -27 47 -5
3 -10 19 -10 35 0 27 2 29 73 40 39 6 77 13 82 14 19 6 16 -14 -10 -63z m1255
-10 l0 -50 -57 -6 c-107 -13 -105 -14 -121 28 -8 20 -12 40 -9 43 4 5 53 14
180 33 4 0 7 -21 7 -48z m-2178 0 c41 -20 40 -34 -1 -24 -25 6 -41 19 -41 36
0 10 1 10 42 -12z m-351 -21 l24 -21 -32 16 c-32 15 -42 25 -24 25 5 0 19 -9
32 -20z m-208 -20 c61 -23 94 -41 122 -70 40 -41 35 -49 -21 -31 -16 5 -70 22
-121 37 -77 23 -93 31 -98 51 -13 52 5 54 118 13z m184 -16 c-7 -7 -37 7 -37
17 0 6 9 5 21 -1 11 -7 19 -14 16 -16z m-171 -73 c136 -34 192 -55 175 -65
-17 -11 -149 11 -209 34 -55 21 -126 62 -136 79 -4 5 6 3 21 -4 16 -8 82 -27
149 -44z m2724 -11 l0 -70 -36 0 c-31 0 -35 2 -24 15 10 12 10 15 -3 15 -19 0
-90 81 -80 91 7 7 49 13 116 17 l27 2 0 -70z m-2480 32 c0 -15 -2 -15 -10 -2
-13 20 -13 33 0 25 6 -3 10 -14 10 -23z m-825 -74 c17 -6 61 -27 99 -45 65
-31 255 -92 336 -107 23 -4 70 -35 135 -87 86 -69 234 -169 251 -169 12 0 104
-68 192 -142 50 -43 99 -78 106 -78 8 0 18 -4 21 -10 3 -5 0 -7 -8 -5 -37 15
-129 -90 -113 -130 8 -22 25 -19 19 4 -6 24 20 75 49 95 28 20 62 12 109 -25
20 -16 44 -29 52 -29 8 0 20 -7 27 -15 14 -16 1 -38 -45 -77 -20 -18 -20 -18
2 -18 12 0 31 12 42 27 27 34 36 24 21 -22 -19 -58 -64 -95 -115 -95 -50 0
-139 44 -205 102 -24 22 -83 62 -130 91 -47 28 -105 65 -130 82 -82 57 -284
181 -355 218 -83 43 -188 68 -306 75 -81 4 -88 6 -98 29 -7 14 -14 24 -16 21
-14 -14 173 -341 261 -456 44 -59 43 -88 -7 -178 l-40 -74 -67 0 c-67 1 -67 1
-100 43 -66 85 -184 242 -192 257 -7 11 -12 12 -20 4 -12 -12 59 -113 166
-241 24 -28 44 -54 44 -57 0 -3 -73 -6 -161 -6 l-162 0 -52 58 c-29 31 -56 54
-61 49 -4 -4 4 -20 17 -35 14 -15 33 -37 43 -49 l18 -22 -281 -1 -282 0 2 295
c1 267 2 295 17 295 15 0 15 2 2 10 -19 12 -26 150 -8 150 9 0 9 3 0 12 -7 7
-12 25 -12 40 0 22 6 31 28 39 59 22 225 60 392 90 238 41 272 50 359 94 45
23 81 22 156 -7z m-373 -15 c-6 -10 -25 -17 -48 -19 -22 -1 -31 0 -21 3 9 2
17 9 17 15 0 5 -7 7 -16 4 -8 -3 -12 -2 -9 4 3 6 24 10 46 10 34 0 39 -2 31
-17z m2398 2 c10 -12 10 -15 -3 -15 -8 0 -17 7 -21 15 -3 8 -2 15 3 15 5 0 14
-7 21 -15z m-1060 -40 c16 -19 14 -20 -27 -28 -37 -7 -40 -2 -16 25 20 22 27
22 43 3z m1144 -42 c43 -48 39 -63 -15 -63 -22 0 -29 8 -45 47 -11 27 -20 51
-22 55 -2 5 7 8 20 7 14 -1 38 -18 62 -46z m1196 28 c0 -15 -10 -19 -52 -25
-29 -3 -64 -6 -77 -6 -23 0 -23 1 -7 19 17 19 43 26 109 29 20 2 27 -3 27 -17z
m0 -56 c0 -15 -22 -20 -132 -30 -44 -4 -68 -3 -68 4 0 17 23 26 90 32 109 10
110 10 110 -6z m-1109 -42 c13 -16 12 -17 -3 -4 -17 13 -22 21 -14 21 2 0 10
-8 17 -17z m1109 -52 l0 -58 -62 -6 c-247 -24 -236 -27 -194 53 l24 45 98 11
c55 6 107 12 117 13 14 1 17 -8 17 -58z m-1131 35 c15 -18 -5 -26 -70 -26 -36
0 -49 4 -49 14 0 24 101 34 119 12z m841 -35 c-11 -22 -31 -77 -45 -123 -23
-75 -25 -78 -20 -33 5 45 66 195 80 195 3 0 -4 -18 -15 -39z m-805 -10 c8 -15
-5 -19 -84 -27 -61 -6 -73 -4 -69 7 4 12 29 18 130 27 9 1 19 -2 23 -7z m37
-86 c9 -24 14 -46 10 -49 -9 -5 -232 -20 -232 -15 0 2 6 24 14 49 15 50 28 56
136 59 l56 1 16 -45z m1058 -124 c0 -102 -3 -140 -12 -143 -7 -3 -40 -6 -73
-7 -33 -1 -287 -13 -565 -26 -278 -14 -508 -25 -512 -25 -11 0 -128 203 -128
223 0 11 30 17 123 24 75 7 126 7 132 1 6 -5 10 -53 9 -106 0 -54 4 -100 10
-104 5 -3 27 2 47 13 21 10 73 29 116 41 67 20 100 23 228 22 127 -1 159 -4
209 -22 75 -28 80 -27 31 3 -47 29 -40 33 14 6 l39 -18 7 71 c4 39 12 91 19
116 l11 45 120 11 c66 6 132 12 148 13 l27 1 0 -139z m-2140 100 c0 -8 -120
-24 -281 -37 -50 -4 -78 -3 -83 4 -4 7 13 13 46 16 29 4 87 10 128 15 103 12
190 13 190 2z m27 -48 c10 -16 27 -35 38 -43 19 -14 18 -15 -25 -22 -25 -3
-64 -7 -87 -7 -24 -1 -43 -5 -43 -9 0 -4 43 -4 96 1 l97 8 128 -87 c125 -84
157 -110 147 -119 -2 -3 -73 -8 -158 -12 -177 -9 -155 -17 -316 112 l-99 80
50 6 50 6 -62 1 c-53 2 -70 7 -108 34 -25 17 -45 35 -45 39 0 3 60 12 133 18
72 7 139 14 147 15 33 8 40 5 57 -21z m-1048 -3 c36 -5 72 -17 83 -27 11 -10
28 -17 39 -15 19 3 73 -21 102 -46 13 -12 14 -17 5 -23 -7 -4 -9 -11 -5 -15 3
-4 13 -1 21 5 16 13 56 6 56 -9 0 -5 -9 -33 -20 -62 -10 -29 -27 -87 -36 -128
-16 -72 -51 -167 -58 -159 -2 2 1 37 6 77 10 71 9 74 -18 113 -32 47 -114 117
-200 173 -51 33 -104 95 -104 120 0 9 56 7 129 -4z m-4 -180 c-4 -7 11 -17 33
-21 4 -1 29 -19 55 -42 36 -29 45 -42 35 -48 -9 -6 -4 -9 15 -9 26 0 28 -3 26
-37 -3 -73 -10 -102 -25 -96 -8 3 -11 9 -8 14 3 5 0 9 -6 9 -7 0 -10 6 -7 13
3 7 -4 19 -14 26 -11 6 -18 15 -15 19 3 5 -8 24 -25 43 -16 19 -29 39 -29 46
0 6 -9 19 -21 27 -12 8 -18 19 -15 24 3 6 -1 12 -9 16 -8 3 -15 12 -15 20 0
10 6 13 15 10 8 -4 13 -10 10 -14z m345 10 c0 -5 -4 -10 -10 -10 -5 0 -10 -5
-10 -12 0 -9 3 -9 12 0 22 22 44 12 67 -30 17 -33 19 -43 9 -51 -9 -6 -8 -7 5
-3 17 5 22 -7 19 -46 -1 -10 2 -18 7 -18 12 0 73 -160 67 -177 -3 -8 -2 -12 3
-9 5 3 11 -2 14 -12 2 -9 8 -24 11 -33 5 -11 1 -19 -10 -23 -21 -8 -45 11 -37
30 3 9 0 12 -9 9 -18 -7 -44 20 -28 30 12 7 4 25 -11 25 -6 0 -7 -4 -4 -10 11
-17 -7 -11 -21 7 -7 10 -15 15 -19 12 -3 -4 6 -20 20 -37 35 -42 31 -54 -5
-13 -17 18 -30 36 -30 40 1 18 20 33 35 28 9 -4 14 -3 10 2 -3 5 1 12 7 15 7
3 2 3 -12 -1 -27 -7 -29 -7 -76 3 -24 4 -37 0 -62 -21 -17 -14 -36 -24 -42
-20 -6 4 -9 1 -8 -7 2 -7 -4 -13 -12 -13 -8 0 -18 -9 -23 -19 -4 -10 -10 -17
-13 -14 -9 9 19 58 29 51 6 -3 7 -1 3 6 -4 6 2 22 12 36 14 17 22 21 25 13 4
-8 6 -7 6 4 1 9 -4 18 -9 20 -12 4 12 105 34 147 8 14 19 45 25 69 10 37 31
59 31 32z m164 -172 c39 -91 106 -270 106 -285 0 -2 -6 -3 -14 -3 -8 0 -31 52
-61 137 -27 76 -63 171 -82 211 -25 57 -29 71 -15 63 9 -5 39 -60 66 -123z
m2656 103 l0 -29 -92 -6 c-51 -3 -226 -11 -388 -17 -162 -6 -371 -14 -465 -18
-144 -7 -173 -6 -187 7 -33 28 -22 42 32 42 65 0 938 39 970 44 14 1 49 4 78
5 51 1 52 1 52 -28z m-1730 -72 c7 -11 9 -23 6 -26 -3 -3 -68 -8 -145 -11
-131 -4 -141 -3 -167 17 -14 11 -25 22 -23 22 7 2 212 16 266 17 44 2 54 -1
63 -19z m1730 -39 l0 -60 -108 0 c-60 0 -150 -3 -200 -6 -81 -6 -92 -5 -92 10
0 23 -106 22 -240 -4 -58 -11 -135 -20 -172 -20 -58 0 -69 3 -79 21 -10 20
-17 21 -96 17 -82 -4 -85 -4 -104 23 -10 15 -19 29 -19 32 0 4 146 12 430 23
91 4 239 10 330 14 91 4 207 8 258 8 l92 2 0 -60z m-2522 3 c15 -10 29 -20 32
-24 3 -3 10 -8 15 -10 25 -10 124 -75 125 -81 0 -5 -12 -8 -27 -8 -20 0 -45
16 -82 50 -29 28 -56 50 -61 50 -4 0 -15 9 -25 20 -22 25 -13 26 23 3z m846
-51 l25 -49 -161 -7 c-89 -3 -162 -5 -163 -4 -1 2 -6 24 -9 50 l-7 47 113 4
c62 1 128 4 145 5 30 2 35 -2 57 -46z m760 -37 c3 -8 0 -15 -7 -16 -7 0 -8 -2
-1 -5 6 -2 8 -18 6 -35 -6 -38 -28 -47 -109 -43 -35 2 -63 -1 -63 -6 0 -5 -7
-7 -15 -4 -8 4 -15 2 -15 -2 0 -5 -24 -10 -53 -10 -28 -1 -43 0 -32 3 11 2 43
12 70 21 28 9 59 17 70 17 11 0 19 6 17 13 -3 18 58 43 80 31 24 -13 48 -11
25 2 -13 8 -15 14 -7 30 13 23 26 25 34 4z m916 -10 c0 -15 -19 -16 -342 -20
-33 0 -44 4 -46 18 -3 16 11 17 192 17 168 0 196 -2 196 -15z m-3016 -47 c-1
-24 2 -53 7 -65 6 -16 5 -23 -4 -24 -9 0 -9 -2 1 -6 25 -10 12 -33 -18 -33
-31 0 -35 6 -24 35 4 10 9 12 13 7 4 -6 7 16 8 48 1 49 7 80 16 80 1 0 1 -19
1 -42z m1356 18 c-22 -21 -345 -35 -338 -15 3 11 35 15 129 19 242 11 225 12
209 -4z m-642 -28 c2 -11 -2 -16 -10 -14 -7 2 -25 7 -40 10 -42 9 -34 28 9 24
27 -2 39 -8 41 -20z m2302 7 c0 -13 -28 -15 -190 -15 -162 0 -190 2 -190 15 0
13 28 15 190 15 162 0 190 -2 190 -15z m-1610 -40 c0 -5 -5 -3 -10 5 -5 8 -10
20 -10 25 0 6 5 3 10 -5 5 -8 10 -19 10 -25z m720 25 c0 -5 -5 -10 -11 -10 -5
0 -7 5 -4 10 3 6 8 10 11 10 2 0 4 -4 4 -10z m-770 -9 c0 -10 -344 -26 -360
-16 -30 18 17 25 181 25 98 0 179 -4 179 -9z m-1196 -60 l-7 -41 -46 0 c-32 0
-42 3 -31 9 8 6 19 7 25 4 5 -4 6 -2 2 3 -7 7 53 76 61 69 1 -1 0 -21 -4 -44z
m2856 29 c0 -18 -7 -20 -72 -21 -89 -1 -258 -1 -275 0 -7 1 -13 10 -13 21 0
19 7 20 180 20 173 0 180 -1 180 -20z m-1662 -12 c-6 -17 -65 -27 -165 -27
-72 -1 -84 1 -93 19 -10 20 -8 20 125 20 105 0 136 -3 133 -12z m-1058 -60 c0
-5 -9 -8 -20 -8 -13 0 -20 7 -20 19 0 11 -3 28 -6 38 -4 11 4 6 20 -12 14 -16
25 -33 26 -37z m-347 24 c-3 -12 -12 -22 -20 -22 -11 0 -10 5 4 24 21 28 24
28 16 -2z m380 -2 c9 -11 13 -20 8 -20 -4 0 -16 9 -26 20 -10 11 -14 20 -9 20
5 0 17 -9 27 -20z m2687 -10 c0 -19 -7 -20 -170 -20 -163 0 -170 1 -170 20 0
19 7 20 170 20 163 0 170 -1 170 -20z m-2600 -6 c0 -2 -12 -4 -27 -4 -21 0
-24 3 -14 9 13 8 41 5 41 -5z m890 1 c0 -13 -15 -15 -92 -13 -62 2 -93 7 -96
16 -3 9 20 12 92 12 80 0 96 -3 96 -15z"/>
<path d="M360 4820 c-9 -6 -10 -10 -3 -10 6 0 15 5 18 10 8 12 4 12 -15 0z"/>
<path d="M575 4720 c-13 -6 -15 -9 -5 -9 8 0 22 4 30 9 18 12 2 12 -25 0z"/>
<path d="M1971 4734 c0 -11 3 -14 6 -6 3 7 2 16 -1 19 -3 4 -6 -2 -5 -13z"/>
<path d="M920 4358 c-17 -29 -18 -34 -4 -66 19 -47 18 -55 -8 -41 -22 12 -22
11 -8 -6 26 -32 132 -105 142 -99 6 4 -12 27 -41 53 -64 58 -88 118 -65 163
20 38 8 36 -16 -4z"/>
<path d="M1611 4094 c0 -11 3 -14 6 -6 3 7 2 16 -1 19 -3 4 -6 -2 -5 -13z"/>
<path d="M2338 3623 c7 -3 16 -2 19 1 4 3 -2 6 -13 5 -11 0 -14 -3 -6 -6z"/>
<path d="M2447 3619 c7 -7 15 -10 18 -7 3 3 -2 9 -12 12 -14 6 -15 5 -6 -5z"/>
<path d="M1690 3600 c0 -5 5 -10 11 -10 5 0 7 5 4 10 -3 6 -8 10 -11 10 -2 0
-4 -4 -4 -10z"/>
<path d="M1797 3533 c-16 -8 -36 -12 -44 -9 -13 5 -14 4 -3 -9 12 -14 7 -19
-13 -16 -12 2 -3 -22 9 -26 12 -4 91 63 84 70 -3 3 -18 -1 -33 -10z"/>
<path d="M2773 3215 c0 -22 2 -30 4 -17 2 12 2 30 0 40 -3 9 -5 -1 -4 -23z"/>
<path d="M3553 4572 l-16 -37 -10 33 c-7 24 -16 32 -33 32 l-23 0 15 -52 c9
-28 20 -62 25 -75 5 -14 9 -58 9 -99 0 -66 2 -75 18 -72 14 3 18 18 23 93 4
50 14 112 23 139 20 60 20 62 0 70 -11 4 -20 -5 -31 -32z"/>
<path d="M3632 4573 c-61 -88 -54 -245 11 -267 52 -19 84 24 97 128 8 69 -2
118 -31 147 -27 27 -54 24 -77 -8z m68 -62 c22 -41 6 -126 -26 -138 -28 -10
-46 25 -40 75 10 76 42 107 66 63z"/>
<path d="M3766 4578 c-20 -75 3 -239 36 -262 28 -20 45 -11 69 36 17 32 19 55
17 141 -2 83 -6 102 -18 102 -12 0 -16 -17 -18 -85 -3 -103 -8 -130 -26 -130
-15 0 -26 81 -23 170 2 34 -2 45 -14 48 -10 2 -19 -6 -23 -20z"/>
<path d="M3516 4258 c-13 -8 -16 -33 -16 -148 0 -133 1 -140 20 -140 21 0 23
7 20 53 -2 39 12 33 32 -13 9 -23 23 -40 32 -40 20 0 20 15 0 73 -14 42 -14
48 0 69 19 27 21 108 4 130 -15 19 -70 28 -92 16z m62 -82 c-4 -31 -38 -34
-38 -3 0 29 7 37 27 30 8 -3 13 -15 11 -27z"/>
<path d="M3779 4248 c-7 -13 -12 -42 -12 -65 0 -32 7 -49 31 -78 35 -39 38
-50 21 -61 -7 -4 -20 4 -30 17 l-17 24 -7 -27 c-15 -58 26 -102 72 -77 44 23
43 104 -2 158 -24 28 -34 71 -16 71 5 0 11 -9 14 -20 3 -11 13 -20 22 -20 15
0 17 6 12 37 -10 60 -64 85 -88 41z"/>
<path d="M3906 4248 c-27 -38 -20 -100 14 -143 17 -21 30 -44 30 -51 0 -24
-18 -25 -35 -2 -13 20 -17 21 -25 8 -15 -24 -12 -48 10 -70 25 -25 52 -25 75
0 26 29 16 109 -18 150 -27 32 -36 70 -16 70 6 0 13 -9 16 -20 8 -32 33 -24
33 10 0 32 -30 70 -54 70 -8 0 -22 -10 -30 -22z"/>
<path d="M3365 4248 c-3 -8 -4 -72 -3 -144 3 -127 3 -129 26 -132 53 -8 92 66
95 174 1 70 -24 108 -77 112 -24 2 -38 -1 -41 -10z m65 -77 c20 -39 10 -111
-16 -111 -11 0 -14 16 -14 65 0 65 10 81 30 46z"/>
<path d="M3644 4247 c-2 -7 -3 -71 -2 -143 l3 -129 38 -3 c44 -4 69 12 65 42
-2 14 -12 22 -32 26 -36 6 -45 27 -14 32 18 2 24 10 26 35 3 26 -1 32 -20 35
-33 4 -36 36 -3 44 29 7 48 35 39 58 -8 20 -92 23 -100 3z"/>
<path d="M3315 3920 c-6 -10 18 -201 32 -258 10 -43 37 -22 47 38 l9 55 11
-55 c9 -43 16 -56 32 -58 18 -3 23 7 42 100 29 140 32 181 10 186 -13 2 -19
-9 -28 -55 -22 -111 -23 -113 -31 -68 -5 22 -8 59 -8 83 -1 29 -5 42 -15 42
-17 0 -22 -13 -31 -74 -9 -56 -25 -71 -25 -23 0 77 -23 122 -45 87z"/>
<path d="M3543 3918 c-10 -17 -17 -220 -9 -253 6 -24 10 -26 54 -23 45 3 47 4
47 33 0 25 -4 30 -27 33 -32 4 -39 32 -8 32 12 0 22 9 26 24 7 31 -1 46 -27
46 -26 0 -25 33 3 45 28 13 43 38 35 59 -8 20 -82 23 -94 4z"/>
<path d="M3668 3913 c-3 -10 -6 -73 -7 -141 -2 -104 0 -123 14 -128 9 -4 19
-3 23 1 4 3 8 69 10 146 2 131 2 139 -17 139 -10 0 -21 -8 -23 -17z"/>
<path d="M3728 3924 c-5 -4 -8 -70 -8 -146 0 -139 0 -139 23 -136 18 2 22 9
20 36 -2 42 9 41 30 -3 9 -19 23 -35 32 -35 19 0 19 11 -2 71 -16 45 -16 49 0
67 18 20 24 106 8 131 -10 15 -92 27 -103 15z m72 -78 c0 -23 -22 -41 -34 -29
-3 4 -6 17 -6 30 0 16 6 23 20 23 14 0 20 -7 20 -24z"/>
<path d="M3867 3923 c-4 -3 -7 -66 -7 -139 0 -117 2 -134 18 -143 33 -18 75
18 92 82 24 85 6 185 -35 201 -22 8 -60 8 -68 -1z m69 -110 c7 -38 -5 -88 -21
-88 -6 0 -11 28 -13 63 -2 50 0 62 12 62 9 0 18 -14 22 -37z"/>
<path d="M4006 3908 c-9 -36 -7 -181 4 -198 8 -12 10 -12 16 3 12 32 10 210
-2 214 -6 2 -14 -6 -18 -19z"/>
<path d="M4004 3675 c-3 -8 -3 -19 1 -25 11 -18 25 -11 25 15 0 27 -17 34 -26
10z"/>
<path d="M2105 4210 c-3 -5 -1 -10 4 -10 6 0 11 5 11 10 0 6 -2 10 -4 10 -3 0
-8 -4 -11 -10z"/>
<path d="M2015 4130 c-4 -6 -11 -8 -16 -5 -5 3 -6 -1 -3 -10 4 -9 7 -15 8 -13
1 2 8 11 15 21 7 9 11 17 8 17 -3 0 -9 -5 -12 -10z"/>
<path d="M2050 4080 c0 -5 4 -10 10 -10 5 0 6 -8 3 -17 -6 -16 -5 -16 12 0 15
16 16 20 4 28 -19 12 -29 11 -29 -1z"/>
<path d="M2020 4060 c8 -5 20 -10 25 -10 6 0 3 5 -5 10 -8 5 -19 10 -25 10 -5
0 -3 -5 5 -10z"/>
<path d="M1050 3721 c0 -13 49 -65 55 -59 3 3 -4 15 -15 28 -11 13 -20 27 -20
32 0 4 -4 8 -10 8 -5 0 -10 -4 -10 -9z"/>
<path d="M1020 3603 c18 -15 24 -30 23 -57 -1 -20 3 -33 8 -30 11 6 12 64 1
80 -4 6 -18 15 -32 19 l-25 8 25 -20z"/>
<path d="M768 3573 c7 -3 16 -2 19 1 4 3 -2 6 -13 5 -11 0 -14 -3 -6 -6z"/>
<path d="M960 3555 c7 -9 15 -13 17 -11 7 7 -7 26 -19 26 -6 0 -6 -6 2 -15z"/>
<path d="M770 3539 c0 -5 5 -7 10 -4 6 3 10 8 10 11 0 2 -4 4 -10 4 -5 0 -10
-5 -10 -11z"/>
<path d="M718 3503 c7 -3 16 -2 19 1 4 3 -2 6 -13 5 -11 0 -14 -3 -6 -6z"/>
<path d="M634 3425 c-18 -14 -18 -14 4 -8 12 3 22 9 22 14 0 12 -3 11 -26 -6z"/>
<path d="M840 3416 c0 -2 7 -7 16 -10 8 -3 12 -2 9 4 -6 10 -25 14 -25 6z"/>
<path d="M810 3370 c6 -11 12 -20 14 -20 2 0 2 9 -1 20 -3 11 -9 20 -15 20 -5
0 -4 -9 2 -20z"/>
<path d="M580 3369 c0 -5 5 -7 10 -4 6 3 10 8 10 11 0 2 -4 4 -10 4 -5 0 -10
-5 -10 -11z"/>
<path d="M867 3360 c3 -10 11 -24 18 -30 11 -10 12 -6 2 19 -13 34 -28 43 -20
11z"/>
<path d="M535 3310 c-3 -5 -2 -10 4 -10 5 0 13 5 16 10 3 6 2 10 -4 10 -5 0
-13 -4 -16 -10z"/>
<path d="M835 3310 c3 -5 8 -10 11 -10 2 0 4 5 4 10 0 6 -5 10 -11 10 -5 0 -7
-4 -4 -10z"/>
<path d="M165 3280 c-3 -6 1 -7 9 -4 18 7 21 14 7 14 -6 0 -13 -4 -16 -10z"/>
<path d="M836 3273 c-6 -14 -5 -15 5 -6 7 7 10 15 7 18 -3 3 -9 -2 -12 -12z"/>
<path d="M823 3048 c5 -51 23 -105 32 -96 5 5 -24 141 -32 147 -3 3 -3 -19 0
-51z"/>
<path d="M564 3023 c-1 -14 4 -23 13 -23 8 0 11 5 8 10 -3 6 -1 10 4 10 18 0
12 17 -6 22 -13 4 -18 -2 -19 -19z"/>
<path d="M2195 2816 c46 -21 78 -30 71 -18 -3 5 -18 12 -33 15 -16 3 -37 8
-48 11 -11 4 -6 0 10 -8z"/>
<path d="M502 2750 c7 -11 16 -20 20 -20 3 0 15 -3 25 -7 10 -4 4 5 -13 20
-38 32 -49 34 -32 7z"/>
<path d="M1340 3181 c0 -6 5 -13 10 -16 6 -3 10 1 10 9 0 9 -4 16 -10 16 -5 0
-10 -4 -10 -9z"/>
<path d="M1386 3101 c-4 -7 -5 -15 -2 -18 9 -9 19 4 14 18 -4 11 -6 11 -12 0z"/>
<path d="M1297 2949 c6 -22 20 -26 20 -4 0 8 -6 16 -13 19 -7 3 -10 -2 -7 -15z"/>
<path d="M1560 3040 c0 -5 5 -10 11 -10 5 0 7 5 4 10 -3 6 -8 10 -11 10 -2 0
-4 -4 -4 -10z"/>
<path d="M1540 3000 c0 -5 5 -10 11 -10 5 0 7 5 4 10 -3 6 -8 10 -11 10 -2 0
-4 -4 -4 -10z"/>
<path d="M1615 2929 c-4 -6 -5 -12 -2 -15 2 -3 7 2 10 11 7 17 1 20 -8 4z"/>
<path d="M1630 2901 c0 -5 7 -12 16 -15 14 -5 15 -4 4 9 -14 17 -20 19 -20 6z"/>
<path d="M1572 2868 c6 -18 28 -21 28 -4 0 9 -7 16 -16 16 -9 0 -14 -5 -12
-12z"/>
<path d="M1600 2810 c0 -5 5 -10 10 -10 6 0 10 5 10 10 0 6 -4 10 -10 10 -5 0
-10 -4 -10 -10z"/>
<path d="M1679 2793 c-13 -16 -12 -17 4 -4 9 7 17 15 17 17 0 8 -8 3 -21 -13z"/>
<path d="M1450 2782 c0 -5 7 -9 15 -9 8 0 12 4 9 9 -3 4 -9 8 -15 8 -5 0 -9
-4 -9 -8z"/>
<path d="M1660 2766 c0 -2 7 -6 15 -10 8 -3 15 -1 15 4 0 6 -7 10 -15 10 -8 0
-15 -2 -15 -4z"/>
<path d="M125 2502 c-3 -3 -5 -567 -5 -1254 0 -992 3 -1248 13 -1248 9 0 12
254 13 1235 1 680 5 1239 9 1243 9 9 2315 9 2315 0 0 -3 -15 -10 -32 -13 -47
-10 -105 -41 -169 -91 -61 -47 -95 -87 -128 -152 -36 -71 -121 -295 -121 -321
0 -13 7 -50 16 -83 14 -55 14 -62 -1 -78 -19 -21 -16 -45 15 -145 11 -33 24
-111 29 -173 8 -83 16 -120 29 -140 49 -69 73 -133 70 -185 -3 -48 -5 -52 -46
-76 -24 -14 -52 -41 -63 -60 -19 -31 -21 -32 -38 -17 -30 27 -97 11 -150 -36
-25 -21 -51 -36 -58 -34 -18 7 -310 -30 -351 -45 -36 -12 -80 -8 -129 12 -29
12 -37 11 -60 -3 -21 -11 -70 -18 -183 -23 -206 -9 -210 -12 -263 -122 -37
-80 -46 -91 -99 -125 -67 -43 -78 -65 -78 -150 0 -60 0 -61 -69 -142 -37 -45
-101 -124 -141 -176 l-72 -95 357 -3 c197 -1 360 0 363 2 13 14 119 522 142
681 13 93 20 119 28 111 3 -4 17 4 30 16 l25 23 -7 -105 c-11 -164 -39 -333
-102 -608 -13 -57 -24 -107 -24 -112 0 -4 11 -7 25 -7 27 0 31 7 14 24 -8 8
-8 20 -2 40 10 27 10 27 17 -20 l7 -47 49 0 c47 0 74 15 52 29 -5 3 -8 23 -6
43 2 25 -1 37 -9 35 -7 -1 -11 7 -10 18 1 11 -1 22 -5 25 -4 3 -12 19 -18 37
-10 26 -9 31 2 26 7 -3 20 2 29 10 13 14 11 15 -19 13 -29 -3 -35 1 -39 21 -2
13 0 45 5 71 5 26 17 105 28 176 18 120 30 168 30 116 0 -19 2 -20 15 -10 12
10 16 8 25 -15 6 -15 8 -37 4 -49 -5 -17 -4 -19 7 -9 10 10 16 10 30 -3 10 -9
15 -22 12 -30 -3 -9 2 -14 13 -14 11 0 15 -4 9 -8 -5 -4 -16 -15 -24 -24 -12
-16 -11 -18 10 -18 17 0 20 3 10 9 -9 6 -10 11 -2 15 6 4 18 0 27 -8 8 -9 11
-16 5 -16 -6 0 -11 -5 -11 -11 0 -6 7 -9 15 -5 8 3 16 1 16 -4 1 -6 3 -14 4
-20 1 -5 3 -15 4 -21 1 -8 5 -8 15 0 11 9 14 8 12 -6 0 -10 -5 -21 -11 -26
-14 -11 23 -37 43 -30 14 4 14 3 3 -5 -20 -15 0 -38 40 -46 17 -3 37 -13 45
-21 9 -8 20 -13 25 -9 6 3 16 0 24 -6 16 -14 39 -4 29 12 -4 6 -3 9 2 6 5 -3
34 2 64 12 30 10 57 16 59 14 2 -2 -10 -31 -26 -65 -26 -51 -30 -70 -27 -119
2 -33 -1 -62 -6 -65 -19 -11 -10 -25 14 -23 14 1 23 5 21 8 -4 7 31 40 42 40
3 0 -2 -9 -12 -20 -16 -17 -16 -20 -2 -26 23 -8 39 5 32 26 -3 11 0 20 11 24
12 5 15 2 10 -9 -3 -9 -2 -13 4 -10 6 3 10 13 10 21 0 8 9 14 21 14 15 0 19 5
17 22 -2 15 4 26 19 33 13 7 20 15 15 20 -4 5 -1 5 6 1 16 -10 15 -26 -2 -26
-8 0 -17 -4 -20 -9 -4 -5 4 -7 16 -3 18 4 20 2 16 -16 -3 -11 1 -30 9 -42 13
-18 13 -24 2 -30 -7 -5 -17 -6 -23 -3 -5 3 -6 1 -3 -4 4 -6 21 -10 39 -9 28 1
33 6 33 26 0 14 -6 33 -14 42 -7 10 -11 24 -8 32 3 8 3 17 0 20 -9 9 -13 56
-5 56 4 0 16 -7 27 -16 17 -12 18 -16 5 -24 -8 -5 -11 -12 -6 -17 4 -4 12 0
17 10 14 24 29 21 29 -5 0 -36 28 -128 30 -98 l1 25 15 -27 c8 -16 21 -28 29
-28 11 0 4 23 -28 88 -46 91 -70 163 -44 130 7 -9 33 -62 58 -117 l44 -100
223 1 c199 1 223 3 219 17 -3 9 -26 63 -51 120 -25 57 -46 109 -46 116 0 7
-15 18 -32 25 -18 7 -61 26 -95 42 -51 24 -63 35 -68 60 -4 17 -21 47 -39 67
-83 94 -95 117 -135 254 -39 133 -39 136 -25 189 7 29 17 81 20 116 4 34 11
65 17 69 6 3 7 1 3 -5 -3 -5 1 -40 9 -75 8 -36 14 -71 12 -79 -2 -7 -2 -10 0
-5 9 14 28 7 59 -24 30 -29 32 -30 27 -9 -6 22 -4 23 38 16 24 -4 46 -10 49
-14 12 -16 70 -43 70 -32 0 6 -7 13 -15 16 -27 11 -16 24 19 24 18 0 44 9 58
19 13 11 37 23 51 26 15 4 25 11 22 15 -2 4 16 15 40 25 25 9 45 23 45 31 0 8
7 14 15 14 8 0 23 9 32 20 19 22 38 27 27 8 -4 -7 12 6 36 30 24 23 49 42 55
42 7 0 18 7 26 16 7 8 26 22 42 31 l29 15 -16 -23 c-9 -13 -35 -34 -59 -46
l-42 -22 37 -1 c31 0 42 7 73 42 l36 42 -6 -72 c-3 -40 -1 -72 4 -72 12 0 22
54 10 58 -5 2 2 24 16 48 14 24 21 44 15 44 -6 0 -4 12 5 30 9 17 20 30 26 30
7 0 4 -11 -6 -26 -9 -15 -12 -23 -5 -19 9 6 10 1 4 -16 -4 -13 -7 -33 -6 -43
0 -11 -3 -27 -9 -38 -5 -10 -7 -18 -5 -18 8 0 28 40 31 64 19 131 29 175 42
180 12 5 14 1 10 -16 -3 -13 -20 -111 -36 -218 -17 -107 -40 -235 -51 -285
-11 -49 -23 -108 -25 -130 -3 -22 -14 -85 -25 -140 -12 -57 -18 -119 -15 -142
3 -23 1 -45 -5 -48 -5 -3 -10 -11 -10 -16 0 -6 4 -7 10 -4 9 6 11 -5 14 -62 1
-12 -5 -17 -16 -15 -10 2 -18 -2 -18 -8 0 -5 5 -10 11 -10 5 0 7 -5 4 -10 -3
-6 1 -10 9 -10 14 0 21 -18 17 -43 -1 -4 3 -26 8 -49 7 -31 6 -48 -5 -69 -8
-16 -14 -33 -14 -39 0 -7 78 -10 237 -10 l236 0 -19 21 c-19 22 -19 22 4 10
12 -6 22 -16 22 -21 0 -6 32 -10 72 -10 l71 0 -24 26 c-16 18 -20 28 -12 31 9
3 3 19 -19 51 -64 95 -342 436 -424 520 -46 48 -82 93 -79 100 2 7 14 65 25
130 22 125 64 342 83 432 11 50 16 57 55 77 54 27 95 78 138 168 51 111 52
133 10 199 -20 31 -43 59 -51 62 -11 5 -13 22 -8 87 11 174 -33 296 -150 411
-72 72 -176 133 -282 166 -22 7 -43 15 -47 19 -6 5 666 6 1365 2 l207 -1 0
-1240 c0 -823 3 -1240 10 -1240 7 0 9 419 8 1252 l-3 1252 -2133 1 c-1172 1
-2134 -1 -2137 -3z m2640 -183 c83 -21 184 -75 210 -112 20 -28 19 -56 -5
-147 l-20 -75 28 -40 c75 -107 82 -126 83 -237 1 -66 4 -92 9 -73 5 23 8 26
14 14 4 -9 0 -33 -8 -53 -28 -66 -7 -37 35 49 42 87 70 116 129 136 39 14 68
-4 103 -64 l26 -45 -20 -59 c-11 -32 -39 -92 -62 -133 l-42 -74 -89 -32 c-50
-19 -92 -31 -94 -29 -3 3 1 39 7 81 14 82 9 110 -8 48 -14 -53 -31 -165 -28
-188 2 -21 -47 -58 -293 -221 -193 -127 -213 -138 -251 -130 -18 4 -29 3 -29
-4 0 -19 -25 -7 -38 19 l-13 25 4 -27 c2 -15 0 -25 -4 -22 -5 3 -9 13 -9 22 0
15 -2 15 -11 2 -8 -12 -9 -10 -4 8 5 19 3 22 -19 22 -14 0 -26 -4 -26 -10 0
-5 -7 -7 -15 -4 -8 4 -15 10 -15 15 0 4 -11 25 -25 45 -14 20 -25 46 -25 57 0
15 -3 17 -13 9 -10 -9 -26 16 -74 111 l-61 122 -12 145 c-6 80 -15 185 -20
234 -5 49 -6 94 -1 100 5 6 14 27 20 47 6 20 21 45 32 57 11 12 16 22 10 22
-15 0 -60 -59 -68 -88 l-7 -27 -7 25 c-16 58 -10 89 26 128 29 31 36 35 45 22
9 -13 12 -13 21 3 14 25 64 22 90 -5 26 -28 41 -66 33 -80 -4 -6 -3 -8 3 -5 5
3 17 -10 26 -29 15 -31 16 -41 3 -87 -22 -82 -45 -188 -52 -240 -5 -36 -3 -52
9 -65 9 -10 22 -33 28 -52 10 -27 14 -31 23 -18 6 8 21 18 34 22 17 6 22 3 23
-11 0 -10 8 -1 19 22 22 50 13 61 -41 47 -25 -6 -51 -7 -64 -2 l-23 9 19 93
c11 51 29 127 40 169 l20 76 -49 106 c-28 58 -50 120 -51 139 0 18 -2 44 -5
58 -3 14 -1 53 5 88 l11 63 52 -6 c36 -5 63 -2 87 7 32 14 146 43 199 51 34 6
80 -1 175 -24z m-553 -194 c7 -35 -18 -68 -41 -55 -15 7 -18 6 -17 -7 0 -9
-12 -21 -29 -29 l-31 -12 4 34 c5 37 11 41 31 22 11 -11 11 -9 2 10 -11 21
-10 23 5 21 4 0 11 5 16 13 6 9 7 6 3 -9 -3 -13 -4 -23 -2 -23 10 0 47 38 47
49 0 20 8 12 12 -14z m836 -64 c3 -8 -5 -7 -22 4 -32 21 -33 27 -4 16 12 -4
24 -14 26 -20z m-18 -41 c16 -16 17 -20 5 -20 -8 0 -15 -5 -15 -10 0 -16 33
-26 38 -12 7 22 24 12 18 -10 -5 -18 3 -31 37 -61 38 -35 35 -43 -5 -10 -10 9
-25 12 -38 8 -20 -6 -19 -8 12 -48 26 -33 28 -38 10 -25 -28 19 -88 98 -75 98
6 0 13 -3 17 -7 3 -4 13 -8 21 -9 29 -4 14 15 -35 47 -32 21 -49 38 -45 47 3
7 5 18 5 23 0 16 29 10 50 -11z m45 -10 c3 -5 1 -10 -4 -10 -6 0 -11 5 -11 10
0 6 2 10 4 10 3 0 8 -4 11 -10z m65 -15 c13 -14 21 -25 18 -25 -2 0 -15 11
-28 25 -13 14 -21 25 -18 25 2 0 15 -11 28 -25z m5 -45 c-3 -5 0 -12 6 -16 8
-4 9 -3 5 4 -4 7 -3 12 3 12 16 0 99 -103 94 -118 -4 -10 -11 -8 -30 9 -13 13
-21 30 -18 37 3 8 -2 23 -11 33 -17 19 -40 27 -30 10 3 -4 -6 -6 -19 -3 -14 2
-25 8 -25 12 0 19 13 39 21 34 5 -3 7 -9 4 -14z m15 -123 c0 -6 -13 2 -30 18
-16 16 -30 30 -30 33 0 2 14 -6 30 -18 17 -12 30 -26 30 -33z m-49 -42 c18
-22 29 -32 26 -22 -4 9 -4 24 -1 32 5 12 8 12 20 0 16 -16 19 -29 4 -20 -5 3
-10 -2 -10 -12 0 -19 -18 -43 -32 -43 -4 0 -5 7 -2 15 4 8 2 15 -4 15 -11 0
-11 -18 1 -37 11 -17 -1 -39 -21 -40 -16 -1 -18 8 -19 78 0 44 1 78 3 77 1 -2
17 -21 35 -43z m14 15 c3 -5 2 -10 -4 -10 -5 0 -13 5 -16 10 -3 6 -2 10 4 10
5 0 13 -4 16 -10z m-1068 -127 c-3 -10 -5 -4 -5 12 0 17 2 24 5 18 2 -7 2 -21
0 -30z m-37 -778 c0 -37 -14 -54 -24 -29 -8 21 -8 59 0 67 13 13 24 -5 24 -38z
m-50 -42 c0 -43 -5 -85 -10 -93 -7 -10 -10 14 -10 78 0 55 4 92 10 92 6 0 10
-32 10 -77z m-41 25 c-1 -31 -1 -31 -8 -8 -5 14 -6 28 -4 33 9 15 13 6 12 -25z
m179 24 c9 -6 0 -14 -28 -25 -22 -8 -39 -12 -37 -9 2 4 7 15 10 25 7 18 33 22
55 9z m-203 -22 c3 -5 -1 -10 -10 -10 -9 0 -13 5 -10 10 3 6 8 10 10 10 2 0 7
-4 10 -10z m-60 -30 c3 -5 -1 -10 -9 -10 -9 0 -16 -4 -16 -10 0 -5 -8 -10 -17
-10 -15 0 -16 2 -3 10 12 8 12 10 -5 10 -17 0 -17 2 -5 10 20 13 47 13 55 0z
m-93 -9 c-10 -6 -8 -10 8 -14 34 -9 13 -30 -22 -23 -16 3 -27 2 -24 -3 3 -5
-8 -11 -25 -15 -47 -9 -59 -7 -59 9 0 8 -5 15 -11 15 -24 0 2 17 28 18 15 1
42 6 58 11 40 13 65 14 47 2z m178 -30 c0 -5 -9 -11 -20 -14 -11 -3 -20 -1
-20 4 0 5 7 9 16 9 9 0 12 5 8 12 -4 7 -3 8 4 4 7 -4 12 -11 12 -15z m220 0
c0 -17 -27 -37 -37 -27 -7 7 17 46 27 46 6 0 10 -9 10 -19z m-542 -3 c15 -15
16 -38 1 -38 -5 0 -7 6 -3 13 6 9 4 9 -7 1 -8 -6 -34 -14 -59 -18 -116 -18
-132 -24 -119 -47 5 -10 6 -19 1 -19 -5 0 -9 -7 -9 -16 0 -15 2 -14 13 1 8 10
11 22 8 26 -3 5 0 9 5 9 6 0 11 -5 11 -11 0 -7 14 -10 35 -7 24 3 34 0 31 -7
-3 -8 9 -9 42 -4 64 11 94 11 88 0 -3 -4 51 -11 120 -14 69 -3 127 -7 130 -9
2 -3 -2 -18 -11 -34 -8 -16 -15 -34 -15 -41 0 -7 -8 -17 -17 -22 -10 -6 -15
-11 -10 -11 4 0 -6 -27 -23 -60 -16 -33 -30 -70 -30 -82 0 -19 -2 -20 -11 -8
-8 12 -9 9 -5 -12 3 -15 2 -29 -3 -32 -16 -10 -41 5 -41 24 0 12 -17 26 -49
41 -28 12 -49 27 -48 33 1 5 -8 11 -21 12 -25 1 -64 32 -57 44 3 5 -5 6 -17 2
-14 -3 -19 -2 -14 6 4 7 2 12 -4 12 -7 0 -9 9 -5 23 4 13 3 17 -2 10 -10 -14
-56 -5 -47 9 3 5 -2 12 -13 14 -14 4 -18 14 -18 39 1 26 -2 32 -10 25 -8 -7
-15 -2 -23 15 -7 14 -7 27 -2 30 10 6 2 35 -10 35 -4 0 -10 -7 -13 -14 -4 -11
-1 -13 11 -9 9 3 14 3 10 -1 -3 -4 -18 -9 -32 -10 -25 -3 -26 -1 -26 45 0 53
9 60 40 29 14 -14 20 -16 20 -6 0 8 16 16 41 20 42 7 63 1 54 -15 -3 -5 1 -6
9 -3 9 3 14 11 13 17 -1 7 6 11 16 11 9 -1 17 2 17 7 0 13 44 11 58 -3z m322
-58 c0 -5 -2 -10 -4 -10 -3 0 -8 5 -11 10 -3 6 -1 10 4 10 6 0 11 -4 11 -10z
m68 -36 c-29 -15 -33 -12 -18 16 9 18 14 19 26 9 13 -11 12 -14 -8 -25z m-351
10 c-3 -3 -12 -4 -19 -1 -8 3 -5 6 6 6 11 1 17 -2 13 -5z m60 -20 c-3 -3 -12
-4 -19 -1 -8 3 -5 6 6 6 11 1 17 -2 13 -5z m373 -56 c0 -15 -5 -18 -22 -12
-31 9 -31 9 -17 33 15 24 39 11 39 -21z m-70 28 c0 -2 -8 -10 -17 -17 -16 -13
-17 -12 -4 4 13 16 21 21 21 13z m15 -66 c3 -5 -1 -10 -9 -10 -9 0 -16 5 -16
10 0 6 4 10 9 10 6 0 13 -4 16 -10z m55 -44 c0 -7 -6 -19 -14 -25 -12 -10 -17
-8 -25 8 -15 28 -14 31 14 31 15 0 25 -6 25 -14z m-80 -11 c11 -13 10 -14 -4
-9 -9 3 -16 10 -16 15 0 13 6 11 20 -6z m1145 4 c11 -17 -1 -21 -15 -4 -8 9
-8 15 -2 15 6 0 14 -5 17 -11z m-1208 -31 c-3 -8 -6 -5 -6 6 -1 11 2 17 5 13
3 -3 4 -12 1 -19z m1150 -10 c-3 -7 -5 -2 -5 12 0 14 2 19 5 13 2 -7 2 -19 0
-25z m-1177 -35 c0 -15 -36 -18 -45 -4 -3 5 2 17 11 26 14 13 19 14 25 3 5 -7
9 -19 9 -25z m110 6 c0 -8 -25 -19 -44 -19 -9 0 -12 9 -9 24 5 22 8 23 29 14
13 -6 24 -15 24 -19z m1108 -18 c-15 -5 -18 3 -11 29 l7 25 6 -25 c3 -14 2
-27 -2 -29z m32 19 c0 -5 -2 -10 -4 -10 -3 0 -8 5 -11 10 -3 6 -1 10 4 10 6 0
11 -4 11 -10z m-125 -18 c-3 -3 -11 0 -18 7 -9 10 -8 11 6 5 10 -3 15 -9 12
-12z m-1515 -2 c0 -5 -7 -7 -15 -4 -8 4 -15 8 -15 10 0 2 7 4 15 4 8 0 15 -4
15 -10z m45 -20 c3 -5 1 -10 -4 -10 -6 0 -11 5 -11 10 0 6 2 10 4 10 3 0 8 -4
11 -10z m1710 -37 l18 -28 -21 19 c-12 11 -22 23 -22 28 0 14 7 9 25 -19z
m-1200 -43 c-3 -5 -12 -10 -18 -10 -7 0 -6 4 3 10 19 12 23 12 15 0z m-470
-20 c3 -6 -1 -7 -9 -4 -18 7 -21 14 -7 14 6 0 13 -4 16 -10z m487 -42 c-1 -24
3 -61 8 -82 13 -58 1 -71 -34 -41 -16 14 -26 28 -21 33 4 4 10 1 12 -5 6 -18
23 -16 23 2 0 8 -7 15 -15 15 -18 0 -37 34 -29 54 3 8 12 12 20 9 8 -3 14 1
14 11 0 19 -21 21 -38 4 -9 -9 -12 -9 -12 0 0 7 4 12 10 12 5 0 6 8 3 18 -6
15 -5 15 11 2 16 -12 19 -12 28 4 14 25 20 14 20 -36z m-252 28 c0 -13 -39
-30 -48 -21 -8 7 20 35 34 35 8 0 14 -6 14 -14z m1255 -11 c0 -10 -6 -20 -12
-22 -8 -3 -13 5 -13 22 0 17 5 25 13 23 6 -3 12 -13 12 -23z m145 10 l35 -13
-32 -1 c-17 -1 -35 -6 -39 -12 -9 -15 -24 9 -17 28 6 15 8 15 53 -2z m-1470 1
c0 -2 -6 -16 -14 -30 -10 -20 -15 -23 -19 -12 -3 8 1 17 9 20 9 3 12 10 9 16
-3 5 -1 10 4 10 6 0 11 -2 11 -4z m-60 -26 c13 -8 13 -10 -2 -10 -9 0 -20 5
-23 10 -8 13 5 13 25 0z m-80 -20 c8 -5 11 -10 5 -10 -5 0 -17 5 -25 10 -8 5
-10 10 -5 10 6 0 17 -5 25 -10z m700 -45 c11 -13 11 -18 -1 -28 -7 -7 -10 -8
-6 -3 4 5 0 18 -10 28 -9 10 -11 18 -6 18 6 0 16 -7 23 -15z m-320 -64 c0 -5
-7 -12 -16 -15 -14 -5 -15 -4 -4 9 14 17 20 19 20 6z m480 -8 c-1 -19 -18 -33
-33 -27 -18 6 -21 16 -10 27 9 9 43 9 43 0z m88 -5 c8 -8 9 -15 1 -25 -18 -21
-39 -15 -39 12 0 27 18 33 38 13z m482 -2 c0 -7 -6 -19 -14 -25 -10 -9 -16 -7
-27 5 -11 13 -10 17 2 25 21 13 39 11 39 -5z m79 -5 c8 -14 7 -20 -3 -24 -9
-4 -16 3 -19 19 -5 29 8 32 22 5z m-1169 -5 c0 -2 -8 -10 -17 -17 -16 -13 -17
-12 -4 4 13 16 21 21 21 13z m1117 -48 c-3 -8 -6 -5 -6 6 -1 11 2 17 5 13 3
-3 4 -12 1 -19z m-667 -29 c0 -8 -42 -20 -49 -14 -2 3 1 17 8 32 12 27 13 27
27 8 8 -10 14 -22 14 -26z m799 19 c11 -29 6 -37 -20 -31 -12 4 -18 11 -15 20
3 8 6 19 6 24 0 18 21 9 29 -13z m-1958 -5 c13 -16 12 -17 -3 -4 -17 13 -22
21 -14 21 2 0 10 -8 17 -17z m1879 -3 c0 -5 -5 -10 -11 -10 -5 0 -7 5 -4 10 3
6 8 10 11 10 2 0 4 -4 4 -10z m-515 -10 c3 -5 -1 -10 -10 -10 -9 0 -13 5 -10
10 3 6 8 10 10 10 2 0 7 -4 10 -10z m740 -40 c3 -6 -1 -7 -9 -4 -18 7 -21 14
-7 14 6 0 13 -4 16 -10z m-2045 -15 c11 -13 10 -14 -4 -9 -9 3 -16 10 -16 15
0 13 6 11 20 -6z m1127 9 c-3 -3 -12 -4 -19 -1 -8 3 -5 6 6 6 11 1 17 -2 13
-5z m150 0 c-3 -3 -12 -4 -19 -1 -8 3 -5 6 6 6 11 1 17 -2 13 -5z m-2137 -14
c0 -5 -4 -10 -10 -10 -5 0 -10 5 -10 10 0 6 5 10 10 10 6 0 10 -4 10 -10z"/>
<path d="M2473 2107 c5 -15 43 -33 87 -41 l35 -7 -27 16 c-16 9 -28 18 -28 21
0 3 6 2 13 -2 9 -5 9 -4 0 6 -15 17 -86 23 -80 7z"/>
<path d="M2780 2026 c0 -2 7 -7 16 -10 8 -3 12 -2 9 4 -6 10 -25 14 -25 6z"/>
<path d="M2160 1941 c0 -4 23 -13 50 -18 28 -6 50 -9 50 -7 0 2 -13 10 -30 19
-32 16 -70 20 -70 6z"/>
<path d="M2581 1884 c-29 -37 -18 -44 18 -10 27 26 30 27 89 17 33 -5 79 -19
102 -31 29 -15 41 -17 38 -8 -8 25 -81 52 -154 56 -68 4 -72 3 -93 -24z"/>
<path d="M2175 1864 c-43 -16 -83 -49 -72 -60 3 -4 22 3 42 15 43 25 57 27 49
6 -8 -20 13 -45 32 -38 20 7 18 40 -3 52 -11 6 -13 11 -5 11 7 0 24 -7 38 -16
36 -24 44 -7 11 22 -32 27 -37 28 -92 8z"/>
<path d="M2661 1856 c-12 -14 -5 -26 16 -26 15 0 18 26 4 34 -5 3 -14 0 -20
-8z"/>
<path d="M2615 1801 c3 -6 22 -11 42 -11 44 0 41 5 -10 14 -27 5 -37 4 -32 -3z"/>
<path d="M2210 1769 c-14 -6 -43 -8 -65 -5 -37 6 -39 5 -21 -9 11 -8 32 -15
46 -15 34 0 90 19 90 31 0 11 -18 11 -50 -2z"/>
<path d="M3183 1705 c-35 -35 -36 -37 -29 -96 5 -55 4 -62 -19 -83 -35 -33
-31 -39 11 -17 68 37 82 81 37 118 l-28 22 33 1 c37 0 72 -29 72 -61 0 -45
-37 -86 -100 -109 -33 -12 -64 -28 -71 -36 -6 -8 12 -4 48 10 97 39 107 46
126 84 15 31 16 43 7 67 -17 44 -40 65 -72 65 -15 0 -28 5 -28 10 0 6 13 10
29 10 19 0 35 8 44 20 14 20 15 19 41 -20 14 -22 26 -54 27 -72 l1 -33 14 34
c13 29 13 36 -1 58 -49 74 -89 81 -142 28z"/>
<path d="M2131 1344 c0 -11 3 -14 6 -6 3 7 2 16 -1 19 -3 4 -6 -2 -5 -13z"/>
<path d="M2293 1313 c-16 -11 -23 -25 -23 -48 0 -50 9 -64 53 -87 34 -17 54
-20 121 -16 124 7 160 33 142 103 -12 47 -143 82 -210 56 -12 -5 8 -7 50 -7
50 1 80 -4 108 -18 22 -11 34 -22 27 -24 -21 -7 -193 21 -205 33 -20 20 -41
23 -63 8z m22 -23 c-3 -5 -11 -10 -16 -10 -6 0 -7 5 -4 10 3 6 11 10 16 10 6
0 7 -4 4 -10z m251 -73 c3 -3 3 -10 -1 -16 -7 -12 -144 -15 -182 -5 -27 8 -30
21 -5 28 23 6 180 1 188 -7z"/>
<path d="M2551 1136 c-7 -8 -26 -18 -42 -21 -16 -4 -27 -11 -23 -16 3 -5 10
-7 15 -4 5 4 9 1 9 -4 0 -6 -15 -11 -32 -11 -29 -1 -31 -2 -14 -12 26 -15 81
13 101 52 16 31 7 41 -14 16z"/>
<path d="M2358 1073 c12 -2 30 -2 40 0 9 3 -1 5 -23 4 -22 0 -30 -2 -17 -4z"/>
<path d="M2110 2061 c0 -6 4 -13 10 -16 6 -3 7 1 4 9 -7 18 -14 21 -14 7z"/>
<path d="M1566 645 c-3 -9 0 -15 8 -15 8 0 16 7 20 15 3 9 0 15 -8 15 -8 0
-16 -7 -20 -15z"/>
<path d="M1670 647 c0 -10 8 -17 18 -17 9 0 13 4 7 8 -5 4 -13 11 -17 16 -5 5
-8 2 -8 -7z"/>
<path d="M1630 641 c0 -6 5 -13 10 -16 6 -3 10 1 10 9 0 9 -4 16 -10 16 -5 0
-10 -4 -10 -9z"/>
<path d="M1850 630 c-9 -6 -10 -10 -3 -10 6 0 15 5 18 10 8 12 4 12 -15 0z"/>
<path d="M1595 560 c-16 -7 -17 -9 -3 -9 9 -1 20 4 23 9 7 11 7 11 -20 0z"/>
<path d="M1785 549 c-4 -6 -5 -12 -2 -15 2 -3 7 2 10 11 7 17 1 20 -8 4z"/>
<path d="M1540 546 c0 -2 9 -6 20 -9 11 -3 18 -1 14 4 -5 9 -34 13 -34 5z"/>
<path d="M1640 486 c0 -2 7 -7 16 -10 8 -3 12 -2 9 4 -6 10 -25 14 -25 6z"/>
<path d="M2052 271 c-10 -6 -10 -11 3 -21 19 -16 30 -7 18 14 -5 9 -13 12 -21
7z"/>
<path d="M2853 1068 c-40 -13 -43 -27 -5 -22 15 2 21 1 15 -2 -7 -3 -13 -10
-13 -15 0 -18 19 -8 40 21 23 33 18 35 -37 18z"/>
<path d="M2790 1040 c0 -5 5 -10 10 -10 6 0 10 5 10 10 0 6 -4 10 -10 10 -5 0
-10 -4 -10 -10z"/>
<path d="M3026 1033 c-6 -14 -5 -15 5 -6 7 7 10 15 7 18 -3 3 -9 -2 -12 -12z"/>
<path d="M2810 1000 c-12 -8 -12 -10 5 -10 11 0 27 5 35 10 12 8 12 10 -5 10
-11 0 -27 -5 -35 -10z"/>
<path d="M2792 955 c-12 -14 -27 -25 -34 -25 -6 0 -9 -3 -5 -6 3 -3 -14 -27
-39 -52 -25 -25 -43 -49 -42 -53 5 -13 73 54 141 138 25 31 6 29 -21 -2z"/>
<path d="M2490 830 c0 -11 14 -11 50 0 22 7 21 8 -12 9 -21 1 -38 -3 -38 -9z"/>
<path d="M2527 813 c-4 -3 7 -15 23 -25 41 -25 46 -23 16 7 -27 27 -29 28 -39
18z"/>
<path d="M2635 800 c-3 -5 -2 -10 4 -10 5 0 13 5 16 10 3 6 2 10 -4 10 -5 0
-13 -4 -16 -10z"/>
<path d="M2927 791 c3 -12 10 -21 15 -21 13 0 6 32 -9 37 -7 3 -9 -3 -6 -16z"/>
<path d="M2830 760 c-8 -5 -10 -10 -5 -10 6 0 17 5 25 10 8 5 11 10 5 10 -5 0
-17 -5 -25 -10z"/>
<path d="M1267 710 c-15 -105 -124 -670 -134 -696 -3 -8 1 -14 10 -14 17 0 19
6 57 195 39 193 82 486 78 532 -3 36 -3 35 -11 -17z"/>
<path d="M2683 719 c-13 -6 -10 -8 14 -8 17 -1 34 3 37 7 6 10 -27 10 -51 1z"/>
<path d="M1313 395 c-3 -9 -3 -19 1 -22 3 -4 6 2 6 13 0 16 2 17 10 4 8 -13
10 -12 10 3 0 21 -18 23 -27 2z"/>
<path d="M1430 331 c0 -4 11 -6 25 -3 14 2 25 6 25 8 0 2 -11 4 -25 4 -14 0
-25 -4 -25 -9z"/>
<path d="M1530 300 c0 -5 5 -10 10 -10 6 0 10 5 10 10 0 6 -4 10 -10 10 -5 0
-10 -4 -10 -10z"/>
<path d="M2540 290 c20 -13 43 -13 35 0 -3 6 -16 10 -28 10 -18 0 -19 -2 -7
-10z"/>
<path d="M1592 251 c-11 -7 -10 -9 3 -14 11 -5 14 -3 9 5 -5 8 -2 9 10 5 10
-4 15 -3 11 3 -7 12 -16 12 -33 1z"/>
<path d="M1816 252 c-2 -4 0 -14 6 -22 8 -12 9 -12 5 2 -3 9 -1 19 6 22 9 3 9
5 0 5 -6 1 -14 -3 -17 -7z"/>
<path d="M2823 163 c-13 -8 -23 -19 -23 -24 0 -12 38 12 44 28 6 16 6 16 -21
-4z"/>
<path d="M2711 134 c13 -16 29 -19 29 -5 0 5 -9 11 -21 14 -16 4 -18 3 -8 -9z"/>
<path d="M1362 120 c0 -14 2 -19 5 -12 2 6 2 18 0 25 -3 6 -5 1 -5 -13z"/>
<path d="M1779 98 c-1 -7 -1 -17 0 -21 1 -4 -6 -10 -14 -13 -8 -4 -15 -13 -15
-21 0 -11 7 -9 25 8 13 13 20 25 15 27 -5 2 -6 10 -3 18 3 8 2 14 -1 14 -3 0
-7 -6 -7 -12z"/>
<path d="M2080 91 c0 -6 5 -13 10 -16 6 -3 10 1 10 9 0 9 -4 16 -10 16 -5 0
-10 -4 -10 -9z"/>
<path d="M1976 52 c-3 -5 6 -12 20 -15 15 -3 23 0 21 7 -5 14 -33 20 -41 8z"/>
<path d="M2096 51 c-4 -7 -5 -15 -2 -18 9 -9 19 4 14 18 -4 11 -6 11 -12 0z"/>
<path d="M1955 20 c-3 -5 1 -10 9 -10 9 0 16 5 16 10 0 6 -4 10 -9 10 -6 0
-13 -4 -16 -10z"/>
<path d="M1745 11 c-3 -6 3 -9 14 -8 11 0 17 5 15 9 -7 11 -22 10 -29 -1z"/>
<path d="M2098 3 c7 -3 16 -2 19 1 4 3 -2 6 -13 5 -11 0 -14 -3 -6 -6z"/>
</g>
</svg>
